<svg width="711" height="506" viewBox="0 0 711 506" fill="none" xmlns="http://www.w3.org/2000/svg">
<path fill-rule="evenodd" clip-rule="evenodd" d="M673.675 247.923H711V293.845H639.649C639.649 258.427 610.937 229.713 575.516 229.713C540.095 229.713 511.382 258.427 511.382 293.845H392.342L367.785 60.21H527.134L558.24 147.307H673.677V247.925L673.675 247.923Z" fill="black"/>
<path fill-rule="evenodd" clip-rule="evenodd" d="M110.15 240.679C139.513 240.679 163.316 264.482 163.316 293.845C163.316 323.208 139.511 347.011 110.15 347.011C80.7889 347.011 56.9834 323.206 56.9834 293.845C56.9834 264.484 80.7866 240.679 110.15 240.679Z" fill="black"/>
<path fill-rule="evenodd" clip-rule="evenodd" d="M8.06911 60.21H490.438C494.877 60.21 498.507 63.8404 498.507 68.2791V284.982C498.507 289.42 494.877 293.053 490.438 293.053H8.06911C3.6304 293.053 0 289.423 0 284.982V68.2791C0 63.8404 3.6304 60.21 8.06911 60.21Z" fill="black"/>
<path d="M437.098 74.3694H16.542V278.891H437.098V74.3694Z" fill="#FF9F00"/>
<path fill-rule="evenodd" clip-rule="evenodd" d="M25.186 74.3694H437.101L352.436 81.6886L355.443 101.95L297.814 101.403L289.773 114.811L252.016 138.614L223.01 109.337L178.656 127.122L146.671 89.6362L25.186 74.3694Z" fill="#E6E6E6"/>
<path fill-rule="evenodd" clip-rule="evenodd" d="M437.101 176.63V278.891H16.542V130.563L37.0769 256.427H71.554L162.524 154.794L239.12 195.929L222.314 240.083L267.187 199.784L317.375 235.081L330.667 206.898L400.166 228.241L414.669 262.718L437.101 176.63Z" fill="#E6E6E6"/>
<path fill-rule="evenodd" clip-rule="evenodd" d="M221.429 275.205L232.07 263.977L239.121 256.537L271.565 246.568L311.89 278.891H326.152L336.413 264.489L367.635 278.891L370.42 274.548L380.174 297.805L367.586 312.034L329.007 315.877L213.813 293.055C213.813 293.055 218.191 283.58 221.429 275.207" fill="white"/>
<path fill-rule="evenodd" clip-rule="evenodd" d="M136.243 315.875L99.3057 266.622L157.586 164.291L215.046 203.964L166.069 268.811L167.846 278.169L173.182 281.947L209.164 256.499L236.649 292.665L243.094 302.466L196.971 315.875H136.243Z" fill="white"/>
<path fill-rule="evenodd" clip-rule="evenodd" d="M120.92 44.2025L180.845 108.503L221.613 92.3579L248.428 118.079L283.617 104.672L286.734 94.8225L344.194 90.9912L332.154 71.8393L369.366 69.648L376.207 44.2025L342.825 12.4634L305.066 30.7953H260.193L252.259 22.8616H204.101L201.639 31.8909L131.592 29.1553L120.92 44.2025Z" fill="black"/>
<path fill-rule="evenodd" clip-rule="evenodd" d="M311.89 294.588L276.322 348.764L232.542 357.52L217.189 403.14H160.284L169.61 354.508L82.0532 279.265L162.525 154.794L224.062 201.277L175.086 270.775L211.474 246.97L236.649 292.665L210.654 262.842L173.988 289.107L153.741 269.682L207.096 206.475L165.781 174.462L120.359 278.169L183.02 332.611H265.655L311.89 294.588Z" fill="black"/>
<path fill-rule="evenodd" clip-rule="evenodd" d="M143.085 43.6559L172.087 81.6886H214.224L189.598 38.7289L143.085 43.6559Z" fill="white"/>
<path fill-rule="evenodd" clip-rule="evenodd" d="M210.122 38.7289L241.861 97.5582L275.242 93.1802L248.566 34.08L210.122 38.7289Z" fill="white"/>
<path fill-rule="evenodd" clip-rule="evenodd" d="M267.033 38.729L283.617 86.0643H328.598L300.414 37.3623L267.033 38.729Z" fill="white"/>
<path fill-rule="evenodd" clip-rule="evenodd" d="M311.89 34.08L332.429 65.2701L363.073 61.7145V46.1182L341.183 26.6907L311.89 34.08Z" fill="white"/>
<path fill-rule="evenodd" clip-rule="evenodd" d="M363.381 403.14L367.717 320.566H347.196L328.591 372.282L334.335 320.566L323.39 294.847L345.551 308.255L364.708 304.97L367.717 278.169L333.791 254.348L323.39 278.169L271.406 232.458L239.12 256.537L267.577 216.042L317.375 255.441L333.179 219.847L395.629 242.856L385.142 403.14H363.381Z" fill="black"/>
<path fill-rule="evenodd" clip-rule="evenodd" d="M143.085 43.6559L176.226 72.9443H202.221L189.598 38.7289L214.224 81.6886H172.087L143.085 43.6559Z" fill="#E6E6E6"/>
<path fill-rule="evenodd" clip-rule="evenodd" d="M210.122 38.7289L241.861 97.5582L275.242 93.1802L252.838 43.5461L262.692 81.6886L249.255 86.0642L210.122 38.7289Z" fill="#E6E6E6"/>
<path fill-rule="evenodd" clip-rule="evenodd" d="M267.033 38.7289L289.824 78.4857L316.365 76.1612L303.411 42.5392L328.598 86.0642H283.617L267.033 38.7289Z" fill="#E6E6E6"/>
<path fill-rule="evenodd" clip-rule="evenodd" d="M311.89 34.08L335.658 57.1449L356.179 53.4491L346.03 30.9916L363.073 46.1182V61.7145L332.429 65.2701L311.89 34.08Z" fill="#E6E6E6"/>
<path fill-rule="evenodd" clip-rule="evenodd" d="M311.89 294.588L286.82 360.176L243.094 371.667L239.12 389.999H350.572L353.856 346.219L328.591 372.282L347.196 320.566H367.717L363.381 403.14H217.188L232.542 357.519L276.321 348.764L311.89 294.588Z" fill="#E6E6E6"/>
<path fill-rule="evenodd" clip-rule="evenodd" d="M153.74 269.682L188.86 208.86L168.066 195.929L128.666 269.682L185.851 327.063H263.012L311.889 294.588L265.654 332.611H183.019L120.359 278.169L165.781 174.462L207.096 206.475L153.74 269.682Z" fill="#E6E6E6"/>
<path fill-rule="evenodd" clip-rule="evenodd" d="M575.517 240.679C604.88 240.679 628.683 264.482 628.683 293.845C628.683 323.208 604.88 347.011 575.517 347.011C546.153 347.011 522.35 323.206 522.35 293.845C522.35 264.484 546.156 240.679 575.517 240.679Z" fill="black"/>
<path fill-rule="evenodd" clip-rule="evenodd" d="M488.427 42.6443V131.106H470.067V47.562L457.375 25.5787L428.1 17.7338L432.852 0L469.471 9.81189L488.427 42.6443Z" fill="black"/>
<path d="M38.0423 470.432C38.0423 468.128 36.6343 466.592 33.9463 466.592H28.3143V474.272H33.9463C36.6343 474.272 38.0423 473.12 38.0423 470.432ZM14.1063 454.688H35.2263C46.6183 454.688 52.4423 461.216 52.4423 469.536C52.4423 475.488 49.1143 480.544 42.6503 482.656L52.5063 500H36.8903L28.3783 483.744H28.3143V500H14.1063V454.688ZM56.9813 500V454.688H71.1893V500H56.9813ZM75.0463 465.952V454.688H113.19V465.952H101.158V500H86.9503V465.952H75.0463ZM147.252 454.688V466.016H131.252V471.584H145.332V482.272H131.252V488.672H147.252V500H117.044V454.688H147.252ZM161.694 500L151.326 454.688H166.622L170.718 483.232L176.862 454.688H192.35L198.494 483.232L202.59 454.688H217.886L207.518 500H189.854L184.606 474.272L179.358 500H161.694ZM254.277 500L252.037 493.152H236.933L234.693 500H219.781L236.357 454.688H252.741L269.253 500H254.277ZM248.581 482.464L244.485 469.856L240.389 482.464H248.581ZM285.537 486.24L269.281 454.688H285.537L292.769 470.752L300.001 454.688H316.001L299.745 486.24V500H285.537V486.24Z" fill="#FF9F00"/>
<path d="M348.986 454.688C363.45 454.688 372.538 464.16 372.538 477.216C372.538 490.144 363.45 500 348.986 500H330.106V454.688H348.986ZM344.314 487.328H347.706C353.978 487.328 358.138 483.808 358.138 477.216C358.138 470.624 353.978 467.104 347.706 467.104H344.314V487.328ZM377.669 500V454.688H391.877V500H377.669ZM433.302 485.984C433.302 494.304 426.966 500.448 416.022 500.448C405.654 500.448 397.526 495.648 396.886 485.472H411.99C412.246 488.8 414.038 489.376 415.446 489.376C416.854 489.376 418.198 488.736 418.198 487.136C418.134 480.992 396.758 483.232 397.014 467.744C397.014 458.656 404.694 453.92 414.358 453.92C425.302 453.92 432.342 459.168 432.726 468.576H417.43C417.302 465.824 415.83 464.992 414.294 464.992C413.142 464.992 412.246 465.76 412.246 467.296C412.246 472.992 433.302 472.032 433.302 485.984ZM452.502 474.4H456.534C459.734 474.4 460.95 472.736 460.95 470.24C460.95 467.744 459.734 466.08 456.534 466.08H452.502V474.4ZM475.35 470.24C475.35 478.624 469.526 485.6 458.134 485.6H452.502V500H438.294V454.688H458.134C469.526 454.688 475.35 461.088 475.35 470.24ZM511.152 500L508.912 493.152H493.808L491.568 500H476.656L493.232 454.688H509.616L526.128 500H511.152ZM505.456 482.464L501.36 469.856L497.264 482.464H505.456ZM526.796 465.952V454.688H564.94V465.952H552.908V500H538.7V465.952H526.796ZM567.514 477.28C567.514 463.776 576.026 454.24 589.914 454.24C601.882 454.24 610.01 461.408 611.866 472.096H596.89C595.546 469.088 592.858 467.36 589.658 467.36C584.858 467.36 581.914 471.264 581.914 477.28C581.914 483.296 584.858 487.2 589.658 487.2C592.858 487.2 595.546 485.472 596.89 482.464H611.866C610.01 493.152 601.882 500.32 589.914 500.32C576.026 500.32 567.514 490.784 567.514 477.28ZM644.693 500V482.336H631.189V500H616.981V454.688H631.189V471.008H644.693V454.688H658.901V500H644.693Z" fill="#1F1C19"/>
</svg>
