<svg width="961" height="577" viewBox="0 0 961 577" fill="none" xmlns="http://www.w3.org/2000/svg">
<path d="M95.9014 420.894L61.8814 486.694V519.174H37.9414V486.694L3.92141 420.894H31.0814L50.1214 462.054L69.0214 420.894H95.9014ZM152.027 520.154C142.787 520.154 134.294 518.007 126.547 513.714C118.894 509.42 112.781 503.447 108.207 495.794C103.727 488.047 101.487 479.367 101.487 469.754C101.487 460.14 103.727 451.507 108.207 443.854C112.781 436.2 118.894 430.227 126.547 425.934C134.294 421.64 142.787 419.494 152.027 419.494C161.267 419.494 169.714 421.64 177.367 425.934C185.114 430.227 191.181 436.2 195.567 443.854C200.047 451.507 202.287 460.14 202.287 469.754C202.287 479.367 200.047 488.047 195.567 495.794C191.087 503.447 185.021 509.42 177.367 513.714C169.714 518.007 161.267 520.154 152.027 520.154ZM152.027 498.314C159.867 498.314 166.121 495.7 170.787 490.474C175.547 485.247 177.927 478.34 177.927 469.754C177.927 461.074 175.547 454.167 170.787 449.034C166.121 443.807 159.867 441.194 152.027 441.194C144.094 441.194 137.747 443.76 132.987 448.894C128.321 454.027 125.987 460.98 125.987 469.754C125.987 478.434 128.321 485.387 132.987 490.614C137.747 495.747 144.094 498.314 152.027 498.314ZM239.126 420.894V479.694C239.126 485.574 240.572 490.1 243.466 493.274C246.359 496.447 250.606 498.034 256.206 498.034C261.806 498.034 266.099 496.447 269.086 493.274C272.072 490.1 273.566 485.574 273.566 479.694V420.894H297.506V479.554C297.506 488.327 295.639 495.747 291.906 501.814C288.172 507.88 283.132 512.454 276.786 515.534C270.532 518.614 263.532 520.154 255.786 520.154C248.039 520.154 241.086 518.66 234.926 515.674C228.859 512.594 224.052 508.02 220.506 501.954C216.959 495.794 215.186 488.327 215.186 479.554V420.894H239.126ZM364.437 519.174L343.997 482.074H338.257V519.174H314.317V420.894H354.497C362.243 420.894 368.823 422.247 374.237 424.954C379.743 427.66 383.85 431.394 386.557 436.154C389.263 440.82 390.617 446.047 390.617 451.834C390.617 458.367 388.75 464.2 385.017 469.334C381.377 474.467 375.963 478.107 368.777 480.254L391.457 519.174H364.437ZM338.257 465.134H353.097C357.483 465.134 360.75 464.06 362.897 461.914C365.137 459.767 366.257 456.734 366.257 452.814C366.257 449.08 365.137 446.14 362.897 443.994C360.75 441.847 357.483 440.774 353.097 440.774H338.257V465.134ZM472.133 420.894C482.493 420.894 491.546 422.947 499.293 427.054C507.039 431.16 513.013 436.947 517.213 444.414C521.506 451.787 523.653 460.327 523.653 470.034C523.653 479.647 521.506 488.187 517.213 495.654C513.013 503.12 506.993 508.907 499.153 513.014C491.406 517.12 482.399 519.174 472.133 519.174H435.313V420.894H472.133ZM470.593 498.454C479.646 498.454 486.693 495.98 491.733 491.034C496.773 486.087 499.293 479.087 499.293 470.034C499.293 460.98 496.773 453.934 491.733 448.894C486.693 443.854 479.646 441.334 470.593 441.334H459.253V498.454H470.593ZM648.332 420.894V519.174H624.392V460.234L602.412 519.174H583.092L560.972 460.094V519.174H537.032V420.894H565.312L592.892 488.934L620.192 420.894H648.332ZM726.727 501.814H690.047L684.167 519.174H659.107L694.667 420.894H722.387L757.947 519.174H732.607L726.727 501.814ZM720.567 483.334L708.387 447.354L696.347 483.334H720.567ZM818.89 519.174L798.45 482.074H792.71V519.174H768.77V420.894H808.95C816.697 420.894 823.277 422.247 828.69 424.954C834.197 427.66 838.303 431.394 841.01 436.154C843.717 440.82 845.07 446.047 845.07 451.834C845.07 458.367 843.203 464.2 839.47 469.334C835.83 474.467 830.417 478.107 823.23 480.254L845.91 519.174H818.89ZM792.71 465.134H807.55C811.937 465.134 815.203 464.06 817.35 461.914C819.59 459.767 820.71 456.734 820.71 452.814C820.71 449.08 819.59 446.14 817.35 443.994C815.203 441.847 811.937 440.774 807.55 440.774H792.71V465.134ZM856.038 469.894C856.038 460.187 858.138 451.554 862.338 443.994C866.538 436.34 872.371 430.414 879.838 426.214C887.398 421.92 895.938 419.774 905.458 419.774C917.125 419.774 927.111 422.854 935.418 429.014C943.725 435.174 949.278 443.574 952.078 454.214H925.758C923.798 450.107 920.998 446.98 917.358 444.834C913.811 442.687 909.751 441.614 905.178 441.614C897.805 441.614 891.831 444.18 887.258 449.314C882.685 454.447 880.398 461.307 880.398 469.894C880.398 478.48 882.685 485.34 887.258 490.474C891.831 495.607 897.805 498.174 905.178 498.174C909.751 498.174 913.811 497.1 917.358 494.954C920.998 492.807 923.798 489.68 925.758 485.574H952.078C949.278 496.214 943.725 504.614 935.418 510.774C927.111 516.84 917.125 519.874 905.458 519.874C895.938 519.874 887.398 517.774 879.838 513.574C872.371 509.28 866.538 503.354 862.338 495.794C858.138 488.234 856.038 479.6 856.038 469.894Z" fill="#18304F"/>
<path d="M93.893 552.414V573.174H91.163V557.694L84.263 573.174H82.343L75.413 557.664V573.174H72.683V552.414H75.623L83.303 569.574L90.983 552.414H93.893ZM113.883 568.524H104.763L103.083 573.174H100.203L107.763 552.384H110.913L118.443 573.174H115.563L113.883 568.524ZM113.103 566.304L109.323 555.744L105.543 566.304H113.103ZM136.078 573.174L127.468 563.634V573.174H124.738V552.264H127.468V561.954L136.108 552.264H139.558L130.078 562.734L139.648 573.174H136.078ZM148.427 554.484V561.474H156.047V563.724H148.427V570.924H156.947V573.174H145.697V552.234H156.947V554.484H148.427ZM187.946 552.264V554.484H182.246V573.174H179.516V554.484H173.786V552.264H187.946ZM210.416 552.264V573.174H207.686V563.694H197.036V573.174H194.306V552.264H197.036V561.444H207.686V552.264H210.416ZM220.808 554.484V561.474H228.428V563.724H220.808V570.924H229.328V573.174H218.078V552.234H229.328V554.484H220.808ZM250.186 554.484V561.474H257.806V563.724H250.186V570.924H258.706V573.174H247.456V552.234H258.706V554.484H250.186ZM287.047 552.414V573.174H284.317V557.694L277.417 573.174H275.497L268.567 557.664V573.174H265.837V552.414H268.777L276.457 569.574L284.137 552.414H287.047ZM307.037 568.524H297.917L296.237 573.174H293.357L300.917 552.384H304.067L311.597 573.174H308.717L307.037 568.524ZM306.257 566.304L302.477 555.744L298.697 566.304H306.257ZM320.622 552.264V573.174H317.892V552.264H320.622ZM331.005 570.954H338.325V573.174H328.275V552.264H331.005V570.954ZM354.202 562.704C354.202 560.664 354.662 558.834 355.582 557.214C356.502 555.574 357.752 554.294 359.332 553.374C360.932 552.454 362.702 551.994 364.642 551.994C366.922 551.994 368.912 552.544 370.612 553.644C372.312 554.744 373.552 556.304 374.332 558.324H371.062C370.482 557.064 369.642 556.094 368.542 555.414C367.462 554.734 366.162 554.394 364.642 554.394C363.182 554.394 361.872 554.734 360.712 555.414C359.552 556.094 358.642 557.064 357.982 558.324C357.322 559.564 356.992 561.024 356.992 562.704C356.992 564.364 357.322 565.824 357.982 567.084C358.642 568.324 359.552 569.284 360.712 569.964C361.872 570.644 363.182 570.984 364.642 570.984C366.162 570.984 367.462 570.654 368.542 569.994C369.642 569.314 370.482 568.344 371.062 567.084H374.332C373.552 569.084 372.312 570.634 370.612 571.734C368.912 572.814 366.922 573.354 364.642 573.354C362.702 573.354 360.932 572.904 359.332 572.004C357.752 571.084 356.502 569.814 355.582 568.194C354.662 566.574 354.202 564.744 354.202 562.704ZM390.876 573.384C388.936 573.384 387.166 572.934 385.566 572.034C383.966 571.114 382.696 569.844 381.756 568.224C380.836 566.584 380.376 564.744 380.376 562.704C380.376 560.664 380.836 558.834 381.756 557.214C382.696 555.574 383.966 554.304 385.566 553.404C387.166 552.484 388.936 552.024 390.876 552.024C392.836 552.024 394.616 552.484 396.216 553.404C397.816 554.304 399.076 555.564 399.996 557.184C400.916 558.804 401.376 560.644 401.376 562.704C401.376 564.764 400.916 566.604 399.996 568.224C399.076 569.844 397.816 571.114 396.216 572.034C394.616 572.934 392.836 573.384 390.876 573.384ZM390.876 571.014C392.336 571.014 393.646 570.674 394.806 569.994C395.986 569.314 396.906 568.344 397.566 567.084C398.246 565.824 398.586 564.364 398.586 562.704C398.586 561.024 398.246 559.564 397.566 558.324C396.906 557.064 395.996 556.094 394.836 555.414C393.676 554.734 392.356 554.394 390.876 554.394C389.396 554.394 388.076 554.734 386.916 555.414C385.756 556.094 384.836 557.064 384.156 558.324C383.496 559.564 383.166 561.024 383.166 562.704C383.166 564.364 383.496 565.824 384.156 567.084C384.836 568.344 385.756 569.314 386.916 569.994C388.096 570.674 389.416 571.014 390.876 571.014ZM429.19 552.414V573.174H426.46V557.694L419.56 573.174H417.64L410.71 557.664V573.174H407.98V552.414H410.92L418.6 569.574L426.28 552.414H429.19ZM450.8 558.384C450.8 560.124 450.2 561.574 449 562.734C447.82 563.874 446.01 564.444 443.57 564.444H439.55V573.174H436.82V552.264H443.57C445.93 552.264 447.72 552.834 448.94 553.974C450.18 555.114 450.8 556.584 450.8 558.384ZM443.57 562.194C445.09 562.194 446.21 561.864 446.93 561.204C447.65 560.544 448.01 559.604 448.01 558.384C448.01 555.804 446.53 554.514 443.57 554.514H439.55V562.194H443.57ZM459.923 570.954H467.243V573.174H457.193V552.264H459.923V570.954ZM475.872 552.264V573.174H473.142V552.264H475.872ZM495.885 568.524H486.765L485.085 573.174H482.205L489.765 552.384H492.915L500.445 573.174H497.565L495.885 568.524ZM495.105 566.304L491.325 555.744L487.545 566.304H495.105ZM523.18 573.174H520.45L509.47 556.524V573.174H506.74V552.234H509.47L520.45 568.854V552.234H523.18V573.174ZM543.703 552.264V554.484H538.003V573.174H535.273V554.484H529.543V552.264H543.703ZM587.342 552.264L581.282 573.174H578.222L573.362 556.344L568.322 573.174L565.292 573.204L559.442 552.264H562.352L566.912 569.994L571.952 552.264H575.012L579.812 569.934L584.402 552.264H587.342ZM596.06 552.264V573.174H593.33V552.264H596.06ZM616.582 552.264V554.484H610.882V573.174H608.152V554.484H602.422V552.264H616.582ZM639.053 552.264V573.174H636.323V563.694H625.673V573.174H622.943V552.264H625.673V561.444H636.323V552.264H639.053ZM672.352 552.264L665.542 565.284V573.174H662.812V565.284L655.972 552.264H659.002L664.162 562.854L669.322 552.264H672.352ZM687.712 573.384C685.772 573.384 684.002 572.934 682.402 572.034C680.802 571.114 679.532 569.844 678.592 568.224C677.672 566.584 677.212 564.744 677.212 562.704C677.212 560.664 677.672 558.834 678.592 557.214C679.532 555.574 680.802 554.304 682.402 553.404C684.002 552.484 685.772 552.024 687.712 552.024C689.672 552.024 691.452 552.484 693.052 553.404C694.652 554.304 695.912 555.564 696.832 557.184C697.752 558.804 698.212 560.644 698.212 562.704C698.212 564.764 697.752 566.604 696.832 568.224C695.912 569.844 694.652 571.114 693.052 572.034C691.452 572.934 689.672 573.384 687.712 573.384ZM687.712 571.014C689.172 571.014 690.482 570.674 691.642 569.994C692.822 569.314 693.742 568.344 694.402 567.084C695.082 565.824 695.422 564.364 695.422 562.704C695.422 561.024 695.082 559.564 694.402 558.324C693.742 557.064 692.832 556.094 691.672 555.414C690.512 554.734 689.192 554.394 687.712 554.394C686.232 554.394 684.912 554.734 683.752 555.414C682.592 556.094 681.672 557.064 680.992 558.324C680.332 559.564 680.002 561.024 680.002 562.704C680.002 564.364 680.332 565.824 680.992 567.084C681.672 568.344 682.592 569.314 683.752 569.994C684.932 570.674 686.252 571.014 687.712 571.014ZM707.486 552.264V565.494C707.486 567.354 707.936 568.734 708.836 569.634C709.756 570.534 711.026 570.984 712.646 570.984C714.246 570.984 715.496 570.534 716.396 569.634C717.316 568.734 717.776 567.354 717.776 565.494V552.264H720.506V565.464C720.506 567.204 720.156 568.674 719.456 569.874C718.756 571.054 717.806 571.934 716.606 572.514C715.426 573.094 714.096 573.384 712.616 573.384C711.136 573.384 709.796 573.094 708.596 572.514C707.416 571.934 706.476 571.054 705.776 569.874C705.096 568.674 704.756 567.204 704.756 565.464V552.264H707.486ZM739.07 573.174L734.09 564.624H730.79V573.174H728.06V552.264H734.81C736.39 552.264 737.72 552.534 738.8 553.074C739.9 553.614 740.72 554.344 741.26 555.264C741.8 556.184 742.07 557.234 742.07 558.414C742.07 559.854 741.65 561.124 740.81 562.224C739.99 563.324 738.75 564.054 737.09 564.414L742.34 573.174H739.07ZM730.79 562.434H734.81C736.29 562.434 737.4 562.074 738.14 561.354C738.88 560.614 739.25 559.634 739.25 558.414C739.25 557.174 738.88 556.214 738.14 555.534C737.42 554.854 736.31 554.514 734.81 554.514H730.79V562.434ZM766.82 552.264C769.1 552.264 771.07 552.694 772.73 553.554C774.41 554.394 775.69 555.604 776.57 557.184C777.47 558.764 777.92 560.624 777.92 562.764C777.92 564.904 777.47 566.764 776.57 568.344C775.69 569.904 774.41 571.104 772.73 571.944C771.07 572.764 769.1 573.174 766.82 573.174H760.31V552.264H766.82ZM766.82 570.924C769.52 570.924 771.58 570.214 773 568.794C774.42 567.354 775.13 565.344 775.13 562.764C775.13 560.164 774.41 558.134 772.97 556.674C771.55 555.214 769.5 554.484 766.82 554.484H763.04V570.924H766.82ZM805.731 552.414V573.174H803.001V557.694L796.101 573.174H794.181L787.251 557.664V573.174H784.521V552.414H787.461L795.141 569.574L802.821 552.414H805.731ZM825.721 568.524H816.601L814.921 573.174H812.041L819.601 552.384H822.751L830.281 573.174H827.401L825.721 568.524ZM824.941 566.304L821.161 555.744L817.381 566.304H824.941ZM847.586 573.174L842.606 564.624H839.306V573.174H836.576V552.264H843.326C844.906 552.264 846.236 552.534 847.316 553.074C848.416 553.614 849.236 554.344 849.776 555.264C850.316 556.184 850.586 557.234 850.586 558.414C850.586 559.854 850.166 561.124 849.326 562.224C848.506 563.324 847.266 564.054 845.606 564.414L850.856 573.174H847.586ZM839.306 562.434H843.326C844.806 562.434 845.916 562.074 846.656 561.354C847.396 560.614 847.766 559.634 847.766 558.414C847.766 557.174 847.396 556.214 846.656 555.534C845.936 554.854 844.826 554.514 843.326 554.514H839.306V562.434ZM856.808 562.704C856.808 560.664 857.268 558.834 858.188 557.214C859.108 555.574 860.358 554.294 861.938 553.374C863.538 552.454 865.308 551.994 867.248 551.994C869.528 551.994 871.518 552.544 873.218 553.644C874.918 554.744 876.158 556.304 876.938 558.324H873.668C873.088 557.064 872.248 556.094 871.148 555.414C870.068 554.734 868.768 554.394 867.248 554.394C865.788 554.394 864.478 554.734 863.318 555.414C862.158 556.094 861.248 557.064 860.588 558.324C859.928 559.564 859.598 561.024 859.598 562.704C859.598 564.364 859.928 565.824 860.588 567.084C861.248 568.324 862.158 569.284 863.318 569.964C864.478 570.644 865.788 570.984 867.248 570.984C868.768 570.984 870.068 570.654 871.148 569.994C872.248 569.314 873.088 568.344 873.668 567.084H876.938C876.158 569.084 874.918 570.634 873.218 571.734C871.518 572.814 869.528 573.354 867.248 573.354C865.308 573.354 863.538 572.904 861.938 572.004C860.358 571.084 859.108 569.814 858.188 568.194C857.268 566.574 856.808 564.744 856.808 562.704ZM887.541 552.264L887.211 567.264H884.931L884.601 552.264H887.541ZM886.191 573.354C885.671 573.354 885.231 573.174 884.871 572.814C884.511 572.454 884.331 572.014 884.331 571.494C884.331 570.974 884.511 570.534 884.871 570.174C885.231 569.814 885.671 569.634 886.191 569.634C886.691 569.634 887.111 569.814 887.451 570.174C887.811 570.534 887.991 570.974 887.991 571.494C887.991 572.014 887.811 572.454 887.451 572.814C887.111 573.174 886.691 573.354 886.191 573.354Z" fill="#18304F"/>
<path d="M313.5 174.174L461.5 219.674C457.5 247.674 440.5 271.174 440.5 271.174C440.5 271.174 442.667 263.007 443 259.674C393.8 265.274 396.833 303.674 404.5 322.174C402.333 318.174 397.9 310.174 397.5 310.174C389 296.674 368.5 318.174 369 318.174C367 325.674 363 329.341 361 331.174H319C303.8 329.974 295.667 314.007 293.5 306.174C292.5 270.341 293.5 196.674 293.5 183.674C293.5 171.436 307.833 172.341 313.5 174.174Z" fill="#18304F"/>
<path d="M647.5 170.674L486.5 220.174C491 259.674 512 284.174 512.5 284.174C500.5 264.674 515 269.174 515.5 269.674C539.9 277.274 547.667 302.507 548.5 314.174C552.5 306.174 550.167 294.507 548.5 289.674C542 280.674 551.5 282.674 552 281.674C582.4 281.274 598.333 309.507 602.5 323.674C603.7 331.274 608.333 331.507 610.5 330.674H641C656.2 328.274 664.333 311.674 666.5 303.674V180.674C663.3 167.474 652.5 168.507 647.5 170.674Z" fill="#18304F"/>
<path d="M294 299.532V290.851L302.222 285.968H318.153L331 280L357.208 299.532L369 317.5C369 325.747 362.5 331 361 331C347.468 330.457 320.208 329.481 320.208 329.915C300.475 326.877 294.514 308.394 294 299.532Z" fill="#18304F"/>
<path d="M463 3.17397C424 18.174 412.333 74.174 408.5 102.674H540C531.5 28.674 500 9.17397 499.5 8.67397C481 -6.82603 463 3.17397 463 3.17397Z" fill="#0F2138"/>
<path d="M293 132.674C293 116.105 306.431 102.674 323 102.674H636C652.569 102.674 666 116.105 666 132.674V146.671C666 147.777 665.103 148.673 663.997 148.671L294.997 148.177C293.894 148.175 293 147.28 293 146.177V132.674Z" fill="#0F2138"/>
<path d="M464.084 208.629L308.12 160.085C308.053 160.064 307.985 160.05 307.916 160.043C300.193 159.254 294.432 151.907 293.208 147.251C293.057 146.676 293.518 146.16 294.112 146.158L664.996 144.678C665.55 144.676 666.004 145.127 665.967 145.68C665.518 152.503 660.538 155.453 657.989 156.085L485.4 208.63C485.306 208.659 485.208 208.674 485.109 208.674H464.382C464.281 208.674 464.181 208.659 464.084 208.629Z" fill="#0F2138"/>
<rect x="464" y="193.674" width="21" height="59" rx="8" fill="white"/>
<path d="M430 141.174C430.167 109.841 438.6 43.0739 471 26.6739C471.5 27.1739 479 23.1739 486.5 30.1739C487 30.6739 517 58.174 519.5 138.174C518.5 137.674 513.5 129.174 492.5 130.674C492.5 131.174 544 137.674 542 184.674C541.5 184.674 532 174.174 495 173.674C495.5 173.674 491 184.174 486.5 185.674C486.5 184.874 470.167 185.341 462 185.674C459.667 183.841 454.7 179.074 453.5 174.674C453.998 173.678 463.929 171.192 472.903 173.647C471.437 173.123 454.863 165.22 405.5 181.674C405.5 182.174 402 155.174 430 141.174Z" fill="white"/>
<path d="M475 58.6738C469.486 58.6738 465 63.1603 465 68.6738C465 74.1874 469.486 78.6738 475 78.6738C480.516 78.6738 485 74.1901 485 68.6738C485 63.1576 480.516 58.6738 475 58.6738Z" fill="#0F2138"/>
<path d="M475 91.6738C470.589 91.6738 467 95.263 467 99.6738C467 104.085 470.589 107.674 475 107.674C479.413 107.674 483 104.087 483 99.6738C483 95.2608 479.413 91.6738 475 91.6738Z" fill="#0F2138"/>
</svg>
