<svg width="1283" height="756" viewBox="0 0 1283 756" fill="none" xmlns="http://www.w3.org/2000/svg">
<path d="M256.901 494.894L222.881 560.694V593.174H198.941V560.694L164.921 494.894H192.081L211.121 536.054L230.021 494.894H256.901ZM313.027 594.154C303.787 594.154 295.294 592.007 287.547 587.714C279.894 583.42 273.781 577.447 269.207 569.794C264.727 562.047 262.487 553.367 262.487 543.754C262.487 534.14 264.727 525.507 269.207 517.854C273.781 510.2 279.894 504.227 287.547 499.934C295.294 495.64 303.787 493.494 313.027 493.494C322.267 493.494 330.714 495.64 338.367 499.934C346.114 504.227 352.181 510.2 356.567 517.854C361.047 525.507 363.287 534.14 363.287 543.754C363.287 553.367 361.047 562.047 356.567 569.794C352.087 577.447 346.021 583.42 338.367 587.714C330.714 592.007 322.267 594.154 313.027 594.154ZM313.027 572.314C320.867 572.314 327.121 569.7 331.787 564.474C336.547 559.247 338.927 552.34 338.927 543.754C338.927 535.074 336.547 528.167 331.787 523.034C327.121 517.807 320.867 515.194 313.027 515.194C305.094 515.194 298.747 517.76 293.987 522.894C289.321 528.027 286.987 534.98 286.987 543.754C286.987 552.434 289.321 559.387 293.987 564.614C298.747 569.747 305.094 572.314 313.027 572.314ZM400.126 494.894V553.694C400.126 559.574 401.572 564.1 404.466 567.274C407.359 570.447 411.606 572.034 417.206 572.034C422.806 572.034 427.099 570.447 430.086 567.274C433.072 564.1 434.566 559.574 434.566 553.694V494.894H458.506V553.554C458.506 562.327 456.639 569.747 452.906 575.814C449.172 581.88 444.132 586.454 437.786 589.534C431.532 592.614 424.532 594.154 416.786 594.154C409.039 594.154 402.086 592.66 395.926 589.674C389.859 586.594 385.052 582.02 381.506 575.954C377.959 569.794 376.186 562.327 376.186 553.554V494.894H400.126ZM525.437 593.174L504.997 556.074H499.257V593.174H475.317V494.894H515.497C523.243 494.894 529.823 496.247 535.237 498.954C540.743 501.66 544.85 505.394 547.557 510.154C550.263 514.82 551.617 520.047 551.617 525.834C551.617 532.367 549.75 538.2 546.017 543.334C542.377 548.467 536.963 552.107 529.777 554.254L552.457 593.174H525.437ZM499.257 539.134H514.097C518.483 539.134 521.75 538.06 523.897 535.914C526.137 533.767 527.257 530.734 527.257 526.814C527.257 523.08 526.137 520.14 523.897 517.994C521.75 515.847 518.483 514.774 514.097 514.774H499.257V539.134ZM633.133 494.894C643.493 494.894 652.546 496.947 660.293 501.054C668.039 505.16 674.013 510.947 678.213 518.414C682.506 525.787 684.653 534.327 684.653 544.034C684.653 553.647 682.506 562.187 678.213 569.654C674.013 577.12 667.993 582.907 660.153 587.014C652.406 591.12 643.399 593.174 633.133 593.174H596.313V494.894H633.133ZM631.593 572.454C640.646 572.454 647.693 569.98 652.733 565.034C657.773 560.087 660.293 553.087 660.293 544.034C660.293 534.98 657.773 527.934 652.733 522.894C647.693 517.854 640.646 515.334 631.593 515.334H620.253V572.454H631.593ZM809.332 494.894V593.174H785.392V534.234L763.412 593.174H744.092L721.972 534.094V593.174H698.032V494.894H726.312L753.892 562.934L781.192 494.894H809.332ZM887.727 575.814H851.047L845.167 593.174H820.107L855.667 494.894H883.387L918.947 593.174H893.607L887.727 575.814ZM881.567 557.334L869.387 521.354L857.347 557.334H881.567ZM979.89 593.174L959.45 556.074H953.71V593.174H929.77V494.894H969.95C977.697 494.894 984.277 496.247 989.69 498.954C995.197 501.66 999.303 505.394 1002.01 510.154C1004.72 514.82 1006.07 520.047 1006.07 525.834C1006.07 532.367 1004.2 538.2 1000.47 543.334C996.83 548.467 991.417 552.107 984.23 554.254L1006.91 593.174H979.89ZM953.71 539.134H968.55C972.937 539.134 976.203 538.06 978.35 535.914C980.59 533.767 981.71 530.734 981.71 526.814C981.71 523.08 980.59 520.14 978.35 517.994C976.203 515.847 972.937 514.774 968.55 514.774H953.71V539.134ZM1017.04 543.894C1017.04 534.187 1019.14 525.554 1023.34 517.994C1027.54 510.34 1033.37 504.414 1040.84 500.214C1048.4 495.92 1056.94 493.774 1066.46 493.774C1078.12 493.774 1088.11 496.854 1096.42 503.014C1104.72 509.174 1110.28 517.574 1113.08 528.214H1086.76C1084.8 524.107 1082 520.98 1078.36 518.834C1074.81 516.687 1070.75 515.614 1066.18 515.614C1058.8 515.614 1052.83 518.18 1048.26 523.314C1043.68 528.447 1041.4 535.307 1041.4 543.894C1041.4 552.48 1043.68 559.34 1048.26 564.474C1052.83 569.607 1058.8 572.174 1066.18 572.174C1070.75 572.174 1074.81 571.1 1078.36 568.954C1082 566.807 1084.8 563.68 1086.76 559.574H1113.08C1110.28 570.214 1104.72 578.614 1096.42 584.774C1088.11 590.84 1078.12 593.874 1066.46 593.874C1056.94 593.874 1048.4 591.774 1040.84 587.574C1033.37 583.28 1027.54 577.354 1023.34 569.794C1019.14 562.234 1017.04 553.6 1017.04 543.894Z" fill="#18304F"/>
<path d="M254.893 626.414V647.174H252.163V631.694L245.263 647.174H243.343L236.413 631.664V647.174H233.683V626.414H236.623L244.303 643.574L251.983 626.414H254.893ZM274.883 642.524H265.763L264.083 647.174H261.203L268.763 626.384H271.913L279.443 647.174H276.563L274.883 642.524ZM274.103 640.304L270.323 629.744L266.543 640.304H274.103ZM297.078 647.174L288.468 637.634V647.174H285.738V626.264H288.468V635.954L297.108 626.264H300.558L291.078 636.734L300.648 647.174H297.078ZM309.427 628.484V635.474H317.047V637.724H309.427V644.924H317.947V647.174H306.697V626.234H317.947V628.484H309.427ZM348.946 626.264V628.484H343.246V647.174H340.516V628.484H334.786V626.264H348.946ZM371.416 626.264V647.174H368.686V637.694H358.036V647.174H355.306V626.264H358.036V635.444H368.686V626.264H371.416ZM381.808 628.484V635.474H389.428V637.724H381.808V644.924H390.328V647.174H379.078V626.234H390.328V628.484H381.808ZM411.186 628.484V635.474H418.806V637.724H411.186V644.924H419.706V647.174H408.456V626.234H419.706V628.484H411.186ZM448.047 626.414V647.174H445.317V631.694L438.417 647.174H436.497L429.567 631.664V647.174H426.837V626.414H429.777L437.457 643.574L445.137 626.414H448.047ZM468.037 642.524H458.917L457.237 647.174H454.357L461.917 626.384H465.067L472.597 647.174H469.717L468.037 642.524ZM467.257 640.304L463.477 629.744L459.697 640.304H467.257ZM481.622 626.264V647.174H478.892V626.264H481.622ZM492.005 644.954H499.325V647.174H489.275V626.264H492.005V644.954ZM515.202 636.704C515.202 634.664 515.662 632.834 516.582 631.214C517.502 629.574 518.752 628.294 520.332 627.374C521.932 626.454 523.702 625.994 525.642 625.994C527.922 625.994 529.912 626.544 531.612 627.644C533.312 628.744 534.552 630.304 535.332 632.324H532.062C531.482 631.064 530.642 630.094 529.542 629.414C528.462 628.734 527.162 628.394 525.642 628.394C524.182 628.394 522.872 628.734 521.712 629.414C520.552 630.094 519.642 631.064 518.982 632.324C518.322 633.564 517.992 635.024 517.992 636.704C517.992 638.364 518.322 639.824 518.982 641.084C519.642 642.324 520.552 643.284 521.712 643.964C522.872 644.644 524.182 644.984 525.642 644.984C527.162 644.984 528.462 644.654 529.542 643.994C530.642 643.314 531.482 642.344 532.062 641.084H535.332C534.552 643.084 533.312 644.634 531.612 645.734C529.912 646.814 527.922 647.354 525.642 647.354C523.702 647.354 521.932 646.904 520.332 646.004C518.752 645.084 517.502 643.814 516.582 642.194C515.662 640.574 515.202 638.744 515.202 636.704ZM551.876 647.384C549.936 647.384 548.166 646.934 546.566 646.034C544.966 645.114 543.696 643.844 542.756 642.224C541.836 640.584 541.376 638.744 541.376 636.704C541.376 634.664 541.836 632.834 542.756 631.214C543.696 629.574 544.966 628.304 546.566 627.404C548.166 626.484 549.936 626.024 551.876 626.024C553.836 626.024 555.616 626.484 557.216 627.404C558.816 628.304 560.076 629.564 560.996 631.184C561.916 632.804 562.376 634.644 562.376 636.704C562.376 638.764 561.916 640.604 560.996 642.224C560.076 643.844 558.816 645.114 557.216 646.034C555.616 646.934 553.836 647.384 551.876 647.384ZM551.876 645.014C553.336 645.014 554.646 644.674 555.806 643.994C556.986 643.314 557.906 642.344 558.566 641.084C559.246 639.824 559.586 638.364 559.586 636.704C559.586 635.024 559.246 633.564 558.566 632.324C557.906 631.064 556.996 630.094 555.836 629.414C554.676 628.734 553.356 628.394 551.876 628.394C550.396 628.394 549.076 628.734 547.916 629.414C546.756 630.094 545.836 631.064 545.156 632.324C544.496 633.564 544.166 635.024 544.166 636.704C544.166 638.364 544.496 639.824 545.156 641.084C545.836 642.344 546.756 643.314 547.916 643.994C549.096 644.674 550.416 645.014 551.876 645.014ZM590.19 626.414V647.174H587.46V631.694L580.56 647.174H578.64L571.71 631.664V647.174H568.98V626.414H571.92L579.6 643.574L587.28 626.414H590.19ZM611.8 632.384C611.8 634.124 611.2 635.574 610 636.734C608.82 637.874 607.01 638.444 604.57 638.444H600.55V647.174H597.82V626.264H604.57C606.93 626.264 608.72 626.834 609.94 627.974C611.18 629.114 611.8 630.584 611.8 632.384ZM604.57 636.194C606.09 636.194 607.21 635.864 607.93 635.204C608.65 634.544 609.01 633.604 609.01 632.384C609.01 629.804 607.53 628.514 604.57 628.514H600.55V636.194H604.57ZM620.923 644.954H628.243V647.174H618.193V626.264H620.923V644.954ZM636.872 626.264V647.174H634.142V626.264H636.872ZM656.885 642.524H647.765L646.085 647.174H643.205L650.765 626.384H653.915L661.445 647.174H658.565L656.885 642.524ZM656.105 640.304L652.325 629.744L648.545 640.304H656.105ZM684.18 647.174H681.45L670.47 630.524V647.174H667.74V626.234H670.47L681.45 642.854V626.234H684.18V647.174ZM704.703 626.264V628.484H699.003V647.174H696.273V628.484H690.543V626.264H704.703ZM748.342 626.264L742.282 647.174H739.222L734.362 630.344L729.322 647.174L726.292 647.204L720.442 626.264H723.352L727.912 643.994L732.952 626.264H736.012L740.812 643.934L745.402 626.264H748.342ZM757.06 626.264V647.174H754.33V626.264H757.06ZM777.582 626.264V628.484H771.882V647.174H769.152V628.484H763.422V626.264H777.582ZM800.053 626.264V647.174H797.323V637.694H786.673V647.174H783.943V626.264H786.673V635.444H797.323V626.264H800.053ZM833.352 626.264L826.542 639.284V647.174H823.812V639.284L816.972 626.264H820.002L825.162 636.854L830.322 626.264H833.352ZM848.712 647.384C846.772 647.384 845.002 646.934 843.402 646.034C841.802 645.114 840.532 643.844 839.592 642.224C838.672 640.584 838.212 638.744 838.212 636.704C838.212 634.664 838.672 632.834 839.592 631.214C840.532 629.574 841.802 628.304 843.402 627.404C845.002 626.484 846.772 626.024 848.712 626.024C850.672 626.024 852.452 626.484 854.052 627.404C855.652 628.304 856.912 629.564 857.832 631.184C858.752 632.804 859.212 634.644 859.212 636.704C859.212 638.764 858.752 640.604 857.832 642.224C856.912 643.844 855.652 645.114 854.052 646.034C852.452 646.934 850.672 647.384 848.712 647.384ZM848.712 645.014C850.172 645.014 851.482 644.674 852.642 643.994C853.822 643.314 854.742 642.344 855.402 641.084C856.082 639.824 856.422 638.364 856.422 636.704C856.422 635.024 856.082 633.564 855.402 632.324C854.742 631.064 853.832 630.094 852.672 629.414C851.512 628.734 850.192 628.394 848.712 628.394C847.232 628.394 845.912 628.734 844.752 629.414C843.592 630.094 842.672 631.064 841.992 632.324C841.332 633.564 841.002 635.024 841.002 636.704C841.002 638.364 841.332 639.824 841.992 641.084C842.672 642.344 843.592 643.314 844.752 643.994C845.932 644.674 847.252 645.014 848.712 645.014ZM868.486 626.264V639.494C868.486 641.354 868.936 642.734 869.836 643.634C870.756 644.534 872.026 644.984 873.646 644.984C875.246 644.984 876.496 644.534 877.396 643.634C878.316 642.734 878.776 641.354 878.776 639.494V626.264H881.506V639.464C881.506 641.204 881.156 642.674 880.456 643.874C879.756 645.054 878.806 645.934 877.606 646.514C876.426 647.094 875.096 647.384 873.616 647.384C872.136 647.384 870.796 647.094 869.596 646.514C868.416 645.934 867.476 645.054 866.776 643.874C866.096 642.674 865.756 641.204 865.756 639.464V626.264H868.486ZM900.07 647.174L895.09 638.624H891.79V647.174H889.06V626.264H895.81C897.39 626.264 898.72 626.534 899.8 627.074C900.9 627.614 901.72 628.344 902.26 629.264C902.8 630.184 903.07 631.234 903.07 632.414C903.07 633.854 902.65 635.124 901.81 636.224C900.99 637.324 899.75 638.054 898.09 638.414L903.34 647.174H900.07ZM891.79 636.434H895.81C897.29 636.434 898.4 636.074 899.14 635.354C899.88 634.614 900.25 633.634 900.25 632.414C900.25 631.174 899.88 630.214 899.14 629.534C898.42 628.854 897.31 628.514 895.81 628.514H891.79V636.434ZM927.82 626.264C930.1 626.264 932.07 626.694 933.73 627.554C935.41 628.394 936.69 629.604 937.57 631.184C938.47 632.764 938.92 634.624 938.92 636.764C938.92 638.904 938.47 640.764 937.57 642.344C936.69 643.904 935.41 645.104 933.73 645.944C932.07 646.764 930.1 647.174 927.82 647.174H921.31V626.264H927.82ZM927.82 644.924C930.52 644.924 932.58 644.214 934 642.794C935.42 641.354 936.13 639.344 936.13 636.764C936.13 634.164 935.41 632.134 933.97 630.674C932.55 629.214 930.5 628.484 927.82 628.484H924.04V644.924H927.82ZM966.731 626.414V647.174H964.001V631.694L957.101 647.174H955.181L948.251 631.664V647.174H945.521V626.414H948.461L956.141 643.574L963.821 626.414H966.731ZM986.721 642.524H977.601L975.921 647.174H973.041L980.601 626.384H983.751L991.281 647.174H988.401L986.721 642.524ZM985.941 640.304L982.161 629.744L978.381 640.304H985.941ZM1008.59 647.174L1003.61 638.624H1000.31V647.174H997.576V626.264H1004.33C1005.91 626.264 1007.24 626.534 1008.32 627.074C1009.42 627.614 1010.24 628.344 1010.78 629.264C1011.32 630.184 1011.59 631.234 1011.59 632.414C1011.59 633.854 1011.17 635.124 1010.33 636.224C1009.51 637.324 1008.27 638.054 1006.61 638.414L1011.86 647.174H1008.59ZM1000.31 636.434H1004.33C1005.81 636.434 1006.92 636.074 1007.66 635.354C1008.4 634.614 1008.77 633.634 1008.77 632.414C1008.77 631.174 1008.4 630.214 1007.66 629.534C1006.94 628.854 1005.83 628.514 1004.33 628.514H1000.31V636.434ZM1017.81 636.704C1017.81 634.664 1018.27 632.834 1019.19 631.214C1020.11 629.574 1021.36 628.294 1022.94 627.374C1024.54 626.454 1026.31 625.994 1028.25 625.994C1030.53 625.994 1032.52 626.544 1034.22 627.644C1035.92 628.744 1037.16 630.304 1037.94 632.324H1034.67C1034.09 631.064 1033.25 630.094 1032.15 629.414C1031.07 628.734 1029.77 628.394 1028.25 628.394C1026.79 628.394 1025.48 628.734 1024.32 629.414C1023.16 630.094 1022.25 631.064 1021.59 632.324C1020.93 633.564 1020.6 635.024 1020.6 636.704C1020.6 638.364 1020.93 639.824 1021.59 641.084C1022.25 642.324 1023.16 643.284 1024.32 643.964C1025.48 644.644 1026.79 644.984 1028.25 644.984C1029.77 644.984 1031.07 644.654 1032.15 643.994C1033.25 643.314 1034.09 642.344 1034.67 641.084H1037.94C1037.16 643.084 1035.92 644.634 1034.22 645.734C1032.52 646.814 1030.53 647.354 1028.25 647.354C1026.31 647.354 1024.54 646.904 1022.94 646.004C1021.36 645.084 1020.11 643.814 1019.19 642.194C1018.27 640.574 1017.81 638.744 1017.81 636.704ZM1048.54 626.264L1048.21 641.264H1045.93L1045.6 626.264H1048.54ZM1047.19 647.354C1046.67 647.354 1046.23 647.174 1045.87 646.814C1045.51 646.454 1045.33 646.014 1045.33 645.494C1045.33 644.974 1045.51 644.534 1045.87 644.174C1046.23 643.814 1046.67 643.634 1047.19 643.634C1047.69 643.634 1048.11 643.814 1048.45 644.174C1048.81 644.534 1048.99 644.974 1048.99 645.494C1048.99 646.014 1048.81 646.454 1048.45 646.814C1048.11 647.174 1047.69 647.354 1047.19 647.354Z" fill="#18304F"/>
<path d="M474.5 248.174L622.5 293.674C618.5 321.674 601.5 345.174 601.5 345.174C601.5 345.174 603.667 337.007 604 333.674C554.8 339.274 557.833 377.674 565.5 396.174C563.333 392.174 558.9 384.174 558.5 384.174C550 370.674 529.5 392.174 530 392.174C528 399.674 524 403.341 522 405.174H480C464.8 403.974 456.667 388.007 454.5 380.174C453.5 344.341 454.5 270.674 454.5 257.674C454.5 245.436 468.833 246.341 474.5 248.174Z" fill="#18304F"/>
<path d="M808.5 244.674L647.5 294.174C652 333.674 673 358.174 673.5 358.174C661.5 338.674 676 343.174 676.5 343.674C700.9 351.274 708.667 376.507 709.5 388.174C713.5 380.174 711.167 368.507 709.5 363.674C703 354.674 712.5 356.674 713 355.674C743.4 355.274 759.333 383.507 763.5 397.674C764.7 405.274 769.333 405.507 771.5 404.674H802C817.2 402.274 825.333 385.674 827.5 377.674V254.674C824.3 241.474 813.5 242.507 808.5 244.674Z" fill="#18304F"/>
<path d="M455 373.532V364.851L463.222 359.968H479.153L492 354L518.208 373.532L530 391.5C530 399.747 523.5 405 522 405C508.468 404.457 481.208 403.481 481.208 403.915C461.475 400.877 455.514 382.394 455 373.532Z" fill="#18304F"/>
<path d="M624 77.174C585 92.174 573.333 148.174 569.5 176.674H701C692.5 102.674 661 83.174 660.5 82.674C642 67.174 624 77.174 624 77.174Z" fill="#0F2138"/>
<path d="M454 206.674C454 190.105 467.431 176.674 484 176.674H797C813.569 176.674 827 190.105 827 206.674V220.671C827 221.777 826.103 222.673 824.997 222.671L455.997 222.177C454.894 222.175 454 221.28 454 220.177V206.674Z" fill="#0F2138"/>
<path d="M625.084 282.629L469.12 234.085C469.053 234.064 468.985 234.05 468.916 234.043C461.193 233.254 455.432 225.907 454.208 221.251C454.057 220.676 454.518 220.16 455.112 220.158L825.996 218.678C826.55 218.676 827.004 219.127 826.967 219.68C826.518 226.503 821.538 229.453 818.989 230.085L646.4 282.63C646.306 282.659 646.208 282.674 646.109 282.674H625.382C625.281 282.674 625.181 282.659 625.084 282.629Z" fill="#0F2138"/>
<rect x="625" y="267.674" width="21" height="59" rx="8" fill="white"/>
<path d="M591 215.174C591.167 183.841 599.6 117.074 632 100.674C632.5 101.174 640 97.1739 647.5 104.174C648 104.674 678 132.174 680.5 212.174C679.5 211.674 674.5 203.174 653.5 204.674C653.5 205.174 705 211.674 703 258.674C702.5 258.674 693 248.174 656 247.674C656.5 247.674 652 258.174 647.5 259.674C647.5 258.874 631.167 259.341 623 259.674C620.667 257.841 615.7 253.074 614.5 248.674C614.998 247.678 624.929 245.192 633.903 247.647C632.437 247.123 615.863 239.22 566.5 255.674C566.5 256.174 563 229.174 591 215.174Z" fill="white"/>
<path d="M636 132.674C630.486 132.674 626 137.16 626 142.674C626 148.187 630.486 152.674 636 152.674C641.516 152.674 646 148.19 646 142.674C646 137.158 641.516 132.674 636 132.674Z" fill="#0F2138"/>
<path d="M636 165.674C631.589 165.674 628 169.263 628 173.674C628 178.085 631.589 181.674 636 181.674C640.413 181.674 644 178.087 644 173.674C644 169.261 640.413 165.674 636 165.674Z" fill="#0F2138"/>
</svg>
