<?xml version="1.0" encoding="utf-8"?>
<!-- Generator: Adobe Illustrator 24.0.1, SVG Export Plug-In . SVG Version: 6.00 Build 0)  -->
<svg version="1.1" id="Layer_1" xmlns="http://www.w3.org/2000/svg" xmlns:xlink="http://www.w3.org/1999/xlink" x="0px" y="0px"
	 viewBox="0 0 1000 1000" style="enable-background:new 0 0 1000 1000;" xml:space="preserve">
<style type="text/css">
	.st0{fill:#021864;}
	.st1{fill:#0051BD;}
	.st2{fill-rule:evenodd;clip-rule:evenodd;fill:#0051BD;}
	.st3{fill:#FFFFFF;}
</style>
<g>
	<path class="st0" d="M74.01,522.93l378.92,116.51c-10.27,71.66-53.76,131.84-53.76,131.84s5.52-20.92,6.42-29.45
		C279.64,756.15,287.4,854.5,307.04,901.85c-5.52-10.27-16.87-30.73-17.9-30.73c-21.75-34.58-74.23,20.47-72.95,20.47
		c-5.13,19.18-15.33,28.61-20.47,33.3H88.19c-38.94-3.08-59.73-43.95-65.31-64.03c-2.57-91.75,0-280.37,0-313.61
		C22.81,515.88,59.51,518.19,74.01,522.93z"/>
	<path class="st0" d="M929.18,513.95L516.96,640.66c11.55,101.11,65.31,163.86,66.6,163.86c-30.73-49.92,6.42-38.43,7.7-37.15
		c62.49,19.44,82.38,84.05,84.5,113.94c10.27-20.47,4.3-50.36,0-62.75c-16.62-23.03,7.7-17.9,8.98-20.47
		c77.82-1.03,118.63,71.28,129.28,107.53c3.08,19.44,14.95,20.08,20.47,17.9h78.08c38.94-6.16,59.73-48.63,65.31-69.1V539.55
		C969.66,505.74,942.01,508.37,929.18,513.95z"/>
	<path class="st1" d="M456.84,85.12c-99.83,38.43-129.73,181.76-139.54,254.77H654c-21.75-189.46-102.4-239.37-103.68-240.66
		C502.91,59.52,456.84,85.12,456.84,85.12z"/>
	<path class="st2" d="M130.79,339.83c-60.31,0-109.2,48.89-109.2,109.2c0,1.93,0.77,3.72,2.05,5c-0.58,1.15-0.71,2.5-0.06,3.91
		c4.94,11.61,18.41,26.69,35.86,28.68c0.45,0.06,0.9,0.13,1.28,0.26c0,0,402.56,128.73,402.85,124.99c0.3-3.74,1.3-26.98,1.3-26.98
		c0.22-10.12,5.12-18.89,25.91-17.31c35.67-2.23,21.65,45.06,24.2,44.28c2.54-0.78,441.14-135.25,441.14-135.25
		c6.03-1.48,17.39-8.02,19.95-22.78c0.06-0.32,0.06-0.64,0.06-0.96c0.32-0.77,0.45-1.67,0.45-2.57
		c0-60.95-49.4-110.42-110.42-110.42H130.79V339.83z"/>
	<path class="st3" d="M376.78,438.44c0.45-80.2,22.01-251.18,104.96-293.14c1.28,1.28,20.47-8.98,39.71,8.98
		c1.28,1.28,78.08,71.66,84.5,276.52c-2.57-1.28-15.33-23.03-69.1-19.18c0,1.28,131.84,17.9,126.71,138.26
		c-1.28,0-25.6-26.88-120.36-28.17c1.28,0-10.27,26.88-21.75,30.73c0-2.05-41.83-0.83-62.75,0c-5.97-4.68-18.67-16.87-21.75-28.17
		c1.28-2.57,26.69-8.92,49.66-2.63c-3.79-1.35-46.19-21.56-172.59,20.53C314.09,543.4,305.11,474.24,376.78,438.44z"/>
	<path class="st1" d="M491.04,222.99c-17.26,0-31.31,14.05-31.31,31.31s14.05,31.31,31.31,31.31c17.26,0,31.31-14.05,31.31-31.31
		C522.35,237.05,508.3,222.99,491.04,222.99z"/>
	<path class="st1" d="M491.04,316.86c-11.48,0-20.85,9.37-20.85,20.85c0,11.48,9.37,20.85,20.85,20.85
		c11.48,0,20.85-9.37,20.85-20.85C511.89,326.23,502.59,316.86,491.04,316.86z"/>
</g>
</svg>