<svg width="35" height="34" viewBox="0 0 35 34" fill="none" xmlns="http://www.w3.org/2000/svg">
<path d="M6.60752 14.6405L6.39837 17.3595C5.71863 23.3203 4.04543 26.5621 3.3134 27.7124C1.6402 27.817 0.333008 29.1765 0.333008 30.8497C0.333008 32.5752 1.74477 33.9869 3.47026 33.9869H17.5879H31.7056C33.431 33.9869 34.8428 32.5752 34.8428 30.8497C34.8428 29.1765 33.5356 27.817 31.8624 27.7124C31.1304 26.5621 29.4049 23.3203 28.7775 17.3595L28.5683 14.6405C28.5683 9.62091 25.2219 5.43791 20.6206 4.07843C20.6729 3.86928 20.7252 3.60784 20.7252 3.39869V3.13725C20.7252 1.41176 19.3134 0 17.5879 0C15.8624 0 14.4507 1.41176 14.4507 3.13725V3.39869C14.4507 3.66013 14.5029 3.86928 14.5552 4.07843C9.95392 5.43791 6.60752 9.62091 6.60752 14.6405Z" fill="white"/>
</svg>
