<svg width="37" height="37" viewBox="0 0 37 37" fill="none" xmlns="http://www.w3.org/2000/svg">
<path d="M5.00007 9.2312L0.787573 12.2437C0.756886 12.2669 0.727664 12.2919 0.700073 12.3187L5.00007 16.0687V9.2312Z" fill="#EB5454"/>
<path d="M35.4625 12.2437L31.25 9.2312V16.05L35.55 12.3C35.5219 12.2796 35.4927 12.2608 35.4625 12.2437Z" fill="#EB5454"/>
<path d="M0.04375 13.4062C0.0177894 13.5191 0.00313376 13.6342 0 13.75V34.375C0.00266847 34.657 0.0688949 34.9347 0.19375 35.1875C0.210734 35.1651 0.229549 35.1442 0.25 35.125L13.575 25.125L0.04375 13.4062Z" fill="#EB5454"/>
<path d="M17.75 23.5625L1.08124 36.0625C1.32886 36.1825 1.59985 36.2465 1.87499 36.25H34.375C34.6497 36.2485 34.9206 36.1866 35.1687 36.0687L18.5 23.5625C18.3918 23.4814 18.2602 23.4375 18.125 23.4375C17.9898 23.4375 17.8582 23.4814 17.75 23.5625Z" fill="#EB5454"/>
<path d="M36.2063 13.4062L22.675 25.1312L36 35.1312C36.0205 35.1505 36.0393 35.1714 36.0563 35.1938C36.182 34.939 36.2483 34.6591 36.25 34.375V13.75C36.2469 13.6342 36.2322 13.5191 36.2063 13.4062Z" fill="#EB5454"/>
<path d="M23.125 16.875V10.625C23.125 10.4592 23.0592 10.3003 22.9419 10.1831C22.8247 10.0658 22.6658 10 22.5 10H13.75C13.5842 10 13.4253 10.0658 13.3081 10.1831C13.1908 10.3003 13.125 10.4592 13.125 10.625V16.875C13.125 17.0408 13.1908 17.1997 13.3081 17.3169C13.4253 17.4342 13.5842 17.5 13.75 17.5H22.5C22.6658 17.5 22.8247 17.4342 22.9419 17.3169C23.0592 17.1997 23.125 17.0408 23.125 16.875ZM21.0687 12.3187L17.9437 15.4437C17.8856 15.5023 17.8165 15.5488 17.7404 15.5806C17.6642 15.6123 17.5825 15.6286 17.5 15.6286C17.4175 15.6286 17.3358 15.6123 17.2596 15.5806C17.1835 15.5488 17.1144 15.5023 17.0563 15.4437L15.1813 13.5687C15.0636 13.4511 14.9974 13.2914 14.9974 13.125C14.9974 12.9586 15.0636 12.7989 15.1813 12.6813C15.2989 12.5636 15.4586 12.4974 15.625 12.4974C15.7914 12.4974 15.9511 12.5636 16.0687 12.6813L17.5 14.1188L20.1813 11.4313C20.2989 11.3136 20.4586 11.2474 20.625 11.2474C20.7914 11.2474 20.9511 11.3136 21.0687 11.4313C21.1864 11.5489 21.2526 11.7086 21.2526 11.875C21.2526 12.0414 21.1864 12.2011 21.0687 12.3187Z" fill="#EB5454"/>
<path d="M17 22.5625C17.3246 22.3191 17.7193 22.1875 18.125 22.1875C18.5307 22.1875 18.9254 22.3191 19.25 22.5625L21.6563 24.375L30 17.1313V1.875C30 1.37772 29.8025 0.900806 29.4508 0.549175C29.0992 0.197544 28.6223 0 28.125 0H8.125C7.62772 0 7.15081 0.197544 6.79917 0.549175C6.44754 0.900806 6.25 1.37772 6.25 1.875V17.1313L14.5938 24.375L17 22.5625ZM11.875 16.875V10.625C11.875 10.1277 12.0725 9.65081 12.4242 9.29917C12.7758 8.94754 13.2527 8.75 13.75 8.75H14.375V6.25C14.375 5.25544 14.7701 4.30161 15.4733 3.59835C16.1766 2.89509 17.1304 2.5 18.125 2.5C19.1196 2.5 20.0734 2.89509 20.7767 3.59835C21.4799 4.30161 21.875 5.25544 21.875 6.25V8.75H22.5C22.9973 8.75 23.4742 8.94754 23.8258 9.29917C24.1775 9.65081 24.375 10.1277 24.375 10.625V16.875C24.375 17.3723 24.1775 17.8492 23.8258 18.2008C23.4742 18.5525 22.9973 18.75 22.5 18.75H13.75C13.2527 18.75 12.7758 18.5525 12.4242 18.2008C12.0725 17.8492 11.875 17.3723 11.875 16.875Z" fill="#EB5454"/>
<path d="M20.625 6.25C20.625 5.58696 20.3616 4.95107 19.8928 4.48223C19.4239 4.01339 18.788 3.75 18.125 3.75C17.462 3.75 16.8261 4.01339 16.3572 4.48223C15.8884 4.95107 15.625 5.58696 15.625 6.25V8.75H20.625V6.25Z" fill="#EB5454"/>
</svg>
