<svg width="1728" height="848" viewBox="0 0 1728 848" fill="none" xmlns="http://www.w3.org/2000/svg">
<rect y="110" width="1728" height="205" fill="url(#paint0_linear_236_2092)"/>
<g opacity="0.8" filter="url(#filter0_f_236_2092)">
<circle cx="1517.32" cy="182.316" r="421.398" transform="rotate(36.4447 1517.32 182.316)" fill="url(#paint1_linear_236_2092)"/>
</g>
<g opacity="0.6" filter="url(#filter1_f_236_2092)">
<circle cx="165.316" cy="226.316" r="421.398" transform="rotate(36.4447 165.316 226.316)" fill="url(#paint2_linear_236_2092)"/>
</g>
<g opacity="0.03" clip-path="url(#clip0_236_2092)">
<path d="M1124.18 84.5757C1118.32 84.2556 1112.47 84.7161 1106.85 85.984C1088.41 90.1415 1073.67 102.213 1066.35 119.146L1066.28 119.306L1066.2 119.501L1000.25 291.139L977.369 350.683L903.951 541.823C903.809 542.212 903.416 543.193 901.919 543.531C900.421 543.868 899.646 543.15 899.313 542.868L750.78 401.658L704.573 357.723L571.899 231.543L571.227 230.944C557.254 218.667 538.716 214.062 520.274 218.219C514.65 219.487 509.166 221.545 504.012 224.385C481.631 236.608 470.566 259.529 475.814 282.808L554.179 630.423C559.427 653.702 579.264 669.692 604.717 671.096C610.583 671.416 616.428 670.955 622.052 669.688C640.494 665.53 655.233 653.458 662.545 636.526L662.653 636.323L662.724 636.128L720.496 481.977L674.288 438.043L610.57 608.033L536.327 278.701L856.121 582.781C871.169 597.101 892.857 602.746 914.184 597.938C919.516 596.736 924.593 594.913 929.328 592.596C938.79 587.927 946.819 581.154 952.811 572.839C955.793 568.703 958.258 564.148 960.12 559.3L1118.26 147.511L1192.51 476.843L1062.55 351.122L1039.66 410.633L1156.82 523.992L1157.6 524.744C1171.62 537.046 1190.15 541.652 1208.6 537.495C1214.22 536.227 1219.71 534.169 1224.86 531.329C1247.24 519.106 1258.31 496.185 1253.06 472.906L1174.68 125.257C1169.44 101.978 1149.61 86.0221 1124.15 84.584L1124.18 84.5757Z" fill="white"/>
<path d="M1082.62 105.481C1077.47 106.642 1073.03 109.25 1069.66 112.688C1068.44 114.749 1067.31 116.896 1066.32 119.154L1066.24 119.315L1066.17 119.509L1000.21 291.147L977.334 350.692L903.916 541.831C903.774 542.22 903.381 543.201 901.884 543.539C900.386 543.877 899.611 543.159 899.278 542.876L750.745 401.666L704.537 357.732L571.901 231.543L571.229 230.944C569.744 229.636 568.181 228.489 566.617 227.341C561.646 225.034 555.818 224.205 549.865 225.547C536.426 228.577 527.826 241.157 530.645 253.663L536.291 278.709L856.122 582.781C871.17 597.101 892.858 602.746 914.186 597.938C919.517 596.736 924.594 594.913 929.329 592.596C938.792 587.927 946.82 581.154 952.813 572.839C955.794 568.703 958.26 564.148 960.122 559.3L1118.26 147.511L1112.04 122.631C1109.22 110.125 1096.06 102.451 1082.62 105.481Z" fill="white"/>
<path d="M1197.65 502.395L1191.08 475.451L1062.55 351.122L1039.66 410.633L1156.82 523.992L1157.6 524.744C1159.81 526.71 1162.18 528.389 1164.64 529.941C1168.9 531.302 1173.66 531.623 1178.44 530.544C1191.88 527.515 1200.48 514.934 1197.66 502.428L1197.65 502.395Z" fill="white"/>
<path d="M645.725 650.602C651.422 649.318 656.186 646.28 659.631 642.325C660.703 640.441 661.694 638.539 662.545 636.526L662.653 636.323L662.724 636.128L720.495 481.977L674.288 438.043L610.998 606.865L616.264 633.461C619.083 645.967 632.249 653.64 645.688 650.611L645.725 650.602Z" fill="white"/>
<path d="M977.37 350.683L976.457 353.103L977.37 350.683Z" fill="white"/>
<path d="M1112.04 122.631C1109.22 110.125 1096.06 102.451 1082.62 105.481C1077.47 106.642 1073.03 109.25 1069.66 112.688C1068.43 114.749 1067.31 116.896 1066.32 119.154L1066.24 119.315L1066.17 119.509L903.952 541.823C903.81 542.212 903.417 543.193 901.92 543.531C900.824 543.778 900.14 543.468 899.727 543.168L908.658 552.653C928.406 572.842 956.581 566.919 962.992 549.904L967.284 540.687L1118.26 147.511L1112.04 122.631Z" fill="white"/>
<path d="M764.742 199.568L756.698 218.701L711.847 337.05L758.623 381.463L823.629 207.826C823.8 207.394 824.157 206.421 825.691 206.075C827.224 205.73 828.008 206.481 828.304 206.772L819.083 196.852C799.335 176.664 771.16 182.587 764.749 199.602L764.742 199.568Z" fill="white"/>
<path d="M984.044 275.436L871.784 167.116C856.727 152.584 834.89 146.793 813.417 151.634C791.944 156.475 774.704 171.074 767.338 190.662L756.698 218.7L764.741 199.568C771.152 182.553 799.327 176.63 819.075 196.818L827.349 205.773L831.305 209.702L846.738 224.542L961.167 335.159L984.037 275.402L984.044 275.436Z" fill="white"/>
</g>
<defs>
<filter id="filter0_f_236_2092" x="895.891" y="-439.11" width="1242.85" height="1242.85" filterUnits="userSpaceOnUse" color-interpolation-filters="sRGB">
<feFlood flood-opacity="0" result="BackgroundImageFix"/>
<feBlend mode="normal" in="SourceGraphic" in2="BackgroundImageFix" result="shape"/>
<feGaussianBlur stdDeviation="100" result="effect1_foregroundBlur_236_2092"/>
</filter>
<filter id="filter1_f_236_2092" x="-456.109" y="-395.11" width="1242.85" height="1242.85" filterUnits="userSpaceOnUse" color-interpolation-filters="sRGB">
<feFlood flood-opacity="0" result="BackgroundImageFix"/>
<feBlend mode="normal" in="SourceGraphic" in2="BackgroundImageFix" result="shape"/>
<feGaussianBlur stdDeviation="100" result="effect1_foregroundBlur_236_2092"/>
</filter>
<linearGradient id="paint0_linear_236_2092" x1="864" y1="110" x2="864" y2="315" gradientUnits="userSpaceOnUse">
<stop stop-color="#3C78F0"/>
<stop offset="1" stop-color="#1242E3"/>
</linearGradient>
<linearGradient id="paint1_linear_236_2092" x1="1301.83" y1="-108.955" x2="1704.47" y2="304.145" gradientUnits="userSpaceOnUse">
<stop stop-color="#271E92"/>
<stop offset="1" stop-color="#2014A4" stop-opacity="0"/>
</linearGradient>
<linearGradient id="paint2_linear_236_2092" x1="-151.952" y1="13.5486" x2="326.585" y2="346.753" gradientUnits="userSpaceOnUse">
<stop offset="0.0731069" stop-color="#271E92"/>
<stop offset="1" stop-color="#2014A4" stop-opacity="0"/>
</linearGradient>
<clipPath id="clip0_236_2092">
<rect width="716.41" height="463.286" fill="white" transform="translate(464 230.406) rotate(-12.7042)"/>
</clipPath>
</defs>
</svg>
