<svg width="83" height="70" viewBox="0 0 83 70" fill="none" xmlns="http://www.w3.org/2000/svg">
<rect x="0.5" y="0.5" width="82" height="69" rx="5.5" fill="#F7F9FA" stroke="#F5F4F1"/>
<path fill-rule="evenodd" clip-rule="evenodd" d="M55.1111 24.7778H50.3444V26.2001C50.333 27.7116 49.8813 29.1872 49.0446 30.4461C48.208 31.7051 47.0225 32.693 45.6333 33.2889L42.6667 34.5889C42.3874 34.7154 42.0843 34.7808 41.7778 34.7808C41.4712 34.7808 41.1682 34.7154 40.8889 34.5889L37.9222 33.2889C36.533 32.693 35.3476 31.7051 34.5109 30.4461C33.6742 29.1872 33.2226 27.7116 33.2111 26.2001V24.7778H28.4444C27.2657 24.7778 26.1352 25.2461 25.3017 26.0796C24.4683 26.9131 24 28.0435 24 29.2223V48.1112C24 49.2899 24.4683 50.4204 25.3017 51.2539C26.1352 52.0874 27.2657 52.5556 28.4444 52.5556H55.1111C56.2899 52.5556 57.4203 52.0874 58.2538 51.2539C59.0873 50.4204 59.5556 49.2899 59.5556 48.1112V29.2223C59.5556 28.0435 59.0873 26.9131 58.2538 26.0796C57.4203 25.2461 56.2899 24.7778 55.1111 24.7778ZM55.5111 36.4112L48.5889 39.0778C46.4153 39.9126 44.1061 40.3382 41.7778 40.3334C39.4606 40.3341 37.1631 39.9085 35 39.0778L28.0778 36.4112C27.9413 36.3586 27.8166 36.2798 27.7107 36.179C27.6047 36.0783 27.5197 35.9577 27.4603 35.824C27.3405 35.5542 27.3328 35.2478 27.4389 34.9723C27.4914 34.8358 27.5703 34.7111 27.671 34.6052C27.7718 34.4992 27.8924 34.4142 28.026 34.3548C28.2959 34.235 28.6022 34.2273 28.8778 34.3334L35.7667 37.0001C37.6847 37.7379 39.7227 38.1146 41.7778 38.1112C43.8216 38.1105 45.8479 37.7338 47.7556 37.0001L54.6778 34.3334C54.9533 34.2273 55.2597 34.235 55.5295 34.3548C55.7994 34.4746 56.0106 34.6967 56.1167 34.9723C56.2228 35.2478 56.215 35.5542 56.0952 35.824C55.9754 36.0939 55.7533 36.3051 55.4778 36.4112H55.5111Z" fill="#EB5454"/>
<path fill-rule="evenodd" clip-rule="evenodd" d="M41.7778 17L41.1111 17.4778C39.6519 18.5023 37.9811 19.1858 36.2222 19.4778L35.4667 19.5889V26.2C35.4737 27.2748 35.7923 28.3245 36.384 29.2219C36.9756 30.1192 37.8149 30.8256 38.8 31.2556L41.7778 32.5556L44.7445 31.2556C45.7296 30.8256 46.5688 30.1192 47.1605 29.2219C47.7521 28.3245 48.0708 27.2748 48.0778 26.2V19.5889L47.3333 19.4778C45.5628 19.1906 43.8802 18.5069 42.4111 17.4778L41.7778 17Z" fill="#EB5454"/>
</svg>
