<svg width="36" height="36" viewBox="0 0 36 36" fill="none" xmlns="http://www.w3.org/2000/svg">
<path fill-rule="evenodd" clip-rule="evenodd" d="M31.1111 7.77783H26.3444V9.20005C26.333 10.7116 25.8813 12.1872 25.0446 13.4461C24.208 14.7051 23.0225 15.693 21.6333 16.2889L18.6667 17.5889C18.3874 17.7154 18.0843 17.7808 17.7778 17.7808C17.4712 17.7808 17.1682 17.7154 16.8889 17.5889L13.9222 16.2889C12.533 15.693 11.3476 14.7051 10.5109 13.4461C9.67424 12.1872 9.22256 10.7116 9.21111 9.20005V7.77783H4.44444C3.2657 7.77783 2.13524 8.24608 1.30175 9.07958C0.468253 9.91307 0 11.0435 0 12.2223V31.1112C0 32.2899 0.468253 33.4204 1.30175 34.2539C2.13524 35.0874 3.2657 35.5556 4.44444 35.5556H31.1111C32.2899 35.5556 33.4203 35.0874 34.2538 34.2539C35.0873 33.4204 35.5556 32.2899 35.5556 31.1112V12.2223C35.5556 11.0435 35.0873 9.91307 34.2538 9.07958C33.4203 8.24608 32.2899 7.77783 31.1111 7.77783ZM31.5111 19.4112L24.5889 22.0778C22.4153 22.9126 20.1061 23.3382 17.7778 23.3334C15.4606 23.3341 13.1631 22.9085 11 22.0778L4.07778 19.4112C3.94135 19.3586 3.8166 19.2798 3.71066 19.179C3.60472 19.0783 3.51966 18.9577 3.46033 18.824C3.34052 18.5542 3.3328 18.2478 3.43889 17.9723C3.49142 17.8358 3.5703 17.7111 3.67104 17.6052C3.77178 17.4992 3.8924 17.4142 4.02602 17.3548C4.29586 17.235 4.60225 17.2273 4.87778 17.3334L11.7667 20.0001C13.6847 20.7379 15.7227 21.1146 17.7778 21.1112C19.8216 21.1105 21.8479 20.7338 23.7556 20.0001L30.6778 17.3334C30.9533 17.2273 31.2597 17.235 31.5295 17.3548C31.7994 17.4746 32.0106 17.6967 32.1167 17.9723C32.2228 18.2478 32.215 18.5542 32.0952 18.824C31.9754 19.0939 31.7533 19.3051 31.4778 19.4112H31.5111Z" fill="#EB5454"/>
<path fill-rule="evenodd" clip-rule="evenodd" d="M17.7778 0L17.1111 0.477778C15.6519 1.50227 13.9811 2.18578 12.2222 2.47778L11.4667 2.58889V9.2C11.4737 10.2748 11.7923 11.3245 12.384 12.2219C12.9756 13.1192 13.8149 13.8256 14.8 14.2556L17.7778 15.5556L20.7445 14.2556C21.7296 13.8256 22.5688 13.1192 23.1605 12.2219C23.7521 11.3245 24.0708 10.2748 24.0778 9.2V2.58889L23.3333 2.47778C21.5628 2.19058 19.8802 1.50688 18.4111 0.477778L17.7778 0Z" fill="#EB5454"/>
</svg>
