<svg width="26" height="26" viewBox="0 0 26 26" fill="none" xmlns="http://www.w3.org/2000/svg">
<g clip-path="url(#clip0_211_6817)">
<mask id="mask0_211_6817" style="mask-type:luminance" maskUnits="userSpaceOnUse" x="0" y="0" width="26" height="26">
<path d="M13.0003 23.8333C14.4233 23.8351 15.8325 23.5558 17.1471 23.0112C18.4617 22.4667 19.6558 21.6677 20.6606 20.6602C21.6681 19.6554 22.467 18.4614 23.0116 17.1468C23.5561 15.8322 23.8355 14.4229 23.8337 13C23.8355 11.5771 23.5561 10.1678 23.0115 8.8532C22.467 7.5386 21.668 6.34457 20.6606 5.33972C19.6558 4.33223 18.4617 3.53326 17.1471 2.98871C15.8325 2.44417 14.4233 2.16479 13.0003 2.16664C11.5774 2.16482 10.1682 2.44421 8.85357 2.98876C7.53897 3.5333 6.34493 4.33226 5.34008 5.33972C4.33262 6.34457 3.53367 7.5386 2.98912 8.8532C2.44458 10.1678 2.16519 11.5771 2.167 13C2.16516 14.4229 2.44454 15.8322 2.98908 17.1468C3.53363 18.4614 4.3326 19.6554 5.34008 20.6602C6.34493 21.6677 7.53897 22.4666 8.85357 23.0112C10.1682 23.5557 11.5774 23.8351 13.0003 23.8333Z" fill="white" stroke="white" stroke-width="3" stroke-linejoin="round"/>
<path d="M8.66699 13L11.917 16.25L18.417 9.75" stroke="black" stroke-width="3" stroke-linecap="round" stroke-linejoin="round"/>
</mask>
<g mask="url(#mask0_211_6817)">
<path d="M0 0H26V26H0V0Z" fill="#eb5454"/>
</g>
</g>
<defs>
<clipPath id="clip0_211_6817">
<rect width="26" height="26" fill="white"/>
</clipPath>
</defs>
</svg>
