<svg width="83" height="70" viewBox="0 0 83 70" fill="none" xmlns="http://www.w3.org/2000/svg">
<rect x="0.5" y="0.5" width="82" height="69" rx="5.5" fill="#eb5454" fill-opacity="0.1" stroke="#EFEFEF"/>
<path fill-rule="evenodd" clip-rule="evenodd" d="M45.3377 38.5888V47.1088C45.3364 47.3727 45.2307 47.6254 45.0439 47.8117C44.857 47.998 44.604 48.103 44.3401 48.1036H39.0397V38.6524C39.0401 38.5785 39.0257 38.5052 38.9976 38.4368C38.9694 38.3684 38.928 38.3063 38.8757 38.254C38.8234 38.2017 38.7613 38.1603 38.6929 38.1322C38.6246 38.104 38.5513 38.0897 38.4773 38.09H31.5673C31.4934 38.0897 31.4201 38.104 31.3517 38.1322C31.2834 38.1603 31.2212 38.2017 31.169 38.254C31.1167 38.3063 31.0753 38.3684 31.0471 38.4368C31.019 38.5052 31.0046 38.5785 31.0049 38.6524V48.1036H25.7045C25.4408 48.1034 25.1879 47.9985 25.0013 47.812C24.8148 47.6255 24.71 47.3726 24.7097 47.1088V33.796L35.0237 27.84L38.3157 29.7432C38.3157 29.83 38.3157 29.9164 38.3157 30.0052C38.3158 32.0265 39.0151 33.9856 40.295 35.5501C41.5748 37.1146 43.3565 38.1882 45.3377 38.5888ZM38.4389 28.516C38.6585 27.234 39.1626 26.0175 39.9141 24.956L35.0237 22.134L21.9545 29.6796C21.5161 29.9326 21.1962 30.3494 21.0651 30.8383C20.934 31.3272 21.0025 31.8482 21.2555 32.2866C21.5086 32.725 21.9254 33.0449 22.4143 33.176C22.9032 33.3071 23.4241 33.2386 23.8625 32.9856L35.0225 26.542L38.4389 28.516ZM32.1297 48.1036H37.9149V39.2148H32.1297V48.1036ZM46.2257 28.5456L48.1925 27.4096C47.647 27.1734 47.0408 27.1152 46.4603 27.2433C45.8797 27.3714 45.3543 27.6792 44.9587 28.123C44.5632 28.5669 44.3176 29.1241 44.2569 29.7155C44.1962 30.3069 44.3235 30.9024 44.6207 31.4173C44.9178 31.9322 45.3698 32.3403 45.9122 32.5837C46.4546 32.827 47.06 32.8931 47.6422 32.7727C48.2243 32.6522 48.7537 32.3513 49.1551 31.9127C49.5564 31.4741 49.8093 30.9202 49.8777 30.3296L47.9105 31.466C47.7188 31.5766 47.5072 31.6484 47.2877 31.6772C47.0682 31.7061 46.8452 31.6914 46.6314 31.634C46.4176 31.5767 46.2172 31.4778 46.0417 31.343C45.8661 31.2082 45.7188 31.0401 45.6081 30.8484C45.4975 30.6567 45.4257 30.445 45.3969 30.2256C45.3681 30.0061 45.3828 29.7831 45.4401 29.5693C45.4975 29.3555 45.5963 29.1551 45.7311 28.9795C45.8659 28.8039 46.034 28.6562 46.2257 28.5456ZM50.3373 26.1712C49.4632 25.4256 48.3606 25.001 47.2121 24.9678C46.0637 24.9346 44.9383 25.2948 44.0226 25.9887C43.1069 26.6826 42.4557 27.6686 42.1771 28.7832C41.8984 29.8978 42.0089 31.0742 42.4903 32.1174C42.9717 33.1606 43.795 34.0081 44.824 34.5193C45.8529 35.0305 47.0256 35.1748 48.1478 34.9284C49.27 34.6819 50.2743 34.0594 50.9942 33.164C51.7142 32.2686 52.1067 31.1541 52.1065 30.0052C52.1066 29.6984 52.0799 29.3921 52.0265 29.09L51.0089 29.6772C51.018 29.7839 51.0225 29.8932 51.0225 30.0052C51.0228 30.8892 50.7266 31.7477 50.1814 32.4436C49.6363 33.1394 48.8735 33.6324 48.0151 33.8437C47.1568 34.055 46.2523 33.9724 45.4464 33.6091C44.6406 33.2458 43.9797 32.6229 43.5696 31.8398C43.1595 31.0567 43.0238 30.1587 43.1841 29.2893C43.3445 28.42 43.7917 27.6296 44.4542 27.0443C45.1167 26.4591 45.9563 26.1129 46.8388 26.0611C47.7213 26.0092 48.5957 26.2548 49.3221 26.7584L50.3373 26.1712ZM53.0445 28.5004C53.1696 28.9922 53.2324 29.4978 53.2313 30.0052C53.2311 31.4269 52.7394 32.8047 51.8395 33.9053C50.9396 35.0058 49.6868 35.7614 48.2935 36.0439C46.9002 36.3264 45.4521 36.1184 44.1945 35.4553C42.937 34.7922 41.9474 33.7147 41.3935 32.4054C40.8396 31.0961 40.7554 29.6355 41.1553 28.2712C41.5551 26.907 42.4143 25.7229 43.5873 24.9197C44.7604 24.1165 46.175 23.7436 47.5915 23.8641C49.0081 23.9847 50.3393 24.5913 51.3597 25.5812L52.6689 24.8256C51.4013 23.4639 49.6765 22.6168 47.8239 22.4461C45.9713 22.2754 44.1207 22.793 42.6256 23.9001C41.1304 25.0072 40.0954 26.6262 39.7182 28.448C39.341 30.2698 39.648 32.1667 40.5806 33.7765C41.5133 35.3863 43.0061 36.5962 44.7742 37.1752C46.5423 37.7541 48.4616 37.6615 50.1658 36.9151C51.8699 36.1688 53.2395 34.8208 54.0128 33.1288C54.7862 31.4367 54.9093 29.519 54.3585 27.742L53.0445 28.5004ZM61.0021 23.8804L59.3137 23.5816L60.6821 22.792C60.7458 22.7551 60.8016 22.706 60.8463 22.6475C60.891 22.589 60.9238 22.5223 60.9427 22.4511C60.9617 22.38 60.9664 22.3058 60.9566 22.2328C60.9469 22.1598 60.9229 22.0895 60.8859 22.0258C60.849 21.9621 60.7999 21.9063 60.7414 21.8616C60.6829 21.8169 60.6162 21.7841 60.5451 21.7652C60.4739 21.7463 60.3997 21.7416 60.3267 21.7513C60.2538 21.7611 60.1834 21.7851 60.1197 21.822L58.7529 22.6112L59.3389 21L56.8889 22.414L56.3037 24.0252L46.7857 29.5204C46.6572 29.595 46.5635 29.7176 46.5253 29.8612C46.4871 30.0049 46.5076 30.1578 46.5821 30.2864C46.6567 30.415 46.7793 30.5087 46.923 30.5468C47.0666 30.585 47.2196 30.5646 47.3481 30.49L56.8613 24.9976L58.5521 25.2968L61.0021 23.8804Z" fill="#eb5454"/>
</svg>
