<svg width="22" height="22" viewBox="0 0 22 22" fill="none" xmlns="http://www.w3.org/2000/svg">
<path d="M1.83203 8.24967C1.83203 6.52084 1.83203 5.65734 2.3692 5.12017C2.90636 4.58301 3.76986 4.58301 5.4987 4.58301H16.4987C18.2275 4.58301 19.091 4.58301 19.6282 5.12017C20.1654 5.65734 20.1654 6.52084 20.1654 8.24967C20.1654 8.68142 20.1654 8.89776 20.0315 9.03251C19.8968 9.16634 19.6795 9.16634 19.2487 9.16634H2.7487C2.31695 9.16634 2.10061 9.16634 1.96586 9.03251C1.83203 8.89776 1.83203 8.68051 1.83203 8.24967ZM1.83203 16.4997C1.83203 18.2285 1.83203 19.092 2.3692 19.6292C2.90636 20.1663 3.76986 20.1663 5.4987 20.1663H16.4987C18.2275 20.1663 19.091 20.1663 19.6282 19.6292C20.1654 19.092 20.1654 18.2285 20.1654 16.4997V11.9163C20.1654 11.4846 20.1654 11.2683 20.0315 11.1335C19.8968 10.9997 19.6795 10.9997 19.2487 10.9997H2.7487C2.31695 10.9997 2.10061 10.9997 1.96586 11.1335C1.83203 11.2683 1.83203 11.4855 1.83203 11.9163V16.4997Z" fill="#EB5454"/>
<path d="M6.41406 2.75V5.5M15.5807 2.75V5.5" stroke="#EB5454" stroke-width="2" stroke-linecap="round"/>
</svg>
