<svg width="27" height="26" viewBox="0 0 27 26" fill="none" xmlns="http://www.w3.org/2000/svg">
<g clip-path="url(#clip0_122_4384)">
<mask id="mask0_122_4384" style="mask-type:luminance" maskUnits="userSpaceOnUse" x="1" y="0" width="26" height="26">
<path d="M13.7743 23.8333C15.1972 23.8351 16.6065 23.5558 17.9211 23.0112C19.2357 22.4667 20.4297 21.6677 21.4346 20.6602C22.4421 19.6554 23.241 18.4614 23.7856 17.1468C24.3301 15.8322 24.6095 14.4229 24.6077 13C24.6095 11.5771 24.3301 10.1678 23.7855 8.8532C23.241 7.5386 22.442 6.34457 21.4346 5.33972C20.4297 4.33223 19.2357 3.53326 17.9211 2.98871C16.6065 2.44417 15.1972 2.16479 13.7743 2.16664C12.3514 2.16482 10.9422 2.44421 9.62755 2.98876C8.31295 3.5333 7.11892 4.33226 6.11407 5.33972C5.10661 6.34457 4.30765 7.5386 3.76311 8.8532C3.21857 10.1678 2.93917 11.5771 2.94099 13C2.93914 14.4229 3.21852 15.8322 3.76307 17.1468C4.30761 18.4614 5.10659 19.6554 6.11407 20.6602C7.11892 21.6677 8.31295 22.4666 9.62755 23.0112C10.9422 23.5557 12.3514 23.8351 13.7743 23.8333Z" fill="white" stroke="white" stroke-width="3" stroke-linejoin="round"/>
<path d="M9.44098 13L12.691 16.25L19.191 9.75" stroke="black" stroke-width="3" stroke-linecap="round" stroke-linejoin="round"/>
</mask>
<g mask="url(#mask0_122_4384)">
<path d="M0.774292 0H26.7743V26H0.774292V0Z" fill="white"/>
</g>
</g>
<defs>
<clipPath id="clip0_122_4384">
<rect width="26" height="26" fill="white" transform="translate(0.774292)"/>
</clipPath>
</defs>
</svg>
