<svg width="83" height="71" viewBox="0 0 83 71" fill="none" xmlns="http://www.w3.org/2000/svg">
<rect x="0.5" y="1.4375" width="82" height="69" rx="5.5" fill="#F7F9FA" stroke="#EFEFEF"/>
<path d="M47.083 45.5684H28.0484C25.2604 45.5684 23 43.308 23 40.52V26.0484C23 23.2604 25.2604 21 28.0484 21H50.8015C53.5895 21 55.8499 23.2604 55.8499 26.0484V36.8322C55.5642 36.801 55.274 36.7843 54.98 36.7843C52.7362 36.7843 50.7102 37.7153 49.2657 39.2116L44.0492 34.6196L52.6449 26.0238C52.9899 25.6789 52.9899 25.1192 52.6449 24.7743C52.2999 24.4293 51.7407 24.4293 51.3953 24.7743L42.3699 33.8001C40.7463 35.4241 38.1036 35.4241 36.48 33.8001L27.4541 24.7743C27.1091 24.4293 26.55 24.4293 26.2045 24.7743C25.8595 25.1192 25.8595 25.6789 26.2045 26.0238L34.8003 34.6196L26.9388 41.54C26.5728 41.8622 26.5372 42.4205 26.8594 42.787C27.0341 42.9854 27.2777 43.0868 27.5226 43.0868C27.7298 43.0868 27.9383 43.0143 28.1059 42.8664L36.139 35.7946C37.1301 36.4543 38.277 36.7843 39.4238 36.7843C40.5712 36.7843 41.7181 36.4543 42.7091 35.7946L48.1838 40.6139C47.4565 41.813 47.0377 43.2202 47.0377 44.7252C47.0386 45.0101 47.054 45.2914 47.083 45.5684ZM61.2543 44.7252C61.2543 48.1826 58.4373 51 54.9795 51C51.5217 51 48.7048 48.183 48.7048 44.7252C48.7048 41.2679 51.5217 38.4505 54.9795 38.4505C58.4689 38.4509 61.2543 41.2679 61.2543 44.7252ZM58.946 42.2054C58.601 41.8604 58.0418 41.8604 57.6964 42.2054L53.9551 45.9467L52.4628 44.4544C52.1178 44.1094 51.5586 44.1094 51.2132 44.4544C50.8682 44.7994 50.8682 45.359 51.2132 45.704L53.3301 47.8209C53.4955 47.9864 53.7203 48.0799 53.9546 48.0799C54.189 48.0799 54.4138 47.9868 54.5792 47.8209L58.9456 43.4546C59.291 43.11 59.291 42.5504 58.946 42.2054Z" fill="#EB5454"/>
</svg>
