<svg width="726" height="550" viewBox="0 0 726 550" fill="none" xmlns="http://www.w3.org/2000/svg">
<path d="M652.53 513.422H604.493V513.784H652.53V513.422Z" fill="#eb5454"/>
<path d="M480.398 517.366H467.794V517.729H480.398V517.366Z" fill="#eb5454"/>
<path d="M603.042 499.962H575.209V500.325H603.042V499.962Z" fill="#eb5454"/>
<path d="M138.729 502.398H76.0869V502.761H138.729V502.398Z" fill="#eb5454"/>
<path d="M160.833 502.398H151.652V502.761H160.833V502.398Z" fill="#eb5454"/>
<path d="M326.555 508.519H190.683V508.881H326.555V508.519Z" fill="#eb5454"/>
<path d="M343.742 425.397H63.7007C61.5042 425.397 59.3977 424.525 57.8446 422.972C56.2915 421.419 55.4189 419.312 55.4189 417.116V23.4367C55.4381 21.2529 56.319 19.165 57.8701 17.6275C59.4211 16.09 61.5167 15.2275 63.7007 15.2275H343.742C345.938 15.2275 348.044 16.1001 349.598 17.6532C351.151 19.2063 352.023 21.3128 352.023 23.5093V417.116C352.023 419.312 351.151 421.419 349.598 422.972C348.044 424.525 345.938 425.397 343.742 425.397ZM63.7007 15.5176C61.6016 15.5215 59.5895 16.357 58.1052 17.8413C56.6209 19.3256 55.7854 21.3376 55.7815 23.4367V417.116C55.7854 419.215 56.6209 421.227 58.1052 422.711C59.5895 424.195 61.6016 425.031 63.7007 425.035H343.742C345.841 425.031 347.853 424.195 349.337 422.711C350.821 421.227 351.657 419.215 351.661 417.116V23.4367C351.657 21.3376 350.821 19.3256 349.337 17.8413C347.853 16.357 345.841 15.5215 343.742 15.5176H63.7007Z" fill="#eb5454"/>
<path d="M657.476 425.397H377.406C375.21 425.393 373.106 424.52 371.554 422.967C370.002 421.415 369.128 419.311 369.124 417.116V23.4367C369.147 21.2541 370.029 19.1684 371.579 17.6317C373.13 16.095 375.223 15.2312 377.406 15.2275H657.476C659.655 15.2351 661.743 16.101 663.288 17.6377C664.832 19.1743 665.709 21.2579 665.728 23.4367V417.116C665.728 419.307 664.86 421.409 663.313 422.961C661.766 424.514 659.667 425.39 657.476 425.397ZM377.406 15.5176C375.307 15.5215 373.295 16.357 371.81 17.8413C370.326 19.3256 369.49 21.3376 369.487 23.4367V417.116C369.49 419.215 370.326 421.227 371.81 422.711C373.295 424.195 375.307 425.031 377.406 425.035H657.476C659.575 425.031 661.587 424.195 663.071 422.711C664.555 421.227 665.391 419.215 665.395 417.116V23.4367C665.391 21.3376 664.555 19.3256 663.071 17.8413C661.587 16.357 659.575 15.5215 657.476 15.5176H377.406Z" fill="#eb5454"/>
<path d="M725.194 490.085H0V490.448H725.194V490.085Z" fill="#eb5454"/>
<path d="M604.739 289.409H477.642V480.614H604.739V289.409Z" fill="#F5F5F5"/>
<path d="M632.152 289.409H604.739V480.614H632.152V289.409Z" fill="#eb5454"/>
<path d="M595.413 303.594H487.707V350.035H595.413V303.594Z" fill="#FAFAFA"/>
<path d="M533.656 303.594L534.193 309.787C534.287 310.769 534.742 311.682 535.471 312.346C536.201 313.011 537.151 313.381 538.138 313.384H544.984C545.971 313.381 546.921 313.011 547.65 312.346C548.379 311.682 548.835 310.769 548.929 309.787L549.465 303.594H533.656Z" fill="#eb5454"/>
<path d="M595.413 355.097H487.707V401.538H595.413V355.097Z" fill="#FAFAFA"/>
<path d="M533.656 355.097L534.193 361.29C534.283 362.275 534.737 363.191 535.467 363.859C536.197 364.526 537.149 364.898 538.138 364.901H544.984C545.973 364.898 546.925 364.526 547.655 363.859C548.384 363.191 548.839 362.275 548.929 361.29L549.465 355.097H533.656Z" fill="#eb5454"/>
<path d="M595.413 406.601H487.707V453.042H595.413V406.601Z" fill="#FAFAFA"/>
<path d="M533.656 406.601L534.193 412.794C534.282 413.771 534.73 414.681 535.451 415.348C536.171 416.015 537.113 416.391 538.094 416.405H544.94C545.929 416.402 546.882 416.03 547.611 415.362C548.341 414.695 548.795 413.779 548.885 412.794L549.422 406.601H533.656Z" fill="#eb5454"/>
<path d="M595.413 490.157H489.215L487.707 480.599H595.413V490.157Z" fill="#eb5454"/>
<path d="M621.07 490.157H595.413V480.599H622.579L621.07 490.157Z" fill="#E0E0E0"/>
<path d="M540.444 289.612H584.811L579.895 233.337H535.527L540.444 289.612Z" fill="#FAFAFA"/>
<path d="M540.443 289.612H538.326L533.395 233.337H535.527L540.443 289.612Z" fill="#eb5454"/>
<path d="M544.461 283.868H579.792L575.862 239.08H540.545L544.461 283.868Z" fill="#F0F0F0"/>
<path d="M547.057 280.185H576.558L573.28 242.765H543.779L547.057 280.185Z" fill="#eb5454"/>
<path d="M575.326 289.612L572.657 259.081H611.368L614.051 289.612H575.326Z" fill="#F0F0F0"/>
<path d="M575.326 289.612L572.657 259.081H570.568L573.252 289.612H575.326Z" fill="#E0E0E0"/>
<path d="M579.009 286.493L576.877 262.199H607.698L609.83 286.493H579.009Z" fill="#eb5454"/>
<path d="M581.373 284.492L579.589 264.201H605.333L607.117 284.492H581.373Z" fill="#F5F5F5"/>
<path d="M92.5927 436.203H224.767V390.574H92.5927V436.203Z" fill="#eb5454"/>
<path d="M92.5927 481.832H224.767V436.203H92.5927V481.832Z" fill="#eb5454"/>
<path d="M229.394 436.203H361.567V390.574H229.394V436.203Z" fill="#eb5454"/>
<path d="M229.394 481.832H361.567V436.203H229.394V481.832Z" fill="#eb5454"/>
<path d="M311.325 436.203L294.893 390.588H320.202L336.635 436.203H311.325Z" fill="#F0F0F0"/>
<path d="M282.637 390.588H288.192L304.639 436.203H299.084L282.637 390.588Z" fill="#F0F0F0"/>
<path d="M327.773 481.832L311.325 436.203H336.634L353.082 481.832H327.773Z" fill="#F0F0F0"/>
<path d="M299.085 436.203H304.64L321.087 481.832H315.532L299.085 436.203Z" fill="#F0F0F0"/>
<path d="M122.282 436.203L105.849 390.588H131.158L147.605 436.203H122.282Z" fill="#F0F0F0"/>
<path d="M93.5938 390.588H99.1487L115.596 436.203H110.041L93.5938 390.588Z" fill="#F0F0F0"/>
<path d="M138.73 481.832L122.282 436.203H147.606L164.039 481.832H138.73Z" fill="#F0F0F0"/>
<path d="M110.041 436.203H115.596L132.043 481.832H126.488L110.041 436.203Z" fill="#F0F0F0"/>
<path d="M361.553 397.594V392.981H229.379V397.594H361.553Z" fill="#E0E0E0"/>
<path d="M361.553 442.86V438.248H229.379V442.86H361.553Z" fill="#E0E0E0"/>
<path d="M292.093 419.233C291.819 419.257 291.543 419.223 291.282 419.134C291.022 419.046 290.783 418.904 290.58 418.717C290.377 418.531 290.215 418.305 290.104 418.053C289.994 417.801 289.937 417.529 289.937 417.254C289.937 416.978 289.994 416.706 290.104 416.454C290.215 416.202 290.377 415.976 290.58 415.79C290.783 415.604 291.022 415.462 291.282 415.373C291.543 415.284 291.819 415.25 292.093 415.274H298.852C299.126 415.25 299.402 415.284 299.663 415.373C299.923 415.462 300.163 415.604 300.365 415.79C300.568 415.976 300.73 416.202 300.841 416.454C300.951 416.706 301.009 416.978 301.009 417.254C301.009 417.529 300.951 417.801 300.841 418.053C300.73 418.305 300.568 418.531 300.365 418.717C300.163 418.904 299.923 419.046 299.663 419.134C299.402 419.223 299.126 419.257 298.852 419.233H292.093Z" fill="#eb5454"/>
<path d="M292.093 418.537C291.819 418.561 291.543 418.527 291.282 418.438C291.022 418.349 290.783 418.207 290.58 418.021C290.377 417.835 290.215 417.609 290.104 417.357C289.994 417.105 289.937 416.833 289.937 416.557C289.937 416.282 289.994 416.01 290.104 415.758C290.215 415.506 290.377 415.28 290.58 415.094C290.783 414.907 291.022 414.765 291.282 414.677C291.543 414.588 291.819 414.554 292.093 414.578H298.852C299.126 414.554 299.402 414.588 299.663 414.677C299.923 414.765 300.163 414.907 300.365 415.094C300.568 415.28 300.73 415.506 300.841 415.758C300.951 416.01 301.009 416.282 301.009 416.557C301.009 416.833 300.951 417.105 300.841 417.357C300.73 417.609 300.568 417.835 300.365 418.021C300.163 418.207 299.923 418.349 299.663 418.438C299.402 418.527 299.126 418.561 298.852 418.537H292.093Z" fill="#E0E0E0"/>
<path d="M292.093 461.353C291.819 461.376 291.543 461.342 291.282 461.254C291.022 461.165 290.783 461.023 290.58 460.837C290.377 460.65 290.215 460.424 290.104 460.172C289.994 459.92 289.937 459.648 289.937 459.373C289.937 459.098 289.994 458.825 290.104 458.573C290.215 458.321 290.377 458.095 290.58 457.909C290.783 457.723 291.022 457.581 291.282 457.492C291.543 457.403 291.819 457.369 292.093 457.393H298.852C299.126 457.369 299.402 457.403 299.663 457.492C299.923 457.581 300.163 457.723 300.365 457.909C300.568 458.095 300.73 458.321 300.841 458.573C300.951 458.825 301.009 459.098 301.009 459.373C301.009 459.648 300.951 459.92 300.841 460.172C300.73 460.424 300.568 460.65 300.365 460.837C300.163 461.023 299.923 461.165 299.663 461.254C299.402 461.342 299.126 461.376 298.852 461.353H292.093Z" fill="#eb5454"/>
<path d="M292.093 460.657C291.566 460.657 291.061 460.447 290.688 460.075C290.316 459.702 290.106 459.197 290.106 458.67C290.106 458.143 290.316 457.637 290.688 457.265C291.061 456.892 291.566 456.683 292.093 456.683H298.852C299.379 456.683 299.885 456.892 300.257 457.265C300.63 457.637 300.839 458.143 300.839 458.67C300.839 459.197 300.63 459.702 300.257 460.075C299.885 460.447 299.379 460.657 298.852 460.657H292.093Z" fill="#E0E0E0"/>
<path d="M227.073 388.543V483.819H363.874V388.543H227.073ZM231.7 438.625H359.247V479.236H231.7V438.625ZM231.7 393.416H359.247V434.027H231.7V393.416Z" fill="#F5F5F5"/>
<path d="M224.767 397.594V392.981H92.5928V397.594H224.767Z" fill="#E0E0E0"/>
<path d="M224.767 442.86V438.248H92.5927V442.86H224.767Z" fill="#E0E0E0"/>
<path d="M155.293 419.233C154.797 419.19 154.335 418.964 153.999 418.597C153.662 418.23 153.476 417.751 153.476 417.253C153.476 416.756 153.662 416.276 153.999 415.909C154.335 415.543 154.797 415.316 155.293 415.273H162.066C162.562 415.316 163.024 415.543 163.36 415.909C163.697 416.276 163.884 416.756 163.884 417.253C163.884 417.751 163.697 418.23 163.36 418.597C163.024 418.964 162.562 419.19 162.066 419.233H155.293Z" fill="#eb5454"/>
<path d="M155.293 418.537C154.797 418.494 154.335 418.267 153.999 417.901C153.662 417.534 153.476 417.055 153.476 416.557C153.476 416.059 153.662 415.58 153.999 415.213C154.335 414.847 154.797 414.62 155.293 414.577H162.066C162.562 414.62 163.024 414.847 163.36 415.213C163.697 415.58 163.884 416.059 163.884 416.557C163.884 417.055 163.697 417.534 163.36 417.901C163.024 418.267 162.562 418.494 162.066 418.537H155.293Z" fill="#E0E0E0"/>
<path d="M155.293 461.352C154.797 461.31 154.335 461.083 153.999 460.716C153.662 460.35 153.476 459.87 153.476 459.372C153.476 458.875 153.662 458.395 153.999 458.029C154.335 457.662 154.797 457.435 155.293 457.393H162.066C162.562 457.435 163.024 457.662 163.36 458.029C163.697 458.395 163.884 458.875 163.884 459.372C163.884 459.87 163.697 460.35 163.36 460.716C163.024 461.083 162.562 461.31 162.066 461.352H155.293Z" fill="#eb5454"/>
<path d="M155.294 460.656C154.767 460.656 154.261 460.446 153.889 460.074C153.516 459.701 153.307 459.196 153.307 458.669C153.307 458.142 153.516 457.636 153.889 457.264C154.261 456.891 154.767 456.682 155.294 456.682H162.067C162.594 456.682 163.099 456.891 163.472 457.264C163.845 457.636 164.054 458.142 164.054 458.669C164.054 459.196 163.845 459.701 163.472 460.074C163.099 460.446 162.594 460.656 162.067 460.656H155.294Z" fill="#E0E0E0"/>
<path d="M90.2871 388.543V483.819H227.073V388.543H90.2871ZM94.8993 438.625H222.461V479.236H94.8993V438.625ZM94.8993 393.416H222.461V434.027H94.8993V393.416Z" fill="#F5F5F5"/>
<path d="M108.533 490.157H96.4078L94.8994 483.818H110.041L108.533 490.157Z" fill="#E0E0E0"/>
<path d="M357.158 490.158H345.047L343.524 483.819H358.666L357.158 490.158Z" fill="#E0E0E0"/>
<path d="M133.117 345.771C133.117 342.087 137.468 338.954 143.473 337.88L137.526 330.788H172.829L166.882 337.88C172.887 338.954 177.238 342.087 177.238 345.771C177.238 349.846 171.973 379.623 165.011 386.178L165.954 387.295C166.046 387.43 166.101 387.586 166.114 387.749C166.126 387.912 166.096 388.075 166.025 388.222C165.955 388.369 165.846 388.495 165.712 388.587C165.577 388.678 165.42 388.733 165.258 388.746H145.112C144.948 388.736 144.79 388.683 144.653 388.592C144.516 388.501 144.406 388.375 144.334 388.227C144.262 388.08 144.23 387.916 144.242 387.752C144.254 387.588 144.309 387.431 144.401 387.295L145.344 386.178C138.397 379.623 133.117 349.846 133.117 345.771Z" fill="#F0F0F0"/>
<path d="M199.834 371.704H151.377C151.377 376.577 155.844 380.856 162.574 383.307L161.124 388.804H190.001L188.623 383.307C195.367 380.856 199.834 376.577 199.834 371.704Z" fill="#eb5454"/>
<path d="M355.605 550C510.917 550 636.821 542.649 636.821 533.581C636.821 524.514 510.917 517.163 355.605 517.163C200.294 517.163 74.3896 524.514 74.3896 533.581C74.3896 542.649 200.294 550 355.605 550Z" fill="#F5F5F5"/>
<path d="M483.109 44.6123H151.057C145.298 44.6123 140.629 49.2812 140.629 55.0406V285.507C140.629 291.267 145.298 295.936 151.057 295.936H483.109C488.868 295.936 493.537 291.267 493.537 285.507V55.0406C493.537 49.2812 488.868 44.6123 483.109 44.6123Z" fill="#eb5454"/>
<path opacity="0.5" d="M483.109 44.6123H151.057C145.298 44.6123 140.629 49.2812 140.629 55.0406V285.507C140.629 291.267 145.298 295.936 151.057 295.936H483.109C488.868 295.936 493.537 291.267 493.537 285.507V55.0406C493.537 49.2812 488.868 44.6123 483.109 44.6123Z" fill="white"/>
<path opacity="0.5" d="M481.833 80.4512H152.348C150.378 80.4512 148.78 82.0486 148.78 84.0191V284.231C148.78 286.201 150.378 287.799 152.348 287.799H481.833C483.803 287.799 485.401 286.201 485.401 284.231V84.0191C485.401 82.0486 483.803 80.4512 481.833 80.4512Z" fill="white"/>
<path opacity="0.3" d="M435.507 54.3877H428.865C426.502 54.3877 424.586 56.3033 424.586 58.6663V65.3091C424.586 67.6721 426.502 69.5878 428.865 69.5878H435.507C437.87 69.5878 439.786 67.6721 439.786 65.3091V58.6663C439.786 56.3033 437.87 54.3877 435.507 54.3877Z" fill="white"/>
<path opacity="0.5" d="M458.307 54.3877H451.664C449.301 54.3877 447.386 56.3033 447.386 58.6663V65.3091C447.386 67.6721 449.301 69.5878 451.664 69.5878H458.307C460.67 69.5878 462.586 67.6721 462.586 65.3091V58.6663C462.586 56.3033 460.67 54.3877 458.307 54.3877Z" fill="white"/>
<path opacity="0.8" d="M481.122 54.3877H474.479C472.116 54.3877 470.2 56.3033 470.2 58.6663V65.3091C470.2 67.6721 472.116 69.5878 474.479 69.5878H481.122C483.485 69.5878 485.4 67.6721 485.4 65.3091V58.6663C485.4 56.3033 483.485 54.3877 481.122 54.3877Z" fill="white"/>
<path d="M164.633 51.4004H154.103C151.163 51.4004 148.78 53.7835 148.78 56.7233V67.2531C148.78 70.1929 151.163 72.5761 154.103 72.5761H164.633C167.573 72.5761 169.956 70.1929 169.956 67.2531V56.7233C169.956 53.7835 167.573 51.4004 164.633 51.4004Z" fill="#eb5454"/>
<path opacity="0.8" d="M460.57 93.4756H225.738C222.518 93.4756 219.907 96.086 219.907 99.3062V112.621C219.907 115.841 222.518 118.451 225.738 118.451H460.57C463.79 118.451 466.401 115.841 466.401 112.621V99.3062C466.401 96.086 463.79 93.4756 460.57 93.4756Z" fill="white"/>
<path opacity="0.8" d="M460.57 126.603H225.738C222.518 126.603 219.907 129.213 219.907 132.433V145.748C219.907 148.968 222.518 151.578 225.738 151.578H460.57C463.79 151.578 466.401 148.968 466.401 145.748V132.433C466.401 129.213 463.79 126.603 460.57 126.603Z" fill="white"/>
<path opacity="0.8" d="M460.57 165.125H225.738C222.518 165.125 219.907 167.735 219.907 170.956V268.016C219.907 271.236 222.518 273.846 225.738 273.846H460.57C463.79 273.846 466.401 271.236 466.401 268.016V170.956C466.401 167.735 463.79 165.125 460.57 165.125Z" fill="white"/>
<path d="M459.859 165.125H226.448C222.836 165.125 219.907 168.054 219.907 171.666V180.398C219.907 184.01 222.836 186.939 226.448 186.939H459.859C463.472 186.939 466.401 184.01 466.401 180.398V171.666C466.401 168.054 463.472 165.125 459.859 165.125Z" fill="#eb5454"/>
<path opacity="0.5" d="M459.859 165.125H226.448C222.836 165.125 219.907 168.054 219.907 171.666V180.398C219.907 184.01 222.836 186.939 226.448 186.939H459.859C463.472 186.939 466.401 184.01 466.401 180.398V171.666C466.401 168.054 463.472 165.125 459.859 165.125Z" fill="white"/>
<path opacity="0.5" d="M313.326 168.533H303.783C302.301 168.533 301.1 169.735 301.1 171.216V180.76C301.1 182.242 302.301 183.443 303.783 183.443H313.326C314.808 183.443 316.01 182.242 316.01 180.76V171.216C316.01 169.735 314.808 168.533 313.326 168.533Z" fill="white"/>
<path opacity="0.5" d="M334.633 168.533H325.089C323.608 168.533 322.406 169.735 322.406 171.216V180.76C322.406 182.242 323.608 183.443 325.089 183.443H334.633C336.115 183.443 337.316 182.242 337.316 180.76V171.216C337.316 169.735 336.115 168.533 334.633 168.533Z" fill="white"/>
<path opacity="0.5" d="M356.215 168.533H346.672C345.19 168.533 343.988 169.735 343.988 171.216V180.76C343.988 182.242 345.19 183.443 346.672 183.443H356.215C357.697 183.443 358.898 182.242 358.898 180.76V171.216C358.898 169.735 357.697 168.533 356.215 168.533Z" fill="white"/>
<path d="M167.838 102.787H165.647V101.496H171.609V102.787H169.418V108.342H167.838V102.787Z" fill="#263238"/>
<path d="M173.756 108.052C173.341 107.825 172.977 107.516 172.684 107.145C172.392 106.774 172.177 106.347 172.052 105.891C171.928 105.435 171.896 104.959 171.96 104.49C172.023 104.022 172.18 103.571 172.421 103.165C172.745 102.628 173.205 102.187 173.756 101.888C174.352 101.596 175.006 101.444 175.67 101.444C176.334 101.444 176.989 101.596 177.585 101.888C178.139 102.187 178.604 102.627 178.933 103.165C179.248 103.717 179.413 104.342 179.413 104.977C179.413 105.613 179.248 106.238 178.933 106.79C178.608 107.327 178.141 107.763 177.585 108.052C176.993 108.358 176.336 108.517 175.67 108.517C175.004 108.517 174.348 108.358 173.756 108.052ZM176.772 106.878C177.096 106.699 177.363 106.432 177.541 106.109C177.731 105.762 177.826 105.372 177.817 104.977C177.827 104.583 177.732 104.192 177.541 103.846C177.359 103.522 177.093 103.251 176.772 103.063C176.436 102.876 176.055 102.781 175.67 102.787C175.289 102.78 174.914 102.876 174.582 103.063C174.258 103.247 173.992 103.519 173.814 103.846C173.623 104.192 173.528 104.583 173.538 104.977C173.529 105.372 173.624 105.762 173.814 106.109C173.988 106.435 174.256 106.703 174.582 106.878C174.913 107.069 175.288 107.169 175.67 107.168C176.062 107.152 176.443 107.032 176.772 106.819V106.878Z" fill="#263238"/>
<path d="M167.098 141.411C166.657 141.301 166.243 141.104 165.88 140.831L166.417 139.642C166.737 139.867 167.089 140.043 167.461 140.164C167.855 140.29 168.266 140.354 168.679 140.352C169.023 140.377 169.368 140.312 169.68 140.164C169.776 140.11 169.855 140.033 169.911 139.938C169.967 139.844 169.998 139.737 169.999 139.627C170.002 139.55 169.986 139.472 169.953 139.402C169.921 139.331 169.872 139.269 169.81 139.221C169.661 139.108 169.495 139.02 169.317 138.96L168.52 138.743C168.083 138.647 167.652 138.526 167.229 138.38C166.902 138.249 166.61 138.045 166.373 137.785C166.128 137.472 166.005 137.08 166.025 136.683C166.019 136.301 166.131 135.926 166.344 135.61C166.583 135.262 166.922 134.994 167.316 134.841C167.817 134.637 168.355 134.538 168.897 134.551C169.332 134.552 169.765 134.606 170.188 134.71C170.571 134.804 170.938 134.956 171.275 135.16L170.797 136.364C170.221 136.022 169.566 135.837 168.897 135.827C168.554 135.802 168.211 135.878 167.91 136.045C167.812 136.103 167.732 136.186 167.676 136.285C167.62 136.384 167.591 136.497 167.591 136.61C167.593 136.724 167.628 136.834 167.692 136.927C167.757 137.02 167.848 137.092 167.954 137.133C168.319 137.28 168.698 137.392 169.085 137.466C169.518 137.566 169.944 137.692 170.362 137.843C170.69 137.964 170.984 138.163 171.217 138.423C171.465 138.73 171.589 139.118 171.565 139.511C171.569 139.893 171.458 140.267 171.246 140.585C170.997 140.929 170.655 141.196 170.26 141.353C169.752 141.552 169.21 141.646 168.665 141.629C168.135 141.63 167.608 141.557 167.098 141.411Z" fill="#263238"/>
<path d="M173.408 140.758C172.851 140.146 172.559 139.337 172.596 138.51V134.681H174.177V138.452C174.177 139.685 174.684 140.294 175.627 140.294C175.839 140.308 176.052 140.275 176.25 140.197C176.448 140.119 176.627 139.999 176.773 139.844C177.083 139.428 177.223 138.91 177.165 138.394V134.623H178.717V138.51C178.764 138.929 178.717 139.354 178.579 139.752C178.442 140.151 178.216 140.514 177.92 140.814C177.624 141.115 177.264 141.345 176.868 141.488C176.471 141.632 176.047 141.685 175.627 141.643C174.8 141.653 174.002 141.335 173.408 140.758Z" fill="#263238"/>
<path d="M186.302 138.511C186.528 138.822 186.645 139.199 186.636 139.584C186.658 139.866 186.606 140.149 186.484 140.403C186.361 140.658 186.174 140.876 185.939 141.034C185.32 141.391 184.608 141.558 183.894 141.513H180.355V134.667H183.706C184.378 134.626 185.047 134.793 185.62 135.146C185.838 135.285 186.014 135.479 186.131 135.708C186.248 135.937 186.302 136.194 186.288 136.451C186.296 136.762 186.215 137.069 186.055 137.336C185.889 137.596 185.66 137.811 185.388 137.96C185.74 138.05 186.058 138.242 186.302 138.511ZM181.951 135.813V137.423H183.517C183.826 137.442 184.133 137.372 184.402 137.22C184.5 137.152 184.579 137.061 184.632 136.954C184.685 136.848 184.711 136.73 184.707 136.611C184.714 136.491 184.689 136.372 184.636 136.265C184.582 136.158 184.502 136.067 184.402 136.002C184.131 135.855 183.824 135.79 183.517 135.813H181.951ZM184.736 140.063C184.841 139.995 184.927 139.9 184.983 139.788C185.039 139.675 185.064 139.55 185.055 139.424C185.055 138.859 184.634 138.569 183.793 138.569H181.951V140.266H183.793C184.115 140.281 184.435 140.211 184.721 140.063H184.736Z" fill="#263238"/>
<path d="M187.824 141.31C187.448 141.148 187.119 140.894 186.867 140.57L187.752 139.526C187.885 139.744 188.07 139.925 188.29 140.054C188.51 140.183 188.759 140.256 189.014 140.266C189.666 140.266 189.986 139.889 189.986 139.135V135.886H187.578V134.609H191.552V139.048C191.58 139.39 191.539 139.734 191.432 140.06C191.324 140.387 191.153 140.688 190.928 140.948C190.681 141.169 190.392 141.339 190.078 141.446C189.764 141.553 189.432 141.596 189.101 141.571C188.662 141.577 188.226 141.488 187.824 141.31Z" fill="#263238"/>
<path d="M198.412 140.178V141.411H193.118V134.565H198.296V135.842H194.699V137.292H197.875V138.525H194.699V140.106L198.412 140.178Z" fill="#263238"/>
<path d="M201.037 141.121C200.489 140.831 200.032 140.394 199.717 139.859C199.382 139.31 199.211 138.676 199.224 138.032C199.214 137.388 199.385 136.755 199.717 136.204C200.029 135.671 200.487 135.238 201.037 134.957C201.622 134.646 202.275 134.486 202.937 134.493C203.491 134.482 204.04 134.591 204.547 134.812C205.016 135.009 205.43 135.317 205.751 135.711L204.736 136.64C204.527 136.388 204.266 136.186 203.97 136.048C203.674 135.91 203.351 135.84 203.024 135.842C202.63 135.837 202.241 135.931 201.893 136.117C201.564 136.301 201.293 136.572 201.11 136.901C200.929 137.25 200.835 137.638 200.835 138.032C200.835 138.426 200.929 138.813 201.11 139.163C201.293 139.492 201.564 139.763 201.893 139.946C202.362 140.213 202.911 140.305 203.441 140.207C203.972 140.109 204.451 139.826 204.794 139.41L205.809 140.352C205.488 140.746 205.074 141.055 204.605 141.252C204.098 141.473 203.549 141.582 202.995 141.571C202.315 141.592 201.64 141.438 201.037 141.121Z" fill="#263238"/>
<path d="M208.173 135.9H205.954V134.609H211.915V135.9H209.725V141.412H208.144L208.173 135.9Z" fill="#263238"/>
<path d="M172.364 205.837C172.589 206.149 172.707 206.526 172.697 206.91C172.722 207.192 172.67 207.476 172.547 207.731C172.425 207.986 172.236 208.203 172.001 208.361C171.386 208.731 170.672 208.903 169.956 208.854H166.417V202.008H169.767C170.44 201.967 171.108 202.134 171.682 202.487C171.899 202.625 172.075 202.819 172.193 203.049C172.31 203.278 172.364 203.535 172.349 203.792C172.357 204.103 172.277 204.41 172.117 204.677C171.951 204.937 171.721 205.152 171.45 205.3C171.804 205.378 172.123 205.566 172.364 205.837ZM168.012 203.125V204.735H169.579C169.892 204.759 170.205 204.688 170.478 204.532C170.575 204.467 170.653 204.378 170.704 204.274C170.755 204.169 170.777 204.053 170.768 203.937C170.778 203.819 170.757 203.7 170.706 203.593C170.655 203.486 170.576 203.394 170.478 203.328C170.203 203.178 169.892 203.107 169.579 203.125H168.012ZM170.797 207.374C170.902 207.309 170.987 207.217 171.043 207.107C171.099 206.997 171.124 206.874 171.116 206.751C171.116 206.185 170.696 205.895 169.854 205.895H168.012V207.592H169.854C170.179 207.613 170.502 207.537 170.783 207.374H170.797Z" fill="#263238"/>
<path d="M175.293 208.434C174.736 208.145 174.269 207.708 173.944 207.172C173.63 206.619 173.465 205.994 173.465 205.359C173.465 204.723 173.63 204.098 173.944 203.546C174.269 203.009 174.736 202.573 175.293 202.284C175.885 201.979 176.541 201.819 177.207 201.819C177.873 201.819 178.53 201.979 179.122 202.284C179.676 202.577 180.141 203.013 180.471 203.546C180.785 204.098 180.95 204.723 180.95 205.359C180.95 205.994 180.785 206.619 180.471 207.172C180.141 207.705 179.676 208.14 179.122 208.434C178.53 208.739 177.873 208.898 177.207 208.898C176.541 208.898 175.885 208.739 175.293 208.434ZM178.31 207.273C178.631 207.085 178.896 206.815 179.078 206.49C179.259 206.14 179.353 205.752 179.353 205.359C179.353 204.965 179.259 204.577 179.078 204.227C178.896 203.903 178.631 203.633 178.31 203.444C177.973 203.257 177.593 203.162 177.207 203.169C176.826 203.16 176.45 203.255 176.12 203.444C175.795 203.629 175.529 203.9 175.351 204.227C175.17 204.577 175.076 204.965 175.076 205.359C175.076 205.752 175.17 206.14 175.351 206.49C175.529 206.818 175.795 207.089 176.12 207.273C176.453 207.456 176.827 207.55 177.207 207.549C177.592 207.549 177.971 207.454 178.31 207.273Z" fill="#263238"/>
<path d="M182.14 201.936H185.258C185.939 201.926 186.613 202.07 187.231 202.357C187.775 202.625 188.233 203.043 188.55 203.56C188.877 204.102 189.043 204.726 189.029 205.359C189.042 205.992 188.876 206.615 188.55 207.157C188.232 207.671 187.775 208.084 187.231 208.347C186.616 208.645 185.941 208.794 185.258 208.782H182.14V201.936ZM185.171 207.477C185.77 207.507 186.357 207.304 186.81 206.911C187.015 206.709 187.175 206.467 187.28 206.2C187.385 205.932 187.432 205.646 187.419 205.359C187.434 205.072 187.387 204.785 187.282 204.517C187.177 204.249 187.016 204.007 186.81 203.807C186.357 203.414 185.77 203.211 185.171 203.241H183.721V207.477H185.171Z" fill="#263238"/>
<path d="M193.206 206.36V208.782H191.625V206.331L188.971 201.979H190.653L192.481 205.025L194.308 201.979H195.802L193.206 206.36Z" fill="#263238"/>
<path d="M234.251 177.091C234.486 177.398 234.604 177.778 234.585 178.164C234.596 178.434 234.538 178.703 234.417 178.944C234.295 179.185 234.113 179.391 233.889 179.542C233.274 179.899 232.568 180.065 231.858 180.021H228.319V173.189H231.655C232.332 173.146 233.006 173.313 233.584 173.668C233.799 173.805 233.974 173.997 234.091 174.224C234.208 174.45 234.264 174.704 234.251 174.959C234.254 175.276 234.169 175.587 234.005 175.858C233.846 176.121 233.614 176.333 233.338 176.467C233.7 176.575 234.019 176.793 234.251 177.091ZM229.9 174.379V175.988H231.481C231.789 176.006 232.096 175.936 232.366 175.785C232.464 175.717 232.543 175.626 232.596 175.52C232.649 175.413 232.675 175.295 232.67 175.176C232.676 175.059 232.651 174.942 232.598 174.838C232.545 174.734 232.464 174.645 232.366 174.582C232.1 174.421 231.79 174.35 231.481 174.379H229.9ZM232.7 178.628C232.802 178.557 232.885 178.462 232.941 178.35C232.997 178.239 233.024 178.115 233.019 177.99C233.019 177.424 232.583 177.134 231.757 177.134H229.886V178.831H231.742C232.069 178.848 232.394 178.778 232.685 178.628H232.7Z" fill="#263238"/>
<path d="M237.181 179.687C236.623 179.39 236.158 178.944 235.838 178.399C235.518 177.853 235.355 177.23 235.368 176.598C235.361 175.961 235.526 175.335 235.846 174.785C236.167 174.25 236.629 173.813 237.181 173.523C237.776 173.212 238.438 173.052 239.11 173.059C239.777 173.05 240.435 173.21 241.024 173.523C241.577 173.813 242.038 174.25 242.359 174.785C242.683 175.334 242.854 175.96 242.852 176.598C242.858 177.236 242.687 177.863 242.359 178.411C242.039 178.95 241.578 179.392 241.024 179.687C240.434 179.995 239.776 180.15 239.11 180.137C238.44 180.148 237.777 179.994 237.181 179.687ZM240.198 178.512C240.518 178.33 240.784 178.064 240.966 177.744C241.147 177.391 241.241 177.001 241.241 176.605C241.241 176.209 241.147 175.819 240.966 175.467C240.792 175.14 240.524 174.872 240.198 174.698C239.867 174.506 239.492 174.406 239.11 174.408C238.723 174.405 238.343 174.506 238.008 174.698C237.684 174.876 237.417 175.143 237.239 175.467C237.058 175.819 236.964 176.209 236.964 176.605C236.964 177.001 237.058 177.391 237.239 177.744C237.427 178.07 237.701 178.34 238.03 178.524C238.36 178.708 238.733 178.799 239.11 178.788C239.491 178.795 239.866 178.7 240.198 178.512Z" fill="#263238"/>
<path d="M244.041 173.189H247.145C247.826 173.173 248.502 173.317 249.117 173.609C249.665 173.872 250.128 174.284 250.452 174.799C250.766 175.345 250.926 175.967 250.916 176.597C250.93 177.228 250.769 177.85 250.452 178.396C250.129 178.914 249.667 179.332 249.117 179.599C248.5 179.888 247.826 180.032 247.145 180.02H244.041V173.189ZM247.072 178.729C247.673 178.754 248.26 178.546 248.711 178.149C248.918 177.949 249.079 177.707 249.184 177.439C249.289 177.171 249.335 176.884 249.32 176.597C249.335 176.312 249.289 176.027 249.183 175.762C249.078 175.497 248.917 175.257 248.711 175.06C248.49 174.86 248.231 174.706 247.95 174.606C247.668 174.506 247.37 174.463 247.072 174.48H245.622V178.729H247.072Z" fill="#263238"/>
<path d="M255.108 177.671V180.093H253.513V177.657L250.873 173.306H252.556L254.383 176.337L256.21 173.306H257.762L255.108 177.671Z" fill="#263238"/>
<path d="M284.812 173.189V180.021H283.232V174.451H281.868V173.189H284.812Z" fill="#263238"/>
<path d="M291.121 178.729V180.02H285.958V178.991L288.627 176.51C288.854 176.309 289.05 176.074 289.207 175.814C289.295 175.638 289.345 175.445 289.352 175.248C289.358 175.127 289.334 175.005 289.284 174.894C289.233 174.783 289.157 174.686 289.062 174.61C288.824 174.447 288.537 174.37 288.25 174.393C287.97 174.378 287.692 174.433 287.439 174.552C287.186 174.671 286.966 174.85 286.799 175.074L285.653 174.335C285.929 173.93 286.31 173.609 286.756 173.406C287.258 173.166 287.809 173.047 288.366 173.058C288.824 173.048 289.279 173.137 289.7 173.319C290.061 173.459 290.374 173.701 290.599 174.016C290.806 174.335 290.912 174.709 290.904 175.089C290.91 175.45 290.83 175.808 290.672 176.133C290.447 176.56 290.142 176.94 289.772 177.25L288.191 178.7L291.121 178.729Z" fill="#263238"/>
<path d="M311.514 176.903C311.338 176.679 311.115 176.496 310.862 176.366C311.027 176.237 311.17 176.08 311.282 175.902C311.46 175.599 311.55 175.252 311.543 174.901C311.549 174.616 311.482 174.333 311.351 174.08C311.219 173.827 311.026 173.61 310.789 173.451C310.179 173.08 309.471 172.903 308.759 172.943H305.205V180.195H308.933C309.689 180.24 310.441 180.059 311.094 179.673C311.348 179.505 311.554 179.273 311.691 179.001C311.828 178.729 311.892 178.425 311.877 178.121C311.896 177.686 311.768 177.257 311.514 176.903ZM307.163 177.28H308.802C309.861 177.28 309.861 177.758 309.861 177.932C309.868 178.022 309.851 178.112 309.813 178.193C309.775 178.274 309.716 178.344 309.643 178.397C309.384 178.529 309.093 178.589 308.802 178.571H307.192L307.163 177.28ZM309.31 175.554C309.07 175.684 308.799 175.745 308.526 175.728H307.163V174.524H308.526C308.797 174.509 309.067 174.564 309.31 174.684C309.374 174.737 309.425 174.803 309.46 174.878C309.496 174.954 309.514 175.036 309.514 175.119C309.514 175.202 309.496 175.284 309.46 175.359C309.425 175.434 309.374 175.501 309.31 175.554Z" fill="#263238"/>
<path d="M329.788 173.131H331.384L329.933 179.962H328.353L329.788 173.131Z" fill="#263238"/>
<path d="M349.165 177.888C348.88 177.577 348.66 177.21 348.521 176.811C348.381 176.413 348.324 175.989 348.353 175.568V171.739H349.934V175.51C349.934 176.728 350.442 177.352 351.384 177.352C351.594 177.363 351.804 177.329 351.999 177.251C352.195 177.174 352.371 177.055 352.516 176.902C352.825 176.486 352.965 175.967 352.907 175.452V171.681H354.474V175.51C354.499 175.931 354.441 176.353 354.301 176.752C354.162 177.15 353.944 177.517 353.661 177.83C353.353 178.112 352.991 178.328 352.598 178.468C352.204 178.607 351.787 178.667 351.37 178.643C350.565 178.687 349.774 178.416 349.165 177.888Z" fill="#263238"/>
<path d="M435.884 175.742L438.045 173.567C438.512 173.099 438.774 172.465 438.774 171.804C438.774 171.144 438.512 170.51 438.045 170.042L437.349 169.346C436.881 168.879 436.247 168.617 435.587 168.617C434.926 168.617 434.292 168.879 433.824 169.346L431.649 171.507C431.223 171.943 430.971 172.519 430.939 173.128C430.907 173.736 431.097 174.336 431.475 174.814L430.155 176.148C429.679 175.765 429.079 175.571 428.468 175.603C427.858 175.635 427.281 175.891 426.848 176.322L424.673 178.484C424.205 178.954 423.942 179.59 423.942 180.253C423.942 180.916 424.205 181.552 424.673 182.022L425.369 182.719C425.839 183.186 426.475 183.449 427.138 183.449C427.801 183.449 428.438 183.186 428.908 182.719L431.069 180.543C431.499 180.113 431.755 179.538 431.787 178.93C431.819 178.322 431.625 177.724 431.243 177.251L432.577 175.916C433.056 176.294 433.655 176.484 434.263 176.452C434.872 176.42 435.448 176.168 435.884 175.742ZM432.751 172.609L434.927 170.448C435.103 170.276 435.34 170.179 435.587 170.179C435.834 170.179 436.07 170.276 436.247 170.448L436.943 171.145C437.116 171.321 437.212 171.558 437.212 171.804C437.212 172.051 437.116 172.288 436.943 172.464L434.782 174.64C434.639 174.775 434.458 174.863 434.263 174.892C434.068 174.92 433.87 174.888 433.694 174.8L434.028 174.466L432.925 173.364L432.592 173.697C432.503 173.522 432.471 173.323 432.5 173.128C432.528 172.934 432.616 172.752 432.751 172.609ZM429.966 179.441L427.805 181.616C427.627 181.79 427.387 181.887 427.138 181.887C426.889 181.887 426.65 181.79 426.471 181.616L425.775 180.92C425.601 180.742 425.504 180.502 425.504 180.253C425.504 180.004 425.601 179.765 425.775 179.586L427.95 177.425C428.09 177.289 428.269 177.2 428.461 177.172C428.654 177.143 428.851 177.176 429.024 177.265L428.603 177.686L429.705 178.788L430.126 178.367C430.215 178.541 430.248 178.737 430.219 178.93C430.191 179.123 430.102 179.301 429.966 179.441Z" fill="#263238"/>
<path d="M412.649 169.462H401.655V171.086H412.649V169.462Z" fill="#263238"/>
<path d="M415.898 173.306H398.392V174.93H415.898V173.306Z" fill="#263238"/>
<path d="M412.649 177.135H401.655V178.759H412.649V177.135Z" fill="#263238"/>
<path d="M414.273 180.963H400.016V182.587H414.273V180.963Z" fill="#263238"/>
<path d="M372.052 170.273C372.055 170.587 371.965 170.894 371.793 171.156C371.621 171.418 371.375 171.622 371.087 171.744C370.798 171.866 370.48 171.9 370.172 171.84C369.864 171.781 369.581 171.631 369.359 171.411C369.136 171.19 368.984 170.909 368.922 170.602C368.86 170.295 368.89 169.976 369.01 169.686C369.129 169.397 369.331 169.149 369.592 168.974C369.852 168.8 370.158 168.707 370.471 168.707C370.888 168.707 371.288 168.872 371.584 169.165C371.88 169.458 372.049 169.857 372.052 170.273Z" fill="#263238"/>
<path d="M372.052 176.032C372.052 176.345 371.96 176.65 371.786 176.91C371.612 177.17 371.365 177.373 371.077 177.493C370.788 177.612 370.47 177.644 370.163 177.583C369.856 177.522 369.575 177.371 369.354 177.15C369.133 176.929 368.982 176.647 368.921 176.341C368.86 176.034 368.891 175.716 369.011 175.427C369.131 175.138 369.333 174.891 369.593 174.718C369.853 174.544 370.159 174.451 370.472 174.451C370.68 174.449 370.886 174.489 371.079 174.568C371.271 174.646 371.447 174.763 371.594 174.91C371.741 175.057 371.857 175.232 371.936 175.425C372.015 175.618 372.054 175.824 372.052 176.032Z" fill="#263238"/>
<path d="M372.052 181.775C372.055 182.089 371.965 182.396 371.793 182.658C371.621 182.92 371.375 183.124 371.087 183.246C370.798 183.368 370.48 183.402 370.172 183.342C369.864 183.283 369.581 183.133 369.359 182.913C369.136 182.692 368.984 182.411 368.922 182.104C368.86 181.797 368.89 181.478 369.01 181.188C369.129 180.899 369.331 180.651 369.592 180.476C369.852 180.302 370.158 180.209 370.471 180.209C370.888 180.209 371.288 180.374 371.584 180.667C371.88 180.96 372.049 181.359 372.052 181.775Z" fill="#263238"/>
<path d="M386.353 169.462H375.359V171.086H386.353V169.462Z" fill="#263238"/>
<path d="M386.353 175.22H375.359V176.844H386.353V175.22Z" fill="#263238"/>
<path d="M386.353 180.963H375.359V182.587H386.353V180.963Z" fill="#263238"/>
<path d="M277.241 176.09L274.195 179.121L271.149 176.09H277.241Z" fill="#263238"/>
<path d="M354.547 179.6H348.354V180.818H354.547V179.6Z" fill="#263238"/>
<path d="M227.507 203.357H289.496C289.955 203.316 290.381 203.105 290.692 202.766C291.003 202.426 291.175 201.983 291.175 201.522C291.175 201.062 291.003 200.618 290.692 200.279C290.381 199.939 289.955 199.728 289.496 199.688H227.507C227.048 199.728 226.622 199.939 226.311 200.279C226 200.618 225.828 201.062 225.828 201.522C225.828 201.983 226 202.426 226.311 202.766C226.622 203.105 227.048 203.316 227.507 203.357Z" fill="#263238"/>
<path d="M299.171 203.357H348.092C348.551 203.316 348.977 203.105 349.288 202.766C349.599 202.426 349.771 201.983 349.771 201.522C349.771 201.062 349.599 200.618 349.288 200.279C348.977 199.939 348.551 199.728 348.092 199.688H299.171C298.712 199.728 298.286 199.939 297.975 200.279C297.665 200.618 297.492 201.062 297.492 201.522C297.492 201.983 297.665 202.426 297.975 202.766C298.286 203.105 298.712 203.316 299.171 203.357Z" fill="#263238"/>
<path d="M358.027 203.357H400.48C400.939 203.316 401.365 203.105 401.676 202.766C401.987 202.426 402.159 201.983 402.159 201.522C402.159 201.062 401.987 200.618 401.676 200.279C401.365 199.939 400.939 199.728 400.48 199.688H358.027C357.569 199.728 357.142 199.939 356.832 200.279C356.521 200.618 356.349 201.062 356.349 201.522C356.349 201.983 356.521 202.426 356.832 202.766C357.142 203.105 357.569 203.316 358.027 203.357Z" fill="#263238"/>
<path d="M409.937 203.357H452.375C452.833 203.316 453.26 203.105 453.571 202.766C453.881 202.426 454.054 201.983 454.054 201.522C454.054 201.062 453.881 200.618 453.571 200.279C453.26 199.939 452.833 199.728 452.375 199.688H409.937C409.478 199.728 409.052 199.939 408.741 200.279C408.43 200.618 408.258 201.062 408.258 201.522C408.258 201.983 408.43 202.426 408.741 202.766C409.052 203.105 409.478 203.316 409.937 203.357Z" fill="#263238"/>
<path d="M227.507 221.313H272.397C272.881 221.313 273.346 221.121 273.689 220.778C274.032 220.435 274.224 219.97 274.224 219.486C274.224 219.001 274.032 218.536 273.689 218.193C273.346 217.851 272.881 217.658 272.397 217.658H227.507C227.022 217.658 226.558 217.851 226.215 218.193C225.872 218.536 225.68 219.001 225.68 219.486C225.68 219.97 225.872 220.435 226.215 220.778C226.558 221.121 227.022 221.313 227.507 221.313Z" fill="#263238"/>
<path d="M282.071 221.313H332.356C332.84 221.313 333.305 221.121 333.648 220.778C333.991 220.435 334.183 219.97 334.183 219.486C334.183 219.001 333.991 218.536 333.648 218.193C333.305 217.851 332.84 217.658 332.356 217.658H282.071C281.586 217.658 281.121 217.851 280.778 218.193C280.436 218.536 280.243 219.001 280.243 219.486C280.243 219.97 280.436 220.435 280.778 220.778C281.121 221.121 281.586 221.313 282.071 221.313Z" fill="#263238"/>
<path d="M342.29 221.313H383.554C384.039 221.313 384.503 221.121 384.846 220.778C385.189 220.435 385.381 219.97 385.381 219.486C385.381 219.001 385.189 218.536 384.846 218.193C384.503 217.851 384.039 217.658 383.554 217.658H342.29C341.806 217.658 341.341 217.851 340.998 218.193C340.655 218.536 340.463 219.001 340.463 219.486C340.463 219.97 340.655 220.435 340.998 220.778C341.341 221.121 341.806 221.313 342.29 221.313Z" fill="#263238"/>
<path d="M393.054 221.313H452.375C452.86 221.313 453.324 221.121 453.667 220.778C454.01 220.435 454.202 219.97 454.202 219.486C454.202 219.001 454.01 218.536 453.667 218.193C453.324 217.851 452.86 217.658 452.375 217.658H393.054C392.569 217.658 392.105 217.851 391.762 218.193C391.419 218.536 391.227 219.001 391.227 219.486C391.227 219.97 391.419 220.435 391.762 220.778C392.105 221.121 392.569 221.313 393.054 221.313Z" fill="#263238"/>
<path d="M227.507 239.284H284.652C285.111 239.243 285.537 239.032 285.848 238.692C286.159 238.353 286.331 237.909 286.331 237.449C286.331 236.989 286.159 236.545 285.848 236.206C285.537 235.866 285.111 235.655 284.652 235.614H227.507C227.048 235.655 226.622 235.866 226.311 236.206C226 236.545 225.828 236.989 225.828 237.449C225.828 237.909 226 238.353 226.311 238.692C226.622 239.032 227.048 239.243 227.507 239.284Z" fill="#263238"/>
<path d="M294.327 239.284H348.093C348.551 239.243 348.978 239.032 349.288 238.692C349.599 238.353 349.771 237.909 349.771 237.449C349.771 236.989 349.599 236.545 349.288 236.206C348.978 235.866 348.551 235.655 348.093 235.614H294.283C293.825 235.655 293.398 235.866 293.087 236.206C292.777 236.545 292.604 236.989 292.604 237.449C292.604 237.909 292.777 238.353 293.087 238.692C293.398 239.032 293.825 239.243 294.283 239.284H294.327Z" fill="#263238"/>
<path d="M358.027 239.284H418.944C419.402 239.243 419.829 239.032 420.139 238.692C420.45 238.353 420.622 237.909 420.622 237.449C420.622 236.989 420.45 236.545 420.139 236.206C419.829 235.866 419.402 235.655 418.944 235.614H358.027C357.569 235.655 357.142 235.866 356.832 236.206C356.521 236.545 356.349 236.989 356.349 237.449C356.349 237.909 356.521 238.353 356.832 238.692C357.142 239.032 357.569 239.243 358.027 239.284Z" fill="#263238"/>
<path d="M428.43 239.284H452.376C452.834 239.243 453.261 239.032 453.571 238.692C453.882 238.353 454.054 237.909 454.054 237.449C454.054 236.989 453.882 236.545 453.571 236.206C453.261 235.866 452.834 235.655 452.376 235.614H428.43C427.971 235.655 427.545 235.866 427.234 236.206C426.923 236.545 426.751 236.989 426.751 237.449C426.751 237.909 426.923 238.353 427.234 238.692C427.545 239.032 427.971 239.243 428.43 239.284Z" fill="#263238"/>
<path d="M227.507 257.239H275.37C275.828 257.198 276.255 256.987 276.565 256.647C276.876 256.308 277.048 255.864 277.048 255.404C277.048 254.944 276.876 254.5 276.565 254.161C276.255 253.821 275.828 253.61 275.37 253.569H227.507C227.048 253.61 226.622 253.821 226.311 254.161C226 254.5 225.828 254.944 225.828 255.404C225.828 255.864 226 256.308 226.311 256.647C226.622 256.987 227.048 257.198 227.507 257.239Z" fill="#263238"/>
<path d="M285.073 257.239H332.356C332.814 257.198 333.241 256.987 333.552 256.647C333.862 256.308 334.035 255.864 334.035 255.404C334.035 254.944 333.862 254.5 333.552 254.161C333.241 253.821 332.814 253.61 332.356 253.569H285.073C284.615 253.61 284.188 253.821 283.878 254.161C283.567 254.5 283.395 254.944 283.395 255.404C283.395 255.864 283.567 256.308 283.878 256.647C284.188 256.987 284.615 257.198 285.073 257.239Z" fill="#263238"/>
<path d="M342.291 257.239H374.562C375.021 257.198 375.447 256.987 375.758 256.647C376.069 256.308 376.241 255.864 376.241 255.404C376.241 254.944 376.069 254.5 375.758 254.161C375.447 253.821 375.021 253.61 374.562 253.569H342.291C341.833 253.61 341.406 253.821 341.095 254.161C340.785 254.5 340.612 254.944 340.612 255.404C340.612 255.864 340.785 256.308 341.095 256.647C341.406 256.987 341.833 257.198 342.291 257.239Z" fill="#263238"/>
<path d="M383.975 257.239H452.375C452.833 257.198 453.26 256.987 453.571 256.647C453.881 256.308 454.054 255.864 454.054 255.404C454.054 254.944 453.881 254.5 453.571 254.161C453.26 253.821 452.833 253.61 452.375 253.569H383.975C383.516 253.61 383.09 253.821 382.779 254.161C382.468 254.5 382.296 254.944 382.296 255.404C382.296 255.864 382.468 256.308 382.779 256.647C383.09 256.987 383.516 257.198 383.975 257.239Z" fill="#263238"/>
<g opacity="0.3">
<path d="M227.507 203.357H289.496C289.955 203.316 290.381 203.105 290.692 202.766C291.003 202.426 291.175 201.983 291.175 201.522C291.175 201.062 291.003 200.618 290.692 200.279C290.381 199.939 289.955 199.728 289.496 199.688H227.507C227.048 199.728 226.622 199.939 226.311 200.279C226 200.618 225.828 201.062 225.828 201.522C225.828 201.983 226 202.426 226.311 202.766C226.622 203.105 227.048 203.316 227.507 203.357Z" fill="white"/>
<path d="M299.171 203.357H348.092C348.551 203.316 348.977 203.105 349.288 202.766C349.599 202.426 349.771 201.983 349.771 201.522C349.771 201.062 349.599 200.618 349.288 200.279C348.977 199.939 348.551 199.728 348.092 199.688H299.171C298.712 199.728 298.286 199.939 297.975 200.279C297.665 200.618 297.492 201.062 297.492 201.522C297.492 201.983 297.665 202.426 297.975 202.766C298.286 203.105 298.712 203.316 299.171 203.357Z" fill="white"/>
<path d="M358.027 203.357H400.48C400.939 203.316 401.365 203.105 401.676 202.766C401.987 202.426 402.159 201.983 402.159 201.522C402.159 201.062 401.987 200.618 401.676 200.279C401.365 199.939 400.939 199.728 400.48 199.688H358.027C357.569 199.728 357.142 199.939 356.832 200.279C356.521 200.618 356.349 201.062 356.349 201.522C356.349 201.983 356.521 202.426 356.832 202.766C357.142 203.105 357.569 203.316 358.027 203.357Z" fill="white"/>
<path d="M409.938 203.357H452.376C452.834 203.316 453.261 203.105 453.572 202.766C453.882 202.426 454.055 201.983 454.055 201.522C454.055 201.062 453.882 200.618 453.572 200.279C453.261 199.939 452.834 199.728 452.376 199.688H409.938C409.479 199.728 409.053 199.939 408.742 200.279C408.431 200.618 408.259 201.062 408.259 201.522C408.259 201.983 408.431 202.426 408.742 202.766C409.053 203.105 409.479 203.316 409.938 203.357Z" fill="white"/>
<path d="M227.507 221.313H272.397C272.881 221.313 273.346 221.121 273.689 220.778C274.032 220.435 274.224 219.97 274.224 219.486C274.224 219.001 274.032 218.536 273.689 218.193C273.346 217.851 272.881 217.658 272.397 217.658H227.507C227.022 217.658 226.558 217.851 226.215 218.193C225.872 218.536 225.68 219.001 225.68 219.486C225.68 219.97 225.872 220.435 226.215 220.778C226.558 221.121 227.022 221.313 227.507 221.313Z" fill="white"/>
<path d="M282.071 221.313H332.356C332.84 221.313 333.305 221.121 333.648 220.778C333.991 220.435 334.183 219.97 334.183 219.486C334.183 219.001 333.991 218.536 333.648 218.193C333.305 217.851 332.84 217.658 332.356 217.658H282.071C281.586 217.658 281.121 217.851 280.778 218.193C280.436 218.536 280.243 219.001 280.243 219.486C280.243 219.97 280.436 220.435 280.778 220.778C281.121 221.121 281.586 221.313 282.071 221.313Z" fill="white"/>
<path d="M342.291 221.313H383.555C384.04 221.313 384.504 221.121 384.847 220.778C385.19 220.435 385.382 219.97 385.382 219.486C385.382 219.001 385.19 218.536 384.847 218.193C384.504 217.851 384.04 217.658 383.555 217.658H342.291C341.807 217.658 341.342 217.851 340.999 218.193C340.656 218.536 340.464 219.001 340.464 219.486C340.464 219.97 340.656 220.435 340.999 220.778C341.342 221.121 341.807 221.313 342.291 221.313Z" fill="white"/>
<path d="M393.054 221.313H452.375C452.86 221.313 453.324 221.121 453.667 220.778C454.01 220.435 454.202 219.97 454.202 219.486C454.202 219.001 454.01 218.536 453.667 218.193C453.324 217.851 452.86 217.658 452.375 217.658H393.054C392.569 217.658 392.105 217.851 391.762 218.193C391.419 218.536 391.227 219.001 391.227 219.486C391.227 219.97 391.419 220.435 391.762 220.778C392.105 221.121 392.569 221.313 393.054 221.313Z" fill="white"/>
<path d="M227.507 239.283H284.652C285.111 239.242 285.537 239.031 285.848 238.691C286.159 238.352 286.331 237.908 286.331 237.448C286.331 236.988 286.159 236.544 285.848 236.205C285.537 235.865 285.111 235.654 284.652 235.613H227.507C227.048 235.654 226.622 235.865 226.311 236.205C226 236.544 225.828 236.988 225.828 237.448C225.828 237.908 226 238.352 226.311 238.691C226.622 239.031 227.048 239.242 227.507 239.283Z" fill="white"/>
<path d="M294.327 239.283H348.093C348.551 239.242 348.978 239.031 349.288 238.691C349.599 238.352 349.771 237.908 349.771 237.448C349.771 236.988 349.599 236.544 349.288 236.205C348.978 235.865 348.551 235.654 348.093 235.613H294.283C293.825 235.654 293.398 235.865 293.087 236.205C292.777 236.544 292.604 236.988 292.604 237.448C292.604 237.908 292.777 238.352 293.087 238.691C293.398 239.031 293.825 239.242 294.283 239.283H294.327Z" fill="white"/>
<path d="M358.027 239.283H418.944C419.402 239.242 419.829 239.031 420.139 238.691C420.45 238.352 420.622 237.908 420.622 237.448C420.622 236.988 420.45 236.544 420.139 236.205C419.829 235.865 419.402 235.654 418.944 235.613H358.027C357.569 235.654 357.142 235.865 356.832 236.205C356.521 236.544 356.349 236.988 356.349 237.448C356.349 237.908 356.521 238.352 356.832 238.691C357.142 239.031 357.569 239.242 358.027 239.283Z" fill="white"/>
<path d="M428.43 239.283H452.376C452.834 239.242 453.261 239.031 453.571 238.691C453.882 238.352 454.054 237.908 454.054 237.448C454.054 236.988 453.882 236.544 453.571 236.205C453.261 235.865 452.834 235.654 452.376 235.613H428.43C427.971 235.654 427.545 235.865 427.234 236.205C426.923 236.544 426.751 236.988 426.751 237.448C426.751 237.908 426.923 238.352 427.234 238.691C427.545 239.031 427.971 239.242 428.43 239.283Z" fill="white"/>
<path d="M227.507 257.239H275.37C275.828 257.198 276.255 256.987 276.565 256.647C276.876 256.308 277.048 255.864 277.048 255.404C277.048 254.944 276.876 254.5 276.565 254.161C276.255 253.821 275.828 253.61 275.37 253.569H227.507C227.048 253.61 226.622 253.821 226.311 254.161C226 254.5 225.828 254.944 225.828 255.404C225.828 255.864 226 256.308 226.311 256.647C226.622 256.987 227.048 257.198 227.507 257.239Z" fill="white"/>
<path d="M285.073 257.239H332.356C332.814 257.198 333.241 256.987 333.552 256.647C333.862 256.308 334.035 255.864 334.035 255.404C334.035 254.944 333.862 254.5 333.552 254.161C333.241 253.821 332.814 253.61 332.356 253.569H285.073C284.615 253.61 284.188 253.821 283.878 254.161C283.567 254.5 283.395 254.944 283.395 255.404C283.395 255.864 283.567 256.308 283.878 256.647C284.188 256.987 284.615 257.198 285.073 257.239Z" fill="white"/>
<path d="M342.291 257.239H374.562C375.021 257.198 375.447 256.987 375.758 256.647C376.069 256.308 376.241 255.864 376.241 255.404C376.241 254.944 376.069 254.5 375.758 254.161C375.447 253.821 375.021 253.61 374.562 253.569H342.291C341.833 253.61 341.406 253.821 341.095 254.161C340.785 254.5 340.612 254.944 340.612 255.404C340.612 255.864 340.785 256.308 341.095 256.647C341.406 256.987 341.833 257.198 342.291 257.239Z" fill="white"/>
<path d="M383.975 257.239H452.375C452.833 257.198 453.26 256.987 453.571 256.647C453.881 256.308 454.054 255.864 454.054 255.404C454.054 254.944 453.881 254.5 453.571 254.161C453.26 253.821 452.833 253.61 452.375 253.569H383.975C383.516 253.61 383.09 253.821 382.779 254.161C382.468 254.5 382.296 254.944 382.296 255.404C382.296 255.864 382.468 256.308 382.779 256.647C383.09 256.987 383.516 257.198 383.975 257.239Z" fill="white"/>
</g>
<path d="M289.061 216.193H215.933C211.767 216.193 208.391 219.57 208.391 223.735V291.991C208.391 296.156 211.767 299.533 215.933 299.533H289.061C293.227 299.533 296.603 296.156 296.603 291.991V223.735C296.603 219.57 293.227 216.193 289.061 216.193Z" fill="#eb5454"/>
<path d="M285.799 216.193H212.67C208.505 216.193 205.128 219.57 205.128 223.735V291.991C205.128 296.156 208.505 299.533 212.67 299.533H285.799C289.964 299.533 293.341 296.156 293.341 291.991V223.735C293.341 219.57 289.964 216.193 285.799 216.193Z" fill="#eb5454"/>
<path opacity="0.6" d="M285.799 216.193H212.67C208.505 216.193 205.128 219.57 205.128 223.735V291.991C205.128 296.156 208.505 299.533 212.67 299.533H285.799C289.964 299.533 293.341 296.156 293.341 291.991V223.735C293.341 219.57 289.964 216.193 285.799 216.193Z" fill="white"/>
<path d="M218.776 239.284H279.693C280.151 239.243 280.578 239.032 280.888 238.692C281.199 238.353 281.371 237.909 281.371 237.449C281.371 236.989 281.199 236.545 280.888 236.206C280.578 235.866 280.151 235.655 279.693 235.614H218.776C218.318 235.655 217.891 235.866 217.581 236.206C217.27 236.545 217.098 236.989 217.098 237.449C217.098 237.909 217.27 238.353 217.581 238.692C217.891 239.032 218.318 239.243 218.776 239.284Z" fill="#263238"/>
<path d="M218.776 275.674H279.692C280.177 275.674 280.642 275.481 280.984 275.138C281.327 274.796 281.52 274.331 281.52 273.846C281.52 273.361 281.327 272.897 280.984 272.554C280.642 272.211 280.177 272.019 279.692 272.019H218.776C218.291 272.019 217.826 272.211 217.484 272.554C217.141 272.897 216.948 273.361 216.948 273.846C216.948 274.331 217.141 274.796 217.484 275.138C217.826 275.481 218.291 275.674 218.776 275.674Z" fill="#263238"/>
<path d="M218.776 257.239H279.693C280.151 257.198 280.578 256.987 280.888 256.647C281.199 256.308 281.371 255.864 281.371 255.404C281.371 254.944 281.199 254.5 280.888 254.161C280.578 253.821 280.151 253.61 279.693 253.569H218.776C218.318 253.61 217.891 253.821 217.581 254.161C217.27 254.5 217.098 254.944 217.098 255.404C217.098 255.864 217.27 256.308 217.581 256.647C217.891 256.987 218.318 257.198 218.776 257.239Z" fill="#263238"/>
<g opacity="0.1">
<path d="M218.775 239.284H279.692C280.15 239.243 280.577 239.032 280.887 238.692C281.198 238.353 281.37 237.909 281.37 237.449C281.37 236.989 281.198 236.545 280.887 236.206C280.577 235.866 280.15 235.655 279.692 235.614H218.775C218.317 235.655 217.89 235.866 217.58 236.206C217.269 236.545 217.097 236.989 217.097 237.449C217.097 237.909 217.269 238.353 217.58 238.692C217.89 239.032 218.317 239.243 218.775 239.284Z" fill="white"/>
<path d="M218.776 275.674H279.692C280.177 275.674 280.642 275.481 280.984 275.138C281.327 274.796 281.52 274.331 281.52 273.846C281.52 273.361 281.327 272.897 280.984 272.554C280.642 272.211 280.177 272.019 279.692 272.019H218.776C218.291 272.019 217.826 272.211 217.484 272.554C217.141 272.897 216.948 273.361 216.948 273.846C216.948 274.331 217.141 274.796 217.484 275.138C217.826 275.481 218.291 275.674 218.776 275.674Z" fill="white"/>
<path d="M218.775 257.24H279.692C280.15 257.199 280.577 256.988 280.887 256.648C281.198 256.309 281.37 255.865 281.37 255.405C281.37 254.945 281.198 254.501 280.887 254.162C280.577 253.822 280.15 253.611 279.692 253.57H218.775C218.317 253.611 217.89 253.822 217.58 254.162C217.269 254.501 217.097 254.945 217.097 255.405C217.097 255.865 217.269 256.309 217.58 256.648C217.89 256.988 218.317 257.199 218.775 257.24Z" fill="white"/>
</g>
<path d="M277.661 283.375H268.466C267.328 283.375 266.406 284.297 266.406 285.435V290.279C266.406 291.416 267.328 292.338 268.466 292.338H277.661C278.799 292.338 279.721 291.416 279.721 290.279V285.435C279.721 284.297 278.799 283.375 277.661 283.375Z" fill="#eb5454"/>
<path opacity="0.8" d="M260.504 283.375H251.309C250.171 283.375 249.249 284.297 249.249 285.435V290.279C249.249 291.416 250.171 292.338 251.309 292.338H260.504C261.641 292.338 262.564 291.416 262.564 290.279V285.435C262.564 284.297 261.641 283.375 260.504 283.375Z" fill="white"/>
<path d="M224.114 488.765C224.114 488.765 219.574 420.06 229.103 403.743C229.103 403.743 239.706 417.855 235.674 488.765H224.114Z" fill="#eb5454"/>
<path d="M235.673 488.765C235.673 488.765 237.863 426.964 268.205 416.985C256.49 439.198 249.88 463.746 248.857 488.838L235.673 488.765Z" fill="#eb5454"/>
<path d="M225.13 488.765C225.13 488.765 222.983 426.964 192.598 416.913C204.314 439.126 210.929 463.673 211.96 488.765H225.13Z" fill="#eb5454"/>
<g opacity="0.3">
<path d="M224.114 488.765C224.114 488.765 219.574 420.06 229.103 403.743C229.103 403.743 239.706 417.855 235.674 488.765H224.114Z" fill="white"/>
<path d="M235.673 488.765C235.673 488.765 237.863 426.964 268.205 416.985C256.49 439.198 249.88 463.746 248.857 488.838L235.673 488.765Z" fill="white"/>
<path d="M225.129 488.765C225.129 488.765 222.982 426.964 192.597 416.913C204.313 439.126 210.928 463.673 211.959 488.765H225.129Z" fill="white"/>
</g>
<path d="M205.752 490.955C205.752 490.955 198.689 441.453 175.584 427.704C175.584 427.704 215.658 424.397 214.744 490.955H205.752Z" fill="#eb5454"/>
<path d="M217.95 489.301C217.95 489.301 226.362 435.941 199.791 410.646C199.791 410.646 237.342 418.899 227.435 490.954L217.95 489.301Z" fill="#eb5454"/>
<path d="M254.34 490.955C254.34 490.955 261.403 441.453 284.508 427.704C284.508 427.704 244.434 424.397 245.347 490.955H254.34Z" fill="#eb5454"/>
<path d="M242.215 489.301C242.215 489.301 233.803 435.941 260.359 410.646C260.359 410.646 222.823 418.899 232.715 490.954L242.215 489.301Z" fill="#eb5454"/>
<g opacity="0.5">
<path d="M205.752 490.954C205.752 490.954 198.689 441.452 175.584 427.703C175.584 427.703 215.658 424.396 214.744 490.954H205.752Z" fill="white"/>
<path d="M217.95 489.301C217.95 489.301 226.362 435.941 199.791 410.646C199.791 410.646 237.342 418.899 227.435 490.954L217.95 489.301Z" fill="white"/>
<path d="M254.34 490.954C254.34 490.954 261.403 441.452 284.508 427.703C284.508 427.703 244.434 424.396 245.347 490.954H254.34Z" fill="white"/>
<path d="M242.215 489.301C242.215 489.301 233.803 435.941 260.359 410.646C260.359 410.646 222.823 418.899 232.715 490.954L242.215 489.301Z" fill="white"/>
</g>
<path d="M255.181 529.129H205.215L195.541 475.929H264.87L255.181 529.129Z" fill="#263238"/>
<path d="M345.004 308.568H326.715C326.425 308.568 326.138 308.631 325.875 308.754C325.612 308.877 325.38 309.056 325.194 309.279C325.009 309.502 324.874 309.763 324.801 310.044C324.728 310.325 324.718 310.618 324.771 310.903V311.063C323.862 310.84 322.909 310.87 322.016 311.15C318.709 312.151 318.622 315.081 319.608 318.402C320.594 321.723 322.291 324.117 325.584 323.13C326.098 322.962 326.586 322.723 327.034 322.42C327.681 323.97 328.745 325.311 330.109 326.292V328.714H341.451V326.292C343.369 324.9 344.678 322.822 345.106 320.491L346.875 310.889C346.923 310.611 346.911 310.326 346.84 310.053C346.769 309.78 346.641 309.526 346.464 309.306C346.287 309.087 346.065 308.907 345.813 308.78C345.562 308.653 345.286 308.581 345.004 308.568ZM325.148 321.013C322.987 321.665 321.871 320.084 321.218 317.909C320.565 315.733 320.638 313.804 322.799 313.166C323.598 312.903 324.468 312.965 325.221 313.34L326.497 320.273C326.111 320.62 325.649 320.874 325.148 321.013Z" fill="#263238"/>
<path opacity="0.7" d="M345.004 308.568H326.715C326.425 308.568 326.138 308.631 325.875 308.754C325.612 308.877 325.38 309.056 325.194 309.279C325.009 309.502 324.874 309.763 324.801 310.044C324.728 310.325 324.718 310.618 324.771 310.903V311.063C323.862 310.84 322.909 310.87 322.016 311.15C318.709 312.151 318.622 315.081 319.608 318.402C320.594 321.723 322.291 324.117 325.584 323.13C326.098 322.962 326.586 322.723 327.034 322.42C327.681 323.97 328.745 325.311 330.109 326.292V328.714H341.451V326.292C343.369 324.9 344.678 322.822 345.106 320.491L346.875 310.889C346.923 310.611 346.911 310.326 346.84 310.053C346.769 309.78 346.641 309.526 346.464 309.306C346.287 309.087 346.065 308.907 345.813 308.78C345.562 308.653 345.286 308.581 345.004 308.568ZM325.148 321.013C322.987 321.665 321.871 320.084 321.218 317.909C320.565 315.733 320.638 313.804 322.799 313.166C323.598 312.903 324.468 312.965 325.221 313.34L326.497 320.273C326.111 320.62 325.649 320.874 325.148 321.013Z" fill="white"/>
<path opacity="0.5" d="M325.149 321.013C322.988 321.666 321.871 320.085 321.218 317.909C320.565 315.734 320.638 313.805 322.799 313.166C323.598 312.903 324.468 312.966 325.221 313.341L326.497 320.273C326.111 320.621 325.649 320.874 325.149 321.013Z" fill="white"/>
<path d="M342.016 331.543H329.702C328.952 331.541 328.214 331.352 327.556 330.992L323.437 328.7C323.268 328.616 323.133 328.477 323.054 328.306C322.976 328.135 322.958 327.942 323.003 327.76C323.049 327.577 323.156 327.415 323.306 327.301C323.456 327.188 323.64 327.128 323.828 327.134H347.977C348.167 327.125 348.354 327.181 348.506 327.294C348.659 327.407 348.769 327.568 348.816 327.752C348.864 327.936 348.847 328.13 348.768 328.303C348.689 328.476 348.553 328.616 348.383 328.7L344.221 330.992C343.545 331.361 342.786 331.55 342.016 331.543Z" fill="#263238"/>
<path opacity="0.6" d="M342.016 331.543H329.702C328.952 331.541 328.214 331.352 327.556 330.992L323.437 328.7C323.268 328.616 323.133 328.477 323.054 328.306C322.976 328.135 322.958 327.942 323.003 327.76C323.049 327.577 323.156 327.415 323.306 327.301C323.456 327.188 323.64 327.128 323.828 327.134H347.977C348.167 327.125 348.354 327.181 348.506 327.294C348.659 327.407 348.769 327.568 348.816 327.752C348.864 327.936 348.847 328.13 348.768 328.303C348.689 328.476 348.553 328.616 348.383 328.7L344.221 330.992C343.545 331.361 342.786 331.55 342.016 331.543Z" fill="white"/>
<path d="M433.404 528.287H426.442L434.565 420.233H443.833L433.404 528.287Z" fill="#eb5454"/>
<path opacity="0.7" d="M433.404 528.287H426.442L434.565 420.233H443.833L433.404 528.287Z" fill="white"/>
<g opacity="0.4">
<path d="M490.478 528.287H483.516L491.638 420.233H500.906L490.478 528.287Z" fill="#eb5454"/>
</g>
<path d="M559.341 528.287H566.289L558.181 420.233H548.898L559.341 528.287Z" fill="#eb5454"/>
<g opacity="0.4">
<path d="M559.341 528.287H566.289L558.181 420.233H548.898L559.341 528.287Z" fill="white"/>
</g>
<path d="M553.903 420.233H439.729V430.328H553.903V420.233Z" fill="#eb5454"/>
<path opacity="0.5" d="M553.903 420.233H439.729V430.328H553.903V420.233Z" fill="white"/>
<path d="M502.269 528.287H509.216L501.109 420.233H491.826L502.269 528.287Z" fill="#eb5454"/>
<path opacity="0.7" d="M502.269 528.287H509.216L501.109 420.233H491.826L502.269 528.287Z" fill="white"/>
<path d="M560.835 294.137H541.908C537.051 294.145 532.295 295.525 528.189 298.12C524.082 300.714 520.794 304.417 518.701 308.8L465.429 420.234H555.498C558.467 420.234 561.333 419.139 563.546 417.159C565.759 415.179 567.164 412.452 567.492 409.501L578.095 313.326C578.363 310.903 578.115 308.452 577.369 306.132C576.623 303.812 575.395 301.676 573.765 299.864C572.135 298.052 570.141 296.605 567.912 295.618C565.684 294.631 563.272 294.126 560.835 294.137Z" fill="#263238"/>
<path opacity="0.4" d="M560.835 294.137H541.908C537.051 294.145 532.295 295.525 528.189 298.12C524.082 300.714 520.794 304.417 518.701 308.8L465.429 420.234H555.498C558.467 420.234 561.333 419.139 563.546 417.159C565.759 415.179 567.164 412.452 567.492 409.501L578.095 313.326C578.363 310.903 578.115 308.452 577.369 306.132C576.623 303.812 575.395 301.676 573.765 299.864C572.135 298.052 570.141 296.605 567.912 295.618C565.684 294.631 563.272 294.126 560.835 294.137Z" fill="white"/>
<path d="M549.29 294.137H530.435C525.579 294.148 520.824 295.53 516.719 298.125C512.613 300.719 509.324 304.419 507.229 308.801L453.971 420.234H542.256C545.709 420.233 549.04 418.959 551.612 416.655C554.184 414.35 555.816 411.178 556.194 407.746L566.608 313.326C566.876 310.899 566.627 308.442 565.878 306.118C565.128 303.794 563.895 301.655 562.259 299.842C560.622 298.029 558.621 296.584 556.386 295.6C554.15 294.617 551.732 294.118 549.29 294.137Z" fill="#263238"/>
<path opacity="0.3" d="M549.29 294.137H530.435C525.579 294.148 520.824 295.53 516.719 298.125C512.613 300.719 509.324 304.419 507.229 308.801L453.971 420.234H542.256C545.709 420.233 549.04 418.959 551.612 416.655C554.184 414.35 555.816 411.178 556.194 407.746L566.608 313.326C566.876 310.899 566.627 308.442 565.878 306.118C565.128 303.794 563.895 301.655 562.259 299.842C560.622 298.029 558.621 296.584 556.386 295.6C554.15 294.617 551.732 294.118 549.29 294.137Z" fill="white"/>
<path d="M511.015 420.233H437.045C435.423 420.233 433.817 419.914 432.318 419.292C430.82 418.671 429.458 417.761 428.312 416.613C427.166 415.465 426.257 414.103 425.638 412.604C425.018 411.105 424.7 409.498 424.702 407.876C424.702 404.603 426.003 401.463 428.317 399.148C430.632 396.834 433.771 395.533 437.045 395.533H511.015V420.233Z" fill="#263238"/>
<path opacity="0.3" d="M511.015 420.233H437.045C435.423 420.233 433.817 419.914 432.318 419.292C430.82 418.671 429.458 417.761 428.312 416.613C427.166 415.465 426.257 414.103 425.638 412.604C425.018 411.105 424.7 409.498 424.702 407.876C424.702 404.603 426.003 401.463 428.317 399.148C430.632 396.834 433.771 395.533 437.045 395.533H511.015V420.233Z" fill="white"/>
<path d="M556.253 420.233H508.39C505.255 420.233 502.248 418.988 500.032 416.771C497.815 414.554 496.569 411.548 496.569 408.413V407.354C496.569 404.219 497.815 401.212 500.032 398.995C502.248 396.779 505.255 395.533 508.39 395.533H556.253C557.875 395.531 559.481 395.849 560.981 396.469C562.48 397.088 563.842 397.997 564.99 399.143C566.138 400.29 567.048 401.651 567.669 403.149C568.29 404.648 568.61 406.254 568.61 407.876C568.612 409.499 568.294 411.107 567.673 412.607C567.053 414.107 566.143 415.47 564.995 416.618C563.847 417.766 562.484 418.676 560.984 419.297C559.484 419.917 557.876 420.235 556.253 420.233Z" fill="#263238"/>
<path opacity="0.4" d="M556.253 420.233H508.39C505.255 420.233 502.248 418.988 500.032 416.771C497.815 414.554 496.569 411.548 496.569 408.413V407.354C496.569 404.219 497.815 401.212 500.032 398.995C502.248 396.779 505.255 395.533 508.39 395.533H556.253C557.875 395.531 559.481 395.849 560.981 396.469C562.48 397.088 563.842 397.997 564.99 399.143C566.138 400.29 567.048 401.651 567.669 403.149C568.29 404.648 568.61 406.254 568.61 407.876C568.612 409.499 568.294 411.107 567.673 412.607C567.053 414.107 566.143 415.47 564.995 416.618C563.847 417.766 562.484 418.676 560.984 419.297C559.484 419.917 557.876 420.235 556.253 420.233Z" fill="white"/>
<path d="M486.214 228.971C486.214 228.971 479.846 248.943 486.214 242.242C486.214 242.242 481.572 264.462 490.159 249.741C490.159 249.741 486.083 269.553 492.769 269.727C499.456 269.901 518.775 269.002 518.775 269.002L523.866 260.14L525.867 254.904C525.867 254.904 535.73 256.354 533.119 246.767C530.649 238.893 527.699 231.177 524.286 223.663L517.745 215.671L490.231 220.791L486.214 228.971Z" fill="#263238"/>
<path opacity="0.6" d="M486.214 228.971C486.214 228.971 479.846 248.943 486.214 242.242C486.214 242.242 481.572 264.462 490.159 249.741C490.159 249.741 486.083 269.553 492.769 269.727C499.456 269.901 518.775 269.002 518.775 269.002L523.866 260.14L525.867 254.904C525.867 254.904 535.73 256.354 533.119 246.767C530.649 238.893 527.699 231.177 524.286 223.663L517.745 215.671L490.231 220.791L486.214 228.971Z" fill="#090E12"/>
<path d="M471.506 283.259C471.506 283.259 472.362 300.098 462.992 308.104C454.479 315.356 441.062 321.056 441.062 321.056L429.662 317.691C429.127 317.528 428.556 317.524 428.018 317.678C427.48 317.833 426.999 318.139 426.631 318.561L421.12 324.841C420.855 325.138 420.654 325.485 420.528 325.862C420.403 326.239 420.357 326.638 420.392 327.034C420.428 327.429 420.544 327.814 420.734 328.162C420.924 328.511 421.184 328.818 421.497 329.062C421.8 329.304 422.149 329.482 422.523 329.587C422.896 329.692 423.287 329.72 423.672 329.671L429.706 328.946C432.098 329.42 434.522 329.716 436.958 329.831C438.839 329.458 440.691 328.949 442.498 328.308C442.498 328.308 463.224 326.524 472.492 317.72C481.76 308.916 484.922 290.656 484.922 290.656L471.506 283.259Z" fill="#EBB376"/>
<path d="M482.979 252.8C475.567 251.684 470.375 270.046 469.084 287.392L486.489 293.629C486.489 293.629 496.801 254.904 482.979 252.8Z" fill="#eb5454"/>
<path opacity="0.1" d="M486.446 293.702C486.446 293.702 491.623 274.295 489.738 262.214L478.889 258.182C478.889 258.182 470.984 275.195 475.06 314.95C480.615 307.799 483.429 297.545 484.458 292.976L486.446 293.702Z" fill="#090E12"/>
<path d="M410.357 481.353L411.634 520.673H420.438L424.557 480.643L410.357 481.353Z" fill="#EBB376"/>
<path d="M411.504 516.641H421.54C421.751 516.64 421.955 516.711 422.119 516.844C422.283 516.976 422.396 517.16 422.439 517.366L424.514 526.808C424.561 527.006 424.568 527.212 424.535 527.413C424.502 527.614 424.43 527.807 424.322 527.979C424.214 528.152 424.073 528.302 423.906 528.419C423.74 528.537 423.552 528.62 423.353 528.665C423.242 528.679 423.13 528.679 423.02 528.665C418.843 528.578 415.13 528.346 409.966 528.331C403.831 528.331 405.383 529.056 398.16 529.143C393.809 529.143 393.026 524.241 394.868 524.009C403.323 522.965 405.76 520.398 409.023 517.381C409.738 516.852 410.616 516.59 411.504 516.641Z" fill="#263238"/>
<path opacity="0.1" d="M421.337 512.043L422.323 502.412H411.039L411.358 512.043H421.337Z" fill="#263238"/>
<path d="M513.436 333.544C513.436 333.544 540.863 395.91 514.524 395.91H438.466C438.466 395.91 435.173 412.488 423.324 503.587H410.604C410.604 503.587 404.541 396.897 411.576 380.971C417.087 368.513 456.32 359.593 473.043 356.315C475.235 355.889 477.237 354.787 478.77 353.163C480.302 351.54 481.287 349.477 481.586 347.264L485.299 331.948L513.436 333.544Z" fill="#263238"/>
<path d="M408.183 501.354L409.198 508.272H424.311L425.703 501.354H408.183Z" fill="#263238"/>
<path opacity="0.3" d="M408.183 501.354L409.198 508.272H424.311L425.703 501.354H408.183Z" fill="white"/>
<path opacity="0.4" d="M460.367 385.076L508.462 361.362V348.308L501.21 333.892C501.21 333.892 500.383 348.584 490.231 353.805C480.078 359.027 441.251 361.391 432.085 373.69C424.746 383.538 430.852 415.752 433.535 428.065C437.248 402.118 438.495 395.852 438.495 395.852H449.62L450.563 392.125L460.367 385.076Z" fill="#090E12"/>
<path d="M445.603 481.367L449.112 520.165L457.539 520.15L461.499 480.656L445.603 481.367Z" fill="#EBB376"/>
<path d="M448.271 516.641H458.308C458.519 516.642 458.725 516.714 458.89 516.845C459.056 516.977 459.173 517.16 459.222 517.366L461.296 526.808C461.341 527.007 461.346 527.213 461.311 527.414C461.276 527.616 461.202 527.808 461.093 527.98C460.984 528.153 460.842 528.302 460.675 528.419C460.508 528.537 460.32 528.62 460.121 528.665C460.01 528.68 459.898 528.68 459.787 528.665C455.61 528.578 451.897 528.346 446.734 528.331C440.599 528.331 442.15 529.056 434.928 529.143C430.576 529.143 429.793 524.241 431.635 524.009C440.091 522.965 442.528 520.398 445.791 517.381C446.506 516.852 447.383 516.59 448.271 516.641Z" fill="#263238"/>
<path opacity="0.1" d="M458.351 512.043L459.323 502.412H447.502L448.372 512.043H458.351Z" fill="#263238"/>
<path d="M533.176 334.617C533.176 334.617 535.323 340.854 538.108 349.339C544.083 367.454 547.332 395.853 529.405 395.853H465.284C465.284 395.853 472.289 402.612 459.917 503.53H447.197C447.197 503.53 430.286 393.576 437.306 377.665C442.73 365.409 475.567 359.811 490.375 357.882C492.422 357.614 494.316 356.653 495.741 355.16C497.166 353.666 498.036 351.73 498.208 349.672L499.658 331.891L533.176 334.617Z" fill="#263238"/>
<path d="M444.906 501.354L446.371 508.272H461.035L462.441 501.354H444.906Z" fill="#263238"/>
<path opacity="0.3" d="M444.906 501.354L446.371 508.272H461.035L462.441 501.354H444.906Z" fill="white"/>
<path d="M483.167 338.663C483.205 329.361 482.721 320.064 481.716 310.816C479.845 292.962 476.205 270.829 478.496 258.138C478.793 256.487 479.668 254.996 480.966 253.932C482.263 252.869 483.897 252.303 485.574 252.336H534.003C534.739 252.346 535.465 252.512 536.132 252.823C536.799 253.135 537.392 253.585 537.872 254.143C538.353 254.701 538.708 255.355 538.916 256.061C539.124 256.768 539.18 257.51 539.079 258.239C536.686 271.83 530.609 307.77 535.337 339.737C535.395 339.708 498.251 342.667 483.167 338.663Z" fill="#eb5454"/>
<path opacity="0.1" d="M534.641 316.995C534.496 312.542 534.496 308.133 534.641 303.854L526.838 303.144L512.624 317.241L500.238 320.693L493.929 326.582C493.929 326.582 522.82 325.799 530.972 320.026C532.255 319.09 533.48 318.078 534.641 316.995Z" fill="#090E12"/>
<path d="M512.393 227.26C511.639 234.265 513.553 249.175 518.775 253.367C518.775 253.367 516.846 262.49 501.181 263.926C491.638 259.719 495.191 251.96 495.191 251.96C502.704 249.422 503.459 244.853 501.733 239.617L512.393 227.26Z" fill="#EBB376"/>
<path d="M497.294 250.741C497.294 250.741 493.088 261.547 503.792 261.59C516.091 261.59 517.179 250.741 517.179 250.741L520.486 252.308C520.486 252.308 519.935 273.933 501.805 264.853C501.805 264.853 494.814 269.727 493.871 261.59C492.929 253.453 494.538 252.308 494.538 252.308L497.294 250.741Z" fill="#eb5454"/>
<path opacity="0.3" d="M497.294 250.741C497.294 250.741 493.088 261.547 503.792 261.59C516.091 261.59 517.179 250.741 517.179 250.741L520.486 252.308C520.486 252.308 519.935 273.933 501.805 264.853C501.805 264.853 494.814 269.727 493.871 261.59C492.929 253.453 494.538 252.308 494.538 252.308L497.294 250.741Z" fill="white"/>
<path opacity="0.1" d="M501.398 247.768C504.183 247.768 509.709 246.55 511.798 237.615C514.698 225.418 501.732 239.646 501.732 239.646C502.733 242.648 502.892 245.448 501.398 247.768Z" fill="#090E12"/>
<path d="M516.917 214.09C517.976 225.62 518.672 230.479 513.799 237.223C506.547 247.376 492.043 246.158 487.619 235.178C483.587 225.287 482.543 208.114 493.015 201.82C494.788 200.745 496.755 200.031 498.804 199.718C500.853 199.405 502.943 199.499 504.956 199.995C506.969 200.49 508.864 201.378 510.533 202.607C512.202 203.836 513.613 205.382 514.684 207.157C515.966 209.259 516.731 211.635 516.917 214.09Z" fill="#EBB376"/>
<path d="M492.652 224.997C492.204 227.26 491.447 229.451 490.404 231.509C490.938 231.756 491.52 231.884 492.109 231.884C492.697 231.884 493.279 231.756 493.813 231.509L492.652 224.997Z" fill="#D58745"/>
<path d="M499.818 217.731C499.892 217.7 499.957 217.65 500.006 217.586C500.044 217.539 500.072 217.486 500.089 217.428C500.106 217.371 500.111 217.311 500.104 217.251C500.097 217.192 500.079 217.134 500.05 217.082C500.02 217.03 499.981 216.984 499.934 216.947C499.265 216.406 498.476 216.033 497.632 215.861C496.789 215.69 495.917 215.724 495.09 215.961C494.991 216.012 494.914 216.096 494.872 216.199C494.83 216.301 494.827 216.416 494.862 216.521C494.897 216.626 494.968 216.715 495.063 216.772C495.158 216.829 495.27 216.85 495.38 216.831C496.067 216.645 496.789 216.625 497.485 216.774C498.181 216.923 498.832 217.236 499.383 217.687C499.447 217.727 499.52 217.752 499.595 217.76C499.671 217.767 499.747 217.757 499.818 217.731Z" fill="#2E353A"/>
<path d="M483.82 220.167C483.738 220.153 483.659 220.124 483.588 220.08C483.49 220.012 483.423 219.909 483.401 219.792C483.379 219.675 483.405 219.554 483.472 219.456C483.945 218.726 484.588 218.122 485.346 217.695C486.104 217.268 486.954 217.031 487.823 217.005C487.944 217.009 488.058 217.059 488.142 217.146C488.226 217.232 488.273 217.348 488.273 217.469C488.273 217.588 488.225 217.703 488.141 217.787C488.057 217.871 487.942 217.919 487.823 217.919C487.113 217.961 486.423 218.169 485.808 218.527C485.193 218.884 484.671 219.382 484.284 219.978C484.23 220.047 484.158 220.101 484.077 220.134C483.996 220.167 483.907 220.178 483.82 220.167Z" fill="#2E353A"/>
<path d="M498.933 222.299C499.107 223.212 498.744 224.054 498.135 224.17C497.526 224.286 496.917 223.619 496.757 222.719C496.598 221.82 496.946 220.964 497.541 220.863C498.135 220.761 498.744 221.356 498.933 222.299Z" fill="#2E353A"/>
<path d="M488.447 224.17C488.606 225.098 488.258 225.925 487.649 226.041C487.04 226.157 486.431 225.49 486.199 224.591C485.967 223.691 486.387 222.836 486.982 222.72C487.577 222.604 488.287 223.242 488.447 224.17Z" fill="#2E353A"/>
<path d="M487.33 222.632L484.995 222.4C484.995 222.4 486.445 223.981 487.33 222.632Z" fill="#2E353A"/>
<path d="M497.787 220.82L495.452 220.573C495.452 220.573 496.903 222.111 497.787 220.82Z" fill="#2E353A"/>
<path d="M508.506 208.984C508.506 208.984 483.849 220.167 491.42 208.984C491.42 208.984 477.221 218.557 481.195 211.059C485.169 203.56 488.447 202.82 488.447 202.82C488.447 202.82 484.705 204.097 485.024 201.21C485.343 198.324 493.378 193.958 500.123 196.323C500.123 196.323 498.02 193.074 500.268 191.797C502.516 190.521 507.026 197.222 507.026 197.222C507.026 197.222 517.643 194.872 518.76 197.41C519.877 199.949 516.41 199.571 516.41 199.571C516.41 199.571 528.188 203.371 527.288 206.272C526.389 209.173 524.315 207.346 524.315 207.346C524.315 207.346 534.004 218.76 532.002 222.734C530.001 226.708 526.389 222.038 526.389 222.038C526.389 222.038 536.179 236.904 532.002 240.211C527.825 243.518 524.214 234.41 524.214 234.41C524.214 234.41 529.856 248.522 525.852 249.595C521.849 250.669 520.472 240.153 520.472 240.153C520.472 240.153 521.922 248.711 518.76 248.696C515.598 248.682 514.249 221.907 514.249 221.907C514.249 221.907 511.233 232.481 508.506 208.984Z" fill="#263238"/>
<path d="M521.008 222.705C520.715 224.919 519.557 226.927 517.788 228.289C515.395 230.059 513.146 228.188 512.929 225.389C512.726 222.879 513.712 218.92 516.54 218.253C517.532 218.055 518.562 218.257 519.406 218.813C520.251 219.37 520.842 220.237 521.051 221.226C521.136 221.717 521.122 222.22 521.008 222.705Z" fill="#EBB376"/>
<path d="M497.005 236.237C496.672 236.337 496.332 236.414 495.989 236.469C495.963 236.473 495.935 236.472 495.909 236.465C495.883 236.459 495.858 236.447 495.837 236.431C495.815 236.415 495.797 236.394 495.783 236.371C495.77 236.348 495.761 236.322 495.757 236.295C495.753 236.268 495.754 236.241 495.761 236.215C495.768 236.189 495.779 236.164 495.796 236.142C495.812 236.121 495.832 236.103 495.855 236.089C495.879 236.075 495.904 236.067 495.931 236.063C496.806 235.941 497.64 235.615 498.366 235.111C499.092 234.607 499.689 233.94 500.108 233.162C500.119 233.137 500.135 233.114 500.155 233.096C500.175 233.077 500.199 233.062 500.224 233.053C500.25 233.043 500.278 233.039 500.305 233.04C500.332 233.042 500.359 233.049 500.384 233.061C500.409 233.072 500.432 233.088 500.451 233.108C500.47 233.127 500.484 233.151 500.494 233.177C500.503 233.203 500.507 233.23 500.506 233.257C500.505 233.285 500.498 233.312 500.486 233.336C500.13 234.029 499.638 234.642 499.04 235.141C498.442 235.639 497.75 236.012 497.005 236.237Z" fill="#263238"/>
<path opacity="0.1" d="M528.942 265.332C528.942 265.332 525.04 284.999 522.14 290.366L530.842 291.454L534.569 267.072L528.942 265.332Z" fill="#090E12"/>
<path d="M528.332 278.632C528.332 278.632 530.508 298.589 520.471 304.739C510.434 310.888 488.78 319.518 488.78 319.518L475.726 316.734C475.389 316.662 475.037 316.693 474.717 316.822C474.397 316.952 474.122 317.173 473.928 317.459L468.228 325.958C468.024 326.261 467.921 326.62 467.934 326.985C467.947 327.35 468.075 327.701 468.3 327.989C468.481 328.218 468.717 328.397 468.986 328.511C469.254 328.625 469.547 328.67 469.838 328.641L477.829 327.814C479.626 328.263 481.454 328.573 483.297 328.743C485.636 328.383 487.944 327.845 490.201 327.133C490.201 327.133 520.659 324.232 530.464 314.921C540.269 305.609 542.444 286.449 542.444 286.449L528.332 278.632Z" fill="#EBB376"/>
<path d="M535.759 252.728C526.404 251.611 527.796 272.657 525.867 287.392L543.272 291.454C543.272 291.454 549.697 254.396 535.759 252.728Z" fill="#eb5454"/>
<path d="M423.875 331.412C423.372 331.369 422.903 331.139 422.562 330.767C422.22 330.395 422.03 329.908 422.03 329.403C422.03 328.898 422.22 328.411 422.562 328.039C422.903 327.667 423.372 327.437 423.875 327.394H478.454C478.732 327.37 479.012 327.405 479.276 327.495C479.54 327.585 479.783 327.729 479.988 327.918C480.194 328.107 480.358 328.336 480.47 328.592C480.582 328.847 480.64 329.124 480.64 329.403C480.64 329.682 480.582 329.958 480.47 330.214C480.358 330.469 480.194 330.699 479.988 330.887C479.783 331.076 479.54 331.22 479.276 331.311C479.012 331.401 478.732 331.435 478.454 331.412H423.875Z" fill="#263238"/>
<path d="M428.503 327.96L421.251 276.254C421.102 275.31 420.628 274.448 419.91 273.817C419.192 273.187 418.275 272.827 417.32 272.802H410.358V331.412H425.544C425.981 331.429 426.416 331.347 426.817 331.171C427.217 330.996 427.573 330.733 427.858 330.401C428.142 330.069 428.348 329.677 428.46 329.254C428.571 328.832 428.586 328.389 428.503 327.96Z" fill="#263238"/>
<g opacity="0.1">
<path d="M423.875 331.412C423.372 331.369 422.903 331.139 422.562 330.767C422.22 330.395 422.03 329.908 422.03 329.403C422.03 328.898 422.22 328.411 422.562 328.039C422.903 327.667 423.372 327.437 423.875 327.394H478.454C478.732 327.37 479.012 327.405 479.276 327.495C479.54 327.585 479.783 327.729 479.988 327.918C480.194 328.107 480.358 328.336 480.47 328.592C480.582 328.847 480.64 329.124 480.64 329.403C480.64 329.682 480.582 329.958 480.47 330.214C480.358 330.469 480.194 330.699 479.988 330.887C479.783 331.076 479.54 331.22 479.276 331.311C479.012 331.401 478.732 331.435 478.454 331.412H423.875Z" fill="white"/>
<path d="M428.502 327.96L421.25 276.254C421.101 275.31 420.627 274.448 419.909 273.817C419.191 273.187 418.275 272.827 417.319 272.802H410.357V331.412H425.543C425.98 331.429 426.415 331.347 426.816 331.171C427.216 330.996 427.572 330.733 427.857 330.401C428.141 330.069 428.347 329.677 428.459 329.254C428.57 328.832 428.585 328.389 428.502 327.96Z" fill="white"/>
</g>
<path d="M422.541 331.412H360.827C359.873 331.389 358.957 331.033 358.239 330.405C357.521 329.777 357.046 328.917 356.897 327.974L349.645 276.268C349.563 275.844 349.576 275.406 349.685 274.988C349.793 274.57 349.994 274.181 350.272 273.85C350.55 273.519 350.898 273.255 351.292 273.076C351.685 272.897 352.113 272.808 352.546 272.816H414.259C415.214 272.844 416.129 273.205 416.846 273.835C417.563 274.465 418.039 275.325 418.19 276.268L425.442 327.974C425.522 328.397 425.506 328.833 425.397 329.25C425.287 329.666 425.086 330.053 424.808 330.382C424.531 330.711 424.183 330.974 423.791 331.152C423.399 331.331 422.972 331.419 422.541 331.412Z" fill="#263238"/>
<path opacity="0.7" d="M422.541 331.412H360.827C359.873 331.389 358.957 331.033 358.239 330.405C357.521 329.777 357.046 328.917 356.897 327.974L349.645 276.268C349.563 275.844 349.576 275.406 349.685 274.988C349.793 274.57 349.994 274.181 350.272 273.85C350.55 273.519 350.898 273.255 351.292 273.076C351.685 272.897 352.113 272.808 352.546 272.816H414.259C415.214 272.844 416.129 273.205 416.846 273.835C417.563 274.465 418.039 275.325 418.19 276.268L425.442 327.974C425.522 328.397 425.506 328.833 425.397 329.25C425.287 329.666 425.086 330.053 424.808 330.382C424.531 330.711 424.183 330.974 423.791 331.152C423.399 331.331 422.972 331.419 422.541 331.412Z" fill="white"/>
<path opacity="0.7" d="M390.575 300.693C390.646 301.083 390.629 301.485 390.526 301.869C390.422 302.252 390.234 302.608 389.975 302.909C389.717 303.211 389.394 303.451 389.031 303.612C388.668 303.773 388.274 303.851 387.877 303.84C387.005 303.815 386.17 303.486 385.513 302.912C384.857 302.338 384.421 301.553 384.28 300.693C384.208 300.301 384.225 299.898 384.33 299.513C384.434 299.129 384.623 298.772 384.883 298.471C385.144 298.169 385.468 297.929 385.833 297.769C386.198 297.609 386.594 297.532 386.992 297.545C387.863 297.569 388.698 297.896 389.352 298.471C390.007 299.046 390.439 299.832 390.575 300.693Z" fill="white"/>
<path d="M269.802 529.927H262.767L259.692 343.9H272.876L269.802 529.927Z" fill="#eb5454"/>
<path opacity="0.7" d="M269.802 529.927H262.767L259.692 343.9H272.876L269.802 529.927Z" fill="white"/>
<path d="M347.384 529.927H340.349L337.274 343.9H350.458L347.384 529.927Z" fill="#eb5454"/>
<path opacity="0.4" d="M347.384 529.927H340.349L337.274 343.9H350.458L347.384 529.927Z" fill="white"/>
<path d="M398.915 340.781H266.277V355.329H398.915V340.781Z" fill="#eb5454"/>
<path opacity="0.3" d="M398.915 340.781H266.277V355.329H398.915V340.781Z" fill="white"/>
<path d="M476.714 340.781H398.93V355.329H476.714V340.781Z" fill="#eb5454"/>
<path opacity="0.5" d="M476.714 340.781H398.93V355.329H476.714V340.781Z" fill="white"/>
<path d="M480.021 529.927H473.001L469.912 343.9H483.111L480.021 529.927Z" fill="#eb5454"/>
<path opacity="0.4" d="M480.021 529.927H473.001L469.912 343.9H483.111L480.021 529.927Z" fill="white"/>
<path d="M487.303 331.427H383.643C381.521 331.427 379.8 333.148 379.8 335.27V340.057C379.8 342.179 381.521 343.9 383.643 343.9H487.303C489.425 343.9 491.146 342.179 491.146 340.057V335.27C491.146 333.148 489.425 331.427 487.303 331.427Z" fill="#263238"/>
<path opacity="0.4" d="M487.303 331.427H383.643C381.521 331.427 379.8 333.148 379.8 335.27V340.057C379.8 342.179 381.521 343.9 383.643 343.9H487.303C489.425 343.9 491.146 342.179 491.146 340.057V335.27C491.146 333.148 489.425 331.427 487.303 331.427Z" fill="white"/>
<path d="M393.288 331.427H252.6C250.478 331.427 248.757 333.148 248.757 335.27V340.057C248.757 342.179 250.478 343.9 252.6 343.9H393.288C395.411 343.9 397.132 342.179 397.132 340.057V335.27C397.132 333.148 395.411 331.427 393.288 331.427Z" fill="#263238"/>
<path opacity="0.3" d="M393.288 331.427H252.6C250.478 331.427 248.757 333.148 248.757 335.27V340.057C248.757 342.179 250.478 343.9 252.6 343.9H393.288C395.411 343.9 397.132 342.179 397.132 340.057V335.27C397.132 333.148 395.411 331.427 393.288 331.427Z" fill="white"/>
<path d="M402.44 529.927H395.406L392.331 343.9H405.515L402.44 529.927Z" fill="#eb5454"/>
<path opacity="0.7" d="M402.44 529.927H395.406L392.331 343.9H405.515L402.44 529.927Z" fill="white"/>
</svg>
