<svg width="46" height="38" viewBox="0 0 46 38" fill="none" xmlns="http://www.w3.org/2000/svg">
<path d="M5.225 0C3.83925 0 2.51025 0.550489 1.53037 1.53037C0.55049 2.51024 0 3.83924 0 5.225V32.775C0 34.1608 0.55049 35.4898 1.53037 36.4696C2.51025 37.4495 3.83925 38 5.225 38H40.3674C41.7532 38 43.0822 37.4495 44.0621 36.4696C45.0419 35.4898 45.5924 34.1608 45.5924 32.775V5.225C45.5924 3.83924 45.0419 2.51024 44.0621 1.53037C43.0822 0.550489 41.7532 0 40.3674 0H5.225ZM24.6924 14.725C24.6924 14.3471 24.8425 13.9846 25.1098 13.7174C25.377 13.4501 25.7395 13.3 26.1174 13.3H36.5674C36.9454 13.3 37.3078 13.4501 37.575 13.7174C37.8423 13.9846 37.9924 14.3471 37.9924 14.725C37.9924 15.1029 37.8423 15.4654 37.575 15.7326C37.3078 15.9999 36.9454 16.15 36.5674 16.15H26.1174C25.7395 16.15 25.377 15.9999 25.1098 15.7326C24.8425 15.4654 24.6924 15.1029 24.6924 14.725ZM26.1174 20.9H36.5674C36.9454 20.9 37.3078 21.0501 37.575 21.3174C37.8423 21.5846 37.9924 21.9471 37.9924 22.325C37.9924 22.7029 37.8423 23.0654 37.575 23.3326C37.3078 23.5999 36.9454 23.75 36.5674 23.75H26.1174C25.7395 23.75 25.377 23.5999 25.1098 23.3326C24.8425 23.0654 24.6924 22.7029 24.6924 22.325C24.6924 21.9471 24.8425 21.5846 25.1098 21.3174C25.377 21.0501 25.7395 20.9 26.1174 20.9ZM17.5674 14.725C17.5674 15.6068 17.2171 16.4526 16.5935 17.0761C15.97 17.6997 15.1243 18.05 14.2424 18.05C13.3606 18.05 12.5148 17.6997 11.8913 17.0761C11.2677 16.4526 10.9174 15.6068 10.9174 14.725C10.9174 13.8432 11.2677 12.9974 11.8913 12.3739C12.5148 11.7503 13.3606 11.4 14.2424 11.4C15.1243 11.4 15.97 11.7503 16.5935 12.3739C17.2171 12.9974 17.5674 13.8432 17.5674 14.725ZM9.4924 19.95H18.9924C19.4963 19.95 19.9796 20.1502 20.3359 20.5065C20.6922 20.8628 20.8924 21.3461 20.8924 21.85V22.8C20.8924 22.8 19.9424 27.55 14.2424 27.55C8.5424 27.55 7.5924 22.8 7.5924 22.8V21.85C7.5924 21.3461 7.79258 20.8628 8.1489 20.5065C8.50522 20.1502 8.98849 19.95 9.4924 19.95Z" fill="#EB5454"/>
</svg>
