<svg width="83" height="70" viewBox="0 0 83 70" fill="none" xmlns="http://www.w3.org/2000/svg">
<rect x="0.5" y="0.5" width="82" height="69" rx="5.5" fill="#F7F9FA" stroke="#EFEFEF"/>
<path d="M40.1677 35.6673L38.9036 34.5314C37.1529 32.9541 35.3419 31.3228 33.5255 29.772C33.2576 29.5431 32.4427 28.8478 31.6654 29.3111C30.8521 29.7947 30.806 31.1541 30.7919 31.6009C30.7661 32.3822 30.7724 33.1455 30.7786 33.9556C30.7786 34.0348 30.7786 34.1145 30.7786 34.1947L29.5005 34.1955C28.0161 34.1994 26.6185 34.2033 25.2208 34.1853H25.1505C23.2458 34.1853 22.1911 35.1845 22.0154 37.1541C21.9435 37.9619 22.1247 38.6869 22.5388 39.2502C23.0943 40.0048 24.0318 40.4119 25.2443 40.4267C26.638 40.4439 28.0263 40.44 29.4958 40.4361H30.7841C30.7841 40.5783 30.7841 40.7176 30.7841 40.8541C30.7794 41.7392 30.7747 42.5033 30.7958 43.2884C30.8318 44.6166 31.2794 45.158 31.6482 45.3798C31.8188 45.4828 32.0145 45.5368 32.2138 45.5361C32.5263 45.5361 32.9208 45.4041 33.3857 45.0064C35.2091 43.4439 37.0326 41.8158 38.7958 40.2408C39.2531 39.8319 39.7107 39.4231 40.1685 39.0142C40.8419 38.408 40.9849 37.7713 40.9849 37.3439C40.9849 36.9166 40.8443 36.2752 40.1677 35.6673Z" fill="#EB5454"/>
<path d="M61.9185 18.6914C61.5467 17.1984 60.4474 16.2953 58.9498 16.2859C57.5318 16.2766 56.1107 16.3453 54.6959 16.2789C53.4787 16.2219 52.2662 16.0445 51.056 15.8812C49.1748 15.6344 47.2959 15.3594 45.417 15.0922C45.3174 15.0697 45.2199 15.0388 45.1256 15H44.3443C43.6881 15.2211 43.1099 15.5469 42.7474 16.1953C42.6998 16.2812 42.499 16.3094 42.3685 16.3102C40.8717 16.3211 39.3748 16.3102 37.8779 16.3305C37.4256 16.3359 36.9607 16.3539 36.5248 16.4633C35.217 16.7906 34.3092 17.9734 34.2935 19.3617C34.2732 21.1875 34.2842 23.0141 34.2881 24.8406C34.2881 24.9469 34.3201 25.0992 34.3912 25.1531C35.1724 25.725 35.9693 26.2813 36.8045 26.8719C36.8131 26.7156 36.8256 26.5891 36.8256 26.4648C36.8256 24.8531 36.8256 23.2422 36.8256 21.6305C36.8256 19.9055 37.9685 18.7234 39.6381 18.7086C40.4451 18.7008 41.2529 18.7211 42.0599 18.6953C42.4006 18.6844 42.4685 18.818 42.4677 19.1375C42.4568 25.1661 42.4519 31.1953 42.4529 37.225C42.4529 42.0688 42.4435 46.9203 42.4529 51.7672C42.4529 52.1961 42.3357 52.3141 41.9318 52.2969C40.9842 52.2586 40.0279 52.3297 39.0865 52.2367C37.817 52.1094 36.8599 50.9375 36.8381 49.6148C36.8279 49 36.8381 48.3859 36.8381 47.6727C36.4474 47.9555 36.1302 48.1937 35.806 48.425C35.3459 48.7531 34.8818 49.0742 34.4248 49.4055C34.3891 49.4297 34.3586 49.4607 34.335 49.4968C34.3114 49.5329 34.2952 49.5733 34.2873 49.6156C34.2873 50.3125 34.2365 51.0219 34.3295 51.7055C34.5381 53.2406 35.7842 54.3172 37.2849 54.3219C39.1076 54.3289 40.9295 54.3102 42.7537 54.3219C42.9802 54.3324 43.1989 54.4075 43.3842 54.5383C43.8927 54.8945 44.4388 55.057 45.0459 54.9797C46.7365 54.7641 48.4217 54.4734 50.1185 54.343C51.6342 54.2258 53.1654 54.2781 54.6842 54.2648C56.0506 54.2539 57.4185 54.2555 58.7842 54.2531C60.4248 54.2531 61.506 53.4016 61.942 51.7656C61.9578 51.7301 61.9786 51.6969 62.0037 51.6672V18.8688C61.9696 18.8126 61.9411 18.7532 61.9185 18.6914Z" fill="#EB5454"/>
</svg>
