<svg width="50" height="50" viewBox="0 0 50 50" fill="none" xmlns="http://www.w3.org/2000/svg">
<path d="M25 5C13.949 5 5 13.949 5 25C5 36.051 13.949 45 25 45C36.051 45 45 36.051 45 25C45 13.949 36.051 5 25 5ZM33.301 30.699C34.0002 31.449 34.0002 32.5994 33.301 33.2986C32.551 33.9978 31.4006 33.9978 30.7014 33.2986L25.0004 27.5996L19.3014 33.3006C18.5514 33.9998 17.401 33.9998 16.7018 33.3006C16.0026 32.5506 16.0026 31.4002 16.7018 30.701L22.4008 25L16.6998 19.301C16.0006 18.551 16.0006 17.4006 16.6998 16.7014C17.4498 16.0022 18.6002 16.0022 19.2994 16.7014L25.0004 22.4004L30.6994 16.7014C31.4494 16.0022 32.5998 16.0022 33.299 16.7014C33.9982 17.4514 33.9982 18.6018 33.299 19.301L27.6 25L33.301 30.699Z" fill="#E90101"/>
</svg>
