<svg width="83" height="70" viewBox="0 0 83 70" fill="none" xmlns="http://www.w3.org/2000/svg">
<rect x="0.5" y="0.5" width="82" height="69" rx="5.5" fill="#F7F9FA" stroke="#EFEFEF"/>
<path d="M52.8862 41.431L51.9534 40.8927C51.7358 40.7674 51.6624 40.4903 51.7877 40.2733C51.9117 40.0557 52.1913 39.9823 52.4064 40.1069L53.3469 40.6497C54.1689 39.0995 54.6521 37.3483 54.7218 35.4916H53.6426C53.3921 35.4916 53.1896 35.2885 53.1896 35.038C53.1896 34.7875 53.3921 34.5844 53.6426 34.5844H54.7218C54.652 32.7278 54.1689 30.9767 53.3469 29.4266L52.4064 29.9697C52.3355 30.0108 52.2571 30.0304 52.1799 30.0304C52.023 30.0304 51.8712 29.9488 51.7877 29.8033C51.6624 29.5869 51.7358 29.3092 51.9534 29.1839L52.8861 28.6453C51.9252 27.1229 50.6356 25.8334 49.1131 24.8726L48.5737 25.8061C48.4902 25.951 48.3371 26.0326 48.1815 26.0326C48.1043 26.0326 48.0258 26.013 47.955 25.9719C47.7373 25.8466 47.6639 25.5689 47.7892 25.3519L48.3322 24.4121C46.7818 23.59 45.0303 23.1068 43.1733 23.0371V24.1156C43.1733 24.3662 42.9708 24.5693 42.7203 24.5693C42.4697 24.5693 42.2673 24.3662 42.2673 24.1156V23.0371C40.4104 23.1068 38.6591 23.5899 37.1088 24.4119L37.6514 25.3525C37.7766 25.5695 37.7032 25.8466 37.4856 25.9719C37.4147 26.013 37.3363 26.0326 37.2591 26.0326C37.1022 26.0326 36.9504 25.951 36.8668 25.8055L36.3284 24.872C34.8055 25.8329 33.5155 27.1226 32.5544 28.6453L33.4871 29.1839C33.7048 29.3092 33.7782 29.5869 33.6529 29.8033C33.5694 29.9488 33.4175 30.0304 33.2606 30.0304C33.1835 30.0304 33.105 30.0108 33.0342 29.9697L32.0937 29.4266C31.2717 30.9767 30.7886 32.7278 30.7188 34.5844H31.7979C32.0485 34.5844 32.2509 34.7875 32.2509 35.038C32.2509 35.2885 32.0485 35.4916 31.7979 35.4916H30.7188C30.7885 37.3483 31.2716 39.0995 32.0936 40.6497L33.0342 40.1069C33.2493 39.9823 33.5289 40.0557 33.6529 40.2733C33.7782 40.4903 33.7048 40.7674 33.4871 40.8927L32.5544 41.431C33.5147 42.9526 34.8174 44.2282 36.3364 45.1904L36.8668 44.2711C36.9908 44.0541 37.2705 43.9789 37.4856 44.1048C37.7032 44.23 37.7766 44.5071 37.6514 44.7241L37.1162 45.6515C38.6643 46.4754 40.4105 46.9627 42.2673 47.0328V45.961C42.2673 45.7105 42.4697 45.5074 42.7203 45.5074C42.9708 45.5074 43.1733 45.7105 43.1733 45.961V47.0328C45.0302 46.9627 46.7765 46.4754 48.3248 45.6513L47.7892 44.7248C47.6639 44.5078 47.7373 44.2307 47.955 44.1048C48.1675 43.9814 48.4484 44.0522 48.5737 44.2705L49.1051 45.1898C50.6237 44.2276 51.9261 42.9523 52.8862 41.431ZM46.5909 38.8827C46.5024 38.9795 46.3796 39.0289 46.2582 39.0289C46.1481 39.0289 46.038 38.989 45.9507 38.9087L43.0675 36.2462C42.9756 36.2644 42.8906 36.3016 42.7934 36.3016C41.991 36.3016 41.3405 35.6511 41.3405 34.8487C41.3405 34.241 41.7149 33.7234 42.2445 33.5066V28.3134C42.2445 28.0629 42.447 27.8598 42.6975 27.8598C42.948 27.8598 43.1505 28.0629 43.1505 28.3134V33.4679C43.7754 33.6305 44.2463 34.173 44.2463 34.8487C44.2463 35.2046 44.1034 35.5193 43.8909 35.7719L46.5656 38.2418C46.7504 38.412 46.7618 38.6986 46.5909 38.8827Z" fill="#eb5454"/>
<path d="M30.1967 31.877H25.4957C24.6731 31.877 24 32.55 24 33.3727V38.4161C24 39.2415 24.6691 39.9106 25.4944 39.9106H30.7498C30.135 38.4053 29.7896 36.7622 29.7896 35.0384C29.7896 33.9461 29.9405 32.8908 30.1967 31.877Z" fill="#eb5454"/>
<path d="M59.3166 31.877H55.2435C55.4997 32.8908 55.6507 33.9461 55.6507 35.0384C55.6507 36.7622 55.3052 38.4053 54.6904 39.9106H59.3166C60.142 39.9106 60.8111 39.2415 60.8111 38.4161V33.3714C60.8111 32.546 60.142 31.877 59.3166 31.877Z" fill="#eb5454"/>
<path d="M55.583 48.1263C55.7615 48.2542 55.9278 48.4036 56.0641 48.5903C56.1235 48.6723 56.1675 48.7604 56.2136 48.8474C57.6706 46.4141 58.4612 43.6517 58.5169 40.8174H57.6007C57.5466 43.3886 56.8596 45.897 55.583 48.1263Z" fill="#eb5454"/>
<path d="M55.332 49.1265C55.3314 49.1256 55.3314 49.1247 55.3308 49.1238C55.3275 49.1192 55.3218 49.1178 55.3184 49.1133C55.3219 49.1184 55.3282 49.1215 55.332 49.1265Z" fill="#eb5454"/>
<path d="M53.6478 48.8576L52.4951 49.6959C52.2344 49.885 52.0624 50.164 52.0117 50.4823C51.9624 50.7999 52.0383 51.1181 52.2281 51.3781C52.4166 51.6388 52.6963 51.8102 53.0139 51.8602C53.3353 51.9096 53.6516 51.8337 53.911 51.6451L55.0637 50.8075C55.6006 50.4177 55.7195 49.6648 55.332 49.1266C55.3282 49.1216 55.3218 49.1186 55.3183 49.1134C55.0826 48.7983 54.7218 48.6279 54.3539 48.6279C54.1084 48.6279 53.8604 48.7026 53.6478 48.8576Z" fill="#eb5454"/>
<path d="M59.2604 31.0011C57.4191 23.4261 50.5873 18 42.7204 18C42.7064 18 42.6925 18 42.6761 18C34.8067 18 27.9761 23.425 26.1348 31.0011C26.1884 30.9954 26.235 30.9697 26.29 30.9697H28.7444C30.5053 24.9076 36.0903 20.4727 42.7204 20.4727C49.3505 20.4727 54.9354 24.9076 56.6964 30.9697H59.1052C59.1602 30.9697 59.2069 30.9955 59.2604 31.0011Z" fill="#eb5454"/>
</svg>
