<svg width="83" height="71" viewBox="0 0 83 71" fill="none" xmlns="http://www.w3.org/2000/svg">
<rect x="0.5" y="1.4375" width="82" height="69" rx="5.5" fill="#F7F9FA" stroke="#EFEFEF"/>
<path d="M40.0448 41.5582L40.1705 41.5064C40.1316 41.5302 40.0892 41.5477 40.0448 41.5582ZM40.0448 41.5582L40.1705 41.5064C40.1316 41.5302 40.0892 41.5477 40.0448 41.5582ZM40.0448 41.5582L40.1705 41.5064C40.1316 41.5302 40.0892 41.5477 40.0448 41.5582ZM40.0448 41.5582L40.1705 41.5064C40.1316 41.5302 40.0892 41.5477 40.0448 41.5582ZM40.0448 41.5582L40.1705 41.5064C40.1316 41.5302 40.0892 41.5477 40.0448 41.5582ZM44.5313 38.3577C44.6164 38.2636 44.6931 38.1622 44.7605 38.0547C44.659 38.134 44.58 38.2385 44.5313 38.3577ZM40.0448 41.5729L40.1705 41.5212C40.1307 41.5399 40.0884 41.5524 40.0448 41.5582V41.5729ZM40.0448 41.5729L40.1705 41.5212C40.1307 41.5399 40.0884 41.5524 40.0448 41.5582V41.5729ZM40.0448 41.5729L40.1705 41.5212C40.1307 41.5399 40.0884 41.5524 40.0448 41.5582V41.5729ZM40.0448 41.5729L40.1705 41.5212C40.1307 41.5399 40.0884 41.5524 40.0448 41.5582V41.5729Z" fill="#EB5454"/>
<path d="M44.5147 38.3955C44.5035 38.4739 44.5035 38.5536 44.5147 38.632V42.6529H40.043V41.5664L40.1686 41.5146C40.3751 41.4505 40.5775 41.374 40.7747 41.2855C40.8979 41.2362 41.0235 41.1771 41.1517 41.1081C41.2481 41.0699 41.3419 41.0254 41.4325 40.9751C41.5646 40.9109 41.6929 40.8393 41.8169 40.7607C41.8884 40.7232 41.9576 40.6812 42.0238 40.6351C42.1065 40.5732 42.1854 40.5065 42.2604 40.4355L42.7186 40.1103C42.8803 39.9928 43.0357 39.867 43.1843 39.7333L43.406 39.5338C43.5076 39.4459 43.6038 39.3521 43.6943 39.2529C43.7612 39.1969 43.823 39.135 43.8791 39.0681C43.981 38.9676 44.0772 38.8615 44.1673 38.7503C44.2548 38.6544 44.3363 38.5532 44.4112 38.4472L44.5147 38.3955Z" fill="#EB5454"/>
<path d="M48.1746 30.087V37.02L45.0185 37.9217C44.9393 37.9437 44.8644 37.9786 44.7967 38.0252C44.915 37.8552 45.0259 37.6852 45.1294 37.5078C45.2403 37.3337 45.3415 37.1536 45.4324 36.9683C45.5063 36.834 45.5729 36.6958 45.632 36.5543C45.6702 36.4833 45.7023 36.4091 45.728 36.3326C45.7836 36.2171 45.8329 36.0986 45.8759 35.9778C45.9071 35.9063 45.9319 35.8321 45.9498 35.7561C46.0147 35.6056 46.0667 35.4498 46.105 35.2904C46.1291 35.2284 46.1465 35.164 46.1567 35.0983C46.2 34.9783 46.2321 34.8546 46.2528 34.7287C46.2778 34.6442 46.2951 34.5576 46.3046 34.47C46.3424 34.3168 46.3696 34.1613 46.3859 34.0043C46.4219 33.7939 46.4465 33.5817 46.4598 33.3687L46.7333 29.8209C46.7333 29.6657 46.7333 29.5252 46.7333 29.37C46.7333 29.174 46.6554 28.986 46.5168 28.8474C46.3782 28.7087 46.1902 28.6309 45.9941 28.6309H38.1741C37.3173 28.6324 36.4772 28.3944 35.7484 27.9438C35.0197 27.4933 34.4313 26.848 34.0498 26.0809C33.9915 25.9548 33.8989 25.8478 33.7825 25.7719C33.6662 25.6961 33.5308 25.6546 33.392 25.6522C33.2555 25.6526 33.1218 25.6908 33.0056 25.7625C32.8895 25.8343 32.7956 25.9368 32.7341 26.0587C32.3437 26.8201 31.7568 27.4632 31.0341 27.9213C30.3052 28.3703 29.4659 28.6083 28.6098 28.6087H28.218C28.022 28.6087 27.834 28.6866 27.6954 28.8252C27.5568 28.9638 27.4789 29.1518 27.4789 29.3478C27.4789 29.5104 27.4789 29.6657 27.4789 29.8504L27.7524 33.3761C27.7524 33.6126 27.7967 33.8491 27.8337 34.0783C27.8617 34.2823 27.9012 34.4847 27.952 34.6843C28.0139 35.0574 28.1029 35.4255 28.218 35.7857C28.2596 35.9166 28.309 36.045 28.3659 36.17C28.4447 36.377 28.5334 36.5765 28.632 36.7687C28.708 36.9365 28.7944 37.0994 28.8907 37.2565C28.8996 37.2864 28.9147 37.3141 28.935 37.3378C28.9941 37.4487 29.0607 37.5596 29.1272 37.663C29.1937 37.7665 29.312 37.9513 29.4154 38.0917C29.5403 38.2747 29.6761 38.4499 29.822 38.6165C29.845 38.6518 29.8723 38.6841 29.9033 38.7126C30.0215 38.8604 30.1546 39.0083 30.2876 39.1487L30.3985 39.2596C30.5069 39.3756 30.6229 39.4843 30.7459 39.5848C30.8117 39.6549 30.8834 39.7192 30.9602 39.777C31.073 39.8796 31.1914 39.9759 31.315 40.0652L31.4628 40.1835C31.6017 40.2936 31.7473 40.3948 31.8989 40.4865C31.9546 40.5287 32.014 40.5658 32.0763 40.5974C32.1803 40.6708 32.2889 40.7375 32.4015 40.797C32.524 40.876 32.6525 40.9452 32.7859 41.0039L32.9559 41.0852C33.0815 41.1591 33.2072 41.2109 33.3328 41.27C33.5355 41.3597 33.7427 41.4386 33.9537 41.5065L34.1089 41.5657V42.6522H28.218C27.63 42.6522 27.066 42.4186 26.6501 42.0027C26.2343 41.5869 26.0007 41.0229 26.0007 40.4348V30.39C25.9687 27.4269 27.1048 24.5704 29.1632 22.4388C31.2216 20.3071 34.0365 19.0717 36.9989 19H37.0876C40.0281 19 42.8481 20.1681 44.9273 22.2473C47.0065 24.3265 48.1746 27.1465 48.1746 30.087Z" fill="#EB5454"/>
<path d="M35.8829 41.9574L35.6094 41.9131C35.6992 41.935 35.7907 41.9499 35.8829 41.9574Z" fill="#EB5454"/>
<path d="M38.5664 41.9131L38.293 41.95C38.385 41.9449 38.4764 41.9325 38.5664 41.9131Z" fill="#EB5454"/>
<path d="M44.5312 38.3575C44.6163 38.2634 44.693 38.162 44.7604 38.0545C44.6589 38.1338 44.5799 38.2383 44.5312 38.3575ZM46.0095 28.6084H45.5808C45.6804 28.6088 45.7788 28.6293 45.8703 28.6686C45.9617 28.708 46.0443 28.7655 46.113 28.8375L46.4826 29.2219L46.5417 29.2884C46.6641 29.4303 46.7322 29.611 46.7339 29.7984C46.7339 29.6432 46.7339 29.5027 46.7339 29.3475C46.7339 29.1515 46.656 28.9635 46.5174 28.8249C46.3788 28.6863 46.1908 28.6084 45.9947 28.6084H46.0095Z" fill="#EB5454"/>
<path d="M45.2179 30.0865L44.9666 33.2574C44.8445 34.8925 44.2157 36.4488 43.1679 37.71C42.12 38.9711 40.7051 39.8743 39.1201 40.2939C37.8023 40.6413 36.417 40.6413 35.0992 40.2939C33.5147 39.8733 32.1004 38.9699 31.0527 37.7089C30.005 36.448 29.3759 34.8921 29.2527 33.2574L28.957 30.0865C29.8188 30.0373 30.6601 29.8048 31.4249 29.4046C32.1896 29.0044 32.8602 28.4456 33.3918 27.7656C33.9583 28.4925 34.684 29.0797 35.5131 29.4821C36.3421 29.8844 37.2525 30.0912 38.174 30.0865H45.2179Z" fill="#EB5454"/>
<path d="M44.5303 38.3577C44.6153 38.2636 44.692 38.1622 44.7594 38.0547C44.6579 38.134 44.5789 38.2385 44.5303 38.3577ZM44.4785 44.1303V44.2116C44.5837 44.2174 44.6856 44.2505 44.7742 44.3077L44.4785 44.1303Z" fill="#EB5454"/>
<path d="M51.8701 37.4785L49.1131 38.2916L45.957 39.1933V44.9733C45.957 45.1359 45.957 45.2985 45.957 45.4685C46.0251 46.7205 46.3818 47.9398 46.9992 49.0311C47.3982 49.7453 47.8958 50.3997 48.4775 50.975C48.6696 51.1524 48.8618 51.3298 49.0688 51.4924L49.2462 51.6255C50.0352 52.2312 50.9229 52.6963 51.8701 53.0003C53.1253 52.6051 54.2732 51.9274 55.2257 51.0194C55.3957 50.8494 55.5657 50.6794 55.7209 50.4946C57.0558 48.9656 57.7888 47.0031 57.7831 44.9733V39.1933L51.8701 37.4785ZM55.3514 43.8868L51.6557 47.5824C51.587 47.6517 51.5053 47.7067 51.4152 47.7442C51.3251 47.7817 51.2285 47.8011 51.1309 47.8011C51.0334 47.8011 50.9368 47.7817 50.8467 47.7442C50.7566 47.7067 50.6749 47.6517 50.6062 47.5824L48.7583 45.7346C48.6192 45.5954 48.541 45.4067 48.541 45.2098C48.541 45.013 48.6192 44.8242 48.7583 44.685C48.8975 44.5459 49.0863 44.4677 49.2831 44.4677C49.4799 44.4677 49.6687 44.5459 49.8079 44.685L51.1309 46.045L54.3018 42.8668C54.441 42.7276 54.6298 42.6494 54.8266 42.6494C55.0234 42.6494 55.2122 42.7276 55.3514 42.8668C55.4906 43.006 55.5688 43.1947 55.5688 43.3916C55.5688 43.5884 55.4906 43.7772 55.3514 43.9163V43.8868Z" fill="#EB5454"/>
<path d="M38.5645 49.0017L38.7197 49.0683H38.7714L38.5645 49.0017ZM39.0523 49.1717H39.1188H39.1779H39.3184H39.0523ZM44.4775 44.1309V44.2122C44.5827 44.2179 44.6846 44.2511 44.7731 44.3083L44.4775 44.1309Z" fill="#EB5454"/>
<path d="M43.5471 45.2842C43.5515 45.3012 43.5515 45.319 43.5471 45.336C43.5091 45.4493 43.4647 45.5604 43.414 45.6686C43.3998 45.7045 43.3825 45.7391 43.3623 45.7721C43.3253 45.8595 43.2808 45.9436 43.2293 46.0234C43.2307 46.0431 43.2307 46.0628 43.2293 46.0825C43.1576 46.1751 43.0811 46.2639 43.0001 46.3486C42.9019 46.4827 42.7932 46.6087 42.6749 46.7255C42.3311 47.0743 41.9215 47.3512 41.4698 47.5403C41.0181 47.7294 40.5333 47.8268 40.0436 47.8269C39.9404 47.8377 39.8364 47.8377 39.7332 47.8269C39.7262 47.8301 39.7187 47.8318 39.711 47.8318C39.7033 47.8318 39.6957 47.8301 39.6888 47.8269H39.6075H39.5484L39.3858 47.7825C39.3177 47.7624 39.251 47.7377 39.1862 47.7086L39.0384 47.6421L38.8979 47.5608L38.6762 47.4055H38.6319C38.5544 47.3379 38.4804 47.2664 38.4101 47.1912C38.2558 47.0221 38.1287 46.8301 38.0332 46.6221C38.0035 46.5713 37.9811 46.5165 37.9666 46.4595C37.9511 46.4262 37.9387 46.3916 37.9297 46.356C38.0587 46.3157 38.1847 46.2663 38.3066 46.2082C38.3891 46.1735 38.4683 46.1315 38.5432 46.0825L38.6466 46.0234L38.8462 45.8829C38.9746 45.7889 39.0935 45.6824 39.201 45.5651C39.2738 45.4923 39.3429 45.4158 39.4079 45.336L39.4449 45.2769C39.5008 45.2102 39.5503 45.1384 39.5927 45.0625C39.6733 44.9358 39.7426 44.8023 39.7997 44.6634C39.8481 44.5475 39.8901 44.4291 39.9253 44.3086C40.2653 44.3356 40.6034 44.3825 40.9379 44.449H41.0045C41.8903 44.5935 42.7482 44.8753 43.5471 45.2842Z" fill="#EB5454"/>
<path d="M35.3874 49.0828H35.4392L35.5944 49.0162L35.3874 49.0828ZM34.8405 49.2306H34.9809H35.04H35.1065H34.8405ZM30.7383 48.0332H30.7752C30.8518 48.1031 30.9333 48.1673 31.0192 48.2254C30.9231 48.1884 30.827 48.1145 30.7383 48.0332Z" fill="#EB5454"/>
<path d="M36.2524 46.2295C36.2434 46.265 36.231 46.2997 36.2154 46.3329C36.201 46.39 36.1786 46.4447 36.1489 46.4955C36.0534 46.7036 35.9262 46.8956 35.772 47.0647C35.7017 47.1398 35.6277 47.2114 35.5502 47.279H35.5059L35.2841 47.4342L35.1437 47.5155L34.9959 47.5821C34.9311 47.6111 34.8644 47.6358 34.7963 47.656L34.6337 47.7003H34.5746H34.4933C34.4863 47.7036 34.4788 47.7053 34.4711 47.7053C34.4634 47.7053 34.4559 47.7036 34.4489 47.7003C34.3482 47.7544 34.2415 47.7965 34.1311 47.826C34.0006 47.8335 33.8698 47.8335 33.7394 47.826C33.7003 47.8337 33.6601 47.8337 33.6211 47.826C33.4936 47.8159 33.3674 47.7936 33.2441 47.7595C33.1484 47.7402 33.0545 47.713 32.9633 47.6781L32.6528 47.5229L32.4089 47.4121L32.165 47.2716C32.0842 47.2268 32.0075 47.1748 31.9359 47.1164L31.655 46.8947C31.3615 46.636 31.1119 46.3315 30.9159 45.9929C30.8583 45.8925 30.8064 45.7888 30.7607 45.6825C30.7087 45.5773 30.6643 45.4687 30.6276 45.3573C30.6244 45.3427 30.6244 45.3275 30.6276 45.3129C30.6241 45.3009 30.6241 45.288 30.6276 45.276C31.4158 44.8309 32.2687 44.5117 33.1554 44.3299H33.222C33.5565 44.2634 33.8946 44.2165 34.2346 44.1895C34.2699 44.3099 34.3118 44.4284 34.3602 44.5442C34.4173 44.6831 34.4866 44.8167 34.5672 44.9434C34.6096 45.0193 34.6591 45.0911 34.715 45.1577L34.752 45.2168C34.817 45.2967 34.8861 45.3731 34.9589 45.446C35.0665 45.5633 35.1853 45.6698 35.3137 45.7638L35.5133 45.9042L35.6167 45.9634C35.6916 46.0123 35.7708 46.0544 35.8533 46.089C35.9753 46.1472 36.1012 46.1966 36.2302 46.2368L36.2524 46.2295Z" fill="#EB5454"/>
<path d="M38.5659 41.9131V43.3913C38.5659 43.7834 38.4102 44.1594 38.1329 44.4366C37.8557 44.7139 37.4797 44.8696 37.0876 44.8696C36.6956 44.8696 36.3196 44.7139 36.0423 44.4366C35.7651 44.1594 35.6094 43.7834 35.6094 43.3913V41.9131L35.8829 41.95C36.0837 41.9807 36.286 42.0005 36.4889 42.0092H37.0876H37.6863C37.8893 42.0005 38.0916 41.9807 38.2924 41.95L38.5659 41.9131Z" fill="#EB5454"/>
<path d="M38.6618 47.3459L38.7727 47.4346L38.8836 47.5012L38.6618 47.3459ZM38.8836 47.5012L38.9797 47.5677H39.024L38.8836 47.5012ZM43.5327 45.2838C43.5371 45.3007 43.5371 45.3185 43.5327 45.3355V45.2838ZM35.2618 47.5012L35.3727 47.4346L35.4836 47.3459L35.2618 47.5012ZM35.1214 47.5825H35.1658L35.2618 47.5159L35.1214 47.5825ZM32.6527 47.5233H32.7044L32.941 47.6046L32.6527 47.5233ZM30.6053 45.3059C30.6053 45.3059 30.6053 45.3059 30.6053 45.3429C30.6025 45.3308 30.603 45.3182 30.6069 45.3065C30.6108 45.2947 30.618 45.2843 30.6275 45.2764L30.6053 45.3059Z" fill="#EB5454"/>
<path d="M48.1739 52.9999H26C26.0186 51.677 26.3299 50.3746 26.9113 49.1861C27.4927 47.9977 28.33 46.9526 29.363 46.126C29.463 46.382 29.5841 46.6293 29.7252 46.8651C29.7815 46.9645 29.8432 47.0607 29.91 47.1534C30.0228 47.3185 30.1489 47.4743 30.287 47.619C30.3625 47.7082 30.444 47.7921 30.5309 47.8703L30.7378 48.0625H30.7748C30.8513 48.1323 30.9329 48.1966 31.0187 48.2547C31.2905 48.4614 31.5827 48.6397 31.8909 48.7868L32.0683 48.8681L32.4157 49.0086L32.6596 49.0825L32.97 49.1638C33.0744 49.1912 33.1806 49.211 33.2878 49.2229C33.3222 49.2271 33.3569 49.2271 33.3913 49.2229H33.5983H33.6426C33.7904 49.2229 33.9457 49.2229 34.1009 49.2229C34.246 49.2342 34.3918 49.2342 34.537 49.2229C34.6473 49.2359 34.7587 49.2384 34.8696 49.2303H35.01H35.0691H35.1357C35.2313 49.2075 35.3251 49.1779 35.4165 49.1416H35.4683L35.6235 49.0751L35.8822 48.9495C35.9938 48.8953 36.1002 48.831 36.2 48.7573C36.318 48.6801 36.4316 48.5962 36.54 48.506C36.6481 48.4176 36.7494 48.3212 36.843 48.2177C36.9332 48.0929 37.0147 47.962 37.087 47.826C37.1674 47.9295 37.2537 48.0282 37.3457 48.1216C37.4393 48.2252 37.5406 48.3215 37.6487 48.4099C37.7571 48.5001 37.8707 48.584 37.9887 48.6612C38.0885 48.7349 38.1949 48.7992 38.3065 48.8534L38.5652 48.979L38.7204 49.0455H38.7722C38.8636 49.0818 38.9574 49.1114 39.053 49.1342H39.1196H39.1787H39.3191C39.409 49.1562 39.5004 49.171 39.5926 49.1786C39.7392 49.2329 39.89 49.2749 40.0435 49.3042C40.727 49.3169 41.4061 49.1926 42.0408 48.9388C42.6755 48.6849 43.2529 48.3065 43.7391 47.826C43.8993 47.6624 44.0499 47.4896 44.19 47.3086C44.2123 47.2748 44.237 47.2427 44.2639 47.2125C44.4058 47.017 44.5342 46.812 44.6483 46.599C44.7386 47.1784 44.8846 47.7477 45.0843 48.299C45.1435 48.4764 45.21 48.6464 45.2839 48.8164C45.3578 48.9864 45.4317 49.1564 45.513 49.319C45.5943 49.4816 45.683 49.6442 45.7717 49.8068C46.2445 50.6512 46.8398 51.4209 47.5383 52.0908C47.7474 52.2966 47.9669 52.4915 48.1961 52.6747C48.1739 52.756 48.1739 52.8742 48.1739 52.9999Z" fill="#EB5454"/>
</svg>
