<svg width="83" height="70" viewBox="0 0 83 70" fill="none" xmlns="http://www.w3.org/2000/svg">
<rect x="0.5" y="0.5" width="82" height="69" rx="5.5" fill="#eb5454" fill-opacity="0.1" stroke="#EFEFEF"/>
<path d="M34.952 16C34.8529 16.0021 34.7559 16.0287 34.6695 16.0774C34.5832 16.1262 34.5103 16.1955 34.4574 16.2793C34.389 16.3815 34.3475 16.4992 34.3365 16.6217C34.3256 16.7441 34.3456 16.8673 34.3947 16.98L36.7627 22H51.4867C51.3293 21.7359 51.0812 21.538 50.7887 21.4433L35.2287 16.05C35.1394 16.0199 35.0462 16.003 34.952 16Z" fill="#eb5454"/>
<path d="M48.7861 37.8423L46.3794 40.0003L49.6547 42.9337L60.0927 52.2923C60.2525 51.9982 60.3353 51.6684 60.3334 51.3337V28.667C60.3354 28.3324 60.2526 28.0029 60.0927 27.709L48.7861 37.8423Z" fill="#eb5454"/>
<path d="M34.9661 29.334C35.0551 29.33 35.1431 29.3134 35.2274 29.2847L50.7881 23.8913C51.0809 23.7966 51.3293 23.5985 51.4867 23.334H36.7627L34.3894 28.3653C34.3427 28.4769 34.3244 28.5983 34.336 28.7187C34.3477 28.8391 34.3889 28.9547 34.4561 29.0553C34.5142 29.1376 34.5903 29.2055 34.6787 29.2538C34.7671 29.3021 34.8654 29.3295 34.9661 29.334Z" fill="#eb5454"/>
<path d="M33.6787 42.9337L36.954 40.0003L30.1134 33.867L23.2407 27.709C23.0808 28.0029 22.998 28.3324 23 28.667V51.3337C22.9981 51.6684 23.0809 51.9982 23.2407 52.2923L33.6787 42.9337Z" fill="#eb5454"/>
<path d="M59.0901 53.1842L45.3801 40.8956L43.4467 42.6289C43.3232 42.7413 43.1893 42.8418 43.0467 42.9289C43.0307 42.9389 43.0127 42.9449 42.9961 42.9542C42.5854 43.1952 42.117 43.3201 41.6408 43.3155C41.1647 43.3109 40.6987 43.1771 40.2927 42.9282C40.1503 42.8404 40.0164 42.7395 39.8927 42.6269L37.9594 40.8936L24.2434 53.1842C24.4834 53.2831 24.7405 53.3338 25.0001 53.3336H58.3334C58.593 53.3338 58.8501 53.2831 59.0901 53.1842ZM46.3334 52.0002H33.6667C33.4899 52.0002 33.3204 51.93 33.1953 51.805C33.0703 51.6799 33.0001 51.5104 33.0001 51.3336C33.0001 51.1567 33.0703 50.9872 33.1953 50.8622C33.3204 50.7371 33.4899 50.6669 33.6667 50.6669H46.3334C46.5102 50.6669 46.6798 50.7371 46.8048 50.8622C46.9298 50.9872 47.0001 51.1567 47.0001 51.3336C47.0001 51.5104 46.9298 51.6799 46.8048 51.805C46.6798 51.93 46.5102 52.0002 46.3334 52.0002ZM49.6667 52.0002H49.0001C48.8233 52.0002 48.6537 51.93 48.5287 51.805C48.4036 51.6799 48.3334 51.5104 48.3334 51.3336C48.3334 51.1567 48.4036 50.9872 48.5287 50.8622C48.6537 50.7371 48.8233 50.6669 49.0001 50.6669H49.6667C49.8436 50.6669 50.0131 50.7371 50.1381 50.8622C50.2632 50.9872 50.3334 51.1567 50.3334 51.3336C50.3334 51.5104 50.2632 51.6799 50.1381 51.805C50.0131 51.93 49.8436 52.0002 49.6667 52.0002Z" fill="#eb5454"/>
<path d="M59.0901 26.816C58.8501 26.7172 58.593 26.6664 58.3334 26.6667H46.8521L35.6667 30.5433C35.455 30.6159 35.2338 30.6572 35.0101 30.666H34.9681C34.8785 30.6612 34.7894 30.6503 34.7014 30.6334C34.6347 30.624 34.5681 30.6247 34.5074 30.6093C34.3848 30.5768 34.2658 30.5321 34.1521 30.476C34.1234 30.4627 34.0914 30.456 34.0634 30.4413C33.9363 30.3724 33.8173 30.2895 33.7087 30.194C33.6961 30.1827 33.6801 30.176 33.6674 30.164C33.5449 30.0533 33.4367 29.9276 33.3454 29.79C33.1541 29.4994 33.0387 29.1655 33.0097 28.8188C32.9807 28.4721 33.0391 28.1237 33.1794 27.8053L33.7127 26.666H25.0001C24.7405 26.6657 24.4834 26.7165 24.2434 26.8153L38.4001 39.5034L40.7801 41.6367C41.0226 41.8579 41.3391 41.9806 41.6674 41.9806C41.9957 41.9806 42.3122 41.8579 42.5547 41.6367L51.4354 33.6767L59.0901 26.816Z" fill="#eb5454"/>
</svg>
