<svg width="125" height="40" viewBox="0 0 125 40" fill="none" xmlns="http://www.w3.org/2000/svg">
<path opacity="0.2" d="M53.7698 0.0242279L33.0078 15.6027C32.032 11.771 29.7769 8.36502 26.5978 5.92169C23.4188 3.47834 19.4967 2.13656 15.4497 2.1078H0.548828V37.9164H15.4497C19.5183 37.97 23.4823 36.6589 26.6784 34.2024C29.8747 31.7459 32.1091 28.293 33.0078 24.4216L53.7698 40L74.5316 24.4216V37.9164H97.9508V30.6481H82.5035V2.08357H73.9853V15.5784L54.2913 31.1569L50.0446 27.5227L59.6307 20.2544L69.7384 12.4773L63.8775 7.80133L44.1836 22.8467L39.9367 19.2126L59.6307 4.67594L53.7698 0V0.0242279ZM8.52079 9.3519H14.9034C16.2241 9.3544 17.5288 9.6354 18.7279 10.1756C19.946 10.7222 21.0428 11.4958 21.9564 12.4531C22.918 13.4606 23.6764 14.636 24.1915 15.9176C25.2506 18.6414 25.2506 21.6493 24.1915 24.3731C23.7098 25.6509 22.9945 26.833 22.0806 27.8619C21.1923 28.8733 20.1022 29.6976 18.8769 30.2847C17.6147 30.8791 16.2305 31.1857 14.8288 31.1811H8.52079V9.37613V9.3519ZM124.524 30.6481V37.9164H101.13V2.08357H109.648V30.6481H124.549H124.524Z" fill="#797979"/>
</svg>
