<svg width="50" height="50" viewBox="0 0 50 50" fill="none" xmlns="http://www.w3.org/2000/svg">
<path d="M36.04 20.8251V16.5567C36.04 10.7262 31.3143 6 25.4833 6C19.6523 6 14.9266 10.7257 14.9266 16.5567V20.8251C12.1538 21.1734 10 23.5416 10 26.4061V38.3699C10 41.4735 12.5265 44 15.6301 44H35.3356C38.4392 44 40.9657 41.4735 40.9657 38.3699V26.4061C40.9657 23.54 38.8122 21.1737 36.0391 20.8251H36.04ZM25.4833 10.9264C28.5869 10.9264 31.1134 13.4529 31.1134 16.5565V20.7756H19.8532V16.5565C19.8532 13.4529 22.3797 10.9264 25.4833 10.9264ZM26.8908 32.3488V36.6101C26.8908 37.3878 26.261 38.0176 25.4833 38.0176C24.7056 38.0176 24.0758 37.3878 24.0758 36.6101V32.3488C23.2383 31.8615 22.6682 30.9641 22.6682 29.9243C22.6682 28.369 23.928 27.1093 25.4833 27.1093C27.0386 27.1093 28.2984 28.369 28.2984 29.9243C28.2984 30.9641 27.7283 31.8615 26.8908 32.3488Z" fill="#eb5454"/>
</svg>
