<svg width="32" height="36" viewBox="0 0 32 36" fill="none" xmlns="http://www.w3.org/2000/svg">
<path d="M15.656 15.1996L8.11597 22.7396C7.9519 22.9037 7.86182 23.122 7.86182 23.3534C7.86182 23.5849 7.9519 23.8024 8.11597 23.9664C8.45435 24.3034 9.00366 24.3048 9.34204 23.9664L16.8816 16.4269C16.6574 16.2494 16.4387 16.0615 16.2312 15.8541C16.0226 15.6455 15.8343 15.4251 15.656 15.1996Z" fill="#EB5454"/>
<path d="M20.4902 5.85754C19.2002 5.85754 17.9403 6.32254 16.9952 7.26755C15.0077 9.26253 15.1352 12.6375 17.2952 14.79C19.4477 16.95 22.8227 17.085 24.8177 15.09C26.8127 13.095 26.6777 9.72002 24.5252 7.56001C23.3927 6.42755 21.9152 5.85754 20.4902 5.85754ZM22.9578 11.88C22.5902 12.2475 22.1027 12.45 21.5852 12.45C21.0602 12.45 20.5727 12.2475 20.2052 11.88C19.8377 11.5125 19.6352 11.0251 19.6352 10.5C19.6352 9.98254 19.8377 9.49502 20.2052 9.12753C20.9403 8.39255 22.2227 8.39255 22.9578 9.12753C23.3252 9.49502 23.5277 9.98254 23.5277 10.5C23.5277 11.0251 23.3252 11.5125 22.9578 11.88Z" fill="#EB5454"/>
<path d="M30.69 3.5175C29.1675 3.5175 27.9225 2.27998 27.9225 0.75C27.9225 0.337509 27.585 0 27.1725 0H4.27501C3.85501 0 3.52501 0.337509 3.52501 0.75C3.52501 2.27998 2.28003 3.5175 0.75 3.5175C0.337509 3.5175 0 3.85501 0 4.2675V20.28C0 28.935 14.79 35.655 15.42 35.9325C15.5175 35.9775 15.615 36 15.72 36C15.825 36 15.93 35.9775 16.0275 35.9325C16.6575 35.655 31.44 28.935 31.44 20.28V4.2675C31.44 3.85501 31.11 3.5175 30.69 3.5175ZM25.875 16.1475C24.645 17.385 23.0025 18 21.3225 18C20.2575 18 19.1775 17.745 18.18 17.25L10.4025 25.0275C9.9375 25.485 9.33751 25.7175 8.73001 25.7175C8.12251 25.7175 7.51502 25.485 7.05753 25.0275C6.6075 24.5775 6.36003 23.985 6.36003 23.355C6.36003 22.7175 6.6075 22.125 7.05753 21.6825L7.37251 21.36L6.73503 20.715C6.44252 20.4225 6.44252 19.95 6.73503 19.6575C7.0275 19.365 7.5 19.365 7.79251 19.6575L8.4375 20.295L9.24751 19.4925L8.60252 18.8475C8.31001 18.555 8.31001 18.0825 8.60252 17.79C8.89504 17.4975 9.375 17.4975 9.66751 17.79L10.305 18.4275L14.835 13.8975C13.5675 11.3325 13.9125 8.23499 15.9375 6.20998C18.5175 3.62997 22.845 3.76497 25.5825 6.50249C28.3275 9.24001 28.455 13.5675 25.875 16.1475Z" fill="#EB5454"/>
</svg>
