<svg width="83" height="71" viewBox="0 0 83 71" fill="none" xmlns="http://www.w3.org/2000/svg">
<rect x="0.5" y="1.45117" width="82" height="69" rx="5.5" fill="#FFB800" fill-opacity="0.1" stroke="#EFEFEF"/>
<path d="M39.5 15.9512C36.8478 15.9512 34.3043 17.0047 32.4289 18.8801C30.5536 20.7555 29.5 23.299 29.5 25.9512C29.5 28.6033 30.5536 31.1469 32.4289 33.0222C34.3043 34.8976 36.8478 35.9512 39.5 35.9512C42.1522 35.9512 44.6957 34.8976 46.5711 33.0222C48.4464 31.1469 49.5 28.6033 49.5 25.9512C49.5 23.299 48.4464 20.7555 46.5711 18.8801C44.6957 17.0047 42.1522 15.9512 39.5 15.9512ZM27.0225 38.4512C26.3641 38.4485 25.7116 38.5759 25.1026 38.826C24.4935 39.076 23.9398 39.4439 23.4731 39.9084C23.0065 40.3729 22.6362 40.925 22.3834 41.5329C22.1306 42.1409 22.0003 42.7928 22 43.4512C22 47.6787 24.0825 50.8662 27.3375 52.9437C30.5425 54.9862 34.8625 55.9512 39.5 55.9512C40.525 55.9512 41.54 55.9037 42.525 55.8087C40.5623 53.3697 39.4947 50.3318 39.5 47.2012C39.5 43.8762 40.68 40.8262 42.6425 38.4512H27.0225ZM64.5 47.2012C64.5 50.1849 63.3147 53.0463 61.2049 55.1561C59.0952 57.2659 56.2337 58.4512 53.25 58.4512C50.2663 58.4512 47.4048 57.2659 45.295 55.1561C43.1853 53.0463 42 50.1849 42 47.2012C42 44.2175 43.1853 41.356 45.295 39.2462C47.4048 37.1364 50.2663 35.9512 53.25 35.9512C56.2337 35.9512 59.0952 37.1364 61.2049 39.2462C63.3147 41.356 64.5 44.2175 64.5 47.2012ZM54.44 40.6012C54.3678 40.341 54.2123 40.1117 53.9974 39.9484C53.7825 39.785 53.52 39.6965 53.25 39.6965C52.98 39.6965 52.7175 39.785 52.5026 39.9484C52.2877 40.1117 52.1322 40.341 52.06 40.6012L50.8675 44.4312H47C45.79 44.4312 45.285 46.0487 46.265 46.7912L49.39 49.1587L48.1975 52.9887C47.8225 54.1887 49.1425 55.1887 50.1225 54.4462L53.2475 52.0787L56.3725 54.4462C57.3525 55.1887 58.6725 54.1887 58.2975 52.9887L57.105 49.1587L60.23 46.7912C61.21 46.0487 60.705 44.4312 59.495 44.4312H55.6325L54.44 40.6012Z" fill="#FFB800"/>
</svg>
