<svg width="34" height="39" viewBox="0 0 34 39" fill="none" xmlns="http://www.w3.org/2000/svg">
<path d="M22.1699 16.958C23.4584 16.958 24.5029 15.9135 24.5029 14.625C24.5029 13.3365 23.4584 12.292 22.1699 12.292C20.8814 12.292 19.8369 13.3365 19.8369 14.625C19.8369 15.9135 20.8814 16.958 22.1699 16.958Z" fill="#EB5454"/>
<path d="M33.8164 6.5C28.4414 7.2085 20.0664 4.75 16.9414 0C12.8164 4.75 6.9414 6.5 0.0664025 6.5C-0.642097 23.375 4.2749 34.875 16.9414 38.25C29.6914 36 34.4414 22.0415 33.8164 6.5ZM21.4004 21.729C20.5604 21.729 19.7609 21.621 19.0334 21.3135L11.0249 29.125H7.9414V25.625H8.9414V23.625H10.9414V21.125H12.9414V19.125H15.9414L16.1579 18.7835C15.6269 17.88 15.3169 16.7065 15.3169 15.583C15.3169 12.2235 18.0404 9.4995 21.4004 9.4995C24.7599 9.4995 27.4834 12.2545 27.4834 15.614C27.4834 18.9735 24.7599 21.729 21.4004 21.729Z" fill="#EB5454"/>
</svg>
