<svg width="83" height="70" viewBox="0 0 83 70" fill="none" xmlns="http://www.w3.org/2000/svg">
<rect x="0.5" y="0.5" width="82" height="69" rx="5.5" fill="#F7F9FA" stroke="#F5F4F1"/>
<path d="M51.3269 37.8341C53.1894 37.8341 55.0101 37.2817 56.5587 36.247C58.1073 35.2122 59.3143 33.7415 60.027 32.0207C60.7398 30.3 60.9262 28.4065 60.5629 26.5798C60.1995 24.7531 59.3026 23.0751 57.9856 21.7582C56.6686 20.4412 54.9907 19.5443 53.1639 19.1809C51.3372 18.8176 49.4438 19.0041 47.723 19.7168C46.0023 20.4296 44.5316 21.6366 43.4968 23.1852C42.4621 24.7338 41.9098 26.5545 41.9098 28.417C41.9126 30.9137 42.9057 33.3074 44.6711 35.0728C46.4365 36.8382 48.8302 37.8313 51.3269 37.8341ZM45.3281 24.1973C45.3299 24.0942 45.3604 23.9937 45.4161 23.907C45.4718 23.8202 45.5505 23.7507 45.6435 23.7062L51.1562 21.0109C51.231 20.9741 51.3131 20.955 51.3964 20.955C51.4796 20.955 51.5618 20.9741 51.6365 21.0109L57.1373 23.714C57.2284 23.7594 57.3049 23.8295 57.358 23.9163C57.4111 24.0032 57.4386 24.1032 57.4375 24.205V29.3544C57.4375 30.7606 56.5323 32.4831 55.3698 33.2757L51.8385 35.6881C51.7886 35.7551 51.7238 35.8097 51.6493 35.8475C51.5747 35.8853 51.4924 35.9054 51.4088 35.9061H51.4082C51.3314 35.9055 51.2557 35.8888 51.1858 35.857C51.1159 35.8252 51.0535 35.7791 51.0026 35.7216L47.4114 33.2757C46.2486 32.4831 45.3281 30.7606 45.3281 29.3544V24.1973Z" fill="#EB5454"/>
<path d="M43.5421 41.1175L47.3342 38.1431C45.4076 37.3504 43.7597 36.0037 42.5993 34.2735C41.4389 32.5433 40.8183 30.5076 40.816 28.4243C40.8153 27.6828 40.8942 26.9433 41.0513 26.2186H26.5563C26.2197 26.2177 25.8864 26.2834 25.5754 26.412C25.2644 26.5406 24.982 26.7294 24.7443 26.9677C24.5067 27.2059 24.3186 27.4889 24.1908 27.8002C24.0631 28.1115 23.9982 28.445 24 28.7815V29.2446L39.4187 41.1143C40.0065 41.5762 40.7323 41.8274 41.4798 41.828C42.2274 41.8286 42.9535 41.5784 43.5421 41.1175Z" fill="#EB5454"/>
<path d="M48.025 32.3721L50.8552 34.2973L50.8377 22.3804L46.4219 24.5383V29.3544C46.4219 30.4003 47.1599 31.7823 48.025 32.3721Z" fill="#EB5454"/>
<path d="M54.7535 32.3721C55.6187 31.7822 56.3438 30.4003 56.3438 29.3543V24.5456L51.9342 22.3777L51.9509 34.2855L54.7535 32.3721Z" fill="#EB5454"/>
<path d="M49.1024 38.6873L58.6875 47.98V35.9346C56.7344 37.7853 54.1962 38.9278 51.3437 38.9278C50.5902 38.9278 49.8388 38.8471 49.1024 38.6873Z" fill="#EB5454"/>
<path d="M44.2161 41.9764C43.4338 42.5877 42.4695 42.9196 41.4767 42.9192C40.4839 42.9189 39.5198 42.5863 38.738 41.9746L35.0171 39.1084L24.2671 49.2146C24.4852 49.6326 24.8142 49.9823 25.218 50.2256C25.6218 50.4688 26.0849 50.5962 26.5563 50.5936H56.0866C56.5588 50.5962 57.0226 50.4683 57.4269 50.2243C57.8312 49.9802 58.1603 49.6293 58.378 49.2102L47.917 39.0719L44.2161 41.9764Z" fill="#EB5454"/>
<path d="M24 30.6245V47.9997L34.1607 38.4404L24 30.6245Z" fill="#EB5454"/>
</svg>
