<svg width="513" height="532" viewBox="0 0 513 532" fill="none" xmlns="http://www.w3.org/2000/svg">
<path d="M38.8218 106.526C35.9735 105.268 33.5566 103.202 31.8699 100.585C30.1832 97.9678 29.3009 94.9134 29.332 91.7999C29.332 83.005 35.9581 75.8518 44.2018 75.8158C52.4454 75.7799 59.1554 82.8732 59.1913 91.6681C59.2496 94.8072 58.3773 97.8934 56.6842 100.538C54.9911 103.182 52.5531 105.265 49.6776 106.526C72.6472 109.989 71.6048 134.959 71.6048 134.959L17.29 135.211C17.29 135.211 16.0439 109.965 38.8218 106.526Z" fill="#EB5454"/>
<path d="M359.761 13.22L395.263 0.662842L430.419 13.0523C434.9 15.1372 438.806 16.3833 438.806 20.5051V41.0064C438.85 55.4053 434.835 69.5249 427.22 81.7454C419.555 94.2015 408.267 104.018 394.868 109.879C380.49 105.278 369.778 93.0325 363.211 82.5482C355.606 70.3243 351.594 56.2062 351.637 41.8092V23.3688C351.685 17.4976 354.848 14.6339 359.761 13.22Z" fill="#EB5454"/>
<path d="M383.51 46.3131C383.501 44.4835 384.004 42.6879 384.961 41.1286C385.918 39.5692 387.291 38.308 388.926 37.487C390.561 36.6659 392.393 36.3178 394.215 36.4816C396.037 36.6455 397.778 37.3149 399.24 38.4144C400.702 39.514 401.828 41 402.492 42.705C403.155 44.4101 403.329 46.2666 402.994 48.0652C402.66 49.8639 401.829 51.5334 400.597 52.8856C399.365 54.2379 397.779 55.2192 396.019 55.719V70.421H390.651V55.719C388.599 55.1424 386.791 53.9118 385.502 52.2142C384.213 50.5165 383.514 48.4446 383.51 46.3131Z" fill="#EBEBEB"/>
<path d="M57.9085 203.221L51.8575 206.504L54.5775 211.057L60.6883 207.463L60.5685 214.185H65.7927V207.403L71.8436 211.021L74.5156 206.468L68.4647 203.185L74.5156 199.854L71.8436 195.301L65.7447 199.039V192.258H60.5206L60.6404 199.039L54.5296 195.373L51.8096 199.926L57.9085 203.221Z" fill="#EB5454"/>
<path d="M32.6986 203.219L26.6477 206.502L29.3676 211.055L35.4785 207.46L35.3587 214.182H40.5828L40.5229 207.4L46.6338 211.067L49.3058 206.514L43.2548 203.231L49.3058 199.9L46.6338 195.347L40.5229 199.013L40.5828 192.231H35.3587L35.4785 199.013L29.3676 195.347L26.6477 199.9L32.6986 203.219Z" fill="#EB5454"/>
<path d="M7.48702 203.219L1.4241 206.502L4.14405 211.055L10.2549 207.461L10.147 214.183H15.3712L15.3113 207.401L21.4222 211.067L24.0942 206.514L18.0313 203.231L24.0462 199.888L21.3742 195.335L15.2634 199.001L15.3233 192.219H10.0991L10.207 199.001L4.09611 195.335L1.37616 199.888L7.48702 203.219Z" fill="#EB5454"/>
<path d="M264.001 490.033V527.249H209.578H149.548V490.033H264.001Z" fill="#EB5454"/>
<path d="M268.805 479.621V490.034H145.546V479.621H209.578H268.805Z" fill="#EB5454"/>
<path d="M207.18 527.25H149.547V490.034H145.545V479.621H209.577V489.063L207.18 527.25Z" fill="#EB5454"/>
<path d="M224.783 496.024H247.992V501.631H224.783V496.024Z" fill="#EB5454"/>
<path d="M221.177 508.643H250.988V520.469H221.177V508.643Z" fill="#EB5454"/>
<path d="M246.398 442.454V479.67H191.964H131.934V442.454H246.398Z" fill="#EB5454"/>
<path d="M251.204 432.041V442.453H127.933V432.041H191.965H251.204Z" fill="#EB5454"/>
<path d="M189.567 479.669H131.933V442.453H127.931V432.041H191.964V441.495L189.567 479.669Z" fill="#EB5454"/>
<path d="M207.18 448.455H230.39V454.063H207.18V448.455Z" fill="#EB5454"/>
<path d="M203.563 461.061H233.375V472.888H203.563V461.061Z" fill="#EB5454"/>
<path d="M0 527.539C0 527.707 114.848 527.851 256.488 527.851C398.128 527.851 513 527.707 513 527.539C513 527.371 398.176 527.227 256.488 527.227C114.8 527.227 0 527.347 0 527.539Z" fill="#263238"/>
<path d="M78.2168 259.811H256.773C260.995 259.811 264.418 263.234 264.418 267.456V359.885C264.418 364.107 260.995 367.53 256.773 367.53H78.2168C73.9948 367.53 70.5722 364.107 70.5722 359.885V267.456C70.5722 263.234 73.9948 259.811 78.2168 259.811Z" fill="#F0F3FF" fill-opacity="0.1"/>
<path d="M78.2053 367.529C78.2053 367.529 77.6901 367.529 76.7076 367.35C75.2508 367.034 73.9155 366.306 72.8613 365.253C72.0926 364.477 71.5 363.546 71.1239 362.521C70.9088 361.929 70.764 361.313 70.6926 360.688C70.6926 360.04 70.6926 359.346 70.6926 358.627C70.6926 355.751 70.6926 352.432 70.6926 348.705C70.6926 333.764 70.7525 312.172 70.7884 285.488C70.7884 282.145 70.7884 278.73 70.7884 275.243V269.947C70.7884 268.162 70.6087 266.353 71.3396 264.699C71.8438 263.447 72.6808 262.357 73.7599 261.546C74.8391 260.735 76.1194 260.234 77.4624 260.098C78.3491 260.038 79.3316 260.098 80.2662 260.098H91.8289H141.938H256.75C257.973 260.096 259.177 260.399 260.253 260.981C261.328 261.563 262.241 262.404 262.909 263.429C263.589 264.444 264.001 265.615 264.107 266.832C264.167 268.03 264.107 269.348 264.107 270.594V314.904C264.107 324.49 264.107 333.916 264.107 343.182V356.889C264.107 358.015 264.107 359.154 264.107 360.256C264.052 361.335 263.766 362.389 263.268 363.348C262.758 364.289 262.05 365.108 261.194 365.751C260.338 366.395 259.354 366.846 258.308 367.074C257.242 367.245 256.162 367.301 255.084 367.242H208.271H164.608L101.391 367.338L84.2083 367.397L101.391 367.457L164.608 367.553H208.271H255.084C256.202 367.611 257.323 367.551 258.427 367.373C259.557 367.13 260.62 366.644 261.543 365.949C262.465 365.253 263.226 364.366 263.771 363.348C264.322 362.319 264.637 361.181 264.694 360.017C264.694 358.818 264.694 357.764 264.694 356.626C264.694 352.108 264.694 347.531 264.694 342.918V314.904C264.694 305.318 264.694 295.553 264.694 285.608V270.63C264.694 269.36 264.694 268.138 264.694 266.82C264.605 265.51 264.193 264.242 263.496 263.13C262.768 262.023 261.781 261.11 260.62 260.47C259.446 259.845 258.139 259.512 256.81 259.499H141.998H91.8888H80.3261C79.3676 259.499 78.4569 259.499 77.4744 259.499C76.5136 259.599 75.5795 259.876 74.7185 260.314C73.0083 261.181 71.6682 262.636 70.9442 264.412C70.5938 265.281 70.407 266.207 70.393 267.144C70.393 268.042 70.393 268.941 70.393 269.84V275.136C70.393 278.618 70.393 282.033 70.393 285.38C70.393 312.064 70.4769 333.656 70.5008 348.598C70.5008 352.324 70.5008 355.643 70.5008 358.519C70.5008 359.238 70.5008 359.921 70.5008 360.592C70.5773 361.231 70.7302 361.858 70.9561 362.461C71.3427 363.502 71.952 364.447 72.7415 365.229C73.8204 366.289 75.1869 367.01 76.6716 367.302C77.0433 367.371 77.4199 367.411 77.7979 367.421L78.2053 367.529Z" fill="white"/>
<path d="M138.584 297.877V299.219H132.976V292.029H138.44V293.371H134.642V294.893H137.997V296.199H134.642V297.877H138.584Z" fill="white"/>
<path d="M146.562 291.982V299.171H145.184L141.589 294.773V299.171H139.936V291.982H141.266L144.86 296.379V291.982H146.562Z" fill="white"/>
<path d="M149.786 293.348H147.461V291.982H153.776V293.348H151.451V299.219H149.786V293.348Z" fill="white"/>
<path d="M160.281 297.877V299.219H154.674V292.029H160.15V293.371H156.339V294.893H159.706V296.199H156.339V297.877H160.281Z" fill="white"/>
<path d="M166.238 299.219L164.836 297.206H163.302V299.219H161.637V292.029H164.776C166.705 292.029 167.915 293.024 167.915 294.653C167.93 295.141 167.795 295.621 167.53 296.03C167.264 296.439 166.88 296.757 166.429 296.942L168.047 299.266L166.238 299.219ZM164.668 293.347H163.302V295.864H164.668C165.687 295.864 166.202 295.396 166.202 294.605C166.202 293.815 165.687 293.347 164.668 293.347Z" fill="white"/>
<path d="M171.701 295.601C171.748 294.82 172.024 294.07 172.493 293.444C172.963 292.819 173.606 292.345 174.343 292.082C175.079 291.819 175.877 291.778 176.637 291.965C177.396 292.152 178.084 292.558 178.615 293.132L177.537 294.127C177.313 293.862 177.034 293.648 176.72 293.501C176.405 293.354 176.062 293.278 175.715 293.276C175.129 293.318 174.581 293.581 174.181 294.011C173.78 294.441 173.558 295.007 173.558 295.595C173.558 296.182 173.78 296.748 174.181 297.178C174.581 297.608 175.129 297.871 175.715 297.913C176.064 297.918 176.408 297.845 176.724 297.697C177.039 297.55 177.317 297.333 177.537 297.062L178.615 298.057C178.087 298.637 177.4 299.047 176.64 299.238C175.88 299.428 175.08 299.39 174.342 299.128C173.603 298.865 172.958 298.39 172.489 297.763C172.019 297.136 171.745 296.383 171.701 295.601Z" fill="white"/>
<path d="M179.143 295.599C179.1 294.806 179.295 294.019 179.705 293.339C180.114 292.658 180.718 292.117 181.438 291.783C182.159 291.45 182.963 291.341 183.746 291.47C184.53 291.599 185.256 291.959 185.832 292.506C186.408 293.052 186.807 293.759 186.977 294.534C187.147 295.31 187.08 296.118 186.786 296.855C186.491 297.592 185.982 298.224 185.324 298.669C184.667 299.114 183.891 299.351 183.097 299.349C182.587 299.379 182.077 299.304 181.597 299.128C181.117 298.953 180.679 298.681 180.308 298.33C179.938 297.978 179.643 297.555 179.443 297.085C179.242 296.615 179.14 296.11 179.143 295.599ZM185.361 295.599C185.352 295.153 185.211 294.72 184.957 294.354C184.702 293.988 184.345 293.705 183.931 293.541C183.516 293.377 183.062 293.339 182.626 293.432C182.19 293.525 181.791 293.744 181.479 294.062C181.167 294.381 180.956 294.785 180.873 295.222C180.789 295.66 180.837 296.113 181.01 296.524C181.182 296.935 181.472 297.286 181.844 297.533C182.215 297.78 182.651 297.911 183.097 297.912C183.4 297.918 183.702 297.863 183.983 297.748C184.264 297.634 184.518 297.463 184.731 297.246C184.943 297.03 185.108 296.771 185.217 296.488C185.325 296.205 185.375 295.902 185.361 295.599Z" fill="white"/>
<path d="M188.332 291.982H191.591C192.544 291.982 193.459 292.36 194.133 293.035C194.807 293.709 195.186 294.623 195.186 295.576C195.186 296.53 194.807 297.444 194.133 298.118C193.459 298.792 192.544 299.171 191.591 299.171H188.308L188.332 291.982ZM191.531 297.841C192.125 297.841 192.695 297.605 193.116 297.185C193.536 296.764 193.772 296.195 193.772 295.6C193.772 295.006 193.536 294.436 193.116 294.016C192.695 293.596 192.125 293.36 191.531 293.36H190.009V297.841H191.531Z" fill="white"/>
<path d="M202.484 297.877V299.219H196.876V292.029H202.376V293.371H198.541V294.893H201.908V296.199H198.541V297.877H202.484Z" fill="white"/>
<path d="M106.772 310.781H89.1704C86.5565 310.781 84.4375 312.899 84.4375 315.513V342.916C84.4375 345.53 86.5565 347.649 89.1704 347.649H106.772C109.386 347.649 111.505 345.53 111.505 342.916V315.513C111.505 312.899 109.386 310.781 106.772 310.781Z" fill="#EBEBEB"/>
<path d="M140.573 310.781H122.971C120.357 310.781 118.238 312.899 118.238 315.513V342.916C118.238 345.53 120.357 347.649 122.971 347.649H140.573C143.187 347.649 145.306 345.53 145.306 342.916V315.513C145.306 312.899 143.187 310.781 140.573 310.781Z" fill="#EBEBEB"/>
<path d="M174.373 310.781H156.772C154.158 310.781 152.039 312.899 152.039 315.513V342.916C152.039 345.53 154.158 347.649 156.772 347.649H174.373C176.987 347.649 179.106 345.53 179.106 342.916V315.513C179.106 312.899 176.987 310.781 174.373 310.781Z" fill="#EBEBEB"/>
<path d="M208.164 310.781H190.562C187.948 310.781 185.829 312.899 185.829 315.513V342.916C185.829 345.53 187.948 347.649 190.562 347.649H208.164C210.778 347.649 212.897 345.53 212.897 342.916V315.513C212.897 312.899 210.778 310.781 208.164 310.781Z" fill="#EBEBEB"/>
<path d="M241.964 310.781H224.363C221.749 310.781 219.63 312.899 219.63 315.513V342.916C219.63 345.53 221.749 347.649 224.363 347.649H241.964C244.578 347.649 246.697 345.53 246.697 342.916V315.513C246.697 312.899 244.578 310.781 241.964 310.781Z" fill="#EBEBEB"/>
<path d="M103.872 332.037C103.872 334.661 101.835 336.374 99.0793 336.374C95.293 336.374 93.292 333.655 93.292 329.185C93.292 324.32 95.8921 321.804 99.6904 321.804C100.828 321.753 101.958 322.01 102.962 322.547L102.53 323.386C101.662 322.91 100.68 322.682 99.6904 322.727C96.4673 322.727 94.3465 324.848 94.3465 329.029C94.3461 329.607 94.3861 330.183 94.4662 330.755C94.8034 329.828 95.4344 329.038 96.263 328.503C97.0916 327.969 98.0723 327.72 99.0554 327.795C101.931 327.795 103.872 329.473 103.872 332.037ZM102.818 332.037C102.818 329.988 101.344 328.646 98.9116 328.646C98.4203 328.591 97.923 328.639 97.4507 328.785C96.9785 328.931 96.5415 329.173 96.167 329.496C95.7925 329.818 95.4886 330.215 95.2743 330.66C95.06 331.106 94.94 331.591 94.9216 332.085C94.9216 333.774 96.3354 335.452 99.0314 335.452C99.51 335.504 99.9944 335.455 100.453 335.307C100.911 335.159 101.332 334.916 101.69 334.593C102.048 334.271 102.333 333.876 102.527 333.436C102.722 332.995 102.821 332.518 102.818 332.037Z" fill="#EB5454"/>
<path d="M137.303 332.312H134.284V336.302H133.253V332.312H125.045V331.557L132.858 321.911H134.056L126.387 331.389H133.301V327.878H134.308V331.389H137.327L137.303 332.312Z" fill="#EB5454"/>
<path d="M172.158 338.35C167.986 338.766 163.784 338.766 159.612 338.35C163.784 337.935 167.986 337.935 172.158 338.35Z" fill="#EB5454"/>
<path d="M252.113 273.506C250.492 273.506 249.177 272.191 249.177 270.57C249.177 268.949 250.492 267.635 252.113 267.635C253.734 267.635 255.049 268.949 255.049 270.57C255.049 272.191 253.734 273.506 252.113 273.506Z" fill="white"/>
<path d="M240.718 270.57C240.718 271.151 240.89 271.718 241.212 272.201C241.535 272.684 241.993 273.06 242.53 273.282C243.066 273.504 243.656 273.563 244.226 273.449C244.795 273.336 245.318 273.056 245.729 272.646C246.139 272.235 246.419 271.712 246.532 271.143C246.646 270.573 246.587 269.983 246.365 269.447C246.143 268.91 245.767 268.452 245.284 268.129C244.801 267.807 244.234 267.635 243.653 267.635C242.875 267.635 242.128 267.944 241.577 268.494C241.027 269.045 240.718 269.792 240.718 270.57Z" fill="white"/>
<path d="M235.351 273.506C233.729 273.506 232.415 272.191 232.415 270.57C232.415 268.949 233.729 267.635 235.351 267.635C236.972 267.635 238.286 268.949 238.286 270.57C238.286 272.191 236.972 273.506 235.351 273.506Z" fill="white"/>
<path d="M70.2723 278.838C70.2723 279.006 113.683 279.149 167.207 279.149C220.731 279.149 264.142 279.006 264.142 278.838C264.142 278.67 220.755 278.526 167.207 278.526C113.659 278.526 70.2723 278.658 70.2723 278.838Z" fill="white"/>
<path d="M105.873 23.249H319.92C324.261 23.249 327.78 26.7682 327.78 31.1093V228.034C327.78 232.375 324.261 235.895 319.92 235.895H105.873C101.532 235.895 98.0124 232.375 98.0124 228.034V31.1093C98.0124 26.7682 101.532 23.249 105.873 23.249Z" fill="#EB5454"/>
<path d="M105.873 235.896H105.31C104.754 235.85 104.204 235.745 103.669 235.584C102.624 235.265 101.658 234.729 100.832 234.013C100.007 233.297 99.3402 232.416 98.876 231.427C98.2307 229.942 97.975 228.317 98.133 226.706C98.133 224.92 98.133 222.955 98.133 220.835C98.133 216.593 98.133 211.692 98.133 206.18C98.133 184.133 98.193 152.261 98.2409 112.816C98.2409 93.1058 98.2409 71.5261 98.2409 48.3408C98.2409 42.5575 98.2409 36.6743 98.2409 30.6912C98.3309 29.2284 98.8427 27.823 99.7146 26.645C100.586 25.4669 101.781 24.5667 103.154 24.0532C104.581 23.6018 106.084 23.4388 107.575 23.5739H150.339H319.897C321.696 23.5843 323.433 24.2341 324.798 25.4071C326.207 26.5974 327.129 28.2653 327.386 30.0921C327.468 31.0083 327.496 31.9285 327.47 32.848V106.622C327.47 134.983 327.47 162.338 327.47 188.399C327.47 201.436 327.47 214.133 327.47 226.49C327.47 227.257 327.47 228.048 327.47 228.779C327.401 229.514 327.227 230.237 326.955 230.923C326.4 232.299 325.454 233.482 324.235 234.326C323.027 235.169 321.597 235.636 320.125 235.668H297.946H233.47L140.106 235.776H114.728L140.106 235.836L233.47 235.932H297.946H320.137C321.72 235.892 323.256 235.39 324.557 234.487C325.858 233.584 326.867 232.32 327.458 230.852C327.752 230.115 327.941 229.34 328.021 228.551C328.081 227.736 328.021 226.993 328.021 226.214C328.021 213.857 328.021 201.16 328.021 188.123C328.021 162.062 328.021 134.707 328.021 106.346C328.021 92.1592 328.021 77.7368 328.021 63.0787V32.7881C328.054 31.8404 328.022 30.8916 327.925 29.9483C327.662 27.9996 326.689 26.2164 325.193 24.9398C323.724 23.6555 321.848 22.9338 319.897 22.9029H150.339H107.647C106.089 22.7685 104.521 22.9478 103.034 23.4301C101.565 23.9801 100.286 24.9437 99.3525 26.2046C98.4191 27.4655 97.8707 28.9697 97.7736 30.5355C97.7736 36.5265 97.7736 42.4217 97.7736 48.221C97.7736 71.4063 97.7736 92.9859 97.7736 112.696C97.7736 152.117 97.8455 184.014 97.8694 206.061C97.8694 211.572 97.8694 216.473 97.8694 220.715C97.8694 222.835 97.8694 224.801 97.8694 226.586C97.7171 228.225 97.9895 229.876 98.6603 231.379C99.2615 232.638 100.188 233.715 101.345 234.496C102.501 235.278 103.845 235.736 105.238 235.824L105.873 235.896Z" fill="#263238"/>
<path d="M310.419 37.9888C310.419 38.7761 310.653 39.5457 311.091 40.2001C311.528 40.8546 312.15 41.3644 312.878 41.6652C313.606 41.9659 314.406 42.044 315.178 41.8895C315.95 41.735 316.659 41.355 317.215 40.7974C317.77 40.2399 318.148 39.53 318.301 38.7575C318.453 37.9851 318.372 37.1848 318.069 36.4581C317.766 35.7315 317.255 35.111 316.599 34.6753C315.943 34.2397 315.173 34.0084 314.386 34.0108C313.864 34.0108 313.347 34.1137 312.865 34.3138C312.383 34.5139 311.945 34.8071 311.577 35.1766C311.208 35.5462 310.917 35.9848 310.718 36.4674C310.519 36.9499 310.418 37.467 310.419 37.9888Z" fill="white"/>
<path d="M302.811 41.9553C300.62 41.9553 298.845 40.1797 298.845 37.9893C298.845 35.7989 300.62 34.0232 302.811 34.0232C305.001 34.0232 306.777 35.7989 306.777 37.9893C306.777 40.1797 305.001 41.9553 302.811 41.9553Z" fill="white"/>
<path d="M291.212 41.9553C289.021 41.9553 287.246 40.1797 287.246 37.9893C287.246 35.7989 289.021 34.0232 291.212 34.0232C293.402 34.0232 295.178 35.7989 295.178 37.9893C295.178 40.1797 293.402 41.9553 291.212 41.9553Z" fill="white"/>
<path d="M98.0124 49.2632C98.0124 49.4429 149.451 49.5747 212.896 49.5747C276.341 49.5747 327.78 49.4429 327.78 49.2632C327.78 49.0835 276.353 48.9517 212.896 48.9517C149.439 48.9517 98.0124 49.0835 98.0124 49.2632Z" fill="#263238"/>
<path d="M180.438 129.365C180.438 129.365 180.354 129.234 180.163 128.994L180.007 128.79L179.851 128.515C179.719 128.292 179.602 128.059 179.504 127.82C179.504 127.688 179.384 127.544 179.336 127.388L179.192 126.885C179.14 126.7 179.1 126.512 179.072 126.322C179.072 126.118 179 125.915 178.988 125.699C178.91 124.702 178.959 123.7 179.132 122.715C179.637 120.021 180.558 117.421 181.864 115.011C183.548 111.794 185.517 108.734 187.747 105.869C190.432 102.384 193.359 99.0924 196.506 96.0193C200.11 92.4821 203.957 89.2029 208.021 86.206C210.166 84.6243 212.43 83.0906 214.815 81.6528C217.246 80.1676 219.772 78.8428 222.375 77.6867C225.052 76.4651 227.869 75.5797 230.763 75.0507C232.243 74.7872 233.754 74.7508 235.244 74.9428C235.993 75.0491 236.722 75.2588 237.413 75.5659C238.09 75.8985 238.703 76.3488 239.222 76.8959C239.718 77.4698 240.1 78.1326 240.349 78.849C240.574 79.5714 240.699 80.3213 240.72 81.0777C240.74 82.5817 240.534 84.0801 240.109 85.523C239.25 88.3458 238.042 91.0506 236.514 93.5749C235.074 96.0306 233.473 98.3882 231.722 100.632C230.02 102.837 228.235 104.922 226.425 106.875C222.984 110.572 219.284 114.019 215.354 117.192C211.944 119.972 208.34 122.507 204.57 124.776C201.469 126.662 198.205 128.266 194.817 129.569C192.27 130.585 189.583 131.207 186.849 131.414C185.854 131.463 184.856 131.395 183.877 131.211C183.661 131.211 183.47 131.103 183.278 131.055C183.091 131.006 182.907 130.946 182.727 130.875L182.248 130.671L181.828 130.456C181.6 130.332 181.383 130.187 181.181 130.024L180.93 129.845L180.738 129.665C180.522 129.449 180.402 129.353 180.402 129.353L180.726 129.677L180.918 129.857L181.157 130.048C181.362 130.214 181.583 130.358 181.816 130.48L182.212 130.743L182.703 130.947C182.878 131.021 183.058 131.081 183.242 131.127C183.442 131.195 183.646 131.251 183.853 131.294C184.838 131.496 185.845 131.569 186.849 131.51C189.59 131.324 192.286 130.713 194.841 129.701C198.241 128.399 201.517 126.795 204.63 124.908C208.4 122.638 212.003 120.103 215.414 117.323C219.355 114.155 223.063 110.707 226.509 107.007C228.319 105.054 230.104 102.969 231.817 100.764C233.565 98.5086 235.166 96.1433 236.61 93.6828C238.14 91.1468 239.348 88.4298 240.205 85.5949C240.641 84.1337 240.851 82.6144 240.828 81.0896C240.803 80.3209 240.674 79.5592 240.444 78.825C240.172 78.0824 239.766 77.396 239.246 76.8001C238.715 76.2307 238.081 75.7672 237.377 75.4341C236.671 75.1191 235.925 74.9014 235.16 74.7871C233.65 74.5949 232.119 74.6312 230.619 74.8949C227.704 75.4283 224.867 76.3218 222.172 77.5549C219.563 78.7125 217.033 80.0414 214.599 81.533C212.203 82.9708 209.938 84.5045 207.793 86.0981C203.724 89.1004 199.875 92.392 196.279 95.9474C193.124 99.0257 190.193 102.325 187.508 105.821C185.284 108.694 183.323 111.762 181.648 114.987C180.346 117.41 179.428 120.022 178.929 122.727C178.762 123.721 178.721 124.731 178.809 125.735C178.827 125.94 178.859 126.145 178.905 126.346C178.924 126.537 178.964 126.726 179.024 126.909L179.168 127.424C179.219 127.572 179.279 127.716 179.348 127.856C179.438 128.101 179.559 128.335 179.707 128.551C179.749 128.648 179.802 128.74 179.863 128.826L180.019 129.03L180.438 129.365Z" fill="white"/>
<path d="M169.571 103.1V102.645V102.394C169.571 102.298 169.571 102.202 169.631 102.082C169.673 101.824 169.741 101.571 169.835 101.327C169.835 101.195 169.931 101.04 169.991 100.896L170.23 100.416C170.308 100.243 170.404 100.078 170.518 99.9252C170.621 99.7454 170.737 99.5732 170.865 99.41C171.462 98.609 172.163 97.8917 172.95 97.2772C175.129 95.6039 177.555 94.2781 180.139 93.3471C183.535 92.0632 187.04 91.0886 190.612 90.4354C194.96 89.6193 199.36 89.1147 203.78 88.9257C208.826 88.6798 213.883 88.7879 218.913 89.2492C221.561 89.5008 224.269 89.8723 227.013 90.3875C229.816 90.893 232.582 91.5856 235.293 92.4604C238.11 93.3137 240.808 94.5216 243.321 96.055C244.601 96.8405 245.753 97.8185 246.736 98.9547C247.222 99.5309 247.625 100.172 247.934 100.86C248.23 101.558 248.393 102.306 248.413 103.065C248.39 103.821 248.231 104.568 247.946 105.269C247.633 105.955 247.23 106.595 246.748 107.174C245.758 108.311 244.603 109.293 243.321 110.086C240.804 111.612 238.108 112.82 235.293 113.681C232.579 114.544 229.814 115.237 227.013 115.754C224.269 116.269 221.561 116.628 218.913 116.88C213.883 117.351 208.826 117.463 203.78 117.215C199.359 117.039 194.955 116.558 190.6 115.777C187.028 115.124 183.523 114.15 180.128 112.866C177.547 111.925 175.123 110.6 172.938 108.936C172.154 108.318 171.453 107.601 170.853 106.803C170.725 106.636 170.609 106.459 170.506 106.276C170.392 106.123 170.296 105.958 170.218 105.784L169.979 105.317C169.919 105.161 169.871 105.018 169.823 104.874C169.728 104.63 169.659 104.377 169.619 104.119C169.619 104.011 169.619 103.915 169.559 103.819V103.568V103.1C169.559 103.1 169.559 103.256 169.559 103.568V103.819C169.559 103.915 169.559 104.011 169.559 104.131C169.596 104.389 169.661 104.642 169.751 104.886C169.751 105.03 169.847 105.173 169.907 105.329L170.134 105.808C170.219 105.982 170.315 106.15 170.422 106.312C170.528 106.49 170.644 106.662 170.77 106.827C171.365 107.636 172.066 108.361 172.854 108.984C175.03 110.671 177.456 112.009 180.044 112.95C183.442 114.248 186.951 115.235 190.528 115.897C194.88 116.716 199.284 117.229 203.708 117.431C208.758 117.687 213.819 117.583 218.854 117.119C221.514 116.868 224.233 116.508 226.977 115.993C229.785 115.475 232.559 114.783 235.281 113.92C238.109 113.065 240.818 111.857 243.345 110.326C244.642 109.529 245.809 108.539 246.808 107.39C247.294 106.796 247.697 106.139 248.006 105.437C248.329 104.722 248.497 103.946 248.497 103.16C248.497 102.375 248.329 101.599 248.006 100.884C247.692 100.184 247.289 99.5275 246.808 98.9307C245.799 97.7832 244.624 96.7936 243.321 95.9951C240.789 94.4659 238.076 93.2584 235.245 92.4005C232.53 91.527 229.76 90.8345 226.953 90.3276C224.198 89.8124 221.49 89.4529 218.83 89.2013C213.829 88.7148 208.8 88.5827 203.78 88.8059C199.355 89.006 194.951 89.5225 190.6 90.3516C187.023 91.0082 183.513 91.9908 180.116 93.2872C177.528 94.2279 175.102 95.566 172.926 97.2532C172.141 97.8788 171.44 98.6038 170.841 99.41C170.713 99.5773 170.597 99.7534 170.494 99.9372C170.385 100.097 170.289 100.265 170.206 100.44L169.979 100.908C169.919 101.064 169.871 101.219 169.823 101.351C169.732 101.599 169.668 101.856 169.631 102.118C169.631 102.226 169.631 102.334 169.631 102.417V102.681C169.571 102.945 169.571 103.1 169.571 103.1Z" fill="white"/>
<path d="M183.974 70.423L184.369 70.1713L184.585 70.0275C184.673 69.9767 184.765 69.9326 184.86 69.8957C185.089 69.771 185.33 69.6706 185.579 69.5962C185.723 69.5962 185.867 69.4883 186.023 69.4524L186.538 69.3446C186.724 69.304 186.912 69.276 187.101 69.2607C187.309 69.2484 187.517 69.2484 187.724 69.2607C188.725 69.248 189.723 69.3607 190.696 69.5962C193.347 70.3001 195.876 71.4031 198.196 72.8673C201.292 74.7615 204.208 76.9353 206.907 79.3616C210.201 82.2798 213.284 85.4269 216.134 88.7795C219.418 92.6147 222.425 96.6789 225.132 100.941C226.546 103.182 227.936 105.578 229.206 107.975C230.523 110.5 231.672 113.11 232.645 115.787C233.675 118.548 234.364 121.425 234.694 124.354C234.854 125.85 234.785 127.361 234.49 128.835C234.326 129.574 234.064 130.287 233.711 130.956C233.34 131.617 232.849 132.202 232.261 132.682C231.651 133.126 230.965 133.455 230.236 133.652C229.503 133.83 228.75 133.906 227.996 133.88C226.492 133.796 225.009 133.485 223.598 132.957C220.841 131.912 218.225 130.527 215.81 128.835C213.461 127.226 211.22 125.465 209.1 123.563C207.015 121.706 205.062 119.789 203.241 117.848C199.794 114.158 196.611 110.23 193.715 106.094C191.176 102.501 188.894 98.7329 186.885 94.8184C185.211 91.5987 183.831 88.234 182.764 84.7655C181.925 82.1509 181.493 79.4232 181.481 76.6776C181.485 75.6813 181.622 74.6899 181.889 73.73C181.889 73.5143 182.021 73.3226 182.081 73.1309C182.14 72.9392 182.212 72.7714 182.296 72.6037L182.524 72.1364C182.608 71.9926 182.704 71.8608 182.776 71.741C182.912 71.5161 183.072 71.3071 183.255 71.1179L183.447 70.8783L183.638 70.7105L183.974 70.399L183.626 70.6985L183.435 70.8663C183.361 70.9367 183.293 71.0128 183.231 71.0939C183.05 71.2848 182.89 71.4935 182.752 71.717C182.668 71.8488 182.572 71.9686 182.488 72.1124L182.26 72.5917C182.168 72.7598 182.092 72.9364 182.033 73.1189C181.973 73.3106 181.889 73.5023 181.841 73.718C181.564 74.6806 181.419 75.6761 181.41 76.6776C181.405 79.4305 181.83 82.1672 182.668 84.7894C183.731 88.2675 185.102 91.6439 186.766 94.8783C188.773 98.8007 191.056 102.576 193.595 106.177C196.484 110.327 199.667 114.263 203.121 117.956C204.942 119.909 206.895 121.838 208.992 123.695C211.116 125.6 213.362 127.365 215.714 128.979C218.138 130.684 220.767 132.076 223.538 133.125C224.965 133.658 226.464 133.973 227.984 134.06C228.757 134.086 229.531 134.009 230.284 133.832C231.035 133.62 231.741 133.275 232.369 132.814C232.975 132.321 233.483 131.72 233.867 131.04C234.229 130.356 234.499 129.627 234.67 128.871C234.961 127.38 235.025 125.853 234.862 124.342C234.537 121.396 233.845 118.501 232.801 115.727C231.828 113.046 230.679 110.433 229.362 107.903C228.08 105.411 226.702 103.038 225.276 100.785C222.553 96.525 219.534 92.461 216.241 88.6237C213.386 85.2717 210.295 82.1283 206.991 79.2178C204.277 76.7943 201.349 74.6207 198.244 72.7235C195.913 71.2657 193.371 70.1746 190.708 69.4883C189.732 69.2471 188.729 69.1343 187.724 69.1529C187.508 69.1529 187.305 69.1529 187.101 69.1529C186.908 69.1673 186.715 69.1953 186.526 69.2367L186.011 69.3446L185.567 69.5003C185.317 69.5784 185.076 69.6828 184.848 69.8119C184.753 69.8487 184.661 69.8928 184.573 69.9437L184.357 70.0994L183.974 70.423Z" fill="white"/>
<path d="M248.892 119.383C248.688 119.588 248.55 119.848 248.494 120.131C248.438 120.415 248.468 120.708 248.578 120.975C248.689 121.242 248.877 121.469 249.117 121.63C249.357 121.79 249.639 121.876 249.928 121.876C250.217 121.876 250.499 121.79 250.74 121.63C250.98 121.469 251.167 121.242 251.278 120.975C251.389 120.708 251.418 120.415 251.363 120.131C251.307 119.848 251.168 119.588 250.965 119.383C250.829 119.246 250.667 119.138 250.489 119.064C250.312 118.99 250.121 118.952 249.928 118.952C249.736 118.952 249.545 118.99 249.367 119.064C249.189 119.138 249.028 119.246 248.892 119.383Z" fill="#EB5454"/>
<path d="M166.227 73.9819C166.224 74.2739 166.309 74.56 166.469 74.8039C166.63 75.0478 166.859 75.2386 167.128 75.352C167.397 75.4654 167.694 75.4963 167.981 75.4408C168.267 75.3853 168.531 75.2459 168.738 75.0402C168.946 74.8346 169.087 74.572 169.145 74.2858C169.203 73.9996 169.175 73.7027 169.063 73.4327C168.952 73.1627 168.763 72.9318 168.521 72.7693C168.278 72.6068 167.993 72.5201 167.701 72.5201C167.508 72.5185 167.316 72.5551 167.138 72.6279C166.959 72.7006 166.796 72.8081 166.659 72.944C166.522 73.0799 166.413 73.2415 166.339 73.4197C166.265 73.5978 166.227 73.7889 166.227 73.9819Z" fill="#EB5454"/>
<path d="M239.64 124.199C239.64 124.272 239.662 124.344 239.703 124.405C239.744 124.466 239.802 124.514 239.87 124.542C239.938 124.57 240.013 124.578 240.085 124.563C240.157 124.549 240.223 124.514 240.275 124.462C240.327 124.41 240.362 124.343 240.377 124.271C240.391 124.199 240.384 124.125 240.355 124.057C240.327 123.989 240.28 123.931 240.219 123.89C240.157 123.849 240.086 123.827 240.012 123.827C239.914 123.827 239.819 123.866 239.749 123.936C239.68 124.006 239.64 124.1 239.64 124.199Z" fill="#EB5454"/>
<path d="M231.697 83.1456C231.697 83.2191 231.719 83.291 231.76 83.3521C231.801 83.4132 231.859 83.4609 231.927 83.489C231.995 83.5171 232.069 83.5245 232.141 83.5101C232.213 83.4958 232.28 83.4604 232.332 83.4084C232.384 83.3564 232.419 83.2902 232.433 83.2181C232.448 83.146 232.44 83.0713 232.412 83.0034C232.384 82.9355 232.337 82.8774 232.275 82.8366C232.214 82.7957 232.142 82.7739 232.069 82.7739C231.97 82.7739 231.876 82.8131 231.806 82.8828C231.736 82.9525 231.697 83.047 231.697 83.1456Z" fill="#EB5454"/>
<path d="M173.596 103.098C173.596 103.196 173.635 103.291 173.705 103.361C173.775 103.43 173.869 103.469 173.968 103.469C174.066 103.469 174.161 103.43 174.231 103.361C174.3 103.291 174.339 103.196 174.339 103.098C174.339 102.999 174.3 102.905 174.231 102.835C174.161 102.765 174.066 102.726 173.968 102.726C173.869 102.726 173.775 102.765 173.705 102.835C173.635 102.905 173.596 102.999 173.596 103.098Z" fill="#EB5454"/>
<path d="M168.42 85.7476C168.42 85.8462 168.46 85.9408 168.529 86.0105C168.599 86.0802 168.694 86.1193 168.792 86.1193C168.891 86.1193 168.985 86.0802 169.055 86.0105C169.125 85.9408 169.164 85.8462 169.164 85.7476C169.164 85.6491 169.125 85.5545 169.055 85.4848C168.985 85.4151 168.891 85.376 168.792 85.376C168.694 85.376 168.599 85.4151 168.529 85.4848C168.46 85.5545 168.42 85.6491 168.42 85.7476Z" fill="#EB5454"/>
<path d="M193.511 111.284H198.112V86.2291C198.112 83.3913 199.239 80.6697 201.246 78.663C203.252 76.6564 205.974 75.5291 208.812 75.5291C211.65 75.5291 214.371 76.6564 216.378 78.663C218.384 80.6697 219.512 83.3913 219.512 86.2291V111.284H224.149V86.2291C224.149 82.171 222.537 78.2791 219.667 75.4096C216.798 72.54 212.906 70.928 208.848 70.928C204.79 70.928 200.898 72.54 198.028 75.4096C195.159 78.2791 193.547 82.171 193.547 86.2291L193.511 111.284Z" fill="#EB5454"/>
<g opacity="0.3">
<path d="M193.511 111.285H198.112V86.2303C198.112 83.3925 199.239 80.6709 201.246 78.6643C203.252 76.6576 205.974 75.5303 208.812 75.5303C211.65 75.5303 214.371 76.6576 216.378 78.6643C218.384 80.6709 219.512 83.3925 219.512 86.2303V111.285H224.149V86.2303C224.149 82.1722 222.537 78.2803 219.667 75.4108C216.798 72.5413 212.906 70.9292 208.848 70.9292C204.79 70.9292 200.898 72.5413 198.028 75.4108C195.159 78.2803 193.547 82.1722 193.547 86.2303L193.511 111.285Z" fill="#090E12"/>
</g>
<path d="M190.886 100.137H226.736C228.225 100.137 229.432 101.344 229.432 102.833V123.898C229.432 125.387 228.225 126.594 226.736 126.594H190.886C189.397 126.594 188.19 125.387 188.19 123.898V102.833C188.19 101.344 189.397 100.137 190.886 100.137Z" fill="white"/>
<g opacity="0.3">
<path d="M205.36 109.927C205.355 109.283 205.53 108.651 205.865 108.102C206.2 107.553 206.682 107.108 207.257 106.819C207.831 106.529 208.475 106.406 209.116 106.463C209.757 106.519 210.369 106.754 210.884 107.141C211.398 107.527 211.794 108.05 212.027 108.65C212.26 109.249 212.321 109.902 212.203 110.535C212.084 111.167 211.792 111.754 211.357 112.229C210.923 112.703 210.365 113.047 209.746 113.222V118.374H207.876V113.222C207.155 113.023 206.518 112.593 206.063 111.998C205.609 111.403 205.362 110.675 205.36 109.927Z" fill="#090E12"/>
</g>
<path d="M227.228 124.093C227.324 124.093 227.408 119.684 227.408 114.244C227.408 108.804 227.324 104.383 227.228 104.383C227.133 104.383 227.061 108.792 227.061 114.244C227.061 119.696 227.145 124.093 227.228 124.093Z" fill="#FAFAFA"/>
<path d="M211.506 114.339C211.506 114.339 211.674 114.339 211.914 114.111C212.253 113.858 212.552 113.555 212.8 113.212C213.237 112.648 213.542 111.992 213.693 111.294C213.843 110.597 213.836 109.874 213.672 109.179C213.508 108.484 213.191 107.835 212.743 107.279C212.296 106.722 211.73 106.273 211.087 105.963C210.712 105.762 210.307 105.621 209.889 105.544C209.734 105.515 209.576 105.515 209.421 105.544C209.951 105.724 210.467 105.94 210.967 106.191C211.552 106.514 212.063 106.955 212.467 107.487C212.872 108.018 213.16 108.629 213.315 109.279C213.469 109.928 213.486 110.603 213.365 111.26C213.243 111.917 212.986 112.541 212.609 113.093C212.275 113.537 211.907 113.954 211.506 114.339Z" fill="#FAFAFA"/>
<path d="M147.582 149.278H274.556C280.724 149.278 285.723 154.278 285.723 160.445V161.811C285.723 167.979 280.724 172.979 274.556 172.979H147.582C141.415 172.979 136.415 167.979 136.415 161.811V160.445C136.415 154.278 141.415 149.278 147.582 149.278Z" fill="#F5F5F5"/>
<path d="M146.492 181.772H273.466C279.633 181.772 284.633 186.771 284.633 192.939V194.305C284.633 200.472 279.633 205.472 273.466 205.472H146.492C140.325 205.472 135.325 200.472 135.325 194.305V192.939C135.325 186.771 140.325 181.772 146.492 181.772Z" fill="#F5F5F5"/>
<path d="M165.144 160.932V157.506H166.57V160.885C166.57 162.083 167.074 162.526 167.936 162.526C168.799 162.526 169.302 162.047 169.302 160.885V157.506H170.704V160.932C170.704 161.67 170.411 162.377 169.89 162.898C169.369 163.419 168.661 163.712 167.924 163.712C167.187 163.712 166.48 163.419 165.959 162.898C165.437 162.377 165.144 161.67 165.144 160.932Z" fill="#263238"/>
<path d="M171.553 163.199L171.997 162.216C172.494 162.512 173.06 162.669 173.638 162.671C174.273 162.671 174.501 162.504 174.501 162.24C174.501 161.473 171.661 162.24 171.661 160.383C171.661 159.484 172.464 158.849 173.842 158.849C174.47 158.839 175.092 158.983 175.651 159.268L175.196 160.239C174.784 160.004 174.316 159.884 173.842 159.892C173.231 159.892 172.967 160.083 172.967 160.323C172.967 161.126 175.807 160.323 175.807 162.204C175.807 163.079 175.004 163.702 173.59 163.702C172.879 163.718 172.176 163.544 171.553 163.199Z" fill="#263238"/>
<path d="M181.248 161.665H177.653C177.727 161.96 177.904 162.218 178.153 162.392C178.402 162.566 178.705 162.644 179.007 162.612C179.227 162.621 179.447 162.586 179.653 162.508C179.859 162.429 180.047 162.31 180.205 162.156L180.936 162.947C180.686 163.206 180.384 163.407 180.048 163.537C179.713 163.667 179.354 163.724 178.995 163.702C178.656 163.745 178.312 163.715 177.986 163.613C177.66 163.512 177.359 163.343 177.104 163.116C176.848 162.889 176.644 162.61 176.506 162.298C176.367 161.985 176.297 161.647 176.299 161.306C176.299 160.981 176.365 160.659 176.492 160.36C176.62 160.061 176.808 159.791 177.043 159.567C177.278 159.343 177.557 159.169 177.862 159.056C178.166 158.943 178.491 158.893 178.816 158.909C179.135 158.901 179.453 158.957 179.751 159.074C180.049 159.191 180.32 159.366 180.549 159.59C180.778 159.813 180.96 160.08 181.084 160.375C181.208 160.669 181.272 160.986 181.272 161.306C181.272 161.402 181.248 161.545 181.248 161.665ZM177.653 160.862H179.966C179.897 160.608 179.746 160.384 179.537 160.225C179.328 160.065 179.073 159.978 178.81 159.978C178.547 159.978 178.291 160.065 178.082 160.225C177.873 160.384 177.722 160.608 177.653 160.862Z" fill="#263238"/>
<path d="M185.154 158.849V160.119H184.842C184.674 160.118 184.508 160.153 184.354 160.22C184.201 160.288 184.063 160.387 183.95 160.511C183.837 160.636 183.751 160.782 183.699 160.942C183.646 161.101 183.627 161.27 183.644 161.437V163.654H182.278V158.945H183.584V159.496C183.777 159.273 184.019 159.098 184.292 158.985C184.565 158.873 184.86 158.826 185.154 158.849Z" fill="#263238"/>
<path d="M190.737 160.935V163.631H189.371V161.15C189.371 160.384 189.023 160.036 188.412 160.036C187.801 160.036 187.286 160.443 187.286 161.306V163.631H185.92V158.922H187.226V159.497C187.428 159.291 187.671 159.129 187.939 159.022C188.208 158.915 188.495 158.864 188.784 158.874C189.054 158.856 189.325 158.898 189.578 158.997C189.83 159.096 190.058 159.249 190.244 159.446C190.43 159.643 190.571 159.878 190.656 160.135C190.742 160.393 190.769 160.666 190.737 160.935Z" fill="#263238"/>
<path d="M196.141 160.944V163.628H194.859V163.089C194.701 163.318 194.484 163.5 194.231 163.616C193.978 163.732 193.698 163.778 193.421 163.748C192.319 163.748 191.66 163.137 191.66 162.322C191.66 161.507 192.247 160.908 193.685 160.908H194.74C194.74 160.333 194.392 159.985 193.649 159.985C193.162 159.984 192.687 160.139 192.295 160.429L191.804 159.47C192.41 159.078 193.12 158.878 193.841 158.895C195.303 158.847 196.141 159.494 196.141 160.944ZM194.775 162.142V161.663H193.841C193.194 161.663 193.002 161.903 193.002 162.214C193.002 162.526 193.29 162.789 193.769 162.789C193.978 162.796 194.184 162.737 194.358 162.621C194.531 162.505 194.665 162.337 194.74 162.142H194.775Z" fill="#263238"/>
<path d="M205.333 160.934V163.63H203.967V161.15C203.967 160.383 203.632 160.036 203.081 160.036C202.53 160.036 202.038 160.431 202.038 161.234V163.63H200.732V161.15C200.732 160.383 200.409 160.036 199.834 160.036C199.258 160.036 198.803 160.431 198.803 161.234V163.63H197.377V158.921H198.683V159.496C198.869 159.291 199.097 159.129 199.351 159.022C199.606 158.914 199.881 158.863 200.157 158.873C200.462 158.859 200.765 158.924 201.037 159.06C201.31 159.196 201.543 159.4 201.715 159.652C201.918 159.399 202.178 159.196 202.473 159.061C202.769 158.926 203.092 158.862 203.416 158.873C203.685 158.857 203.954 158.9 204.204 159C204.454 159.1 204.679 159.254 204.862 159.451C205.045 159.648 205.183 159.883 205.264 160.14C205.346 160.396 205.369 160.667 205.333 160.934Z" fill="#263238"/>
<path d="M211.203 161.665H207.609C207.67 161.964 207.842 162.229 208.092 162.404C208.341 162.58 208.648 162.655 208.951 162.612C209.171 162.621 209.39 162.585 209.596 162.507C209.802 162.429 209.99 162.309 210.149 162.156L210.868 162.947C210.619 163.207 210.316 163.409 209.981 163.539C209.645 163.67 209.286 163.725 208.927 163.702C208.589 163.743 208.246 163.711 207.921 163.609C207.596 163.507 207.297 163.337 207.043 163.111C206.789 162.884 206.586 162.606 206.448 162.294C206.31 161.983 206.24 161.646 206.243 161.306C206.242 160.981 206.308 160.659 206.436 160.36C206.564 160.061 206.751 159.791 206.986 159.567C207.222 159.343 207.5 159.169 207.805 159.056C208.11 158.943 208.434 158.893 208.759 158.909C209.394 158.909 210.004 159.162 210.453 159.611C210.903 160.061 211.155 160.67 211.155 161.306C211.227 161.402 211.215 161.545 211.203 161.665ZM207.609 160.862H209.933C209.894 160.579 209.749 160.32 209.526 160.14C209.303 159.96 209.021 159.871 208.735 159.892C208.462 159.887 208.197 159.983 207.991 160.163C207.785 160.342 207.653 160.591 207.621 160.862H207.609Z" fill="#263238"/>
<path d="M220.238 161.234C220.238 162.804 219.519 163.703 218.44 163.703C218.185 163.72 217.931 163.654 217.715 163.516C217.5 163.378 217.334 163.175 217.242 162.936C217.083 163.185 216.861 163.388 216.597 163.522C216.334 163.657 216.04 163.719 215.744 163.703C215.196 163.646 214.689 163.387 214.32 162.978C213.951 162.569 213.747 162.037 213.747 161.486C213.747 160.935 213.951 160.403 214.32 159.994C214.689 159.585 215.196 159.326 215.744 159.269C215.998 159.257 216.251 159.304 216.484 159.406C216.717 159.508 216.923 159.662 217.086 159.856V159.341H218.285V162.169C218.285 162.588 218.464 162.732 218.704 162.732C218.944 162.732 219.351 162.265 219.351 161.258C219.356 160.84 219.273 160.426 219.108 160.042C218.943 159.658 218.698 159.313 218.391 159.029C218.084 158.745 217.72 158.53 217.324 158.396C216.928 158.261 216.508 158.212 216.092 158.251C215.25 158.251 214.442 158.585 213.847 159.181C213.251 159.776 212.917 160.584 212.917 161.426C212.917 162.268 213.251 163.076 213.847 163.671C214.442 164.267 215.25 164.601 216.092 164.601C216.688 164.601 217.277 164.47 217.817 164.218L218.093 165.021C217.465 165.308 216.782 165.451 216.092 165.44C215.547 165.47 215.002 165.388 214.49 165.2C213.978 165.012 213.509 164.722 213.113 164.347C212.717 163.972 212.401 163.52 212.186 163.019C211.97 162.517 211.859 161.978 211.859 161.432C211.859 160.886 211.97 160.347 212.186 159.845C212.401 159.344 212.717 158.892 213.113 158.517C213.509 158.142 213.978 157.852 214.49 157.664C215.002 157.476 215.547 157.394 216.092 157.424C216.619 157.381 217.149 157.448 217.649 157.619C218.15 157.791 218.609 158.065 218.998 158.423C219.387 158.78 219.699 159.215 219.912 159.699C220.125 160.183 220.236 160.706 220.238 161.234ZM217.11 161.486C217.128 161.333 217.112 161.177 217.064 161.031C217.016 160.884 216.937 160.749 216.832 160.636C216.728 160.522 216.6 160.432 216.458 160.372C216.316 160.312 216.162 160.283 216.008 160.288C215.69 160.288 215.386 160.414 215.161 160.639C214.936 160.863 214.81 161.168 214.81 161.486C214.81 161.804 214.936 162.109 215.161 162.333C215.386 162.558 215.69 162.684 216.008 162.684C216.162 162.689 216.316 162.66 216.458 162.6C216.6 162.54 216.728 162.45 216.832 162.336C216.937 162.223 217.016 162.088 217.064 161.941C217.112 161.795 217.128 161.639 217.11 161.486Z" fill="#263238"/>
<path d="M229.165 160.935V163.631H227.799V161.151C227.799 160.384 227.463 160.036 226.912 160.036C226.361 160.036 225.87 160.432 225.87 161.235V163.631H224.504V161.151C224.504 160.384 224.18 160.036 223.605 160.036C223.03 160.036 222.575 160.432 222.575 161.235V163.631H221.209V158.922H222.515V159.497C222.7 159.292 222.928 159.13 223.183 159.022C223.437 158.915 223.712 158.864 223.989 158.874C224.293 158.86 224.596 158.924 224.869 159.061C225.142 159.197 225.375 159.401 225.546 159.653C225.748 159.4 226.005 159.199 226.299 159.063C226.592 158.928 226.913 158.863 227.236 158.874C227.505 158.856 227.776 158.897 228.027 158.996C228.279 159.095 228.505 159.249 228.69 159.447C228.874 159.644 229.013 159.88 229.095 160.137C229.177 160.395 229.201 160.667 229.165 160.935Z" fill="#263238"/>
<path d="M234.556 160.944V163.628H233.285V163.089C233.127 163.318 232.91 163.5 232.657 163.616C232.404 163.732 232.124 163.778 231.848 163.748C230.745 163.748 230.086 163.137 230.086 162.322C230.086 161.507 230.673 160.908 232.111 160.908H233.19C233.19 160.333 232.842 159.985 232.111 159.985C231.623 159.979 231.147 160.135 230.757 160.429L230.266 159.47C230.868 159.081 231.574 158.88 232.291 158.895C233.729 158.847 234.556 159.494 234.556 160.944ZM233.19 162.142V161.663H232.255C231.62 161.663 231.416 161.903 231.416 162.214C231.416 162.526 231.704 162.789 232.183 162.789C232.398 162.803 232.612 162.748 232.793 162.632C232.974 162.515 233.113 162.344 233.19 162.142Z" fill="#263238"/>
<path d="M235.635 157.507C235.637 157.4 235.66 157.294 235.704 157.196C235.749 157.098 235.813 157.01 235.893 156.938C235.973 156.866 236.067 156.811 236.169 156.777C236.271 156.743 236.379 156.731 236.486 156.741C236.633 156.757 236.772 156.815 236.887 156.909C237.002 157.002 237.087 157.127 237.132 157.267C237.177 157.408 237.181 157.559 237.143 157.702C237.104 157.845 237.026 157.973 236.916 158.072C236.806 158.172 236.67 158.237 236.524 158.26C236.378 158.283 236.228 158.264 236.093 158.204C235.957 158.145 235.842 158.047 235.761 157.924C235.68 157.8 235.636 157.655 235.635 157.507ZM235.803 158.921H237.157V163.63H235.803V158.921Z" fill="#263238"/>
<path d="M238.438 157.1H239.804V163.594H238.438V157.1Z" fill="#263238"/>
<path d="M240.739 162.851C240.739 162.625 240.828 162.409 240.988 162.249C241.147 162.09 241.364 162 241.589 162C241.815 162 242.031 162.09 242.191 162.249C242.35 162.409 242.44 162.625 242.44 162.851C242.44 163.077 242.35 163.293 242.191 163.453C242.031 163.612 241.815 163.702 241.589 163.702C241.364 163.702 241.147 163.612 240.988 163.453C240.828 163.293 240.739 163.077 240.739 162.851Z" fill="#263238"/>
<path d="M242.955 161.282C242.953 160.947 243.022 160.616 243.157 160.309C243.291 160.003 243.488 159.728 243.735 159.502C243.983 159.276 244.274 159.105 244.592 158.999C244.91 158.892 245.246 158.854 245.579 158.886C246.01 158.849 246.443 158.944 246.819 159.158C247.196 159.372 247.498 159.695 247.688 160.084L246.633 160.647C246.512 160.469 246.347 160.324 246.154 160.228C245.961 160.132 245.746 160.087 245.53 160.098C245.315 160.109 245.105 160.175 244.923 160.29C244.74 160.405 244.59 160.565 244.487 160.754C244.384 160.944 244.332 161.157 244.335 161.373C244.338 161.589 244.397 161.8 244.505 161.987C244.614 162.173 244.768 162.329 244.954 162.438C245.14 162.548 245.351 162.608 245.567 162.612C245.787 162.613 246.003 162.553 246.191 162.438C246.379 162.324 246.532 162.161 246.633 161.965L247.688 162.54C247.496 162.927 247.192 163.248 246.817 163.462C246.441 163.675 246.01 163.772 245.579 163.739C245.241 163.771 244.899 163.731 244.577 163.621C244.256 163.512 243.961 163.335 243.713 163.103C243.464 162.87 243.269 162.588 243.138 162.274C243.007 161.96 242.945 161.622 242.955 161.282Z" fill="#263238"/>
<path d="M248.071 161.282C248.033 160.763 248.151 160.246 248.411 159.795C248.671 159.345 249.061 158.984 249.529 158.758C249.997 158.533 250.522 158.453 251.036 158.531C251.55 158.608 252.029 158.838 252.411 159.191C252.792 159.544 253.058 160.004 253.175 160.51C253.291 161.017 253.252 161.547 253.063 162.031C252.874 162.515 252.544 162.931 252.115 163.225C251.686 163.519 251.179 163.677 250.659 163.678C250.329 163.705 249.997 163.662 249.683 163.554C249.37 163.445 249.083 163.273 248.84 163.048C248.596 162.823 248.402 162.549 248.27 162.245C248.138 161.941 248.07 161.613 248.071 161.282ZM251.858 161.282C251.837 161.051 251.749 160.83 251.605 160.648C251.462 160.466 251.268 160.329 251.048 160.255C250.828 160.18 250.591 160.171 250.366 160.229C250.142 160.287 249.938 160.409 249.781 160.58C249.624 160.751 249.521 160.964 249.482 161.193C249.444 161.422 249.473 161.657 249.566 161.87C249.659 162.082 249.812 162.264 250.006 162.391C250.2 162.519 250.427 162.587 250.659 162.588C250.826 162.589 250.991 162.554 251.144 162.487C251.297 162.421 251.434 162.323 251.547 162.2C251.66 162.077 251.746 161.932 251.799 161.773C251.853 161.615 251.873 161.448 251.858 161.282Z" fill="#263238"/>
<path d="M262.114 160.935V163.631H260.748V161.151C260.748 160.384 260.401 160.036 259.85 160.036C259.299 160.036 258.807 160.432 258.807 161.235V163.631H257.441V161.151C257.441 160.384 257.118 160.036 256.555 160.036C255.992 160.036 255.524 160.432 255.524 161.235V163.631H254.158V158.922H255.452V159.497C255.64 159.292 255.87 159.13 256.127 159.022C256.383 158.914 256.66 158.864 256.938 158.874C257.241 158.859 257.543 158.922 257.814 159.059C258.085 159.196 258.316 159.4 258.484 159.653C258.688 159.401 258.948 159.2 259.243 159.064C259.539 158.929 259.861 158.864 260.185 158.874C260.455 158.856 260.725 158.897 260.977 158.996C261.228 159.095 261.455 159.249 261.639 159.447C261.824 159.644 261.962 159.88 262.045 160.137C262.127 160.395 262.151 160.667 262.114 160.935Z" fill="#263238"/>
<path d="M243.834 193.754L241.618 194.953L242.612 196.618L244.853 195.3V197.768H246.77V195.276L248.939 196.642L249.921 194.977L247.693 193.778L249.921 192.58L248.939 190.915L246.698 192.257V189.776H244.781V192.257L242.54 190.915L241.546 192.58L243.834 193.754Z" fill="#263238"/>
<path d="M234.597 193.754L232.38 194.953L233.375 196.642L235.615 195.324V197.792H237.52V195.3L239.725 196.642L240.708 194.977L238.491 193.778L240.708 192.58L239.725 190.915L237.484 192.257V189.776H235.579V192.257L233.339 190.915L232.344 192.58L234.597 193.754Z" fill="#263238"/>
<path d="M225.347 193.754L223.131 194.953L224.149 196.642L226.378 195.324V197.792H228.295V195.3L230.476 196.642L231.446 194.977L229.229 193.778L231.446 192.58L230.476 190.915L228.235 192.257V189.776H226.318V192.257L224.089 190.915L223.083 192.58L225.347 193.754Z" fill="#263238"/>
<path d="M216.131 193.754L213.915 194.953L214.909 196.618L217.15 195.3V197.768H219.067V195.276L221.236 196.642L222.218 194.977L219.99 193.778L222.218 192.58L221.236 190.915L218.995 192.257V189.776H217.078V192.257L214.837 190.915L213.843 192.58L216.131 193.754Z" fill="#263238"/>
<path d="M206.895 193.755L204.678 194.953L205.672 196.618L207.913 195.3V197.769H209.77V195.276L211.999 196.642L212.982 194.977L210.765 193.779L212.982 192.58L211.999 190.915L209.77 192.209V189.729H207.865V192.209L205.625 190.867L204.63 192.533L206.895 193.755Z" fill="#263238"/>
<path d="M197.656 193.754L195.439 194.953L196.434 196.618L198.675 195.3V197.768H200.592V195.276L202.772 196.642L203.743 194.977L201.526 193.778L203.743 192.58L202.772 190.915L200.532 192.257V189.776H198.615V192.257L196.374 190.915L195.38 192.58L197.656 193.754Z" fill="#263238"/>
<path d="M188.43 193.754L186.213 194.953L187.208 196.618L189.449 195.3V197.768H191.366V195.276L193.534 196.642L194.517 194.977L192.288 193.778L194.517 192.58L193.534 190.915L191.294 192.257V189.776H189.401V192.257L187.16 190.915L186.165 192.58L188.43 193.754Z" fill="#263238"/>
<path d="M179.192 193.754L176.975 194.953L177.969 196.618L180.21 195.3V197.768H182.115V195.276L184.296 196.642L185.278 194.977L183.062 193.778L185.278 192.58L184.296 190.915L182.055 192.257V189.776H180.15V192.257L177.909 190.915L176.915 192.58L179.192 193.754Z" fill="#263238"/>
<path d="M288.013 127.563H381.353C381.991 127.563 382.623 127.689 383.213 127.933C383.802 128.178 384.338 128.536 384.789 128.988C385.239 129.44 385.597 129.977 385.84 130.567C386.083 131.157 386.207 131.789 386.206 132.427V174.94C386.214 175.579 386.094 176.214 385.853 176.806C385.612 177.399 385.255 177.937 384.802 178.389C384.35 178.841 383.812 179.198 383.22 179.44C382.627 179.681 381.992 179.801 381.353 179.793H342.196L333.88 190.469L326.942 179.793H288.013C287.375 179.793 286.744 179.667 286.156 179.423C285.567 179.179 285.032 178.822 284.581 178.371C284.131 177.921 283.773 177.386 283.529 176.797C283.286 176.208 283.16 175.577 283.16 174.94V132.427C283.16 131.139 283.671 129.904 284.581 128.992C285.49 128.08 286.725 127.566 288.013 127.563Z" fill="white"/>
<path d="M288.013 127.563H287.557C287.102 127.602 286.655 127.703 286.227 127.862C285.528 128.113 284.896 128.524 284.382 129.061C283.648 129.851 283.197 130.862 283.1 131.936C283.004 136.561 283.028 143.295 282.992 151.827C282.992 156.092 282.992 160.801 282.992 165.905C282.992 168.47 282.992 171.118 282.992 173.874C282.96 174.578 282.992 175.284 283.088 175.982C283.235 176.709 283.538 177.396 283.975 177.995C284.423 178.61 285.003 179.116 285.673 179.477C286.343 179.838 287.085 180.044 287.845 180.08H327.002L326.763 179.96C328.943 183.303 331.292 186.934 333.688 190.624L333.916 190.972L334.179 190.648L342.495 179.984L342.255 180.104H379.915C380.598 180.104 381.233 180.104 381.964 180.104C383.027 179.977 384.025 179.525 384.821 178.808C385.617 178.092 386.172 177.146 386.409 176.102C386.529 175.43 386.573 174.747 386.541 174.065V156.511C386.541 151.407 386.541 146.403 386.541 141.498V132.428C386.541 131.796 386.423 131.171 386.194 130.582C385.749 129.413 384.899 128.443 383.797 127.85C383.247 127.569 382.65 127.39 382.036 127.323C381.445 127.294 380.853 127.294 380.262 127.323H370.066H357.149H333.976L300.426 127.419L291.308 127.479L300.426 127.539L333.976 127.635H357.149H380.167C380.742 127.635 381.365 127.635 381.88 127.635C382.424 127.697 382.952 127.86 383.438 128.114C384.429 128.622 385.2 129.474 385.606 130.51C385.812 131.033 385.918 131.59 385.918 132.152V133.949C385.918 136.346 385.918 138.742 385.918 141.222V156.236C385.918 161.332 385.918 166.525 385.918 171.813V173.802C385.956 174.439 385.92 175.078 385.81 175.707C385.599 176.625 385.109 177.455 384.408 178.083C383.706 178.712 382.828 179.108 381.892 179.218C381.281 179.277 380.574 179.218 379.915 179.218H342.052L341.956 179.337L333.64 190.001H334.132L327.194 179.337L327.11 179.206H326.942H287.809C287.12 179.183 286.445 179.002 285.837 178.678C285.228 178.354 284.702 177.895 284.298 177.336C283.893 176.798 283.614 176.176 283.483 175.515C283.391 174.844 283.359 174.167 283.388 173.49C283.388 170.734 283.388 168.086 283.388 165.522C283.388 160.418 283.388 155.709 283.388 151.443C283.388 142.936 283.388 136.202 283.328 131.565C283.434 130.563 283.853 129.619 284.526 128.869C285.018 128.319 285.628 127.889 286.311 127.611C286.873 127.514 287.446 127.498 288.013 127.563Z" fill="#263238"/>
<path d="M317.502 139.568V141.138H316.483V139.556L314.758 136.729H315.848L317.046 138.694L318.245 136.729H319.251L317.502 139.568Z" fill="#263238"/>
<path d="M319.203 138.921C319.182 138.443 319.304 137.969 319.554 137.561C319.804 137.153 320.17 136.829 320.606 136.631C321.041 136.433 321.526 136.37 321.998 136.45C322.469 136.53 322.906 136.749 323.252 137.08C323.598 137.41 323.838 137.837 323.939 138.304C324.041 138.772 324 139.259 323.822 139.703C323.644 140.148 323.338 140.528 322.942 140.797C322.546 141.065 322.078 141.209 321.6 141.209C321.29 141.224 320.981 141.176 320.691 141.067C320.401 140.959 320.135 140.792 319.911 140.578C319.687 140.364 319.509 140.107 319.387 139.822C319.266 139.537 319.203 139.231 319.203 138.921ZM323.014 138.921C323.011 138.646 322.928 138.379 322.774 138.152C322.619 137.925 322.402 137.749 322.147 137.645C321.893 137.542 321.614 137.516 321.345 137.571C321.076 137.626 320.83 137.759 320.637 137.954C320.444 138.149 320.312 138.397 320.26 138.666C320.207 138.935 320.235 139.214 320.341 139.467C320.446 139.721 320.624 139.937 320.853 140.089C321.081 140.241 321.349 140.323 321.624 140.323C321.809 140.328 321.993 140.295 322.164 140.226C322.336 140.157 322.492 140.054 322.622 139.922C322.752 139.791 322.854 139.634 322.922 139.462C322.989 139.29 323.02 139.106 323.014 138.921Z" fill="#263238"/>
<path d="M324.798 139.185V136.729H325.828V139.125C325.828 139.964 326.2 140.323 326.811 140.323C327.422 140.323 327.805 139.976 327.805 139.125V136.729H328.824V139.209C328.824 139.743 328.612 140.255 328.234 140.632C327.857 141.01 327.345 141.222 326.811 141.222C326.277 141.222 325.765 141.01 325.388 140.632C325.01 140.255 324.798 139.743 324.798 139.209V139.185Z" fill="#263238"/>
<path d="M332.67 141.138L331.82 139.94H330.873V141.138H329.843V136.729H331.76C332.958 136.729 333.689 137.34 333.689 138.334C333.702 138.634 333.621 138.93 333.458 139.181C333.295 139.432 333.057 139.626 332.778 139.736L333.773 141.162L332.67 141.138ZM331.712 137.543H330.873V139.125H331.712C332.335 139.125 332.646 138.825 332.646 138.346C332.646 137.867 332.335 137.531 331.688 137.531L331.712 137.543Z" fill="#263238"/>
<path d="M336.025 138.922C336.029 138.431 336.184 137.952 336.469 137.552C336.754 137.152 337.155 136.848 337.618 136.684C338.081 136.519 338.583 136.5 339.057 136.631C339.531 136.761 339.953 137.034 340.267 137.412L339.608 138.024C339.472 137.856 339.3 137.722 339.105 137.631C338.91 137.539 338.697 137.493 338.482 137.496C338.128 137.529 337.798 137.693 337.559 137.955C337.319 138.218 337.186 138.561 337.186 138.916C337.186 139.272 337.319 139.614 337.559 139.877C337.798 140.14 338.128 140.303 338.482 140.336C338.696 140.341 338.909 140.298 339.104 140.208C339.299 140.119 339.472 139.987 339.608 139.821L340.267 140.42C339.954 140.798 339.533 141.07 339.06 141.201C338.587 141.332 338.086 141.314 337.624 141.151C337.161 140.988 336.76 140.686 336.474 140.288C336.188 139.889 336.032 139.413 336.025 138.922Z" fill="#263238"/>
<path d="M340.591 138.921C340.57 138.443 340.692 137.969 340.942 137.561C341.191 137.153 341.558 136.829 341.993 136.631C342.429 136.433 342.914 136.37 343.385 136.45C343.857 136.53 344.294 136.749 344.64 137.08C344.986 137.41 345.225 137.837 345.327 138.304C345.429 138.772 345.388 139.259 345.21 139.703C345.032 140.148 344.726 140.528 344.329 140.797C343.933 141.065 343.466 141.209 342.988 141.209C342.678 141.224 342.369 141.176 342.079 141.067C341.788 140.959 341.523 140.792 341.299 140.578C341.075 140.364 340.897 140.107 340.775 139.822C340.653 139.537 340.591 139.231 340.591 138.921ZM344.401 138.921C344.397 138.647 344.311 138.381 344.156 138.155C344 137.93 343.781 137.755 343.527 137.654C343.273 137.552 342.994 137.528 342.726 137.585C342.458 137.641 342.213 137.775 342.021 137.97C341.829 138.166 341.699 138.413 341.647 138.682C341.595 138.951 341.624 139.229 341.73 139.482C341.836 139.735 342.014 139.95 342.242 140.102C342.47 140.254 342.738 140.335 343.012 140.335C343.198 140.34 343.383 140.307 343.555 140.237C343.728 140.167 343.884 140.063 344.014 139.93C344.145 139.798 344.247 139.64 344.313 139.466C344.38 139.292 344.41 139.107 344.401 138.921Z" fill="#263238"/>
<path d="M346.223 136.726H348.248C348.558 136.694 348.872 136.727 349.169 136.823C349.466 136.92 349.739 137.078 349.971 137.287C350.203 137.496 350.388 137.751 350.515 138.037C350.642 138.322 350.707 138.63 350.707 138.943C350.707 139.255 350.642 139.563 350.515 139.849C350.388 140.134 350.203 140.389 349.971 140.598C349.739 140.807 349.466 140.965 349.169 141.062C348.872 141.158 348.558 141.192 348.248 141.159H346.223V136.726ZM348.188 140.32C348.553 140.32 348.904 140.175 349.162 139.917C349.421 139.658 349.566 139.308 349.566 138.943C349.566 138.577 349.421 138.227 349.162 137.968C348.904 137.71 348.553 137.565 348.188 137.565H347.265V140.32H348.188Z" fill="#263238"/>
<path d="M354.908 140.323V141.15H351.469V136.729H354.824V137.543H352.488V138.514H354.549V139.317H352.488V140.323H354.908Z" fill="#263238"/>
<path d="M297.119 145.799H372.234C374.584 145.799 376.488 147.703 376.488 150.053V165.917C376.488 168.266 374.584 170.171 372.234 170.171H297.119C294.77 170.171 292.865 168.266 292.865 165.917V150.053C292.865 147.703 294.77 145.799 297.119 145.799Z" fill="#F5F5F5"/>
<path d="M309.844 159.495C309.846 159.997 309.743 160.493 309.542 160.953C309.34 161.412 309.045 161.825 308.675 162.163C308.305 162.502 307.868 162.759 307.392 162.919C306.917 163.078 306.413 163.137 305.913 163.09C302.822 163.09 301.18 160.861 301.18 157.171C301.18 153.169 303.301 151.12 306.429 151.12C307.357 151.079 308.279 151.286 309.101 151.719L308.753 152.414C308.042 152.024 307.238 151.838 306.429 151.875C303.781 151.875 302.043 153.612 302.043 157.039C302.039 157.512 302.071 157.985 302.139 158.453C302.42 157.699 302.94 157.057 303.619 156.624C304.298 156.192 305.099 155.992 305.901 156.056C308.31 155.972 309.844 157.35 309.844 159.495ZM308.981 159.495C308.981 157.806 307.783 156.715 305.782 156.715C305.38 156.674 304.974 156.715 304.588 156.836C304.203 156.957 303.846 157.156 303.54 157.419C303.234 157.683 302.985 158.006 302.808 158.369C302.631 158.732 302.53 159.128 302.51 159.531C302.51 160.909 303.709 162.299 305.889 162.299C306.285 162.349 306.687 162.313 307.068 162.194C307.448 162.076 307.799 161.877 308.097 161.611C308.394 161.345 308.631 161.019 308.792 160.654C308.953 160.289 309.034 159.894 309.029 159.495H308.981Z" fill="#EB5454"/>
<path d="M325.553 159.687H323.084V162.958H322.234V159.687H315.512V159.064L321.922 151.156H322.881L316.59 158.92H322.258V156.045H323.084V158.92H325.553V159.687Z" fill="#EB5454"/>
<path d="M338.66 159.626C338.66 161.591 337.246 163.041 334.526 163.041C333.761 163.07 332.998 162.944 332.284 162.67C331.569 162.396 330.917 161.98 330.368 161.447L330.8 160.788C331.289 161.271 331.872 161.649 332.513 161.898C333.154 162.147 333.839 162.263 334.526 162.238C336.647 162.238 337.785 161.232 337.785 159.626C337.785 158.02 336.707 157.014 334.346 157.014H333.603V156.391L337.09 151.921H330.8V151.107H338.205V151.706L334.61 156.247C337.402 156.355 338.66 157.709 338.66 159.626Z" fill="#EB5454"/>
<path d="M352.98 151.107V151.706L347.911 162.909H346.965L351.985 151.874H345.359V154.138H344.521V151.107H352.98Z" fill="#EB5454"/>
<path d="M358.972 157.098C358.972 153.407 360.877 151.107 363.585 151.107C366.293 151.107 368.21 153.395 368.21 157.098C368.21 160.8 366.305 163.089 363.585 163.089C360.865 163.089 358.972 160.692 358.972 157.098ZM367.359 157.098C367.359 153.815 365.826 151.909 363.597 151.909C361.368 151.909 359.835 153.815 359.835 157.098C359.835 160.381 361.368 162.286 363.597 162.286C365.826 162.286 367.359 160.333 367.359 157.098Z" fill="#EB5454"/>
<path d="M53.5223 465.661C37.8378 458.999 19.673 445.903 11.5851 429.835C28.9904 437.059 43.6681 449.598 53.5223 465.661Z" fill="#EB5454"/>
<path d="M50.1798 440.725C34.4953 434.075 16.3305 420.979 8.24262 404.911C25.651 412.124 40.3307 424.661 50.1798 440.725Z" fill="#EB5454"/>
<path d="M45.6146 416.486C29.9181 409.824 11.7653 396.728 3.67737 380.672C21.0844 387.887 35.7635 400.423 45.6146 416.486Z" fill="#EB5454"/>
<path d="M39.9593 391.107C25.1614 382.36 8.66215 366.784 2.4794 349.793C18.9229 359.373 32.0016 373.804 39.9233 391.107" fill="#EB5454"/>
<path d="M33.8722 371.685C23.0884 357.582 13.0354 336.589 13.1672 318.4C25.1535 333.742 32.3549 352.275 33.8722 371.685Z" fill="#EB5454"/>
<path d="M36.8913 380.923C39.0721 361.847 46.477 337.871 59.0821 323.565C56.954 344.326 49.2903 364.135 36.8913 380.923Z" fill="#EB5454"/>
<path d="M41.9607 401.783C45.7949 382.12 55.5004 357.796 69.807 344.005C65.8902 365.418 56.2702 385.378 41.9607 401.783Z" fill="#EB5454"/>
<path d="M47.7838 427.222C51.606 407.523 61.3355 383.235 75.5702 369.444C71.6534 390.857 62.0334 410.817 47.7239 427.222" fill="#EB5454"/>
<path d="M52.4554 458.459C56.3017 438.796 66.0072 414.473 80.3018 400.681C76.385 422.094 66.765 442.055 52.4554 458.459Z" fill="#EB5454"/>
<path d="M33.1407 367.984C33.1991 368.076 33.2398 368.177 33.2605 368.284C33.3444 368.512 33.4403 368.799 33.5601 369.159C33.8237 369.985 34.1951 371.124 34.6504 372.562C35.597 375.521 36.8671 379.823 38.3649 385.167C39.8627 390.511 41.5162 396.897 43.2176 404.026C44.9191 411.156 46.5966 419.052 48.1782 427.367C49.7598 435.683 50.994 443.663 52.0364 450.924C53.0788 458.185 53.8217 464.751 54.3609 470.263C54.9001 475.775 55.2836 480.256 55.4753 483.36C55.5711 484.869 55.643 486.056 55.7029 486.954C55.7029 487.338 55.7029 487.637 55.7029 487.889C55.7187 487.992 55.7187 488.097 55.7029 488.2C55.6662 488.1 55.646 487.995 55.643 487.889C55.643 487.649 55.643 487.338 55.5472 486.966C55.4633 486.103 55.3435 484.917 55.1997 483.372C54.9361 480.292 54.4927 475.823 53.8936 470.311C53.2945 464.799 52.4678 458.257 51.4373 451.008C50.4068 443.759 49.0409 435.803 47.5312 427.487C46.0214 419.172 44.272 411.3 42.6305 404.158C40.989 397.017 39.3594 390.63 37.9096 385.274C36.4597 379.918 35.2615 375.605 34.3868 372.633L33.4043 369.195C33.3084 368.835 33.2365 368.536 33.1646 368.296C33.1431 368.194 33.135 368.089 33.1407 367.984Z" fill="#EB5454"/>
<path d="M61.1917 476.038C54.5416 462.115 49.7009 442.488 52.96 427.235C60.3959 442.354 63.2568 459.316 61.1917 476.038Z" fill="#EB5454"/>
<path d="M72.2256 458.005C65.5756 444.07 60.7348 424.455 64.0059 409.202C71.4445 424.321 74.3015 441.284 72.2256 458.005Z" fill="#EB5454"/>
<path d="M82.1471 439.658C75.497 425.723 70.6563 406.109 73.9274 390.855C81.366 405.974 84.223 422.937 82.1471 439.658Z" fill="#EB5454"/>
<path d="M91.9251 419.874C86.9765 405.136 84.4963 385.03 89.5287 370.328C95.1116 386.262 95.9441 403.475 91.9251 419.874Z" fill="#EB5454"/>
<path d="M98.3348 403.676C98.8261 387.991 103.439 368.341 113.181 356.754C112.963 373.516 107.798 389.84 98.3348 403.676Z" fill="#EB5454"/>
<path d="M95.3518 411.452C106.89 400.573 124.432 389.753 140.201 388.339C127.867 400.311 112.259 408.355 95.3518 411.452Z" fill="#EB5454"/>
<path d="M87.5527 427.965C100.481 417.709 119.701 408.099 136.308 408.063C122.386 419.38 105.417 426.307 87.5527 427.965Z" fill="#EB5454"/>
<path d="M77.8467 447.869C90.7754 437.624 109.983 428.002 126.59 427.967C112.672 439.281 95.7069 446.208 77.8467 447.869Z" fill="#EB5454"/>
<path d="M64.2946 470.775C77.2232 460.518 96.4425 450.909 113.05 450.861C99.1318 462.186 82.1613 469.118 64.2946 470.775Z" fill="#EB5454"/>
<path d="M99.7979 400.837C99.7979 400.837 99.7979 400.921 99.7261 401.089L99.4624 401.832L98.3841 404.647C97.4375 407.044 95.9877 410.638 94.1544 414.928C90.4639 423.543 84.9881 435.298 78.1943 447.927C74.7914 454.217 71.3765 460.136 68.1893 465.444C65.002 470.752 61.9706 475.473 59.3705 479.38C56.7704 483.286 54.5776 486.413 53.0918 488.546L51.3185 490.942L50.8512 491.565C50.7434 491.709 50.6835 491.781 50.6715 491.769C50.7102 491.686 50.7542 491.606 50.8033 491.529L51.2226 490.87C51.642 490.259 52.1932 489.421 52.9001 488.366C54.3859 486.197 56.4948 483.034 59.023 479.104C61.5512 475.174 64.5347 470.429 67.722 465.121C70.9092 459.813 74.2762 453.882 77.6791 447.591C84.4729 435.082 89.9487 423.339 93.771 414.712C95.6641 410.423 97.1619 406.936 98.1684 404.516L99.3666 401.736L99.6901 401.017C99.7203 400.954 99.7564 400.894 99.7979 400.837Z" fill="#EB5454"/>
<path d="M92.8474 477.726H26.7543V490.463H33.5482L39.2636 526.793H80.1224L86.0056 490.463H92.8474V477.726Z" fill="#EB5454"/>
<path d="M92.8474 490.199C92.8474 490.031 78.1574 489.887 60.0405 489.887C41.9236 489.887 27.2336 490.031 27.2336 490.199C27.2336 490.366 41.9117 490.498 60.0405 490.498C78.1694 490.498 92.8474 490.366 92.8474 490.199Z" fill="#EB5454"/>
<path d="M471.446 526.817H482.17L486.148 478.517H473.519L471.446 526.817Z" fill="#263238"/>
<path d="M378.464 526.817H367.74L363.762 478.517H376.391L378.464 526.817Z" fill="#263238"/>
<path d="M356.394 484.639L494.475 487.875L498.669 398.692C498.768 396.623 498.446 394.556 497.722 392.615C496.998 390.674 495.888 388.9 494.458 387.401C493.029 385.902 491.31 384.709 489.406 383.894C487.501 383.079 485.451 382.659 483.38 382.66H365.728C363.628 382.66 361.551 383.092 359.625 383.929C357.699 384.766 355.966 385.99 354.533 387.525C353.1 389.06 351.999 390.873 351.296 392.852C350.594 394.831 350.306 396.933 350.451 399.028L356.394 484.639Z" fill="#EB5454"/>
<path d="M349.313 398.393H349.696H350.834L355.184 398.465H371.192C384.708 398.465 403.376 398.345 423.985 398.824C444.606 399.507 463.298 399.387 476.802 399.184C483.56 399.076 489.035 398.944 492.81 398.824L497.159 398.68H498.286C498.413 398.697 498.542 398.697 498.669 398.68H498.286H497.159H492.81L476.802 398.836C463.286 398.932 444.618 398.98 423.997 398.285C403.376 397.818 384.708 398.033 371.192 398.129L355.184 398.261L350.834 398.321H349.696L349.313 398.393Z" fill="#263238"/>
<path d="M448.309 384.051C451.413 384.505 454.433 385.414 457.272 386.747C460.021 388.26 462.529 390.174 464.712 392.427C464.273 391.591 463.693 390.838 462.999 390.198C459.814 386.922 455.635 384.79 451.113 384.135C450.19 383.942 449.241 383.914 448.309 384.051Z" fill="#263238"/>
<path d="M391.514 221.896L374.643 252.726L349.96 238.899L337.978 242.865C337.978 242.865 368.221 275.72 373.145 277.433C378.07 279.147 387.392 279.422 392.712 272.748C397.505 266.673 411.692 234.801 411.692 234.801L391.514 221.896Z" fill="#FFBE9D"/>
<path d="M322.029 201.767C322.246 201.501 322.527 201.295 322.846 201.17C323.165 201.044 323.511 201.002 323.851 201.048L335.581 202.63C336.091 202.706 336.578 202.891 337.01 203.172C337.443 203.453 337.809 203.824 338.085 204.259L362.541 241.823L360.671 242.865L347.659 242.458L321.658 202.234L322.029 201.767Z" fill="#263238"/>
<path d="M330.357 206.643C330.263 206.792 330.125 206.907 329.962 206.973C329.799 207.039 329.619 207.052 329.448 207.01C329.277 206.969 329.124 206.874 329.01 206.74C328.895 206.607 328.826 206.441 328.812 206.265C328.797 206.09 328.838 205.915 328.928 205.764C329.019 205.613 329.154 205.495 329.316 205.425C329.478 205.356 329.657 205.339 329.829 205.377C330 205.415 330.156 205.506 330.273 205.637C330.411 205.763 330.497 205.937 330.512 206.124C330.528 206.31 330.472 206.496 330.357 206.643Z" fill="white"/>
<path d="M321.658 202.233C322.404 202.442 323.165 202.59 323.934 202.677L330.165 203.647L334.467 204.27C334.831 204.303 335.184 204.417 335.499 204.603C335.815 204.79 336.084 205.045 336.288 205.349L337.678 207.506C339.607 210.465 341.704 213.712 343.909 217.091C348.354 223.897 352.404 230.044 355.375 234.477L358.91 239.773C359.321 240.43 359.782 241.055 360.288 241.642C359.951 240.936 359.55 240.263 359.09 239.629L355.735 234.285C352.871 229.78 348.893 223.597 344.448 216.792C342.219 213.401 340.098 210.166 338.169 207.206C337.678 206.475 337.199 205.756 336.743 205.049C336.488 204.682 336.155 204.376 335.767 204.152C335.38 203.929 334.948 203.793 334.503 203.755L330.177 203.204L323.91 202.461C323.167 202.326 322.414 202.25 321.658 202.233Z" fill="#455A64"/>
<path d="M334.706 215.644C334.706 215.644 335.749 215.464 336.324 218.328C336.899 221.191 338.72 229.411 338.72 229.411L344.208 226.499L351.086 227.398C351.086 227.398 352.583 228.776 351.481 229.531C350.379 230.286 346.041 231.053 346.041 231.053L342.842 235.666L352.032 231.232C352.032 231.232 355.1 232.035 354.201 233.904C353.302 235.774 347.108 241.633 347.108 241.633L351.709 241.285L357.149 237.954C357.149 237.954 358.826 238.038 358.203 239.464C357.58 240.89 351.876 246.066 351.876 246.066L344.975 249.421C344.975 249.421 341.2 249.122 340.841 248.007C340.597 247.131 340.444 246.231 340.386 245.323C340.386 245.323 338.385 244.784 337.989 243.814C337.769 242.997 337.724 242.144 337.857 241.309C337.857 241.309 334.718 241.86 334.323 240.111C334.048 237.931 334.137 235.72 334.586 233.569C334.898 232.215 333.244 219.694 333.388 219.322C333.532 218.951 332.729 214.817 334.706 215.644Z" fill="#FFBE9D"/>
<path d="M340.662 248.031C341.207 248.358 341.824 248.547 342.459 248.582C345.521 249.027 348.636 248.285 351.17 246.509C352.116 245.826 352.584 245.311 352.524 245.203C352.464 245.095 350.211 246.917 346.856 247.696C343.501 248.474 340.698 247.815 340.662 248.031Z" fill="#EB996E"/>
<path d="M342.29 245.551C342.398 245.706 343.632 245.071 344.938 243.993C346.245 242.915 347.107 241.848 346.975 241.716C346.844 241.585 345.777 242.399 344.483 243.454C343.189 244.508 342.183 245.383 342.29 245.551Z" fill="#EB996E"/>
<path d="M338.661 239.594C338.769 239.75 339.991 239.127 341.213 237.989C342.435 236.851 343.154 235.7 343.01 235.592C342.867 235.485 341.908 236.395 340.734 237.486C339.559 238.576 338.553 239.427 338.661 239.594Z" fill="#EB996E"/>
<path d="M334.838 234.788C335.03 234.872 335.725 233.59 336.815 232.164C337.906 230.738 338.972 229.768 338.852 229.576C338.732 229.384 337.414 230.223 336.264 231.733C335.476 232.574 334.976 233.644 334.838 234.788Z" fill="#EB996E"/>
<path d="M330.176 457.009C330.085 456.635 330.085 456.245 330.176 455.871C330.37 454.835 330.778 453.852 331.374 452.983C331.569 452.682 331.798 452.405 332.057 452.156C332.227 451.996 332.437 451.885 332.665 451.834C332.893 451.784 333.13 451.796 333.351 451.869C333.482 451.914 333.6 451.988 333.698 452.086C333.795 452.183 333.87 452.302 333.915 452.432C333.999 452.681 333.999 452.95 333.915 453.199C333.751 453.615 333.55 454.016 333.315 454.397C332.872 455.152 332.501 455.895 331.926 456.794C331.758 457.035 331.528 457.226 331.26 457.346C330.991 457.467 330.696 457.512 330.404 457.476C329.868 457.381 329.363 457.159 328.93 456.829C328.137 456.248 327.413 455.576 326.773 454.828C326.465 454.473 326.177 454.101 325.911 453.714C325.619 453.336 325.404 452.904 325.276 452.444C325.204 452.173 325.229 451.886 325.348 451.632C325.466 451.378 325.669 451.174 325.923 451.054C326.16 450.984 326.411 450.976 326.652 451.031C326.893 451.085 327.116 451.201 327.3 451.366C327.848 451.844 328.332 452.392 328.738 452.995C329.341 453.842 329.821 454.77 330.164 455.751C330.322 456.097 330.404 456.473 330.404 456.853C329.836 455.593 329.15 454.39 328.355 453.259C327.949 452.72 327.483 452.23 326.965 451.797C326.689 451.605 326.354 451.473 326.15 451.581C326.032 451.651 325.941 451.759 325.893 451.888C325.845 452.017 325.843 452.158 325.887 452.288C326.011 452.663 326.202 453.012 326.45 453.319C326.701 453.678 326.977 454.026 327.265 454.373C327.885 455.07 328.575 455.7 329.325 456.254C329.676 456.525 330.087 456.705 330.524 456.782C330.702 456.804 330.884 456.775 331.047 456.699C331.21 456.622 331.349 456.502 331.446 456.35C331.914 455.667 332.369 454.816 332.812 454.11C333.016 453.738 333.268 453.379 333.387 453.079C333.507 452.78 333.387 452.54 333.208 452.444C332.692 452.24 332.177 452.827 331.83 453.319C331.051 454.434 330.49 455.686 330.176 457.009Z" fill="#263238"/>
<path d="M359.617 458.015L374.235 489.707L397.828 478.804L382.706 439.586L359.617 458.015Z" fill="#FFBE9D"/>
<path d="M371.526 487.587L380.07 503.882C380.07 503.882 358.202 526.493 360.251 531.549L411.654 506.902L397.54 474.227L371.526 487.587Z" fill="#455A64"/>
<path d="M394.844 494.034C395.409 493.962 395.981 494.094 396.457 494.406C396.934 494.718 397.284 495.189 397.444 495.735C397.553 496.298 397.44 496.881 397.13 497.363C396.82 497.845 396.336 498.189 395.779 498.323C395.179 498.414 394.566 498.279 394.06 497.945C393.553 497.611 393.188 497.101 393.035 496.514C392.984 495.914 393.168 495.318 393.548 494.851C393.928 494.383 394.474 494.082 395.072 494.01" fill="#E0E0E0"/>
<g opacity="0.6">
<path d="M411.606 506.901L409.473 502.803L360.982 527.966C360.982 527.966 359.172 530.051 360.203 531.56L411.606 506.901Z" fill="white"/>
</g>
<path d="M379.064 504.016C379.184 504.267 380.502 503.776 382.119 504.016C383.737 504.255 384.911 504.974 385.091 504.759C385.271 504.543 384.204 503.285 382.239 503.057C380.274 502.83 378.896 503.812 379.064 504.016Z" fill="#263238"/>
<path d="M374.739 508.832C374.739 509.108 376.093 509.012 377.447 509.659C378.801 510.306 379.592 511.324 379.843 511.193C380.095 511.061 379.568 509.563 377.854 508.796C376.141 508.029 374.631 508.593 374.739 508.832Z" fill="#263238"/>
<path d="M374.774 516.752C375.026 516.752 374.774 515.279 373.468 514.212C372.162 513.146 370.724 513.158 370.724 513.421C370.724 513.685 371.791 514.069 372.857 514.955C373.924 515.842 374.511 516.848 374.774 516.752Z" fill="#263238"/>
<path d="M376.609 497.748C376.824 497.928 377.807 497.029 379.269 496.442C380.73 495.855 382.06 495.771 382.084 495.496C382.108 495.22 380.623 494.837 378.909 495.496C377.196 496.155 376.393 497.605 376.609 497.748Z" fill="#263238"/>
<path d="M366.663 483.357L328.116 386.914C328.116 386.914 328.991 370.45 332.022 365.262C335.054 360.074 426.86 329.747 426.86 329.747C426.86 329.747 450.237 324.116 465.838 329.747C481.439 335.379 493.121 354.91 491 365.693C488.88 376.477 479.701 384.469 479.701 384.469L412.182 386.482L375.385 399.902L400.164 470.92L366.663 483.357Z" fill="#263238"/>
<path d="M332.382 417.456L331.507 452.336L357.496 452.983L361.235 411.118L332.382 417.456Z" fill="#FFBE9D"/>
<path d="M329.962 449.221L330.441 467.614C330.441 467.614 300.845 478.242 300.486 483.694L357.484 484.269L359.246 448.718L329.962 449.221Z" fill="#455A64"/>
<path d="M348.091 465.324C348.637 465.496 349.101 465.864 349.393 466.357C349.685 466.851 349.784 467.434 349.672 467.996C349.52 468.548 349.162 469.021 348.672 469.318C348.181 469.614 347.596 469.711 347.036 469.59C346.459 469.404 345.97 469.011 345.665 468.487C345.359 467.963 345.259 467.344 345.383 466.75C345.598 466.188 346.024 465.733 346.57 465.48C347.116 465.227 347.739 465.197 348.306 465.396" fill="#E0E0E0"/>
<g opacity="0.6">
<path d="M357.448 484.268L357.34 479.643L302.726 480.841C302.726 480.841 300.186 481.92 300.449 483.717L357.448 484.268Z" fill="white"/>
</g>
<path d="M329.519 467.316C329.519 467.591 330.92 467.735 332.274 468.646C333.628 469.556 334.359 470.731 334.611 470.623C334.863 470.515 334.467 468.897 332.802 467.831C331.136 466.764 329.459 467.064 329.519 467.316Z" fill="#263238"/>
<path d="M323.515 469.721C323.443 469.997 324.653 470.476 325.587 471.662C326.522 472.848 326.786 474.058 327.049 474.058C327.313 474.058 327.529 472.477 326.33 471.015C325.132 469.553 323.527 469.457 323.515 469.721Z" fill="#263238"/>
<path d="M320.004 476.851C320.256 476.911 320.651 475.521 320.004 473.987C319.357 472.453 318.003 471.842 317.883 472.07C317.763 472.298 318.566 473.124 319.082 474.383C319.597 475.641 319.776 476.815 320.004 476.851Z" fill="#263238"/>
<path d="M330.093 460.603C330.201 460.854 331.483 460.483 333.053 460.603C334.623 460.723 335.845 461.238 336 460.998C336.156 460.759 334.982 459.8 333.125 459.644C331.268 459.488 329.95 460.375 330.093 460.603Z" fill="#263238"/>
<path d="M347.564 320.595C347.564 320.595 331.987 319.397 330.262 336.244C328.536 353.091 326.835 431.957 326.835 431.957L363.141 434.988L368.772 354.433L426.801 329.75C426.801 329.75 357.952 318.439 347.564 320.595Z" fill="#263238"/>
<path d="M411.715 297.805C411.715 297.805 402.273 324.297 404.07 327.245C405.868 330.192 430.155 342.342 430.155 342.342L490.952 365.695C490.952 365.695 497.195 355.762 497.195 340.533C497.195 325.304 476.047 297.829 476.047 297.829L411.715 297.805Z" fill="#263238"/>
<path d="M429.737 328.443C429.647 328.504 429.55 328.557 429.449 328.598L428.587 328.994L425.22 330.492L412.579 336.003L368.952 354.779L369.156 354.504C368.604 362.46 367.957 371.051 367.394 379.942C365.908 400.73 364.542 419.89 363.464 435.059V435.335H363.188L336.684 433.01L329.387 432.327L327.482 432.135L326.835 432.039C327.054 432.021 327.275 432.021 327.494 432.039L329.399 432.159L336.708 432.699L363.236 434.783L362.937 435.035C363.979 419.878 365.333 400.706 366.723 379.918C367.346 371.027 367.921 362.436 368.52 354.48V354.288L368.7 354.204L412.423 335.632L425.136 330.312L428.539 328.91L429.425 328.562C429.526 328.515 429.63 328.474 429.737 328.443Z" fill="#455A64"/>
<path d="M478.085 331.043C477.499 330.952 476.925 330.8 476.371 330.588L471.794 329.102C466.798 327.414 461.678 326.12 456.481 325.232C451.281 324.383 445.973 324.452 440.796 325.436C436.842 326.262 434.566 327.389 434.518 327.257C435.009 326.924 435.541 326.654 436.099 326.454C437.584 325.829 439.119 325.332 440.689 324.968C445.919 323.828 451.319 323.69 456.601 324.561C461.84 325.446 466.986 326.814 471.974 328.647C473.891 329.33 475.425 329.917 476.491 330.336C477.041 330.528 477.574 330.764 478.085 331.043Z" fill="#455A64"/>
<path d="M469.494 317.083C467.722 316.975 465.945 316.975 464.173 317.083C462.532 317.191 460.579 317.443 458.422 317.694C456.265 317.946 453.881 318.246 451.413 318.713C447.189 319.385 443.141 320.888 439.502 323.134C438.05 324.145 436.669 325.254 435.369 326.453C435.607 326.033 435.906 325.649 436.255 325.315C437.154 324.348 438.154 323.48 439.239 322.727C442.876 320.323 446.986 318.725 451.293 318.042C453.785 317.575 456.181 317.299 458.35 317.071C460.519 316.844 462.484 316.652 464.15 316.604C465.462 316.546 466.777 316.602 468.08 316.772C468.563 316.808 469.04 316.912 469.494 317.083Z" fill="#455A64"/>
<path d="M442.642 104.234C449.627 103.036 455.822 105.732 461.681 109.674C467.678 113.889 472.248 119.831 474.782 126.709C477.317 133.587 477.695 141.074 475.868 148.172C474.856 151.779 473.124 155.145 470.776 158.065C468.429 160.985 465.514 163.399 462.208 165.163C453.114 169.776 441.479 168.17 433.331 162.011C425.184 155.852 420.547 145.68 420.151 135.483C419.774 128.411 421.626 121.4 425.447 115.437C427.384 112.491 429.908 109.976 432.86 108.049C435.812 106.121 439.129 104.823 442.606 104.234" fill="#263238"/>
<path d="M462.531 128.017C461.501 125.333 461.908 122.349 461.501 119.51C460.602 113.267 455.51 108.259 449.759 105.826C444.343 103.562 437.776 104.053 431.21 106.162C426.681 107.534 422.637 110.17 419.552 113.758C417.588 116.193 416.237 119.063 415.612 122.128C414.987 125.193 415.105 128.362 415.957 131.372L447.901 126.723C450.897 129.191 453.964 131.719 457.595 133.097C458.641 133.556 459.789 133.738 460.926 133.625C461.492 133.557 462.027 133.328 462.467 132.965C462.907 132.601 463.233 132.119 463.406 131.576C463.694 130.365 462.975 129.179 462.531 128.017Z" fill="#263238"/>
<path d="M430.527 114.981L458.422 120.9C459.714 120.986 460.929 121.55 461.828 122.483C462.728 123.416 463.247 124.65 463.286 125.945L462.951 186.322C462.922 190.445 461.542 194.444 459.021 197.705L456.361 201.132C450.286 208.957 438.004 208.166 433.367 199.419C433.083 198.922 432.866 198.39 432.72 197.837C432.636 197.298 432.492 196.939 432.468 196.483L431.929 190.588C431.666 185.22 431.618 179.804 431.618 179.804C431.618 179.804 420.199 178.366 417.239 163.652C415.789 156.343 415.694 144.253 415.933 134.368C416.185 125.514 421.637 114.394 430.527 114.981Z" fill="#FFBE9D"/>
<path d="M420.211 145.75C420.226 146.244 420.434 146.712 420.79 147.054C421.146 147.397 421.622 147.587 422.116 147.583C422.358 147.595 422.601 147.557 422.828 147.473C423.056 147.388 423.265 147.259 423.441 147.092C423.618 146.926 423.759 146.725 423.857 146.503C423.954 146.281 424.006 146.041 424.009 145.798C423.991 145.304 423.782 144.837 423.427 144.493C423.072 144.149 422.598 143.956 422.104 143.953C421.861 143.943 421.618 143.982 421.39 144.068C421.163 144.154 420.954 144.284 420.778 144.452C420.601 144.619 420.46 144.821 420.363 145.044C420.265 145.267 420.214 145.507 420.211 145.75Z" fill="#263238"/>
<path d="M418.82 140.586C419.071 140.826 420.461 139.712 422.51 139.64C424.559 139.568 426.105 140.527 426.297 140.263C426.488 139.999 426.153 139.712 425.482 139.268C424.573 138.685 423.505 138.4 422.426 138.454C421.367 138.49 420.347 138.863 419.515 139.52C418.904 140.035 418.7 140.491 418.82 140.586Z" fill="#263238"/>
<path d="M438.519 145.284C438.532 145.78 438.738 146.251 439.095 146.596C439.451 146.941 439.928 147.133 440.424 147.13C440.666 147.139 440.907 147.1 441.133 147.015C441.36 146.93 441.567 146.8 441.742 146.634C441.917 146.468 442.057 146.268 442.154 146.046C442.251 145.825 442.303 145.586 442.306 145.344C442.293 144.85 442.088 144.381 441.734 144.036C441.381 143.692 440.906 143.499 440.412 143.499C440.17 143.489 439.929 143.528 439.702 143.613C439.475 143.698 439.267 143.828 439.091 143.994C438.914 144.16 438.773 144.36 438.675 144.581C438.577 144.803 438.524 145.042 438.519 145.284Z" fill="#263238"/>
<path d="M438.219 140.095C438.47 140.335 439.86 139.209 441.909 139.137C443.958 139.065 445.504 140.023 445.696 139.772C445.887 139.52 445.552 139.221 444.869 138.765C443.961 138.191 442.899 137.906 441.825 137.951C440.762 137.993 439.738 138.371 438.902 139.029C438.303 139.532 438.099 139.987 438.219 140.095Z" fill="#263238"/>
<path d="M432.096 155.625C431.003 155.343 429.881 155.186 428.753 155.157C428.226 155.157 427.735 155.037 427.627 154.69C427.565 154.154 427.665 153.611 427.914 153.132C428.358 151.85 428.825 150.508 429.304 149.094C431.233 143.355 432.599 138.646 432.372 138.574C432.144 138.502 430.383 143.091 428.465 148.831C428.01 150.245 427.567 151.587 427.147 152.881C426.84 153.523 426.772 154.254 426.956 154.942C427.04 155.121 427.164 155.28 427.317 155.407C427.47 155.533 427.65 155.624 427.842 155.672C428.134 155.733 428.431 155.761 428.729 155.756C429.852 155.862 430.985 155.817 432.096 155.625Z" fill="#263238"/>
<path d="M431.618 179.864C438.591 179.705 445.382 177.61 451.233 173.813C451.233 173.813 446.655 184.249 431.786 183.399L431.618 179.864Z" fill="#EB996E"/>
<path d="M433.151 160.514C433.52 160.011 434.013 159.61 434.581 159.35C435.149 159.089 435.775 158.979 436.398 159.029C436.858 159.053 437.308 159.172 437.721 159.378C438.133 159.584 438.498 159.873 438.794 160.227C439.075 160.553 439.25 160.957 439.297 161.384C439.344 161.812 439.261 162.244 439.058 162.623C438.743 163.001 438.323 163.276 437.852 163.415C437.381 163.554 436.879 163.549 436.41 163.402C435.429 163.101 434.52 162.603 433.738 161.94C433.498 161.79 433.291 161.595 433.127 161.365C433.051 161.251 433.011 161.118 433.011 160.982C433.011 160.845 433.051 160.712 433.127 160.598" fill="#EB996E"/>
<path d="M438.16 156.81C437.824 156.81 437.908 159.015 436.075 160.668C434.241 162.322 431.869 162.166 431.857 162.477C431.857 162.609 432.408 162.885 433.403 162.873C434.704 162.839 435.952 162.347 436.925 161.483C437.851 160.667 438.426 159.525 438.531 158.296C438.627 157.325 438.315 156.786 438.16 156.81Z" fill="#263238"/>
<path d="M438.339 134.033C438.555 134.584 440.592 134.237 443 134.428C445.408 134.62 447.361 135.207 447.661 134.692C447.793 134.452 447.445 133.937 446.643 133.434C445.578 132.804 444.378 132.438 443.144 132.367C441.918 132.263 440.685 132.456 439.549 132.931C438.627 133.314 438.243 133.769 438.339 134.033Z" fill="#263238"/>
<path d="M419.071 131.635C419.442 132.091 420.832 131.551 422.522 131.455C424.211 131.36 425.661 131.647 425.973 131.156C426.116 130.916 425.865 130.461 425.23 130.042C424.37 129.534 423.373 129.308 422.378 129.395C421.387 129.448 420.436 129.808 419.658 130.425C419.083 130.928 418.903 131.42 419.071 131.635Z" fill="#263238"/>
<path d="M467.648 123.704C464.748 115.208 452.071 103.634 443.18 104.437L429.041 113.291C429.556 115.723 430.719 117.97 432.406 119.794C434.094 121.619 436.243 122.953 438.627 123.656C441.179 124.375 444.223 124.53 445.816 126.675C447.41 128.82 446.559 132.115 448.033 134.368C450.082 137.507 455.486 137.243 457.044 140.646C457.715 142.132 457.415 143.929 458.122 145.439C459.057 147.404 464.113 149.813 466.186 149.118C468.259 148.423 468.187 144.888 468.822 143.019C469.639 140.916 469.699 138.594 468.99 136.453C467.959 132.247 469.026 127.754 467.648 123.704Z" fill="#263238"/>
<path d="M460.051 150.953C460.051 149.85 461.249 147.202 462.267 146.987C465.155 146.423 470.403 146.459 470.739 153.84C471.194 163.929 460.973 162.3 460.937 162.012C460.901 161.725 460.194 154.763 460.051 150.953Z" fill="#FFBE9D"/>
<path d="M463.79 158.057C463.79 158.057 463.97 158.164 464.281 158.284C464.7 158.453 465.168 158.453 465.587 158.284C466.642 157.841 467.457 156.104 467.433 154.294C467.413 153.425 467.205 152.571 466.822 151.79C466.711 151.48 466.526 151.201 466.284 150.978C466.042 150.755 465.75 150.593 465.432 150.508C465.229 150.462 465.016 150.489 464.831 150.586C464.647 150.682 464.503 150.842 464.425 151.035C464.305 151.323 464.425 151.526 464.317 151.538C464.209 151.55 464.102 151.383 464.162 150.963C464.199 150.711 464.327 150.481 464.521 150.316C464.654 150.202 464.808 150.116 464.975 150.063C465.142 150.009 465.317 149.99 465.492 150.005C465.909 150.07 466.303 150.241 466.636 150.501C466.969 150.761 467.231 151.102 467.397 151.49C467.862 152.344 468.113 153.298 468.128 154.27C468.128 156.307 467.205 158.26 465.731 158.752C465.464 158.841 465.181 158.87 464.901 158.837C464.621 158.804 464.352 158.709 464.114 158.56C463.886 158.296 463.79 158.069 463.79 158.057Z" fill="#EB996E"/>
<path d="M469.78 121.152C469.78 117.989 473.686 115.928 476.766 115.161C479.908 114.621 483.139 115.239 485.86 116.898C487.478 117.785 489.107 119.055 489.455 120.864C489.802 122.674 488.077 124.831 486.351 124.184C487.195 124.459 487.966 124.919 488.61 125.529C489.254 126.14 489.754 126.886 490.075 127.713C490.396 128.54 490.528 129.428 490.464 130.313C490.399 131.198 490.139 132.057 489.702 132.83C489.265 133.602 488.662 134.267 487.936 134.777C487.21 135.288 486.38 135.631 485.506 135.782C484.632 135.932 483.735 135.887 482.88 135.649C482.026 135.41 481.235 134.985 480.564 134.404C481.439 137.33 483.292 139.868 485.812 141.593C483.205 141.968 480.545 141.648 478.101 140.667C475.657 139.687 473.514 138.079 471.888 136.006C470.263 133.934 469.212 131.47 468.842 128.862C468.472 126.254 468.796 123.595 469.78 121.152Z" fill="#263238"/>
<path d="M476.802 137.136C477.102 136.155 477.231 135.13 477.185 134.105C477.225 129.12 475.588 124.267 472.536 120.325C471.96 119.478 471.238 118.739 470.403 118.145C472.511 120.835 474.192 123.834 475.388 127.035C477.245 132.427 476.574 137.148 476.802 137.136Z" fill="#EB5454"/>
<path d="M431.989 110.248C431.067 114.358 424.8 119.618 422.08 122.817C416.856 128.916 415.826 130.941 415.874 144.588C413.405 139.879 411.512 135.254 411.704 129.946C411.82 124.569 413.9 119.421 417.551 115.472C419.378 113.545 421.628 112.07 424.124 111.163C426.619 110.257 429.292 109.943 431.929 110.248" fill="#263238"/>
<path d="M389.201 222.497C389.201 222.497 400.081 204.368 403.101 200.701C405.525 197.867 408.572 195.632 412.003 194.171C413.358 193.586 414.778 193.164 416.233 192.913L431.881 189.45C431.881 189.45 431.881 200.126 443.085 200.785C454.288 201.444 463.682 185.855 463.682 185.855C463.682 185.855 481.763 188.659 486.076 190.888C490.39 193.117 497.196 195.932 500.934 214.612L503.558 232.921L472.405 235.797L469.421 282.095L453.976 292.879C453.976 292.879 411.14 304.011 408.444 304.741C405.749 305.472 404.85 235.821 404.85 235.821C404.85 235.821 393.754 228.739 389.201 222.497Z" fill="#263238"/>
<path d="M409.713 214.708C409.461 215.131 409.256 215.581 409.102 216.05C408.755 216.924 408.299 218.206 407.796 219.812C405.177 228.225 404.097 237.041 404.609 245.837C404.705 247.514 404.837 248.868 404.98 249.803C405.012 250.29 405.097 250.772 405.232 251.241C405.289 250.755 405.289 250.265 405.232 249.779C405.172 248.844 405.1 247.49 405.064 245.813C404.948 241.451 405.148 237.086 405.663 232.752C406.204 228.426 407.061 224.145 408.228 219.944C408.671 218.326 409.066 217.02 409.354 216.133C409.524 215.672 409.644 215.194 409.713 214.708Z" fill="#455A64"/>
<path d="M411.068 290.542L469.781 277.769L472.488 235.832L498.573 233.436C498.573 233.436 497.603 262.097 496.608 270.58C495.159 282.838 487.921 299.565 483.68 302.932C479.438 306.299 408.492 304.765 408.492 304.765L411.068 290.542Z" fill="#FFBE9D"/>
<path d="M377.746 298.138C377.941 298.544 378.253 298.881 378.641 299.107C379.03 299.334 379.477 299.439 379.926 299.408C380.118 299.395 380.307 299.359 380.489 299.301C381.795 298.881 381.688 296.233 381.688 296.233L387.894 295.227C387.894 295.227 395.982 300.439 398.858 303.89C401.734 307.341 409.067 304.549 409.067 304.549L411.607 291.297L400.164 280.956C400.164 280.956 400.859 281.567 400.068 279.638C399.277 277.709 395.695 278.44 395.695 278.44C395.131 277.481 392.783 277.146 392.783 277.146L382.742 278.344C381.722 278.462 380.741 278.808 379.872 279.355C379.004 279.903 378.269 280.638 377.722 281.507L373.468 288.229C373.468 288.229 371.227 293.022 371.587 294.22C371.747 294.701 372.082 295.104 372.527 295.349C372.971 295.593 373.491 295.661 373.983 295.538C373.983 295.538 374.474 298.725 375.313 298.833C376.17 298.789 377.011 298.586 377.793 298.234L377.746 298.138Z" fill="#FFBE9D"/>
<path d="M399.086 288.627C399.086 288.735 397.744 288.627 395.599 288.699C392.814 288.834 390.06 289.35 387.415 290.233C385.959 290.722 384.545 291.327 383.186 292.042C381.987 292.725 380.717 293.24 380.322 294.163C380.233 294.354 380.196 294.566 380.215 294.776C380.234 294.987 380.308 295.189 380.43 295.361C380.612 295.644 380.875 295.865 381.185 295.996C381.469 296.095 381.77 296.14 382.071 296.128C382.071 296.128 381.76 296.403 381.113 296.236C380.722 296.129 380.38 295.893 380.142 295.565C379.97 295.346 379.857 295.087 379.815 294.812C379.773 294.536 379.803 294.255 379.903 293.995C380.158 293.418 380.574 292.928 381.101 292.581C381.652 292.234 382.227 291.862 382.862 291.515C384.238 290.76 385.678 290.126 387.164 289.622C389.866 288.708 392.699 288.243 395.551 288.244C396.742 288.185 397.935 288.314 399.086 288.627Z" fill="#EB996E"/>
<path d="M399.804 295.025C399.804 295.216 395.706 295.025 390.686 295.336C385.665 295.648 381.639 296.247 381.603 296.055C382.441 295.726 383.32 295.512 384.216 295.42C386.345 295.059 388.493 294.819 390.65 294.701C392.809 294.581 394.973 294.581 397.132 294.701C398.033 294.685 398.933 294.794 399.804 295.025Z" fill="#EB996E"/>
<path d="M377.805 297.885C377.717 297.536 377.673 297.178 377.674 296.818C377.613 295.837 377.613 294.852 377.674 293.871C377.708 293.185 377.8 292.504 377.949 291.834C378.13 291.049 378.464 290.308 378.932 289.653C379.921 288.136 381.199 286.829 382.694 285.807C384.17 284.784 385.784 283.978 387.487 283.41C388.9 283.012 390.357 282.79 391.824 282.751C393.023 282.751 394.053 282.751 394.748 282.751C395.111 282.727 395.475 282.764 395.826 282.859C394.508 283.048 393.18 283.16 391.848 283.195C390.426 283.29 389.019 283.547 387.655 283.962C386.02 284.558 384.47 285.364 383.042 286.358C381.628 287.349 380.41 288.592 379.447 290.024C378.659 291.19 378.207 292.549 378.141 293.955C377.877 296.339 377.937 297.885 377.805 297.885Z" fill="#EB996E"/>
<path d="M392.293 279.676C392.293 279.772 390.795 279.82 388.399 280.096C386.002 280.371 382.408 280.611 380.287 283.798C378.246 286.176 376.544 288.825 375.23 291.67C374.795 292.892 374.474 294.152 374.272 295.433C374.201 295.081 374.201 294.718 374.272 294.366C374.333 293.393 374.531 292.433 374.859 291.514C376.073 288.557 377.761 285.818 379.855 283.403C380.415 282.663 381.067 281.998 381.796 281.426C382.516 280.905 383.33 280.531 384.193 280.323C385.584 279.95 387.009 279.721 388.446 279.64C389.725 279.5 391.017 279.512 392.293 279.676Z" fill="#EB996E"/>
<path d="M396.69 301.758C396.477 301.624 396.277 301.471 396.091 301.303L394.413 299.949C392.302 298.308 390.098 296.792 387.811 295.407H387.955L381.748 296.462L381.964 296.198C381.983 296.708 381.943 297.219 381.844 297.72C381.762 298.278 381.516 298.8 381.137 299.218C380.909 299.423 380.626 299.557 380.322 299.601C380.033 299.655 379.737 299.655 379.447 299.601C378.844 299.512 378.294 299.205 377.902 298.738C377.797 298.629 377.704 298.509 377.626 298.379L377.566 298.271L377.926 298.403L377.734 298.475C377.47 298.583 377.207 298.678 376.931 298.762C376.656 298.846 376.38 298.918 376.081 298.978C375.925 298.991 375.769 298.991 375.613 298.978C375.416 298.99 375.218 298.953 375.038 298.87C374.765 298.656 374.558 298.369 374.439 298.043C374.312 297.769 374.208 297.484 374.127 297.193C373.959 296.614 373.827 296.026 373.732 295.431L374.091 295.683C373.671 295.771 373.234 295.744 372.827 295.605C372.42 295.465 372.058 295.219 371.779 294.892C371.502 294.554 371.35 294.131 371.348 293.694C371.381 293.289 371.453 292.887 371.563 292.496C372.034 290.969 372.606 289.476 373.277 288.026L375.541 284.432L376.979 282.167C377.416 281.374 377.943 280.635 378.549 279.962C379.191 279.316 379.957 278.807 380.801 278.465C381.624 278.159 382.489 277.981 383.366 277.938L392.819 276.871H392.891C393.46 276.962 394.018 277.111 394.557 277.314C395.132 277.487 395.636 277.84 395.995 278.321L395.647 278.213C396.158 277.977 396.719 277.87 397.281 277.901C397.843 277.933 398.389 278.101 398.87 278.393C399.709 279.003 400.28 279.913 400.464 280.933L400.392 280.801L408.276 287.895L410.397 289.848C410.659 290.061 410.896 290.302 411.104 290.567C410.823 290.382 410.558 290.174 410.313 289.944L408.097 288.086L400.081 281.161H400.021V281.077C399.849 280.188 399.349 279.396 398.619 278.86C398.207 278.627 397.745 278.495 397.272 278.476C396.799 278.458 396.328 278.552 395.899 278.752L395.683 278.836L395.551 278.644C395.239 278.273 394.821 278.006 394.353 277.878C393.852 277.695 393.334 277.563 392.807 277.482H392.891L383.437 278.597C382.618 278.645 381.811 278.814 381.041 279.1C380.276 279.406 379.583 279.867 379.004 280.454C378.432 281.095 377.934 281.798 377.518 282.551L376.081 284.827C375.302 286.025 374.535 287.224 373.816 288.422C373.149 289.833 372.585 291.291 372.126 292.783C372.02 293.13 371.952 293.488 371.923 293.85C371.916 294.16 372.023 294.462 372.222 294.7C372.426 294.939 372.691 295.118 372.989 295.217C373.286 295.316 373.606 295.332 373.912 295.264H374.235V295.563C374.327 296.133 374.451 296.697 374.607 297.253C374.708 297.746 374.931 298.207 375.254 298.595C375.337 298.608 375.422 298.608 375.505 298.595H375.889C376.14 298.595 376.404 298.475 376.668 298.403L377.434 298.139L377.614 298.067L377.986 298.199V298.271C378.044 298.374 378.112 298.47 378.189 298.559C378.494 298.923 378.919 299.165 379.388 299.242C379.613 299.289 379.845 299.289 380.071 299.242C380.282 299.221 380.482 299.138 380.646 299.002C381.171 298.243 381.409 297.321 381.317 296.402V296.174H381.532L387.763 295.204H387.835H387.895C390.174 296.63 392.356 298.207 394.425 299.925C395.144 300.536 395.683 301.027 396.043 301.362C396.272 301.471 396.489 301.603 396.69 301.758Z" fill="#EB996E"/>
<path d="M301.648 259.593L378.897 260.228C381.413 260.228 383.797 261.426 384.181 263.907L392.568 320.222H432.42C433.007 320.264 433.555 320.527 433.955 320.957C434.356 321.387 434.578 321.953 434.578 322.541C434.578 323.128 434.356 323.694 433.955 324.124C433.555 324.555 433.007 324.817 432.42 324.859H305.315L296.628 265.428C296.519 264.706 296.568 263.968 296.77 263.266C296.973 262.564 297.324 261.914 297.801 261.36C298.277 260.806 298.868 260.362 299.532 260.057C300.196 259.752 300.918 259.594 301.648 259.593Z" fill="#EB5454"/>
<path d="M301.647 259.592C301.244 259.575 300.841 259.615 300.449 259.711C299.421 259.955 298.494 260.511 297.795 261.302C297.095 262.094 296.658 263.083 296.543 264.133C296.514 265.199 296.61 266.265 296.831 267.308L297.945 275.156C299.646 286.959 302.091 303.973 305.134 324.894V325.098H305.338L428.645 325.169H431.964C432.567 325.227 433.174 325.11 433.714 324.834C434.126 324.608 434.47 324.275 434.709 323.87C434.949 323.465 435.075 323.004 435.075 322.533C435.075 322.063 434.949 321.601 434.709 321.197C434.47 320.792 434.126 320.459 433.714 320.233C433.173 319.962 432.566 319.85 431.964 319.909H392.615L392.915 320.173C389.883 300.007 387.043 281.195 384.527 264.313C384.444 263.185 383.929 262.134 383.089 261.377C382.251 260.67 381.229 260.217 380.142 260.071C379.107 259.97 378.066 259.934 377.026 259.963H373.995L362.36 259.891L341.691 259.759L312.263 259.604H301.671C301.671 259.604 301.899 259.604 302.354 259.604H304.391L312.263 259.711L341.691 260.035L362.36 260.251L373.995 260.358H377.026C378.038 260.34 379.05 260.376 380.058 260.466C381.053 260.598 381.989 261.014 382.754 261.665C383.127 262 383.43 262.405 383.646 262.857C383.861 263.31 383.986 263.8 384.012 264.301C386.528 281.183 389.332 299.995 392.399 320.161V320.425H431.94C432.433 320.362 432.933 320.446 433.378 320.664C433.784 320.897 434.097 321.262 434.265 321.699C434.433 322.135 434.445 322.616 434.301 323.061C434.129 323.511 433.808 323.887 433.39 324.127C432.94 324.345 432.438 324.432 431.94 324.379H428.621L305.314 324.451L305.553 324.654C302.45 303.746 299.934 286.743 298.184 274.941C297.741 272.005 297.346 269.381 296.986 267.116C296.764 266.089 296.655 265.04 296.663 263.989C296.763 262.963 297.177 261.993 297.848 261.211C298.519 260.428 299.415 259.871 300.413 259.616C300.824 259.586 301.236 259.578 301.647 259.592Z" fill="#263238"/>
<path d="M343.549 296.354C340.876 296.354 338.709 294.187 338.709 291.513C338.709 288.84 340.876 286.672 343.549 286.672C346.223 286.672 348.39 288.84 348.39 291.513C348.39 294.187 346.223 296.354 343.549 296.354Z" fill="white"/>
<path d="M389.499 324.331C389.392 324.331 386.935 310.013 384.012 292.315C381.088 274.618 378.799 260.239 378.907 260.227C379.015 260.215 381.483 274.546 384.407 292.243C387.331 309.941 389.595 324.319 389.499 324.331Z" fill="#263238"/>
</svg>
