<?xml version="1.0" encoding="iso-8859-1"?>
<!-- Uploaded to: SVG Repo, www.svgrepo.com, Generator: SVG Repo Mixer Tools -->
<svg fill="#2b6294" height="800px" width="800px" version="1.1" id="Layer_1" xmlns="http://www.w3.org/2000/svg" xmlns:xlink="http://www.w3.org/1999/xlink" 
	 viewBox="0 0 512 512" xml:space="preserve">
<g>
	<g>
		<path d="M475.743,186.351c-0.61-0.983-0.976-2.113-1.061-3.264c-6.714-92.04,2.5-78.245-81.815-112.608
			c-1.069-0.436-2.029-1.133-2.775-2.016C330.965-1.576,346.708,3.547,257.717,25.451c-1.124,0.276-2.31,0.276-3.433,0
			C165.477,3.593,181.17-1.734,121.909,68.462c-0.747,0.884-1.707,1.581-2.779,2.018c-84.911,34.605-75.148,21.247-81.814,112.605
			c-0.084,1.155-0.451,2.284-1.06,3.265c-48.234,77.709-48.451,61.131,0,139.189c0.61,0.983,0.976,2.113,1.061,3.264
			c6.658,91.276-3.175,77.971,81.815,112.608c1.069,0.435,2.029,1.133,2.775,2.016c59.135,70.046,43.415,64.909,132.376,43.013
			c1.124-0.276,2.31-0.276,3.433,0c88.384,21.753,72.646,27.74,132.376-43.011c0.747-0.884,1.707-1.581,2.779-2.018
			c84.911-34.606,75.148-21.247,81.814-112.605c0.084-1.155,0.451-2.284,1.06-3.265C523.977,247.832,524.194,264.41,475.743,186.351
			z M244.998,238.898h22.006c62.659,0,67.945,92.414,6.1,99.949v26.158c0,8.779-6.432,16.481-15.157,17.444
			c-10.316,1.138-19.047-6.908-19.047-16.995v-26.223h-26.914c-8.779,0-16.481-6.432-17.444-15.157
			c-1.138-10.316,6.908-19.047,16.995-19.047h55.468c21.094,0,21.095-31.924,0-31.924h-22.006c-62.659,0-67.945-92.414-6.1-99.949
			v-26.158c0-8.779,6.432-16.481,15.157-17.444c10.316-1.138,19.047,6.908,19.047,16.995v26.223h26.914
			c8.779,0,16.481,6.432,17.444,15.157c1.138,10.316-6.908,19.047-16.995,19.047h-55.468
			C223.903,206.974,223.903,238.898,244.998,238.898z"/>
	</g>
</g>
</svg>