<svg width="83" height="71" viewBox="0 0 83 71" fill="none" xmlns="http://www.w3.org/2000/svg">
<rect x="0.5" y="1.4375" width="82" height="69" rx="5.5" fill="#F7F9FA" stroke="#EFEFEF"/>
<path d="M56.3951 37.8602C57.4286 37.6018 58.3587 37.2918 59.2371 36.8267V50.9331C59.2371 51.1398 59.1854 51.3465 59.1337 51.5532L46.4742 40.5988L51.693 36.0517C52.9331 36.8784 54.3283 37.4985 55.8784 37.8602C55.9818 37.8602 56.0334 37.8602 56.1368 37.8602C56.2401 37.8602 56.2918 37.8602 56.3951 37.8602ZM42.1337 44.3191C41.5653 44.8359 40.8419 45.0942 40.1185 45.0942C39.3951 45.0942 38.6717 44.8359 38.1033 44.3191L35.3647 41.9422L22.6535 52.9483C22.8085 53 22.9635 53 23.0669 53H57.1702C57.3252 53 57.4802 53 57.5836 52.9483L44.8723 41.9422L42.1337 44.3191ZM21.1033 29.6444C21.0517 29.8511 21 30.0578 21 30.2644V50.9331C21 51.1398 21.0517 51.3465 21.1033 51.5532L33.7629 40.5988L21.1033 29.6444ZM36.9149 40.5988L39.4468 42.769C39.8602 43.1307 40.4286 43.1307 40.7903 42.769L43.3222 40.5988L44.2523 39.8237L50.0912 34.7599C48.2827 33.003 47.0942 30.6778 46.8875 28.1976H23.0669C22.9119 28.1976 22.7568 28.1976 22.6535 28.2492L36.0365 39.8237L36.9149 40.5988ZM56.1368 19C54.4833 20.8602 51.848 22.1003 48.9027 22.307V27.3191C48.9027 31.2462 51.848 34.7082 56.1368 35.7933C60.4255 34.7082 63.3708 31.2462 63.3708 27.3191V22.307C60.4255 22.1003 57.7903 20.8602 56.1368 19Z" fill="#EB5454"/>
</svg>
