<svg width="509" height="480" viewBox="0 0 509 480" fill="none" xmlns="http://www.w3.org/2000/svg">
<g clip-path="url(#clip0_925_3990)">
<g opacity="0.1">
<path d="M505.628 132.652H420.708V221.215H505.628V132.652Z" fill="#eb5454"/>
<path d="M499.88 132.651H414.96V221.214H499.88V132.651Z" fill="#eb5454"/>
<path d="M499.902 221.236H414.928V132.619H499.902V221.236ZM414.982 221.181H499.847V132.674H414.982V221.181Z" fill="#eb5454"/>
<path d="M488.471 144.559H426.38V209.307H488.471V144.559Z" fill="#eb5454"/>
<path d="M426.38 209.734C426.424 209.789 425.844 210.468 424.847 211.52C423.851 212.571 422.461 213.984 420.906 215.518C419.34 217.063 417.906 218.432 416.855 219.407C415.793 220.382 415.114 220.951 415.059 220.907C415.004 220.853 415.596 220.184 416.581 219.133C417.577 218.081 418.968 216.668 420.534 215.124C422.099 213.579 423.534 212.21 424.596 211.235C425.658 210.26 426.336 209.691 426.38 209.745V209.734Z" fill="#eb5454"/>
<path d="M488.46 209.581C488.515 209.538 489.194 210.118 490.245 211.115C491.296 212.112 492.708 213.503 494.241 215.058C495.785 216.625 497.153 218.06 498.128 219.111C499.102 220.174 499.672 220.853 499.628 220.908C499.573 220.963 498.905 220.371 497.854 219.385C496.803 218.388 495.391 216.997 493.847 215.431C492.303 213.864 490.934 212.429 489.96 211.367C488.985 210.304 488.416 209.625 488.471 209.581H488.46Z" fill="#eb5454"/>
<path d="M488.296 144.723C488.252 144.668 488.833 143.989 489.829 142.938C490.825 141.886 492.216 140.473 493.771 138.94C495.336 137.395 496.771 136.026 497.822 135.051C498.884 134.076 499.563 133.506 499.617 133.561C499.672 133.616 499.081 134.284 498.095 135.336C497.099 136.387 495.709 137.8 494.143 139.345C492.577 140.889 491.143 142.259 490.081 143.234C489.019 144.208 488.34 144.778 488.296 144.723Z" fill="#eb5454"/>
<path d="M426.205 144.887C426.15 144.931 425.471 144.351 424.42 143.354C423.369 142.357 421.957 140.966 420.424 139.41C418.88 137.844 417.512 136.409 416.537 135.358C415.563 134.295 414.993 133.616 415.048 133.561C415.103 133.506 415.771 134.098 416.822 135.084C417.873 136.081 419.285 137.472 420.829 139.038C422.373 140.604 423.741 142.039 424.716 143.102C425.69 144.164 426.26 144.844 426.205 144.887Z" fill="#eb5454"/>
<path d="M488.296 209.307C488.296 209.307 488.296 209.197 488.285 208.989C488.285 208.77 488.285 208.474 488.274 208.091C488.274 207.28 488.263 206.108 488.241 204.597C488.23 201.53 488.208 197.071 488.176 191.397C488.143 180.06 488.099 163.903 488.055 144.558L488.296 144.799C470.219 144.799 449.001 144.821 426.38 144.832L426.654 144.558C426.643 168.328 426.621 190.554 426.61 209.307L426.369 209.066C444.928 209.121 460.366 209.154 471.205 209.186C476.614 209.208 480.873 209.23 483.796 209.252C485.241 209.263 486.358 209.274 487.124 209.274C487.486 209.274 487.77 209.274 487.989 209.285C488.186 209.285 488.285 209.285 488.285 209.296C488.285 209.296 488.197 209.296 488.011 209.307C487.803 209.307 487.53 209.307 487.179 209.318C486.413 209.318 485.318 209.329 483.895 209.34C480.982 209.351 476.745 209.373 471.358 209.406C460.497 209.438 444.993 209.471 426.38 209.526H426.139V209.285C426.129 190.532 426.118 168.307 426.096 144.537V144.263H426.369C448.979 144.274 470.209 144.285 488.285 144.296H488.526V144.537C488.471 163.947 488.438 180.148 488.405 191.529C488.384 197.17 488.362 201.617 488.34 204.673C488.329 206.174 488.318 207.324 488.307 208.124C488.307 208.496 488.307 208.792 488.296 209C488.296 209.197 488.296 209.296 488.285 209.285L488.296 209.307Z" fill="#eb5454"/>
<path d="M467.778 166.565H447.062V187.29H467.778V166.565Z" fill="#918989"/>
<path d="M422.318 2.88037L140.397 10.7588L151.958 424.852L433.879 416.974L422.318 2.88037Z" fill="#eb5454"/>
<path d="M406.482 15.4547L124.875 -0.000976562L102.194 413.632L383.802 429.087L406.482 15.4547Z" fill="#eb5454"/>
<path d="M455.713 42.1895L174.7 18.2354L139.548 430.994L420.561 454.949L455.713 42.1895Z" fill="#918989"/>
<path d="M25.1931 370.298C20.934 367.625 16.0508 365.938 11.0581 365.434C8.74794 365.193 6.21876 365.259 4.36841 366.661C3.97425 366.957 3.59104 367.395 3.67864 367.888C3.74433 368.249 4.03995 368.501 4.33557 368.72C10.0837 373.113 18.788 373.66 25.1931 370.298Z" fill="#eb5454"/>
<path d="M24.8319 369.893C21.6349 367.395 18.4159 364.876 15.7006 361.852C12.9853 358.829 10.7846 355.236 9.97439 351.26C9.73352 350.055 9.65688 348.675 10.4233 347.711C17.7043 353.396 23.4195 360.757 24.8319 369.893Z" fill="#eb5454"/>
<path d="M25.1164 370.243C24.5689 366.255 24.3718 362.159 25.2806 358.248C26.2003 354.327 28.3244 350.58 31.6638 348.346C32.9229 351.292 32.3864 354.677 31.4995 357.755C30.1309 362.509 27.985 367.033 25.1711 371.097" fill="#eb5454"/>
<path d="M32.2554 383.037C27.9196 383.563 24.1532 385.852 20.9124 388.777C17.6825 391.713 15.3832 395.656 14.4307 399.917C18.6788 399.654 22.281 396.653 24.8977 393.29C27.5145 389.927 29.3211 386.236 32.2006 383.092" fill="#eb5454"/>
<path d="M33.7992 385.074C30.3065 376.475 31.5766 366.113 37.0291 358.609C39.4926 367.394 38.5948 377.308 33.7992 385.074Z" fill="#eb5454"/>
<path d="M43.237 396.313C39.3064 396.072 35.3101 397.003 31.894 398.975C28.478 400.935 25.6641 403.926 23.9014 407.453C23.6605 407.935 23.4525 408.537 23.77 408.964C24.0437 409.337 24.5912 409.37 25.051 409.337C28.8612 409.085 32.2444 406.796 35.0254 404.189C37.8173 401.582 40.237 398.558 43.3246 396.302" fill="#eb5454"/>
<path d="M42.9306 395.7C40.905 389.204 40.7737 382.139 42.5693 375.578C43.2809 372.993 44.4634 370.265 46.8612 369.049C47.0692 368.951 47.2992 368.852 47.5181 368.929C47.7262 369.005 47.8356 369.214 47.9342 369.411C48.7882 371.196 49.0291 373.212 48.9415 375.183C48.8539 377.155 48.4488 379.094 48.0327 381.033C47.2773 384.604 46.8721 388.449 44.9233 391.527C44.4634 392.261 44.0474 393.049 43.6751 393.827C43.3028 394.605 43.3028 394.89 42.9634 395.514" fill="#eb5454"/>
<path d="M67.8936 399.424C66.0433 392.391 68.0031 383.858 72.4374 378.085C72.7659 377.658 73.1928 377.209 73.7293 377.253C74.5505 377.33 74.7585 378.414 74.7257 379.236C74.4082 386.421 72.0104 393.509 67.8936 399.424Z" fill="#eb5454"/>
<path d="M70.1382 400.957C78.6783 403.181 88.4884 401.023 95.5942 395.776C91.3789 393.64 86.4191 393.027 81.8096 394.089C77.2111 395.141 72.9958 397.211 70.1382 400.957Z" fill="#eb5454"/>
<path d="M72.0322 396.269C76.8169 388.459 85.992 383.365 95.1342 382.905C94.0832 386.63 91.0284 389.521 87.5796 391.263C84.1307 393.005 80.2876 393.772 76.4884 394.505C75.0103 394.79 72.9848 395.108 72.0322 396.269Z" fill="#eb5454"/>
<path d="M68.3642 373.54C69.6562 369.093 70.9591 364.612 71.3204 360.001C71.6708 355.389 71.0138 350.57 68.627 346.615C64.1599 355.269 63.7 365.379 68.2328 374.011" fill="#eb5454"/>
<path d="M83.4189 365.927C88.6415 356.419 99.3166 348.828 110.101 347.766C105.941 358.139 94.5867 366.146 83.4189 365.927Z" fill="#eb5454"/>
<path d="M80.1235 367.789C87.9191 368.972 94.565 373.956 101.846 376.979C103.401 377.625 105.087 378.14 106.762 377.921C108.437 377.702 110.08 376.585 110.463 374.931C110.769 373.561 110.156 372.116 109.171 371.108C108.196 370.111 106.893 369.487 105.601 368.939C97.6636 365.631 89.1563 365.554 80.7914 367.559" fill="#eb5454"/>
<path d="M75.6125 373.255C77.3753 373.759 77.9775 374.679 79.3789 375.862C84.1197 379.904 89.8131 382.829 95.8569 384.329C96.481 384.483 97.3131 384.548 97.6197 383.979C97.8934 383.486 97.543 382.883 97.1926 382.434C94.6635 379.269 91.0504 377.1 87.2402 375.676C83.4409 374.263 80.1453 372.554 75.6016 372.915" fill="#eb5454"/>
<path d="M70.5212 340.219C76.8606 346.134 85.7948 349.179 94.4225 348.357C94.8166 348.324 95.2437 348.259 95.5064 347.963C96.1086 347.306 95.386 346.298 94.6853 345.75C87.6561 340.273 79.1489 337.995 70.5103 340.219" fill="#eb5454"/>
<path d="M76.5649 338.006C84.9408 331.718 96.4371 329.823 106.39 333.076C102.634 336.779 97.4225 338.772 92.178 339.32C86.9335 339.868 81.678 339.287 76.5649 338.006Z" fill="#eb5454"/>
<path d="M74.1562 322.824C73.4664 315.802 73.9153 310.271 73.4226 303.216C73.3788 302.658 73.2584 301.978 72.7328 301.77C71.9992 301.486 71.3861 302.395 71.1452 303.14C69.054 309.635 70.2036 317.095 74.1343 322.67" fill="#eb5454"/>
<path d="M73.6528 323.601C78.4046 320.654 81.9739 316.82 85.2695 312.307C87.5688 309.164 89.4958 305.406 88.9812 301.551C85.7622 301.485 82.6966 303.259 80.5944 305.713C78.5032 308.167 77.255 311.223 76.3243 314.312C75.3937 317.401 74.7477 320.578 73.6528 323.612" fill="#eb5454"/>
<path d="M85.0725 320.424C95.5067 316.568 105.24 310.818 113.671 303.555C110.255 302.175 106.346 303.007 102.93 304.377C95.1235 307.531 88.7513 312.844 84.9302 320.348" fill="#eb5454"/>
<path d="M76.8608 327.435C82.1382 328.015 87.5031 328.388 92.7366 327.511C97.8826 326.646 102.744 324.609 107.561 322.582C107.956 322.418 108.393 322.21 108.569 321.815C108.755 321.388 108.558 320.862 108.207 320.545C107.857 320.227 107.397 320.074 106.948 319.953C101.715 318.485 96.076 319.175 90.9301 320.906C85.7841 322.648 81.5688 324.707 76.8608 327.424" fill="#eb5454"/>
<path d="M46.7187 340.459C43.1165 333.186 43.3464 324.697 46.4668 317.204C48.6566 320.545 48.9194 324.795 48.5252 328.771C48.1201 332.748 46.9157 336.834 46.8391 340.821" fill="#eb5454"/>
<path d="M32.332 333.196C23.3431 333.021 14.3431 336.855 8.24463 343.46C12.7336 344.161 17.3541 343.011 21.438 341.017C25.5219 339.024 29.1459 336.23 32.7481 333.448" fill="#eb5454"/>
<path d="M22.6641 329.965C18.2626 329.604 14.0364 329.067 9.7992 330.36C5.57295 331.652 1.71897 334.599 0 338.674C4.11676 339.134 8.28826 338.104 12.0547 336.395C15.8211 334.686 19.259 332.32 22.6641 329.965Z" fill="#eb5454"/>
<path d="M36.9852 330.108C33.0326 327.512 28.9597 324.872 24.3612 323.798C19.7517 322.725 14.4087 323.514 11.2007 326.997C14.9342 329.188 19.4561 329.451 23.7809 329.44C28.1057 329.44 33.4049 329.385 37.4888 330.831" fill="#eb5454"/>
<path d="M37.0071 330.316C30.2407 323.667 27.6787 311.727 30.394 302.646C35.7151 310.73 38.091 320.698 37.0071 330.316Z" fill="#eb5454"/>
<path d="M55.6089 311.486C56.8899 308.517 57.7768 305.406 58.9264 302.383C60.076 299.36 61.4884 296.391 63.6563 293.992C65.8241 291.593 68.8132 289.808 72.0321 289.644C70.0175 298.79 63.9409 306.962 55.7731 311.529" fill="#eb5454"/>
<path d="M52.2477 315.408C50.1346 312.505 47.693 308.551 44.8353 306.382C41.9667 304.213 38.2441 302.898 34.7515 303.731C38.3098 310.084 45.0215 314.564 52.2477 315.408Z" fill="#eb5454"/>
<path d="M52.9159 311.727C51.5363 308.211 50.1349 304.651 49.5765 300.916C49.0181 297.18 49.3575 293.182 51.2736 289.918C54.9852 296.939 56.1786 304.476 53.113 311.804" fill="#eb5454"/>
<path d="M55.6421 289.918C57.7443 282.951 64.1165 277.825 70.9923 275.48C71.8573 275.185 72.777 274.933 73.6858 275.075C74.5945 275.218 75.4814 275.831 75.6675 276.729C75.9193 277.912 74.9449 278.975 74.0252 279.763C68.6712 284.342 62.3756 287.825 55.6421 289.918Z" fill="#eb5454"/>
<path d="M55.7184 284.222C55.9811 279.731 56.2658 275.174 57.722 270.924C59.1782 266.674 61.9921 262.675 66.0869 260.824C66.7876 265.359 64.784 269.872 62.3753 273.772C59.9665 277.671 57.0541 281.352 55.6089 285.711" fill="#eb5454"/>
<path d="M55.6093 287.321C53.8684 282.25 53.6932 275.798 50.6495 271.383C48.5254 268.294 45.1313 266.191 43.3028 262.916C42.0875 265.972 42.4598 269.499 43.7298 272.534C44.9999 275.568 47.1021 278.175 49.3466 280.585C51.5911 282.984 53.5181 284.791 55.6093 287.332" fill="#eb5454"/>
<path d="M55.6422 436.744C55.5108 436.744 55.3903 402.896 55.3794 361.151C55.3794 319.394 55.467 285.547 55.6093 285.547C55.7517 285.547 55.8611 319.383 55.8721 361.151C55.8721 402.896 55.7845 436.744 55.6422 436.744Z" fill="#eb5454"/>
<path d="M85.2145 335.354C85.2145 335.354 84.7656 335.552 83.9445 335.836C83.0357 336.143 81.8532 336.538 80.4408 337.02C77.4847 338.027 73.4336 339.484 69.0322 341.292C64.6745 343.165 60.5687 344.676 58.2257 346.714C57.0541 347.71 56.3863 348.795 56.0578 349.584C55.7184 350.383 55.6636 350.865 55.6198 350.854C55.5979 350.854 55.6089 350.734 55.6308 350.504C55.6746 350.274 55.7293 349.934 55.8826 349.518C56.1673 348.685 56.8242 347.524 58.0067 346.451C59.1782 345.377 60.8205 344.413 62.6928 343.537C64.565 342.661 66.6453 341.752 68.857 340.842C73.2694 339.035 77.3533 337.622 80.3423 336.702C81.8313 336.231 83.0467 335.891 83.9007 335.672C84.7437 335.453 85.2145 335.344 85.2255 335.376L85.2145 335.354Z" fill="#eb5454"/>
<path d="M94.9042 311.53C94.9042 311.53 94.7947 311.673 94.5429 311.914C94.2582 312.187 93.8969 312.527 93.459 312.932C92.4517 313.852 91.0831 315.101 89.4079 316.613C85.9043 319.735 81.1634 323.963 75.9189 328.629C70.6526 333.318 66.0978 337.798 62.9446 341.171C61.368 342.858 60.1198 344.25 59.2767 345.224C58.8826 345.674 58.5541 346.046 58.2913 346.342C58.0614 346.594 57.941 346.725 57.93 346.714C57.9191 346.714 58.0176 346.55 58.2147 346.276C58.4227 346.002 58.7183 345.597 59.1234 345.093C59.9337 344.074 61.138 342.65 62.6818 340.931C65.7803 337.491 70.3022 332.956 75.5795 328.257C80.8678 323.58 85.6744 319.373 89.167 316.35C90.886 314.882 92.2874 313.666 93.3276 312.779C93.7874 312.396 94.1706 312.078 94.4772 311.826C94.74 311.618 94.8823 311.508 94.9042 311.519V311.53Z" fill="#eb5454"/>
<path d="M70.2365 333.404C70.0942 333.339 71.2 330.797 72.2949 327.588C73.4007 324.378 73.9263 321.662 74.0577 321.684C74.1891 321.695 73.8715 324.488 72.7548 327.741C72.2073 329.362 71.5942 330.797 71.1124 331.805C70.6307 332.824 70.2913 333.426 70.2256 333.393L70.2365 333.404Z" fill="#eb5454"/>
<path d="M55.6746 353.889C55.6746 353.889 55.3571 353.571 54.8644 352.947C54.3169 352.246 53.6162 351.348 52.7841 350.285C51.0432 348.028 48.6235 344.907 45.9192 341.5C43.2148 338.093 40.7294 335.026 38.9229 332.814C38.0689 331.762 37.3572 330.875 36.7988 330.185C36.3061 329.56 36.0433 329.199 36.0652 329.177C36.0871 329.155 36.4046 329.473 36.9411 330.053C37.4776 330.645 38.255 331.51 39.1856 332.583C41.0579 334.741 43.5871 337.776 46.3024 341.182C49.0067 344.6 51.3826 347.755 53.0578 350.066C53.9009 351.227 54.5687 352.169 55.0177 352.826C55.4666 353.484 55.7074 353.867 55.6746 353.878V353.889Z" fill="#eb5454"/>
<path d="M49.1932 345.564C49.1165 345.651 47.3866 343.592 46.4779 340.481C45.81 338.279 45.7771 336.275 45.8647 335.355L46.0837 335.377C45.9852 335.771 45.9195 335.979 45.8757 335.968C45.8319 335.957 45.8319 335.749 45.8757 335.344L46.0947 335.366C46.1713 336.275 46.3136 338.214 46.9596 340.35C47.8355 343.373 49.3355 345.498 49.2041 345.575L49.1932 345.564Z" fill="#eb5454"/>
<path d="M40.828 335.037C40.7623 335.103 40.2039 334.402 38.9339 333.931C37.6638 333.438 35.7587 333.328 33.6675 333.515C31.5762 333.668 29.704 334.04 28.3682 334.369C27.0325 334.698 26.2113 334.96 26.1894 334.895C26.1675 334.84 26.9449 334.457 28.2806 334.04C29.6054 333.624 31.5105 333.186 33.6346 333.033C35.7477 332.846 37.7514 333.011 39.0652 333.613C40.39 334.205 40.8718 335.026 40.828 335.037Z" fill="#eb5454"/>
<path d="M38.8463 332.485C38.8134 332.561 37.7405 332.046 35.9448 331.422C34.1492 330.809 31.5872 330.151 28.6967 329.932C25.8062 329.713 23.1785 329.965 21.3063 330.305C19.434 330.644 18.2953 330.995 18.2734 330.907C18.2734 330.874 18.5362 330.765 19.0399 330.579C19.5435 330.392 20.299 330.173 21.2296 329.965C23.1019 329.538 25.7843 329.22 28.7296 329.439C31.6748 329.669 34.2697 330.381 36.0543 331.093C36.9521 331.444 37.6638 331.773 38.1346 332.035C38.6054 332.287 38.8572 332.452 38.8463 332.474V332.485Z" fill="#eb5454"/>
<path d="M55.609 321.685C55.4777 321.717 54.5251 318.42 53.4959 314.324C52.4558 310.227 51.7222 306.875 51.8536 306.842C51.985 306.809 52.9375 310.106 53.9667 314.203C55.0069 318.3 55.7404 321.652 55.609 321.685Z" fill="#eb5454"/>
<path d="M55.7513 321.684C55.6089 321.728 54.9958 319.526 53.4082 317.281C51.8535 314.98 49.8827 313.83 49.9484 313.71C49.9703 313.655 50.5177 313.863 51.2841 314.4C52.0506 314.936 52.9922 315.835 53.8024 316.996C55.4556 319.34 55.8717 321.673 55.7513 321.684Z" fill="#eb5454"/>
<path d="M55.6418 418.702C55.6418 418.702 55.4885 417.892 55.1053 416.446C54.733 415.011 54.0214 412.974 52.8498 410.586C50.5177 405.81 46.2587 399.752 40.8499 393.673C38.1675 390.617 35.5726 387.725 33.3719 384.953C31.1602 382.193 29.3427 379.564 28.0179 377.231C26.6931 374.909 25.8172 372.915 25.3136 371.502C25.0617 370.801 24.8865 370.242 24.788 369.859C24.6785 369.476 24.6347 369.278 24.6457 369.278C24.6895 369.267 24.9303 370.056 25.4887 371.436C26.0471 372.817 26.9559 374.777 28.3135 377.056C29.6712 379.345 31.4996 381.93 33.7113 384.669C35.923 387.407 38.5288 390.277 41.2112 393.344C46.6309 399.435 50.8681 405.569 53.1455 410.421C54.2951 412.842 54.952 414.923 55.2805 416.391C55.4338 417.125 55.5433 417.695 55.5761 418.089C55.6199 418.483 55.6418 418.681 55.6309 418.692L55.6418 418.702Z" fill="#eb5454"/>
<path d="M82.3681 388.503C82.3681 388.503 81.8754 388.799 80.9667 389.292C80.0689 389.795 78.7988 390.573 77.3317 391.69C75.8755 392.808 74.2441 394.276 72.558 396.039C70.8828 397.814 69.1639 399.862 67.4011 402.064C63.8865 406.478 60.5909 410.389 58.6201 413.511C57.6238 415.055 56.8902 416.359 56.4194 417.279C55.9377 418.188 55.6859 418.703 55.653 418.692C55.6421 418.692 55.6859 418.549 55.7844 418.298C55.8939 418.046 56.0253 417.662 56.2552 417.202C56.6822 416.26 57.372 414.913 58.3355 413.335C60.2515 410.137 63.5143 406.183 67.0288 401.768C68.7916 399.566 70.5325 397.507 72.2405 395.732C73.9485 393.969 75.6237 392.512 77.1237 391.417C78.6236 390.321 79.9375 389.576 80.8791 389.127C81.339 388.897 81.7222 388.755 81.974 388.645C82.2258 388.547 82.3572 388.492 82.3681 388.514V388.503Z" fill="#eb5454"/>
<path d="M82.8828 398.306C82.8828 398.383 81.7551 398.515 79.9266 398.734C78.1091 398.975 75.569 399.27 72.9084 400.114C70.2588 400.979 68.0581 402.294 66.6238 403.411C65.1786 404.528 64.4888 405.459 64.4231 405.405C64.4012 405.383 64.5435 405.131 64.861 404.725C65.1786 404.309 65.6932 403.761 66.4048 403.148C67.8172 401.932 70.0398 400.541 72.7551 399.654C75.4814 398.788 78.0544 398.536 79.8938 398.394C81.7441 398.263 82.8828 398.241 82.8828 398.306Z" fill="#eb5454"/>
<path d="M65.288 404.332C65.1347 404.244 66.4704 402.207 67.4996 399.468C68.4741 396.697 68.6931 394.276 68.8682 394.309C68.9339 394.309 68.9339 394.922 68.8244 395.897C68.704 396.872 68.4741 398.219 67.9595 399.643C67.4449 401.067 66.7661 402.251 66.2405 403.072C65.715 403.894 65.3427 404.376 65.288 404.343V404.332Z" fill="#eb5454"/>
<path d="M91.0175 362.214C91.0175 362.214 90.8642 362.312 90.5467 362.466C90.1744 362.63 89.7146 362.838 89.1562 363.101C88.5431 363.364 87.8095 363.693 86.9774 364.131C86.1453 364.558 85.1708 365.007 84.1526 365.621C83.638 365.916 83.1015 366.223 82.5431 366.541C81.9847 366.858 81.4263 367.242 80.8351 367.614C79.6417 368.337 78.4482 369.224 77.1782 370.134C74.6928 372.029 72.0651 374.263 69.5469 376.848C67.0505 379.455 64.9046 382.15 63.098 384.713C62.233 386.017 61.39 387.244 60.7002 388.459C60.3498 389.062 59.9885 389.631 59.682 390.201C59.3863 390.771 59.0907 391.318 58.817 391.844C58.2367 392.885 57.8316 393.871 57.4265 394.725C57.0104 395.568 56.7148 396.324 56.474 396.938C56.2331 397.507 56.0469 397.978 55.8937 398.351C55.7513 398.668 55.6747 398.844 55.6637 398.833C55.6528 398.833 55.6966 398.647 55.8061 398.318C55.9375 397.935 56.1017 397.453 56.3097 396.872C56.5287 396.237 56.8024 395.481 57.1966 394.615C57.5798 393.75 57.963 392.742 58.5214 391.691C58.7842 391.154 59.0688 390.595 59.3644 390.026C59.6601 389.445 60.0214 388.876 60.3608 388.262C61.0287 387.035 61.8717 385.787 62.7367 384.472C64.5323 381.887 66.6892 379.16 69.2074 376.531C71.7476 373.924 74.3972 371.678 76.9154 369.794C78.2074 368.885 79.4117 368.008 80.6271 367.296C81.2292 366.935 81.7876 366.552 82.357 366.245C82.9263 365.938 83.4738 365.631 83.9993 365.347C85.0285 364.755 86.0248 364.328 86.8788 363.912C87.7219 363.495 88.4774 363.189 89.1015 362.948C89.6817 362.729 90.1525 362.542 90.5358 362.4C90.8642 362.28 91.0394 362.225 91.0504 362.236L91.0175 362.214Z" fill="#eb5454"/>
<path d="M69.8752 376.388C69.8752 376.388 70.0723 375.556 71.0358 374.658C71.9774 373.759 73.7073 372.916 75.7219 372.861C77.7255 372.806 79.4664 373.365 80.6489 373.825C81.8423 374.296 82.532 374.679 82.5102 374.734C82.4773 374.8 81.7437 374.537 80.5284 374.154C79.324 373.781 77.627 373.299 75.7328 373.354C73.8387 373.409 72.2073 374.143 71.2548 374.92C70.2913 375.698 69.9409 376.443 69.8643 376.388H69.8752Z" fill="#eb5454"/>
<path d="M66.7112 379.652C66.5799 379.576 67.7733 377.823 68.036 375.325C68.3536 372.828 67.5871 370.845 67.7404 370.802C67.7952 370.78 68.0579 371.24 68.2879 372.061C68.5178 372.883 68.6711 374.077 68.5178 375.38C68.3645 376.684 67.9375 377.812 67.5324 378.557C67.1163 379.302 66.755 379.696 66.7112 379.652Z" fill="#eb5454"/>
<path d="M32.2773 423.545C33.0109 436.481 36.8977 449.637 42.8977 462.935H68.9559C74.6712 449.769 78.2953 436.635 78.9412 423.545H32.2773Z" fill="#eb5454"/>
<path d="M74.7257 444.477C74.7257 444.609 66.1418 444.718 55.5652 444.718C44.9887 444.718 36.4048 444.609 36.4048 444.477C36.4048 444.346 44.9887 444.236 55.5652 444.236C66.1418 444.236 74.7257 444.346 74.7257 444.477Z" fill="#eb5454"/>
<path d="M74.1347 449.166C74.1347 449.297 66.0873 449.407 56.1677 449.407C46.2481 449.407 38.2007 449.297 38.2007 449.166C38.2007 449.034 46.2481 448.925 56.1677 448.925C66.0873 448.925 74.1347 449.034 74.1347 449.166Z" fill="#eb5454"/>
<path d="M43.3136 432.045C43.445 432.045 43.5545 434.729 43.5545 438.048C43.5545 441.367 43.445 444.05 43.3136 444.05C43.1822 444.05 43.0728 441.367 43.0728 438.048C43.0728 434.729 43.1822 432.045 43.3136 432.045Z" fill="#eb5454"/>
<path d="M57.2843 432.045C57.4157 432.045 57.5252 434.827 57.5252 438.267C57.5252 441.706 57.4157 444.489 57.2843 444.489C57.1529 444.489 57.0435 441.706 57.0435 438.267C57.0435 434.827 57.1529 432.045 57.2843 432.045Z" fill="#eb5454"/>
<path d="M70.3898 431.936C70.5212 431.936 70.6307 434.773 70.6307 438.278C70.6307 441.783 70.5212 444.62 70.3898 444.62C70.2584 444.62 70.1489 441.783 70.1489 438.278C70.1489 434.773 70.2584 431.936 70.3898 431.936Z" fill="#eb5454"/>
<path d="M78.1199 432.045C78.1199 432.176 68.058 432.286 55.642 432.286C43.226 432.286 33.1641 432.176 33.1641 432.045C33.1641 431.913 43.226 431.804 55.642 431.804C68.058 431.804 78.1199 431.913 78.1199 432.045Z" fill="#eb5454"/>
<path d="M114.754 39.7627H10.2808V191.266H114.754V39.7627Z" fill="#eb5454"/>
<path d="M109.521 39.7627H5.04736V191.266H109.521V39.7627Z" fill="#eb5454"/>
<path d="M96.5355 56.1719H18.0215V174.857H96.5355V56.1719Z" fill="#FBFBFB"/>
<path d="M96.5356 174.847C96.5356 174.847 96.5356 174.65 96.5246 174.266C96.5246 173.872 96.5246 173.313 96.5137 172.579C96.5137 171.09 96.4918 168.91 96.4809 166.073C96.4699 160.388 96.437 152.095 96.4152 141.624C96.3823 120.691 96.3385 91.0603 96.2838 56.1612L96.5465 56.4241C72.5577 56.4241 45.9849 56.435 18.0435 56.446L18.3281 56.1612C18.3062 100.93 18.2843 142.215 18.2734 174.847L18.0435 174.617C41.9557 174.671 61.5541 174.704 75.1854 174.737C82.0065 174.759 87.3386 174.781 90.9736 174.792C92.7801 174.803 94.1706 174.814 95.1232 174.814C96.0648 174.814 96.5575 174.836 96.5575 174.836C96.5575 174.836 96.0976 174.847 95.167 174.858C94.2254 174.858 92.8568 174.869 91.0612 174.88C87.4371 174.891 82.1269 174.912 75.3277 174.934C61.6526 174.967 42.0104 175 18.0435 175.055H17.8135V174.825C17.8026 142.193 17.7807 100.919 17.7588 56.1393V55.8545H18.0435C45.9849 55.8545 72.5577 55.8654 96.5465 55.8764H96.8093V56.1393C96.7546 91.1041 96.7108 120.8 96.6779 141.777C96.6451 152.227 96.6232 160.486 96.6122 166.171C96.6013 168.986 96.5903 171.144 96.5794 172.634C96.5794 173.357 96.5684 173.905 96.5684 174.288C96.5684 174.661 96.5575 174.836 96.5575 174.836L96.5356 174.847Z" fill="#eb5454"/>
<path d="M109.806 39.763C109.871 39.8068 109.16 40.8474 107.944 42.4686C106.729 44.0898 105.01 46.3025 103.039 48.6904C101.068 51.0784 99.2399 53.1925 97.8713 54.6932C96.5137 56.1938 95.6268 57.0921 95.5721 57.0373C95.5173 56.9825 96.2838 55.9967 97.5648 54.4303C98.9662 52.7324 100.685 50.6402 102.59 48.3289C104.495 46.0177 106.214 43.9255 107.616 42.2167C108.908 40.6612 109.729 39.7082 109.795 39.763H109.806Z" fill="#eb5454"/>
<path d="M96.9404 174.463C100.838 180.663 105.448 186.425 110.637 191.595L96.9404 174.463Z" fill="#FBFBFB"/>
<path d="M110.627 191.606C110.627 191.606 109.641 190.85 108.24 189.437C106.839 188.024 104.977 185.986 103.072 183.609C101.167 181.232 99.5904 178.965 98.5283 177.289C97.4554 175.602 96.8751 174.518 96.9298 174.485C96.9955 174.441 97.7072 175.449 98.8568 177.07C100.006 178.691 101.627 180.904 103.51 183.27C105.404 185.636 107.2 187.695 108.525 189.174C109.849 190.653 110.682 191.562 110.616 191.628L110.627 191.606Z" fill="#eb5454"/>
<path d="M5.02539 191.135C9.59105 185.505 14.1458 179.874 18.7114 174.244L5.02539 191.135Z" fill="#FBFBFB"/>
<path d="M18.7115 174.244C18.832 174.343 15.8649 178.209 12.0875 182.865C8.31016 187.531 5.14595 191.234 5.02551 191.135C4.90508 191.036 7.87221 187.181 11.6496 182.514C15.4269 177.848 18.5911 174.146 18.7115 174.244Z" fill="#eb5454"/>
<path d="M5.04724 39.7627C5.16768 39.6642 8.14576 43.2242 11.6932 47.7043C15.2406 52.1954 18.0106 55.9088 17.8902 55.9964C17.7698 56.0841 14.7917 52.535 11.2443 48.0548C7.69686 43.5747 4.9268 39.8504 5.04724 39.7627Z" fill="#eb5454"/>
<path d="M72.0762 80.2598H45.7881V154.933H72.0762V80.2598Z" fill="#eb5454"/>
</g>
<path d="M497.186 463.186C497.186 463.34 387.753 463.471 252.797 463.471C117.842 463.471 8.38672 463.34 8.38672 463.186C8.38672 463.033 117.798 462.901 252.797 462.901C387.796 462.901 497.186 463.033 497.186 463.186Z" fill="#263238"/>
<path d="M108.711 31.8096H419.909C426.413 31.8096 431.69 37.0893 431.69 43.596V450.632C431.69 457.139 426.413 462.418 419.909 462.418H108.711V31.8096Z" fill="#EB5454"/>
<g opacity="0.3">
<path d="M108.711 31.8096H419.909C426.413 31.8096 431.69 37.0893 431.69 43.596V450.632C431.69 457.139 426.413 462.418 419.909 462.418H108.711V31.8096Z" fill="#090E12"/>
</g>
<path d="M422.745 45.1406H250.082V462.408H422.745V45.1406Z" fill="#eb5454"/>
<path d="M107.375 28.4141H396.588C403.092 28.4141 408.369 33.6938 408.369 40.2005V450.632C408.369 457.139 403.092 462.419 396.588 462.419H107.375V28.4141Z" fill="#EB5454"/>
<path d="M138.306 463.196C138.152 463.196 138.021 365.86 138.021 245.816C138.021 125.772 138.152 28.4141 138.306 28.4141C138.459 28.4141 138.59 125.729 138.59 245.816C138.59 365.904 138.459 463.196 138.306 463.196Z" fill="#263238"/>
<path d="M146.43 463.196C146.276 463.196 146.145 365.86 146.145 245.816C146.145 125.772 146.276 28.4141 146.43 28.4141C146.583 28.4141 146.714 125.729 146.714 245.816C146.714 365.904 146.583 463.196 146.43 463.196Z" fill="#263238"/>
<g opacity="0.3">
<path d="M146.441 28.4141H138.306V463.196H146.441V28.4141Z" fill="#090E12"/>
</g>
<path d="M317.384 78.09V28.4141H365.209V79.0101L341.756 102.473L317.384 78.09Z" fill="#eb5454"/>
<path d="M412.672 45.1406C412.825 45.1406 412.957 137.548 412.957 251.512C412.957 365.477 412.825 457.906 412.672 457.906C412.519 457.906 412.387 365.52 412.387 251.512C412.387 137.504 412.519 45.1406 412.672 45.1406Z" fill="#263238"/>
<path d="M417.566 45.1406C417.72 45.1406 417.851 137.548 417.851 251.512C417.851 365.477 417.72 457.906 417.566 457.906C417.413 457.906 417.282 365.52 417.282 251.512C417.282 137.504 417.413 45.1406 417.566 45.1406Z" fill="#263238"/>
<path d="M412.672 105.179H424.65L435.599 113.482L425.789 123.296H412.672V105.179Z" fill="#eb5454"/>
<path d="M440.187 140.757H417.566V155.829H440.187V140.757Z" fill="#EB5454"/>
<g opacity="0.3">
<path d="M229.812 367.991L225.743 371.96C225.328 372.366 224.665 372.369 224.246 371.966L196.208 345.126C195.779 344.713 195.763 344.031 196.175 343.602L200.422 339.161C200.838 338.729 201.527 338.716 201.956 339.138L229.819 366.45C230.251 366.873 230.251 367.569 229.819 367.991H229.812Z" fill="#090E12"/>
</g>
<path d="M203.707 340.947C203.74 340.98 203.235 341.56 202.579 342.243C201.923 342.926 201.362 343.454 201.329 343.421C201.296 343.388 201.801 342.807 202.457 342.125C203.113 341.442 203.674 340.914 203.707 340.947Z" fill="#263238"/>
<path d="M208.161 345.239C208.194 345.272 207.69 345.852 207.033 346.535C206.377 347.218 205.817 347.746 205.784 347.713C205.751 347.68 206.255 347.099 206.911 346.417C207.568 345.734 208.128 345.206 208.161 345.239Z" fill="#263238"/>
<path d="M205.833 342.909C205.866 342.942 205.177 343.704 204.294 344.615C203.41 345.525 202.668 346.234 202.635 346.205C202.602 346.172 203.291 345.41 204.175 344.499C205.059 343.589 205.8 342.879 205.833 342.909Z" fill="#263238"/>
<path d="M210.414 347.491C210.447 347.524 209.757 348.286 208.874 349.197C207.99 350.107 207.248 350.817 207.215 350.787C207.182 350.754 207.871 349.992 208.755 349.081C209.639 348.171 210.381 347.461 210.414 347.491Z" fill="#263238"/>
<path d="M212.517 349.6C212.55 349.633 212.046 350.214 211.389 350.897C210.733 351.579 210.173 352.107 210.14 352.074C210.107 352.041 210.611 351.461 211.267 350.778C211.924 350.095 212.484 349.567 212.517 349.6Z" fill="#263238"/>
<path d="M214.77 351.85C214.802 351.883 214.113 352.645 213.23 353.555C212.346 354.466 211.604 355.175 211.571 355.145C211.538 355.112 212.227 354.35 213.111 353.44C213.995 352.529 214.737 351.82 214.77 351.85Z" fill="#263238"/>
<path d="M216.877 353.958C216.91 353.991 216.405 354.571 215.749 355.254C215.093 355.937 214.532 356.465 214.499 356.432C214.466 356.399 214.971 355.818 215.627 355.135C216.283 354.452 216.844 353.925 216.877 353.958Z" fill="#263238"/>
<path d="M219.128 356.211C219.161 356.244 218.472 357.006 217.588 357.916C216.705 358.827 215.963 359.536 215.93 359.507C215.897 359.474 216.586 358.711 217.47 357.801C218.353 356.89 219.095 356.181 219.128 356.211Z" fill="#263238"/>
<path d="M221.233 358.316C221.265 358.349 220.761 358.93 220.105 359.612C219.449 360.295 218.888 360.823 218.855 360.79C218.822 360.757 219.327 360.177 219.983 359.494C220.639 358.811 221.2 358.283 221.233 358.316Z" fill="#263238"/>
<path d="M223.485 360.568C223.518 360.601 222.829 361.363 221.945 362.274C221.061 363.184 220.319 363.894 220.286 363.864C220.253 363.831 220.942 363.069 221.826 362.158C222.71 361.248 223.452 360.539 223.485 360.568Z" fill="#263238"/>
<path d="M225.592 362.677C225.625 362.71 225.12 363.291 224.464 363.974C223.808 364.657 223.247 365.184 223.214 365.151C223.181 365.118 223.686 364.538 224.342 363.855C224.998 363.172 225.559 362.644 225.592 362.677Z" fill="#263238"/>
<g opacity="0.3">
<path d="M215.013 350.075L218.94 353.756L221.588 351.16C221.588 351.16 225.835 352.466 228.562 349.464C231.042 346.736 230.304 342.767 230.304 342.767L225.733 346.802L221.865 342.932L225.944 338.7C225.944 338.7 221.958 337.423 218.828 340.963C216.372 343.744 217.641 347.399 217.641 347.399L215.013 350.075Z" fill="#090E12"/>
</g>
<g opacity="0.3">
<path d="M210.14 360.816C210.041 360.645 206.219 357.145 206.219 357.145L203.736 359.579C203.736 359.579 199.07 358.652 196.762 361.275C194.177 364.214 195.021 367.972 195.021 367.972L199.591 363.937L203.459 367.807L199.38 372.039C199.38 372.039 203.367 373.316 206.496 369.776C208.953 366.995 207.683 363.34 207.683 363.34L210.14 360.816Z" fill="#090E12"/>
</g>
<path d="M371.921 414.408C371.921 414.561 330.819 414.693 280.137 414.693C229.455 414.693 188.342 414.561 188.342 414.408C188.342 414.255 229.433 414.123 280.137 414.123C330.841 414.123 371.921 414.255 371.921 414.408Z" fill="#FBFBFB"/>
<path d="M341.297 423.16C341.297 423.313 314.264 423.445 280.936 423.445C247.608 423.445 220.564 423.313 220.564 423.16C220.564 423.006 247.586 422.875 280.936 422.875C314.286 422.875 341.297 423.006 341.297 423.16Z" fill="#FBFBFB"/>
<path d="M287.363 431.562H272.899V446.032H287.363V431.562Z" fill="#eb5454"/>
<path d="M121.281 443.184L118.237 465.322C118.237 465.322 139.707 475.848 139.543 480L96.4268 475.64L99.7443 440.949L121.27 443.184H121.281Z" fill="#eb5454"/>
<path d="M105.087 462.112C104.233 462.255 103.554 463.142 103.664 463.996C103.773 464.862 104.66 465.552 105.525 465.42C106.39 465.289 107.222 464.259 107.014 463.416C106.806 462.572 105.722 461.816 104.923 462.145" fill="#eb5454"/>
<g opacity="0.6">
<path d="M96.4268 475.651L96.8976 472.168L138.065 477.645C138.065 477.645 139.905 478.675 139.543 480L96.4268 475.64V475.651Z" fill="#FBFBFB"/>
</g>
<path d="M118.959 465.179C118.926 465.387 117.864 465.376 116.769 465.946C115.653 466.494 115.029 467.348 114.842 467.25C114.656 467.184 115.094 465.957 116.441 465.289C117.788 464.61 119.036 464.982 118.97 465.179H118.959Z" fill="#263238"/>
<path d="M123.295 467.512C123.328 467.72 122.376 467.983 121.565 468.805C120.733 469.604 120.46 470.546 120.252 470.514C120.055 470.525 120.033 469.276 121.051 468.279C122.058 467.271 123.306 467.304 123.295 467.512Z" fill="#263238"/>
<path d="M125.31 473.187C125.113 473.209 124.927 472.135 125.583 471.029C126.229 469.923 127.27 469.572 127.346 469.758C127.445 469.945 126.744 470.503 126.218 471.412C125.671 472.311 125.518 473.187 125.31 473.187Z" fill="#263238"/>
<path d="M119.091 460.053C118.981 460.239 118.051 459.844 116.846 459.812C115.653 459.746 114.678 460.053 114.591 459.866C114.481 459.702 115.467 459.012 116.879 459.078C118.292 459.132 119.211 459.899 119.091 460.063V460.053Z" fill="#263238"/>
<path d="M62.6714 293.478C62.6714 293.478 54.7554 349.693 58.7408 358.883C61.8174 365.981 67.2699 369.081 74.2443 370.867C84.3063 373.452 100.445 375.303 100.445 375.303L105.875 342.912L93.5799 340.229L104.89 299.929L84.8647 286.204L62.6604 293.467L62.6714 293.478Z" fill="#263238"/>
<path d="M104.901 299.94L94.9922 455.234L122.375 456.625L134.583 379.597C134.583 379.597 147.579 316.064 148.477 308.287C149.375 300.51 148.477 284.035 148.477 284.035L104.901 299.951V299.94Z" fill="#263238"/>
<path d="M104.123 312.067C104.123 312.067 104.134 312.165 104.134 312.373C104.134 312.603 104.123 312.899 104.112 313.272C104.08 314.104 104.036 315.243 103.981 316.7C103.85 319.68 103.631 323.995 103.302 329.319C102.678 339.966 101.638 354.677 100.565 370.911C100.072 379.039 99.6016 386.772 99.1746 393.816C98.6709 400.859 97.9812 407.179 97.4556 412.481C96.9191 417.783 96.5359 422.088 96.295 425.056C96.1855 426.513 96.098 427.652 96.0323 428.485C95.9994 428.846 95.9775 429.142 95.9556 429.372C95.9337 429.569 95.9228 429.679 95.9118 429.679C95.9118 429.679 95.9009 429.58 95.9009 429.372C95.9009 429.142 95.9118 428.846 95.9228 428.474C95.9447 427.685 95.9994 426.535 96.0761 425.045C96.2403 422.066 96.5688 417.761 97.0505 412.448C97.5213 407.136 98.1673 400.815 98.649 393.783C99.076 386.75 99.4374 378.995 99.9957 370.867C101.134 354.644 102.153 339.966 102.897 329.286C103.258 323.995 103.543 319.701 103.751 316.678C103.85 315.221 103.926 314.082 103.992 313.25C104.025 312.888 104.047 312.592 104.069 312.362C104.091 312.165 104.102 312.056 104.112 312.056L104.123 312.067Z" fill="#eb5454"/>
<path d="M97.7403 325.562C97.7403 325.562 97.7184 326 97.5761 326.789C97.4337 327.566 97.1929 328.684 96.8644 330.064C96.2075 332.824 95.1673 336.603 93.7878 340.689C92.3973 344.786 90.9192 348.412 89.7586 350.997C89.1783 352.289 88.6856 353.33 88.3243 354.031C87.963 354.732 87.755 355.115 87.7112 355.104C87.6783 355.083 87.8207 354.677 88.1163 353.943C88.4557 353.1 88.8827 352.059 89.3754 350.843C90.4374 348.225 91.8498 344.589 93.2403 340.514C94.6199 336.439 95.7148 332.693 96.4702 329.965C96.8206 328.695 97.1162 327.621 97.3571 326.734C97.5651 325.967 97.7075 325.551 97.7403 325.562Z" fill="#eb5454"/>
<path d="M88.0286 156.609L81.4484 161.855C81.4484 161.855 60.5361 165.591 58.7515 168.855L65.5288 210.874L70.8061 246.88C70.8061 246.88 62.9011 268.119 62.6821 277.09C62.4631 286.051 62.6821 293.488 62.6821 293.488H66.6018C75.7331 293.488 84.5031 297.016 91.0943 303.325L98.3096 296.764L99.722 309.229C99.722 309.229 128.036 310.982 135.251 305.516C142.466 300.05 152.233 288.461 152.233 288.461C152.233 288.461 153.919 259.389 145.291 244.711C136.663 230.022 134.594 226.987 134.594 226.987C134.594 226.987 137.649 201.662 137.649 200.786C137.649 199.909 140.276 165.361 140.276 165.361L118.554 159.895L112.269 155.086L88.0505 156.619L88.0286 156.609Z" fill="#eb5454"/>
<g opacity="0.3">
<path d="M70.0727 248.873C72.777 251.414 76.4449 252.466 80.1237 251.962C82.5543 251.633 84.8864 250.593 87.328 250.626C90.8973 250.68 93.9739 252.959 97.0834 254.7C103.784 258.447 111.722 259.947 119.32 258.896C128.101 257.68 136.094 253.243 143.539 248.424C144.076 248.073 144.634 247.712 145.017 247.197C145.849 246.069 145.663 244.393 144.831 243.264C143.988 242.136 142.62 241.512 141.24 241.249C138.744 240.778 136.204 241.391 133.696 241.808C128.375 242.684 122.912 242.629 117.602 241.665C110.857 240.438 104.419 237.744 97.6309 236.824C90.0324 235.794 82.1492 237.087 75.2624 240.46C73.7843 241.183 72.3172 242.038 71.2442 243.275C70.1603 244.524 69.6676 247.274 70.0508 248.873" fill="#090E12"/>
</g>
<path d="M93.7113 179.436C93.7113 179.436 93.7332 179.546 93.7551 179.765C93.777 180.017 93.7989 180.345 93.8318 180.75C93.8865 181.66 93.9632 182.919 94.0617 184.53C94.2369 187.86 94.4997 192.603 94.8172 198.441C95.3975 210.227 96.2077 226.439 97.0945 244.349C97.3026 248.829 97.5106 253.211 97.7186 257.439C97.9157 261.667 98.1237 265.753 98.1128 269.652C98.1128 271.602 98.058 273.508 97.9376 275.348C97.8062 277.2 97.5872 278.963 97.6091 280.683C97.6201 284.122 97.8938 287.354 97.8391 290.289C97.9485 293.214 98.277 295.865 98.5179 298.176C98.7807 300.488 99.0106 302.481 99.2077 304.124C99.3828 305.724 99.5252 306.994 99.6237 307.892C99.6566 308.298 99.6894 308.626 99.7113 308.878C99.7223 309.097 99.7332 309.218 99.7113 309.218C99.6894 309.218 99.6785 309.108 99.6456 308.889C99.6128 308.637 99.558 308.32 99.5033 307.914C99.3828 307.016 99.2077 305.756 98.9777 304.168C98.7588 302.525 98.496 300.531 98.2004 298.22C97.9267 295.898 97.5763 293.258 97.4339 290.3C97.4668 287.354 97.1712 284.155 97.1383 280.672C97.1055 278.93 97.3245 277.134 97.4339 275.305C97.5434 273.475 97.5872 271.58 97.5872 269.641C97.5872 265.764 97.3683 261.689 97.1602 257.461C96.9522 253.232 96.7442 248.851 96.5252 244.371C95.704 226.461 94.9595 210.238 94.4121 198.452C94.1712 192.603 93.9741 187.86 93.8427 184.53C93.788 182.919 93.7442 181.649 93.7113 180.739C93.7113 180.334 93.7004 180.006 93.6895 179.754C93.6895 179.535 93.6895 179.414 93.7004 179.414L93.7113 179.436Z" fill="#263238"/>
<path d="M66.8647 176.72L66.2297 220.678L69.4596 228.346L66.7333 249.279L55.6641 243.079C50.1787 240.001 46.916 233.965 47.6276 227.711C47.6276 227.667 47.6386 227.612 47.6495 227.568C48.6678 219.046 50.3539 205.463 51.7663 196.843C53.9561 183.501 55.4779 173.007 58.7626 168.855L66.8757 176.731L66.8647 176.72Z" fill="#eb5454"/>
<path d="M140.255 165.35C140.255 165.35 146.594 164.035 149.868 179.338C153.142 194.64 155.769 221.313 155.769 221.313C155.769 221.313 158.397 222.036 157.083 224.621C157.083 224.621 156.645 239.036 154.893 240.778L136.642 229.999L134.562 226.965L140.244 165.339L140.255 165.35Z" fill="#eb5454"/>
<path d="M66.7773 248.873L91.2918 246.146L93.175 234.217L69.1313 232.278L66.7773 248.873Z" fill="#9D6054"/>
<path d="M97.9155 174.102C97.9155 174.102 97.6527 174.573 97.0943 175.35C96.4593 176.216 95.66 177.322 94.6965 178.637C93.6454 180.05 92.4301 181.682 91.0943 183.478C90.9958 183.61 90.7987 183.785 90.5469 183.796C90.317 183.807 90.1199 183.708 89.9776 183.621C89.6929 183.412 89.5177 183.215 89.2878 183.007C88.8498 182.602 88.4119 182.164 88.0068 181.693C87.1528 180.773 86.3973 179.721 85.6747 178.604C82.8499 174.069 81.9959 169.15 82.1053 165.711C82.1163 163.98 82.3791 162.589 82.5761 161.647C82.817 160.716 82.9703 160.201 83.0141 160.212C83.1455 160.234 82.4667 162.293 82.5105 165.711C82.5105 169.096 83.4083 173.883 86.1674 178.308C86.879 179.392 87.6017 180.422 88.4338 181.32C88.8279 181.791 89.2549 182.208 89.6819 182.613C89.89 182.81 90.1089 183.051 90.2951 183.182C90.514 183.303 90.5578 183.325 90.7002 183.161C92.0578 181.353 93.3388 179.754 94.4009 178.396C95.4191 177.125 96.2731 176.051 96.941 175.219C97.5541 174.474 97.9045 174.08 97.9373 174.102H97.9155Z" fill="#263238"/>
<path d="M118.532 159.883C118.532 159.883 118.576 160.037 118.598 160.321C118.631 160.617 118.642 161.044 118.642 161.603C118.631 162.709 118.488 164.342 117.941 166.258C117.404 168.186 116.474 170.366 115.401 172.743C114.328 175.142 112.937 177.672 111.35 180.247C110.561 181.528 109.751 182.777 108.974 183.96C108.777 184.256 108.591 184.551 108.394 184.847C108.185 185.132 108.065 185.428 107.737 185.734C107.572 185.888 107.299 185.986 107.047 185.943C106.795 185.899 106.609 185.778 106.467 185.647C106.171 185.373 106.007 185.099 105.799 184.847C104.244 182.777 102.831 180.904 101.627 179.294C100.499 177.76 99.5687 176.489 98.8571 175.525C98.2111 174.627 97.8717 174.123 97.9045 174.09C97.9374 174.058 98.3315 174.529 99.0323 175.383C99.7877 176.325 100.762 177.563 101.945 179.042C103.182 180.63 104.616 182.481 106.215 184.519C106.598 185.044 107.058 185.647 107.375 185.307C107.55 185.154 107.737 184.803 107.923 184.53C108.109 184.234 108.306 183.938 108.492 183.642C109.269 182.448 110.058 181.211 110.846 179.929C112.434 177.377 113.824 174.868 114.908 172.513C116.003 170.147 116.966 168 117.536 166.127C118.696 162.359 118.379 159.85 118.51 159.861L118.532 159.883Z" fill="#263238"/>
<path d="M84.3064 176.928C84.3283 177.015 83.1459 177.213 81.3831 178.034C79.6313 178.834 77.3101 180.378 75.5474 182.898L75.3832 183.128L75.1423 182.952C74.562 182.525 73.9379 182.087 73.2481 181.726C70.073 179.995 66.6679 179.743 64.3358 180.006C61.9818 180.291 60.6132 180.937 60.5803 180.827C60.5694 180.794 60.8979 180.619 61.5219 180.345C62.157 180.104 63.0876 179.787 64.292 179.601C66.6679 179.217 70.2153 179.403 73.5328 181.211C74.2445 181.583 74.8905 182.043 75.4926 182.492L75.0875 182.547C76.9488 179.94 79.4123 178.407 81.2408 177.673C82.1605 177.3 82.9269 177.092 83.4634 176.993C83.9999 176.895 84.2955 176.873 84.3064 176.906V176.928Z" fill="#263238"/>
<path d="M139.488 179.633C139.445 179.743 138.076 178.593 135.415 178.516C134.101 178.483 132.536 178.724 130.926 179.371C129.306 179.995 127.642 180.981 125.923 182.076C125.748 182.186 125.572 182.306 125.408 182.405L125.189 182.547L125.025 182.339C122.627 179.261 119.091 177.968 116.627 177.738C114.109 177.465 112.565 177.979 112.554 177.859C112.554 177.826 112.916 177.684 113.616 177.53C114.317 177.377 115.368 177.256 116.66 177.344C117.952 177.432 119.496 177.771 121.072 178.505C122.638 179.228 124.226 180.4 125.474 181.988L125.091 181.923C125.255 181.813 125.43 181.704 125.616 181.594C127.335 180.499 129.054 179.502 130.74 178.878C132.426 178.231 134.08 178.023 135.437 178.111C136.806 178.198 137.868 178.593 138.536 178.943C139.204 179.305 139.51 179.611 139.488 179.633Z" fill="#263238"/>
<path d="M133.565 275.042C133.565 275.042 133.433 275.185 133.138 275.393C132.787 275.645 132.371 275.951 131.857 276.324C131.572 276.532 131.255 276.751 130.915 276.981C130.565 277.211 130.16 277.43 129.744 277.682C128.89 278.164 127.959 278.777 126.831 279.292C126.273 279.566 125.693 279.851 125.09 280.136C124.477 280.421 123.82 280.651 123.141 280.935C121.806 281.516 120.317 281.943 118.751 282.436C115.598 283.301 112.05 283.97 108.284 284.211C104.507 284.408 100.904 284.167 97.6745 283.685C96.065 283.378 94.5322 283.126 93.1417 282.71C92.4409 282.513 91.7512 282.359 91.1161 282.151C90.4811 281.932 89.868 281.724 89.2877 281.516C88.1052 281.143 87.0979 280.651 86.2001 280.267C85.7512 280.07 85.3351 279.895 84.9519 279.709C84.5906 279.511 84.2512 279.325 83.9446 279.161C83.3863 278.854 82.9374 278.602 82.5541 278.394C82.2366 278.208 82.0833 278.109 82.0943 278.087C82.0943 278.065 82.2804 278.142 82.6089 278.284C82.9921 278.471 83.4629 278.69 84.0432 278.964C84.3607 279.117 84.7001 279.281 85.0724 279.468C85.4556 279.643 85.8826 279.796 86.3315 279.982C87.2402 280.333 88.2475 280.804 89.43 281.143C90.0103 281.33 90.6234 281.527 91.2585 281.735C91.8935 281.932 92.5833 282.075 93.273 282.261C94.6635 282.655 96.1854 282.885 97.773 283.17C100.97 283.619 104.539 283.849 108.262 283.652C111.985 283.411 115.499 282.765 118.62 281.932C120.163 281.461 121.652 281.056 122.977 280.497C123.645 280.234 124.313 280.015 124.915 279.741C125.517 279.457 126.098 279.194 126.656 278.931C127.784 278.449 128.725 277.868 129.59 277.408C130.017 277.167 130.422 276.97 130.773 276.751C131.123 276.532 131.441 276.324 131.736 276.138C132.273 275.798 132.711 275.524 133.083 275.294C133.39 275.108 133.565 275.02 133.576 275.031L133.565 275.042Z" fill="#263238"/>
<path d="M126.875 259.598C126.875 259.598 126.448 260.069 125.605 260.857C125.189 261.252 124.664 261.734 124.018 262.237C123.372 262.752 122.671 263.366 121.817 263.935C120.985 264.538 120.054 265.195 119.014 265.819C117.996 266.488 116.846 267.09 115.642 267.747C113.2 268.985 110.441 270.179 107.43 271.132C104.408 272.063 101.463 272.666 98.7478 273.038C97.3901 273.18 96.0982 273.345 94.8829 273.378C93.6675 273.465 92.5398 273.454 91.5106 273.432C90.4814 273.443 89.5508 273.345 88.7296 273.29C87.9085 273.246 87.2077 273.159 86.6384 273.06C85.4997 272.896 84.8647 272.786 84.8756 272.742C84.8756 272.698 85.5216 272.742 86.6603 272.83C87.2296 272.885 87.9304 272.939 88.7406 272.961C89.5508 272.983 90.4814 273.06 91.4997 273.016C92.5289 273.016 93.6456 272.994 94.85 272.896C96.0544 272.841 97.3244 272.666 98.6712 272.512C101.343 272.118 104.266 271.504 107.255 270.584C110.233 269.631 112.97 268.47 115.401 267.276C116.594 266.641 117.744 266.06 118.762 265.414C119.813 264.812 120.733 264.187 121.587 263.607C122.452 263.059 123.175 262.468 123.832 261.986C124.488 261.504 125.036 261.065 125.474 260.693C126.361 259.959 126.864 259.565 126.886 259.598H126.875Z" fill="#263238"/>
<path d="M61.4342 180.575C61.4342 180.575 61.5656 181.09 61.697 182.032C61.8393 183.084 62.0145 184.431 62.2335 186.03C62.6933 189.514 63.3064 194.125 63.9743 199.219C64.7079 204.301 65.3648 208.902 65.8685 212.385C66.0984 213.985 66.2845 215.321 66.4378 216.373C66.5583 217.315 66.613 217.84 66.5802 217.851C66.5364 217.851 66.4159 217.347 66.2188 216.416C66.0218 215.485 65.7699 214.127 65.4743 212.451C64.8721 209.099 64.1276 204.455 63.4159 199.295C62.7043 194.147 62.1678 189.47 61.8393 186.085C61.6751 184.387 61.5546 183.018 61.4889 182.065C61.4233 181.112 61.4014 180.586 61.4451 180.586L61.4342 180.575Z" fill="#263238"/>
<path d="M140.222 171.703C140.222 171.703 140.244 171.9 140.222 172.262C140.2 172.689 140.167 173.215 140.134 173.85C140.047 175.23 139.893 177.224 139.685 179.7C139.269 184.629 138.601 191.442 137.704 198.935C136.806 206.438 135.864 213.208 135.12 218.104C134.747 220.547 134.43 222.529 134.189 223.888C134.069 224.512 133.981 225.038 133.904 225.454C133.828 225.816 133.784 226.002 133.762 225.991C133.74 225.991 133.762 225.794 133.784 225.432C133.839 225.005 133.893 224.479 133.97 223.844C134.156 222.387 134.419 220.426 134.726 218.038C135.371 213.131 136.247 206.361 137.145 198.858C138.032 191.366 138.766 184.574 139.291 179.645C139.554 177.246 139.762 175.285 139.915 173.817C139.992 173.182 140.058 172.667 140.112 172.24C140.167 171.879 140.2 171.692 140.222 171.692V171.703Z" fill="#263238"/>
<path d="M144.119 206.975L112.795 225.859L104.704 223.581L67.5653 216.417L59.8901 240.789L89.1126 243.55L102.01 249.728L108.229 247.033L135.404 228.346L144.119 206.975Z" fill="#EB5454"/>
<path d="M101.988 249.64C101.912 249.607 102.503 248.271 103.456 246.135C104.419 243.999 105.744 241.041 107.156 237.766C108.569 234.48 109.806 231.489 110.704 229.331C111.602 227.163 112.171 225.826 112.237 225.859C112.269 225.87 112.182 226.22 111.985 226.856C111.788 227.48 111.481 228.378 111.076 229.485C110.277 231.686 109.094 234.71 107.671 238.007C106.248 241.293 104.868 244.229 103.817 246.321C103.291 247.372 102.853 248.216 102.525 248.786C102.207 249.355 102.01 249.673 101.978 249.651L101.988 249.64Z" fill="#263238"/>
<path d="M101.113 231.796C100.97 231.742 101.54 229.912 102.405 227.722C103.259 225.531 104.08 223.8 104.222 223.855C104.364 223.91 103.795 225.739 102.93 227.93C102.076 230.12 101.255 231.851 101.113 231.785V231.796Z" fill="#263238"/>
<path d="M108.47 224.644C108.47 224.644 109.412 220.897 112.248 219.451C115.083 218.005 138.601 205.748 138.601 205.748L141.393 208.618L112.795 225.859L108.47 224.644Z" fill="#eb5454"/>
<path d="M70.7954 217.041L75.5581 214.653C75.5581 214.653 89.0471 213.196 96.8427 214.653C104.649 216.11 108.722 220.481 108.47 224.643L70.7954 217.041Z" fill="#eb5454"/>
<path d="M126.076 227.108C126.076 227.108 122.55 228.357 120.678 232.508C118.806 236.66 117.569 238.73 115.28 240.187C113.003 241.644 111.755 242.674 109.061 241.436C106.368 240.187 101.988 236.112 99.9301 235.773C98.7038 235.575 98.2768 237.481 98.2768 237.481C98.2768 237.481 92.879 233.889 91.0177 234.546C89.1455 235.203 90.8097 236.66 92.0579 238.106C93.306 239.563 94.1272 241.009 94.1272 241.009C94.5323 240.833 90.3717 236.923 87.8207 237.744C86.1455 238.281 86.6491 239.683 86.6491 239.683L89.7696 241.984C89.7696 241.984 88.1053 244.952 89.5615 245.576C91.0177 246.201 101.386 253.463 103.675 253.463C105.963 253.463 116.331 255.336 120.689 254.296C125.047 253.255 129.908 251.765 129.908 251.765C129.908 251.765 147.043 246.201 152.222 239.552L136.663 230C136.663 230 126.295 243.495 125.671 242.038C125.047 240.581 124.423 237.47 125.047 234.36C125.671 231.249 127.893 226.089 126.087 227.097L126.076 227.108Z" fill="#9D6054"/>
<path d="M111.7 247.384C111.689 247.45 110.726 247.307 109.291 246.683C107.835 246.08 106.105 244.788 104.156 243.539C102.131 242.301 100.532 240.845 99.4811 239.694C98.4738 238.478 98.1781 237.515 98.2767 237.493C98.3314 237.471 98.7365 238.325 99.7876 239.431C100.872 240.472 102.481 241.852 104.474 243.068C106.466 244.35 108.12 245.664 109.477 246.332C110.824 247.033 111.733 247.307 111.711 247.406L111.7 247.384Z" fill="#724A44"/>
<path d="M108.163 251.765C108.12 251.831 107.277 251.338 105.963 250.473C104.649 249.607 102.875 248.348 100.97 246.869C99.0649 245.39 97.4116 243.988 96.2401 242.936C95.0686 241.885 94.3897 241.184 94.4445 241.129C94.4992 241.063 95.2766 241.655 96.5029 242.63C97.9043 243.736 99.5357 245.018 101.32 246.42C103.138 247.8 104.769 249.06 106.193 250.144C107.441 251.097 108.207 251.699 108.163 251.765Z" fill="#724A44"/>
<path d="M99.5251 250.385C99.3938 250.495 97.5215 248.227 94.7843 245.894C92.058 243.55 89.5398 242.049 89.6165 241.896C89.6821 241.764 92.3756 243.068 95.1456 245.456C97.9376 247.833 99.6346 250.297 99.5142 250.374L99.5251 250.385Z" fill="#724A44"/>
<path d="M102.667 189.361C102.667 189.361 102.602 189.087 102.459 188.627C102.317 188.178 101.999 187.542 101.321 187.05C100.664 186.568 99.6126 186.305 98.6053 186.688C97.609 187.039 96.744 188.112 96.7549 189.35C96.744 190.588 97.598 191.661 98.6053 192.012C99.6126 192.395 100.675 192.132 101.321 191.65C101.999 191.168 102.317 190.522 102.459 190.073C102.602 189.624 102.613 189.339 102.667 189.339C102.7 189.339 102.766 189.613 102.667 190.128C102.58 190.621 102.295 191.365 101.551 191.968C100.839 192.57 99.6235 192.932 98.4082 192.505C97.2038 192.121 96.1528 190.84 96.1747 189.35C96.1637 187.849 97.2148 186.579 98.4082 186.195C99.6126 185.768 100.839 186.129 101.551 186.732C102.284 187.334 102.58 188.079 102.667 188.572C102.755 189.076 102.689 189.361 102.667 189.361Z" fill="#263238"/>
<path d="M103.762 210.261C103.762 210.261 103.696 209.987 103.554 209.527C103.412 209.078 103.094 208.443 102.415 207.95C101.758 207.468 100.707 207.205 99.7 207.588C98.7037 207.939 97.8387 209.012 97.8497 210.25C97.8387 211.488 98.6927 212.562 99.7 212.912C100.707 213.295 101.769 213.033 102.415 212.551C103.094 212.069 103.412 211.422 103.554 210.973C103.696 210.524 103.707 210.239 103.762 210.239C103.795 210.239 103.861 210.513 103.762 211.028C103.674 211.521 103.39 212.266 102.645 212.868C101.934 213.471 100.718 213.832 99.5029 213.405C98.2986 213.022 97.2475 211.74 97.2694 210.25C97.2584 208.75 98.3095 207.479 99.5029 207.096C100.707 206.668 101.934 207.03 102.645 207.632C103.379 208.235 103.674 208.98 103.762 209.473C103.85 209.976 103.784 210.261 103.762 210.261Z" fill="#263238"/>
<path d="M105.81 259.784C105.81 259.784 105.744 259.51 105.602 259.05C105.46 258.601 105.142 257.965 104.463 257.472C103.806 256.99 102.755 256.728 101.748 257.111C100.752 257.461 99.8866 258.535 99.8975 259.773C99.8866 261.01 100.741 262.084 101.748 262.435C102.755 262.818 103.817 262.555 104.463 262.073C105.142 261.591 105.46 260.945 105.602 260.496C105.744 260.047 105.755 259.762 105.81 259.762C105.843 259.762 105.908 260.036 105.81 260.55C105.722 261.043 105.438 261.788 104.693 262.391C103.981 262.993 102.766 263.355 101.551 262.927C100.346 262.544 99.2953 261.262 99.3172 259.773C99.3063 258.272 100.357 257.001 101.551 256.618C102.766 256.191 103.981 256.552 104.693 257.155C105.427 257.757 105.722 258.502 105.81 258.995C105.897 259.499 105.832 259.784 105.81 259.784Z" fill="#263238"/>
<path d="M105.339 279.292C105.339 279.292 105.273 279.019 105.131 278.559C104.988 278.109 104.671 277.474 103.992 276.981C103.335 276.499 102.284 276.236 101.277 276.62C100.28 276.97 99.4154 278.044 99.4263 279.281C99.4154 280.519 100.269 281.593 101.277 281.943C102.284 282.327 103.346 282.064 103.992 281.582C104.671 281.1 104.988 280.454 105.131 280.004C105.273 279.555 105.284 279.271 105.339 279.271C105.372 279.271 105.437 279.544 105.339 280.059C105.251 280.552 104.966 281.297 104.222 281.899C103.51 282.502 102.295 282.863 101.08 282.436C99.8752 282.053 98.8241 280.771 98.846 279.281C98.8351 277.781 99.8862 276.51 101.08 276.127C102.284 275.7 103.51 276.061 104.222 276.664C104.955 277.266 105.251 278.011 105.339 278.504C105.426 279.008 105.361 279.292 105.339 279.292Z" fill="#263238"/>
<path d="M77.6606 102.999C78.7446 99.0122 81.5146 95.5179 85.1387 93.5352C89.1241 91.3554 93.9306 91.0487 98.3758 91.9359C102.821 92.8232 106.971 94.8387 110.89 97.1171C113.091 98.3878 115.292 99.7899 116.868 101.783C119.759 105.42 120.153 110.382 120.438 115.016C120.668 118.762 120.854 122.694 119.277 126.101C117.821 129.223 114.876 131.611 111.514 132.389" fill="#263238"/>
<path d="M118.379 121.797C122.759 116.802 124.97 109.977 124.346 103.361C124.138 101.138 123.525 98.7826 121.817 97.3476C120.941 96.6137 119.857 96.1865 118.97 95.4745C117.35 94.171 116.551 92.0788 115.007 90.6876C113.43 89.2636 111.098 88.7159 109.062 89.3074C107.014 89.888 105.328 91.5749 104.737 93.6233C103.927 96.4384 105.142 99.4069 106.324 102.08C108.164 106.22 109.992 110.361 111.832 114.501C112.521 116.057 113.233 117.645 114.361 118.916C115.489 120.186 117.142 121.118 118.828 120.964" fill="#263238"/>
<path d="M79.5437 100.217C76.2919 103.744 74.2773 108.4 73.9489 113.198C73.6094 117.984 74.9452 122.881 77.6715 126.835C79.9817 116.659 83.1787 106.68 87.2188 97.0625" fill="#263238"/>
<path d="M75.6021 114.063C76.0838 106.68 80.9889 97.6326 88.3465 98.4212L105.361 102.759C110.824 104.15 114.459 108.762 114.854 114.381C114.875 114.666 114.897 114.315 114.897 114.534L113.748 156.214L97.9158 174.091L87.0545 157.375C87.0545 153.782 87.0545 150.923 87.0545 150.934C87.0545 150.934 77.6276 149.346 75.7006 137.034C74.748 130.911 75.0765 122.257 75.6021 114.052V114.063Z" fill="#9D6054"/>
<path d="M92.5073 110.207C92.5292 110.284 90.9525 110.744 88.938 110.941C86.9234 111.149 85.292 111.018 85.292 110.941C85.292 110.853 86.9234 110.842 88.9051 110.645C90.8868 110.448 92.4854 110.13 92.5073 110.207Z" fill="#724A44"/>
<path d="M89.759 109.769C89.7809 109.846 88.7955 110.109 87.5473 110.175C86.2992 110.24 85.2919 110.087 85.3028 110.01C85.3028 109.923 86.3101 109.945 87.5364 109.879C88.7626 109.813 89.748 109.682 89.7699 109.769H89.759Z" fill="#724A44"/>
<path d="M94.8828 134.142C94.7952 134.142 94.6967 133.649 94.193 133.331C93.7113 132.992 93.2076 133.091 93.1857 133.014C93.1748 132.981 93.2952 132.893 93.5142 132.86C93.7441 132.828 94.0726 132.882 94.3573 133.08C94.6529 133.277 94.8281 133.562 94.8828 133.781C94.9485 134 94.9047 134.142 94.8719 134.142H94.8828Z" fill="#724A44"/>
<path d="M80.1457 123.626C80.1128 124.459 80.7917 125.171 81.6676 125.226C82.5325 125.269 83.2661 124.645 83.2989 123.802C83.3318 122.969 82.653 122.257 81.788 122.202C80.923 122.159 80.1895 122.794 80.1566 123.626H80.1457Z" fill="#263238"/>
<path d="M77.7591 119.288C77.9562 119.496 79.1496 118.609 80.8467 118.62C82.5437 118.609 83.7919 119.485 83.9671 119.277C84.0547 119.189 83.8576 118.817 83.3211 118.412C82.7846 118.017 81.8758 117.634 80.8248 117.634C79.7627 117.634 78.8759 118.028 78.3613 118.422C77.8357 118.817 77.6605 119.189 77.7591 119.288Z" fill="#263238"/>
<path d="M95.9777 123.626C95.9449 124.459 96.6237 125.171 97.4996 125.226C98.3645 125.269 99.0981 124.634 99.131 123.802C99.1638 122.969 98.485 122.257 97.6091 122.202C96.7441 122.159 96.0106 122.794 95.9777 123.626Z" fill="#263238"/>
<path d="M94.4559 119.638C94.6529 119.847 95.8464 118.959 97.5434 118.97C99.2405 118.959 100.489 119.836 100.664 119.627C100.751 119.54 100.554 119.167 100.018 118.762C99.4814 118.368 98.5726 117.984 97.5215 117.984C96.4595 117.984 95.5726 118.379 95.0581 118.773C94.5325 119.167 94.3573 119.54 94.4559 119.638Z" fill="#263238"/>
<path d="M88.2589 132.224C88.2589 132.126 87.2078 131.94 85.4998 131.72C85.0619 131.677 84.6568 131.589 84.5801 131.293C84.4816 130.976 84.6568 130.516 84.8757 130.012C85.2808 128.96 85.7188 127.865 86.1677 126.715C87.9633 122.015 89.2553 118.149 89.0691 118.083C88.883 118.017 87.2735 121.763 85.4779 126.463C85.0509 127.624 84.6349 128.73 84.2407 129.782C84.0765 130.275 83.7918 130.833 84.0108 131.479C84.1312 131.808 84.4487 132.038 84.7225 132.115C84.9962 132.202 85.248 132.202 85.456 132.213C87.175 132.312 88.248 132.323 88.248 132.213L88.2589 132.224Z" fill="#263238"/>
<path d="M103.368 146.563C103.368 146.563 99.3612 155.02 87.0547 153.837V150.945C87.0547 150.945 95.1568 151.482 103.368 146.563Z" fill="#724A44"/>
<path d="M88.9706 136.322C89.5837 135.511 90.6567 135.073 91.7187 135.194C92.4523 135.27 93.1968 135.632 93.6457 136.234C94.0946 136.837 94.1822 137.691 93.7771 138.261C93.3173 138.907 92.3647 139.049 91.5545 138.819C90.7443 138.589 90.0436 138.053 89.3866 137.516C89.2005 137.373 89.0144 137.209 88.9049 137.012C88.7954 136.815 88.7626 136.552 88.9049 136.377" fill="#724A44"/>
<path d="M93.2515 133.407C92.9777 133.386 92.9668 135.237 91.3902 136.54C89.8135 137.855 87.8537 137.636 87.8318 137.899C87.8099 138.019 88.2698 138.26 89.1019 138.282C89.9121 138.315 91.1055 138.052 92.069 137.252C93.0325 136.453 93.4486 135.379 93.5142 134.623C93.5909 133.857 93.3829 133.396 93.2515 133.407Z" fill="#263238"/>
<path d="M94.0399 114.665C94.2041 115.125 95.9012 114.917 97.8939 115.158C99.8865 115.366 101.496 115.947 101.759 115.541C101.879 115.344 101.595 114.906 100.949 114.457C100.303 114.008 99.2844 113.581 98.08 113.449C96.8866 113.318 95.7917 113.504 95.0581 113.8C94.3245 114.095 93.9523 114.457 94.0289 114.676L94.0399 114.665Z" fill="#263238"/>
<path d="M78.394 114.37C78.6896 114.754 79.8612 114.359 81.2736 114.348C82.675 114.283 83.8684 114.611 84.1422 114.206C84.2626 114.009 84.0765 113.625 83.5509 113.253C83.0363 112.892 82.1823 112.585 81.2188 112.618C80.2553 112.651 79.4123 112.99 78.9196 113.384C78.4269 113.779 78.2626 114.173 78.394 114.37Z" fill="#263238"/>
<path d="M78.9414 102.814C79.6968 100.962 81.7224 99.8451 83.726 99.7465C85.7296 99.6479 87.6676 100.404 89.3975 101.401C96.7223 105.64 100.839 114.052 108.087 118.434C109.872 119.507 111.832 120.34 113.343 121.775C114.854 123.21 115.839 125.488 115.007 127.394C115.981 126.058 116.967 124.699 117.514 123.144C118.072 121.589 118.138 119.781 117.306 118.346C116.682 117.262 115.576 116.429 115.27 115.213C115.007 114.14 115.423 113.023 115.379 111.927C115.335 110.81 114.81 109.769 114.251 108.783C111.416 103.767 107.518 99.2316 102.492 96.4055C99.2076 94.5653 95.4522 93.4808 91.6968 93.6123C87.9304 93.7437 84.1749 95.1239 81.4268 97.6871C79.8063 99.1988 78.1093 100.765 78.9414 102.814Z" fill="#263238"/>
<path d="M114.909 127.438C114.909 127.438 115.051 127.274 115.292 126.934C115.533 126.605 115.861 126.08 116.091 125.324C116.584 123.845 116.595 121.446 115.412 118.883C114.854 117.59 114.076 116.265 113.266 114.808C112.445 113.362 111.733 111.719 111.011 110.01C110.277 108.301 109.522 106.483 108.438 104.796C107.376 103.087 105.985 101.499 104.365 100.108C101.124 97.3037 97.2153 95.6825 93.5693 95.1348C89.9014 94.5871 86.4635 95.1348 83.9891 96.4274C81.4927 97.72 80.0585 99.6369 79.3796 101.028C79.0293 101.729 78.8541 102.321 78.7446 102.715C78.6461 103.12 78.6023 103.328 78.5913 103.328C78.5913 103.328 78.5913 103.274 78.6023 103.164C78.6242 103.055 78.6351 102.901 78.6789 102.693C78.7665 102.288 78.9307 101.685 79.2701 100.973C79.9271 99.5493 81.3504 97.5776 83.8905 96.2302C86.3978 94.8719 89.9014 94.3023 93.6131 94.85C97.3138 95.3868 101.288 97.0299 104.573 99.8779C106.215 101.28 107.628 102.901 108.701 104.632C109.806 106.352 110.562 108.181 111.285 109.901C111.996 111.62 112.697 113.242 113.496 114.688C114.284 116.144 115.062 117.481 115.62 118.795C116.792 121.402 116.748 123.867 116.211 125.357C115.96 126.112 115.62 126.638 115.357 126.967C115.095 127.295 114.93 127.427 114.93 127.427L114.909 127.438Z" fill="#eb5454"/>
<path d="M120.58 120.986C120.58 120.986 120.569 120.866 120.58 120.636C120.58 120.373 120.602 120.044 120.624 119.628C120.656 118.763 120.7 117.492 120.646 115.948C120.602 114.392 120.459 112.541 120.054 110.536C119.627 108.543 118.883 106.363 117.416 104.512C115.981 102.639 114.24 101.16 112.697 99.8125C111.142 98.4651 109.686 97.315 108.427 96.4058C107.168 95.4966 106.095 94.8284 105.35 94.3903C105 94.1822 104.715 94.0179 104.485 93.8864C104.288 93.7659 104.189 93.7111 104.189 93.7002C104.189 93.7002 104.31 93.7331 104.518 93.8316C104.726 93.9302 105.033 94.0836 105.416 94.2808C106.182 94.697 107.277 95.3433 108.558 96.2305C109.839 97.1178 111.317 98.268 112.883 99.6043C114.438 100.952 116.2 102.42 117.667 104.336C119.167 106.231 119.923 108.477 120.339 110.493C120.744 112.53 120.854 114.392 120.875 115.959C120.897 117.525 120.821 118.785 120.755 119.661C120.722 120.099 120.689 120.439 120.656 120.658C120.624 120.888 120.613 121.008 120.602 121.008L120.58 120.986Z" fill="#eb5454"/>
<path d="M115.182 91.2461C115.182 91.2461 115.379 91.7609 115.521 92.6372C115.664 93.5135 115.762 94.7513 115.686 96.0987C115.598 97.457 115.357 98.6728 115.116 99.5272C114.875 100.382 114.646 100.886 114.613 100.875C114.514 100.853 115.237 98.7714 115.39 96.0877C115.565 93.415 115.094 91.257 115.193 91.2461H115.182Z" fill="#eb5454"/>
<path d="M123.843 100.36C123.843 100.36 123.766 100.788 123.427 101.39C123.087 101.992 122.485 102.748 121.631 103.373C120.777 103.997 119.868 104.348 119.201 104.49C118.533 104.632 118.095 104.61 118.095 104.578C118.095 104.523 118.511 104.468 119.146 104.282C119.781 104.096 120.635 103.723 121.456 103.132C122.266 102.529 122.868 101.828 123.241 101.28C123.613 100.733 123.788 100.349 123.843 100.371V100.36Z" fill="#eb5454"/>
<path d="M124.445 108.641C124.467 108.707 123.405 109.112 121.992 109.09C120.591 109.035 119.551 108.564 119.573 108.51C119.595 108.411 120.667 108.74 122.003 108.783C123.339 108.805 124.423 108.542 124.445 108.641Z" fill="#eb5454"/>
<path d="M119.091 130.154C118.795 130.012 118.937 129.19 118.981 127.876C118.981 127.229 118.981 126.43 118.719 125.718C118.653 125.542 118.587 125.378 118.489 125.225C118.456 125.137 118.39 125.082 118.346 125.006C118.302 124.94 118.215 124.82 118.138 124.721C117.832 124.316 117.492 123.899 117.12 123.538C116.759 123.176 116.321 122.87 116.058 122.793C115.927 122.749 115.894 122.793 115.948 122.815C115.806 122.848 115.664 122.87 115.521 122.903C115.368 122.935 115.215 122.979 115.062 123.012C114.448 123.166 113.89 123.374 113.31 123.669C113.025 123.823 112.73 123.987 112.434 124.173L112.215 124.316L111.832 124.546C111.569 124.688 111.317 124.809 111.054 124.918C109.992 125.334 108.886 125.575 107.594 125.499C106.949 125.455 106.248 125.323 105.525 124.973L105.262 124.841L105.054 124.71C104.912 124.622 104.77 124.546 104.638 124.447C104.365 124.261 104.113 124.053 103.872 123.834C102.908 122.957 102.262 121.928 101.759 120.953C101.255 119.978 100.883 119.025 100.533 118.16C99.1749 114.797 97.2807 111.883 95.2442 109.473C93.2077 107.063 91.0289 105.179 89.08 103.755C87.1202 102.287 85.4669 101.422 84.2297 100.973C83.0034 100.513 82.2042 100.392 82.1604 100.064C82.1056 99.7789 82.894 99.2641 84.5034 99.2203C86.102 99.1655 88.3793 99.757 90.7552 101.006C93.153 102.222 95.8464 104.062 98.3537 106.658C100.85 109.232 103.171 112.562 104.748 116.429C105.131 117.36 105.459 118.203 105.81 118.915C106.16 119.627 106.532 120.197 106.927 120.58C107.025 120.679 107.124 120.756 107.222 120.843C107.266 120.887 107.321 120.909 107.376 120.953L107.452 121.008L107.485 121.029C107.573 121.084 107.748 121.15 107.989 121.183C108.459 121.249 109.094 121.183 109.609 121.008C109.74 120.964 109.861 120.92 109.97 120.865L110.135 120.789L110.441 120.624C110.857 120.405 111.284 120.208 111.722 120.022C112.598 119.66 113.54 119.419 114.405 119.31C114.624 119.277 114.832 119.255 115.04 119.233L115.346 119.211L115.697 119.189C116.485 119.145 117.164 119.386 117.646 119.649C118.631 120.208 119.156 120.865 119.616 121.479C120.065 122.092 120.394 122.694 120.678 123.286C120.744 123.439 120.81 123.56 120.875 123.746C120.941 123.932 121.018 124.108 121.062 124.283C121.16 124.633 121.215 124.973 121.248 125.302C121.335 126.594 121.029 127.569 120.722 128.303C120.087 129.76 119.364 130.318 119.113 130.176L119.091 130.154Z" fill="#263238"/>
<path d="M113.167 123.308C113.299 122.958 119.715 120.636 119.802 127.46C119.89 134.087 113.2 132.784 113.189 132.597C113.178 132.411 113.178 123.308 113.178 123.308H113.167Z" fill="#9D6054"/>
<path d="M115.204 130.067C115.204 130.067 115.325 130.144 115.522 130.231C115.708 130.319 116.036 130.374 116.387 130.231C117.087 129.968 117.668 128.851 117.689 127.657C117.7 127.055 117.569 126.485 117.35 126.003C117.142 125.521 116.825 125.181 116.474 125.127C116.124 125.05 115.872 125.258 115.795 125.444C115.708 125.631 115.752 125.762 115.719 125.773C115.697 125.795 115.576 125.663 115.631 125.39C115.653 125.258 115.73 125.105 115.883 124.973C116.036 124.842 116.277 124.776 116.518 124.798C117.033 124.831 117.492 125.291 117.733 125.817C117.996 126.343 118.16 126.978 118.149 127.657C118.116 128.993 117.449 130.253 116.496 130.538C116.036 130.669 115.642 130.527 115.434 130.374C115.226 130.209 115.193 130.067 115.215 130.056L115.204 130.067Z" fill="#724A44"/>
<path d="M118.281 123.21C118.281 123.21 118.204 123.035 117.996 122.761C117.799 122.487 117.416 122.115 116.803 121.885C116.201 121.655 115.379 121.545 114.46 121.677C113.529 121.786 112.566 122.257 111.482 122.75C110.409 123.221 109.16 123.813 107.704 123.703C106.259 123.593 104.858 122.783 103.785 121.611C102.701 120.428 102 118.872 101.442 117.262C100.894 115.641 100.39 113.954 99.7225 112.278C98.4196 108.926 96.6788 105.892 94.4999 103.657C92.354 101.39 89.7591 100.086 87.4817 99.5168C86.3431 99.232 85.281 99.1224 84.3394 99.1224C83.4088 99.1444 82.5986 99.2539 81.9635 99.4072C80.6825 99.7249 80.0365 100.086 80.0146 100.043C80.0146 100.043 80.0475 100.01 80.1351 99.9768C80.2336 99.933 80.3541 99.8783 80.4964 99.8016C80.8139 99.6482 81.2957 99.462 81.9416 99.2868C82.5876 99.1115 83.3978 98.991 84.3394 98.9472C85.292 98.9362 86.3759 99.0239 87.5365 99.3087C89.8467 99.8673 92.5073 101.171 94.697 103.471C96.9196 105.728 98.6824 108.795 99.9963 112.169C100.664 113.855 101.168 115.564 101.715 117.164C102.263 118.763 102.941 120.274 103.993 121.425C105.022 122.564 106.358 123.352 107.726 123.462C109.095 123.572 110.321 123.024 111.394 122.564C112.467 122.093 113.474 121.622 114.427 121.523C115.379 121.403 116.211 121.523 116.836 121.786C117.46 122.049 117.843 122.443 118.029 122.739C118.128 122.881 118.182 123.013 118.215 123.09C118.248 123.177 118.27 123.221 118.259 123.221L118.281 123.21Z" fill="#eb5454"/>
<path d="M115.806 119.901C115.806 119.901 115.664 119.836 115.401 119.682C115.149 119.518 114.755 119.31 114.295 118.97C113.364 118.302 112.083 117.24 110.715 115.717C109.335 114.194 107.901 112.234 106.335 110.032C104.77 107.841 103.051 105.409 100.861 103.219C99.7441 102.145 98.5726 101.181 97.3354 100.425C96.0982 99.6585 94.7952 99.0998 93.5252 98.6946C90.9741 97.873 88.5216 97.6977 86.507 97.8292C84.4814 97.9606 82.872 98.3878 81.799 98.7493C81.2515 98.9136 80.8464 99.0998 80.5727 99.2094C80.299 99.3189 80.1457 99.3737 80.1348 99.3627C80.1348 99.3627 80.2661 99.2861 80.5399 99.1546C80.8136 99.0341 81.2077 98.826 81.7552 98.6398C82.8282 98.2345 84.4376 97.7744 86.4851 97.6101C88.5216 97.4458 91.0069 97.6101 93.6018 98.4207C94.8938 98.826 96.2186 99.3956 97.4887 100.162C98.7587 100.929 99.9521 101.904 101.08 102.988C103.292 105.212 105.01 107.655 106.565 109.857C108.109 112.069 109.532 114.041 110.868 115.564C112.204 117.097 113.452 118.171 114.361 118.872C114.81 119.211 115.193 119.441 115.434 119.617C115.675 119.792 115.806 119.879 115.806 119.89V119.901Z" fill="#eb5454"/>
<path d="M115.959 131.239C116.605 131.119 117.306 131.568 117.459 132.203C117.624 132.839 117.218 133.562 116.594 133.77C115.97 133.967 115.215 133.605 114.985 133.003C114.744 132.389 115.062 131.623 115.653 131.349" fill="#FBFBFB"/>
<path d="M115.642 131.338C115.642 131.338 115.215 131.568 115.051 132.225C114.974 132.543 115.018 132.959 115.313 133.265C115.587 133.572 116.091 133.758 116.551 133.616C117 133.474 117.306 133.024 117.35 132.608C117.416 132.192 117.208 131.82 116.956 131.611C116.441 131.162 115.948 131.283 115.959 131.228C115.959 131.217 116.058 131.162 116.266 131.151C116.474 131.151 116.792 131.206 117.087 131.436C117.383 131.655 117.678 132.104 117.624 132.63C117.58 133.145 117.229 133.693 116.638 133.89C116.036 134.076 115.434 133.824 115.105 133.43C114.744 133.035 114.733 132.499 114.843 132.148C114.963 131.787 115.182 131.546 115.346 131.436C115.521 131.316 115.631 131.305 115.642 131.316V131.338Z" fill="#263238"/>
<path d="M202.534 136.292L192.566 159.476H186.602L190.354 151.328L183.914 136.292H190.018L193.322 145.196L196.514 136.292H202.534ZM211.578 152.196C210.01 152.196 208.6 151.869 207.35 151.216C206.118 150.563 205.147 149.629 204.438 148.416C203.728 147.203 203.374 145.775 203.374 144.132C203.374 142.508 203.728 141.089 204.438 139.876C205.166 138.663 206.146 137.729 207.378 137.076C208.628 136.423 210.038 136.096 211.606 136.096C213.174 136.096 214.574 136.423 215.806 137.076C217.056 137.729 218.036 138.663 218.746 139.876C219.474 141.089 219.838 142.508 219.838 144.132C219.838 145.756 219.474 147.184 218.746 148.416C218.036 149.629 217.056 150.563 215.806 151.216C214.555 151.869 213.146 152.196 211.578 152.196ZM211.578 147.436C212.343 147.436 212.978 147.156 213.482 146.596C214.004 146.017 214.266 145.196 214.266 144.132C214.266 143.068 214.004 142.256 213.482 141.696C212.978 141.136 212.352 140.856 211.606 140.856C210.859 140.856 210.234 141.136 209.73 141.696C209.226 142.256 208.974 143.068 208.974 144.132C208.974 145.215 209.216 146.036 209.702 146.596C210.187 147.156 210.812 147.436 211.578 147.436ZM238.442 136.292V152H232.926V149.76C232.46 150.469 231.816 151.048 230.994 151.496C230.173 151.925 229.23 152.14 228.166 152.14C226.337 152.14 224.89 151.543 223.826 150.348C222.781 149.135 222.258 147.492 222.258 145.42V136.292H227.718V144.72C227.718 145.616 227.952 146.325 228.418 146.848C228.904 147.352 229.538 147.604 230.322 147.604C231.125 147.604 231.76 147.352 232.226 146.848C232.693 146.325 232.926 145.616 232.926 144.72V136.292H238.442ZM247.354 139.064C247.97 138.168 248.716 137.459 249.594 136.936C250.471 136.413 251.414 136.152 252.422 136.152V142.004H250.882C249.687 142.004 248.8 142.237 248.222 142.704C247.643 143.171 247.354 143.983 247.354 145.14V152H241.866V136.292H247.354V139.064ZM262.501 132.26C264.573 132.26 266.384 132.68 267.933 133.52C269.501 134.341 270.705 135.499 271.545 136.992C272.385 138.485 272.805 140.193 272.805 142.116C272.805 144.02 272.376 145.719 271.517 147.212C270.677 148.705 269.473 149.881 267.905 150.74C266.356 151.58 264.554 152 262.501 152H254.689V132.26H262.501ZM262.081 147.156C263.686 147.156 264.946 146.717 265.861 145.84C266.776 144.963 267.233 143.721 267.233 142.116C267.233 140.492 266.776 139.241 265.861 138.364C264.946 137.468 263.686 137.02 262.081 137.02H260.177V147.156H262.081ZM298.623 132.26V152H293.135V141.108L289.411 152H284.819L281.067 141.024V152H275.579V132.26H282.215L287.171 145.084L292.015 132.26H298.623ZM314.535 148.78H307.535L306.471 152H300.703L307.899 132.26H314.227L321.395 152H315.599L314.535 148.78ZM313.163 144.58L311.035 138.196L308.935 144.58H313.163ZM333.48 152L329.56 144.72H328.972V152H323.484V132.26H332.136C333.722 132.26 335.066 132.54 336.168 133.1C337.269 133.641 338.1 134.397 338.66 135.368C339.22 136.32 339.5 137.393 339.5 138.588C339.5 139.932 339.126 141.117 338.38 142.144C337.652 143.152 336.578 143.871 335.16 144.3L339.612 152H333.48ZM328.972 140.968H331.688C332.434 140.968 332.994 140.791 333.368 140.436C333.741 140.081 333.928 139.568 333.928 138.896C333.928 138.261 333.732 137.767 333.34 137.412C332.966 137.039 332.416 136.852 331.688 136.852H328.972V140.968ZM341.623 142.088C341.623 140.147 342.025 138.42 342.827 136.908C343.649 135.377 344.806 134.192 346.299 133.352C347.793 132.493 349.51 132.064 351.451 132.064C353.915 132.064 355.987 132.727 357.667 134.052C359.347 135.359 360.43 137.141 360.915 139.4H355.007C354.653 138.653 354.158 138.084 353.523 137.692C352.907 137.3 352.189 137.104 351.367 137.104C350.098 137.104 349.081 137.561 348.315 138.476C347.569 139.372 347.195 140.576 347.195 142.088C347.195 143.619 347.569 144.841 348.315 145.756C349.081 146.652 350.098 147.1 351.367 147.1C352.189 147.1 352.907 146.904 353.523 146.512C354.158 146.12 354.653 145.551 355.007 144.804H360.915C360.43 147.063 359.347 148.855 357.667 150.18C355.987 151.487 353.915 152.14 351.451 152.14C349.51 152.14 347.793 151.72 346.299 150.88C344.806 150.021 343.649 148.836 342.827 147.324C342.025 145.793 341.623 144.048 341.623 142.088Z" fill="#FBFBFB"/>
<g opacity="0.7">
<path d="M218.15 278.508L222.715 275.99C223.097 275.783 223.563 275.81 223.918 276.055C224.372 276.372 224.844 276.671 225.33 276.951C226.238 277.477 227.161 277.925 228.101 278.287C228.543 278.457 228.836 278.869 228.842 279.338L228.943 284.789C228.949 285.372 229.406 285.853 229.994 285.891L234.965 286.229C235.53 286.265 236.025 285.877 236.127 285.324L237.008 280.38C237.082 279.897 237.476 279.526 237.975 279.46C240.077 279.177 242.131 278.558 244.057 277.626C244.523 277.402 245.093 277.528 245.425 277.925L247.383 280.267C247.759 280.709 248.41 280.808 248.9 280.488L253.005 277.728C253.089 277.671 253.167 277.611 253.229 277.534C253.54 277.187 253.606 276.668 253.37 276.246L251.492 272.832L251.032 272.002C251.605 271.273 252.137 270.49 252.611 269.669C253.253 268.561 253.779 267.411 254.185 266.252C254.343 265.81 254.749 265.505 255.218 265.502L259.607 265.424C260.207 265.409 260.7 264.946 260.736 264.349L260.995 260.547L261.067 259.456C261.109 258.862 260.694 258.327 260.109 258.226L255.979 257.488C255.499 257.407 255.125 257.034 255.057 256.559C254.83 255.146 254.454 253.757 253.934 252.431C253.898 252.311 253.853 252.207 253.806 252.093C253.788 252.057 253.776 252.019 253.767 251.98C253.632 251.541 253.782 251.069 254.137 250.773L257.932 247.586C257.977 247.553 258.016 247.508 258.051 247.469C258.392 247.087 258.437 246.508 258.15 246.071L255.406 241.973C255.075 241.477 254.424 241.319 253.895 241.606L249.133 244.234C248.733 244.462 248.234 244.411 247.879 244.121C247.088 243.488 246.237 242.902 245.326 242.374C244.842 242.093 244.356 241.836 243.86 241.603C243.46 241.409 243.197 241.008 243.191 240.566L243.093 235.327C243.084 234.751 242.633 234.27 242.051 234.231L237.133 233.902C236.539 233.861 236.007 234.27 235.9 234.864L235.204 238.774C235.112 239.3 234.676 239.685 234.15 239.721C232.075 239.841 230.033 240.292 228.098 241.038C227.644 241.224 227.116 241.089 226.796 240.707L223.924 237.284C223.539 236.824 222.87 236.731 222.368 237.063L218.284 239.796C217.791 240.124 217.639 240.776 217.923 241.283L218.03 241.483L220.213 245.45C220.446 245.874 220.392 246.388 220.078 246.761V246.767C219.326 247.655 218.642 248.622 218.039 249.665C217.717 250.22 217.43 250.785 217.164 251.362C216.985 251.765 216.591 252.022 216.152 252.031L211.697 252.108C211.088 252.117 210.587 252.595 210.548 253.199L210.219 258.097C210.21 258.238 210.231 258.372 210.264 258.498C210.384 258.904 210.73 259.226 211.163 259.307L214.462 259.889C214.865 259.964 215.2 260.251 215.337 260.627C215.373 260.726 215.397 260.833 215.406 260.944C215.576 263.605 216.275 266.201 217.463 268.594C217.669 268.997 217.6 269.481 217.317 269.824C217.275 269.872 217.23 269.917 217.179 269.962L214.104 272.542C213.659 272.916 213.563 273.564 213.886 274.054L213.949 274.149L216.618 278.149C216.958 278.651 217.618 278.806 218.147 278.517L218.15 278.508ZM243.17 252.237C243.726 252.81 244.254 253.455 244.735 254.181C245.649 255.567 246.326 258.067 246.216 259.728C246.204 259.904 246.189 260.081 246.174 260.257C245.081 270.897 232.084 274.242 226.005 265.26C225.214 264.083 224.605 262.148 224.47 260.526C224.444 260.149 224.438 259.788 224.464 259.468C224.575 257.96 224.918 256.595 225.45 255.376C228.492 248.443 237.575 246.546 243.173 252.24L243.17 252.237Z" fill="white"/>
</g>
<path d="M263.76 242.592L266.618 241.621C266.857 241.543 267.119 241.603 267.299 241.782C267.525 242.009 267.764 242.227 268.012 242.436C268.475 242.827 268.956 243.177 269.457 243.479C269.69 243.619 269.816 243.885 269.771 244.154L269.275 247.269C269.218 247.601 269.43 247.923 269.762 248.004L272.559 248.7C272.876 248.778 273.198 248.607 273.312 248.303L274.315 245.576C274.408 245.31 274.667 245.136 274.96 245.148C276.187 245.199 277.42 245.056 278.612 244.721C278.898 244.641 279.212 244.772 279.361 245.029L280.239 246.564C280.409 246.854 280.77 246.976 281.081 246.842L283.699 245.686C283.753 245.662 283.804 245.635 283.846 245.599C284.058 245.435 284.147 245.142 284.055 244.88L283.332 242.744L283.156 242.224C283.556 241.869 283.938 241.474 284.294 241.053C284.771 240.486 285.186 239.885 285.539 239.267C285.673 239.031 285.936 238.9 286.201 238.944L288.709 239.345C289.053 239.398 289.381 239.183 289.462 238.846L289.996 236.704L290.149 236.092C290.232 235.757 290.05 235.411 289.728 235.294L287.449 234.455C287.184 234.359 287.008 234.108 287.017 233.834C287.031 233.006 286.957 232.176 286.796 231.366C286.787 231.295 286.772 231.229 286.757 231.16C286.751 231.136 286.748 231.115 286.745 231.091C286.712 230.829 286.846 230.575 287.079 230.44L289.566 229.009C289.596 228.995 289.623 228.974 289.647 228.956C289.88 228.774 289.963 228.448 289.844 228.17L288.698 225.557C288.56 225.24 288.205 225.085 287.873 225.195L284.894 226.211C284.643 226.3 284.365 226.22 284.189 226.016C283.804 225.574 283.377 225.156 282.911 224.762C282.663 224.553 282.412 224.359 282.153 224.174C281.944 224.024 281.836 223.767 281.878 223.513L282.353 220.517C282.407 220.189 282.198 219.869 281.869 219.786L279.101 219.099C278.767 219.015 278.423 219.194 278.301 219.523L277.507 221.679C277.399 221.969 277.113 222.145 276.811 222.112C275.617 221.972 274.408 222.02 273.228 222.25C272.951 222.31 272.664 222.178 272.521 221.93L271.231 219.687C271.058 219.385 270.684 219.266 270.368 219.403L267.764 220.544C267.451 220.682 267.296 221.037 267.409 221.357L267.451 221.482L268.293 223.964C268.382 224.23 268.299 224.517 268.084 224.696C267.567 225.129 267.078 225.61 266.63 226.142C266.391 226.426 266.17 226.718 265.958 227.02C265.815 227.232 265.564 227.34 265.313 227.298L262.766 226.889C262.417 226.832 262.082 227.053 262.002 227.394L261.318 230.151C261.3 230.228 261.297 230.309 261.303 230.384C261.33 230.625 261.494 230.847 261.733 230.936L263.554 231.602C263.775 231.686 263.94 231.883 263.978 232.11C263.987 232.17 263.99 232.232 263.984 232.295C263.811 233.831 263.948 235.381 264.381 236.862C264.459 237.113 264.369 237.382 264.172 237.549C264.146 237.573 264.113 237.594 264.08 237.612L262.064 238.771C261.772 238.938 261.652 239.3 261.787 239.61L261.814 239.67L262.93 242.221C263.074 242.541 263.435 242.696 263.766 242.586L263.76 242.592ZM280.681 230.162C280.941 230.545 281.173 230.966 281.373 231.429C281.756 232.31 281.887 233.807 281.654 234.739C281.63 234.84 281.603 234.936 281.576 235.034C279.875 240.984 272.129 241.573 269.577 235.838C269.245 235.088 269.093 233.923 269.183 232.985C269.206 232.767 269.236 232.561 269.287 232.382C269.502 231.534 269.836 230.79 270.263 230.151C272.7 226.509 278.068 226.351 280.681 230.162Z" fill="#E4E4E4"/>
<path d="M272.138 318.812L279.546 315.212C280.167 314.92 280.896 314.997 281.439 315.415C282.132 315.95 282.848 316.461 283.595 316.945C284.98 317.847 286.401 318.629 287.855 319.275C288.536 319.579 288.966 320.254 288.936 320.995L288.653 329.601C288.614 330.518 289.295 331.315 290.22 331.426L298.031 332.367C298.918 332.471 299.73 331.895 299.936 331.032L301.727 323.31C301.886 322.554 302.533 322.002 303.325 321.936C306.663 321.661 309.953 320.855 313.064 319.543C313.817 319.227 314.706 319.475 315.193 320.123L318.089 323.979C318.645 324.705 319.666 324.917 320.463 324.451L327.166 320.437C327.303 320.356 327.429 320.263 327.533 320.15C328.053 319.63 328.199 318.812 327.859 318.131L325.177 312.593L324.521 311.245C325.482 310.143 326.384 308.951 327.202 307.694C328.304 305.997 329.226 304.229 329.964 302.437C330.247 301.753 330.913 301.308 331.654 301.338L338.584 301.574C339.53 301.6 340.345 300.907 340.45 299.969L341.169 293.995L341.369 292.284C341.483 291.349 340.874 290.471 339.96 290.265L333.511 288.762C332.761 288.598 332.2 287.974 332.131 287.224C331.89 284.975 331.412 282.758 330.698 280.623C330.65 280.431 330.588 280.261 330.525 280.082C330.498 280.022 330.486 279.959 330.474 279.897C330.298 279.195 330.573 278.46 331.155 278.024L337.401 273.304C337.476 273.257 337.539 273.191 337.598 273.131C338.166 272.555 338.285 271.647 337.867 270.936L333.875 264.245C333.391 263.438 332.379 263.134 331.525 263.543L323.801 267.3C323.15 267.626 322.371 267.507 321.83 267.017C320.636 265.95 319.34 264.959 317.949 264.054C317.211 263.573 316.459 263.128 315.698 262.718C315.08 262.381 314.7 261.727 314.727 261.028L314.999 252.757C315.032 251.846 314.357 251.054 313.443 250.943L305.713 250.023C304.779 249.91 303.907 250.51 303.689 251.442L302.271 257.554C302.08 258.375 301.366 258.949 300.53 258.964C297.249 258.985 293.991 259.528 290.877 260.547C290.145 260.801 289.324 260.547 288.853 259.917L284.604 254.283C284.034 253.527 282.986 253.327 282.17 253.805L275.506 257.781C274.703 258.256 274.407 259.274 274.817 260.099L274.969 260.424L278.089 266.858C278.423 267.548 278.295 268.355 277.772 268.913L277.766 268.919C276.512 270.258 275.354 271.724 274.318 273.322C273.766 274.174 273.267 275.04 272.798 275.927C272.482 276.545 271.84 276.922 271.147 276.901L264.113 276.659C263.151 276.623 262.321 277.337 262.211 278.284L261.291 285.984C261.267 286.205 261.285 286.42 261.327 286.62C261.485 287.269 262.002 287.809 262.679 287.971L267.836 289.156C268.466 289.309 268.97 289.787 269.155 290.39C269.203 290.548 269.23 290.719 269.236 290.892C269.287 295.104 270.18 299.256 271.858 303.124C272.153 303.775 272.001 304.537 271.526 305.053C271.458 305.125 271.38 305.194 271.296 305.257L266.235 309.074C265.501 309.627 265.301 310.642 265.77 311.44L265.862 311.595L269.747 318.119C270.245 318.937 271.269 319.239 272.129 318.821L272.138 318.812ZM313.739 279.425C314.569 280.372 315.348 281.435 316.047 282.618C317.376 284.876 318.239 288.879 317.928 291.483C317.895 291.764 317.856 292.039 317.818 292.314C315.229 309.005 294.457 313.22 285.604 298.557C284.452 296.639 283.648 293.532 283.571 290.964C283.562 290.369 283.577 289.799 283.645 289.297C283.941 286.928 284.595 284.801 285.535 282.926C290.901 272.241 305.379 269.992 313.739 279.425Z" fill="white"/>
</g>
<defs>
<clipPath id="clip0_925_3990">
<rect width="509" height="480" fill="white"/>
</clipPath>
</defs>
</svg>
