<svg width="20" height="17" viewBox="0 0 20 17" fill="none" xmlns="http://www.w3.org/2000/svg">
<path d="M2 16.9512C1.45 16.9512 0.979334 16.7555 0.588 16.3642C0.196 15.9722 0 15.5012 0 14.9512V2.95117C0 2.40117 0.196 1.93051 0.588 1.53917C0.979334 1.14717 1.45 0.951172 2 0.951172H18C18.55 0.951172 19.021 1.14717 19.413 1.53917C19.8043 1.93051 20 2.40117 20 2.95117V14.9512C20 15.5012 19.8043 15.9722 19.413 16.3642C19.021 16.7555 18.55 16.9512 18 16.9512H2ZM10 9.95117L18 4.95117V2.95117L10 7.95117L2 2.95117V4.95117L10 9.95117Z" fill="#eb5454"/>
</svg>
