<svg width="670" height="455" viewBox="0 0 670 455" fill="none" xmlns="http://www.w3.org/2000/svg">
<g clip-path="url(#clip0_1042_2913)">
<path d="M592.462 259.176C552.248 226.064 498.401 225.738 447.755 192.115C385.051 150.485 319.003 75.1909 229.411 106.945C179.777 124.532 166.216 186.589 164.262 196.496C163.874 198.457 163.475 200.398 162.994 202.338C159.036 218.568 152.593 272.148 90.6152 316.944C19.5453 368.307 40.9818 431.917 64.9752 454.244H556.308C656.976 376.968 643.609 301.287 592.462 259.176Z" fill="#C6D8E8" fill-opacity="0.1"/>
<path d="M157.807 120.825C154.821 106.393 143.223 95.6895 129.058 92.8399C111.017 89.2141 81.6545 91.4304 49.8985 126.759C-2.06669 184.577 40.3257 223.787 74.751 217.158C105.658 211.204 167.278 166.54 157.818 120.815L157.807 120.825Z" fill="#C6D8E8" fill-opacity="0.1"/>
<path d="M613.937 274.364H663.581C667.089 274.364 669.932 277.204 669.932 280.707V326.943C669.932 330.446 667.089 333.286 663.581 333.286H615.962C611.339 333.286 607.586 329.537 607.586 324.921V280.717C607.586 277.214 610.429 274.374 613.937 274.374V274.364Z" fill="#EB5454"/>
<path d="M626.894 291.635C620.379 298.141 620.379 308.825 626.894 315.331C633.409 321.837 644.107 321.837 650.621 315.331C657.136 308.825 657.136 298.141 650.621 291.635C644.107 285.129 633.409 285.129 626.894 291.635ZM650.591 294.046H645.242C644.71 292.371 644.015 290.696 643.166 289.01C646.132 289.909 648.709 291.686 650.591 294.046ZM632.601 302.502C632.601 300.337 632.856 298.172 633.399 296.007H644.137C644.669 298.172 644.925 300.337 644.935 302.502H632.611H632.601ZM644.853 304.463C644.71 306.629 644.311 308.794 643.697 310.959H633.808C633.194 308.794 632.805 306.629 632.652 304.463H644.843H644.853ZM638.758 288.367C639.566 288.367 640.353 288.428 641.13 288.551C642.163 290.379 642.961 292.218 643.565 294.046H633.961C634.564 292.218 635.362 290.379 636.395 288.551C637.172 288.428 637.96 288.367 638.768 288.367H638.758ZM634.36 289.021C633.511 290.696 632.816 292.371 632.284 294.056H626.935C628.817 291.697 631.404 289.919 634.36 289.021ZM625.595 296.017H631.721C631.189 298.182 630.903 300.347 630.862 302.513H623.652C623.805 300.164 624.49 297.957 625.595 296.017ZM625.595 310.969C624.49 309.029 623.795 306.823 623.652 304.474H630.893C630.995 306.639 631.343 308.804 631.916 310.969H625.595ZM626.925 312.93H632.488C633.041 314.626 633.736 316.321 634.554 318.027C631.506 317.149 628.847 315.341 626.925 312.93ZM638.747 318.609C638.072 318.609 637.418 318.568 636.763 318.476C635.843 316.628 635.055 314.779 634.421 312.92H643.084C642.45 314.769 641.662 316.618 640.742 318.476C640.097 318.558 639.433 318.609 638.758 318.609H638.747ZM642.941 318.017C643.759 316.321 644.454 314.626 645.007 312.92H650.57C648.637 315.331 645.988 317.138 642.941 318.017ZM651.91 310.959H645.59C646.162 308.794 646.51 306.629 646.612 304.463H653.853C653.7 306.813 653.015 309.019 651.91 310.959ZM653.853 302.502H646.643C646.602 300.337 646.326 298.172 645.784 296.007H651.91C653.015 297.947 653.71 300.153 653.853 302.502Z" fill="white"/>
<path d="M126.073 59.0332H157.051C162.237 59.0332 166.45 63.2412 166.45 68.4194V97.0477C166.45 102.226 162.237 106.434 157.051 106.434H126.073C120.887 106.434 116.674 102.226 116.674 97.0477V68.4194C116.674 63.2412 120.887 59.0332 126.073 59.0332Z" fill="#EB5454"/>
<path d="M133.918 75.4668L149.198 90.0108" stroke="white" stroke-width="3.06" stroke-linecap="round" stroke-linejoin="round"/>
<path d="M149.198 75.4668L133.918 90.0108" stroke="white" stroke-width="3.06" stroke-linecap="round" stroke-linejoin="round"/>
<path d="M588.012 120.243C602.715 120.243 614.634 108.34 614.634 93.657C614.634 78.9741 602.715 67.0713 588.012 67.0713C573.31 67.0713 561.391 78.9741 561.391 93.657C561.391 108.34 573.31 120.243 588.012 120.243Z" fill="#EB5454"/>
<path d="M580.189 100.898C580.659 101.255 580.894 101.725 581.017 102.318L581.14 103.972C581.262 105.034 581.968 105.862 583.032 106.097C586.335 106.924 589.761 106.924 593.075 106.097C594.139 105.862 594.844 104.922 594.967 103.972L595.09 102.318C595.09 101.725 595.448 101.255 595.918 100.898C598.639 98.7735 600.408 95.4745 600.408 90.9908C600.408 82.8507 594.977 79.6641 588.125 79.6641C581.273 79.6641 575.842 82.8507 575.842 90.9908C575.719 95.4745 577.499 98.896 580.209 100.898H580.189ZM593.3 90.7559C595.305 90.9908 596.133 92.4105 595.898 93.9425C595.663 95.4745 594.834 96.6593 592.594 96.4244C590.355 96.1895 589.761 94.7698 589.997 93.2378C590.232 91.5832 591.295 90.521 593.3 90.7559ZM586.1 100.428L587.399 97.364C587.634 96.7716 588.462 96.7716 588.698 97.364L589.997 100.428C590.232 101.02 589.761 101.725 589.168 101.725H587.041C586.212 101.725 585.742 101.02 586.1 100.428ZM582.674 90.7559C584.678 90.521 585.742 91.6955 585.977 93.2378C586.212 94.7698 585.619 96.1895 583.379 96.4244C581.14 96.6593 580.311 95.4847 580.076 93.9425C579.841 92.4105 580.546 90.9908 582.674 90.7559Z" fill="white"/>
<path d="M53.0289 253.957H7.92621C3.54868 253.957 0 257.501 0 261.872V301.439C0 305.811 3.54868 309.355 7.92621 309.355H53.0289C57.4064 309.355 60.9551 305.811 60.9551 301.439V261.872C60.9551 257.501 57.4064 253.957 53.0289 253.957Z" fill="#EB5454"/>
<path d="M21.1708 290.726C21.7231 291.145 22.0095 291.696 22.1424 292.391L22.2856 294.331C22.4288 295.577 23.2572 296.548 24.5049 296.823C28.3913 297.794 32.4209 297.794 36.3176 296.823C37.5653 296.548 38.4039 295.434 38.5369 294.331L38.6801 292.391C38.6801 291.696 39.0994 291.145 39.6517 290.726C42.8426 288.234 44.929 284.342 44.929 279.072C44.929 269.502 38.5369 265.754 30.4777 265.754C22.4186 265.754 16.0265 269.502 16.0265 279.072C15.8833 284.342 17.9697 288.367 21.1708 290.726ZM36.5937 278.797C38.9562 279.072 39.9278 280.737 39.6517 282.545C39.3755 284.353 38.4039 285.731 35.7653 285.456C33.1266 285.18 32.4312 283.515 32.7073 281.707C32.9834 279.767 34.2312 278.521 36.5937 278.797ZM28.1152 290.174L29.6391 286.569C29.9152 285.874 30.8868 285.874 31.163 286.569L32.6868 290.174C32.963 290.869 32.4107 291.696 31.7152 291.696H29.2198C28.2482 291.696 27.6959 290.869 28.105 290.174H28.1152ZM24.0856 278.797C26.4481 278.521 27.6959 279.91 27.972 281.707C28.2482 283.515 27.5527 285.18 24.914 285.456C22.2754 285.731 21.3038 284.342 21.0276 282.545C20.7515 280.737 21.5799 279.072 24.0856 278.797Z" fill="white"/>
<path d="M430.245 56.5007C429.928 54.4683 428.016 53.0792 425.981 53.4061C423.945 53.7227 422.554 55.6326 422.882 57.6651C423.199 59.6976 425.111 61.0866 427.147 60.7598C429.182 60.4431 430.573 58.5332 430.245 56.5007Z" fill="white"/>
<path d="M20.681 347.349C20.3639 345.317 18.4514 343.928 16.4161 344.255C14.3809 344.571 12.99 346.481 13.3173 348.514C13.6343 350.546 15.5468 351.935 17.5821 351.608C19.6173 351.292 21.0082 349.382 20.681 347.349Z" fill="white"/>
<path d="M69.1263 63.364C68.8092 61.3315 66.8967 59.9425 64.8615 60.2693C62.8262 60.586 61.4353 62.4959 61.7626 64.5284C62.0796 66.5608 63.9921 67.9499 66.0274 67.623C68.0626 67.3064 69.4535 65.3965 69.1263 63.364Z" fill="white"/>
<path d="M290.548 67.0922H218.905C217.708 67.0922 216.727 66.1219 216.727 64.9167C216.727 63.7217 217.698 62.7412 218.905 62.7412H290.548C291.744 62.7412 292.726 63.7115 292.726 64.9167C292.726 66.1117 291.755 67.0922 290.548 67.0922Z" fill="#7BCCA9"/>
<path d="M63.0514 395.343H23.6862C22.4896 395.343 21.5078 394.373 21.5078 393.168C21.5078 391.973 22.4794 390.992 23.6862 390.992H63.0514C64.248 390.992 65.2298 391.962 65.2298 393.168C65.2298 394.363 64.2582 395.343 63.0514 395.343Z" fill="#EB5454"/>
<path d="M659.531 104.811H653.118C651.435 104.811 650.07 106.173 650.07 107.854V113.87C650.07 115.551 651.435 116.914 653.118 116.914H659.531C661.214 116.914 662.578 115.551 662.578 113.87V107.854C662.578 106.173 661.214 104.811 659.531 104.811Z" fill="#7BCCA9"/>
<path d="M15.2884 107.047H8.87588C7.19265 107.047 5.82812 108.41 5.82812 110.09V116.106C5.82812 117.787 7.19265 119.15 8.87588 119.15H15.2884C16.9717 119.15 18.3362 117.787 18.3362 116.106V110.09C18.3362 108.41 16.9717 107.047 15.2884 107.047Z" fill="#EB5454"/>
<path d="M592.583 150.097C592.583 153.876 589.555 156.94 585.822 156.94C582.089 156.94 579.072 153.876 579.072 150.097C579.072 146.318 582.1 143.254 585.822 143.254C589.545 143.254 592.583 146.318 592.583 150.097Z" stroke="white" stroke-width="0.97" stroke-linecap="round" stroke-linejoin="round"/>
<path d="M22.9911 223.031C22.9911 226.933 19.8718 230.089 16.0161 230.089C12.1604 230.089 9.04102 226.922 9.04102 223.031C9.04102 219.14 12.1604 215.974 16.0161 215.974C19.8718 215.974 22.9911 219.14 22.9911 223.031Z" stroke="white" stroke-width="0.97" stroke-linecap="round" stroke-linejoin="round"/>
<path d="M397.65 91.2363H452.07" stroke="white" stroke-width="0.97" stroke-linecap="round" stroke-linejoin="round"/>
<path d="M5.19531 162.036H40.8172" stroke="white" stroke-width="0.97" stroke-linecap="round" stroke-linejoin="round"/>
<path d="M618.918 363.559H653.272" stroke="white" stroke-width="0.97" stroke-linecap="round" stroke-linejoin="round"/>
<path d="M542.234 133.398H116.929C111.439 133.398 106.988 137.843 106.988 143.326V393.668C106.988 399.151 111.439 403.596 116.929 403.596H542.234C547.725 403.596 552.175 399.151 552.175 393.668V143.326C552.175 137.843 547.725 133.398 542.234 133.398Z" fill="#EB5454"/>
<path d="M541.386 142.846H117.789V394.158H541.386V142.846Z" fill="white"/>
<path d="M288.515 395.14L280.619 446.054H382.514L375.028 395.14H288.515Z" fill="#EB5454"/>
<path d="M392.322 446.054H270.801V454.235H392.322V446.054Z" fill="#EB5454"/>
<path d="M287.204 403.597H376.274L377.43 411.492L286.703 406.824L287.204 403.597Z" fill="#EB5454"/>
<path d="M505.445 181.922H367.662C364.652 181.922 362.211 184.359 362.211 187.366V350.618C362.211 353.624 364.652 356.062 367.662 356.062H505.445C508.456 356.062 510.896 353.624 510.896 350.618V187.366C510.896 184.359 508.456 181.922 505.445 181.922Z" fill="#DBE6F1"/>
<path d="M459.3 236.483V223.124C459.3 212.43 450.617 203.759 439.909 203.759C432.372 203.759 425.836 208.059 422.625 214.33" stroke="#FFFFFC" stroke-width="4.19" stroke-miterlimit="10"/>
<path d="M412.295 230.865H466.449C468.924 230.865 470.939 232.877 470.939 235.349V268.798C470.939 282.658 459.669 293.923 445.78 293.923H432.944C419.066 293.923 407.785 282.668 407.785 268.798V235.349C407.785 232.877 409.8 230.865 412.275 230.865H412.295Z" fill="#FEC627"/>
<path d="M446.549 253.682C446.549 257.747 443.245 261.046 439.175 261.046C435.104 261.046 431.801 257.747 431.801 253.682C431.801 249.617 435.104 246.318 439.175 246.318C443.245 246.318 446.549 249.617 446.549 253.682Z" fill="white"/>
<path d="M436.995 258.789L431.043 275.835H447.703L441.332 258.789H436.995Z" fill="white"/>
<path d="M475.713 332.581H399.837C394.14 332.581 389.527 327.974 389.527 322.285C389.527 316.596 394.14 311.99 399.837 311.99H475.713C481.41 311.99 486.023 316.596 486.023 322.285C486.023 327.974 481.41 332.581 475.713 332.581Z" fill="white"/>
<path d="M417.98 318.66L415.535 321.867V321.918L419.422 321.407V323.154L415.535 322.694V322.745L418.01 325.83L416.384 326.759L414.84 323.164H414.789L413.122 326.79L411.659 325.86L414.103 322.725V322.674L410.299 323.164V321.417L414.083 321.908V321.857L411.659 318.721L413.224 317.822L414.819 321.397H414.87L416.435 317.802L417.98 318.68V318.66Z" fill="black"/>
<path d="M434.263 318.66L431.818 321.867V321.918L435.705 321.407V323.154L431.818 322.694V322.745L434.293 325.83L432.667 326.759L431.123 323.164H431.072L429.405 326.79L427.942 325.86L430.387 322.725V322.674L426.582 323.164V321.417L430.366 321.908V321.857L427.942 318.721L429.507 317.822L431.103 321.397H431.154L432.718 317.802L434.263 318.68V318.66Z" fill="black"/>
<path d="M450.544 318.66L448.1 321.867V321.918L451.986 321.407V323.154L448.1 322.694V322.745L450.575 325.83L448.949 326.759L447.404 323.164H447.353L445.686 326.79L444.224 325.86L446.668 322.725V322.674L442.863 323.164V321.417L446.647 321.908V321.857L444.224 318.721L445.788 317.822L447.384 321.397H447.435L449 317.802L450.544 318.68V318.66Z" fill="black"/>
<path d="M466.825 318.66L464.381 321.867V321.918L468.267 321.407V323.154L464.381 322.694V322.745L466.856 325.83L465.23 326.759L463.685 323.164H463.634L461.967 326.79L460.505 325.86L462.949 322.725V322.674L459.145 323.164V321.417L462.929 321.908V321.857L460.505 318.721L462.07 317.822L463.665 321.397H463.716L465.281 317.802L466.825 318.68V318.66Z" fill="black"/>
<path d="M369.674 139.428C374.88 122.591 365.433 104.727 348.573 99.5277C331.713 94.3286 313.824 103.763 308.618 120.6C303.412 137.438 312.859 155.302 329.719 160.501C346.58 165.7 364.468 156.265 369.674 139.428Z" fill="#1F0C07"/>
<path d="M343.282 142.283C343.282 147.707 335.039 147.707 335.039 142.283C335.039 136.86 343.282 136.809 343.282 142.283ZM342.791 114.595L342.607 134.868H335.673C335.673 127.198 335.53 122.306 335.53 114.595H342.791Z" fill="white"/>
<path d="M338.954 180.022H147.754C145.822 180.022 144.256 181.586 144.256 183.515V283.127C144.256 285.057 145.822 286.621 147.754 286.621H338.954C340.886 286.621 342.452 285.057 342.452 283.127V183.515C342.452 181.586 340.886 180.022 338.954 180.022Z" fill="#DBE6F1"/>
<path d="M305.695 225.493L269.265 196.937L231.762 225.493H305.695Z" fill="#D39C00"/>
<path d="M305.696 225.493H232.836V264.172H305.696V225.493Z" fill="#FEBC00"/>
<path d="M293.616 195.833H243.973V260.28H293.616V195.833Z" fill="white"/>
<path d="M231.762 225.493V272.567H287.501L242.439 228.22C240.66 226.474 238.277 225.493 235.781 225.493H231.772H231.762Z" fill="#DDA506"/>
<path d="M305.696 225.493V272.567H249.957L295.019 228.22C296.798 226.474 299.181 225.493 301.677 225.493H305.686H305.696Z" fill="#FEC627"/>
<path d="M251.992 205.138H286.54" stroke="#DBE6F1" stroke-width="1.04" stroke-linecap="round" stroke-linejoin="round"/>
<path d="M251.992 212.624H286.54" stroke="#DBE6F1" stroke-width="1.04" stroke-linecap="round" stroke-linejoin="round"/>
<path d="M251.992 220.101H286.54" stroke="#DBE6F1" stroke-width="1.04" stroke-linecap="round" stroke-linejoin="round"/>
<path d="M251.992 227.587H267.947" stroke="#DBE6F1" stroke-width="1.04" stroke-linecap="round" stroke-linejoin="round"/>
<path d="M337.072 302.829H149.687C146.687 302.829 144.256 305.257 144.256 308.252V350.158C144.256 353.154 146.687 355.582 149.687 355.582H337.072C340.072 355.582 342.503 353.154 342.503 350.158V308.252C342.503 305.257 340.072 302.829 337.072 302.829Z" fill="#DBE6F1"/>
<path d="M238.112 341.048C231.863 341.048 226.801 335.993 226.801 329.752C226.801 323.512 231.863 318.456 238.112 318.456C244.361 318.456 249.424 323.512 249.424 329.752C249.424 335.993 244.361 341.048 238.112 341.048Z" fill="#EB5454"/>
<path d="M261.379 330.16H325.065" stroke="white" stroke-width="1.43" stroke-linecap="round" stroke-linejoin="round"/>
<path d="M261.379 321.847H301.46" stroke="white" stroke-width="1.43" stroke-linecap="round" stroke-linejoin="round"/>
<path d="M261.379 338.638H273.488" stroke="white" stroke-width="1.43" stroke-linecap="round" stroke-linejoin="round"/>
<path d="M169.096 430.917L182.473 433.225L202.539 448.852L164.596 441.845L169.096 430.917Z" fill="#101010"/>
<path d="M163.604 446.82L164.596 441.846L202.539 448.852L201.547 453.826L163.604 446.82Z" fill="white"/>
<path d="M188.057 414.8L174.434 412.451L169.096 430.917L182.729 433.266L188.057 414.8Z" fill="#EBAE89"/>
<path d="M184.202 308.478L206.191 363.427C207.234 365.878 207.489 368.595 206.917 371.189L190.85 424.993L167.807 420.132L181.512 369.973L151.484 308.396L184.202 308.478Z" fill="#1F0C07"/>
<path d="M136.37 437.26L149.942 437.106L172.524 448.852L133.926 448.821L136.37 437.26Z" fill="#101010"/>
<path d="M133.854 453.897L133.925 448.821L172.523 448.852L172.441 453.918L133.854 453.897Z" fill="white"/>
<path d="M152.099 417.977L138.271 418.13L136.369 437.26L150.207 437.106L152.099 417.977Z" fill="#EBAE89"/>
<path d="M142.629 307.477C142.629 307.477 139.121 317.609 140.174 333.899L133.68 427.199H156.865L164.392 358.698L167.727 307.334L142.639 307.477H142.629Z" fill="#1F0C07"/>
<path d="M159.831 230.63C159.831 230.63 153.808 230.967 152.836 237.728C152.836 237.728 159.606 234.705 159.831 230.63Z" fill="#39405F"/>
<path d="M160.701 230.845C160.701 230.845 156.508 226.514 150.75 230.181C150.75 230.181 157.469 233.326 160.701 230.845Z" fill="#39405F"/>
<path d="M175.573 225.595C176.043 227.668 178.109 228.976 180.196 228.506C182.282 228.036 183.581 225.973 183.11 223.889C182.64 221.816 180.574 220.509 178.488 220.978C176.401 221.448 175.102 223.511 175.573 225.595Z" fill="#D78D67"/>
<path d="M169.641 234.185L169.303 248.852L157.184 248.515L160.692 223.706L169.641 234.185Z" fill="#EBAE89"/>
<path d="M175.001 208.263C178.908 208.783 180.81 212.91 181.188 216.617C181.638 220.886 181.741 226.647 180.411 229.884C178.355 234.889 173.702 238.678 167.105 236.901C167.105 236.901 159.977 235.961 158.862 224.339C157.543 210.581 166.696 207.159 175.001 208.263Z" fill="#EBAE89"/>
<path d="M160.518 225.227L157.378 216.005C158.636 213.165 160.538 213.594 160.538 213.594C160.497 213.4 163.116 212.113 163.085 211.919C171.43 203.483 179.336 211.143 179.336 211.143C179.336 211.143 176.237 203.432 163.402 204.443C154.361 205.158 149.656 212.256 150.035 218.149C150.485 225.166 155.077 227.117 159.567 231.682L160.518 225.217V225.227Z" fill="#1F0C07"/>
<path d="M161.931 213.155C161.931 213.155 164.692 209.325 169.591 210.469C173.569 211.398 180.002 212.307 176.586 208.712C176.586 208.712 173.467 205.332 166.758 206.476C160.049 207.619 161.931 213.155 161.931 213.155Z" fill="#1F0C07"/>
<path d="M161.133 225.902C161.133 225.902 165.51 217.445 161.306 210.122L156.336 213.033L157.246 222.715L161.133 225.902Z" fill="#1F0C07"/>
<path d="M153.747 226.055C154.259 228.343 156.539 229.773 158.82 229.252C161.111 228.741 162.543 226.463 162.021 224.186C161.51 221.898 159.229 220.468 156.949 220.989C154.668 221.51 153.226 223.777 153.747 226.055Z" fill="#EBAE89"/>
<path d="M156.059 223.746C156.059 223.746 159.229 223.082 159.802 226.545" stroke="#1D0006" stroke-width="0.31" stroke-linecap="round" stroke-linejoin="round"/>
<path d="M178.918 222.101C179.01 222.581 179.471 222.898 179.951 222.806C180.432 222.714 180.749 222.254 180.657 221.774C180.565 221.294 180.105 220.978 179.624 221.07C179.143 221.162 178.826 221.621 178.918 222.101Z" fill="#1F0C07"/>
<path d="M171.449 222.101C171.542 222.581 172.002 222.898 172.482 222.806C172.963 222.714 173.28 222.254 173.188 221.774C173.096 221.294 172.636 220.978 172.155 221.07C171.674 221.162 171.357 221.621 171.449 222.101Z" fill="#1F0C07"/>
<path d="M176.84 223.185L178.159 226.014C178.231 226.289 178.047 226.555 177.781 226.606L176.85 226.79" stroke="#1D0006" stroke-width="0.31" stroke-linecap="round" stroke-linejoin="round"/>
<path d="M177.68 217.455C177.68 217.455 178.242 218.68 179.418 218.068C180.318 217.598 180.871 217.281 181.494 217.169C181.842 217.097 182.047 216.76 181.965 216.372C181.904 216.056 181.668 215.759 181.372 215.637C180.768 215.382 179.684 215.096 178.58 215.647C177.168 216.362 177.69 217.465 177.69 217.465L177.68 217.455Z" fill="#1F0C07"/>
<path d="M173.977 217.506C173.977 217.506 173.639 218.833 172.075 218.159C170.888 217.649 169.272 217.373 168.505 217.24C168.076 217.169 167.749 216.801 167.738 216.372C167.738 216.025 167.933 215.708 168.25 215.575C168.904 215.299 170.991 214.932 172.443 215.534C174.304 216.311 173.967 217.506 173.967 217.506H173.977Z" fill="#1F0C07"/>
<path d="M160.018 228.782L177.506 224.982L181.301 225.891C181.301 225.891 180.953 234.369 176.218 241.6C176.218 241.6 166.164 239.955 160.018 228.782Z" fill="#39405F"/>
<path d="M160.018 228.782L156.418 229.446L159.568 231.693L166.758 231.489L160.018 228.782Z" fill="#39405F"/>
<path d="M163.4 247.401L181.503 249.72C184.745 250.149 186.31 255.337 186.115 257.329L184.203 308.468L142.383 308.366L138.466 258.493C137.955 254.449 140.399 249.638 144.101 249.546L163.4 247.401Z" fill="#39405F"/>
<path d="M182.943 250.291C182.943 250.291 196.535 253.825 195.564 287.243L178.883 288.04L180.478 253.386L182.943 250.291Z" fill="#39405F"/>
<path d="M153.631 250.291L154.654 244.102C154.797 243.234 155.666 242.591 156.668 242.621L170.424 242.979C171.478 243.009 172.316 243.755 172.337 244.674L173.533 251.037L153.631 250.291Z" fill="#39405F"/>
<path d="M140.203 283.935L149.07 269.156L147.833 283.935H140.203Z" fill="#1D1F30"/>
<path d="M185.121 283.935V268.563L188.322 283.935H185.121Z" fill="#1D1F30"/>
<path d="M155.138 259.167C155.138 259.167 145.237 275.345 135.276 292.259C133.998 294.424 127.759 296.293 125.253 296.395C120.191 296.61 117.593 291.38 119.107 286.805C119.107 286.805 128.598 263.11 135.818 253.958C137.291 252.089 143.059 247.943 147.488 250.292L155.138 259.177V259.167Z" fill="#39405F"/>
<path d="M130.368 328.803L130.235 320.663L121.01 321.01L121.173 328.63L130.368 328.803Z" fill="#EBAE89"/>
<path d="M125.939 326.495C125.939 326.495 130.245 324.432 133.017 329.764L137.435 337.893C137.813 338.619 137.465 339.517 136.698 339.803C136.177 339.997 135.584 339.854 135.215 339.446L131.922 335.963L133.467 347.944C133.62 348.842 132.935 349.67 132.014 349.68C131.309 349.68 130.695 349.19 130.552 348.505L128.987 340.508L128.578 340.447L129.007 348.944C128.977 349.843 128.128 350.487 127.248 350.282C126.584 350.129 126.123 349.527 126.154 348.842L125.285 340.406L124.794 340.273L124.313 347.831C124.272 349.741 123.311 349.864 122.666 349.721C122.063 349.598 121.92 348.066 122.012 347.464V339.395L121.552 339.252L120.826 346.371C120.611 346.994 119.885 347.259 119.322 346.922C118.923 346.677 118.729 346.197 118.862 345.748L119.394 337.475C119.394 337.475 118.289 329.12 122.104 327.506L125.939 326.495Z" fill="#EBAE89"/>
<path d="M135.563 290.962L133.783 322.552L117 322.665L118.115 290.717C118.145 289.971 118.227 289.216 118.473 288.511C119.813 284.671 124.169 282.587 128.097 284.201C131.165 285.457 136.002 287.694 135.552 290.972L135.563 290.962Z" fill="#39405F"/>
<path d="M548.003 288.245C548.003 288.245 553.106 294.68 557.207 310.582C557.913 313.329 556.226 316.128 553.454 316.771L527.497 322.787C524.081 323.574 520.788 320.765 521.238 317.292C521.708 313.575 521.238 308.631 520.256 302.319L548.013 288.245H548.003Z" fill="#1F0907"/>
<path d="M540.699 307.171C540.699 307.171 546.774 307.11 548.216 313.83C548.216 313.83 541.211 311.246 540.699 307.171Z" fill="#39405F"/>
<path d="M540.648 307.784C540.648 307.784 544.565 303.147 550.6 306.446C550.6 306.446 544.064 310.061 540.648 307.784Z" fill="#39405F"/>
<path d="M532.948 282.475C532.948 282.475 517.075 284.16 519.264 297.315L520.9 306.303L536.773 306.241L532.948 282.475Z" fill="#1F0907"/>
<path d="M550.97 294.7C552.525 302.707 545.488 303.831 537.081 305.455C528.685 307.079 522.108 308.59 520.554 300.583C518.999 292.575 524.553 284.098 532.949 282.474C541.346 280.85 549.415 286.692 550.97 294.69V294.7Z" fill="#1F0907"/>
<path d="M527.752 305.567C527.527 307.763 525.553 309.366 523.355 309.142C521.156 308.917 519.55 306.946 519.775 304.75C520 302.554 521.974 300.951 524.173 301.175C526.372 301.4 527.977 303.371 527.752 305.567Z" fill="#B96462"/>
<path d="M534.391 312.615L538.267 330.621L549.507 327.057L539.985 302.983L534.391 312.615Z" fill="#CB7E78"/>
<path d="M523.314 290.584C522.527 291.615 521.351 294.312 521.33 295.629C521.289 299.531 521.402 305.414 523.366 309.131C525.912 313.962 529.972 317.609 536.16 314.953C536.16 314.953 543.698 312.502 543.462 301.849C543.084 284.874 530.044 281.729 523.314 290.584Z" fill="#CB7E78"/>
<path d="M527.109 304.382L526.781 307.007L528.612 307.415" stroke="#1D0006" stroke-width="0.31" stroke-linecap="round" stroke-linejoin="round"/>
<path d="M532.743 301.144C532.866 301.665 532.538 302.196 532.007 302.318C531.475 302.441 530.953 302.114 530.83 301.583C530.708 301.052 531.035 300.531 531.567 300.409C532.088 300.286 532.62 300.613 532.743 301.144Z" fill="#210907"/>
<path d="M525.032 302.584C525.145 303.074 524.838 303.554 524.357 303.667C523.866 303.779 523.386 303.473 523.273 302.993C523.161 302.502 523.468 302.022 523.948 301.91C524.439 301.798 524.92 302.104 525.032 302.584Z" fill="#210907"/>
<path d="M525.094 299.561C525.094 299.561 525.319 300.46 523.938 300.399C522.895 300.358 522.23 300.317 521.627 300.419C521.279 300.47 520.921 300.317 520.757 300.062C520.635 299.847 520.665 299.612 520.849 299.459C521.228 299.142 522.005 298.673 523.283 298.713C524.92 298.765 525.094 299.571 525.094 299.571V299.561Z" fill="#210907"/>
<path d="M529.399 298.427C529.399 298.427 529.419 299.377 531.055 298.693C532.293 298.172 533.899 297.784 534.655 297.6C535.085 297.498 535.474 297.181 535.576 296.865C535.658 296.609 535.545 296.395 535.269 296.334C534.706 296.201 532.814 296.17 531.301 296.783C529.358 297.569 529.399 298.427 529.399 298.427Z" fill="#210907"/>
<path d="M539.791 291.615L540.589 302.125L548.525 292.872L539.791 291.615Z" fill="#1F0907"/>
<path d="M525.186 287.479C525.186 287.479 532.805 295.731 544.413 296.722C544.413 296.722 548.79 295.465 542.552 288.725C536.313 281.994 525.186 287.479 525.186 287.479Z" fill="#1F0907"/>
<path d="M549.026 302.473C548.78 304.852 546.653 306.578 544.27 306.333C541.887 306.088 540.159 303.964 540.404 301.584C540.65 299.204 542.777 297.478 545.16 297.723C547.543 297.969 549.271 300.093 549.026 302.473Z" fill="#CB7E78"/>
<path d="M546.1 300.675C546.1 300.675 542.848 300.246 542.889 303.739" stroke="#1D0006" stroke-width="0.31" stroke-linecap="round" stroke-linejoin="round"/>
<path d="M544.208 306.599L543.104 306.057L526.791 305.904L522.905 308.151C522.905 308.151 522.68 315.638 532.396 320.244C532.396 320.244 542.889 316.424 544.208 306.609V306.599Z" fill="#39405F"/>
<path d="M585.846 423.492L589.599 436.616L607.436 455.001L596.308 417.813L585.846 423.492Z" fill="#101010"/>
<path d="M601.187 416.271L596.309 417.814L607.436 455.001L612.314 453.459L601.187 416.271Z" fill="white"/>
<path d="M571.415 441.08L567.59 427.71L585.846 423.492L589.671 436.862L571.415 441.08Z" fill="#CB7E78"/>
<path d="M540.189 380.085C539.76 381.341 531.128 424.84 528.009 441.243C526.618 448.546 532.601 455.154 540.016 454.511L583.267 444.011L577.468 423.829L556.359 427.69L567.435 396.314L540.189 380.085Z" fill="#1F0C07"/>
<path d="M506.797 437.463L493.134 437.229L470.316 448.913L509.191 449.117L506.797 437.463Z" fill="#101010"/>
<path d="M509.232 454.234L509.191 449.117L470.316 448.913L470.368 454.02L509.232 454.234Z" fill="white"/>
<path d="M490.066 417.945L503.996 418.19L506.798 437.463L492.869 437.228L490.066 417.945Z" fill="#CB7E78"/>
<path d="M574.084 375.407C574.084 375.407 525.606 367.859 495.763 362.783C486.435 361.2 478.335 369.258 479.879 378.573L490.076 429.661H515.041L510.112 390.186L552.381 402.677C569.359 405.802 576.763 392.974 575.147 382.454L574.063 375.386L574.084 375.407Z" fill="#1F0C07"/>
<path d="M493.204 319.437C491.404 317.414 489.349 315.637 487.088 314.136L481.995 310.745C480.88 309.918 479.561 309.386 478.18 309.223L466.838 309.172C465.969 309.07 465.202 309.703 465.14 310.571C465.089 311.296 465.57 311.96 466.276 312.144L475.818 313.063L478.364 315.035C477.608 314.411 476.206 314.554 475.756 315.423C475.439 316.035 475.46 316.944 475.961 317.414L483.049 323.215C484.532 324.635 486.649 325.156 488.622 324.615L492.171 330.273L498.707 325.616L493.194 319.437H493.204Z" fill="#CB7E78"/>
<path d="M501.888 355.419L486.854 330.273L498.635 320.233L518.241 346.176C520.982 351.17 518.671 357.441 513.342 359.463C509.047 361.087 504.199 359.382 501.888 355.419Z" fill="#39405F"/>
<path d="M506.582 342.641L550.406 323.92L558.455 342.355L513.863 359.943C508.576 362.077 502.613 359.054 501.222 353.529C500.108 349.076 502.368 344.469 506.582 342.641Z" fill="#39405F"/>
<path d="M525.973 355.173L538.808 350.107L533.541 337.616L525.973 355.173Z" fill="#1D1F30"/>
<path d="M578.408 365.04L552.624 337.422C548.902 333.439 549.106 327.199 553.064 323.46C557.145 319.61 563.619 319.906 567.331 324.114L592.225 352.344C596.029 356.593 595.201 363.211 590.466 366.398C586.651 368.961 581.547 368.39 578.387 365.06L578.408 365.04Z" fill="#39405F"/>
<path d="M623.368 396.997H546.141C540.352 396.997 535.658 401.684 535.658 407.466V407.476C535.658 413.258 540.352 417.945 546.141 417.945H623.368C629.158 417.945 633.851 413.258 633.851 407.476V407.466C633.851 401.684 629.158 396.997 623.368 396.997Z" fill="white"/>
<path d="M564.621 403.789L562.136 407.058V407.109L566.094 406.588V408.365L562.136 407.895V407.946L564.651 411.082L563.005 412.021L561.43 408.355H561.379L559.681 412.042L558.188 411.102L560.673 407.905V407.854L556.797 408.355V406.578L560.642 407.078V407.027L558.178 403.83L559.773 402.921L561.399 406.557H561.45L563.046 402.891L564.621 403.779V403.789Z" fill="black"/>
<path d="M581.189 403.789L578.704 407.058V407.109L582.662 406.588V408.365L578.704 407.895V407.946L581.22 411.082L579.573 412.021L577.998 408.355H577.947L576.249 412.042L574.756 411.102L577.241 407.905V407.854L573.365 408.355V406.578L577.211 407.078V407.027L574.746 403.83L576.341 402.921L577.968 406.557H578.019L579.614 402.891L581.189 403.779V403.789Z" fill="black"/>
<path d="M597.757 403.789L595.272 407.058V407.109L599.23 406.588V408.365L595.272 407.895V407.946L597.788 411.082L596.142 412.021L594.567 408.355H594.515L592.818 412.042L591.325 411.102L593.81 407.905V407.854L589.934 408.355V406.578L593.779 407.078V407.027L591.314 403.83L592.91 402.921L594.536 406.557H594.587L596.182 402.891L597.757 403.779V403.789Z" fill="black"/>
<path d="M614.326 403.789L611.841 407.058V407.109L615.799 406.588V408.365L611.841 407.895V407.946L614.357 411.082L612.71 412.021L611.135 408.355H611.084L609.386 412.042L607.893 411.102L610.378 407.905V407.854L606.502 408.355V406.578L610.347 407.078V407.027L607.883 403.83L609.478 402.921L611.104 406.557H611.155L612.751 402.891L614.326 403.779V403.789Z" fill="black"/>
<path d="M578.838 396.16C578.582 396.966 578.859 397.845 579.544 398.335C580.474 399.009 581.784 398.744 582.377 397.753L582.858 396.946C583.911 397.528 585.363 399.152 583.819 404.514C583.563 405.413 584.085 406.353 584.985 406.618C585.69 406.822 586.417 406.547 586.826 405.985C586.846 405.954 586.856 405.934 586.877 405.903C587.041 406.434 587.46 406.874 588.033 407.037C588.738 407.241 589.464 406.965 589.873 406.404C589.925 406.332 589.976 406.25 590.017 406.169C590.211 406.363 590.456 406.516 590.743 406.598C591.448 406.802 592.175 406.526 592.584 405.965C592.696 405.811 592.788 405.627 592.839 405.433C592.86 405.362 592.87 405.301 592.891 405.229C592.921 405.229 592.942 405.25 592.972 405.26C593.678 405.464 594.404 405.188 594.813 404.627C594.926 404.473 595.018 404.29 595.069 404.095C595.499 402.615 595.734 401.246 595.816 400C595.816 400 595.816 399.979 595.816 399.939C595.846 399.346 595.836 398.795 595.795 398.264C595.703 395.731 595.253 390.92 593.31 387.264L580.771 390.093L578.807 396.149L578.838 396.16Z" fill="#CB7E78"/>
<path d="M582.858 396.956L577.305 396.997L577.734 400.01H582.858V396.956Z" fill="white"/>
<path d="M594.559 357.501L595.673 388.479L577.663 390.491L575.842 359.136C575.423 353.457 580.128 348.708 585.824 349.086C590.406 349.382 594.109 352.946 594.569 357.512L594.559 357.501Z" fill="#39405F"/>
<path d="M540.321 327.709L532.682 344.367L540.332 370.084L574.082 375.416L566.238 334.94C565.379 326.32 555.335 321.856 555.335 321.856L540.321 327.719V327.709Z" fill="#39405F"/>
<path d="M570.41 356.47L562.055 347.523L573.09 370.269L570.41 356.47Z" fill="#1D1F30"/>
<path d="M535.249 334.409C535.249 334.409 526.146 347.942 536.097 357.328C543.809 364.6 548.524 352.977 548.524 352.977L545.906 344.357L535.249 334.409Z" fill="#39405F"/>
<path d="M536.128 334.133L535.258 327.535C535.136 326.514 535.719 325.523 536.68 325.145L547.337 320.907C548.206 320.56 549.198 320.784 549.832 321.458L553.913 325.768L536.128 334.144V334.133Z" fill="#39405F"/>
<path d="M621.426 163.855L628.902 175.161L651.279 187.264L629.638 155.357L621.426 163.855Z" fill="#101010"/>
<path d="M633.801 152.446L629.639 155.357L651.28 187.264L655.442 184.363L633.801 152.446Z" fill="white"/>
<path d="M614.235 187.662L606.615 176.141L621.424 163.854L629.044 175.386L614.235 187.662Z" fill="#EBAE89"/>
<path d="M531.402 178.47L535.524 174.66L582.652 191.38L610.409 169.043L623.612 184.71L596.121 207.681C587.346 214.779 585.71 214.871 578.51 213.737C578.458 213.737 566.932 207.354 566.932 207.354L554.997 204.913L531.402 178.48V178.47Z" fill="#1F0C07"/>
<path d="M637.162 206.853L638.236 220.366L651.971 241.753L648.463 203.381L637.162 206.853Z" fill="#101010"/>
<path d="M653.515 202.84L648.463 203.381L651.971 241.753L657.023 241.222L653.515 202.84Z" fill="white"/>
<path d="M619.346 224.227L618.252 210.459L637.162 206.854L638.257 220.621L619.346 224.227Z" fill="#EBAE89"/>
<path d="M534.44 170.351L525.613 196.048L567.351 229.589C567.351 229.589 567.433 229.64 567.464 229.67C572.802 233.255 579.164 234.981 585.587 234.644L629.043 226.657L627.396 205.883L584.727 212.246L553.718 186.764C553.718 186.764 546.109 170.279 534.44 170.371V170.351Z" fill="#1F0C07"/>
<path d="M456.539 121.806C456.539 121.806 444.982 120.427 444.174 132.837C443.795 138.648 450.433 140.681 456.958 138.669L456.539 121.796V121.806Z" fill="#1F0C07"/>
<path d="M471.676 149.229L483.396 158.421L490.423 147.36L472.831 137.433L471.676 149.229Z" fill="#EBAE89"/>
<path d="M452.325 129.18C452.325 129.18 447.876 133.776 452.325 140.354C452.325 140.354 453.972 142.897 458.748 149.669C461.274 153.254 466.838 156.185 471.082 152.641C473.138 150.925 474.549 148.014 475.439 144.868L476.339 139.945C477.515 127.219 462.153 119.61 452.98 128.517C452.765 128.731 452.54 128.946 452.325 129.18Z" fill="#EBAE89"/>
<path d="M456.262 144.96L456.998 150.332C457.008 150.823 457.479 151.272 457.949 150.996L460.547 149.699L456.262 144.97V144.96Z" fill="#EBAE89"/>
<path d="M469.058 137.719C469.058 137.719 464.353 137.923 462.379 131.877C462.379 131.877 453.216 137.801 448.715 133.062C448.715 133.062 447.805 123.941 458.851 121.061C469.896 118.181 471.993 128.077 471.993 128.077L469.068 137.729L469.058 137.719Z" fill="#1F0C07"/>
<path d="M473.25 137.086C473.25 137.086 470.98 141.334 477.74 140.201C477.74 140.201 477.454 138.74 477.924 136.534C478.384 134.328 480.338 111.756 456.549 121.796L463.125 124.676L473.26 137.075L473.25 137.086Z" fill="#1F0C07"/>
<path d="M474.477 132.612C475.929 134.277 475.765 136.8 474.098 138.26C472.431 139.71 469.905 139.547 468.442 137.882C466.99 136.217 467.154 133.695 468.821 132.234C470.488 130.784 473.014 130.947 474.477 132.612Z" fill="#EBAE89"/>
<path d="M471.123 137.647C471.123 137.647 470.008 135.87 471.573 133.786" stroke="black" stroke-width="0.35" stroke-linecap="round" stroke-linejoin="round"/>
<path d="M458.972 143.203C459.218 143.602 459.085 144.133 458.686 144.368C458.287 144.603 457.755 144.48 457.52 144.082C457.275 143.683 457.408 143.152 457.806 142.917C458.205 142.672 458.737 142.805 458.972 143.203Z" fill="#1F0C07"/>
<path d="M453.44 142.733C453.44 142.733 454.534 143.479 455.23 141.998C455.751 140.875 456.743 139.639 457.214 139.056C457.48 138.73 457.48 138.25 457.214 137.943C456.999 137.688 456.651 137.596 456.334 137.698C455.69 137.913 453.941 138.985 453.286 140.343C452.437 142.09 453.45 142.744 453.45 142.744L453.44 142.733Z" fill="#1F0C07"/>
<path d="M478.037 135.706L456.784 148.769C456.784 148.769 454.166 155.255 469.2 159.626L477.75 140.21L478.047 135.716L478.037 135.706Z" fill="#39405F"/>
<path d="M475.949 138.474C475.949 138.474 481.359 136.36 484.929 141.886C484.929 141.886 477.78 141.947 475.949 138.474Z" fill="#39405F"/>
<path d="M477.535 138.464C477.535 138.464 477.637 132.663 484.111 131.468C484.111 131.468 481.442 138.086 477.535 138.464Z" fill="#39405F"/>
<path d="M480.531 201.39L445.809 208.069L444.193 200.93L481.176 186.264L480.531 201.39Z" fill="#EBAE89"/>
<path d="M444.89 200.297C444.89 200.297 431.185 198.734 432.535 205.618C433.885 212.502 439.909 220.499 451.057 205.363L444.89 200.297Z" fill="#EBAE89"/>
<path d="M436.328 201.819C436.328 201.819 434.436 195.078 447.118 200.45L447.824 204.597L444.357 207.058L436.328 201.819Z" fill="#EBAE89"/>
<path d="M502.295 162.394C502.295 162.394 492.661 185.405 484.766 198.571C483.405 200.838 480.705 201.91 478.138 201.277C474.651 200.409 472.687 196.712 473.925 193.341L488.151 154.111L502.285 162.394H502.295Z" fill="#EBAE89"/>
<path d="M496.927 146.318C496.927 146.318 513.352 159.433 501.468 180.809L477.352 175.764C477.352 175.764 482.455 138.669 496.917 146.318H496.927Z" fill="#39405F"/>
<path d="M483.988 158.799L488.959 146.665C488.959 146.665 499.493 138.934 518.076 152.957C533.734 164.774 541.63 172.424 541.63 172.424L526.309 196.762C484.111 168.022 483.988 158.809 483.988 158.809V158.799Z" fill="#39405F"/>
<path d="M500.965 178.103L508.83 184.19L503.818 160.924L500.965 178.103Z" fill="#1D1F30"/>
<path d="M530.839 162.567C530.839 162.567 535.462 175.763 523.547 194.862" stroke="#1F0C07" stroke-width="0.99" stroke-linecap="round" stroke-linejoin="round"/>
<path d="M13.3262 454.234H659.573" stroke="#39405F" stroke-width="0.99" stroke-miterlimit="10"/>
<path d="M199.862 61.5991C201.643 61.5991 203.087 60.1572 203.087 58.3786C203.087 56.6 201.643 55.1582 199.862 55.1582C198.081 55.1582 196.637 56.6 196.637 58.3786C196.637 60.1572 198.081 61.5991 199.862 61.5991Z" fill="#B8DDFF"/>
<path d="M89.1384 27.2938H85.32V23.481C85.32 22.9747 84.8994 22.5547 84.3924 22.5547C83.8854 22.5547 83.4648 22.9747 83.4648 23.481V27.2938H79.6464C79.1394 27.2938 78.7188 27.7139 78.7188 28.2201C78.7188 28.7263 79.1394 29.1464 79.6464 29.1464H83.4648V32.9592C83.4648 33.4654 83.8854 33.8855 84.3924 33.8855C84.8994 33.8855 85.32 33.4654 85.32 32.9592V29.1464H89.1384C89.6454 29.1464 90.0661 28.7263 90.0661 28.2201C90.0661 27.7139 89.6454 27.2938 89.1384 27.2938Z" fill="#B8DDFF"/>
<path opacity="0.5" d="M313.895 18.5806H310.767V15.4571C310.767 15.037 310.422 14.7031 310.012 14.7031C309.602 14.7031 309.257 15.0478 309.257 15.4571V18.5806H306.118C305.698 18.5806 305.363 18.9252 305.363 19.3345C305.363 19.7438 305.708 20.0885 306.118 20.0885H309.257V23.2228C309.257 23.6428 309.602 23.9767 310.012 23.9767C310.422 23.9767 310.767 23.632 310.767 23.2228V20.0885H313.895C314.316 20.0885 314.65 19.7438 314.65 19.3345C314.65 18.9252 314.305 18.5806 313.895 18.5806Z" fill="#B8DDFF"/>
</g>
<defs>
<clipPath id="clip0_1042_2913">
<rect width="669.933" height="455" fill="white"/>
</clipPath>
</defs>
</svg>
