<svg width="40" height="40" viewBox="0 0 40 40" fill="none" xmlns="http://www.w3.org/2000/svg">
<path d="M33.334 8.4345L28.334 3.4345L30.1015 1.667L33.334 4.8995L38.233 0L40.0005 1.7675L33.334 8.4345Z" fill="white"/>
<path d="M33.333 11.666H30.833V14.9995C30.833 17.7565 28.59 19.9995 25.833 19.9995H14.166C11.4085 19.9995 9.16602 17.7565 9.16602 14.9995V11.666H6.66602C4.83152 11.666 3.33252 13.1665 3.33252 14.9995V32.501L36.666 32.4995V14.9995C36.666 13.1665 35.1655 11.666 33.333 11.666ZM26.666 29.9995H13.333C11.4995 29.9995 9.99952 28.499 9.99952 26.666C9.99952 24.8335 11.4995 23.333 13.333 23.333H26.6665C28.4995 23.333 30 24.8335 30 26.666C29.9995 28.499 28.499 29.9995 26.666 29.9995Z" fill="white"/>
<path d="M40 38.3335L36.6665 40H3.3335L0 38.3335V35H13.3335L15 36.6665H25L26.6665 35H40V38.3335Z" fill="white"/>
<path d="M25.833 7.5H17.4995V5C17.4995 3.62 18.6195 2.5 19.9995 2.5C21.38 2.5 22.4995 3.62 22.4995 5H24.9995C24.9995 2.238 22.76 0 19.9995 0C17.2375 0 14.9995 2.238 14.9995 5V7.5H14.166C12.7905 7.5 11.666 8.625 11.666 10V15C11.666 16.375 12.7905 17.5 14.166 17.5H25.8325C27.2075 17.5 28.3325 16.375 28.3325 15V10C28.333 8.625 27.208 7.5 25.833 7.5ZM21.666 14.1665H18.3325V10.833H21.666V14.1665Z" fill="white"/>
<path d="M13.75 27.916C14.4404 27.916 15 27.3564 15 26.666C15 25.9757 14.4404 25.416 13.75 25.416C13.0596 25.416 12.5 25.9757 12.5 26.666C12.5 27.3564 13.0596 27.916 13.75 27.916Z" fill="white"/>
<path d="M17.916 27.916C18.6064 27.916 19.166 27.3564 19.166 26.666C19.166 25.9757 18.6064 25.416 17.916 25.416C17.2257 25.416 16.666 25.9757 16.666 26.666C16.666 27.3564 17.2257 27.916 17.916 27.916Z" fill="white"/>
<path d="M22.084 27.916C22.7743 27.916 23.334 27.3564 23.334 26.666C23.334 25.9757 22.7743 25.416 22.084 25.416C21.3936 25.416 20.834 25.9757 20.834 26.666C20.834 27.3564 21.3936 27.916 22.084 27.916Z" fill="white"/>
<path d="M26.25 27.916C26.9404 27.916 27.5 27.3564 27.5 26.666C27.5 25.9757 26.9404 25.416 26.25 25.416C25.5596 25.416 25 25.9757 25 26.666C25 27.3564 25.5596 27.916 26.25 27.916Z" fill="white"/>
</svg>
