<svg width="83" height="70" viewBox="0 0 83 70" fill="none" xmlns="http://www.w3.org/2000/svg">
<rect x="0.5" y="0.5" width="82" height="69" rx="5.5" fill="#1A4EE6" fill-opacity="0.1" stroke="#EFEFEF"/>
<path fill-rule="evenodd" clip-rule="evenodd" d="M32.8673 24.0392V30.1172C29.888 32.7103 28 36.5619 28 40.8617C28 48.6701 34.2262 55 41.9065 55C49.5868 55 55.813 48.6701 55.813 40.8617C55.813 36.5619 53.925 32.7103 50.9457 30.1172V24.0392C50.9457 21.2932 49.6975 18.6962 47.5533 16.9808C44.252 14.3397 39.561 14.3397 36.2597 16.9808C34.1155 18.6962 32.8673 21.2932 32.8673 24.0392ZM44.9471 20.2385C43.1694 18.8164 40.6436 18.8164 38.8659 20.2385C37.7113 21.1622 37.0392 22.5606 37.0392 24.0392V27.6136C38.5541 27.0381 40.1941 26.7235 41.9065 26.7235C43.6189 26.7235 45.2589 27.0381 46.7738 27.6136V24.0392C46.7738 22.5606 46.1017 21.1622 44.9471 20.2385ZM44.6878 38.7758C44.6878 39.7064 44.2308 40.5302 43.5289 41.0351V44.1066C43.5289 45.0026 42.8025 45.729 41.9065 45.729C41.0105 45.729 40.2841 45.0026 40.2841 44.1066V41.0351C39.5822 40.5302 39.1252 39.7064 39.1252 38.7758C39.1252 37.2397 40.3704 35.9945 41.9065 35.9945C43.4426 35.9945 44.6878 37.2397 44.6878 38.7758Z" fill="#1A4EE6"/>
</svg>
