<svg width="16" height="17" viewBox="0 0 16 17" fill="none" xmlns="http://www.w3.org/2000/svg">
<path d="M9.46615 1.93799C8.6484 1.93799 7.86414 2.26284 7.2859 2.84108C6.70766 3.41931 6.38281 4.20357 6.38281 5.02132V6.73799H4.73281C4.65015 6.73799 4.58281 6.80465 4.58281 6.88799V9.15465C4.58281 9.23732 4.64948 9.30465 4.73281 9.30465H6.38281V13.9547C6.38281 14.0373 6.44948 14.1047 6.53281 14.1047H8.79948C8.88215 14.1047 8.94948 14.038 8.94948 13.9547V9.30465H10.6141C10.6828 9.30465 10.7428 9.25799 10.7595 9.19132L11.3261 6.92465C11.3317 6.90254 11.3322 6.87944 11.3275 6.85712C11.3228 6.83479 11.3131 6.81384 11.2991 6.79584C11.285 6.77784 11.2671 6.76327 11.2466 6.75325C11.2261 6.74323 11.2036 6.73801 11.1808 6.73799H8.94948V5.02132C8.94948 4.95347 8.96284 4.88629 8.98881 4.8236C9.01477 4.76092 9.05283 4.70396 9.10081 4.65598C9.14879 4.60801 9.20574 4.56995 9.26843 4.54398C9.33111 4.51802 9.3983 4.50465 9.46615 4.50465H11.1995C11.2821 4.50465 11.3495 4.43799 11.3495 4.35465V2.08799C11.3495 2.00532 11.2828 1.93799 11.1995 1.93799H9.46615Z" fill="white"/>
</svg>
