<svg width="571" height="576" viewBox="0 0 571 576" fill="none" xmlns="http://www.w3.org/2000/svg">
<g clip-path="url(#clip0_164_11035)">
<path d="M315.286 573.211C291.841 562.111 282.48 535.72 279.173 511.152C278.615 507.044 277.445 502.827 278.778 498.923C280.112 495.018 284.235 491.808 288.167 492.91C291.433 493.821 293.351 497.127 295.542 499.752C298.454 503.248 302.359 505.888 306.659 507.275C309.489 508.186 312.837 508.459 315.163 506.622C318.361 504.092 317.953 499.154 317.232 495.1C315.898 487.55 314.578 479.986 313.245 472.436C312.537 468.383 311.816 464.247 312.428 460.18C313.041 456.112 315.218 452.072 318.905 450.331C322.579 448.603 327.736 450.018 329.219 453.854C329.832 455.446 329.791 457.228 330.185 458.887C330.58 460.547 331.682 462.288 333.369 462.479C335.07 462.683 336.499 461.254 337.506 459.867C341.003 455.065 342.949 449.297 344.717 443.611C346.486 437.911 348.16 432.102 351.194 426.987C354.242 421.872 358.896 417.451 364.652 416.132C370.407 414.826 377.211 417.356 379.646 422.811C382.082 428.279 379.728 434.646 376.884 439.897C372.652 447.678 367.305 454.834 361.059 461.064C359.93 462.193 358.719 463.404 358.474 464.995C358.052 467.852 361.073 470.097 363.89 470.546C367.087 471.035 370.312 470.178 373.537 470.015C376.762 469.852 380.436 470.668 382.136 473.457C384.504 477.32 381.769 482.258 378.83 485.686C372.965 492.542 365.917 498.365 358.107 502.827C355.304 504.418 352.324 505.915 350.269 508.418C348.214 510.921 347.384 514.811 349.317 517.423C351.262 520.035 355.14 520.321 358.175 519.219C361.209 518.117 363.713 515.941 366.502 514.308C371.727 511.261 378.993 510.431 383.375 514.635C386.259 517.41 387.212 521.776 386.668 525.762C386.123 529.734 384.259 533.394 382.218 536.836C375.047 548.834 365.033 559.213 352.854 565.879C340.676 572.558 328.893 575.796 315.245 573.266" fill="#F5F5F5"/>
<path d="M319 556.833C320.51 543.896 323.341 529.843 326.81 515.247C327.695 511.601 328.566 507.996 329.423 504.446C330.294 500.909 331.137 497.399 332.199 494.012C334.267 487.237 336.784 480.871 339.342 474.912C341.914 468.954 344.567 463.39 347.085 458.194C349.616 453.011 352.065 448.222 354.487 443.964C359.304 435.408 363.998 428.987 367.386 424.702C369.087 422.552 370.448 420.934 371.4 419.845C371.849 419.328 372.217 418.92 372.475 418.621C372.72 418.349 372.856 418.213 372.856 418.227C372.856 418.227 372.761 418.39 372.53 418.675C372.271 418.988 371.931 419.41 371.509 419.954C370.611 421.07 369.278 422.729 367.617 424.892C364.297 429.218 359.685 435.68 354.949 444.236C352.568 448.508 350.146 453.296 347.643 458.479C345.152 463.676 342.526 469.24 339.982 475.198C337.437 481.156 334.947 487.496 332.906 494.229C331.872 497.589 331.015 501.072 330.158 504.622C329.3 508.173 328.43 511.764 327.559 515.41C324.089 529.993 321.245 544.005 319.708 556.901" fill="#E0E0E0"/>
<path d="M332.403 493.944C332.403 493.944 332.117 493.372 331.709 492.284C331.301 491.196 330.77 489.604 330.144 487.632C328.892 483.686 327.341 478.191 325.654 472.11C323.967 466.029 322.347 460.561 321.028 456.656C320.374 454.697 319.83 453.119 319.449 452.031C319.068 450.943 318.878 450.331 318.919 450.303C318.973 450.29 319.245 450.861 319.721 451.922C320.198 452.983 320.823 454.534 321.531 456.479C322.973 460.356 324.688 465.825 326.375 471.906C328.022 477.905 329.518 483.333 330.661 487.482C331.192 489.346 331.627 490.924 331.995 492.189C332.308 493.304 332.457 493.93 332.403 493.944Z" fill="#E0E0E0"/>
<path d="M382.926 475.375C382.926 475.375 382.204 475.634 380.885 475.974C379.565 476.314 377.66 476.803 375.319 477.484C370.625 478.803 364.216 480.857 357.236 483.442C350.255 486.027 344.037 488.652 339.601 490.665C337.37 491.658 335.587 492.515 334.363 493.1C333.124 493.685 332.43 493.985 332.417 493.944C332.39 493.903 333.043 493.509 334.24 492.828C335.438 492.162 337.193 491.237 339.397 490.176C343.792 488.026 349.997 485.319 356.991 482.721C363.998 480.136 370.462 478.15 375.197 476.967C377.565 476.354 379.497 475.933 380.844 475.688C382.191 475.443 382.939 475.321 382.953 475.375H382.926Z" fill="#E0E0E0"/>
<path d="M319.476 555.758C319.476 555.758 319.299 555.581 319.014 555.187C318.687 554.71 318.292 554.139 317.803 553.445C316.755 551.935 315.299 549.704 313.544 546.929C310.019 541.379 305.379 533.557 300.386 524.864C295.392 516.158 290.834 508.309 287.432 502.691C285.772 499.956 284.398 497.712 283.377 496.052C282.942 495.331 282.574 494.732 282.289 494.243C282.044 493.821 281.935 493.603 281.948 493.576C281.976 493.576 282.125 493.767 282.411 494.148C282.738 494.624 283.132 495.195 283.622 495.889C284.67 497.399 286.126 499.63 287.881 502.405C291.405 507.955 296.045 515.777 301.039 524.483C306.033 533.176 310.591 541.039 313.993 546.657C315.653 549.378 317.027 551.636 318.048 553.296C318.483 554.017 318.85 554.615 319.136 555.105C319.381 555.527 319.49 555.758 319.476 555.771V555.758Z" fill="#E0E0E0"/>
<path d="M385.035 521.695C385.035 521.695 384.831 521.858 384.395 522.089C383.878 522.362 383.252 522.702 382.49 523.11C380.735 524.021 378.354 525.259 375.469 526.769C369.55 529.857 361.413 534.224 352.432 539.067C343.452 543.909 335.261 548.195 329.274 551.174C326.28 552.657 323.844 553.84 322.144 554.615C321.354 554.969 320.715 555.268 320.184 555.5C319.735 555.69 319.49 555.785 319.477 555.758C319.477 555.731 319.681 555.595 320.116 555.35C320.633 555.078 321.259 554.738 322.021 554.33C323.776 553.418 326.158 552.18 329.042 550.67C334.961 547.582 343.098 543.216 352.092 538.373C361.073 533.53 369.251 529.245 375.251 526.266C378.245 524.783 380.68 523.599 382.381 522.824C383.17 522.47 383.81 522.171 384.341 521.94C384.79 521.749 385.035 521.654 385.048 521.681L385.035 521.695Z" fill="#E0E0E0"/>
<path d="M145.145 281.226C145.145 281.226 128.98 283.47 138.056 318.867C147.132 354.263 154.833 372.505 154.833 372.505C154.833 372.505 156.058 380.518 149.581 380.273C143.118 380.028 129.933 374.777 125.456 381.756C120.816 388.993 124.871 397.699 135.008 406.827C145.145 415.955 166.63 436.755 168.563 438.646C170.467 440.496 171.91 444.427 167.474 444.958C163.038 445.488 131.579 441.801 130.708 456.833C129.851 471.865 162.276 492.638 165.773 494.978C169.27 497.317 169.828 499.14 169.039 501.181C168.25 503.208 157.799 500.977 148.805 500.297C139.811 499.616 129.266 500.392 129.497 509.112C129.728 517.832 146.751 539.856 196.429 556.221L219.942 562.301L237.318 545.188C272.288 506.296 276.111 478.735 271.989 471.049C267.852 463.377 258.314 467.934 250.843 472.994C243.373 478.055 235.413 485.197 233.726 483.823C232.039 482.449 231.603 480.585 233.481 476.817C235.359 473.049 253.17 438.904 244.952 426.293C236.733 413.669 211.261 432.51 207.152 434.252C203.042 435.993 202.335 431.857 203.07 429.313C203.804 426.715 212.118 397.985 216.377 385.034C220.636 372.083 219.833 362.507 212.213 358.534C204.866 354.698 196.035 365.812 190.551 369.227C185.068 372.655 182.142 365.091 182.142 365.091C182.142 365.091 179.761 345.434 170.032 310.201C160.317 274.968 144.818 281.28 144.818 281.28" fill="#EBEBEB"/>
<path d="M219.942 568.165C212.907 542.264 201.178 496.025 190.891 456.371C180.618 416.73 171.284 380.858 164.372 354.916C160.915 341.979 158.112 331.491 156.167 324.213C155.2 320.608 154.452 317.806 153.935 315.86C153.69 314.922 153.513 314.201 153.377 313.684C153.255 313.194 153.214 312.936 153.214 312.936C153.214 312.936 153.309 313.18 153.459 313.657C153.608 314.173 153.826 314.894 154.085 315.82C154.629 317.751 155.432 320.554 156.452 324.131C158.493 331.355 161.378 341.829 164.889 354.78C171.923 380.681 181.339 416.54 191.613 456.181C201.886 495.835 213.547 542.1 220.446 568.029" fill="#E0E0E0"/>
<path d="M143.607 389.85C143.607 389.85 144.179 390.108 145.159 390.679C146.138 391.251 147.513 392.121 149.213 393.21C152.602 395.4 157.214 398.529 162.235 402.093C167.175 405.616 171.638 408.799 175.067 411.234C176.618 412.323 177.924 413.248 178.972 413.982C179.897 414.622 180.4 415.002 180.373 415.043C180.346 415.084 179.788 414.798 178.822 414.227C177.856 413.656 176.468 412.785 174.781 411.67C171.406 409.452 166.848 406.255 161.827 402.691C156.861 399.209 152.37 396.053 148.941 393.645C147.39 392.557 146.084 391.645 145.023 390.911C144.097 390.258 143.607 389.877 143.635 389.836L143.607 389.85Z" fill="#E0E0E0"/>
<path d="M182.319 413.901C182.142 413.792 188.197 404.011 195.831 392.053C203.478 380.096 209.805 370.492 209.982 370.601C210.159 370.709 204.104 380.49 196.457 392.448C188.81 404.405 182.483 414.009 182.306 413.887L182.319 413.901Z" fill="#E0E0E0"/>
<path d="M195.354 475.484C195.354 475.484 195.776 475.008 196.647 474.232C197.627 473.375 198.851 472.301 200.321 471.022C203.41 468.315 207.669 464.547 212.213 460.221C216.772 455.908 220.759 451.855 223.616 448.903C224.963 447.515 226.106 446.345 227.004 445.407C227.807 444.59 228.27 444.141 228.31 444.182C228.351 444.223 227.957 444.726 227.222 445.611C226.487 446.495 225.385 447.746 223.997 449.27C221.235 452.317 217.289 456.439 212.73 460.779C208.172 465.118 203.845 468.832 200.661 471.444C199.069 472.75 197.763 473.784 196.838 474.477C195.912 475.171 195.395 475.538 195.354 475.498V475.484Z" fill="#E0E0E0"/>
<path d="M155.554 461.445C155.554 461.445 156.139 461.541 157.16 461.84C158.33 462.207 159.772 462.642 161.459 463.173C165.079 464.329 170.073 465.975 175.57 467.839C181.067 469.703 186.033 471.43 189.612 472.709C191.272 473.321 192.687 473.838 193.844 474.273C194.837 474.654 195.381 474.899 195.368 474.94C195.354 474.994 194.783 474.845 193.762 474.546C192.592 474.178 191.15 473.743 189.462 473.212C185.843 472.056 180.849 470.41 175.352 468.546C169.855 466.683 164.888 464.955 161.31 463.676C159.65 463.064 158.235 462.547 157.078 462.112C156.085 461.731 155.54 461.486 155.554 461.445Z" fill="#E0E0E0"/>
<path d="M160.153 517.273C160.153 517.273 160.901 517.409 162.208 517.79C163.65 518.226 165.501 518.797 167.732 519.477C172.386 520.933 178.795 522.987 185.87 525.313C192.946 527.626 199.327 529.775 203.94 531.353C206.144 532.128 207.968 532.768 209.383 533.271C210.662 533.734 211.369 534.019 211.342 534.074C211.315 534.128 210.594 533.938 209.288 533.557C207.845 533.122 205.995 532.55 203.763 531.87C199.11 530.414 192.701 528.36 185.625 526.034C178.563 523.722 172.168 521.572 167.555 519.994C165.351 519.219 163.528 518.579 162.112 518.076C160.833 517.614 160.126 517.328 160.153 517.273Z" fill="#E0E0E0"/>
<path d="M210.24 533.326C210.24 533.326 210.771 532.714 211.832 531.707C212.989 530.619 214.513 529.19 216.336 527.476C220.132 523.899 225.358 518.933 230.977 513.288C236.597 507.656 241.563 502.419 245.128 498.596C246.843 496.76 248.258 495.25 249.346 494.08C250.353 493.019 250.925 492.447 250.966 492.475C251.007 492.515 250.503 493.141 249.578 494.27C248.639 495.399 247.265 497.005 245.523 498.95C242.053 502.868 237.155 508.159 231.521 513.818C225.902 519.478 220.595 524.388 216.704 527.871C214.758 529.612 213.152 531 212.036 531.938C210.921 532.877 210.281 533.38 210.24 533.34V533.326Z" fill="#E0E0E0"/>
<path d="M74.9331 70.1398L61.6528 66.0043C61.6528 66.0043 58.1694 77.1456 46.5219 73.7311C40.4668 71.9626 38.5755 67.0382 38.2625 63.6237C37.8815 59.6651 39.5824 55.8017 42.5623 53.1626C45.9776 50.1562 51.9647 48.3197 60.4145 52.6865L69.7489 22.7587L56.6182 18.6641L51.1482 36.199C51.1482 36.199 31.2413 35.2195 24.9141 55.5024C18.8591 74.9146 34.8608 84.8588 42.3174 87.185C48.0187 88.967 67.8711 93.6466 74.9195 70.1398H74.9331Z" fill="#F5F5F5"/>
<path d="M58.3987 12.4392L71.7256 16.5967L75.6085 4.15611L62.2816 -0.00138841L58.3987 12.4392Z" fill="#F5F5F5"/>
<path d="M111.59 36.3348L116.91 34.9337C116.91 34.9337 115.727 30.4717 120.353 29.1658C122.748 28.4856 124.422 29.7371 125.238 30.8118C126.204 32.0633 126.435 33.7093 126 35.2193C125.496 36.947 123.877 38.8107 120.122 39.1235L123.279 51.1082L128.531 49.7207L126.68 42.7013C126.68 42.7013 133.552 38.8515 131.402 30.7302C129.347 22.9626 121.904 22.9898 118.911 23.7788C116.625 24.3773 108.991 26.9892 111.577 36.3348H111.59Z" fill="#EBEBEB"/>
<path d="M129.255 52.1862L123.913 53.5952L125.229 58.5804L130.57 57.1714L129.255 52.1862Z" fill="#EBEBEB"/>
<path d="M550.821 174.016L555.992 175.893C555.992 175.893 557.57 171.554 562.101 173.105C564.455 173.907 565.122 175.893 565.19 177.24C565.272 178.818 564.537 180.301 563.299 181.294C561.897 182.423 559.503 183.035 556.237 181.158L552.019 192.816L557.135 194.666L559.611 187.837C559.611 187.837 567.449 188.585 570.32 180.682C573.055 173.118 566.918 168.915 564.006 167.854C561.788 167.051 554.033 164.847 550.821 174.002V174.016Z" fill="#EBEBEB"/>
<path d="M556.369 197.068L551.175 195.188L549.419 200.035L554.613 201.916L556.369 197.068Z" fill="#EBEBEB"/>
<path d="M2.08175 233.232L13.0217 229.015C13.0217 229.015 9.48391 219.833 18.9679 215.983C23.8936 213.983 27.7172 216.241 29.7174 218.336C32.0441 220.758 32.9422 224.186 32.3571 227.491C31.6768 231.26 28.6832 235.613 20.8048 237.15L30.3161 261.813L41.1336 257.65L35.5683 243.203C35.5683 243.203 49.2297 233.436 42.7936 216.717C36.6297 200.72 20.8457 202.529 14.709 204.896C10.0146 206.705 -5.55172 214.01 2.09536 233.219L2.08175 233.232Z" fill="#F5F5F5"/>
<path d="M43.235 262.693L32.252 266.923L36.2045 277.18L47.1876 272.949L43.235 262.693Z" fill="#F5F5F5"/>
<path d="M555.08 274.723L547.324 277.716C547.324 277.716 549.828 284.232 543.106 286.953C539.609 288.367 536.901 286.762 535.486 285.293C533.84 283.579 533.2 281.144 533.622 278.804C534.098 276.124 536.221 273.05 541.8 271.961L535.065 254.481L527.39 257.433L531.336 267.676C531.336 267.676 521.648 274.601 526.22 286.449C530.588 297.781 541.773 296.502 546.127 294.829C549.461 293.55 560.482 288.381 555.067 274.75L555.08 274.723Z" fill="#F5F5F5"/>
<path d="M525.931 253.866L533.715 250.868L530.917 243.607L523.133 246.605L525.931 253.866Z" fill="#F5F5F5"/>
<path d="M62.4694 540.223C63.762 535.217 60.4828 530.197 56.7953 526.565C53.1214 522.933 48.7264 519.681 46.8078 514.879C43.7055 507.098 47.8692 497.031 42.5897 490.556C39.4737 486.734 33.8949 485.468 31.1327 481.387C29.6903 479.252 29.2141 476.626 28.6426 474.096C25.7443 461.241 19.3083 449.215 10.2325 439.652C9.60656 451.092 12.1238 462.696 17.4577 472.844C19.594 476.925 22.2338 480.898 22.9413 485.455C24.0979 492.842 19.9614 500.46 21.7847 507.724C23.8666 516.022 33.1873 521.586 33.6363 530.129C34.0037 537.352 27.7173 543.692 28.18 550.915C28.3841 553.989 29.8128 556.846 31.3912 559.485C36.9836 568.776 45.1886 575.17 57.6253 574.952L72.865 575.483L62.4694 540.223Z" fill="#2441CA"/>
<g opacity="0.3">
<path d="M62.4694 540.223C63.762 535.217 60.4828 530.197 56.7953 526.565C53.1214 522.933 48.7264 519.681 46.8078 514.879C43.7055 507.098 47.8692 497.031 42.5897 490.556C39.4737 486.734 33.8949 485.468 31.1327 481.387C29.6903 479.252 29.2141 476.626 28.6426 474.096C25.7443 461.241 19.3083 449.215 10.2325 439.652C9.60656 451.092 12.1238 462.696 17.4577 472.844C19.594 476.925 22.2338 480.898 22.9413 485.455C24.0979 492.842 19.9614 500.46 21.7847 507.724C23.8666 516.022 33.1873 521.586 33.6363 530.129C34.0037 537.352 27.7173 543.692 28.18 550.915C28.3841 553.989 29.8128 556.846 31.3912 559.485C36.9836 568.776 45.1886 575.17 57.6253 574.952L72.865 575.483L62.4694 540.223Z" fill="black"/>
</g>
<path d="M75.9394 575.878C75.9394 575.878 77.3953 576.218 80.1303 575.782C81.491 575.578 83.1782 575.225 85.0832 574.531C86.9745 573.837 89.138 572.858 91.1927 571.184C92.186 570.314 93.1793 569.253 93.71 567.838C94.2406 566.423 94.3359 564.872 94.4311 563.281C94.5128 561.689 94.5128 560.03 94.7849 558.356C95.0434 556.683 95.6966 555.037 96.6491 553.459C98.4452 550.303 101.425 547.324 102.391 543.039C103.439 538.822 102.691 534.264 101.983 529.68C101.275 525.109 100.595 520.13 102.337 515.369C103.97 510.608 107.317 506.309 108.977 500.936C110.637 495.508 109.861 489.672 110.215 483.918C110.378 481.034 110.936 478.136 112.202 475.457C113.44 472.763 115.141 470.219 116.474 467.376C119.182 461.635 119.658 455.133 120.393 448.766C120.76 445.556 121.114 442.305 121.482 439.04C121.849 435.748 122.135 432.469 123.169 429.3C124.108 426.103 125.468 423.015 126.816 419.873C127.469 418.295 128.176 416.703 128.584 414.948C128.884 413.152 128.965 411.466 129.074 409.711C129.251 406.215 129.102 402.678 128.666 399.168C128.258 395.658 127.618 392.162 127.237 388.639C127.21 388.435 127.197 388.217 127.169 388.027L127.088 387.319L126.462 387.632C123.196 389.265 120.407 391.7 118.257 394.556C116.08 397.386 114.488 400.583 113.222 403.848C110.678 410.391 109.766 417.247 108.473 423.79C107.222 430.334 105.575 436.768 102.214 442.21C100.541 444.917 98.5268 447.392 96.7579 450.045C94.989 452.671 93.4378 455.555 92.9752 458.724C92.0771 465.172 95.6285 470.831 94.8802 476.531C94.6216 479.361 93.4923 482.013 92.1044 484.435C90.7164 486.87 89.0972 489.128 87.546 491.4C86.0085 493.672 84.5389 495.971 83.4504 498.433C82.3482 500.881 81.7495 503.507 81.5726 506.064C81.2052 511.207 81.9264 516.077 81.559 520.675C81.246 525.286 79.6268 529.462 77.8035 533.19C75.9666 536.944 73.9119 540.332 72.1975 543.61C71.3266 545.256 70.5374 546.861 69.8843 548.467C69.2039 550.072 68.8638 551.718 68.5508 553.282C68.0474 556.438 68.1018 559.377 68.4419 561.975C69.1087 567.199 71.0545 570.953 72.7962 573.062C73.1908 573.619 73.667 574.028 74.0344 574.395C74.3882 574.776 74.7419 575.034 75.0277 575.238C75.5992 575.66 75.8985 575.85 75.8985 575.85C75.9666 575.769 74.6467 575.075 72.9458 572.939C71.2722 570.817 69.408 567.09 68.8093 561.92C68.51 559.363 68.4828 556.452 68.9998 553.35C69.3264 551.813 69.6666 550.208 70.3469 548.643C71 547.065 71.8029 545.474 72.6737 543.855C74.4018 540.604 76.47 537.216 78.3614 533.448C80.2255 529.694 81.9128 525.436 82.253 520.715C82.6476 516.022 81.94 511.125 82.3346 506.105C82.5115 503.602 83.0966 501.099 84.1715 498.732C85.2329 496.351 86.6752 494.093 88.2128 491.849C89.7504 489.591 91.3968 487.332 92.8255 484.843C94.2542 482.381 95.438 479.619 95.7374 476.613C96.4722 470.532 92.948 464.832 93.8596 458.847C94.2951 455.881 95.7782 453.12 97.5063 450.548C99.248 447.95 101.275 445.474 102.99 442.686C106.446 437.095 108.133 430.524 109.399 423.954C110.691 417.369 111.617 410.581 114.107 404.174C115.345 400.991 116.91 397.876 119.019 395.128C121.101 392.366 123.768 390.054 126.87 388.489L126.162 388.095C126.19 388.285 126.203 388.503 126.23 388.707C126.611 392.271 127.251 395.767 127.659 399.236C128.081 402.705 128.231 406.174 128.067 409.615C127.972 411.316 127.863 413.098 127.605 414.703C127.237 416.308 126.543 417.886 125.89 419.451C124.557 422.58 123.169 425.722 122.216 428.987C121.155 432.238 120.856 435.639 120.502 438.89C120.135 442.169 119.781 445.42 119.427 448.63C118.706 455.038 118.216 461.431 115.617 466.968C114.324 469.729 112.624 472.273 111.358 475.062C110.052 477.837 109.467 480.898 109.317 483.836C108.991 489.713 109.752 495.467 108.16 500.664C106.582 505.847 103.262 510.173 101.575 515.084C99.7786 520.049 100.527 525.191 101.248 529.748C101.983 534.333 102.718 538.794 101.738 542.848C100.854 546.943 97.9553 549.895 96.132 553.146C95.1795 554.751 94.4992 556.506 94.2406 558.234C93.9685 559.975 93.9821 561.635 93.9141 563.226C93.8324 564.791 93.7508 566.328 93.2609 567.647C92.7847 568.967 91.8458 570.001 90.8933 570.858C88.9067 572.504 86.7841 573.511 84.9199 574.218C83.0422 574.925 81.3821 575.32 80.035 575.538C78.6879 575.782 77.6402 575.823 76.9327 575.837C76.2251 575.81 75.8713 575.823 75.8713 575.823L75.9394 575.878Z" fill="#263238"/>
<path d="M124.081 396.42C124.081 396.42 124.013 396.57 123.931 396.882C123.836 397.25 123.727 397.699 123.591 398.256C123.291 399.454 122.938 401.263 122.353 403.535C121.754 405.793 120.366 408.35 119.196 411.493C117.971 414.608 116.719 418.226 115.576 422.294C114.42 426.361 113.386 430.864 112.311 435.693C111.195 440.523 110.093 445.692 107.439 450.576C106.188 453.051 104.786 455.554 103.67 458.289C102.527 461.023 101.901 464.029 101.48 467.036C100.745 473.076 99.6426 479.197 98.2003 485.468C95.1387 497.957 92.2404 509.846 89.5871 520.661C86.8793 531.448 84.4301 541.175 82.3618 549.364C80.3616 557.485 78.7288 564.083 77.5722 568.736C77.0415 570.967 76.6197 572.735 76.3204 574.014C76.1979 574.572 76.1027 575.02 76.021 575.388C75.953 575.701 75.9394 575.864 75.953 575.864C75.9666 575.864 76.021 575.714 76.1163 575.415C76.2251 575.048 76.3476 574.612 76.5109 574.055C76.8646 572.789 77.3409 571.035 77.9396 568.817C79.1642 564.178 80.8923 557.608 83.0286 549.514C85.1513 541.338 87.6685 531.625 90.4579 520.865C93.1385 510.036 96.064 498.147 99.1528 485.659C100.595 479.401 101.711 473.157 102.432 467.158C102.854 464.179 103.439 461.281 104.541 458.629C105.616 455.963 107.004 453.473 108.256 450.97C110.936 446.005 112.052 440.672 113.113 435.87C114.161 431.027 115.141 426.524 116.257 422.471C117.359 418.417 118.543 414.798 119.726 411.683C120.842 408.541 122.189 405.97 122.747 403.63C123.278 401.317 123.564 399.522 123.808 398.297C123.904 397.739 123.985 397.277 124.053 396.91C124.108 396.597 124.121 396.434 124.108 396.434L124.081 396.42Z" fill="#263238"/>
<path d="M78.634 575.918C88.5806 570.001 91.4381 552.058 87.288 541.243C83.1379 530.428 75.8718 520.566 74.756 509.043C73.8988 500.188 76.797 491.1 74.7288 482.448C71.9394 470.763 60.5368 461.717 60.6729 449.718C60.7409 442.985 64.578 436.645 64.2787 429.912C63.8977 421.654 57.5705 415.111 53.6381 407.833C47.6238 396.706 47.2292 383.537 45.1746 371.063C43.12 358.588 38.3575 345.216 27.2951 339.081C25.6623 349.678 22.8729 356.929 23.7437 371.294C24.0567 376.45 30.0437 386.312 30.8601 397.617C31.35 404.364 31.6902 411.139 32.0984 417.886C32.5066 424.457 32.9284 431.163 35.2824 437.312C37.0921 442.032 39.9904 446.304 41.3375 451.174C43.8547 460.329 40.5483 470.246 42.5893 479.524C44.3174 487.387 49.7601 494.148 50.8759 502.119C52.4407 513.315 45.1882 524.959 48.9029 535.638C50.7398 540.944 55.1076 545.201 56.3459 550.67C57.312 554.914 56.2642 559.417 57.1351 563.675C58.5366 570.545 71.6536 575.891 78.6476 575.456" fill="#2441CA"/>
<path d="M30.0438 349.597C30.0438 349.597 30.0438 349.801 30.0846 350.195C30.1391 350.644 30.2207 351.215 30.3023 351.936C30.5337 353.46 30.7922 355.718 31.3093 358.616C31.8671 361.541 33.3775 364.833 34.5749 368.791C35.8404 372.75 37.1058 377.307 38.2216 382.422C39.3509 387.523 40.3034 393.182 41.3103 399.263C42.3445 405.303 43.3922 411.969 46.4129 418.294C47.8144 421.478 49.3792 424.661 50.5494 428.048C51.7604 431.422 52.3047 435.068 52.6449 438.795C53.1619 446.304 54.1552 454.112 55.5704 461.975C58.6183 477.674 61.5166 492.624 64.1699 506.241C66.9593 519.804 69.463 532.02 71.5721 542.304C73.7084 552.507 75.4364 560.791 76.6474 566.6C77.2598 569.416 77.736 571.62 78.0762 573.198C78.2394 573.905 78.3755 574.476 78.4708 574.912C78.566 575.293 78.6204 575.497 78.6341 575.483C78.6477 575.483 78.6341 575.279 78.566 574.884C78.4844 574.449 78.3891 573.878 78.2667 573.157C77.9673 571.579 77.5455 569.361 77.0148 566.532C75.8719 560.723 74.2526 552.411 72.2388 542.182C70.1842 531.884 67.7485 519.654 65.0408 506.078C62.4282 492.474 59.5436 477.524 56.5228 461.826C55.1213 453.949 54.128 446.263 53.5974 438.727C53.2436 434.972 52.6721 431.218 51.4203 427.762C50.2092 424.294 48.6172 421.097 47.2293 417.954C44.2358 411.71 43.1745 405.208 42.0995 399.141C41.0654 393.074 40.0721 387.401 38.8883 382.286C37.7181 377.171 36.4118 372.6 35.0784 368.642C33.8129 364.656 32.2617 361.405 31.663 358.548C31.0915 355.691 30.7786 353.419 30.4792 351.909C30.3432 351.188 30.2343 350.631 30.1527 350.182C30.071 349.787 30.0302 349.597 30.0166 349.597H30.0438Z" fill="#263238"/>
<path d="M509.919 65.4194H504.503C504.503 65.4194 504.503 69.9629 499.782 70.0446C497.332 70.0854 496.053 68.4802 495.536 67.2422C494.938 65.8139 495.114 64.1814 495.917 62.8619C496.843 61.3519 498.843 59.9644 502.503 60.6173V48.4014H497.142V55.5568C497.142 55.5568 489.631 57.5021 489.631 65.773C489.631 74.044 496.734 75.5268 499.768 75.5268C502.095 75.5268 510.014 74.969 509.905 65.4058L509.919 65.4194Z" fill="#2441CA"/>
<path d="M497.074 45.8984H502.503V40.8243H497.074V45.8984Z" fill="#2441CA"/>
<path d="M539.581 58.1687C539.581 58.1687 539.595 57.9374 539.581 57.4885C539.568 56.9852 539.554 56.3186 539.527 55.4752C539.5 55.0263 539.513 54.5365 539.459 53.9924C539.377 53.4483 539.296 52.8497 539.214 52.2103C539.119 51.571 539.024 50.8772 538.915 50.1426C538.738 49.4216 538.547 48.6462 538.343 47.83C537.5 44.5788 536.071 40.6338 533.445 36.6071C530.859 32.5805 527.158 28.3906 522.137 25.0033C517.103 21.6705 510.776 19.0994 503.659 18.4192C501.877 18.3512 500.067 18.1335 498.23 18.3104C497.318 18.3784 496.38 18.3512 495.454 18.4872C494.529 18.6233 493.59 18.7729 492.651 18.9089C488.937 19.6707 485.14 20.7726 481.602 22.6771C478.051 24.5408 474.677 26.9486 471.669 29.887C468.73 32.8798 466.172 36.3895 464.199 40.2801C462.213 44.1707 460.838 48.4694 460.308 52.9449C460.09 54.0604 460.09 55.1895 460.022 56.3186C459.954 57.4477 459.899 58.5904 459.954 59.7331C460.049 62.0185 460.335 64.3175 460.825 66.5757C461.872 71.5001 463.873 76.1253 466.553 80.1928L466.512 79.7847C464.621 84.5051 462.757 89.1439 460.947 93.6602L460.621 94.4765L461.478 94.2452C466.567 92.844 471.52 91.4837 476.323 90.1641L475.956 90.0961C481.126 93.9867 487.045 96.4762 492.91 97.4964C495.835 98.0134 498.774 98.231 501.591 98.0406C503.006 97.9862 504.408 97.9182 505.768 97.6461C506.449 97.5373 507.129 97.442 507.796 97.3332C508.462 97.2108 509.116 97.0067 509.755 96.8435C520.205 94.1636 527.92 87.7291 532.329 81.3627C534.574 78.1795 536.18 75.0234 537.187 72.1531C537.445 71.4321 537.69 70.7383 537.935 70.0718C538.112 69.3916 538.275 68.725 538.438 68.0993C538.588 67.4735 538.738 66.8749 538.888 66.29C538.996 65.705 539.064 65.1473 539.132 64.6304C539.269 63.5829 539.445 62.6578 539.486 61.8552C539.513 61.0662 539.541 60.3861 539.554 59.8147C539.554 59.2978 539.568 58.8897 539.581 58.5632C539.581 58.2775 539.581 58.1415 539.568 58.1415C539.554 58.1415 539.541 58.2775 539.513 58.5632C539.486 58.8761 539.459 59.2842 539.418 59.8011C539.377 60.3588 539.337 61.039 539.282 61.828C539.214 62.6306 539.024 63.5421 538.86 64.5759C538.112 68.657 536.479 74.7786 531.907 81.0362C527.485 87.2802 519.851 93.5514 509.578 96.1225C508.939 96.2721 508.299 96.4762 507.646 96.585C506.979 96.6802 506.326 96.7891 505.646 96.8843C504.312 97.1428 502.938 97.1972 501.55 97.2516C498.774 97.4284 495.903 97.2108 493.032 96.6938C487.29 95.66 481.507 93.2113 476.445 89.3887L476.282 89.2663L476.078 89.3207C471.288 90.6267 466.322 91.9734 461.233 93.3746L461.75 93.9595C463.573 89.4432 465.437 84.8044 467.342 80.0839L467.424 79.8663L467.288 79.6758C464.675 75.69 462.716 71.16 461.682 66.358C461.206 64.1406 460.934 61.9096 460.838 59.6651C460.784 58.5496 460.838 57.4341 460.893 56.3186C460.961 55.2167 460.961 54.1012 461.165 53.013C461.682 48.6326 463.015 44.4291 464.961 40.6202C466.88 36.8112 469.37 33.3831 472.255 30.4311C475.194 27.5472 478.486 25.1802 481.956 23.3437C485.412 21.4664 489.141 20.3645 492.774 19.6163C493.699 19.4803 494.611 19.3307 495.509 19.1946C496.42 19.0586 497.332 19.0722 498.23 19.0042C500.04 18.8273 501.809 19.0314 503.564 19.0858C510.544 19.7252 516.776 22.2146 521.756 25.4522C526.723 28.7579 530.41 32.8525 532.996 36.8112C535.635 40.7698 537.091 44.6468 537.976 47.8572C538.194 48.6598 538.398 49.4216 538.588 50.1426C538.711 50.8772 538.819 51.5574 538.928 52.1967C539.037 52.8361 539.132 53.4211 539.214 53.9516C539.268 54.4957 539.282 54.9855 539.323 55.4208C539.391 56.2642 539.432 56.9308 539.473 57.4205C539.513 57.8694 539.541 58.1007 539.554 58.1007L539.581 58.1687Z" fill="#263238"/>
<path d="M133.81 218.609H212.39C212.39 218.609 212.39 152.645 280.955 151.462C316.565 150.849 335.029 174.166 342.527 192.041C351.235 212.786 348.595 236.429 336.934 255.678C323.599 277.648 294.902 299.726 241.944 290.394L241.441 465.431H319.15V361.663C319.15 361.663 428.128 333.504 428.128 213.426C428.128 93.3474 335.206 73.7176 285.269 72.126C257.483 71.2417 247.401 70.0446 213.03 74.9283C169.229 81.1451 132.885 131.995 133.81 218.609Z" fill="#2441CA"/>
<path d="M320.088 501.915H241.223V575.551H320.088V501.915Z" fill="#2441CA"/>
<path opacity="0.1" d="M320.088 501.915H241.223V575.551H320.088V501.915Z" fill="black"/>
<path opacity="0.1" d="M133.81 218.609H212.39C212.39 218.609 212.39 152.645 280.955 151.462C316.565 150.849 335.029 174.166 342.527 192.041C351.235 212.786 348.595 236.429 336.934 255.678C323.599 277.648 294.902 299.726 241.944 290.394L241.441 465.431H319.15V361.663C319.15 361.663 428.128 333.504 428.128 213.426C428.128 93.3474 335.206 73.7176 285.269 72.126C257.483 71.2417 247.401 70.0446 213.03 74.9283C169.229 81.1451 132.885 131.995 133.81 218.609Z" fill="black"/>
<path d="M101.262 218.609H179.842C179.842 218.609 179.842 152.645 248.407 151.462C284.017 150.85 302.481 174.166 309.979 192.041C318.687 212.786 316.047 236.429 304.386 255.678C291.051 277.648 261.851 297.618 208.893 288.286V465.431H286.602V361.663C286.602 361.663 395.58 333.504 395.58 213.426C395.58 93.3476 292.535 71.854 248.421 71.854C214.689 71.854 99.7791 80.0025 101.262 218.609Z" fill="#2441CA"/>
<path opacity="0.3" d="M101.262 218.609H179.842C179.842 218.609 179.842 152.645 248.407 151.462C284.017 150.85 302.481 174.166 309.979 192.041C318.687 212.786 316.047 236.429 304.386 255.678C291.051 277.648 261.851 297.618 208.893 288.286V465.431H286.602V361.663C286.602 361.663 395.58 333.504 395.58 213.426C395.58 93.3476 292.535 71.854 248.421 71.854C214.689 71.854 99.7791 80.0025 101.262 218.609Z" fill="black"/>
<path d="M287.54 501.916H208.675V575.551H287.54V501.916Z" fill="#2441CA"/>
<path opacity="0.3" d="M287.54 501.916H208.675V575.551H287.54V501.916Z" fill="black"/>
<path d="M257.279 151.829C257.279 151.829 256.871 151.829 256.109 151.761C255.334 151.72 254.218 151.503 252.762 151.489C249.85 151.298 245.618 151.367 240.434 152.006C235.263 152.659 229.154 153.938 222.65 156.182C219.411 157.352 216.05 158.685 212.744 160.44C209.41 162.127 206.104 164.195 203.056 166.711C199.981 169.201 197.382 172.112 195.123 175.091C192.851 178.07 190.878 181.104 189.177 184.097C185.83 190.123 183.557 195.932 182.142 200.951C180.7 205.957 180.06 210.147 179.774 213.045C179.611 214.5 179.557 215.63 179.53 216.391C179.489 217.153 179.448 217.561 179.421 217.561C179.393 217.561 179.38 217.153 179.38 216.391C179.38 215.616 179.38 214.487 179.502 213.018C179.706 210.093 180.264 205.862 181.652 200.802C183.013 195.741 185.258 189.864 188.605 183.77C190.306 180.75 192.279 177.676 194.565 174.656C196.838 171.649 199.464 168.684 202.593 166.154C205.696 163.596 209.043 161.515 212.417 159.814C215.765 158.046 219.166 156.713 222.432 155.556C229.004 153.312 235.168 152.074 240.38 151.489C245.591 150.918 249.864 150.918 252.776 151.203C254.245 151.258 255.361 151.53 256.123 151.611C256.885 151.734 257.279 151.802 257.279 151.829Z" fill="#263238"/>
<path d="M375.686 137.804C375.686 137.804 375.591 137.709 375.427 137.491C375.25 137.246 375.019 136.933 374.733 136.539C374.107 135.654 373.25 134.43 372.148 132.866C371.577 132.077 370.991 131.165 370.27 130.227C369.508 129.315 368.692 128.322 367.821 127.247C366.937 126.173 365.998 125.03 365.004 123.819C363.984 122.636 362.786 121.48 361.603 120.201C360.378 118.963 359.167 117.589 357.793 116.283C356.378 115.004 354.922 113.685 353.398 112.311C352.636 111.631 351.887 110.91 351.071 110.229C350.241 109.576 349.397 108.91 348.54 108.23C346.812 106.897 345.098 105.455 343.233 104.108C335.777 98.7073 327.055 93.5107 317.489 88.8991C315.067 87.8109 312.672 86.7226 310.318 85.6615C307.91 84.7229 305.529 83.7978 303.188 82.9C300.875 81.9341 298.507 81.254 296.222 80.5058C293.922 79.7984 291.704 78.9686 289.459 78.438C287.227 77.8531 285.064 77.2817 282.955 76.724C280.846 76.1662 278.75 75.8398 276.75 75.4045C274.736 75.0236 272.818 74.5338 270.926 74.289C269.049 74.0169 267.239 73.7584 265.511 73.5C262.068 72.915 258.911 72.7926 256.163 72.5205C254.789 72.4117 253.496 72.262 252.312 72.2076C251.128 72.1804 250.053 72.1532 249.074 72.126C247.169 72.058 245.658 72.0172 244.583 71.9764C244.107 71.9492 243.712 71.9356 243.413 71.9219C243.155 71.9083 243.019 71.8947 243.019 71.8811C243.019 71.8811 243.155 71.8539 243.413 71.8539C243.712 71.8539 244.107 71.8539 244.583 71.8403C245.658 71.8403 247.169 71.8403 249.074 71.8403C250.053 71.8403 251.142 71.8539 252.326 71.8675C253.509 71.9084 254.802 72.0308 256.176 72.126C258.939 72.3709 262.109 72.4525 265.565 73.0102C267.293 73.2415 269.117 73.4864 270.994 73.7448C272.886 73.9625 274.818 74.4522 276.845 74.8195C278.859 75.2412 280.955 75.5677 283.077 76.1118C285.2 76.656 287.377 77.2273 289.622 77.7987C291.881 78.3156 294.099 79.1318 296.412 79.8528C298.712 80.601 301.093 81.2812 303.42 82.247C305.76 83.1585 308.155 84.0699 310.577 85.0085C312.944 86.0832 315.353 87.1579 317.775 88.2598C327.381 92.885 336.131 98.1223 343.601 103.577C345.479 104.924 347.193 106.393 348.921 107.74C349.778 108.42 350.622 109.1 351.452 109.753C352.268 110.433 353.017 111.168 353.779 111.848C355.289 113.236 356.759 114.583 358.16 115.861C359.534 117.181 360.745 118.568 361.956 119.82C363.14 121.099 364.324 122.282 365.345 123.479C366.324 124.704 367.263 125.86 368.12 126.948C368.991 128.036 369.794 129.043 370.529 129.968C371.223 130.934 371.808 131.845 372.352 132.662C373.413 134.253 374.243 135.518 374.829 136.416C375.087 136.824 375.291 137.151 375.454 137.396C375.591 137.613 375.659 137.736 375.645 137.749L375.686 137.804Z" fill="#263238"/>
<path d="M367.495 306.474C367.495 306.474 367.305 306.773 366.896 307.29C366.434 307.861 365.835 308.609 365.087 309.548C364.297 310.527 363.318 311.711 362.12 313.031C360.923 314.364 359.617 315.914 358.025 317.506C356.473 319.139 354.773 320.907 352.84 322.716C350.963 324.58 348.84 326.444 346.622 328.43C342.118 332.307 336.988 336.374 331.355 340.292C325.695 344.169 320.061 347.515 314.836 350.345C312.197 351.705 309.693 353.038 307.284 354.127C304.903 355.283 302.644 356.249 300.563 357.12C298.508 358.031 296.589 358.711 294.929 359.351C293.269 360.003 291.813 360.493 290.616 360.888C289.473 361.255 288.561 361.554 287.867 361.786C287.241 361.976 286.901 362.071 286.888 362.044C286.888 362.017 287.201 361.881 287.813 361.65C288.493 361.391 289.391 361.051 290.521 360.629C291.705 360.208 293.133 359.677 294.78 358.983C296.426 358.303 298.331 357.596 300.359 356.657C302.413 355.759 304.658 354.78 307.012 353.596C309.407 352.494 311.884 351.148 314.51 349.774C319.708 346.93 325.286 343.57 330.933 339.707C336.553 335.816 341.669 331.776 346.173 327.94C348.391 325.981 350.527 324.145 352.405 322.295C354.337 320.512 356.065 318.758 357.63 317.166C359.236 315.602 360.569 314.078 361.78 312.772C363.005 311.48 364.012 310.323 364.828 309.371C365.617 308.473 366.257 307.752 366.747 307.208C367.196 306.719 367.427 306.474 367.454 306.487L367.495 306.474Z" fill="#263238"/>
<path d="M285.228 459.255C285.037 459.255 284.874 437.407 284.874 410.459C284.874 383.51 285.037 361.649 285.228 361.649C285.418 361.649 285.582 383.497 285.582 410.459C285.582 437.421 285.418 459.255 285.228 459.255Z" fill="#263238"/>
<path d="M288.221 570.559C288.03 570.559 287.867 555.227 287.867 536.319C287.867 517.41 288.03 502.065 288.221 502.065C288.411 502.065 288.575 517.396 288.575 536.319C288.575 555.241 288.411 570.559 288.221 570.559Z" fill="#263238"/>
<path d="M365.578 208.175C364.203 210.909 369.292 213.126 372.218 214.011C375.157 214.895 378.286 214.8 381.334 214.636C385.389 214.419 389.594 214.038 393.118 212.025C396.247 210.229 398.588 207.277 400.221 204.066C401.853 200.856 402.847 197.346 403.826 193.877C403.826 193.877 371.673 195.986 365.564 208.175H365.578Z" fill="#2441CA"/>
<g opacity="0.4">
<path d="M365.578 208.175C364.203 210.909 369.292 213.126 372.218 214.011C375.157 214.895 378.286 214.8 381.334 214.636C385.389 214.419 389.594 214.038 393.118 212.025C396.247 210.229 398.588 207.277 400.221 204.066C401.853 200.856 402.847 197.346 403.826 193.877C403.826 193.877 371.673 195.986 365.564 208.175H365.578Z" fill="black"/>
</g>
<path d="M456.388 199.455C461.627 203.196 468.09 205.223 474.54 205.155C477.629 205.114 480.908 204.515 483.18 202.434C484.228 201.482 485.017 200.244 486.092 199.332C486.827 198.707 487.684 198.23 488.378 197.55C489.072 196.87 489.589 195.904 489.385 194.966C489.168 194 488.365 192.449 487.507 191.959C483.82 189.864 479.411 189.946 475.166 190.041C470.921 190.136 466.743 191.129 462.716 192.476C459.423 193.578 455.98 195.142 454.307 198.19" fill="#2441CA"/>
<g opacity="0.4">
<path d="M489.373 194.979C489.155 194.013 487.821 192.735 486.964 192.245C483.277 190.15 479.399 189.96 475.153 190.055C470.908 190.15 466.731 191.143 462.703 192.49C459.41 193.592 455.968 195.156 454.294 198.203L456.389 199.455C461.628 203.196 468.091 205.223 474.541 205.155C477.63 205.114 480.895 204.515 483.181 202.434C484.229 201.482 485.018 200.244 486.093 199.332C486.828 198.707 487.685 198.231 488.379 197.55C489.073 196.87 489.59 195.904 489.386 194.966L489.373 194.979Z" fill="black"/>
</g>
<path d="M393.635 248.292L461.465 249.176C462.064 249.176 462.485 248.604 462.309 248.033L454.349 223.22C454.349 223.22 455.519 210.827 457.138 195.904C459.601 173.268 462.866 144.796 462.907 144.864C458.281 131.859 430.904 129.655 430.904 129.655L399.703 131.505L398.601 129.669L389.62 133.845C387.661 134.757 385.783 135.818 383.987 137.015C378.068 140.987 363.767 150.074 361.155 160.222C355.127 183.675 365.332 209.862 365.332 209.862L371.877 204.747C373.592 203.454 375.211 202.325 377.075 201.278L390.219 236.497C390.219 236.497 387.484 238.157 387.362 241.014C387.253 243.87 388.777 247.312 393.607 248.278" fill="#2441CA"/>
<g opacity="0.3">
<path d="M422.712 206.774C424.862 195.211 423.733 183.321 422.576 171.622C418.807 181.199 418.943 191.987 414.956 201.468C414.521 202.488 414.045 203.509 413.895 204.611C413.745 205.712 413.977 206.923 414.807 207.671C415.895 208.664 417.501 208.134 418.957 207.957C420.494 207.767 421.311 207.25 422.699 206.774" fill="black"/>
</g>
<g opacity="0.4">
<path d="M397.73 233.532C403.2 235.436 408.969 231.913 414.725 231.287C418.535 230.879 422.345 231.749 426.128 232.362C433.761 233.6 441.572 233.79 449.259 232.933C450.43 232.797 451.641 232.634 452.661 232.049C453.682 231.464 454.512 229.845 454.444 228.675C441.64 227.356 428.822 226.58 416.018 225.261C412.807 224.934 409.486 224.608 406.411 225.56C402.533 226.757 399.553 229.804 396.832 232.797" fill="black"/>
</g>
<path d="M487.427 190.49C481.876 178.029 462.363 143.531 462.363 143.531L447.246 162.48L450.77 199.686C450.77 199.686 458.758 190.776 481.086 190.599C486.284 190.558 489.4 194.979 489.4 194.979L487.441 190.504L487.427 190.49Z" fill="#2441CA"/>
<path d="M396.642 183.906C396.451 183.961 395.308 180.315 394.097 175.771C392.873 171.228 392.043 167.5 392.233 167.446C392.424 167.391 393.567 171.037 394.778 175.581C396.002 180.124 396.832 183.852 396.642 183.906Z" fill="#263238"/>
<path d="M446.089 159.964C446.089 159.964 446.62 160.358 447.49 161.147C448.334 161.964 449.545 163.188 450.865 164.848C453.505 168.112 456.729 173.227 458.09 179.621C458.771 182.804 458.879 185.933 458.526 188.735C458.172 191.524 457.641 193.959 457.301 196.04C456.947 198.108 456.729 199.795 456.621 200.965C456.512 202.135 456.485 202.788 456.43 202.788C456.389 202.788 456.321 202.135 456.348 200.951C456.376 199.768 456.512 198.054 456.811 195.972C457.097 193.877 457.573 191.415 457.886 188.667C458.199 185.933 458.063 182.886 457.41 179.784C456.09 173.54 453.001 168.48 450.484 165.174C447.967 161.828 446.007 160.073 446.116 159.977L446.089 159.964Z" fill="#263238"/>
<path d="M432.237 245.326C432.237 245.326 431.72 245.53 430.754 245.761C430.278 245.884 429.679 246.02 428.985 246.101C428.291 246.197 427.502 246.346 426.604 246.387C424.835 246.564 422.712 246.55 420.372 246.346C418.031 246.101 415.487 245.639 412.888 244.85C410.303 244.034 407.935 242.973 405.867 241.843C403.826 240.687 402.07 239.49 400.71 238.347C400.002 237.817 399.431 237.245 398.914 236.769C398.383 236.307 397.975 235.858 397.648 235.477C396.981 234.742 396.641 234.321 396.669 234.294C396.764 234.198 398.233 235.831 401.009 237.953C402.383 239.028 404.139 240.157 406.166 241.272C408.207 242.347 410.548 243.367 413.078 244.17C415.623 244.945 418.127 245.421 420.426 245.693C422.726 245.925 424.808 245.979 426.563 245.884C430.06 245.707 432.183 245.19 432.223 245.326H432.237Z" fill="#263238"/>
<path d="M453.178 237.572C453.26 237.559 453.532 238.293 453.695 239.558C453.858 240.81 453.885 242.619 453.328 244.51C452.783 246.414 451.654 247.911 450.661 248.727C449.667 249.557 448.905 249.815 448.864 249.747C448.81 249.652 449.463 249.23 450.32 248.36C451.164 247.503 452.144 246.088 452.647 244.306C453.681 240.715 452.906 237.586 453.164 237.559L453.178 237.572Z" fill="#263238"/>
<path d="M449.49 242.36C449.667 242.32 450.021 244.306 449.15 246.55C448.293 248.795 446.687 250.019 446.579 249.87C446.429 249.72 447.694 248.373 448.484 246.292C449.3 244.224 449.273 242.374 449.49 242.36Z" fill="#263238"/>
<path d="M437.354 197.591C437.503 197.741 436.238 199.156 434.932 201.074C433.612 202.978 432.741 204.665 432.55 204.584C432.373 204.515 432.986 202.652 434.346 200.679C435.693 198.693 437.231 197.455 437.354 197.605V197.591Z" fill="#263238"/>
<path d="M390.79 164.657C390.709 164.739 389.634 163.882 387.783 162.671C385.933 161.461 383.252 159.964 380.082 158.767C376.911 157.597 373.904 156.971 371.713 156.672C369.523 156.373 368.135 156.318 368.135 156.21C368.135 156.128 369.523 156.006 371.768 156.182C374.013 156.359 377.102 156.917 380.327 158.114C383.551 159.325 386.259 160.93 388.055 162.263C389.865 163.596 390.831 164.603 390.777 164.671L390.79 164.657Z" fill="#263238"/>
<path d="M462.363 143.068C462.499 143.259 458.825 145.489 455.492 149.503C452.117 153.475 450.525 157.474 450.321 157.379C450.239 157.352 450.525 156.318 451.274 154.74C452.008 153.175 453.247 151.094 454.947 149.054C456.662 147.027 458.499 145.449 459.928 144.456C461.356 143.463 462.322 143 462.363 143.068Z" fill="#263238"/>
<path d="M434.347 131.859C434.347 131.859 434.469 132.063 434.646 132.485C434.85 132.907 435.054 133.546 435.286 134.39C435.721 136.076 435.952 138.675 435.259 141.763C434.551 144.81 432.85 148.347 429.707 151.136C426.591 153.938 421.992 155.611 417.189 155.597C412.372 155.57 407.841 153.911 404.548 151.38C401.214 148.864 398.996 145.735 397.595 142.946C396.207 140.13 395.567 137.654 395.281 135.94C395.145 135.083 395.05 134.403 395.037 133.954C395.009 133.492 394.996 133.261 395.037 133.261C395.105 133.261 395.186 134.213 395.567 135.9C395.935 137.586 396.642 139.994 398.057 142.729C399.5 145.422 401.69 148.456 404.956 150.863C408.167 153.299 412.549 154.863 417.216 154.904C421.869 154.917 426.292 153.326 429.299 150.659C432.347 148.007 434.047 144.606 434.796 141.654C435.531 138.675 435.381 136.144 435.041 134.458C434.701 132.771 434.292 131.9 434.374 131.859H434.347Z" fill="#263238"/>
<g opacity="0.3">
<path d="M439.108 200.013C439.081 199.332 439 198.53 438.414 198.19C438.047 197.972 437.571 198.027 437.176 198.217C436.795 198.407 436.482 198.72 436.197 199.033C434.55 200.815 433.393 202.557 432.563 204.842L439.231 204.271C439.19 202.869 439.163 201.427 439.108 200.026V200.013Z" fill="black"/>
</g>
<g opacity="0.3">
<path d="M461.247 185.987C460.73 182.178 458.785 178.682 456.417 175.648C459.288 185.062 458.322 190.381 456.716 196.816L457.07 195.918C458.921 192.15 461.778 189.796 461.261 185.974L461.247 185.987Z" fill="black"/>
</g>
<path d="M447.926 502.215L443.857 563.227L417.324 562.914L413.146 499.48L447.926 502.215Z" fill="#FFBE9D"/>
<path d="M444.605 555.2V556.969C444.605 556.969 474.526 569.008 474.839 574.681L415.432 574.327L416.357 554.575C425.161 558.71 434.4 559.227 444.605 555.2Z" fill="#2441CA"/>
<path d="M422.331 560.914C421.175 561.227 420.372 562.505 420.644 563.675C420.903 564.845 422.209 565.661 423.365 565.376C424.522 565.09 425.529 563.566 425.148 562.451C424.753 561.322 423.175 560.438 422.127 560.995" fill="white"/>
<path d="M415.433 574.327L415.65 569.58L472.5 571.647C472.5 571.647 475.14 572.817 474.827 574.667L415.419 574.314L415.433 574.327Z" fill="#263238"/>
<path d="M444.823 557.132C444.823 557.418 443.367 557.54 441.925 558.465C440.469 559.35 439.721 560.601 439.462 560.492C439.19 560.438 439.639 558.697 441.394 557.608C443.136 556.506 444.891 556.86 444.823 557.132Z" fill="#263238"/>
<path d="M451.042 559.744C451.11 560.03 449.845 560.506 448.851 561.73C447.817 562.927 447.572 564.247 447.273 564.233C447.001 564.274 446.81 562.574 448.076 561.077C449.328 559.567 451.028 559.458 451.042 559.73V559.744Z" fill="#263238"/>
<path d="M454.539 567.212C454.28 567.267 453.886 565.825 454.634 564.233C455.383 562.641 456.743 562.029 456.866 562.261C457.029 562.505 456.145 563.349 455.546 564.655C454.92 565.947 454.825 567.171 454.539 567.199V567.212Z" fill="#263238"/>
<path d="M443.082 56.0059C444.606 52.1969 442.755 47.5717 439.448 45.1367C436.142 42.7016 431.72 42.1711 427.665 42.8241C423.61 43.4634 419.8 45.1639 416.045 46.8371C412.643 43.4226 407.255 42.1167 402.669 43.6131C398.083 45.1095 394.505 49.3266 393.77 54.1014C390.845 53.3532 387.552 54.3599 385.524 56.5908C383.497 58.8354 382.844 62.2091 383.892 65.0386L402.288 71.5003L422.372 106.829C428.25 111.835 437.843 111.699 443.571 106.529C449.3 101.36 450.402 91.8103 446.007 85.4711C447.136 84.478 448.075 83.2809 448.824 81.9886C452.008 80.0161 454.498 76.9553 455.328 73.2823C457.069 65.5147 450.987 56.9309 443.082 55.9923V56.0059Z" fill="#263238"/>
<path d="M430.903 129.656C429.76 123.901 428.971 119.97 428.971 120.011C428.971 120.011 439.816 115.794 439.068 100.639C438.7 93.1029 435.816 81.2406 433.162 71.5957C430.767 62.9167 422.671 53.3534 414.099 56.1149L388.191 68.7662C385.592 69.6096 385.13 72.0446 385.742 74.7109L385.783 76.0169L395.866 117.725L400.125 136.362C402.016 144.293 409.636 149.476 417.705 148.306C426.631 147.014 432.659 138.498 430.89 129.656H430.903Z" fill="#FFBE9D"/>
<path d="M432.998 81.676C433.243 82.6554 432.604 83.6757 431.583 83.9477C430.563 84.2198 429.529 83.6485 429.284 82.6554C429.039 81.676 429.678 80.6557 430.699 80.3836C431.719 80.1116 432.754 80.6829 432.998 81.676Z" fill="#263238"/>
<path d="M431.883 78.7785C431.706 79.0778 430.06 78.316 428.032 78.7513C426.005 79.1458 424.739 80.5061 424.467 80.3021C424.331 80.2205 424.481 79.7171 425.025 79.1186C425.569 78.52 426.549 77.8399 427.814 77.5678C429.08 77.3093 430.236 77.5542 430.944 77.8943C431.665 78.2344 431.965 78.6425 431.883 78.7785Z" fill="#263238"/>
<path d="M413.31 86.1921C413.555 87.1715 412.915 88.1918 411.895 88.4639C410.874 88.7359 409.84 88.1646 409.595 87.1715C409.35 86.1921 409.99 85.1718 411.01 84.8997C412.031 84.6277 413.065 85.199 413.31 86.1921Z" fill="#263238"/>
<path d="M412.316 83.5803C412.139 83.8795 410.493 83.1177 408.465 83.5531C406.438 83.9476 405.173 85.3079 404.9 85.1039C404.764 85.0222 404.9 84.5189 405.458 83.9203C406.003 83.3218 406.982 82.6416 408.248 82.3695C409.513 82.1111 410.67 82.3559 411.377 82.696C412.098 83.0497 412.398 83.4442 412.316 83.5803Z" fill="#263238"/>
<path d="M422.563 96.3679C422.535 96.259 423.746 95.7693 425.719 95.0891C426.223 94.9259 426.685 94.7218 426.699 94.3546C426.74 93.9601 426.413 93.4431 426.032 92.899C425.284 91.7563 424.495 90.5456 423.678 89.2804C420.385 84.1247 417.882 79.8396 418.086 79.7172C418.29 79.5811 421.134 83.6622 424.427 88.8179C425.229 90.0967 425.991 91.3074 426.726 92.4637C427.039 93.0078 427.515 93.6064 427.42 94.4362C427.366 94.8579 427.039 95.2116 426.726 95.3748C426.413 95.5517 426.128 95.6061 425.869 95.6741C423.842 96.2182 422.576 96.4903 422.535 96.3815L422.563 96.3679Z" fill="#263238"/>
<path d="M428.985 120.011C428.985 120.011 419.256 122.718 408.248 118.895C408.248 118.895 415.364 128.2 429.761 123.751L428.985 120.011Z" fill="#EB996E"/>
<path d="M412.697 80.6965C412.561 81.2815 410.48 81.2679 408.112 81.8528C405.731 82.3834 403.867 83.3356 403.486 82.8731C403.309 82.6554 403.594 82.0841 404.302 81.4447C405.01 80.8053 406.193 80.1524 407.622 79.8123C409.051 79.4722 410.398 79.5402 411.323 79.7987C412.248 80.0435 412.752 80.4381 412.697 80.7101V80.6965Z" fill="#263238"/>
<path d="M431.108 72.344C430.781 72.8882 429.039 72.7657 427.053 73.1602C425.053 73.5003 423.461 74.2349 422.971 73.8404C422.753 73.6364 422.916 73.133 423.569 72.5345C424.195 71.9495 425.338 71.3374 426.713 71.0925C428.087 70.8476 429.352 71.0109 430.142 71.3374C430.944 71.6639 431.271 72.0856 431.135 72.344H431.108Z" fill="#263238"/>
<path d="M394.573 59.0259C395.172 61.9643 397.131 64.5898 399.771 66.0182C402.411 67.4465 405.69 67.6098 408.466 66.4807C410.616 65.61 412.847 63.964 415.025 64.753C417.324 65.5828 418.045 68.6436 420.182 69.8407C423.23 71.5548 426.903 68.5892 430.387 68.8885C433.081 69.1198 435.163 71.2147 437.272 72.9015C439.381 74.5884 442.306 76.0031 444.688 74.7244C444.048 72.4798 443.409 70.208 442.279 68.1675C441.15 66.127 439.463 64.3041 437.299 63.4607C436.102 62.9982 434.809 62.8349 433.666 62.25C431.203 60.9849 430.115 58.1281 428.319 56.0332C426.005 53.3261 422.331 51.8433 418.794 52.2106C415.841 52.5099 413.052 53.9926 410.099 53.8702C407.908 53.775 405.813 52.8091 403.622 52.8364C399.363 52.9044 396.152 56.6453 393.784 60.1823" fill="#263238"/>
<path d="M408.915 62.141C406.969 61.9913 402.955 61.5832 401.635 60.1957C398.778 57.1757 394.505 55.5977 390.695 56.6044C386.885 57.611 383.81 61.4336 383.865 65.6643C379.198 66.671 375.252 70.548 373.932 75.418C372.612 80.2881 373.959 85.9743 377.333 89.7017C378.218 90.6812 379.565 92.9393 379.565 92.9393C379.565 92.9393 377.81 95.1295 377.143 96.6123C374.041 103.496 382.477 106.135 382.477 106.135C382.504 110.76 386.763 110.746 389.498 110.719C392.124 110.719 393.743 117.997 395.88 117.711L393.716 95.1839C393.975 95.2927 394.301 95.3608 394.709 95.3608C399.866 95.456 398.519 85.7023 396.846 83.172C398.302 81.2267 399.771 79.2406 400.71 76.9552C401.649 74.6562 401.717 68.9291 400.914 66.5213C402.71 66.2629 409.759 62.1954 408.901 62.1274L408.915 62.141Z" fill="#263238"/>
<path d="M394.491 96.3948C393.689 93.3068 389.851 91.9329 387.47 94.055C386.164 95.2249 385.388 97.1838 386.205 100.462C388.396 109.223 396.737 105.21 396.696 104.951C396.669 104.788 395.417 99.9998 394.478 96.3948H394.491Z" fill="#FFBE9D"/>
<path d="M393.186 102.312C393.186 102.312 393.063 102.462 392.832 102.639C392.614 102.816 392.192 103.006 391.702 102.952C390.696 102.843 389.539 101.564 389.103 99.9997C388.886 99.2107 388.859 98.4081 388.981 97.7143C389.09 97.0069 389.389 96.4492 389.838 96.2587C390.274 96.0411 390.668 96.2315 390.845 96.4492C391.022 96.6668 391.008 96.8573 391.063 96.8573C391.09 96.8709 391.213 96.6668 391.063 96.3131C390.981 96.1499 390.832 95.973 390.587 95.8506C390.328 95.7282 390.002 95.7282 389.689 95.8506C389.022 96.0683 388.573 96.8437 388.437 97.6055C388.26 98.3809 388.273 99.2923 388.518 100.177C389.022 101.931 390.342 103.346 391.689 103.401C392.342 103.401 392.818 103.088 393.022 102.816C393.24 102.53 393.24 102.326 393.199 102.312H393.186Z" fill="#EB996E"/>
<path d="M441.476 84.1651C441.476 84.1651 442.265 83.553 443.381 82.1926C444.469 80.8323 445.803 78.5333 446.116 75.3909C446.266 73.8401 446.184 72.0852 445.626 70.344C445.068 68.6163 444.061 66.8615 442.51 65.5147C439.489 62.7668 434.496 61.5017 430.005 63.0797C429.597 63.2157 429.216 63.4198 428.821 63.583C428.454 63.7735 428.1 63.9911 427.747 64.1952L427.202 64.4944V63.8959C427.175 62.8348 426.78 61.8146 426.1 61.0392C425.42 60.2501 424.535 59.6516 423.583 59.2435C421.678 58.4001 419.623 58.3865 417.745 58.8218C413.99 59.6788 410.806 61.3928 407.799 61.7329C404.819 62.1138 402.342 61.3792 401.009 60.3726C400.315 59.8965 399.934 59.3523 399.676 59.0122C399.458 58.6313 399.349 58.4409 399.376 58.4273C399.444 58.3729 399.812 59.2571 401.159 60.1549C402.479 61.0528 404.86 61.6785 407.731 61.2568C409.16 61.0528 410.684 60.5358 412.303 59.9373C413.922 59.3387 415.664 58.6313 417.609 58.196C418.589 57.992 419.61 57.8287 420.685 57.8831C421.746 57.9376 422.821 58.1824 423.855 58.6177C424.875 59.053 425.855 59.706 426.631 60.5902C427.42 61.4745 427.896 62.6716 427.91 63.9095L427.366 63.6102C427.733 63.4062 428.114 63.1613 428.509 62.9572C428.917 62.7804 429.325 62.5627 429.76 62.4267C434.536 60.7535 439.761 62.1138 442.945 65.0386C444.565 66.4806 445.626 68.3578 446.184 70.1807C446.742 72.0172 446.796 73.8401 446.606 75.4589C446.225 78.7101 444.769 81.0499 443.585 82.3831C442.986 83.0496 442.456 83.5258 442.061 83.7842C441.68 84.0563 441.476 84.1923 441.462 84.1787L441.476 84.1651Z" fill="#455A64"/>
<path d="M439.694 53.4073C439.639 53.5025 438.768 52.7135 436.877 52.4414C435.952 52.319 434.768 52.319 433.53 52.7407C432.291 53.1216 430.985 53.9514 430.087 55.2438L429.761 55.7199L429.556 55.1757C428.454 52.2374 425.243 49.4487 421.256 49.0133C418.263 48.6733 415.541 50.02 413.283 51.3123C410.997 52.6455 408.915 53.9514 406.955 54.5772C405.023 55.2574 403.295 55.339 402.166 55.1349C401.594 55.0397 401.172 54.9037 400.9 54.7812C400.628 54.6588 400.478 54.5908 400.492 54.5636C400.519 54.4956 401.104 54.7404 402.207 54.8493C403.309 54.9581 404.928 54.8084 406.792 54.0875C408.67 53.4209 410.656 52.1149 412.956 50.7274C414.113 50.0472 415.364 49.3534 416.766 48.8637C418.167 48.3604 419.746 48.1155 421.338 48.2788C425.61 48.7549 429.012 51.7613 430.128 54.9309L429.597 54.8629C430.618 53.4345 432.074 52.5911 433.407 52.2238C434.741 51.8157 435.992 51.8701 436.959 52.0469C437.938 52.2374 438.646 52.5911 439.095 52.8631C439.53 53.1624 439.734 53.3529 439.721 53.3665L439.694 53.4073Z" fill="#455A64"/>
<path d="M421.773 100.394C421.161 99.7957 420.236 99.6053 419.379 99.7005C418.576 99.7957 417.596 100.503 417.079 101.374C417.079 101.387 417.052 101.401 417.038 101.428C417.011 101.469 416.984 101.496 416.957 101.537L416.984 101.51C416.793 101.823 416.685 102.176 416.725 102.544C416.807 103.346 417.419 104.026 418.14 104.38C419.283 104.951 420.807 104.788 421.705 103.863C422.604 102.938 422.658 101.292 421.733 100.394H421.773Z" fill="#2441CA"/>
<path d="M422.454 104.625C422.345 104.652 422.209 104.217 421.855 103.646C421.501 103.074 420.862 102.367 419.964 101.959C419.052 101.551 418.1 101.537 417.447 101.646C416.78 101.741 416.372 101.932 416.317 101.836C416.263 101.768 416.603 101.415 417.324 101.17C418.032 100.911 419.161 100.83 420.263 101.319C421.352 101.823 422.032 102.734 422.304 103.428C422.59 104.135 422.549 104.625 422.454 104.625Z" fill="#263238"/>
<path d="M394.682 106.298C394.682 106.298 395.076 106.978 394.559 108.012C394.301 108.502 393.838 109.046 393.103 109.318C392.382 109.604 391.443 109.495 390.709 109.032C389.96 108.57 389.47 107.781 389.416 106.992C389.348 106.217 389.647 105.564 389.974 105.115C390.681 104.203 391.471 104.19 391.471 104.271C391.511 104.38 390.872 104.584 390.396 105.4C390.164 105.795 389.987 106.353 390.069 106.924C390.137 107.495 390.518 108.067 391.09 108.434C391.661 108.788 392.355 108.883 392.899 108.706C393.457 108.529 393.879 108.135 394.138 107.754C394.668 106.965 394.573 106.298 394.695 106.298H394.682Z" fill="#2441CA"/>
<path d="M390.096 105.781C390.178 105.822 390.056 106.243 389.457 106.529C389.171 106.665 388.763 106.747 388.328 106.638C387.878 106.529 387.457 106.203 387.212 105.754C386.967 105.305 386.926 104.761 387.076 104.339C387.225 103.917 387.511 103.618 387.783 103.455C388.355 103.115 388.777 103.251 388.763 103.332C388.763 103.441 388.423 103.509 388.096 103.849C387.756 104.176 387.497 104.815 387.838 105.414C388.164 106.026 388.831 106.162 389.294 106.053C389.756 105.958 390.015 105.713 390.096 105.767V105.781Z" fill="#2441CA"/>
<path d="M405.05 226.594C405.05 226.594 438.741 228.552 458.648 228.729C474.078 228.865 480.949 224.771 484.025 214.867C486.61 206.542 481.045 190.599 481.045 190.599C470.622 190.653 464.172 192.095 457.464 195.237L459.246 202.529L404.928 207.209L405.023 226.594H405.05Z" fill="#FFBE9D"/>
<path d="M470.608 210.31C470.418 210.433 468.839 207.481 465.519 205.263C462.24 202.991 458.906 202.597 458.961 202.379C458.961 202.298 459.804 202.27 461.124 202.57C462.43 202.855 464.213 203.522 465.914 204.692C467.615 205.862 468.894 207.263 469.628 208.378C470.377 209.494 470.663 210.283 470.595 210.324L470.608 210.31Z" fill="#EB996E"/>
<path d="M392.722 195.183C392.722 195.183 382.299 197.686 374.652 202.801L382.789 224.92C385.511 232.185 393.838 235.749 400.424 231.981C410.67 226.131 414.289 209.045 414.289 209.045L425.556 160.236L406.901 148.55L392.722 195.183Z" fill="#FFBE9D"/>
<path d="M406.886 148.55L407.635 132.498L403.471 116.242C403.24 115.344 403.131 114.215 403.852 113.671C404.614 113.099 405.757 113.127 406.369 113.752C407.512 114.922 412.955 129.192 412.955 129.192C412.955 129.192 421.215 124.227 422.684 123.996C424.154 123.751 425.991 128.199 426.113 128.539C426.222 128.893 426.127 131.519 426.127 131.519C426.127 131.519 431.229 131.668 431.692 132.376C432.155 133.069 432.277 136.701 432.277 136.701C432.277 136.701 434.44 137.395 434.781 139.028C435.134 140.66 435.828 143.354 434.808 143.952C433.787 144.537 431.637 145.721 431.637 145.721C431.637 145.721 430.767 154.046 430.549 154.808C430.331 155.57 425.542 160.236 425.542 160.236L406.886 148.55Z" fill="#FFBE9D"/>
<path d="M389.538 232.321C389.538 232.321 390.042 232.606 391.103 232.96C392.151 233.314 393.797 233.627 395.906 233.341C398.002 233.055 400.573 232.144 402.873 230.131C405.145 228.076 407.445 225.356 409.35 221.941C410.302 220.227 411.159 218.35 411.867 216.323C412.602 214.296 413.078 212.092 413.609 209.807C414.684 205.223 415.827 200.284 417.051 195.047C419.5 184.559 422.249 172.819 425.215 160.181L425.243 160.086L425.311 160.018C426.25 159.093 427.188 158.154 428.127 157.189C428.59 156.699 429.053 156.209 429.502 155.706C429.719 155.447 429.951 155.189 430.114 154.944C430.277 154.781 430.277 154.454 430.345 154.101C430.713 151.38 430.998 148.564 431.298 145.734V145.558L431.475 145.462C432.332 144.986 433.189 144.496 434.073 144.007C434.264 143.884 434.563 143.748 434.686 143.653C434.795 143.571 434.89 143.408 434.931 143.19C435.026 142.782 434.999 142.265 434.944 141.776C434.822 140.823 434.591 139.708 434.346 138.824C434.005 137.994 433.08 137.409 432.182 137.083L431.951 137.001V136.77C431.91 135.981 431.856 135.164 431.76 134.362C431.719 133.954 431.665 133.559 431.583 133.165C431.543 132.988 431.488 132.77 431.434 132.661C431.393 132.566 431.407 132.634 431.352 132.58C431.284 132.553 431.216 132.512 431.121 132.485C429.61 132.063 427.828 132.008 426.141 131.927H425.787V131.559C425.814 130.716 425.855 129.777 425.814 128.907C425.841 128.676 425.624 128.322 425.501 127.995C425.351 127.669 425.202 127.342 425.038 127.03C424.712 126.39 424.345 125.778 423.923 125.234C423.705 124.962 423.474 124.717 423.229 124.554C422.957 124.39 422.834 124.35 422.508 124.472C421.882 124.69 421.229 125.03 420.589 125.356C418.045 126.676 415.582 128.118 413.16 129.56L412.806 129.764L412.656 129.383C411.364 126.159 410.098 122.976 408.846 119.847C408.22 118.282 407.594 116.718 406.982 115.181C406.751 114.405 406.207 113.957 405.485 113.78C404.764 113.589 404.057 113.821 403.716 114.433C403.553 114.718 403.472 115.072 403.512 115.399C403.553 115.698 403.703 116.16 403.785 116.528C403.989 117.317 404.193 118.092 404.397 118.867C404.805 120.418 405.213 121.969 405.608 123.493C406.411 126.54 407.2 129.546 407.962 132.471V132.525V132.58C407.69 138.171 407.431 143.531 407.186 148.632V148.673V148.714C402.043 165.446 397.784 179.321 394.79 189.034C393.294 193.85 392.11 197.645 391.293 200.257C390.885 201.522 390.572 202.502 390.355 203.196C390.137 203.862 390.001 204.202 390.001 204.202C390.001 204.202 390.082 203.849 390.259 203.182C390.463 202.475 390.749 201.495 391.116 200.216C391.892 197.591 393.021 193.782 394.464 188.939C397.389 179.199 401.58 165.296 406.615 148.537V148.605C406.832 143.503 407.077 138.144 407.336 132.553V132.648C406.574 129.723 405.771 126.73 404.968 123.669C404.56 122.146 404.152 120.609 403.744 119.044C403.54 118.269 403.335 117.48 403.118 116.704C403.023 116.283 402.9 115.97 402.818 115.467C402.764 114.99 402.873 114.501 403.118 114.079C403.363 113.657 403.744 113.317 404.22 113.154C404.696 112.991 405.172 113.004 405.621 113.113C406.07 113.222 406.506 113.426 406.873 113.752C407.241 114.052 407.486 114.569 407.608 114.922C408.22 116.46 408.846 118.024 409.472 119.588C410.724 122.717 412.003 125.9 413.296 129.124L412.792 128.948C415.228 127.506 417.691 126.064 420.262 124.717C420.916 124.39 421.542 124.05 422.276 123.792C422.48 123.737 422.671 123.656 422.957 123.697C423.202 123.737 423.433 123.833 423.596 123.955C423.964 124.186 424.222 124.486 424.453 124.785C424.93 125.384 425.297 126.036 425.637 126.703C425.8 127.03 425.964 127.37 426.127 127.71C426.25 128.063 426.481 128.349 426.508 128.866C426.549 129.832 426.508 130.743 426.481 131.6L426.141 131.233C427.896 131.328 429.583 131.355 431.338 131.832C431.447 131.859 431.57 131.927 431.692 131.981C431.801 132.036 432.019 132.226 432.046 132.335C432.182 132.593 432.209 132.797 432.264 133.029C432.359 133.464 432.413 133.872 432.454 134.294C432.55 135.124 432.604 135.94 432.631 136.756L432.386 136.43C433.434 136.824 434.482 137.436 434.985 138.579C435.312 139.694 435.489 140.647 435.638 141.721C435.693 142.252 435.734 142.796 435.611 143.381C435.557 143.667 435.407 143.993 435.121 144.224C434.835 144.428 434.659 144.496 434.427 144.632C433.543 145.122 432.672 145.612 431.815 146.088L431.992 145.816C431.692 148.659 431.393 151.461 431.026 154.209L430.944 154.74C430.93 154.903 430.808 155.202 430.685 155.338C430.468 155.651 430.236 155.91 430.019 156.168C429.556 156.685 429.093 157.189 428.617 157.678C427.678 158.658 426.726 159.596 425.787 160.521L425.882 160.358C422.889 172.982 420.113 184.708 417.623 195.197C416.371 200.434 415.201 205.359 414.112 209.943C413.568 212.228 413.064 214.459 412.316 216.5C411.581 218.554 410.697 220.445 409.731 222.173C407.771 225.614 405.431 228.348 403.104 230.403C400.723 232.443 398.083 233.341 395.961 233.586C393.811 233.844 392.123 233.477 391.089 233.096C390.559 232.906 390.178 232.715 389.933 232.579C389.688 232.443 389.552 232.375 389.565 232.362L389.538 232.321Z" fill="#EB996E"/>
<path d="M426.127 131.491C426.127 131.587 425.664 131.641 424.943 131.682C424.222 131.723 423.242 131.75 422.235 132.008C421.228 132.267 420.412 132.77 419.922 133.246C419.419 133.709 419.201 134.103 419.106 134.062C419.024 134.035 419.078 133.545 419.541 132.92C419.99 132.294 420.902 131.627 422.045 131.328C423.188 131.042 424.222 131.11 424.957 131.192C425.691 131.287 426.127 131.41 426.113 131.505L426.127 131.491Z" fill="#EB996E"/>
<path d="M422.141 131.641C421.964 131.573 421.95 131.152 422.113 130.703C422.277 130.254 422.562 129.941 422.753 130.009C422.93 130.077 422.943 130.499 422.78 130.947C422.617 131.396 422.331 131.709 422.141 131.641Z" fill="#EB996E"/>
<path d="M432.508 136.593C432.508 136.797 430.685 137.015 428.467 137.151C427.365 137.246 426.549 137.64 426.222 138.239C425.868 138.797 425.977 139.259 425.882 139.286C425.814 139.354 425.446 138.824 425.773 138.008C425.923 137.627 426.263 137.205 426.739 136.933C427.215 136.661 427.8 136.525 428.372 136.457C430.658 136.307 432.495 136.416 432.495 136.606L432.508 136.593Z" fill="#EB996E"/>
<path d="M431.597 141.477C431.787 141.477 431.91 142.497 431.855 143.721C431.801 144.959 431.597 145.939 431.406 145.939C431.216 145.939 431.093 144.918 431.148 143.694C431.202 142.456 431.406 141.477 431.597 141.477Z" fill="#EB996E"/>
<path d="M437.258 178.124L438.469 173.948C438.714 173.105 439.761 172.846 440.374 173.472L441.952 175.077L442.932 171.159C443.19 170.125 444.606 169.989 445.068 170.942L447.3 175.58L437.258 178.111V178.124Z" fill="white"/>
<path d="M447.313 177.376C447.354 177.567 445.204 178.26 442.51 178.927C439.802 179.593 437.584 179.988 437.53 179.798C437.489 179.607 439.639 178.913 442.333 178.247C445.027 177.58 447.259 177.186 447.313 177.376Z" fill="white"/>
<path d="M366.394 154.114C366.394 154.114 365.89 154.631 365.183 155.733C364.489 156.821 363.713 158.576 363.332 160.875C362.937 163.161 362.91 165.949 363.087 169.024C363.237 172.098 363.482 175.485 363.863 179.022C364.611 186.096 365.754 192.449 366.734 197.006C367.224 199.292 367.659 201.128 367.958 202.393C368.094 202.951 368.203 203.441 368.312 203.849C368.394 204.189 368.421 204.366 368.421 204.366C368.421 204.366 368.353 204.202 368.258 203.862C368.149 203.454 368.013 202.978 367.85 202.42C367.509 201.155 367.047 199.332 366.543 197.047C365.509 192.49 364.339 186.137 363.591 179.049C363.21 175.513 362.978 172.125 362.842 169.037C362.679 165.963 362.72 163.147 363.155 160.834C363.563 158.522 364.366 156.753 365.101 155.679C365.836 154.59 366.407 154.128 366.407 154.128L366.394 154.114Z" fill="white"/>
<path d="M395.036 135.627C395.036 135.627 394.941 135.695 394.737 135.79C394.465 135.926 394.165 136.062 393.839 136.212C393.063 136.579 391.934 137.123 390.587 137.872C387.865 139.327 384.246 141.585 380.368 144.265C376.49 146.932 373.034 149.462 370.53 151.257C369.374 152.074 368.38 152.781 367.537 153.366C367.237 153.57 366.965 153.761 366.72 153.924C366.53 154.046 366.435 154.114 366.421 154.101C366.421 154.101 366.503 154.019 366.679 153.869C366.924 153.679 367.183 153.488 367.469 153.271C368.285 152.659 369.265 151.924 370.408 151.081C372.898 149.244 376.313 146.687 380.205 144.02C384.096 141.34 387.743 139.11 390.492 137.695C391.852 136.974 392.995 136.443 393.798 136.103C394.138 135.967 394.437 135.845 394.723 135.722C394.941 135.641 395.05 135.6 395.05 135.613L395.036 135.627Z" fill="white"/>
<path d="M459.927 144.469C459.927 144.469 459.846 144.415 459.696 144.292C459.506 144.129 459.301 143.952 459.084 143.762C458.553 143.313 457.75 142.674 456.703 141.98C454.621 140.565 451.518 138.974 447.953 137.559C444.388 136.13 441.055 135.124 438.633 134.457C437.422 134.117 436.428 133.872 435.748 133.709C435.476 133.641 435.217 133.573 434.959 133.505C434.782 133.45 434.687 133.423 434.687 133.41C434.687 133.41 434.782 133.41 434.972 133.437C435.231 133.478 435.489 133.532 435.775 133.587C436.469 133.723 437.462 133.94 438.687 134.253C441.136 134.865 444.484 135.858 448.062 137.287C451.641 138.715 454.757 140.347 456.811 141.803C458.893 143.245 459.927 144.442 459.927 144.442V144.469Z" fill="white"/>
<path d="M395.417 248.319C395.417 248.319 395.213 248.278 394.886 248.142C394.56 248.006 394.083 247.774 393.539 247.421C392.464 246.741 391.022 245.421 390.586 243.421C390.137 241.462 390.559 239.599 391.117 238.442C391.389 237.857 391.675 237.409 391.906 237.123C392.124 236.837 392.274 236.701 392.287 236.715C392.328 236.742 391.797 237.354 391.308 238.524C390.818 239.68 390.437 241.476 390.872 243.353C391.28 245.258 392.641 246.55 393.662 247.258C394.709 247.979 395.458 248.278 395.43 248.332L395.417 248.319Z" fill="white"/>
<path d="M391.09 233.586C391.171 233.559 391.457 234.334 391.743 235.3C392.028 236.266 392.192 237.069 392.124 237.082C392.042 237.109 391.756 236.334 391.471 235.368C391.185 234.402 391.022 233.6 391.09 233.586Z" fill="white"/>
<path d="M409.487 538.577L450.988 538.373L450.24 394.91L449.859 248.985L393.648 248.292L383.539 267.336C379.457 275.022 376.694 283.375 375.769 292.027C375.061 298.624 380.001 320.118 381.729 325.587L397.2 374.641L409.501 538.577H409.487Z" fill="#263238"/>
<path d="M462.024 249.19L507.634 373.485C512.995 390.149 511.199 406.664 502.014 422.049L449.07 525.368L419.298 488.135L463.602 395.577L424.55 332.321L431.122 249.326L449.519 249.026L462.037 249.19H462.024Z" fill="#263238"/>
<path d="M446.062 290.83C446.062 290.83 446.09 291.047 446.131 291.469C446.158 291.918 446.199 292.544 446.253 293.346C446.348 295.033 446.471 297.455 446.634 300.556C446.933 306.855 447.382 315.901 447.913 327.069C448.43 338.279 449.042 351.596 449.723 366.384C450.049 373.784 450.403 381.551 450.77 389.605C451.029 393.631 450.907 397.74 450.961 401.889C450.961 406.051 450.988 410.268 451.002 414.554C451.056 448.739 451.111 479.687 451.151 502.119C451.138 513.301 451.124 522.361 451.111 528.66C451.097 531.761 451.07 534.197 451.07 535.87C451.07 536.672 451.043 537.298 451.043 537.747C451.043 538.169 451.002 538.386 451.002 538.386C451.002 538.386 450.975 538.169 450.961 537.747C450.961 537.298 450.934 536.672 450.92 535.87C450.907 534.183 450.866 531.761 450.838 528.66C450.798 522.361 450.73 513.301 450.648 502.119C450.553 479.687 450.43 448.739 450.294 414.554C450.294 410.282 450.267 406.051 450.253 401.902C450.213 397.74 450.335 393.631 450.077 389.618C449.723 381.565 449.396 373.797 449.07 366.397C448.444 351.61 447.886 338.279 447.41 327.083C446.961 315.914 446.607 306.868 446.348 300.57C446.239 297.468 446.158 295.047 446.103 293.36C446.09 292.557 446.062 291.931 446.062 291.483C446.062 291.061 446.062 290.843 446.062 290.843V290.83Z" fill="#455A64"/>
<path d="M445.014 251.638C445.014 251.638 445.164 252.114 445.3 252.985C445.436 253.856 445.613 255.134 445.79 256.699C446.157 259.841 446.538 264.208 446.756 269.037C446.974 273.866 446.987 278.247 446.906 281.416C446.865 282.994 446.811 284.287 446.756 285.171C446.702 286.055 446.634 286.545 446.593 286.545C446.484 286.545 446.457 284.586 446.416 281.43C446.362 278.274 446.28 273.907 446.062 269.091C445.845 264.276 445.545 259.923 445.3 256.767C445.069 253.611 444.919 251.665 445.014 251.652V251.638Z" fill="#455A64"/>
<path d="M435.87 254.44C435.938 254.536 435.163 254.889 434.945 255.991C434.85 256.522 434.945 257.202 435.476 257.651C435.966 258.113 436.823 258.331 437.517 258.018C438.211 257.705 438.592 256.903 438.565 256.236C438.565 255.542 438.116 255.025 437.653 254.753C436.673 254.196 435.898 254.549 435.884 254.44C435.87 254.4 436.02 254.264 436.36 254.155C436.7 254.06 437.272 254.032 437.884 254.304C438.483 254.563 439.163 255.243 439.218 256.195C439.286 257.107 438.823 258.181 437.803 258.658C436.768 259.106 435.653 258.753 435.013 258.113C434.319 257.447 434.251 256.495 434.455 255.869C434.646 255.216 435.027 254.808 435.34 254.617C435.653 254.413 435.857 254.4 435.87 254.44Z" fill="#455A64"/>
<path d="M414.099 251.978C414.099 251.978 414.304 252.427 414.467 253.284C414.63 254.141 414.739 255.42 414.589 256.984C414.44 258.549 413.963 260.399 413.024 262.249C412.086 264.112 410.616 265.962 408.657 267.391C406.67 268.792 404.452 269.581 402.384 269.88C400.316 270.18 398.411 270.044 396.887 269.676C395.349 269.323 394.179 268.819 393.417 268.384C392.655 267.949 392.288 267.649 392.301 267.608C392.369 267.472 393.975 268.615 396.982 269.186C399.907 269.771 404.438 269.499 408.235 266.806C412.004 264.072 413.705 259.868 414.086 256.916C414.508 253.883 413.936 251.992 414.086 251.978H414.099Z" fill="#455A64"/>
<path d="M467.494 263.881C467.494 263.949 466.459 264.031 464.881 263.568C463.303 263.119 461.234 262.017 459.52 260.14C457.819 258.263 456.921 256.086 456.622 254.481C456.322 252.862 456.499 251.842 456.567 251.856C456.69 251.856 456.703 252.849 457.112 254.372C457.506 255.882 458.431 257.896 460.037 259.678C461.656 261.446 463.561 262.562 465.031 263.106C466.5 263.663 467.494 263.759 467.48 263.895L467.494 263.881Z" fill="#455A64"/>
<path d="M483.699 397.889C483.699 397.889 482.91 398.787 481.291 399.807C480.474 400.297 479.454 400.841 478.189 401.154C476.95 401.481 475.44 401.521 474.011 401.045C471.113 400.093 469.303 397.916 468.201 396.42C467.099 394.883 466.541 393.849 466.609 393.808C466.691 393.74 467.412 394.679 468.596 396.121C469.779 397.522 471.576 399.508 474.229 400.379C476.896 401.263 479.44 400.229 481.032 399.372C482.665 398.488 483.618 397.794 483.686 397.889H483.699Z" fill="#455A64"/>
<path d="M473.317 405.82C473.153 405.929 471.235 403.507 469.017 400.392C466.799 397.277 465.139 394.665 465.302 394.556C465.465 394.447 467.384 396.869 469.602 399.984C471.82 403.099 473.48 405.711 473.317 405.82Z" fill="#455A64"/>
<path d="M403.582 295.645C403.405 295.713 402.915 294.938 402.507 293.891C402.085 292.857 401.908 291.945 402.085 291.877C402.262 291.809 402.751 292.585 403.16 293.632C403.582 294.666 403.758 295.577 403.582 295.645Z" fill="#FAFAFA"/>
<path d="M429.924 299.414C429.734 299.414 429.57 298.733 429.57 297.904C429.57 297.074 429.734 296.394 429.924 296.394C430.115 296.394 430.278 297.074 430.278 297.904C430.278 298.733 430.115 299.414 429.924 299.414Z" fill="#FAFAFA"/>
<path d="M419.094 313.711C418.903 313.711 418.686 312.894 418.617 311.847C418.549 310.813 418.645 309.956 418.849 309.942C419.039 309.942 419.257 310.759 419.325 311.806C419.393 312.84 419.298 313.697 419.094 313.711Z" fill="#FAFAFA"/>
<path d="M399.309 324.254C399.146 324.376 398.588 323.873 397.853 323.342C397.132 322.812 396.479 322.431 396.547 322.24C396.601 322.064 397.445 322.172 398.275 322.771C399.105 323.37 399.472 324.145 399.309 324.254Z" fill="#FAFAFA"/>
<path d="M434.183 337.544C434.02 337.435 434.224 336.836 434.646 336.224C435.068 335.599 435.53 335.177 435.694 335.286C435.857 335.394 435.653 335.993 435.231 336.605C434.809 337.231 434.346 337.653 434.183 337.544Z" fill="#FAFAFA"/>
<path d="M412.616 341.312C412.426 341.312 412.263 340.183 412.263 338.809C412.263 337.435 412.426 336.306 412.616 336.306C412.807 336.306 412.97 337.435 412.97 338.809C412.97 340.183 412.807 341.312 412.616 341.312Z" fill="#FAFAFA"/>
<path d="M405.609 356.562C405.5 356.725 404.779 356.398 404.017 355.841C403.255 355.283 402.724 354.712 402.847 354.548C402.956 354.385 403.677 354.712 404.439 355.269C405.201 355.827 405.731 356.398 405.609 356.562Z" fill="#FAFAFA"/>
<path d="M427.421 361.881C427.502 362.058 427.053 362.425 426.441 362.711C425.815 362.983 425.244 363.064 425.162 362.887C425.08 362.711 425.529 362.343 426.142 362.058C426.768 361.786 427.339 361.704 427.421 361.881Z" fill="#FAFAFA"/>
<path d="M412.616 386.707C412.439 386.789 411.732 385.741 411.051 384.354C410.358 382.966 409.936 381.769 410.113 381.688C410.289 381.606 410.997 382.653 411.677 384.041C412.371 385.429 412.793 386.626 412.616 386.707Z" fill="#FAFAFA"/>
<path d="M436.701 384.449C436.524 384.354 436.837 383.442 437.395 382.395C437.953 381.361 438.538 380.586 438.715 380.681C438.892 380.776 438.579 381.687 438.021 382.735C437.463 383.769 436.878 384.544 436.701 384.449Z" fill="#FAFAFA"/>
<path d="M426.156 405.521C425.951 405.494 425.965 404.419 425.761 403.141C425.57 401.862 425.217 400.842 425.407 400.76C425.57 400.665 426.251 401.63 426.469 403.032C426.7 404.433 426.346 405.562 426.169 405.521H426.156Z" fill="#FAFAFA"/>
<path d="M414.862 417.574C414.712 417.71 414.032 417.193 413.351 416.431C412.657 415.669 412.208 414.948 412.358 414.812C412.508 414.676 413.188 415.193 413.868 415.955C414.562 416.717 415.011 417.438 414.862 417.574Z" fill="#FAFAFA"/>
<path d="M442.28 422.131C442.144 421.995 442.647 421.26 443.396 420.498C444.158 419.737 444.879 419.22 445.015 419.356C445.151 419.492 444.648 420.226 443.899 420.988C443.137 421.75 442.416 422.267 442.28 422.131Z" fill="#FAFAFA"/>
<path d="M426.509 440.155C426.319 440.128 426.319 439.094 426.509 437.843C426.7 436.591 427.013 435.598 427.203 435.639C427.394 435.666 427.394 436.7 427.203 437.952C427.013 439.203 426.7 440.196 426.509 440.155Z" fill="#FAFAFA"/>
<path d="M415.909 448.902C415.746 448.998 415.147 448.304 414.576 447.338C414.018 446.372 413.691 445.515 413.855 445.42C414.018 445.325 414.617 446.018 415.188 446.984C415.746 447.95 416.073 448.807 415.909 448.902Z" fill="#FAFAFA"/>
<path d="M441.45 459.948C441.558 460.112 440.864 460.805 439.898 461.499C438.932 462.193 438.048 462.628 437.939 462.465C437.83 462.302 438.524 461.608 439.49 460.914C440.456 460.22 441.341 459.785 441.45 459.948Z" fill="#FAFAFA"/>
<path d="M420.168 474.273C419.978 474.205 420.222 473.103 420.331 471.757C420.454 470.41 420.413 469.281 420.603 469.253C420.794 469.213 421.161 470.369 421.025 471.825C420.903 473.28 420.331 474.355 420.154 474.287L420.168 474.273Z" fill="#FAFAFA"/>
<path d="M428.672 494.828C428.523 494.951 427.951 494.488 427.393 493.794C426.835 493.101 426.509 492.448 426.672 492.325C426.822 492.203 427.393 492.665 427.951 493.359C428.509 494.053 428.835 494.706 428.672 494.828Z" fill="#FAFAFA"/>
<path d="M419.38 508.635C419.216 508.744 418.468 507.941 417.706 506.826C416.944 505.71 416.454 504.731 416.617 504.622C416.781 504.513 417.529 505.316 418.291 506.431C419.053 507.533 419.543 508.526 419.38 508.635Z" fill="#FAFAFA"/>
<path d="M444.974 491.318C444.797 491.25 444.81 490.747 445.015 490.189C445.219 489.631 445.545 489.237 445.722 489.305C445.899 489.373 445.885 489.876 445.681 490.434C445.477 490.992 445.151 491.386 444.974 491.318Z" fill="#FAFAFA"/>
<path d="M433.693 524.184C433.517 524.089 433.857 523.123 434.115 521.913C434.387 520.702 434.496 519.682 434.687 519.668C434.877 519.654 435.095 520.743 434.796 522.062C434.51 523.382 433.843 524.28 433.68 524.184H433.693Z" fill="#FAFAFA"/>
<path d="M441.027 313.942C440.85 314.024 440.415 313.48 440.061 312.718C439.707 311.956 439.558 311.276 439.735 311.194C439.912 311.113 440.347 311.657 440.701 312.418C441.055 313.18 441.204 313.86 441.027 313.942Z" fill="#FAFAFA"/>
<path d="M422.142 271.567C422.25 271.744 421.298 272.506 420.277 273.594C419.257 274.669 418.549 275.675 418.372 275.58C418.209 275.498 418.658 274.274 419.76 273.104C420.849 271.934 422.046 271.404 422.142 271.567Z" fill="#FAFAFA"/>
<path d="M438.959 271.064C438.769 271.105 438.442 270.302 437.966 269.364C437.503 268.425 437.054 267.69 437.204 267.554C437.34 267.418 438.089 268.017 438.606 269.051C439.123 270.085 439.15 271.037 438.959 271.064Z" fill="#FAFAFA"/>
<path d="M386.573 284.885C386.396 284.817 386.573 283.906 386.995 282.872C387.403 281.824 387.893 281.049 388.07 281.117C388.247 281.185 388.07 282.096 387.648 283.13C387.24 284.164 386.75 284.953 386.573 284.885Z" fill="#FAFAFA"/>
<path d="M388.274 305.44C388.151 305.589 387.376 305.154 386.546 304.46C385.716 303.766 385.144 303.086 385.267 302.937C385.389 302.787 386.165 303.222 386.995 303.916C387.825 304.61 388.396 305.29 388.274 305.44Z" fill="#FAFAFA"/>
<path d="M422.645 255.27C422.468 255.338 422.087 254.835 421.815 254.141C421.542 253.447 421.461 252.821 421.638 252.753C421.815 252.685 422.196 253.189 422.468 253.882C422.74 254.576 422.821 255.202 422.645 255.27Z" fill="#FAFAFA"/>
<path d="M455.56 265.31C455.37 265.269 455.383 264.453 455.601 263.473C455.819 262.507 456.145 261.759 456.336 261.8C456.526 261.841 456.513 262.657 456.295 263.636C456.077 264.602 455.751 265.35 455.56 265.31Z" fill="#FAFAFA"/>
<path d="M463.303 280.845C463.126 280.776 463.371 279.756 463.847 278.573C464.337 277.389 464.867 276.505 465.058 276.573C465.235 276.641 464.99 277.661 464.514 278.845C464.024 280.028 463.493 280.913 463.303 280.845Z" fill="#FAFAFA"/>
<path d="M457.778 293.401C457.601 293.482 456.961 292.544 456.335 291.306C455.71 290.054 455.342 288.98 455.519 288.884C455.696 288.803 456.335 289.741 456.961 290.979C457.587 292.231 457.955 293.305 457.778 293.401Z" fill="#FAFAFA"/>
<path d="M469.575 305.943C469.398 305.875 469.521 305.086 469.875 304.189C470.215 303.291 470.65 302.61 470.827 302.679C471.004 302.747 470.882 303.536 470.528 304.433C470.188 305.331 469.752 306.011 469.575 305.943Z" fill="#FAFAFA"/>
<path d="M459.03 318.227C458.867 318.336 458.445 317.969 458.105 317.411C457.765 316.853 457.615 316.323 457.778 316.214C457.941 316.105 458.363 316.472 458.703 317.03C459.044 317.588 459.193 318.118 459.03 318.227Z" fill="#FAFAFA"/>
<path d="M461.275 343.57C461.125 343.707 460.281 343.026 459.383 342.06C458.485 341.095 457.873 340.197 458.009 340.061C458.159 339.925 459.002 340.605 459.9 341.571C460.799 342.537 461.411 343.434 461.275 343.57Z" fill="#FAFAFA"/>
<path d="M475.086 329.015C474.936 329.137 474.188 328.444 473.426 327.478C472.664 326.512 472.174 325.628 472.324 325.505C472.473 325.383 473.222 326.077 473.984 327.042C474.746 328.008 475.236 328.893 475.086 329.015Z" fill="#FAFAFA"/>
<path d="M482.665 349.107C482.488 349.026 482.801 348.005 483.359 346.822C483.917 345.652 484.515 344.754 484.692 344.849C484.869 344.931 484.556 345.951 483.998 347.135C483.44 348.304 482.842 349.202 482.665 349.107Z" fill="#FAFAFA"/>
<path d="M466.555 365.636C466.378 365.744 465.752 364.983 464.867 364.18C463.997 363.377 463.194 362.806 463.289 362.616C463.371 362.439 464.391 362.765 465.357 363.65C466.31 364.534 466.718 365.527 466.555 365.622V365.636Z" fill="#FAFAFA"/>
<path d="M467.561 382.695C467.561 382.885 466.88 383.048 466.05 383.048C465.22 383.048 464.54 382.885 464.54 382.695C464.54 382.504 465.22 382.341 466.05 382.341C466.88 382.341 467.561 382.504 467.561 382.695Z" fill="#FAFAFA"/>
<path d="M484.121 377.933C483.944 377.824 484.298 376.981 484.556 375.906C484.828 374.845 484.924 373.934 485.128 373.92C485.318 373.893 485.55 374.899 485.25 376.083C484.951 377.28 484.284 378.042 484.121 377.933Z" fill="#FAFAFA"/>
<path d="M500.572 383.646C500.381 383.714 499.891 382.762 499.456 381.524C499.021 380.286 498.817 379.225 499.007 379.157C499.198 379.089 499.687 380.041 500.123 381.279C500.558 382.517 500.762 383.578 500.572 383.646Z" fill="#FAFAFA"/>
<path d="M497.959 407.045C497.782 406.95 498.204 405.807 498.898 404.501C499.592 403.181 500.286 402.188 500.463 402.284C500.64 402.379 500.218 403.522 499.524 404.828C498.83 406.147 498.136 407.14 497.959 407.045Z" fill="#FAFAFA"/>
<path d="M482.937 420.798C482.76 420.866 482.202 419.927 481.685 418.689C481.182 417.451 480.909 416.39 481.086 416.309C481.263 416.241 481.821 417.179 482.338 418.417C482.842 419.655 483.114 420.716 482.937 420.798Z" fill="#FAFAFA"/>
<path d="M466.309 426.103C466.309 426.294 465.751 426.457 465.058 426.457C464.364 426.457 463.806 426.294 463.806 426.103C463.806 425.913 464.364 425.75 465.058 425.75C465.751 425.75 466.309 425.913 466.309 426.103Z" fill="#FAFAFA"/>
<path d="M475.848 447.923C475.658 447.978 475.277 447.175 475.004 446.127C474.732 445.094 474.651 444.209 474.841 444.155C475.032 444.101 475.413 444.903 475.685 445.951C475.957 446.984 476.039 447.869 475.848 447.923Z" fill="#FAFAFA"/>
<path d="M463.793 440.645C463.629 440.55 463.82 439.897 464.242 439.203C464.663 438.509 465.126 438.033 465.303 438.128C465.466 438.224 465.276 438.877 464.854 439.57C464.432 440.264 463.969 440.74 463.793 440.645Z" fill="#FAFAFA"/>
<path d="M463.547 464.723C463.357 464.75 463.084 463.812 462.948 462.628C462.812 461.445 462.853 460.479 463.044 460.452C463.234 460.425 463.506 461.363 463.642 462.547C463.778 463.73 463.738 464.696 463.547 464.723Z" fill="#FAFAFA"/>
</g>
<defs>
<clipPath id="clip0_164_11035">
<rect width="571" height="576" fill="white"/>
</clipPath>
</defs>
</svg>
