<svg width="83" height="71" viewBox="0 0 83 71" fill="none" xmlns="http://www.w3.org/2000/svg">
<rect x="0.5" y="1.4375" width="82" height="69" rx="5.5" fill="#F7F9FA" stroke="#EFEFEF"/>
<path d="M60.7971 43.3673C60.7971 37.5104 56.0288 32.7422 50.1712 32.7422C44.3075 32.7422 39.5469 37.5104 39.5469 43.3673C39.5469 49.2318 44.3075 54.0001 50.1712 54.0001C56.0288 54.0001 60.7971 49.2318 60.7971 43.3673ZM50.1712 42.6037C51.8685 42.6037 53.2499 43.9851 53.2499 45.6824C53.2499 47.1137 52.2633 48.3096 50.9378 48.653V49.185C50.9378 49.6082 50.5944 49.9516 50.1712 49.9516C49.7481 49.9516 49.4046 49.6082 49.4046 49.185V48.653C48.0792 48.3096 47.0926 47.1137 47.0926 45.6824C47.0926 45.2593 47.436 44.9158 47.8592 44.9158C48.2823 44.9158 48.6258 45.2593 48.6258 45.6824C48.6258 46.5349 49.3188 47.2279 50.1712 47.2279C51.0237 47.2279 51.7167 46.5349 51.7167 45.6824C51.7167 44.83 51.0237 44.1369 50.1712 44.1369C48.474 44.1369 47.0926 42.7563 47.0926 41.0583C47.0926 39.627 48.0792 38.4311 49.4046 38.0885V37.5557C49.4046 37.1325 49.7481 36.7891 50.1712 36.7891C50.5944 36.7891 50.9378 37.1325 50.9378 37.5557V38.0885C52.2633 38.4311 53.2499 39.627 53.2499 41.0583C53.2499 41.4822 52.9065 41.8249 52.4833 41.8249C52.0601 41.8249 51.7167 41.4822 51.7167 41.0583C51.7167 40.2066 51.0237 39.5128 50.1712 39.5128C49.3188 39.5128 48.6258 40.2066 48.6258 41.0583C48.6258 41.9107 49.3188 42.6037 50.1712 42.6037Z" fill="#EB5454"/>
<path d="M38.0289 51.8531C38.1285 51.8915 38.2358 51.9145 38.3432 51.9145C38.4505 51.9145 38.5578 51.8915 38.6574 51.8531C38.7034 51.8302 39.4624 51.4929 40.6199 50.8796C38.9871 48.8098 38.0135 46.1956 38.0135 43.3668C38.0135 36.6591 43.464 31.2085 50.1718 31.2085C51.0304 31.2085 51.8737 31.3005 52.6863 31.4692V23.3662C52.6863 22.9446 52.3413 22.5996 51.9197 22.5996C49.8039 22.5996 48.0867 20.8824 48.0867 18.7666C48.0867 18.345 47.7417 18 47.3201 18H29.3662C28.9446 18 28.5996 18.345 28.5996 18.7666C28.5996 20.8824 26.8824 22.5996 24.7666 22.5996C24.345 22.5996 24 22.9446 24 23.3662V37.5637C24 45.475 37.4615 51.5925 38.0289 51.8531ZM32.6243 33.3167C32.9233 33.0177 33.4062 33.0177 33.7052 33.3167L35.9667 35.5782L41.0569 30.4879C41.3559 30.189 41.8465 30.189 42.1455 30.4879C42.4445 30.7869 42.4445 31.2699 42.1455 31.5765L36.511 37.2034C36.3653 37.349 36.1737 37.4257 35.9667 37.4257C35.7674 37.4257 35.5681 37.349 35.4301 37.2034L32.6243 34.3976C32.3253 34.0987 32.3253 33.6157 32.6243 33.3167Z" fill="#EB5454"/>
</svg>
