<svg width="509" height="480" viewBox="0 0 509 480" fill="none" xmlns="http://www.w3.org/2000/svg">
<g clip-path="url(#clip0_1031_1857)">
<g opacity="0.1">
<path d="M505.628 132.652H420.709V221.215H505.628V132.652Z" fill="#A4A4A4"/>
<path d="M499.88 132.651H414.961V221.214H499.88V132.651Z" fill="#817C7C"/>
<path d="M499.902 221.236H414.928V132.619H499.902V221.236ZM414.982 221.181H499.847V132.674H414.982V221.181Z" fill="#A4A4A4"/>
<path d="M488.472 144.559H426.381V209.307H488.472V144.559Z" fill="#817C7C"/>
<path d="M426.379 209.734C426.423 209.789 425.843 210.468 424.846 211.52C423.85 212.571 422.46 213.984 420.905 215.518C419.339 217.063 417.905 218.432 416.854 219.407C415.792 220.382 415.113 220.951 415.058 220.907C415.003 220.853 415.595 220.184 416.58 219.133C417.576 218.081 418.967 216.668 420.533 215.124C422.098 213.579 423.533 212.21 424.595 211.235C425.657 210.26 426.335 209.691 426.379 209.745V209.734Z" fill="#A4A4A4"/>
<path d="M488.461 209.581C488.516 209.538 489.195 210.118 490.246 211.115C491.297 212.112 492.709 213.503 494.242 215.058C495.786 216.625 497.154 218.06 498.129 219.111C499.103 220.174 499.673 220.853 499.629 220.908C499.574 220.963 498.906 220.371 497.855 219.385C496.804 218.388 495.392 216.997 493.848 215.431C492.304 213.864 490.935 212.429 489.961 211.367C488.986 210.304 488.417 209.625 488.472 209.581H488.461Z" fill="#A4A4A4"/>
<path d="M488.295 144.723C488.251 144.668 488.832 143.989 489.828 142.938C490.824 141.886 492.215 140.473 493.77 138.94C495.335 137.395 496.77 136.026 497.821 135.051C498.883 134.076 499.562 133.506 499.616 133.561C499.671 133.616 499.08 134.284 498.094 135.336C497.098 136.387 495.708 137.8 494.142 139.345C492.576 140.889 491.142 142.259 490.08 143.234C489.018 144.208 488.339 144.778 488.295 144.723Z" fill="#A4A4A4"/>
<path d="M426.205 144.887C426.151 144.931 425.472 144.351 424.421 143.354C423.37 142.357 421.957 140.966 420.424 139.41C418.881 137.844 417.512 136.409 416.538 135.358C415.563 134.295 414.994 133.616 415.049 133.561C415.103 133.506 415.771 134.098 416.822 135.084C417.873 136.081 419.286 137.472 420.83 139.038C422.373 140.604 423.742 142.039 424.716 143.102C425.691 144.164 426.26 144.844 426.205 144.887Z" fill="#A4A4A4"/>
<path d="M488.296 209.307C488.296 209.307 488.296 209.197 488.285 208.989C488.285 208.77 488.285 208.474 488.274 208.091C488.274 207.28 488.263 206.108 488.241 204.597C488.23 201.53 488.208 197.071 488.176 191.397C488.143 180.06 488.099 163.903 488.055 144.558L488.296 144.799C470.219 144.799 449.001 144.821 426.38 144.832L426.654 144.558C426.643 168.328 426.621 190.554 426.61 209.307L426.369 209.066C444.928 209.121 460.366 209.154 471.205 209.186C476.614 209.208 480.873 209.23 483.796 209.252C485.241 209.263 486.358 209.274 487.124 209.274C487.486 209.274 487.77 209.274 487.989 209.285C488.186 209.285 488.285 209.285 488.285 209.296C488.285 209.296 488.197 209.296 488.011 209.307C487.803 209.307 487.53 209.307 487.179 209.318C486.413 209.318 485.318 209.329 483.895 209.34C480.982 209.351 476.745 209.373 471.358 209.406C460.497 209.438 444.993 209.471 426.38 209.526H426.139V209.285C426.129 190.532 426.118 168.307 426.096 144.537V144.263H426.369C448.979 144.274 470.209 144.285 488.285 144.296H488.526V144.537C488.471 163.947 488.438 180.148 488.405 191.529C488.384 197.17 488.362 201.617 488.34 204.673C488.329 206.174 488.318 207.324 488.307 208.124C488.307 208.496 488.307 208.792 488.296 209C488.296 209.197 488.296 209.296 488.285 209.285L488.296 209.307Z" fill="#A4A4A4"/>
<path d="M467.778 166.565H447.062V187.29H467.778V166.565Z" fill="#918989"/>
<path d="M422.317 2.88037L140.396 10.7588L151.958 424.852L433.879 416.974L422.317 2.88037Z" fill="#A4A4A4"/>
<path d="M406.482 15.4547L124.875 -0.000976562L102.194 413.632L383.802 429.087L406.482 15.4547Z" fill="#7E7C7C"/>
<path d="M455.712 42.1895L174.699 18.2354L139.547 430.994L420.56 454.949L455.712 42.1895Z" fill="#918989"/>
<path d="M25.1931 370.298C20.934 367.625 16.0508 365.938 11.0581 365.434C8.74794 365.193 6.21876 365.259 4.36841 366.661C3.97425 366.957 3.59104 367.395 3.67864 367.888C3.74433 368.249 4.03995 368.501 4.33557 368.72C10.0837 373.113 18.788 373.66 25.1931 370.298Z" fill="#A4A4A4"/>
<path d="M24.8329 369.893C21.6359 367.395 18.4169 364.876 15.7016 361.852C12.9863 358.829 10.7856 355.236 9.97537 351.26C9.73449 350.055 9.65785 348.675 10.4243 347.711C17.7052 353.396 23.4205 360.757 24.8329 369.893Z" fill="#A4A4A4"/>
<path d="M25.1164 370.243C24.5689 366.255 24.3718 362.159 25.2806 358.248C26.2003 354.327 28.3244 350.58 31.6638 348.346C32.9229 351.292 32.3864 354.677 31.4995 357.755C30.1309 362.509 27.985 367.033 25.1711 371.097" fill="#A4A4A4"/>
<path d="M32.2544 383.037C27.9186 383.563 24.1522 385.852 20.9114 388.777C17.6815 391.713 15.3822 395.656 14.4297 399.917C18.6778 399.654 22.28 396.653 24.8968 393.29C27.5135 389.927 29.3201 386.236 32.1996 383.092" fill="#A4A4A4"/>
<path d="M33.7982 385.074C30.3056 376.475 31.5756 366.113 37.0281 358.609C39.4916 367.394 38.5938 377.308 33.7982 385.074Z" fill="#A4A4A4"/>
<path d="M43.238 396.313C39.3074 396.072 35.311 397.003 31.895 398.975C28.479 400.935 25.6651 403.926 23.9024 407.453C23.6615 407.935 23.4535 408.537 23.771 408.964C24.0447 409.337 24.5921 409.37 25.052 409.337C28.8622 409.085 32.2454 406.796 35.0264 404.189C37.8183 401.582 40.238 398.558 43.3256 396.302" fill="#A4A4A4"/>
<path d="M42.9301 395.7C40.9046 389.204 40.7732 382.139 42.5688 375.578C43.2804 372.993 44.4629 370.265 46.8607 369.049C47.0687 368.951 47.2987 368.852 47.5176 368.929C47.7257 369.005 47.8352 369.214 47.9337 369.411C48.7877 371.196 49.0286 373.212 48.941 375.183C48.8534 377.155 48.4483 379.094 48.0322 381.033C47.2768 384.604 46.8717 388.449 44.9228 391.527C44.4629 392.261 44.0469 393.049 43.6746 393.827C43.3023 394.605 43.3023 394.89 42.9629 395.514" fill="#A4A4A4"/>
<path d="M67.8936 399.424C66.0433 392.391 68.0031 383.858 72.4374 378.085C72.7659 377.658 73.1928 377.209 73.7293 377.253C74.5505 377.33 74.7585 378.414 74.7257 379.236C74.4082 386.421 72.0104 393.509 67.8936 399.424Z" fill="#A4A4A4"/>
<path d="M70.1367 400.957C78.6768 403.181 88.487 401.023 95.5927 395.776C91.3774 393.64 86.4176 393.027 81.8082 394.089C77.2097 395.141 72.9944 397.211 70.1367 400.957Z" fill="#A4A4A4"/>
<path d="M72.0332 396.269C76.8178 388.459 85.993 383.365 95.1352 382.905C94.0841 386.63 91.0294 389.521 87.5805 391.263C84.1317 393.005 80.2886 393.772 76.4894 394.505C75.0113 394.79 72.9858 395.108 72.0332 396.269Z" fill="#A4A4A4"/>
<path d="M68.3637 373.54C69.6557 369.093 70.9586 364.612 71.3199 360.001C71.6703 355.389 71.0134 350.57 68.6265 346.615C64.1594 355.269 63.6995 365.379 68.2324 374.011" fill="#A4A4A4"/>
<path d="M83.418 365.927C88.6406 356.419 99.3157 348.828 110.1 347.766C105.94 358.139 94.5858 366.146 83.418 365.927Z" fill="#A4A4A4"/>
<path d="M80.123 367.789C87.9186 368.972 94.5645 373.956 101.846 376.979C103.4 377.625 105.086 378.14 106.762 377.921C108.437 377.702 110.079 376.585 110.462 374.931C110.769 373.561 110.156 372.116 109.17 371.108C108.196 370.111 106.893 369.487 105.601 368.939C97.6631 365.631 89.1558 365.554 80.7909 367.559" fill="#A4A4A4"/>
<path d="M75.6125 373.255C77.3753 373.759 77.9775 374.679 79.3789 375.862C84.1197 379.904 89.8131 382.829 95.8569 384.329C96.481 384.483 97.3131 384.548 97.6197 383.979C97.8934 383.486 97.543 382.883 97.1926 382.434C94.6635 379.269 91.0504 377.1 87.2402 375.676C83.4409 374.263 80.1453 372.554 75.6016 372.915" fill="#A4A4A4"/>
<path d="M70.5207 340.219C76.8601 346.134 85.7943 349.179 94.422 348.357C94.8162 348.324 95.2432 348.259 95.5059 347.963C96.1081 347.306 95.3855 346.298 94.6848 345.75C87.6556 340.273 79.1484 337.995 70.5098 340.219" fill="#A4A4A4"/>
<path d="M76.5664 338.006C84.9423 331.718 96.4385 329.823 106.391 333.076C102.636 336.779 97.4239 338.772 92.1794 339.32C86.9349 339.868 81.6795 339.287 76.5664 338.006Z" fill="#A4A4A4"/>
<path d="M74.1562 322.824C73.4664 315.802 73.9153 310.271 73.4226 303.216C73.3788 302.658 73.2584 301.978 72.7328 301.77C71.9992 301.486 71.3861 302.395 71.1452 303.14C69.054 309.635 70.2036 317.095 74.1343 322.67" fill="#A4A4A4"/>
<path d="M73.6523 323.601C78.4041 320.654 81.9735 316.82 85.269 312.307C87.5683 309.164 89.4953 305.406 88.9807 301.551C85.7617 301.485 82.6961 303.259 80.5939 305.713C78.5027 308.167 77.2545 311.223 76.3239 314.312C75.3932 317.401 74.7472 320.578 73.6523 323.612" fill="#A4A4A4"/>
<path d="M85.072 320.424C95.5063 316.568 105.24 310.818 113.67 303.555C110.254 302.175 106.346 303.007 102.93 304.377C95.123 307.531 88.7508 312.844 84.9297 320.348" fill="#A4A4A4"/>
<path d="M76.8594 327.435C82.1367 328.015 87.5016 328.388 92.7352 327.511C97.8811 326.646 102.742 324.609 107.56 322.582C107.954 322.418 108.392 322.21 108.567 321.815C108.753 321.388 108.556 320.862 108.206 320.545C107.856 320.227 107.396 320.074 106.947 319.953C101.713 318.485 96.0746 319.175 90.9286 320.906C85.7827 322.648 81.5674 324.707 76.8594 327.424" fill="#A4A4A4"/>
<path d="M46.7172 340.459C43.115 333.186 43.345 324.697 46.4654 317.204C48.6551 320.545 48.9179 324.795 48.5238 328.771C48.1186 332.748 46.9143 336.834 46.8376 340.821" fill="#A4A4A4"/>
<path d="M32.3316 333.196C23.3426 333.021 14.3426 336.855 8.24414 343.46C12.7332 344.161 17.3536 343.011 21.4375 341.017C25.5214 339.024 29.1454 336.23 32.7476 333.448" fill="#A4A4A4"/>
<path d="M22.6641 329.965C18.2626 329.604 14.0364 329.067 9.7992 330.36C5.57295 331.652 1.71897 334.599 0 338.674C4.11676 339.134 8.28826 338.104 12.0547 336.395C15.8211 334.686 19.259 332.32 22.6641 329.965Z" fill="#A4A4A4"/>
<path d="M36.9837 330.108C33.0312 327.512 28.9582 324.872 24.3597 323.798C19.7503 322.725 14.4072 323.514 11.1992 326.997C14.9328 329.188 19.4546 329.451 23.7794 329.44C28.1042 329.44 33.4034 329.385 37.4874 330.831" fill="#A4A4A4"/>
<path d="M37.0081 330.316C30.2417 323.667 27.6797 311.727 30.395 302.646C35.7161 310.73 38.092 320.698 37.0081 330.316Z" fill="#A4A4A4"/>
<path d="M55.6094 311.486C56.8904 308.517 57.7772 305.406 58.9269 302.383C60.0765 299.36 61.4889 296.391 63.6568 293.992C65.8246 291.593 68.8137 289.808 72.0326 289.644C70.018 298.79 63.9414 306.962 55.7736 311.529" fill="#A4A4A4"/>
<path d="M52.2482 315.408C50.1351 312.505 47.6935 308.551 44.8358 306.382C41.9672 304.213 38.2446 302.898 34.752 303.731C38.3103 310.084 45.022 314.564 52.2482 315.408Z" fill="#A4A4A4"/>
<path d="M52.9144 311.727C51.5349 308.211 50.1334 304.651 49.575 300.916C49.0166 297.18 49.356 293.182 51.2721 289.918C54.9837 296.939 56.1772 304.476 53.1115 311.804" fill="#A4A4A4"/>
<path d="M55.6406 289.918C57.7428 282.951 64.115 277.825 70.9909 275.48C71.8558 275.185 72.7755 274.933 73.6843 275.075C74.593 275.218 75.4799 275.831 75.666 276.729C75.9179 277.912 74.9434 278.975 74.0237 279.763C68.6697 284.342 62.3742 287.825 55.6406 289.918Z" fill="#A4A4A4"/>
<path d="M55.7189 284.222C55.9816 279.731 56.2663 275.174 57.7225 270.924C59.1787 266.674 61.9925 262.675 66.0874 260.824C66.7881 265.359 64.7845 269.872 62.3758 273.772C59.967 277.671 57.0546 281.352 55.6094 285.711" fill="#A4A4A4"/>
<path d="M55.6093 287.321C53.8684 282.25 53.6932 275.798 50.6495 271.383C48.5254 268.294 45.1313 266.191 43.3028 262.916C42.0875 265.972 42.4598 269.499 43.7298 272.534C44.9999 275.568 47.1021 278.175 49.3466 280.585C51.5911 282.984 53.5181 284.791 55.6093 287.332" fill="#A4A4A4"/>
<path d="M55.6417 436.744C55.5103 436.744 55.3899 402.896 55.3789 361.151C55.3789 319.394 55.4665 285.547 55.6088 285.547C55.7512 285.547 55.8607 319.383 55.8716 361.151C55.8716 402.896 55.784 436.744 55.6417 436.744Z" fill="#A4A4A4"/>
<path d="M85.216 335.354C85.216 335.354 84.7671 335.552 83.9459 335.836C83.0372 336.143 81.8547 336.538 80.4423 337.02C77.4861 338.027 73.4351 339.484 69.0336 341.292C64.676 343.165 60.5702 344.676 58.2271 346.714C57.0556 347.71 56.3877 348.795 56.0593 349.584C55.7199 350.383 55.6651 350.865 55.6213 350.854C55.5994 350.854 55.6104 350.734 55.6323 350.504C55.6761 350.274 55.7308 349.934 55.8841 349.518C56.1688 348.685 56.8257 347.524 58.0082 346.451C59.1797 345.377 60.822 344.413 62.6943 343.537C64.5665 342.661 66.6468 341.752 68.8584 340.842C73.2708 339.035 77.3547 337.622 80.3438 336.702C81.8328 336.231 83.0481 335.891 83.9021 335.672C84.7452 335.453 85.216 335.344 85.2269 335.376L85.216 335.354Z" fill="#A4A4A4"/>
<path d="M94.9047 311.53C94.9047 311.53 94.7952 311.673 94.5434 311.914C94.2587 312.187 93.8974 312.527 93.4595 312.932C92.4522 313.852 91.0836 315.101 89.4084 316.613C85.9048 319.735 81.1639 323.963 75.9194 328.629C70.653 333.318 66.0983 337.798 62.9451 341.171C61.3684 342.858 60.1203 344.25 59.2772 345.224C58.8831 345.674 58.5546 346.046 58.2918 346.342C58.0619 346.594 57.9415 346.725 57.9305 346.714C57.9196 346.714 58.0181 346.55 58.2152 346.276C58.4232 346.002 58.7188 345.597 59.1239 345.093C59.9341 344.074 61.1385 342.65 62.6823 340.931C65.7808 337.491 70.3027 332.956 75.58 328.257C80.8683 323.58 85.6748 319.373 89.1675 316.35C90.8865 314.882 92.2879 313.666 93.3281 312.779C93.7879 312.396 94.1711 312.078 94.4777 311.826C94.7405 311.618 94.8828 311.508 94.9047 311.519V311.53Z" fill="#A4A4A4"/>
<path d="M70.237 333.404C70.0947 333.339 71.2005 330.797 72.2954 327.588C73.4012 324.378 73.9268 321.662 74.0582 321.684C74.1896 321.695 73.872 324.488 72.7553 327.741C72.2078 329.362 71.5947 330.797 71.1129 331.805C70.6312 332.824 70.2918 333.426 70.2261 333.393L70.237 333.404Z" fill="#A4A4A4"/>
<path d="M55.6751 353.889C55.6751 353.889 55.3576 353.571 54.8649 352.947C54.3174 352.246 53.6167 351.348 52.7846 350.285C51.0437 348.028 48.624 344.907 45.9197 341.5C43.2153 338.093 40.7299 335.026 38.9234 332.814C38.0694 331.762 37.3577 330.875 36.7993 330.185C36.3066 329.56 36.0438 329.199 36.0657 329.177C36.0876 329.155 36.4051 329.473 36.9416 330.053C37.4781 330.645 38.2555 331.51 39.1861 332.583C41.0584 334.741 43.5876 337.776 46.3029 341.182C49.0072 344.6 51.3831 347.755 53.0583 350.066C53.9014 351.227 54.5692 352.169 55.0181 352.826C55.467 353.484 55.7079 353.867 55.6751 353.878V353.889Z" fill="#A4A4A4"/>
<path d="M49.1917 345.564C49.1151 345.651 47.3852 343.592 46.4764 340.481C45.8085 338.279 45.7757 336.275 45.8633 335.355L46.0822 335.377C45.9837 335.771 45.918 335.979 45.8742 335.968C45.8304 335.957 45.8304 335.749 45.8742 335.344L46.0932 335.366C46.1698 336.275 46.3122 338.214 46.9581 340.35C47.8341 343.373 49.334 345.498 49.2027 345.575L49.1917 345.564Z" fill="#A4A4A4"/>
<path d="M40.8285 335.037C40.7628 335.103 40.2044 334.402 38.9343 333.931C37.6643 333.438 35.7592 333.328 33.668 333.515C31.5767 333.668 29.7045 334.04 28.3687 334.369C27.033 334.698 26.2118 334.96 26.1899 334.895C26.168 334.84 26.9454 334.457 28.2811 334.04C29.6059 333.624 31.511 333.186 33.6351 333.033C35.7482 332.846 37.7519 333.011 39.0657 333.613C40.3905 334.205 40.8723 335.026 40.8285 335.037Z" fill="#A4A4A4"/>
<path d="M38.8463 332.485C38.8134 332.561 37.7405 332.046 35.9448 331.422C34.1492 330.809 31.5872 330.151 28.6967 329.932C25.8062 329.713 23.1785 329.965 21.3063 330.305C19.434 330.644 18.2953 330.995 18.2734 330.907C18.2734 330.874 18.5362 330.765 19.0399 330.579C19.5435 330.392 20.299 330.173 21.2296 329.965C23.1019 329.538 25.7843 329.22 28.7296 329.439C31.6748 329.669 34.2697 330.381 36.0543 331.093C36.9521 331.444 37.6638 331.773 38.1346 332.035C38.6054 332.287 38.8572 332.452 38.8463 332.474V332.485Z" fill="#A4A4A4"/>
<path d="M55.6086 321.685C55.4772 321.717 54.5246 318.42 53.4954 314.324C52.4553 310.227 51.7217 306.875 51.8531 306.842C51.9845 306.809 52.937 310.106 53.9662 314.203C55.0064 318.3 55.7399 321.652 55.6086 321.685Z" fill="#A4A4A4"/>
<path d="M55.7517 321.684C55.6094 321.728 54.9963 319.526 53.4087 317.281C51.854 314.98 49.8832 313.83 49.9489 313.71C49.9708 313.655 50.5182 313.863 51.2846 314.4C52.051 314.936 52.9926 315.835 53.8029 316.996C55.4561 319.34 55.8722 321.673 55.7517 321.684Z" fill="#A4A4A4"/>
<path d="M55.6423 418.702C55.6423 418.702 55.489 417.892 55.1058 416.446C54.7335 415.011 54.0219 412.974 52.8503 410.586C50.5182 405.81 46.2591 399.752 40.8504 393.673C38.168 390.617 35.5731 387.725 33.3724 384.953C31.1607 382.193 29.3432 379.564 28.0184 377.231C26.6936 374.909 25.8177 372.915 25.314 371.502C25.0622 370.801 24.887 370.242 24.7885 369.859C24.679 369.476 24.6352 369.278 24.6462 369.278C24.69 369.267 24.9308 370.056 25.4892 371.436C26.0476 372.817 26.9564 374.777 28.314 377.056C29.6717 379.345 31.5001 381.93 33.7118 384.669C35.9235 387.407 38.5293 390.277 41.2117 393.344C46.6314 399.435 50.8686 405.569 53.146 410.421C54.2956 412.842 54.9525 414.923 55.281 416.391C55.4343 417.125 55.5437 417.695 55.5766 418.089C55.6204 418.483 55.6423 418.681 55.6313 418.692L55.6423 418.702Z" fill="#A4A4A4"/>
<path d="M82.3672 388.503C82.3672 388.503 81.8745 388.799 80.9657 389.292C80.0679 389.795 78.7978 390.573 77.3307 391.69C75.8745 392.808 74.2431 394.276 72.557 396.039C70.8818 397.814 69.1629 399.862 67.4001 402.064C63.8855 406.478 60.59 410.389 58.6192 413.511C57.6228 415.055 56.8892 416.359 56.4184 417.279C55.9367 418.188 55.6849 418.703 55.652 418.692C55.6411 418.692 55.6849 418.549 55.7834 418.298C55.8929 418.046 56.0243 417.662 56.2542 417.202C56.6812 416.26 57.371 414.913 58.3345 413.335C60.2505 410.137 63.5133 406.183 67.0279 401.768C68.7906 399.566 70.5315 397.507 72.2395 395.732C73.9475 393.969 75.6227 392.512 77.1227 391.417C78.6227 390.321 79.9365 389.576 80.8781 389.127C81.338 388.897 81.7212 388.755 81.973 388.645C82.2248 388.547 82.3562 388.492 82.3672 388.514V388.503Z" fill="#A4A4A4"/>
<path d="M82.8838 398.306C82.8838 398.383 81.7561 398.515 79.9276 398.734C78.1101 398.975 75.57 399.27 72.9094 400.114C70.2598 400.979 68.0591 402.294 66.6248 403.411C65.1795 404.528 64.4898 405.459 64.4241 405.405C64.4022 405.383 64.5445 405.131 64.862 404.725C65.1795 404.309 65.6941 403.761 66.4058 403.148C67.8182 401.932 70.0408 400.541 72.7561 399.654C75.4824 398.788 78.0554 398.536 79.8948 398.394C81.7451 398.263 82.8838 398.241 82.8838 398.306Z" fill="#A4A4A4"/>
<path d="M65.2875 404.332C65.1342 404.244 66.47 402.207 67.4991 399.468C68.4736 396.697 68.6926 394.276 68.8677 394.309C68.9334 394.309 68.9334 394.922 68.824 395.897C68.7035 396.872 68.4736 398.219 67.959 399.643C67.4444 401.067 66.7656 402.251 66.24 403.072C65.7145 403.894 65.3422 404.376 65.2875 404.343V404.332Z" fill="#A4A4A4"/>
<path d="M91.0175 362.214C91.0175 362.214 90.8642 362.312 90.5467 362.466C90.1744 362.63 89.7146 362.838 89.1562 363.101C88.5431 363.364 87.8095 363.693 86.9774 364.131C86.1453 364.558 85.1708 365.007 84.1526 365.621C83.638 365.916 83.1015 366.223 82.5431 366.541C81.9847 366.858 81.4263 367.242 80.8351 367.614C79.6417 368.337 78.4482 369.224 77.1782 370.134C74.6928 372.029 72.0651 374.263 69.5469 376.848C67.0505 379.455 64.9046 382.15 63.098 384.713C62.233 386.017 61.39 387.244 60.7002 388.459C60.3498 389.062 59.9885 389.631 59.682 390.201C59.3863 390.771 59.0907 391.318 58.817 391.844C58.2367 392.885 57.8316 393.871 57.4265 394.725C57.0104 395.568 56.7148 396.324 56.474 396.938C56.2331 397.507 56.0469 397.978 55.8937 398.351C55.7513 398.668 55.6747 398.844 55.6637 398.833C55.6528 398.833 55.6966 398.647 55.8061 398.318C55.9375 397.935 56.1017 397.453 56.3097 396.872C56.5287 396.237 56.8024 395.481 57.1966 394.615C57.5798 393.75 57.963 392.742 58.5214 391.691C58.7842 391.154 59.0688 390.595 59.3644 390.026C59.6601 389.445 60.0214 388.876 60.3608 388.262C61.0287 387.035 61.8717 385.787 62.7367 384.472C64.5323 381.887 66.6892 379.16 69.2074 376.531C71.7476 373.924 74.3972 371.678 76.9154 369.794C78.2074 368.885 79.4117 368.008 80.6271 367.296C81.2292 366.935 81.7876 366.552 82.357 366.245C82.9263 365.938 83.4738 365.631 83.9993 365.347C85.0285 364.755 86.0248 364.328 86.8788 363.912C87.7219 363.495 88.4774 363.189 89.1015 362.948C89.6817 362.729 90.1525 362.542 90.5358 362.4C90.8642 362.28 91.0394 362.225 91.0504 362.236L91.0175 362.214Z" fill="#A4A4A4"/>
<path d="M69.8742 376.388C69.8742 376.388 70.0713 375.556 71.0348 374.658C71.9764 373.759 73.7063 372.916 75.7209 372.861C77.7245 372.806 79.4654 373.365 80.6479 373.825C81.8413 374.296 82.5311 374.679 82.5092 374.734C82.4763 374.8 81.7428 374.537 80.5274 374.154C79.3231 373.781 77.626 373.299 75.7318 373.354C73.8377 373.409 72.2063 374.143 71.2538 374.92C70.2903 375.698 69.9399 376.443 69.8633 376.388H69.8742Z" fill="#A4A4A4"/>
<path d="M66.7112 379.652C66.5799 379.576 67.7733 377.823 68.036 375.325C68.3536 372.828 67.5871 370.845 67.7404 370.802C67.7952 370.78 68.0579 371.24 68.2879 372.061C68.5178 372.883 68.6711 374.077 68.5178 375.38C68.3645 376.684 67.9375 377.812 67.5324 378.557C67.1163 379.302 66.755 379.696 66.7112 379.652Z" fill="#A4A4A4"/>
<path d="M32.2773 423.545C33.0109 436.481 36.8977 449.637 42.8977 462.935H68.9559C74.6712 449.769 78.2953 436.635 78.9412 423.545H32.2773Z" fill="#A4A4A4"/>
<path d="M74.7271 444.477C74.7271 444.609 66.1433 444.718 55.5667 444.718C44.9901 444.718 36.4062 444.609 36.4062 444.477C36.4062 444.346 44.9901 444.236 55.5667 444.236C66.1433 444.236 74.7271 444.346 74.7271 444.477Z" fill="#817C7C"/>
<path d="M74.1333 449.166C74.1333 449.297 66.0859 449.407 56.1662 449.407C46.2466 449.407 38.1992 449.297 38.1992 449.166C38.1992 449.034 46.2466 448.925 56.1662 448.925C66.0859 448.925 74.1333 449.034 74.1333 449.166Z" fill="#817C7C"/>
<path d="M43.3131 432.045C43.4445 432.045 43.554 434.729 43.554 438.048C43.554 441.367 43.4445 444.05 43.3131 444.05C43.1818 444.05 43.0723 441.367 43.0723 438.048C43.0723 434.729 43.1818 432.045 43.3131 432.045Z" fill="#817C7C"/>
<path d="M57.2838 432.045C57.4152 432.045 57.5247 434.827 57.5247 438.267C57.5247 441.706 57.4152 444.489 57.2838 444.489C57.1525 444.489 57.043 441.706 57.043 438.267C57.043 434.827 57.1525 432.045 57.2838 432.045Z" fill="#817C7C"/>
<path d="M70.3893 431.936C70.5207 431.936 70.6302 434.773 70.6302 438.278C70.6302 441.783 70.5207 444.62 70.3893 444.62C70.2579 444.62 70.1484 441.783 70.1484 438.278C70.1484 434.773 70.2579 431.936 70.3893 431.936Z" fill="#817C7C"/>
<path d="M78.1199 432.045C78.1199 432.176 68.058 432.286 55.642 432.286C43.226 432.286 33.1641 432.176 33.1641 432.045C33.1641 431.913 43.226 431.804 55.642 431.804C68.058 431.804 78.1199 431.913 78.1199 432.045Z" fill="#817C7C"/>
<path d="M114.755 39.7627H10.2812V191.266H114.755V39.7627Z" fill="#A4A4A4"/>
<path d="M109.521 39.7627H5.04688V191.266H109.521V39.7627Z" fill="#7E7C7C"/>
<path d="M96.5336 56.1719H18.0195V174.857H96.5336V56.1719Z" fill="#FBFBFB"/>
<path d="M96.5346 174.847C96.5346 174.847 96.5346 174.65 96.5237 174.266C96.5237 173.872 96.5237 173.313 96.5127 172.579C96.5127 171.09 96.4908 168.91 96.4799 166.073C96.4689 160.388 96.4361 152.095 96.4142 141.624C96.3813 120.691 96.3375 91.0603 96.2828 56.1612L96.5456 56.4241C72.5567 56.4241 45.9839 56.435 18.0425 56.446L18.3272 56.1612C18.3053 100.93 18.2834 142.215 18.2724 174.847L18.0425 174.617C41.9547 174.671 61.5531 174.704 75.1844 174.737C82.0055 174.759 87.3376 174.781 90.9726 174.792C92.7792 174.803 94.1697 174.814 95.1222 174.814C96.0638 174.814 96.5565 174.836 96.5565 174.836C96.5565 174.836 96.0967 174.847 95.166 174.858C94.2244 174.858 92.8558 174.869 91.0602 174.88C87.4361 174.891 82.126 174.912 75.3267 174.934C61.6517 174.967 42.0095 175 18.0425 175.055H17.8126V174.825C17.8016 142.193 17.7797 100.919 17.7578 56.1393V55.8545H18.0425C45.9839 55.8545 72.5567 55.8654 96.5456 55.8764H96.8083V56.1393C96.7536 91.1041 96.7098 120.8 96.677 141.777C96.6441 152.227 96.6222 160.486 96.6113 166.171C96.6003 168.986 96.5894 171.144 96.5784 172.634C96.5784 173.357 96.5675 173.905 96.5675 174.288C96.5675 174.661 96.5565 174.836 96.5565 174.836L96.5346 174.847Z" fill="#A4A4A4"/>
<path d="M109.807 39.763C109.872 39.8068 109.161 40.8474 107.945 42.4686C106.73 44.0898 105.011 46.3025 103.04 48.6904C101.069 51.0784 99.2409 53.1925 97.8723 54.6932C96.5147 56.1938 95.6278 57.0921 95.5731 57.0373C95.5183 56.9825 96.2847 55.9967 97.5657 54.4303C98.9672 52.7324 100.686 50.6402 102.591 48.3289C104.496 46.0177 106.215 43.9255 107.617 42.2167C108.909 40.6612 109.73 39.7082 109.796 39.763H109.807Z" fill="#A4A4A4"/>
<path d="M96.9414 174.463C100.839 180.663 105.449 186.425 110.638 191.595L96.9414 174.463Z" fill="#FBFBFB"/>
<path d="M110.626 191.606C110.626 191.606 109.641 190.85 108.239 189.437C106.838 188.024 104.977 185.986 103.072 183.609C101.167 181.232 99.5899 178.965 98.5279 177.289C97.4549 175.602 96.8746 174.518 96.9293 174.485C96.995 174.441 97.7067 175.449 98.8563 177.07C100.006 178.691 101.626 180.904 103.51 183.27C105.404 185.636 107.199 187.695 108.524 189.174C109.849 190.653 110.681 191.562 110.615 191.628L110.626 191.606Z" fill="#A4A4A4"/>
<path d="M5.02539 191.135C9.59105 185.505 14.1458 179.874 18.7114 174.244L5.02539 191.135Z" fill="#FBFBFB"/>
<path d="M18.7111 174.244C18.8315 174.343 15.8644 178.209 12.087 182.865C8.30967 187.531 5.14546 191.234 5.02502 191.135C4.90459 191.036 7.87172 187.181 11.6491 182.514C15.4264 177.848 18.5906 174.146 18.7111 174.244Z" fill="#A4A4A4"/>
<path d="M5.04675 39.7627C5.16719 39.6642 8.14527 43.2242 11.6927 47.7043C15.2401 52.1954 18.0102 55.9088 17.8897 55.9964C17.7693 56.0841 14.7912 52.535 11.2438 48.0548C7.69637 43.5747 4.92631 39.8504 5.04675 39.7627Z" fill="#A4A4A4"/>
<path d="M72.0752 80.2598H45.7871V154.933H72.0752V80.2598Z" fill="#A4A4A4"/>
</g>
<path d="M497.186 463.186C497.186 463.34 387.753 463.471 252.797 463.471C117.842 463.471 8.38672 463.34 8.38672 463.186C8.38672 463.033 117.798 462.901 252.797 462.901C387.796 462.901 497.186 463.033 497.186 463.186Z" fill="#263238"/>
<path d="M108.711 31.8096H419.909C426.413 31.8096 431.69 37.0893 431.69 43.596V450.632C431.69 457.139 426.413 462.418 419.909 462.418H108.711V31.8096Z" fill="#EB5454"/>
<g opacity="0.3">
<path d="M108.711 31.8096H419.909C426.413 31.8096 431.69 37.0893 431.69 43.596V450.632C431.69 457.139 426.413 462.418 419.909 462.418H108.711V31.8096Z" fill="#090E12"/>
</g>
<path d="M422.745 45.1406H250.082V462.408H422.745V45.1406Z" fill="#A4A4A4"/>
<path d="M107.375 28.4141H396.588C403.092 28.4141 408.369 33.6938 408.369 40.2005V450.632C408.369 457.139 403.092 462.419 396.588 462.419H107.375V28.4141Z" fill="#EB5454"/>
<path d="M138.304 463.196C138.151 463.196 138.02 365.86 138.02 245.816C138.02 125.772 138.151 28.4141 138.304 28.4141C138.457 28.4141 138.589 125.729 138.589 245.816C138.589 365.904 138.457 463.196 138.304 463.196Z" fill="#263238"/>
<path d="M146.429 463.196C146.276 463.196 146.145 365.86 146.145 245.816C146.145 125.772 146.276 28.4141 146.429 28.4141C146.582 28.4141 146.714 125.729 146.714 245.816C146.714 365.904 146.582 463.196 146.429 463.196Z" fill="#263238"/>
<g opacity="0.3">
<path d="M146.44 28.4141H138.305V463.196H146.44V28.4141Z" fill="#090E12"/>
</g>
<path d="M317.385 78.09V28.4141H365.209V79.0101L341.757 102.473L317.385 78.09Z" fill="#455A64"/>
<path d="M412.671 45.1406C412.825 45.1406 412.956 137.548 412.956 251.512C412.956 365.477 412.825 457.906 412.671 457.906C412.518 457.906 412.387 365.52 412.387 251.512C412.387 137.504 412.518 45.1406 412.671 45.1406Z" fill="#263238"/>
<path d="M417.566 45.1406C417.719 45.1406 417.851 137.548 417.851 251.512C417.851 365.477 417.719 457.906 417.566 457.906C417.413 457.906 417.281 365.52 417.281 251.512C417.281 137.504 417.413 45.1406 417.566 45.1406Z" fill="#263238"/>
<path d="M412.672 105.179H424.65L435.599 113.482L425.789 123.296H412.672V105.179Z" fill="#455A64"/>
<path d="M440.187 140.757H417.566V155.829H440.187V140.757Z" fill="#EB5454"/>
<g opacity="0.3">
<path d="M229.812 367.991L225.742 371.96C225.327 372.366 224.664 372.369 224.245 371.966L196.207 345.126C195.778 344.713 195.762 344.031 196.174 343.602L200.421 339.161C200.837 338.729 201.526 338.716 201.955 339.138L229.818 366.45C230.25 366.873 230.25 367.569 229.818 367.991H229.812Z" fill="#090E12"/>
</g>
<path d="M203.707 340.947C203.74 340.98 203.236 341.56 202.579 342.243C201.923 342.926 201.363 343.454 201.33 343.421C201.297 343.388 201.801 342.807 202.457 342.125C203.114 341.442 203.674 340.914 203.707 340.947Z" fill="#263238"/>
<path d="M208.16 345.239C208.193 345.272 207.689 345.852 207.033 346.535C206.376 347.218 205.816 347.746 205.783 347.713C205.75 347.68 206.254 347.099 206.911 346.417C207.567 345.734 208.127 345.206 208.16 345.239Z" fill="#263238"/>
<path d="M205.832 342.909C205.865 342.942 205.176 343.704 204.293 344.615C203.409 345.525 202.667 346.234 202.634 346.205C202.601 346.172 203.29 345.41 204.174 344.499C205.058 343.589 205.8 342.879 205.832 342.909Z" fill="#263238"/>
<path d="M210.413 347.491C210.446 347.524 209.756 348.286 208.873 349.197C207.989 350.107 207.247 350.817 207.214 350.787C207.181 350.754 207.87 349.992 208.754 349.081C209.638 348.171 210.38 347.461 210.413 347.491Z" fill="#263238"/>
<path d="M212.516 349.6C212.549 349.633 212.044 350.214 211.388 350.897C210.732 351.579 210.171 352.107 210.138 352.074C210.105 352.041 210.61 351.461 211.266 350.778C211.922 350.095 212.483 349.567 212.516 349.6Z" fill="#263238"/>
<path d="M214.768 351.85C214.801 351.883 214.112 352.645 213.228 353.555C212.344 354.466 211.602 355.175 211.569 355.145C211.537 355.112 212.226 354.35 213.109 353.44C213.993 352.529 214.735 351.82 214.768 351.85Z" fill="#263238"/>
<path d="M216.875 353.958C216.908 353.991 216.404 354.571 215.747 355.254C215.091 355.937 214.531 356.465 214.498 356.432C214.465 356.399 214.969 355.818 215.625 355.135C216.282 354.452 216.842 353.925 216.875 353.958Z" fill="#263238"/>
<path d="M219.129 356.211C219.162 356.244 218.473 357.006 217.589 357.916C216.706 358.827 215.964 359.536 215.931 359.507C215.898 359.474 216.587 358.711 217.471 357.801C218.354 356.89 219.096 356.181 219.129 356.211Z" fill="#263238"/>
<path d="M221.233 358.316C221.265 358.349 220.761 358.93 220.105 359.612C219.449 360.295 218.888 360.823 218.855 360.79C218.822 360.757 219.327 360.177 219.983 359.494C220.639 358.811 221.2 358.283 221.233 358.316Z" fill="#263238"/>
<path d="M223.485 360.568C223.518 360.601 222.829 361.363 221.945 362.274C221.061 363.184 220.319 363.894 220.286 363.864C220.253 363.831 220.942 363.069 221.826 362.158C222.71 361.248 223.452 360.539 223.485 360.568Z" fill="#263238"/>
<path d="M225.592 362.677C225.625 362.71 225.12 363.291 224.464 363.974C223.808 364.657 223.247 365.184 223.214 365.151C223.181 365.118 223.686 364.538 224.342 363.855C224.998 363.172 225.559 362.644 225.592 362.677Z" fill="#263238"/>
<g opacity="0.3">
<path d="M215.014 350.075L218.941 353.756L221.589 351.16C221.589 351.16 225.836 352.466 228.563 349.464C231.043 346.736 230.304 342.767 230.304 342.767L225.734 346.802L221.866 342.932L225.945 338.7C225.945 338.7 221.958 337.423 218.829 340.963C216.372 343.744 217.642 347.399 217.642 347.399L215.014 350.075Z" fill="#090E12"/>
</g>
<g opacity="0.3">
<path d="M210.139 360.816C210.04 360.645 206.219 357.145 206.219 357.145L203.736 359.579C203.736 359.579 199.07 358.652 196.761 361.275C194.176 364.214 195.02 367.972 195.02 367.972L199.591 363.937L203.459 367.807L199.38 372.039C199.38 372.039 203.366 373.316 206.496 369.776C208.952 366.995 207.683 363.34 207.683 363.34L210.139 360.816Z" fill="#090E12"/>
</g>
<path d="M371.921 414.408C371.921 414.561 330.819 414.693 280.137 414.693C229.455 414.693 188.342 414.561 188.342 414.408C188.342 414.255 229.433 414.123 280.137 414.123C330.841 414.123 371.921 414.255 371.921 414.408Z" fill="#FBFBFB"/>
<path d="M341.297 423.16C341.297 423.313 314.265 423.445 280.936 423.445C247.608 423.445 220.564 423.313 220.564 423.16C220.564 423.006 247.586 422.875 280.936 422.875C314.286 422.875 341.297 423.006 341.297 423.16Z" fill="#FBFBFB"/>
<path d="M287.362 431.562H272.898V446.032H287.362V431.562Z" fill="#A4A4A4"/>
<path d="M121.282 443.184L118.238 465.322C118.238 465.322 139.708 475.848 139.544 480L96.4277 475.64L99.7452 440.949L121.271 443.184H121.282Z" fill="#455A64"/>
<path d="M105.087 462.112C104.233 462.255 103.554 463.142 103.664 463.996C103.773 464.862 104.66 465.552 105.525 465.42C106.39 465.289 107.222 464.259 107.014 463.416C106.806 462.572 105.722 461.816 104.923 462.145" fill="#A4A4A4"/>
<g opacity="0.6">
<path d="M96.4277 475.651L96.8985 472.168L138.066 477.645C138.066 477.645 139.906 478.675 139.544 480L96.4277 475.64V475.651Z" fill="#FBFBFB"/>
</g>
<path d="M118.96 465.179C118.927 465.387 117.865 465.376 116.77 465.946C115.654 466.494 115.03 467.348 114.843 467.25C114.657 467.184 115.095 465.957 116.442 465.289C117.789 464.61 119.037 464.982 118.971 465.179H118.96Z" fill="#263238"/>
<path d="M123.295 467.512C123.328 467.72 122.376 467.983 121.565 468.805C120.733 469.604 120.46 470.546 120.252 470.514C120.055 470.525 120.033 469.276 121.051 468.279C122.058 467.271 123.306 467.304 123.295 467.512Z" fill="#263238"/>
<path d="M125.311 473.187C125.114 473.209 124.928 472.135 125.585 471.029C126.231 469.923 127.271 469.572 127.348 469.758C127.446 469.945 126.746 470.503 126.22 471.412C125.673 472.311 125.519 473.187 125.311 473.187Z" fill="#263238"/>
<path d="M119.092 460.053C118.983 460.239 118.052 459.844 116.848 459.812C115.654 459.746 114.68 460.053 114.592 459.866C114.483 459.702 115.468 459.012 116.881 459.078C118.293 459.132 119.213 459.899 119.092 460.063V460.053Z" fill="#263238"/>
<path d="M62.6714 293.478C62.6714 293.478 54.7554 349.693 58.7408 358.883C61.8174 365.981 67.2699 369.081 74.2443 370.867C84.3063 373.452 100.445 375.303 100.445 375.303L105.875 342.912L93.5799 340.229L104.89 299.929L84.8647 286.204L62.6604 293.467L62.6714 293.478Z" fill="#263238"/>
<path d="M104.901 299.94L94.9922 455.234L122.375 456.625L134.583 379.597C134.583 379.597 147.579 316.064 148.477 308.287C149.375 300.51 148.477 284.035 148.477 284.035L104.901 299.951V299.94Z" fill="#263238"/>
<path d="M104.123 312.067C104.123 312.067 104.134 312.165 104.134 312.373C104.134 312.603 104.123 312.899 104.112 313.272C104.079 314.104 104.035 315.243 103.981 316.7C103.849 319.68 103.63 323.995 103.302 329.319C102.678 339.966 101.638 354.677 100.565 370.911C100.072 379.039 99.6011 386.772 99.1741 393.816C98.6704 400.859 97.9807 407.179 97.4551 412.481C96.9186 417.783 96.5354 422.088 96.2945 425.056C96.1851 426.513 96.0975 427.652 96.0318 428.485C95.9989 428.846 95.977 429.142 95.9551 429.372C95.9332 429.569 95.9223 429.679 95.9113 429.679C95.9113 429.679 95.9004 429.58 95.9004 429.372C95.9004 429.142 95.9113 428.846 95.9223 428.474C95.9442 427.685 95.9989 426.535 96.0756 425.045C96.2398 422.066 96.5683 417.761 97.05 412.448C97.5208 407.136 98.1668 400.815 98.6485 393.783C99.0756 386.75 99.4369 378.995 99.9953 370.867C101.134 354.644 102.152 339.966 102.897 329.286C103.258 323.995 103.543 319.701 103.751 316.678C103.849 315.221 103.926 314.082 103.992 313.25C104.024 312.888 104.046 312.592 104.068 312.362C104.09 312.165 104.101 312.056 104.112 312.056L104.123 312.067Z" fill="#455A64"/>
<path d="M97.7408 325.562C97.7408 325.562 97.7189 326 97.5766 326.789C97.4342 327.566 97.1934 328.684 96.8649 330.064C96.208 332.824 95.1678 336.603 93.7883 340.689C92.3978 344.786 90.9197 348.412 89.7591 350.997C89.1788 352.289 88.6861 353.33 88.3248 354.031C87.9635 354.732 87.7555 355.115 87.7117 355.104C87.6788 355.083 87.8212 354.677 88.1168 353.943C88.4562 353.1 88.8832 352.059 89.3759 350.843C90.4379 348.225 91.8503 344.589 93.2408 340.514C94.6204 336.439 95.7153 332.693 96.4707 329.965C96.8211 328.695 97.1167 327.621 97.3576 326.734C97.5656 325.967 97.7079 325.551 97.7408 325.562Z" fill="#455A64"/>
<path d="M88.0291 156.609L81.4489 161.855C81.4489 161.855 60.5366 165.591 58.752 168.855L65.5293 210.874L70.8066 246.88C70.8066 246.88 62.9016 268.119 62.6826 277.09C62.4636 286.051 62.6826 293.488 62.6826 293.488H66.6023C75.7336 293.488 84.5036 297.016 91.0948 303.325L98.3101 296.764L99.7225 309.229C99.7225 309.229 128.036 310.982 135.251 305.516C142.467 300.05 152.233 288.461 152.233 288.461C152.233 288.461 153.919 259.389 145.291 244.711C136.664 230.022 134.594 226.987 134.594 226.987C134.594 226.987 137.649 201.662 137.649 200.786C137.649 199.909 140.277 165.361 140.277 165.361L118.554 159.895L112.27 155.086L88.051 156.619L88.0291 156.609Z" fill="#455A64"/>
<g opacity="0.3">
<path d="M70.0727 248.873C72.777 251.414 76.4449 252.466 80.1237 251.962C82.5543 251.633 84.8864 250.593 87.328 250.626C90.8973 250.68 93.9739 252.959 97.0834 254.7C103.784 258.447 111.722 259.947 119.32 258.896C128.101 257.68 136.094 253.243 143.539 248.424C144.076 248.073 144.634 247.712 145.017 247.197C145.849 246.069 145.663 244.393 144.831 243.264C143.988 242.136 142.62 241.512 141.24 241.249C138.744 240.778 136.204 241.391 133.696 241.808C128.375 242.684 122.912 242.629 117.602 241.665C110.857 240.438 104.419 237.744 97.6309 236.824C90.0324 235.794 82.1492 237.087 75.2624 240.46C73.7843 241.183 72.3172 242.038 71.2442 243.275C70.1603 244.524 69.6676 247.274 70.0508 248.873" fill="#090E12"/>
</g>
<path d="M93.7113 179.436C93.7113 179.436 93.7332 179.546 93.7551 179.765C93.777 180.017 93.7989 180.345 93.8318 180.75C93.8865 181.66 93.9632 182.919 94.0617 184.53C94.2369 187.86 94.4997 192.603 94.8172 198.441C95.3975 210.227 96.2077 226.439 97.0945 244.349C97.3026 248.829 97.5106 253.211 97.7186 257.439C97.9157 261.667 98.1237 265.753 98.1128 269.652C98.1128 271.602 98.058 273.508 97.9376 275.348C97.8062 277.2 97.5872 278.963 97.6091 280.683C97.6201 284.122 97.8938 287.354 97.8391 290.289C97.9485 293.214 98.277 295.865 98.5179 298.176C98.7807 300.488 99.0106 302.481 99.2077 304.124C99.3828 305.724 99.5252 306.994 99.6237 307.892C99.6566 308.298 99.6894 308.626 99.7113 308.878C99.7223 309.097 99.7332 309.218 99.7113 309.218C99.6894 309.218 99.6785 309.108 99.6456 308.889C99.6128 308.637 99.558 308.32 99.5033 307.914C99.3828 307.016 99.2077 305.756 98.9777 304.168C98.7588 302.525 98.496 300.531 98.2004 298.22C97.9267 295.898 97.5763 293.258 97.4339 290.3C97.4668 287.354 97.1712 284.155 97.1383 280.672C97.1055 278.93 97.3245 277.134 97.4339 275.305C97.5434 273.475 97.5872 271.58 97.5872 269.641C97.5872 265.764 97.3683 261.689 97.1602 257.461C96.9522 253.232 96.7442 248.851 96.5252 244.371C95.704 226.461 94.9595 210.238 94.4121 198.452C94.1712 192.603 93.9741 187.86 93.8427 184.53C93.788 182.919 93.7442 181.649 93.7113 180.739C93.7113 180.334 93.7004 180.006 93.6895 179.754C93.6895 179.535 93.6895 179.414 93.7004 179.414L93.7113 179.436Z" fill="#263238"/>
<path d="M66.8652 176.72L66.2302 220.678L69.4601 228.346L66.7338 249.279L55.6646 243.079C50.1792 240.001 46.9164 233.965 47.6281 227.711C47.6281 227.667 47.6391 227.612 47.65 227.568C48.6683 219.046 50.3544 205.463 51.7668 196.843C53.9565 183.501 55.4784 173.007 58.7631 168.855L66.8762 176.731L66.8652 176.72Z" fill="#455A64"/>
<path d="M140.256 165.35C140.256 165.35 146.595 164.035 149.869 179.338C153.143 194.64 155.77 221.313 155.77 221.313C155.77 221.313 158.398 222.036 157.084 224.621C157.084 224.621 156.646 239.036 154.894 240.778L136.643 229.999L134.562 226.965L140.245 165.339L140.256 165.35Z" fill="#455A64"/>
<path d="M66.7773 248.873L91.2918 246.146L93.175 234.217L69.1313 232.278L66.7773 248.873Z" fill="#9D6054"/>
<path d="M97.9169 174.102C97.9169 174.102 97.6541 174.573 97.0958 175.35C96.4607 176.216 95.6615 177.322 94.698 178.637C93.6469 180.05 92.4316 181.682 91.0958 183.478C90.9973 183.61 90.8002 183.785 90.5484 183.796C90.3184 183.807 90.1214 183.708 89.979 183.621C89.6943 183.412 89.5192 183.215 89.2892 183.007C88.8513 182.602 88.4133 182.164 88.0082 181.693C87.1542 180.773 86.3988 179.721 85.6761 178.604C82.8513 174.069 81.9973 169.15 82.1068 165.711C82.1178 163.98 82.3805 162.589 82.5776 161.647C82.8185 160.716 82.9718 160.201 83.0156 160.212C83.147 160.234 82.4681 162.293 82.5119 165.711C82.5119 169.096 83.4097 173.883 86.1688 178.308C86.8805 179.392 87.6031 180.422 88.4352 181.32C88.8294 181.791 89.2564 182.208 89.6834 182.613C89.8914 182.81 90.1104 183.051 90.2965 183.182C90.5155 183.303 90.5593 183.325 90.7016 183.161C92.0593 181.353 93.3403 179.754 94.4023 178.396C95.4206 177.125 96.2746 176.051 96.9425 175.219C97.5556 174.474 97.906 174.08 97.9388 174.102H97.9169Z" fill="#263238"/>
<path d="M118.532 159.883C118.532 159.883 118.576 160.037 118.598 160.321C118.631 160.617 118.642 161.044 118.642 161.603C118.631 162.709 118.488 164.342 117.941 166.258C117.404 168.186 116.474 170.366 115.401 172.743C114.328 175.142 112.937 177.672 111.35 180.247C110.561 181.528 109.751 182.777 108.974 183.96C108.777 184.256 108.591 184.551 108.394 184.847C108.185 185.132 108.065 185.428 107.737 185.734C107.572 185.888 107.299 185.986 107.047 185.943C106.795 185.899 106.609 185.778 106.467 185.647C106.171 185.373 106.007 185.099 105.799 184.847C104.244 182.777 102.831 180.904 101.627 179.294C100.499 177.76 99.5687 176.489 98.8571 175.525C98.2111 174.627 97.8717 174.123 97.9045 174.09C97.9374 174.058 98.3315 174.529 99.0323 175.383C99.7877 176.325 100.762 177.563 101.945 179.042C103.182 180.63 104.616 182.481 106.215 184.519C106.598 185.044 107.058 185.647 107.375 185.307C107.55 185.154 107.737 184.803 107.923 184.53C108.109 184.234 108.306 183.938 108.492 183.642C109.269 182.448 110.058 181.211 110.846 179.929C112.434 177.377 113.824 174.868 114.908 172.513C116.003 170.147 116.966 168 117.536 166.127C118.696 162.359 118.379 159.85 118.51 159.861L118.532 159.883Z" fill="#263238"/>
<path d="M84.3064 176.928C84.3283 177.015 83.1459 177.213 81.3831 178.034C79.6313 178.834 77.3101 180.378 75.5474 182.898L75.3832 183.128L75.1423 182.952C74.562 182.525 73.9379 182.087 73.2481 181.726C70.073 179.995 66.6679 179.743 64.3358 180.006C61.9818 180.291 60.6132 180.937 60.5803 180.827C60.5694 180.794 60.8979 180.619 61.5219 180.345C62.157 180.104 63.0876 179.787 64.292 179.601C66.6679 179.217 70.2153 179.403 73.5328 181.211C74.2445 181.583 74.8905 182.043 75.4926 182.492L75.0875 182.547C76.9488 179.94 79.4123 178.407 81.2408 177.673C82.1605 177.3 82.9269 177.092 83.4634 176.993C83.9999 176.895 84.2955 176.873 84.3064 176.906V176.928Z" fill="#263238"/>
<path d="M139.489 179.633C139.445 179.743 138.076 178.593 135.416 178.516C134.102 178.483 132.536 178.724 130.927 179.371C129.306 179.995 127.642 180.981 125.923 182.076C125.748 182.186 125.573 182.306 125.409 182.405L125.19 182.547L125.025 182.339C122.628 179.261 119.091 177.968 116.628 177.738C114.109 177.465 112.566 177.979 112.555 177.859C112.555 177.826 112.916 177.684 113.617 177.53C114.317 177.377 115.369 177.256 116.66 177.344C117.952 177.432 119.496 177.771 121.073 178.505C122.639 179.228 124.226 180.4 125.474 181.988L125.091 181.923C125.255 181.813 125.431 181.704 125.617 181.594C127.336 180.499 129.055 179.502 130.741 178.878C132.427 178.231 134.08 178.023 135.438 178.111C136.806 178.198 137.868 178.593 138.536 178.943C139.204 179.305 139.511 179.611 139.489 179.633Z" fill="#263238"/>
<path d="M133.565 275.042C133.565 275.042 133.433 275.185 133.138 275.393C132.787 275.645 132.371 275.951 131.857 276.324C131.572 276.532 131.255 276.751 130.915 276.981C130.565 277.211 130.16 277.43 129.744 277.682C128.89 278.164 127.959 278.777 126.831 279.292C126.273 279.566 125.693 279.851 125.09 280.136C124.477 280.421 123.82 280.651 123.141 280.935C121.806 281.516 120.317 281.943 118.751 282.436C115.598 283.301 112.05 283.97 108.284 284.211C104.507 284.408 100.904 284.167 97.6745 283.685C96.065 283.378 94.5322 283.126 93.1417 282.71C92.4409 282.513 91.7512 282.359 91.1161 282.151C90.4811 281.932 89.868 281.724 89.2877 281.516C88.1052 281.143 87.0979 280.651 86.2001 280.267C85.7512 280.07 85.3351 279.895 84.9519 279.709C84.5906 279.511 84.2512 279.325 83.9446 279.161C83.3863 278.854 82.9374 278.602 82.5541 278.394C82.2366 278.208 82.0833 278.109 82.0943 278.087C82.0943 278.065 82.2804 278.142 82.6089 278.284C82.9921 278.471 83.4629 278.69 84.0432 278.964C84.3607 279.117 84.7001 279.281 85.0724 279.468C85.4556 279.643 85.8826 279.796 86.3315 279.982C87.2402 280.333 88.2475 280.804 89.43 281.143C90.0103 281.33 90.6234 281.527 91.2585 281.735C91.8935 281.932 92.5833 282.075 93.273 282.261C94.6635 282.655 96.1854 282.885 97.773 283.17C100.97 283.619 104.539 283.849 108.262 283.652C111.985 283.411 115.499 282.765 118.62 281.932C120.163 281.461 121.652 281.056 122.977 280.497C123.645 280.234 124.313 280.015 124.915 279.741C125.517 279.457 126.098 279.194 126.656 278.931C127.784 278.449 128.725 277.868 129.59 277.408C130.017 277.167 130.422 276.97 130.773 276.751C131.123 276.532 131.441 276.324 131.736 276.138C132.273 275.798 132.711 275.524 133.083 275.294C133.39 275.108 133.565 275.02 133.576 275.031L133.565 275.042Z" fill="#263238"/>
<path d="M126.875 259.598C126.875 259.598 126.448 260.069 125.605 260.857C125.189 261.252 124.663 261.734 124.017 262.237C123.371 262.752 122.67 263.366 121.816 263.935C120.984 264.538 120.054 265.195 119.014 265.819C117.995 266.488 116.846 267.09 115.641 267.747C113.2 268.985 110.441 270.179 107.43 271.132C104.408 272.063 101.463 272.666 98.7473 273.038C97.3897 273.18 96.0977 273.345 94.8824 273.378C93.6671 273.465 92.5393 273.454 91.5101 273.432C90.4809 273.443 89.5503 273.345 88.7291 273.29C87.908 273.246 87.2072 273.159 86.6379 273.06C85.4992 272.896 84.8642 272.786 84.8751 272.742C84.8751 272.698 85.5211 272.742 86.6598 272.83C87.2291 272.885 87.9299 272.939 88.7401 272.961C89.5503 272.983 90.4809 273.06 91.4992 273.016C92.5284 273.016 93.6451 272.994 94.8495 272.896C96.0539 272.841 97.324 272.666 98.6707 272.512C101.342 272.118 104.266 271.504 107.255 270.584C110.233 269.631 112.97 268.47 115.4 267.276C116.594 266.641 117.744 266.06 118.762 265.414C119.813 264.812 120.733 264.187 121.587 263.607C122.452 263.059 123.174 262.468 123.831 261.986C124.488 261.504 125.035 261.065 125.473 260.693C126.36 259.959 126.864 259.565 126.886 259.598H126.875Z" fill="#263238"/>
<path d="M61.4337 180.575C61.4337 180.575 61.5651 181.09 61.6965 182.032C61.8388 183.084 62.014 184.431 62.233 186.03C62.6928 189.514 63.306 194.125 63.9738 199.219C64.7074 204.301 65.3643 208.902 65.868 212.385C66.0979 213.985 66.284 215.321 66.4373 216.373C66.5578 217.315 66.6125 217.84 66.5797 217.851C66.5359 217.851 66.4154 217.347 66.2183 216.416C66.0213 215.485 65.7694 214.127 65.4738 212.451C64.8716 209.099 64.1271 204.455 63.4154 199.295C62.7038 194.147 62.1673 189.47 61.8388 186.085C61.6746 184.387 61.5541 183.018 61.4885 182.065C61.4228 181.112 61.4009 180.586 61.4447 180.586L61.4337 180.575Z" fill="#263238"/>
<path d="M140.223 171.703C140.223 171.703 140.245 171.9 140.223 172.262C140.201 172.689 140.168 173.215 140.135 173.85C140.048 175.23 139.894 177.224 139.686 179.7C139.27 184.629 138.602 191.442 137.705 198.935C136.807 206.438 135.865 213.208 135.121 218.104C134.748 220.547 134.431 222.529 134.19 223.888C134.07 224.512 133.982 225.038 133.905 225.454C133.829 225.816 133.785 226.002 133.763 225.991C133.741 225.991 133.763 225.794 133.785 225.432C133.84 225.005 133.894 224.479 133.971 223.844C134.157 222.387 134.42 220.426 134.726 218.038C135.372 213.131 136.248 206.361 137.146 198.858C138.033 191.366 138.767 184.574 139.292 179.645C139.555 177.246 139.763 175.285 139.916 173.817C139.993 173.182 140.059 172.667 140.113 172.24C140.168 171.879 140.201 171.692 140.223 171.692V171.703Z" fill="#263238"/>
<path d="M144.12 206.975L112.795 225.859L104.704 223.581L67.5658 216.417L59.8906 240.789L89.113 243.55L102.011 249.728L108.23 247.033L135.405 228.346L144.12 206.975Z" fill="#EB5454"/>
<path d="M101.989 249.64C101.913 249.607 102.504 248.271 103.457 246.135C104.42 243.999 105.745 241.041 107.157 237.766C108.57 234.48 109.807 231.489 110.705 229.331C111.603 227.163 112.172 225.826 112.238 225.859C112.27 225.87 112.183 226.22 111.986 226.856C111.789 227.48 111.482 228.378 111.077 229.485C110.278 231.686 109.095 234.71 107.672 238.007C106.249 241.293 104.869 244.229 103.818 246.321C103.292 247.372 102.854 248.216 102.526 248.786C102.208 249.355 102.011 249.673 101.979 249.651L101.989 249.64Z" fill="#263238"/>
<path d="M101.112 231.796C100.969 231.742 101.539 229.912 102.404 227.722C103.258 225.531 104.079 223.8 104.221 223.855C104.363 223.91 103.794 225.739 102.929 227.93C102.075 230.12 101.254 231.851 101.112 231.785V231.796Z" fill="#263238"/>
<path d="M108.471 224.644C108.471 224.644 109.412 220.897 112.248 219.451C115.084 218.005 138.602 205.748 138.602 205.748L141.394 208.618L112.795 225.859L108.471 224.644Z" fill="#A4A4A4"/>
<path d="M70.7949 217.041L75.5577 214.653C75.5577 214.653 89.0466 213.196 96.8422 214.653C104.649 216.11 108.722 220.481 108.47 224.643L70.7949 217.041Z" fill="#A4A4A4"/>
<path d="M126.076 227.108C126.076 227.108 122.55 228.357 120.678 232.508C118.806 236.66 117.569 238.73 115.28 240.187C113.003 241.644 111.755 242.674 109.061 241.436C106.368 240.187 101.988 236.112 99.9301 235.773C98.7038 235.575 98.2768 237.481 98.2768 237.481C98.2768 237.481 92.879 233.889 91.0177 234.546C89.1455 235.203 90.8097 236.66 92.0579 238.106C93.306 239.563 94.1272 241.009 94.1272 241.009C94.5323 240.833 90.3717 236.923 87.8207 237.744C86.1455 238.281 86.6491 239.683 86.6491 239.683L89.7696 241.984C89.7696 241.984 88.1053 244.952 89.5615 245.576C91.0177 246.201 101.386 253.463 103.675 253.463C105.963 253.463 116.331 255.336 120.689 254.296C125.047 253.255 129.908 251.765 129.908 251.765C129.908 251.765 147.043 246.201 152.222 239.552L136.663 230C136.663 230 126.295 243.495 125.671 242.038C125.047 240.581 124.423 237.47 125.047 234.36C125.671 231.249 127.893 226.089 126.087 227.097L126.076 227.108Z" fill="#9D6054"/>
<path d="M111.701 247.384C111.69 247.45 110.726 247.307 109.292 246.683C107.836 246.08 106.106 244.788 104.157 243.539C102.132 242.301 100.533 240.845 99.482 239.694C98.4747 238.478 98.1791 237.515 98.2777 237.493C98.3324 237.471 98.7375 238.325 99.7886 239.431C100.873 240.472 102.482 241.852 104.475 243.068C106.467 244.35 108.121 245.664 109.478 246.332C110.825 247.033 111.734 247.307 111.712 247.406L111.701 247.384Z" fill="#724A44"/>
<path d="M108.163 251.765C108.12 251.831 107.277 251.338 105.963 250.473C104.649 249.607 102.875 248.348 100.97 246.869C99.0649 245.39 97.4116 243.988 96.2401 242.936C95.0686 241.885 94.3897 241.184 94.4445 241.129C94.4992 241.063 95.2766 241.655 96.5029 242.63C97.9043 243.736 99.5357 245.018 101.32 246.42C103.138 247.8 104.769 249.06 106.193 250.144C107.441 251.097 108.207 251.699 108.163 251.765Z" fill="#724A44"/>
<path d="M99.5237 250.385C99.3923 250.495 97.52 248.227 94.7828 245.894C92.0566 243.55 89.5383 242.049 89.615 241.896C89.6807 241.764 92.3741 243.068 95.1441 245.456C97.9361 247.833 99.6332 250.297 99.5127 250.374L99.5237 250.385Z" fill="#724A44"/>
<path d="M102.669 189.361C102.669 189.361 102.603 189.087 102.461 188.627C102.318 188.178 102.001 187.542 101.322 187.05C100.665 186.568 99.6141 186.305 98.6068 186.688C97.6104 187.039 96.7455 188.112 96.7564 189.35C96.7455 190.588 97.5995 191.661 98.6068 192.012C99.6141 192.395 100.676 192.132 101.322 191.65C102.001 191.168 102.318 190.522 102.461 190.073C102.603 189.624 102.614 189.339 102.669 189.339C102.702 189.339 102.767 189.613 102.669 190.128C102.581 190.621 102.297 191.365 101.552 191.968C100.84 192.57 99.625 192.932 98.4097 192.505C97.2053 192.121 96.1542 190.84 96.1761 189.35C96.1652 187.849 97.2163 186.579 98.4097 186.195C99.614 185.768 100.84 186.129 101.552 186.732C102.286 187.334 102.581 188.079 102.669 188.572C102.756 189.076 102.691 189.361 102.669 189.361Z" fill="#263238"/>
<path d="M103.763 210.261C103.763 210.261 103.697 209.987 103.554 209.527C103.412 209.078 103.095 208.443 102.416 207.95C101.759 207.468 100.708 207.205 99.7005 207.588C98.7042 207.939 97.8392 209.012 97.8502 210.25C97.8392 211.488 98.6932 212.562 99.7005 212.912C100.708 213.295 101.77 213.033 102.416 212.551C103.095 212.069 103.412 211.422 103.554 210.973C103.697 210.524 103.708 210.239 103.763 210.239C103.795 210.239 103.861 210.513 103.763 211.028C103.675 211.521 103.39 212.266 102.646 212.868C101.934 213.471 100.719 213.832 99.5034 213.405C98.2991 213.022 97.248 211.74 97.2699 210.25C97.2589 208.75 98.31 207.479 99.5034 207.096C100.708 206.668 101.934 207.03 102.646 207.632C103.379 208.235 103.675 208.98 103.763 209.473C103.85 209.976 103.784 210.261 103.763 210.261Z" fill="#263238"/>
<path d="M105.809 259.784C105.809 259.784 105.744 259.51 105.601 259.05C105.459 258.601 105.142 257.965 104.463 257.472C103.806 256.99 102.755 256.728 101.747 257.111C100.751 257.461 99.8861 258.535 99.897 259.773C99.8861 261.01 100.74 262.084 101.747 262.435C102.755 262.818 103.817 262.555 104.463 262.073C105.142 261.591 105.459 260.945 105.601 260.496C105.744 260.047 105.755 259.762 105.809 259.762C105.842 259.762 105.908 260.036 105.809 260.55C105.722 261.043 105.437 261.788 104.693 262.391C103.981 262.993 102.766 263.355 101.55 262.927C100.346 262.544 99.2948 261.262 99.3167 259.773C99.3058 258.272 100.357 257.001 101.55 256.618C102.766 256.191 103.981 256.552 104.693 257.155C105.426 257.757 105.722 258.502 105.809 258.995C105.897 259.499 105.831 259.784 105.809 259.784Z" fill="#263238"/>
<path d="M105.341 279.292C105.341 279.292 105.275 279.019 105.133 278.559C104.99 278.109 104.673 277.474 103.994 276.981C103.337 276.499 102.286 276.236 101.279 276.62C100.282 276.97 99.4173 278.044 99.4283 279.281C99.4173 280.519 100.271 281.593 101.279 281.943C102.286 282.327 103.348 282.064 103.994 281.582C104.673 281.1 104.99 280.454 105.133 280.004C105.275 279.555 105.286 279.271 105.341 279.271C105.373 279.271 105.439 279.544 105.341 280.059C105.253 280.552 104.968 281.297 104.224 281.899C103.512 282.502 102.297 282.863 101.082 282.436C99.8772 282.053 98.8261 280.771 98.848 279.281C98.837 277.781 99.8881 276.51 101.082 276.127C102.286 275.7 103.512 276.061 104.224 276.664C104.957 277.266 105.253 278.011 105.341 278.504C105.428 279.008 105.363 279.292 105.341 279.292Z" fill="#263238"/>
<path d="M77.6602 102.999C78.7441 99.0122 81.5141 95.5179 85.1382 93.5352C89.1236 91.3554 93.9301 91.0487 98.3753 91.9359C102.821 92.8232 106.97 94.8387 110.89 97.1171C113.091 98.3878 115.291 99.7899 116.868 101.783C119.758 105.42 120.153 110.382 120.437 115.016C120.667 118.762 120.853 122.694 119.277 126.101C117.82 129.223 114.875 131.611 111.514 132.389" fill="#263238"/>
<path d="M118.38 121.797C122.759 116.802 124.971 109.977 124.347 103.361C124.139 101.138 123.526 98.7826 121.817 97.3476C120.942 96.6137 119.858 96.1865 118.971 95.4745C117.35 94.171 116.551 92.0788 115.007 90.6876C113.431 89.2636 111.099 88.7159 109.062 89.3074C107.015 89.888 105.329 91.5749 104.737 93.6233C103.927 96.4384 105.142 99.4069 106.325 102.08C108.164 106.22 109.993 110.361 111.832 114.501C112.522 116.057 113.234 117.645 114.361 118.916C115.489 120.186 117.142 121.118 118.828 120.964" fill="#263238"/>
<path d="M79.5432 100.217C76.2914 103.744 74.2768 108.4 73.9484 113.198C73.6089 117.984 74.9447 122.881 77.671 126.835C79.9812 116.659 83.1782 106.68 87.2183 97.0625" fill="#263238"/>
<path d="M75.6021 114.063C76.0838 106.68 80.9889 97.6326 88.3465 98.4212L105.361 102.759C110.824 104.15 114.459 108.762 114.854 114.381C114.875 114.666 114.897 114.315 114.897 114.534L113.748 156.214L97.9158 174.091L87.0545 157.375C87.0545 153.782 87.0545 150.923 87.0545 150.934C87.0545 150.934 77.6276 149.346 75.7006 137.034C74.748 130.911 75.0765 122.257 75.6021 114.052V114.063Z" fill="#9D6054"/>
<path d="M92.5082 110.207C92.5301 110.284 90.9535 110.744 88.9389 110.941C86.9243 111.149 85.293 111.018 85.293 110.941C85.293 110.853 86.9243 110.842 88.9061 110.645C90.8878 110.448 92.4863 110.13 92.5082 110.207Z" fill="#724A44"/>
<path d="M89.757 109.769C89.7789 109.846 88.7935 110.109 87.5454 110.175C86.2972 110.24 85.2899 110.087 85.3009 110.01C85.3009 109.923 86.3082 109.945 87.5344 109.879C88.7607 109.813 89.7461 109.682 89.768 109.769H89.757Z" fill="#724A44"/>
<path d="M94.8814 134.142C94.7938 134.142 94.6952 133.649 94.1916 133.331C93.7098 132.992 93.2062 133.091 93.1843 133.014C93.1733 132.981 93.2938 132.893 93.5127 132.86C93.7427 132.828 94.0711 132.882 94.3558 133.08C94.6514 133.277 94.8266 133.562 94.8814 133.781C94.947 134 94.9032 134.142 94.8704 134.142H94.8814Z" fill="#724A44"/>
<path d="M80.1457 123.626C80.1128 124.459 80.7917 125.171 81.6676 125.226C82.5325 125.269 83.2661 124.645 83.2989 123.802C83.3318 122.969 82.653 122.257 81.788 122.202C80.923 122.159 80.1895 122.794 80.1566 123.626H80.1457Z" fill="#263238"/>
<path d="M77.7586 119.288C77.9557 119.496 79.1491 118.609 80.8462 118.62C82.5432 118.609 83.7914 119.485 83.9666 119.277C84.0542 119.189 83.8571 118.817 83.3206 118.412C82.7841 118.017 81.8754 117.634 80.8243 117.634C79.7622 117.634 78.8754 118.028 78.3608 118.422C77.8352 118.817 77.6601 119.189 77.7586 119.288Z" fill="#263238"/>
<path d="M95.9777 123.626C95.9449 124.459 96.6237 125.171 97.4996 125.226C98.3645 125.269 99.0981 124.634 99.131 123.802C99.1638 122.969 98.485 122.257 97.6091 122.202C96.7441 122.159 96.0106 122.794 95.9777 123.626Z" fill="#263238"/>
<path d="M94.4559 119.638C94.6529 119.847 95.8464 118.959 97.5434 118.97C99.2405 118.959 100.489 119.836 100.664 119.627C100.751 119.54 100.554 119.167 100.018 118.762C99.4814 118.368 98.5726 117.984 97.5215 117.984C96.4595 117.984 95.5726 118.379 95.0581 118.773C94.5325 119.167 94.3573 119.54 94.4559 119.638Z" fill="#263238"/>
<path d="M88.2575 132.224C88.2575 132.126 87.2064 131.94 85.4984 131.72C85.0604 131.677 84.6553 131.589 84.5787 131.293C84.4801 130.976 84.6553 130.516 84.8743 130.012C85.2794 128.96 85.7173 127.865 86.1662 126.715C87.9618 122.015 89.2538 118.149 89.0677 118.083C88.8815 118.017 87.2721 121.763 85.4765 126.463C85.0495 127.624 84.6334 128.73 84.2392 129.782C84.075 130.275 83.7903 130.833 84.0093 131.479C84.1298 131.808 84.4473 132.038 84.721 132.115C84.9947 132.202 85.2465 132.202 85.4546 132.213C87.1735 132.312 88.2465 132.323 88.2465 132.213L88.2575 132.224Z" fill="#263238"/>
<path d="M103.368 146.563C103.368 146.563 99.3612 155.02 87.0547 153.837V150.945C87.0547 150.945 95.1568 151.482 103.368 146.563Z" fill="#724A44"/>
<path d="M88.9711 136.322C89.5842 135.511 90.6572 135.073 91.7192 135.194C92.4528 135.27 93.1973 135.632 93.6462 136.234C94.0951 136.837 94.1827 137.691 93.7776 138.261C93.3178 138.907 92.3652 139.049 91.555 138.819C90.7448 138.589 90.0441 138.053 89.3871 137.516C89.201 137.373 89.0149 137.209 88.9054 137.012C88.7959 136.815 88.763 136.552 88.9054 136.377" fill="#724A44"/>
<path d="M93.2524 133.407C92.9787 133.386 92.9678 135.237 91.3911 136.54C89.8145 137.855 87.8547 137.636 87.8328 137.899C87.8109 138.019 88.2707 138.26 89.1028 138.282C89.9131 138.315 91.1065 138.052 92.07 137.252C93.0335 136.453 93.4495 135.379 93.5152 134.623C93.5919 133.857 93.3838 133.396 93.2524 133.407Z" fill="#263238"/>
<path d="M94.0404 114.665C94.2046 115.125 95.9017 114.917 97.8943 115.158C99.887 115.366 101.497 115.947 101.759 115.541C101.88 115.344 101.595 114.906 100.949 114.457C100.303 114.008 99.2848 113.581 98.0805 113.449C96.887 113.318 95.7922 113.504 95.0586 113.8C94.325 114.095 93.9528 114.457 94.0294 114.676L94.0404 114.665Z" fill="#263238"/>
<path d="M78.395 114.37C78.6906 114.754 79.8622 114.359 81.2746 114.348C82.676 114.283 83.8694 114.611 84.1431 114.206C84.2636 114.009 84.0774 113.625 83.5519 113.253C83.0373 112.892 82.1833 112.585 81.2198 112.618C80.2563 112.651 79.4132 112.99 78.9206 113.384C78.4279 113.779 78.2636 114.173 78.395 114.37Z" fill="#263238"/>
<path d="M78.9414 102.814C79.6968 100.962 81.7224 99.8451 83.726 99.7465C85.7296 99.6479 87.6676 100.404 89.3975 101.401C96.7223 105.64 100.839 114.052 108.087 118.434C109.872 119.507 111.832 120.34 113.343 121.775C114.854 123.21 115.839 125.488 115.007 127.394C115.981 126.058 116.967 124.699 117.514 123.144C118.072 121.589 118.138 119.781 117.306 118.346C116.682 117.262 115.576 116.429 115.27 115.213C115.007 114.14 115.423 113.023 115.379 111.927C115.335 110.81 114.81 109.769 114.251 108.783C111.416 103.767 107.518 99.2316 102.492 96.4055C99.2076 94.5653 95.4522 93.4808 91.6968 93.6123C87.9304 93.7437 84.1749 95.1239 81.4268 97.6871C79.8063 99.1988 78.1093 100.765 78.9414 102.814Z" fill="#263238"/>
<path d="M114.907 127.438C114.907 127.438 115.049 127.274 115.29 126.934C115.531 126.605 115.86 126.08 116.09 125.324C116.582 123.845 116.593 121.446 115.411 118.883C114.852 117.59 114.075 116.265 113.265 114.808C112.444 113.362 111.732 111.719 111.009 110.01C110.276 108.301 109.52 106.483 108.436 104.796C107.374 103.087 105.984 101.499 104.363 100.108C101.123 97.3037 97.2138 95.6825 93.5678 95.1348C89.9 94.5871 86.462 95.1348 83.9876 96.4274C81.4913 97.72 80.057 99.6369 79.3782 101.028C79.0278 101.729 78.8526 102.321 78.7431 102.715C78.6446 103.12 78.6008 103.328 78.5898 103.328C78.5898 103.328 78.5898 103.274 78.6008 103.164C78.6227 103.055 78.6336 102.901 78.6774 102.693C78.765 102.288 78.9293 101.685 79.2687 100.973C79.9256 99.5493 81.349 97.5776 83.8891 96.2302C86.3964 94.8719 89.9 94.3023 93.6116 94.85C97.3123 95.3868 101.287 97.0299 104.571 99.8779C106.214 101.28 107.626 102.901 108.699 104.632C109.805 106.352 110.56 108.181 111.283 109.901C111.995 111.62 112.695 113.242 113.495 114.688C114.283 116.144 115.06 117.481 115.619 118.795C116.79 121.402 116.747 123.867 116.21 125.357C115.958 126.112 115.619 126.638 115.356 126.967C115.093 127.295 114.929 127.427 114.929 127.427L114.907 127.438Z" fill="#455A64"/>
<path d="M120.58 120.986C120.58 120.986 120.569 120.866 120.58 120.636C120.58 120.373 120.602 120.044 120.624 119.628C120.656 118.763 120.7 117.492 120.646 115.948C120.602 114.392 120.459 112.541 120.054 110.536C119.627 108.543 118.883 106.363 117.416 104.512C115.981 102.639 114.24 101.16 112.697 99.8125C111.142 98.4651 109.686 97.315 108.427 96.4058C107.168 95.4966 106.095 94.8284 105.35 94.3903C105 94.1822 104.715 94.0179 104.485 93.8864C104.288 93.7659 104.189 93.7111 104.189 93.7002C104.189 93.7002 104.31 93.7331 104.518 93.8316C104.726 93.9302 105.033 94.0836 105.416 94.2808C106.182 94.697 107.277 95.3433 108.558 96.2305C109.839 97.1178 111.317 98.268 112.883 99.6043C114.438 100.952 116.2 102.42 117.667 104.336C119.167 106.231 119.923 108.477 120.339 110.493C120.744 112.53 120.854 114.392 120.875 115.959C120.897 117.525 120.821 118.785 120.755 119.661C120.722 120.099 120.689 120.439 120.656 120.658C120.624 120.888 120.613 121.008 120.602 121.008L120.58 120.986Z" fill="#455A64"/>
<path d="M115.182 91.2461C115.182 91.2461 115.379 91.7609 115.521 92.6372C115.664 93.5135 115.762 94.7513 115.686 96.0987C115.598 97.457 115.357 98.6728 115.116 99.5272C114.875 100.382 114.646 100.886 114.613 100.875C114.514 100.853 115.237 98.7714 115.39 96.0877C115.565 93.415 115.094 91.257 115.193 91.2461H115.182Z" fill="#455A64"/>
<path d="M123.842 100.36C123.842 100.36 123.765 100.788 123.426 101.39C123.086 101.992 122.484 102.748 121.63 103.373C120.776 103.997 119.867 104.348 119.2 104.49C118.532 104.632 118.094 104.61 118.094 104.578C118.094 104.523 118.51 104.468 119.145 104.282C119.78 104.096 120.634 103.723 121.455 103.132C122.265 102.529 122.867 101.828 123.24 101.28C123.612 100.733 123.787 100.349 123.842 100.371V100.36Z" fill="#455A64"/>
<path d="M124.443 108.641C124.465 108.707 123.403 109.112 121.99 109.09C120.589 109.035 119.549 108.564 119.571 108.51C119.593 108.411 120.666 108.74 122.001 108.783C123.337 108.805 124.421 108.542 124.443 108.641Z" fill="#455A64"/>
<path d="M119.089 130.154C118.794 130.012 118.936 129.19 118.98 127.876C118.98 127.229 118.98 126.43 118.717 125.718C118.651 125.542 118.586 125.378 118.487 125.225C118.454 125.137 118.389 125.082 118.345 125.006C118.301 124.94 118.213 124.82 118.137 124.721C117.83 124.316 117.491 123.899 117.119 123.538C116.757 123.176 116.319 122.87 116.056 122.793C115.925 122.749 115.892 122.793 115.947 122.815C115.805 122.848 115.662 122.87 115.52 122.903C115.367 122.935 115.213 122.979 115.06 123.012C114.447 123.166 113.889 123.374 113.308 123.669C113.024 123.823 112.728 123.987 112.432 124.173L112.213 124.316L111.83 124.546C111.567 124.688 111.316 124.809 111.053 124.918C109.991 125.334 108.885 125.575 107.593 125.499C106.947 125.455 106.246 125.323 105.524 124.973L105.261 124.841L105.053 124.71C104.911 124.622 104.768 124.546 104.637 124.447C104.363 124.261 104.111 124.053 103.87 123.834C102.907 122.957 102.261 121.928 101.757 120.953C101.254 119.978 100.881 119.025 100.531 118.16C99.1734 114.797 97.2792 111.883 95.2428 109.473C93.2063 107.063 91.0275 105.179 89.0786 103.755C87.1187 102.287 85.4655 101.422 84.2282 100.973C83.002 100.513 82.2027 100.392 82.1589 100.064C82.1042 99.7789 82.8925 99.2641 84.502 99.2203C86.1005 99.1655 88.3778 99.757 90.7537 101.006C93.1515 102.222 95.845 104.062 98.3522 106.658C100.849 109.232 103.17 112.562 104.746 116.429C105.13 117.36 105.458 118.203 105.808 118.915C106.159 119.627 106.531 120.197 106.925 120.58C107.024 120.679 107.122 120.756 107.221 120.843C107.265 120.887 107.319 120.909 107.374 120.953L107.451 121.008L107.484 121.029C107.571 121.084 107.746 121.15 107.987 121.183C108.458 121.249 109.093 121.183 109.608 121.008C109.739 120.964 109.859 120.92 109.969 120.865L110.133 120.789L110.44 120.624C110.856 120.405 111.283 120.208 111.721 120.022C112.597 119.66 113.538 119.419 114.403 119.31C114.622 119.277 114.83 119.255 115.038 119.233L115.345 119.211L115.695 119.189C116.483 119.145 117.162 119.386 117.644 119.649C118.629 120.208 119.155 120.865 119.615 121.479C120.064 122.092 120.392 122.694 120.677 123.286C120.743 123.439 120.808 123.56 120.874 123.746C120.94 123.932 121.016 124.108 121.06 124.283C121.159 124.633 121.213 124.973 121.246 125.302C121.334 126.594 121.027 127.569 120.721 128.303C120.086 129.76 119.363 130.318 119.111 130.176L119.089 130.154Z" fill="#263238"/>
<path d="M113.168 123.308C113.299 122.958 119.715 120.636 119.803 127.46C119.891 134.087 113.201 132.784 113.19 132.597C113.179 132.411 113.179 123.308 113.179 123.308H113.168Z" fill="#9D6054"/>
<path d="M115.203 130.067C115.203 130.067 115.324 130.144 115.521 130.231C115.707 130.319 116.035 130.374 116.386 130.231C117.086 129.968 117.667 128.851 117.689 127.657C117.699 127.055 117.568 126.485 117.349 126.003C117.141 125.521 116.824 125.181 116.473 125.127C116.123 125.05 115.871 125.258 115.794 125.444C115.707 125.631 115.751 125.762 115.718 125.773C115.696 125.795 115.575 125.663 115.63 125.39C115.652 125.258 115.729 125.105 115.882 124.973C116.035 124.842 116.276 124.776 116.517 124.798C117.032 124.831 117.491 125.291 117.732 125.817C117.995 126.343 118.159 126.978 118.148 127.657C118.116 128.993 117.448 130.253 116.495 130.538C116.035 130.669 115.641 130.527 115.433 130.374C115.225 130.209 115.192 130.067 115.214 130.056L115.203 130.067Z" fill="#724A44"/>
<path d="M118.282 123.21C118.282 123.21 118.205 123.035 117.997 122.761C117.8 122.487 117.417 122.115 116.804 121.885C116.201 121.655 115.38 121.545 114.461 121.677C113.53 121.786 112.566 122.257 111.483 122.75C110.41 123.221 109.161 123.813 107.705 123.703C106.26 123.593 104.859 122.783 103.786 121.611C102.702 120.428 102.001 118.872 101.442 117.262C100.895 115.641 100.391 113.954 99.7235 112.278C98.4206 108.926 96.6797 105.892 94.5009 103.657C92.3549 101.39 89.7601 100.086 87.4827 99.5168C86.344 99.232 85.282 99.1224 84.3404 99.1224C83.4098 99.1444 82.5995 99.2539 81.9645 99.4072C80.6835 99.7249 80.0375 100.086 80.0156 100.043C80.0156 100.043 80.0485 100.01 80.1361 99.9768C80.2346 99.933 80.355 99.8783 80.4974 99.8016C80.8149 99.6482 81.2966 99.462 81.9426 99.2868C82.5886 99.1115 83.3988 98.991 84.3404 98.9472C85.293 98.9362 86.3769 99.0239 87.5375 99.3087C89.8477 99.8673 92.5082 101.171 94.698 103.471C96.9206 105.728 98.6834 108.795 99.9972 112.169C100.665 113.855 101.169 115.564 101.716 117.164C102.264 118.763 102.942 120.274 103.994 121.425C105.023 122.564 106.358 123.352 107.727 123.462C109.096 123.572 110.322 123.024 111.395 122.564C112.468 122.093 113.475 121.622 114.428 121.523C115.38 121.403 116.212 121.523 116.837 121.786C117.461 122.049 117.844 122.443 118.03 122.739C118.128 122.881 118.183 123.013 118.216 123.09C118.249 123.177 118.271 123.221 118.26 123.221L118.282 123.21Z" fill="#455A64"/>
<path d="M115.804 119.901C115.804 119.901 115.662 119.836 115.399 119.682C115.147 119.518 114.753 119.31 114.293 118.97C113.362 118.302 112.081 117.24 110.713 115.717C109.333 114.194 107.899 112.234 106.333 110.032C104.768 107.841 103.049 105.409 100.859 103.219C99.7422 102.145 98.5706 101.181 97.3334 100.425C96.0962 99.6585 94.7933 99.0998 93.5232 98.6946C90.9721 97.873 88.5196 97.6977 86.505 97.8292C84.4795 97.9606 82.87 98.3878 81.797 98.7493C81.2496 98.9136 80.8445 99.0998 80.5708 99.2094C80.297 99.3189 80.1438 99.3737 80.1328 99.3627C80.1328 99.3627 80.2642 99.2861 80.5379 99.1546C80.8116 99.0341 81.2058 98.826 81.7532 98.6398C82.8262 98.2345 84.4357 97.7744 86.4831 97.6101C88.5196 97.4458 91.005 97.6101 93.5999 98.4207C94.8918 98.826 96.2166 99.3956 97.4867 100.162C98.7568 100.929 99.9502 101.904 101.078 102.988C103.29 105.212 105.009 107.655 106.563 109.857C108.107 112.069 109.53 114.041 110.866 115.564C112.202 117.097 113.45 118.171 114.359 118.872C114.808 119.211 115.191 119.441 115.432 119.617C115.673 119.792 115.804 119.879 115.804 119.89V119.901Z" fill="#455A64"/>
<path d="M115.958 131.239C116.604 131.119 117.305 131.568 117.458 132.203C117.622 132.839 117.217 133.562 116.593 133.77C115.969 133.967 115.213 133.605 114.983 133.003C114.743 132.389 115.06 131.623 115.651 131.349" fill="#FBFBFB"/>
<path d="M115.641 131.338C115.641 131.338 115.214 131.568 115.05 132.225C114.974 132.543 115.017 132.959 115.313 133.265C115.587 133.572 116.09 133.758 116.55 133.616C116.999 133.474 117.306 133.024 117.349 132.608C117.415 132.192 117.207 131.82 116.955 131.611C116.441 131.162 115.948 131.283 115.959 131.228C115.959 131.217 116.057 131.162 116.265 131.151C116.474 131.151 116.791 131.206 117.087 131.436C117.382 131.655 117.678 132.104 117.623 132.63C117.579 133.145 117.229 133.693 116.638 133.89C116.036 134.076 115.433 133.824 115.105 133.43C114.744 133.035 114.733 132.499 114.842 132.148C114.963 131.787 115.182 131.546 115.346 131.436C115.521 131.316 115.63 131.305 115.641 131.316V131.338Z" fill="#263238"/>
<path d="M202.534 136.292L192.566 159.476H186.602L190.354 151.328L183.914 136.292H190.018L193.322 145.196L196.514 136.292H202.534ZM211.578 152.196C210.01 152.196 208.6 151.869 207.35 151.216C206.118 150.563 205.147 149.629 204.438 148.416C203.728 147.203 203.374 145.775 203.374 144.132C203.374 142.508 203.728 141.089 204.438 139.876C205.166 138.663 206.146 137.729 207.378 137.076C208.628 136.423 210.038 136.096 211.606 136.096C213.174 136.096 214.574 136.423 215.806 137.076C217.056 137.729 218.036 138.663 218.746 139.876C219.474 141.089 219.838 142.508 219.838 144.132C219.838 145.756 219.474 147.184 218.746 148.416C218.036 149.629 217.056 150.563 215.806 151.216C214.555 151.869 213.146 152.196 211.578 152.196ZM211.578 147.436C212.343 147.436 212.978 147.156 213.482 146.596C214.004 146.017 214.266 145.196 214.266 144.132C214.266 143.068 214.004 142.256 213.482 141.696C212.978 141.136 212.352 140.856 211.606 140.856C210.859 140.856 210.234 141.136 209.73 141.696C209.226 142.256 208.974 143.068 208.974 144.132C208.974 145.215 209.216 146.036 209.702 146.596C210.187 147.156 210.812 147.436 211.578 147.436ZM238.442 136.292V152H232.926V149.76C232.46 150.469 231.816 151.048 230.994 151.496C230.173 151.925 229.23 152.14 228.166 152.14C226.337 152.14 224.89 151.543 223.826 150.348C222.781 149.135 222.258 147.492 222.258 145.42V136.292H227.718V144.72C227.718 145.616 227.952 146.325 228.418 146.848C228.904 147.352 229.538 147.604 230.322 147.604C231.125 147.604 231.76 147.352 232.226 146.848C232.693 146.325 232.926 145.616 232.926 144.72V136.292H238.442ZM247.354 139.064C247.97 138.168 248.716 137.459 249.594 136.936C250.471 136.413 251.414 136.152 252.422 136.152V142.004H250.882C249.687 142.004 248.8 142.237 248.222 142.704C247.643 143.171 247.354 143.983 247.354 145.14V152H241.866V136.292H247.354V139.064ZM262.501 132.26C264.573 132.26 266.384 132.68 267.933 133.52C269.501 134.341 270.705 135.499 271.545 136.992C272.385 138.485 272.805 140.193 272.805 142.116C272.805 144.02 272.376 145.719 271.517 147.212C270.677 148.705 269.473 149.881 267.905 150.74C266.356 151.58 264.554 152 262.501 152H254.689V132.26H262.501ZM262.081 147.156C263.686 147.156 264.946 146.717 265.861 145.84C266.776 144.963 267.233 143.721 267.233 142.116C267.233 140.492 266.776 139.241 265.861 138.364C264.946 137.468 263.686 137.02 262.081 137.02H260.177V147.156H262.081ZM298.623 132.26V152H293.135V141.108L289.411 152H284.819L281.067 141.024V152H275.579V132.26H282.215L287.171 145.084L292.015 132.26H298.623ZM314.535 148.78H307.535L306.471 152H300.703L307.899 132.26H314.227L321.395 152H315.599L314.535 148.78ZM313.163 144.58L311.035 138.196L308.935 144.58H313.163ZM333.48 152L329.56 144.72H328.972V152H323.484V132.26H332.136C333.722 132.26 335.066 132.54 336.168 133.1C337.269 133.641 338.1 134.397 338.66 135.368C339.22 136.32 339.5 137.393 339.5 138.588C339.5 139.932 339.126 141.117 338.38 142.144C337.652 143.152 336.578 143.871 335.16 144.3L339.612 152H333.48ZM328.972 140.968H331.688C332.434 140.968 332.994 140.791 333.368 140.436C333.741 140.081 333.928 139.568 333.928 138.896C333.928 138.261 333.732 137.767 333.34 137.412C332.966 137.039 332.416 136.852 331.688 136.852H328.972V140.968ZM341.623 142.088C341.623 140.147 342.025 138.42 342.827 136.908C343.649 135.377 344.806 134.192 346.299 133.352C347.793 132.493 349.51 132.064 351.451 132.064C353.915 132.064 355.987 132.727 357.667 134.052C359.347 135.359 360.43 137.141 360.915 139.4H355.007C354.653 138.653 354.158 138.084 353.523 137.692C352.907 137.3 352.189 137.104 351.367 137.104C350.098 137.104 349.081 137.561 348.315 138.476C347.569 139.372 347.195 140.576 347.195 142.088C347.195 143.619 347.569 144.841 348.315 145.756C349.081 146.652 350.098 147.1 351.367 147.1C352.189 147.1 352.907 146.904 353.523 146.512C354.158 146.12 354.653 145.551 355.007 144.804H360.915C360.43 147.063 359.347 148.855 357.667 150.18C355.987 151.487 353.915 152.14 351.451 152.14C349.51 152.14 347.793 151.72 346.299 150.88C344.806 150.021 343.649 148.836 342.827 147.324C342.025 145.793 341.623 144.048 341.623 142.088Z" fill="#FBFBFB"/>
<g opacity="0.7">
<path d="M218.151 278.508L222.716 275.99C223.098 275.783 223.564 275.81 223.92 276.055C224.373 276.372 224.845 276.671 225.332 276.951C226.239 277.477 227.162 277.925 228.103 278.287C228.544 278.457 228.837 278.869 228.843 279.338L228.945 284.789C228.951 285.372 229.407 285.853 229.996 285.891L234.967 286.229C235.531 286.265 236.027 285.877 236.128 285.324L237.009 280.38C237.084 279.897 237.478 279.526 237.977 279.46C240.079 279.177 242.133 278.558 244.059 277.626C244.524 277.402 245.095 277.528 245.426 277.925L247.385 280.267C247.761 280.709 248.412 280.808 248.901 280.488L253.007 277.728C253.091 277.671 253.168 277.611 253.231 277.534C253.541 277.187 253.607 276.668 253.371 276.246L251.493 272.832L251.033 272.002C251.607 271.273 252.138 270.49 252.613 269.669C253.255 268.561 253.78 267.411 254.186 266.252C254.345 265.81 254.751 265.505 255.219 265.502L259.608 265.424C260.209 265.409 260.701 264.946 260.737 264.349L260.997 260.547L261.068 259.456C261.11 258.862 260.695 258.327 260.11 258.226L255.981 257.488C255.5 257.407 255.127 257.034 255.058 256.559C254.831 255.146 254.455 253.757 253.935 252.431C253.9 252.311 253.855 252.207 253.807 252.093C253.789 252.057 253.777 252.019 253.768 251.98C253.634 251.541 253.783 251.069 254.139 250.773L257.933 247.586C257.978 247.553 258.017 247.508 258.053 247.469C258.393 247.087 258.438 246.508 258.151 246.071L255.407 241.973C255.076 241.477 254.425 241.319 253.897 241.606L249.134 244.234C248.734 244.462 248.236 244.411 247.88 244.121C247.089 243.488 246.238 242.902 245.328 242.374C244.844 242.093 244.357 241.836 243.861 241.603C243.461 241.409 243.199 241.008 243.193 240.566L243.094 235.327C243.085 234.751 242.634 234.27 242.052 234.231L237.135 233.902C236.54 233.861 236.009 234.27 235.901 234.864L235.206 238.774C235.113 239.3 234.677 239.685 234.152 239.721C232.077 239.841 230.034 240.292 228.1 241.038C227.646 241.224 227.117 241.089 226.798 240.707L223.926 237.284C223.54 236.824 222.872 236.731 222.37 237.063L218.285 239.796C217.793 240.124 217.64 240.776 217.924 241.283L218.032 241.483L220.214 245.45C220.447 245.874 220.393 246.388 220.08 246.761V246.767C219.327 247.655 218.644 248.622 218.041 249.665C217.718 250.22 217.431 250.785 217.166 251.362C216.987 251.765 216.592 252.022 216.154 252.031L211.699 252.108C211.09 252.117 210.588 252.595 210.549 253.199L210.221 258.097C210.212 258.238 210.233 258.372 210.266 258.498C210.385 258.904 210.731 259.226 211.164 259.307L214.464 259.889C214.867 259.964 215.201 260.251 215.338 260.627C215.374 260.726 215.398 260.833 215.407 260.944C215.577 263.605 216.276 266.201 217.464 268.594C217.67 268.997 217.602 269.481 217.318 269.824C217.276 269.872 217.231 269.917 217.181 269.962L214.105 272.542C213.66 272.916 213.565 273.564 213.887 274.054L213.95 274.149L216.619 278.149C216.96 278.651 217.62 278.806 218.148 278.517L218.151 278.508ZM243.172 252.237C243.727 252.81 244.256 253.455 244.736 254.181C245.65 255.567 246.328 258.067 246.217 259.728C246.205 259.904 246.19 260.081 246.175 260.257C245.083 270.897 232.086 274.242 226.007 265.26C225.215 264.083 224.606 262.148 224.472 260.526C224.445 260.149 224.439 259.788 224.466 259.468C224.576 257.96 224.92 256.595 225.451 255.376C228.494 248.443 237.576 246.546 243.175 252.24L243.172 252.237Z" fill="white"/>
</g>
<path d="M263.761 242.592L266.618 241.621C266.857 241.543 267.12 241.603 267.299 241.782C267.526 242.009 267.765 242.227 268.013 242.436C268.475 242.827 268.956 243.177 269.458 243.479C269.691 243.619 269.816 243.885 269.771 244.154L269.276 247.269C269.219 247.601 269.431 247.923 269.762 248.004L272.56 248.7C272.876 248.778 273.199 248.607 273.312 248.303L274.316 245.576C274.408 245.31 274.668 245.136 274.96 245.148C276.188 245.199 277.421 245.056 278.612 244.721C278.899 244.641 279.212 244.772 279.362 245.029L280.239 246.564C280.41 246.854 280.771 246.976 281.081 246.842L283.7 245.686C283.754 245.662 283.804 245.635 283.846 245.599C284.058 245.435 284.148 245.142 284.055 244.88L283.333 242.744L283.156 242.224C283.557 241.869 283.939 241.474 284.294 241.053C284.772 240.486 285.187 239.885 285.539 239.267C285.673 239.031 285.936 238.9 286.202 238.944L288.71 239.345C289.053 239.398 289.382 239.183 289.462 238.846L289.997 236.704L290.149 236.092C290.233 235.757 290.051 235.411 289.728 235.294L287.45 234.455C287.184 234.359 287.008 234.108 287.017 233.834C287.032 233.006 286.957 232.176 286.796 231.366C286.787 231.295 286.772 231.229 286.757 231.16C286.751 231.136 286.748 231.115 286.745 231.091C286.712 230.829 286.847 230.575 287.08 230.44L289.567 229.009C289.597 228.995 289.624 228.974 289.647 228.956C289.88 228.774 289.964 228.448 289.845 228.17L288.698 225.557C288.561 225.24 288.205 225.085 287.874 225.195L284.894 226.211C284.643 226.3 284.366 226.22 284.19 226.016C283.804 225.574 283.377 225.156 282.912 224.762C282.664 224.553 282.413 224.359 282.153 224.174C281.944 224.024 281.837 223.767 281.879 223.513L282.353 220.517C282.407 220.189 282.198 219.869 281.87 219.786L279.102 219.099C278.767 219.015 278.424 219.194 278.302 219.523L277.507 221.679C277.4 221.969 277.113 222.145 276.812 222.112C275.617 221.972 274.408 222.02 273.229 222.25C272.951 222.31 272.664 222.178 272.521 221.93L271.231 219.687C271.058 219.385 270.685 219.266 270.368 219.403L267.765 220.544C267.451 220.682 267.296 221.037 267.409 221.357L267.451 221.482L268.293 223.964C268.383 224.23 268.299 224.517 268.084 224.696C267.568 225.129 267.078 225.61 266.63 226.142C266.391 226.426 266.17 226.718 265.958 227.02C265.815 227.232 265.564 227.34 265.313 227.298L262.767 226.889C262.417 226.832 262.083 227.053 262.002 227.394L261.318 230.151C261.301 230.228 261.298 230.309 261.304 230.384C261.33 230.625 261.495 230.847 261.734 230.936L263.555 231.602C263.776 231.686 263.94 231.883 263.979 232.11C263.988 232.17 263.991 232.232 263.985 232.295C263.812 233.831 263.949 235.381 264.382 236.862C264.46 237.113 264.37 237.382 264.173 237.549C264.146 237.573 264.113 237.594 264.08 237.612L262.065 238.771C261.772 238.938 261.653 239.3 261.787 239.61L261.814 239.67L262.931 242.221C263.074 242.541 263.435 242.696 263.767 242.586L263.761 242.592ZM280.681 230.162C280.941 230.545 281.174 230.966 281.374 231.429C281.756 232.31 281.887 233.807 281.655 234.739C281.631 234.84 281.604 234.936 281.577 235.034C279.875 240.984 272.13 241.573 269.577 235.838C269.246 235.088 269.093 233.923 269.183 232.985C269.207 232.767 269.237 232.561 269.288 232.382C269.503 231.534 269.837 230.79 270.264 230.151C272.7 226.509 278.069 226.351 280.681 230.162Z" fill="#E4E4E4"/>
<path d="M272.139 318.812L279.547 315.212C280.168 314.92 280.897 314.997 281.44 315.415C282.133 315.95 282.849 316.461 283.596 316.945C284.981 317.847 286.402 318.629 287.856 319.275C288.537 319.579 288.967 320.254 288.937 320.995L288.654 329.601C288.615 330.518 289.295 331.315 290.221 331.426L298.032 332.367C298.919 332.471 299.731 331.895 299.937 331.032L301.728 323.31C301.886 322.554 302.534 322.002 303.326 321.936C306.664 321.661 309.954 320.855 313.065 319.543C313.818 319.227 314.707 319.475 315.194 320.123L318.09 323.979C318.646 324.705 319.667 324.917 320.464 324.451L327.167 320.437C327.304 320.356 327.43 320.263 327.534 320.15C328.054 319.63 328.2 318.812 327.86 318.131L325.178 312.593L324.522 311.245C325.483 310.143 326.385 308.951 327.203 307.694C328.305 305.997 329.227 304.229 329.965 302.437C330.248 301.753 330.914 301.308 331.655 301.338L338.585 301.574C339.531 301.6 340.346 300.907 340.451 299.969L341.17 293.995L341.37 292.284C341.484 291.349 340.875 290.471 339.961 290.265L333.512 288.762C332.762 288.598 332.201 287.974 332.132 287.224C331.89 284.975 331.413 282.758 330.699 280.623C330.651 280.431 330.589 280.261 330.526 280.082C330.499 280.022 330.487 279.959 330.475 279.897C330.299 279.195 330.574 278.46 331.156 278.024L337.402 273.304C337.477 273.257 337.54 273.191 337.599 273.131C338.167 272.555 338.286 271.647 337.868 270.936L333.876 264.245C333.392 263.438 332.38 263.134 331.526 263.543L323.802 267.3C323.151 267.626 322.372 267.507 321.831 267.017C320.637 265.95 319.341 264.959 317.95 264.054C317.212 263.573 316.46 263.128 315.699 262.718C315.081 262.381 314.701 261.727 314.728 261.028L315 252.757C315.033 251.846 314.358 251.054 313.444 250.943L305.714 250.023C304.78 249.91 303.908 250.51 303.69 251.442L302.272 257.554C302.081 258.375 301.367 258.949 300.531 258.964C297.25 258.985 293.992 259.528 290.878 260.547C290.146 260.801 289.325 260.547 288.854 259.917L284.605 254.283C284.035 253.527 282.987 253.327 282.171 253.805L275.507 257.781C274.704 258.256 274.408 259.274 274.818 260.099L274.97 260.424L278.09 266.858C278.424 267.548 278.296 268.355 277.773 268.913L277.767 268.919C276.513 270.258 275.355 271.724 274.319 273.322C273.766 274.174 273.268 275.04 272.799 275.927C272.483 276.545 271.841 276.922 271.148 276.901L264.114 276.659C263.152 276.623 262.322 277.337 262.212 278.284L261.292 285.984C261.268 286.205 261.286 286.42 261.328 286.62C261.486 287.269 262.003 287.809 262.68 287.971L267.837 289.156C268.467 289.309 268.971 289.787 269.156 290.39C269.204 290.548 269.231 290.719 269.237 290.892C269.288 295.104 270.181 299.256 271.859 303.124C272.154 303.775 272.002 304.537 271.527 305.053C271.459 305.125 271.381 305.194 271.297 305.257L266.236 309.074C265.502 309.627 265.302 310.642 265.771 311.44L265.863 311.595L269.748 318.119C270.246 318.937 271.27 319.239 272.13 318.821L272.139 318.812ZM313.74 279.425C314.57 280.372 315.349 281.435 316.048 282.618C317.377 284.876 318.24 288.879 317.929 291.483C317.896 291.764 317.857 292.039 317.819 292.314C315.23 309.005 294.458 313.22 285.605 298.557C284.453 296.639 283.649 293.532 283.572 290.964C283.563 290.369 283.578 289.799 283.646 289.297C283.942 286.928 284.596 284.801 285.536 282.926C290.902 272.241 305.38 269.992 313.74 279.425Z" fill="white"/>
</g>
<defs>
<clipPath id="clip0_1031_1857">
<rect width="509" height="480" fill="white"/>
</clipPath>
</defs>
</svg>
