<svg width="543" height="400" viewBox="0 0 543 400" fill="none" xmlns="http://www.w3.org/2000/svg">
<path d="M488.08 372.64H452.149V372.911H488.08V372.64Z" fill="#EBEBEB"/>
<path d="M359.329 375.591H349.901V375.862H359.329V375.591Z" fill="#EBEBEB"/>
<path d="M451.065 362.572H430.246V362.843H451.065V362.572Z" fill="#EBEBEB"/>
<path d="M103.767 364.395H56.9121V364.666H103.767V364.395Z" fill="#EBEBEB"/>
<path d="M120.301 364.395H113.434V364.666H120.301V364.395Z" fill="#EBEBEB"/>
<path d="M244.257 368.973H142.627V369.244H244.257V368.973Z" fill="#EBEBEB"/>
<path d="M257.112 306.799H47.6467C46.0038 306.799 44.4282 306.147 43.2665 304.985C42.1048 303.823 41.4521 302.248 41.4521 300.605V6.14033C41.4665 4.50684 42.1254 2.94513 43.2856 1.79513C44.4457 0.645128 46.0132 -6.26248e-05 47.6467 4.55919e-09H257.112C258.755 4.55921e-09 260.331 0.652641 261.492 1.81435C262.654 2.97606 263.307 4.55167 263.307 6.19457V300.605C263.307 302.248 262.654 303.823 261.492 304.985C260.331 306.147 258.755 306.799 257.112 306.799ZM47.6467 0.216974C46.0766 0.219841 44.5717 0.844827 43.4614 1.95505C42.3512 3.06527 41.7262 4.57024 41.7234 6.14033V300.605C41.7262 302.175 42.3512 303.68 43.4614 304.79C44.5717 305.9 46.0766 306.525 47.6467 306.528H257.112C258.682 306.525 260.187 305.9 261.297 304.79C262.408 303.68 263.033 302.175 263.036 300.605V6.14033C263.033 4.57024 262.408 3.06527 261.297 1.95505C260.187 0.844827 258.682 0.219841 257.112 0.216974H47.6467Z" fill="#EBEBEB"/>
<path d="M491.779 306.799H282.292C280.65 306.797 279.076 306.143 277.915 304.982C276.754 303.821 276.101 302.247 276.098 300.605V6.14033C276.115 4.50773 276.775 2.94766 277.934 1.79826C279.094 0.648866 280.66 0.00276455 282.292 0H491.779C493.409 0.00564617 494.971 0.653358 496.126 1.80275C497.282 2.95214 497.938 4.51059 497.952 6.14033V300.605C497.952 302.244 497.303 303.816 496.146 304.977C494.989 306.138 493.418 306.794 491.779 306.799ZM282.292 0.216974C280.722 0.219841 279.217 0.844827 278.107 1.95505C276.997 3.06527 276.372 4.57024 276.369 6.14033V300.605C276.372 302.175 276.997 303.68 278.107 304.79C279.217 305.9 280.722 306.525 282.292 306.528H491.779C493.349 306.525 494.854 305.9 495.965 304.79C497.075 303.68 497.7 302.175 497.703 300.605V6.14033C497.7 4.57024 497.075 3.06527 495.965 1.95505C494.854 0.844827 493.349 0.219841 491.779 0.216974H282.292Z" fill="#EBEBEB"/>
<path d="M542.432 355.185H0V355.456H542.432V355.185Z" fill="#EBEBEB"/>
<path d="M269.74 222.777H266.485V183.83C266.539 179.666 264.994 175.64 262.169 172.58C259.343 169.521 255.453 167.661 251.297 167.384C249.198 167.279 247.099 167.588 245.119 168.294C243.139 169.001 241.318 170.09 239.759 171.501C238.201 172.911 236.935 174.615 236.036 176.515C235.136 178.414 234.619 180.472 234.515 182.572C234.506 182.777 234.419 182.972 234.272 183.115C234.125 183.258 233.928 183.339 233.723 183.342H232.052C231.946 183.342 231.84 183.321 231.742 183.28C231.644 183.239 231.555 183.179 231.48 183.103C231.406 183.027 231.347 182.938 231.307 182.839C231.267 182.74 231.248 182.635 231.249 182.528C231.466 177.625 233.544 172.988 237.058 169.562C240.573 166.136 245.262 164.178 250.169 164.086C260.931 163.901 269.697 173.079 269.697 183.852L269.74 222.777Z" fill="#F0F0F0"/>
<path d="M480.258 227.029H457.129V355.141H480.258V227.029Z" fill="#E6E6E6"/>
<path d="M463.443 227.029H212.84V355.141H463.443V227.029Z" fill="#F5F5F5"/>
<path d="M463.443 253.706H212.84V255.876H274.406V355.141H276.576V255.876H336.46V355.141H338.63V255.876H398.525V355.141H400.695V255.876H463.443V253.706Z" fill="#E0E0E0"/>
<path d="M268.168 310.662C267.592 310.662 267.04 310.433 266.634 310.026C266.227 309.619 265.998 309.068 265.998 308.492V298.728C265.998 298.153 266.227 297.601 266.634 297.194C267.04 296.787 267.592 296.559 268.168 296.559C268.743 296.559 269.295 296.787 269.702 297.194C270.109 297.601 270.338 298.153 270.338 298.728V308.492C270.338 309.068 270.109 309.619 269.702 310.026C269.295 310.433 268.743 310.662 268.168 310.662Z" fill="#E6E6E6"/>
<path d="M282.813 310.662C282.238 310.662 281.686 310.433 281.279 310.026C280.872 309.619 280.644 309.068 280.644 308.492V298.728C280.644 298.153 280.872 297.601 281.279 297.194C281.686 296.787 282.238 296.559 282.813 296.559C283.389 296.559 283.941 296.787 284.348 297.194C284.754 297.601 284.983 298.153 284.983 298.728V308.492C284.983 309.068 284.754 309.619 284.348 310.026C283.941 310.433 283.389 310.662 282.813 310.662Z" fill="#E6E6E6"/>
<path d="M392.287 310.662C391.711 310.662 391.16 310.433 390.753 310.026C390.346 309.619 390.117 309.068 390.117 308.492V298.728C390.117 298.153 390.346 297.601 390.753 297.194C391.16 296.787 391.711 296.559 392.287 296.559C392.862 296.559 393.414 296.787 393.821 297.194C394.228 297.601 394.457 298.153 394.457 298.728V308.492C394.457 309.068 394.228 309.619 393.821 310.026C393.414 310.433 392.862 310.662 392.287 310.662Z" fill="#E6E6E6"/>
<path d="M406.932 310.662C406.357 310.662 405.805 310.433 405.398 310.026C404.991 309.619 404.763 309.068 404.763 308.492V298.728C404.763 298.153 404.991 297.601 405.398 297.194C405.805 296.787 406.357 296.559 406.932 296.559C407.508 296.559 408.06 296.787 408.467 297.194C408.874 297.601 409.102 298.153 409.102 298.728V308.492C409.102 309.068 408.874 309.619 408.467 310.026C408.06 310.433 407.508 310.662 406.932 310.662Z" fill="#E6E6E6"/>
<path d="M485.682 224.22H456.934V229.828H485.682V224.22Z" fill="#E0E0E0"/>
<path d="M465.613 224.22H207.415V229.828H465.613V224.22Z" fill="#EBEBEB"/>
<path d="M299.661 224.859H214.076C213.524 224.859 212.994 224.64 212.603 224.249C212.213 223.859 211.993 223.329 211.993 222.776C211.993 222.224 212.213 221.694 212.603 221.303C212.994 220.913 213.524 220.693 214.076 220.693H299.661C300.213 220.693 300.743 220.913 301.134 221.303C301.524 221.694 301.744 222.224 301.744 222.776C301.744 223.329 301.524 223.859 301.134 224.249C300.743 224.64 300.213 224.859 299.661 224.859Z" fill="#E6E6E6"/>
<path d="M277.92 217.189H274.677V221.312H277.92V217.189Z" fill="#E0E0E0"/>
<path d="M279.309 218.22H273.277L274.449 211.006H278.138L279.309 218.22Z" fill="#F0F0F0"/>
<path d="M261.506 217.189H258.263V221.312H261.506V217.189Z" fill="#E0E0E0"/>
<path d="M262.906 218.22H256.863L258.046 211.006H261.723L262.906 218.22Z" fill="#F0F0F0"/>
<path d="M330.308 18.8877H328.355V171.17H330.308V18.8877Z" fill="#E0E0E0"/>
<path d="M451.868 18.8877H449.915V171.17H451.868V18.8877Z" fill="#E0E0E0"/>
<path d="M459.516 28.4665H320.707L317.778 21.6318H462.445L459.516 28.4665Z" fill="#EBEBEB"/>
<path d="M459.516 37.8512H320.707L317.778 31.0166H462.445L459.516 37.8512Z" fill="#EBEBEB"/>
<path d="M459.516 47.235H320.707L317.778 40.4004H462.445L459.516 47.235Z" fill="#EBEBEB"/>
<path d="M459.516 56.6188H320.707L317.778 49.7842H462.445L459.516 56.6188Z" fill="#EBEBEB"/>
<path d="M459.516 66.0026H320.707L317.778 59.168H462.445L459.516 66.0026Z" fill="#EBEBEB"/>
<path d="M459.516 75.3874H320.707L317.778 68.5527H462.445L459.516 75.3874Z" fill="#EBEBEB"/>
<path d="M459.516 84.7712H320.707L317.778 77.9365H462.445L459.516 84.7712Z" fill="#EBEBEB"/>
<path d="M459.516 94.1441H320.707L317.778 87.3203H462.445L459.516 94.1441Z" fill="#EBEBEB"/>
<path d="M459.516 103.54H320.707L317.778 96.6943H462.445L459.516 103.54Z" fill="#EBEBEB"/>
<path d="M459.516 112.913H320.707L317.778 106.078H462.445L459.516 112.913Z" fill="#EBEBEB"/>
<path d="M459.516 122.297H320.707L317.778 115.462H462.445L459.516 122.297Z" fill="#EBEBEB"/>
<path d="M459.516 131.68H320.707L317.778 124.846H462.445L459.516 131.68Z" fill="#EBEBEB"/>
<path d="M459.516 141.065H320.707L317.778 134.23H462.445L459.516 141.065Z" fill="#EBEBEB"/>
<path d="M459.516 150.449H320.707L317.778 143.614H462.445L459.516 150.449Z" fill="#EBEBEB"/>
<path d="M459.516 159.833H320.707L317.778 152.998H462.445L459.516 159.833Z" fill="#EBEBEB"/>
<path d="M459.516 169.216H320.707L317.778 162.382H462.445L459.516 169.216Z" fill="#EBEBEB"/>
<path d="M462.445 169.217H317.778V173.122H462.445V169.217Z" fill="#E0E0E0"/>
<path d="M467.489 13.0723H312.733V22.1851H467.489V13.0723Z" fill="#E0E0E0"/>
<path d="M314.328 104.808C313.911 104.808 313.511 104.643 313.216 104.348C312.921 104.053 312.755 103.652 312.755 103.235V50.077C312.755 49.6598 312.921 49.2596 313.216 48.9646C313.511 48.6696 313.911 48.5039 314.328 48.5039C314.745 48.5039 315.145 48.6696 315.44 48.9646C315.735 49.2596 315.901 49.6598 315.901 50.077V103.235C315.901 103.652 315.735 104.053 315.44 104.348C315.145 104.643 314.745 104.808 314.328 104.808Z" fill="#E0E0E0"/>
<path d="M314.893 20.3623H313.754V51.9318H314.893V20.3623Z" fill="#E0E0E0"/>
<path d="M132.375 285.428H178.211V278.376H132.375V285.428Z" fill="#E0E0E0"/>
<path d="M180.922 355.13H131.019V285.992C131.019 285.051 131.392 284.148 132.058 283.483C132.723 282.818 133.625 282.444 134.566 282.444H177.418C178.359 282.444 179.261 282.818 179.927 283.483C180.592 284.148 180.966 285.051 180.966 285.992V355.13H180.922Z" fill="#F0F0F0"/>
<path d="M134.935 280.546H177.006C179.169 280.546 180.923 278.792 180.923 276.63V273.614C180.923 271.451 179.169 269.697 177.006 269.697H134.935C132.773 269.697 131.019 271.451 131.019 273.614V276.63C131.019 278.792 132.773 280.546 134.935 280.546Z" fill="#F0F0F0"/>
<path d="M166.277 355.141H189.602V351.887L166.277 349.717V355.141Z" fill="#E0E0E0"/>
<path d="M442.744 181.303H422.555C420.573 181.306 418.674 182.094 417.273 183.495C415.871 184.896 415.083 186.796 415.08 188.777V191.273H419.105V188.767C419.104 188.313 419.192 187.863 419.364 187.443C419.537 187.023 419.791 186.642 420.112 186.32C420.432 185.999 420.813 185.744 421.232 185.57C421.651 185.395 422.101 185.306 422.555 185.306H442.744C443.66 185.309 444.538 185.675 445.184 186.323C445.831 186.972 446.194 187.851 446.194 188.767V191.262H450.219V188.767C450.216 186.786 449.427 184.888 448.026 183.488C446.624 182.089 444.725 181.303 442.744 181.303Z" fill="#E0E0E0"/>
<path d="M466.665 196.729V219.349C466.665 220.787 466.093 222.167 465.076 223.184C464.059 224.201 462.679 224.773 461.24 224.773H412.118C410.679 224.773 409.299 224.201 408.282 223.184C407.265 222.167 406.693 220.787 406.693 219.349V196.729C406.693 195.291 407.265 193.911 408.282 192.894C409.299 191.876 410.679 191.305 412.118 191.305H461.197C461.913 191.299 462.623 191.435 463.286 191.705C463.949 191.975 464.552 192.374 465.061 192.878C465.569 193.382 465.972 193.982 466.248 194.643C466.523 195.304 466.665 196.013 466.665 196.729Z" fill="#E6E6E6"/>
<path d="M459.016 196.729V219.349C459.016 220.787 458.445 222.167 457.427 223.184C456.41 224.201 455.03 224.773 453.592 224.773H404.469C403.031 224.773 401.651 224.201 400.634 223.184C399.616 222.167 399.045 220.787 399.045 219.349V196.729C399.045 195.291 399.616 193.911 400.634 192.894C401.651 191.876 403.031 191.305 404.469 191.305H453.548C454.264 191.299 454.974 191.435 455.638 191.705C456.301 191.975 456.904 192.374 457.412 192.878C457.92 193.382 458.324 193.982 458.599 194.643C458.874 195.304 459.016 196.013 459.016 196.729Z" fill="#F5F5F5"/>
<path d="M442.006 195.156H416.393V220.77H442.006V195.156Z" fill="white"/>
<path d="M431.385 200.917H427.057V215.812H431.385V200.917Z" fill="#E0E0E0"/>
<path d="M421.773 206.189V210.518H436.669V206.189H421.773Z" fill="#E0E0E0"/>
<path d="M265.987 400.001C382.157 400.001 476.331 394.503 476.331 387.72C476.331 380.938 382.157 375.439 265.987 375.439C149.817 375.439 55.6426 380.938 55.6426 387.72C55.6426 394.503 149.817 400.001 265.987 400.001Z" fill="#F5F5F5"/>
<path d="M376.198 197.564C376.914 197.477 397.657 199.528 398.981 221.756L395.433 237.162C378.667 230.935 360.181 231.183 343.587 237.856L343.338 237.964L344.781 220.368C344.781 220.368 350.097 200.623 376.198 197.564Z" fill="#263238"/>
<path d="M332.641 304.922L336.806 305.28C338.328 278.827 341.316 252.479 345.757 226.357C346.556 222.135 348.186 218.115 350.551 214.528C352.916 210.941 355.969 207.86 359.534 205.462C361.041 204.376 362.682 203.489 364.416 202.826C367.605 201.46 371.027 200.723 374.495 200.656C375.903 200.656 377.309 200.754 378.704 200.949C381.851 201.432 384.854 202.599 387.502 204.366C388.743 205.316 389.931 206.334 391.061 207.415C391.657 208.032 392.212 208.688 392.72 209.378C394.55 212.003 395.811 214.981 396.424 218.121C397.037 221.261 396.987 224.495 396.279 227.615C391.863 251.494 388.781 275.601 387.047 299.824L391.212 300.106C392.916 276.074 395.955 252.156 400.314 228.461C401.147 224.77 401.198 220.944 400.464 217.232C399.729 213.52 398.226 210.002 396.051 206.905C393.906 203.884 391.122 201.374 387.897 199.551C384.672 197.728 381.085 196.639 377.391 196.36C361.118 195.275 344.184 208.5 341.678 225.467C337.202 251.765 334.185 278.291 332.641 304.922Z" fill="#263238"/>
<path opacity="0.3" d="M332.641 304.922L336.806 305.28C338.328 278.827 341.316 252.479 345.757 226.357C346.556 222.135 348.186 218.115 350.551 214.528C352.916 210.941 355.969 207.86 359.534 205.462C361.041 204.376 362.682 203.489 364.416 202.826C367.605 201.46 371.027 200.723 374.495 200.656C375.903 200.656 377.309 200.754 378.704 200.949C381.851 201.432 384.854 202.599 387.502 204.366C388.743 205.316 389.931 206.334 391.061 207.415C391.657 208.032 392.212 208.688 392.72 209.378C394.55 212.003 395.811 214.981 396.424 218.121C397.037 221.261 396.987 224.495 396.279 227.615C391.863 251.494 388.781 275.601 387.047 299.824L391.212 300.106C392.916 276.074 395.955 252.156 400.314 228.461C401.147 224.77 401.198 220.944 400.464 217.232C399.729 213.52 398.226 210.002 396.051 206.905C393.906 203.884 391.122 201.374 387.897 199.551C384.672 197.728 381.085 196.639 377.391 196.36C361.118 195.275 344.184 208.5 341.678 225.467C337.202 251.765 334.185 278.291 332.641 304.922Z" fill="white"/>
<path d="M391.288 302.405H295.451V300.181C295.451 298.072 296.289 296.05 297.78 294.558C299.272 293.067 301.294 292.229 303.403 292.229H383.325C385.434 292.229 387.457 293.067 388.948 294.558C390.439 296.05 391.277 298.072 391.277 300.181V302.405H391.288Z" fill="#263238"/>
<path d="M388.045 386.124H393.133L388.967 302.416H382.479L388.045 386.124Z" fill="#263238"/>
<path opacity="0.3" d="M388.045 386.124H393.133L388.967 302.416H382.479L388.045 386.124Z" fill="white"/>
<path d="M354.013 386.124H359.101L356.323 302.416H349.847L354.013 386.124Z" fill="#263238"/>
<path opacity="0.3" d="M354.013 386.124H359.101L356.323 302.416H349.847L354.013 386.124Z" fill="white"/>
<path d="M327.629 386.124H332.717L336.883 302.416H330.406L327.629 386.124Z" fill="#263238"/>
<path opacity="0.3" d="M327.629 386.124H332.717L336.883 302.416H330.406L327.629 386.124Z" fill="white"/>
<path d="M293.597 386.124H298.696L304.25 302.416H297.763L293.597 386.124Z" fill="#263238"/>
<path opacity="0.3" d="M293.597 386.124H298.696L304.25 302.416H297.763L293.597 386.124Z" fill="white"/>
<path d="M291.275 306.116H348.22V298.707H291.275V306.116Z" fill="#263238"/>
<path opacity="0.7" d="M291.275 306.116H348.22V298.707H291.275V306.116Z" fill="white"/>
<path d="M348.22 306.116H395.466V298.707H348.22V306.116Z" fill="#263238"/>
<path opacity="0.4" d="M348.22 306.116H395.466V298.707H348.22V306.116Z" fill="white"/>
<path d="M331.1 184.286C320.751 186.326 300.247 195.135 300.117 194.658C300.117 194.658 282.857 190.568 275.761 182.724C275.761 182.724 268.981 181.889 265.434 181.184C268.005 187.248 273.028 194.603 278.604 198.107C285.688 202.555 287.619 203.901 294.627 206.569C303.393 209.911 316.813 206.363 325.502 202.805C328.703 201.492 332.012 199.822 333.867 196.914C335.722 194.007 333.975 186.228 331.1 184.286Z" fill="#eb5454"/>
<path opacity="0.7" d="M331.1 184.286C320.751 186.326 300.247 195.135 300.117 194.658C300.117 194.658 282.857 190.568 275.761 182.724C275.761 182.724 268.981 181.889 265.434 181.184C268.005 187.248 273.028 194.603 278.604 198.107C285.688 202.555 287.619 203.901 294.627 206.569C303.393 209.911 316.813 206.363 325.502 202.805C328.703 201.492 332.012 199.822 333.867 196.914C335.722 194.007 333.975 186.228 331.1 184.286Z" fill="white"/>
<path d="M303.61 183.776H277.823C274.221 170.758 281.435 157.663 277.823 144.612H303.61C307.223 157.663 299.997 170.725 303.61 183.776Z" fill="#eb5454"/>
<g opacity="0.7">
<path d="M303.61 183.776H277.823C274.221 170.758 281.435 157.663 277.823 144.612H303.61C307.223 157.663 299.997 170.725 303.61 183.776Z" fill="white"/>
</g>
<path d="M281.858 176.833L277.725 178.818C277.266 180.17 276.393 181.343 275.23 182.17C274.07 182.825 272.84 183.345 271.563 183.722C270.648 184.009 269.67 184.026 268.746 183.77C267.822 183.514 266.992 182.996 266.356 182.279C266.079 181.999 265.891 181.644 265.818 181.257C265.744 180.87 265.788 180.471 265.944 180.109L269.903 172.71C270.127 172.294 270.444 171.935 270.83 171.662C271.216 171.389 271.66 171.209 272.127 171.137L278.636 170.107C279.042 170.038 279.458 170.082 279.841 170.233C280.223 170.384 280.557 170.637 280.806 170.964L282.716 173.47C282.912 173.737 283.047 174.045 283.11 174.371C283.173 174.696 283.164 175.032 283.082 175.354C283 175.675 282.848 175.975 282.636 176.231C282.425 176.486 282.159 176.692 281.858 176.833Z" fill="#CE7A63"/>
<path d="M368.658 245.516L374.766 267.799L341.222 274.992L320.968 264.262L326.631 245.093L368.658 245.516Z" fill="#eb5454"/>
<path opacity="0.1" d="M368.658 245.516L374.766 267.799L341.222 274.992L320.968 264.262L326.631 245.093L368.658 245.516Z" fill="black"/>
<path d="M323.366 197.099C322.756 202.809 322.731 208.567 323.29 214.283C323.605 221.964 325.275 230.035 327.369 242.489C331.568 244.952 352.842 243.932 366.424 242.175C365.6 231.326 366.956 218.828 374.333 194.321C376.047 188.637 372.228 183.18 366.131 182.605C364.504 182.442 362.768 182.312 361 182.236C354.787 181.824 348.553 181.824 342.34 182.236C340.355 182.42 338.207 182.659 336.2 182.909C328.964 183.831 324.701 189.407 323.366 197.099Z" fill="#eb5454"/>
<path d="M326.631 245.093C340.351 246.605 354.197 246.576 367.91 245.006C368.037 244.978 368.157 244.925 368.263 244.85C368.37 244.775 368.46 244.68 368.53 244.57C368.599 244.461 368.647 244.338 368.669 244.21C368.691 244.082 368.687 243.95 368.658 243.824V243.694C368.322 242.902 367.975 242.11 367.66 241.318C367.591 241.143 367.466 240.996 367.306 240.898C367.146 240.8 366.958 240.757 366.771 240.775C353.582 242.218 340.275 242.218 327.087 240.775C326.972 240.76 326.855 240.768 326.743 240.798C326.632 240.827 326.527 240.879 326.435 240.95C326.343 241.02 326.266 241.108 326.209 241.209C326.151 241.309 326.114 241.42 326.099 241.535C326.104 241.556 326.104 241.578 326.099 241.6C326.012 242.424 325.937 243.238 325.861 244.062C325.845 244.184 325.855 244.307 325.887 244.424C325.92 244.542 325.976 244.652 326.052 244.748C326.128 244.844 326.222 244.924 326.328 244.983C326.435 245.042 326.553 245.08 326.674 245.093H326.631Z" fill="#eb5454"/>
<path d="M341.852 181.899C331.708 194.918 331.003 227.095 333.553 290.299C333.78 295.81 328.497 295.409 323.322 294.346C315.62 292.751 312.561 293.326 312.561 293.326C312.561 293.326 324.852 261.051 322.856 232.107C320.86 203.163 322.248 192.932 326.946 187.627C331.643 182.323 341.852 181.899 341.852 181.899Z" fill="#eb5454"/>
<path opacity="0.7" d="M341.852 181.899C331.708 194.918 331.003 227.095 333.553 290.299C333.77 295.81 328.758 295.213 323.312 294.346C319.764 293.699 316.167 293.358 312.561 293.326C312.561 293.326 324.852 261.051 322.856 232.107C320.86 203.163 322.248 192.932 326.946 187.627C331.643 182.323 341.852 181.899 341.852 181.899Z" fill="white"/>
<path d="M359.709 161.211C358.092 167.189 356.096 178.222 360.002 182.236C360.002 182.236 354.848 186.369 343.924 190.35C340.669 189.515 341.353 182.236 341.353 182.236C348.177 180.63 348.372 175.726 347.547 171.007L359.709 161.211Z" fill="#CE7A63"/>
<path opacity="0.2" d="M354.75 165.203L347.536 170.996C347.739 172.07 347.848 173.159 347.862 174.251C350.454 173.882 354.175 171.083 354.653 168.393C354.869 167.343 354.902 166.264 354.75 165.203Z" fill="black"/>
<path d="M348.513 139.242C341.409 148.845 338.345 160.845 339.975 172.678C336.547 166.168 333.466 169.716 333.216 162.382C333.108 158.694 335.028 143.733 336.666 140.425C338.304 137.116 341.657 134.447 345.345 134.599C346.677 134.607 347.955 135.128 348.914 136.053C349.815 137.018 349.327 138.19 348.513 139.242Z" fill="#263238"/>
<path d="M364.84 149.158C363.028 158.857 362.453 163.001 356.888 167.601C348.556 174.566 337.122 170.856 335.993 161.016C335.006 152.109 338.163 137.746 348.155 134.545C350.281 133.768 352.576 133.577 354.802 133.99C357.027 134.404 359.101 135.407 360.806 136.896C362.511 138.385 363.785 140.304 364.494 142.454C365.204 144.603 365.323 146.904 364.84 149.115V149.158Z" fill="#CE7A63"/>
<path d="M348.003 151.382C347.775 152.174 347.156 152.727 346.657 152.619C346.158 152.51 345.909 151.773 346.137 150.981C346.365 150.189 346.983 149.625 347.493 149.733C348.003 149.842 348.241 150.579 348.003 151.382Z" fill="#263238"/>
<path d="M339.758 149.397C339.53 150.189 338.922 150.742 338.412 150.634C337.903 150.525 337.664 149.777 337.903 148.996C338.141 148.215 338.738 147.64 339.248 147.759C339.758 147.878 339.996 148.627 339.758 149.397Z" fill="#263238"/>
<path d="M339.465 147.845L337.729 146.88C337.729 146.88 338.272 148.627 339.465 147.845Z" fill="#263238"/>
<path d="M342.069 151.295C340.835 152.956 339.395 154.454 337.784 155.754C338.107 156.136 338.514 156.439 338.973 156.638C339.432 156.838 339.931 156.928 340.431 156.904L342.069 151.295Z" fill="#BA4D3C"/>
<path d="M344.098 160.831C343.644 160.809 343.194 160.744 342.753 160.636C342.723 160.631 342.694 160.62 342.669 160.603C342.643 160.586 342.622 160.564 342.606 160.539C342.589 160.513 342.578 160.484 342.574 160.454C342.569 160.424 342.571 160.394 342.579 160.365C342.599 160.303 342.641 160.251 342.697 160.219C342.754 160.187 342.82 160.177 342.883 160.191C343.89 160.413 344.934 160.407 345.939 160.172C346.943 159.937 347.882 159.48 348.687 158.835C348.731 158.791 348.792 158.766 348.855 158.766C348.918 158.766 348.978 158.791 349.023 158.835C349.065 158.881 349.088 158.941 349.088 159.003C349.088 159.065 349.065 159.125 349.023 159.171C347.642 160.314 345.888 160.905 344.098 160.831Z" fill="#263238"/>
<path d="M341.19 135.847C344.228 131.67 352.484 130.531 357.322 131.681C374.463 135.771 366.598 150.015 376.524 158.021C373.639 163.196 370.861 162.1 367.498 164.433C365.535 165.8 360.327 170.063 357.973 169.857C358.093 165.008 360.219 159.432 359.232 154.669C358.371 149.93 356.28 145.5 353.167 141.824C350.01 138.353 345.747 135.608 341.19 135.847Z" fill="#263238"/>
<path opacity="0.2" d="M341.19 135.847C344.228 131.67 352.484 130.531 357.322 131.681C374.463 135.771 366.598 150.015 376.524 158.021C373.639 163.196 370.861 162.1 367.498 164.433C365.535 165.8 360.327 170.063 357.973 169.857C358.093 165.008 360.219 159.432 359.232 154.669C358.371 149.93 356.28 145.5 353.167 141.824C350.01 138.353 345.747 135.608 341.19 135.847Z" fill="black"/>
<path d="M341.19 135.847C344.228 131.67 352.484 130.531 357.322 131.681C374.463 135.771 366.598 150.015 376.524 158.021C373.639 163.196 370.861 162.1 367.498 164.433C365.535 165.8 360.327 170.063 357.973 169.857C358.093 165.008 360.219 159.432 359.232 154.669C358.371 149.93 356.28 145.5 353.167 141.824C350.01 138.353 345.747 135.608 341.19 135.847Z" fill="#263238"/>
<path opacity="0.1" d="M341.19 135.847C344.228 131.67 352.484 130.531 357.322 131.681C374.463 135.771 366.598 150.015 376.524 158.021C373.639 163.196 370.861 162.1 367.498 164.433C365.535 165.8 360.327 170.063 357.973 169.857C358.093 165.008 360.219 159.432 359.232 154.669C358.371 149.93 356.28 145.5 353.167 141.824C350.01 138.353 345.747 135.608 341.19 135.847Z" fill="black"/>
<path d="M364.265 158.976C363.767 159.778 363.106 160.468 362.325 160.998C361.544 161.529 360.66 161.89 359.73 162.057C357.419 162.382 356.747 159.692 357.821 157.218C358.819 155.049 361.13 152.141 363.245 152.966C365.361 153.79 365.599 156.86 364.265 158.976Z" fill="#CE7A63"/>
<path d="M351.703 148.214C351.644 148.196 351.591 148.164 351.547 148.12C351.504 148.077 351.471 148.023 351.453 147.965C351.253 147.413 350.92 146.919 350.482 146.527C350.045 146.135 349.518 145.858 348.947 145.719C348.834 145.703 348.731 145.642 348.662 145.551C348.593 145.46 348.563 145.344 348.578 145.231C348.573 145.213 348.573 145.194 348.578 145.177C348.607 145.049 348.684 144.937 348.793 144.864C348.902 144.791 349.035 144.763 349.164 144.786C349.89 144.946 350.563 145.288 351.121 145.78C351.679 146.271 352.103 146.896 352.354 147.596C352.395 147.717 352.388 147.849 352.334 147.965C352.279 148.081 352.181 148.17 352.061 148.214C351.946 148.26 351.818 148.26 351.703 148.214Z" fill="#263238"/>
<path d="M337.935 144.699C337.876 144.698 337.818 144.685 337.763 144.66C337.709 144.636 337.661 144.601 337.62 144.558C337.58 144.514 337.548 144.463 337.528 144.407C337.508 144.352 337.499 144.292 337.502 144.233C337.505 144.164 337.524 144.097 337.558 144.036C337.592 143.976 337.639 143.925 337.697 143.886C338.276 143.359 338.969 142.973 339.722 142.759C340.474 142.544 341.267 142.507 342.036 142.649C342.151 142.682 342.249 142.758 342.309 142.861C342.37 142.964 342.389 143.086 342.362 143.202C342.317 143.324 342.23 143.426 342.116 143.488C342.002 143.549 341.87 143.568 341.743 143.539C341.136 143.437 340.514 143.474 339.923 143.649C339.333 143.824 338.79 144.131 338.337 144.548C338.285 144.6 338.222 144.641 338.153 144.667C338.083 144.693 338.009 144.704 337.935 144.699Z" fill="#263238"/>
<path d="M347.71 149.831L345.975 148.865C345.975 148.865 346.517 150.568 347.71 149.831Z" fill="#263238"/>
<path d="M342.665 135.435C341.929 136.235 341.341 137.161 340.929 138.168C340.725 138.672 340.635 139.214 340.665 139.756C340.695 140.298 340.844 140.826 341.103 141.304C341.65 142.095 342.432 142.695 343.338 143.018C344.225 143.406 345.153 143.693 346.104 143.875C345.604 143.459 345.235 142.906 345.042 142.284C344.849 141.662 344.842 140.997 345.019 140.371C345.125 140.985 345.362 141.57 345.714 142.085C346.066 142.6 346.525 143.033 347.059 143.354C348.035 143.929 349.131 144.244 350.14 144.754C353.319 146.348 359.242 154.702 354.859 172.07C358.732 170.638 364.167 157.002 363.267 152.966C362.366 148.93 362.182 138.559 351.865 134.936C349.077 133.97 345.497 134.632 342.665 135.435Z" fill="#263238"/>
<path d="M292.555 376.86L283.236 377.76L277.714 351.507L288.704 350.237L292.555 376.86Z" fill="#CE7A63"/>
<path d="M279.385 375.591C280.249 374.711 281.409 374.185 282.64 374.115L292.631 373.421C292.856 373.393 293.084 373.452 293.266 373.588C293.448 373.723 293.57 373.924 293.608 374.148L295.539 383.423C295.649 383.932 295.553 384.464 295.273 384.903C294.992 385.342 294.55 385.653 294.042 385.767H293.998C290.223 386.743 287.847 385.951 282.065 386.353C278.506 386.602 270.945 388.012 266.095 387.21C261.246 386.407 261.865 381.601 263.926 381.503C271.368 381.265 277.465 377.533 279.385 375.591Z" fill="#263238"/>
<g opacity="0.2">
<path d="M277.715 351.517L280.926 366.781L290.809 364.72L288.715 350.248L277.715 351.517Z" fill="black"/>
</g>
<path d="M336.123 297.079C335.754 297.079 335.375 297.079 334.984 297.079C334.349 297.069 333.715 297.022 333.086 296.938L283.182 294.269C291.243 301.657 292.566 360.858 292.566 360.858L290.179 361.368L279.331 363.678L277.345 364.101C277.345 364.101 272.822 344.715 267.582 322.475C264.935 311.214 261.506 299.574 259.988 288.4C259.575 285.429 259.336 282.437 259.272 279.439C259.272 278.517 259.272 277.605 259.272 276.694C259.266 276.6 259.266 276.506 259.272 276.412C259.272 276.021 259.272 275.653 259.358 275.327C259.61 273.522 260.361 271.823 261.528 270.423L261.897 270C262.019 269.859 262.149 269.725 262.288 269.599C262.549 269.329 262.824 269.071 263.112 268.829C263.416 268.579 263.72 268.33 264.045 268.091L264.88 267.516C265.228 267.299 265.575 267.093 265.965 266.887C266.148 266.779 266.336 266.681 266.529 266.594C267.093 266.29 267.679 266.008 268.298 265.748L268.829 265.52L269.556 265.249C269.773 265.151 269.99 265.075 270.207 264.999C270.869 264.76 271.552 264.533 272.257 264.348L272.615 264.24H272.713C291.644 258.881 323.843 263.014 323.843 263.014C323.843 263.014 332.348 256.722 341.385 255.528L342.665 255.669L346.69 256.114C346.748 256.109 346.806 256.109 346.864 256.114C360.175 279.298 351.919 296.905 336.123 297.079Z" fill="#eb5454"/>
<g opacity="0.1">
<path d="M336.123 297.08C335.754 297.08 335.375 297.08 334.984 297.08C334.349 297.07 333.715 297.023 333.086 296.939L283.182 294.27C291.243 301.658 292.566 360.859 292.566 360.859L290.179 361.369L279.331 363.679L277.345 364.102C277.345 364.102 272.822 344.716 267.582 322.476C264.935 311.215 261.506 299.575 259.988 288.401C259.575 285.43 259.336 282.438 259.272 279.44C259.272 278.518 259.272 277.606 259.272 276.695C259.266 276.601 259.266 276.507 259.272 276.413C259.272 276.022 259.272 275.654 259.358 275.328C259.61 273.523 260.361 271.824 261.528 270.424L261.897 270.001C262.019 269.86 262.149 269.726 262.288 269.6C262.549 269.329 262.824 269.072 263.112 268.83C263.416 268.58 263.72 268.331 264.045 268.092L264.88 267.517C265.228 267.3 265.575 267.094 265.965 266.888C266.148 266.779 266.336 266.682 266.529 266.595C267.093 266.291 267.679 266.009 268.298 265.749L268.829 265.521L269.556 265.25C269.773 265.152 269.99 265.076 270.207 265C270.869 264.761 271.552 264.534 272.257 264.349L272.615 264.241H272.713C291.644 258.882 323.843 263.015 323.843 263.015C323.843 263.015 332.348 256.723 341.385 255.529L342.665 255.67L346.69 256.115C346.748 256.11 346.806 256.11 346.864 256.115C360.175 279.299 351.919 296.906 336.123 297.08Z" fill="black"/>
</g>
<path d="M230.859 332.283L228.19 336.373L222.245 345.485L212.297 346.527L219.837 330.688L224.957 319.904L230.859 332.283Z" fill="#CE7A63"/>
<path d="M214.803 339.704L223.037 344.846C223.222 344.949 223.362 345.117 223.432 345.317C223.502 345.516 223.497 345.735 223.417 345.931L219.381 355.348C219.267 355.573 219.11 355.773 218.919 355.938C218.727 356.102 218.505 356.227 218.265 356.306C218.026 356.384 217.773 356.415 217.521 356.396C217.269 356.376 217.024 356.308 216.799 356.194H216.745C212.904 353.861 211.179 352.549 206.308 349.685L194.191 342.655C190.046 340.225 192.281 336.037 194.245 336.677C202.924 339.563 208.814 339.932 212.687 339.324C213.415 339.196 214.165 339.33 214.803 339.704Z" fill="#263238"/>
<g opacity="0.2">
<path d="M230.859 332.284L228.201 336.373H228.19L219.837 330.689L224.957 319.905L230.859 332.284Z" fill="black"/>
</g>
<path d="M339.334 297.991C338.236 297.859 337.148 297.649 336.08 297.361C335.711 297.275 335.331 297.166 334.94 297.047C325.784 294.411 312.603 287.196 300.333 280.09C289.029 273.581 278.538 267.072 272.724 264.425H272.626L272.268 264.533C271.563 264.729 270.879 264.957 270.217 265.195C269.995 265.26 269.778 265.34 269.567 265.434L268.84 265.705L268.308 265.933C267.69 266.193 267.104 266.486 266.54 266.779C266.345 266.866 266.16 266.974 265.976 267.072C265.607 267.278 265.26 267.484 264.891 267.701L264.055 268.287C263.73 268.526 263.426 268.764 263.122 269.014C262.835 269.257 262.56 269.514 262.298 269.784C262.157 269.914 262.027 270.055 261.907 270.186L261.539 270.609C260.372 272.009 259.62 273.707 259.369 275.512C259.369 275.881 259.293 276.261 259.282 276.597C259.282 277.508 259.282 278.42 259.282 279.342C259.335 282.358 259.564 285.368 259.966 288.357V288.585C246.34 313.157 232.171 335.44 232.171 335.44L229.763 333.78L221.084 327.835L219.587 326.75C219.587 326.75 234.71 291.319 245.114 259.749C247.016 253.944 250.716 248.894 255.677 245.329C260.638 241.765 266.604 239.869 272.713 239.918C298.391 240.146 332.109 254.336 332.109 254.336L341.363 255.323L342.643 255.464L346.668 255.909C346.726 255.904 346.784 255.904 346.841 255.909C349.011 256.147 351.441 256.321 353.795 256.495C356.397 256.682 358.876 257.674 360.889 259.331C362.902 260.989 364.351 263.232 365.035 265.748C371.934 290.896 355.52 299.976 339.334 297.991Z" fill="#eb5454"/>
<path d="M339.334 297.991C338.236 297.859 337.148 297.649 336.08 297.361C335.711 297.275 335.331 297.166 334.94 297.047C325.784 294.411 312.603 287.196 300.333 280.09C289.029 273.581 278.538 267.072 272.724 264.425H272.626L272.268 264.533C271.563 264.729 270.879 264.957 270.217 265.195C269.995 265.26 269.778 265.34 269.567 265.434L268.84 265.705L268.308 265.933C267.69 266.193 267.104 266.486 266.54 266.779C266.345 266.866 266.16 266.974 265.976 267.072C265.607 267.278 265.26 267.484 264.891 267.701L264.055 268.287C263.73 268.526 263.426 268.764 263.122 269.014C262.835 269.257 262.56 269.514 262.298 269.784C262.157 269.914 262.027 270.055 261.907 270.186L261.539 270.609C260.372 272.009 259.62 273.707 259.369 275.512C259.369 275.881 259.293 276.261 259.282 276.597C259.282 277.508 259.282 278.42 259.282 279.342C259.335 282.358 259.564 285.368 259.966 288.357V288.585C246.34 313.157 232.171 335.44 232.171 335.44L229.763 333.78L221.084 327.835L219.587 326.75C219.587 326.75 234.71 291.319 245.114 259.749C247.016 253.944 250.716 248.894 255.677 245.329C260.638 241.765 266.604 239.869 272.713 239.918C298.391 240.146 332.109 254.336 332.109 254.336L341.363 255.323L342.643 255.464L346.668 255.909C346.726 255.904 346.784 255.904 346.841 255.909C349.011 256.147 351.441 256.321 353.795 256.495C356.397 256.682 358.876 257.674 360.889 259.331C362.902 260.989 364.351 263.232 365.035 265.748C371.934 290.896 355.52 299.976 339.334 297.991Z" fill="#eb5454"/>
<path d="M360.424 181.302C360.424 181.302 353.362 187.572 351.257 202.706C347.894 227.105 349.652 274.144 350.91 301.017C350.955 301.934 351.217 302.827 351.673 303.624C352.129 304.421 352.767 305.099 353.535 305.602C354.302 306.106 355.178 306.42 356.091 306.521C357.004 306.621 357.927 306.505 358.786 306.181C367.172 303.056 380.874 305.508 386.993 300.203C387.437 292.11 373.356 250.755 374.723 229.35C376.09 207.946 378.759 189.297 375.992 185.262C373.226 181.226 360.424 181.302 360.424 181.302Z" fill="#eb5454"/>
<path opacity="0.7" d="M360.424 181.302C360.424 181.302 353.362 187.572 351.257 202.706C347.894 227.105 349.836 274.144 351.105 301.017C351.149 301.933 351.408 302.827 351.863 303.624C352.318 304.421 352.955 305.099 353.722 305.602C354.489 306.106 355.365 306.421 356.277 306.521C357.189 306.622 358.112 306.505 358.971 306.181C367.357 303.056 380.874 305.508 387.025 300.203C387.47 292.11 373.388 250.755 374.755 229.35C376.122 207.946 378.791 189.297 376.025 185.262C373.258 181.226 360.424 181.302 360.424 181.302Z" fill="white"/>
<path d="M360.11 213.415C360.063 213.412 360.017 213.4 359.974 213.379C359.932 213.359 359.894 213.33 359.863 213.295C359.832 213.259 359.808 213.218 359.792 213.174C359.777 213.129 359.771 213.082 359.774 213.035C359.776 212.971 359.796 212.91 359.83 212.857C359.864 212.803 359.912 212.76 359.969 212.731L361.477 211.993C362.886 211.318 364.056 210.23 364.831 208.873C365.606 207.517 365.95 205.956 365.816 204.399L364.59 189.721C364.499 188.628 364.043 187.598 363.295 186.796C362.547 185.994 361.551 185.467 360.467 185.3C359.383 185.134 358.275 185.337 357.32 185.877C356.366 186.417 355.621 187.263 355.206 188.278L349.608 201.882C349.008 203.325 348.86 204.915 349.183 206.444C349.507 207.972 350.287 209.367 351.42 210.442L352.646 211.603C352.712 211.671 352.748 211.763 352.748 211.858C352.748 211.953 352.712 212.044 352.646 212.113C352.613 212.146 352.573 212.173 352.529 212.192C352.485 212.21 352.438 212.219 352.391 212.219C352.344 212.219 352.297 212.21 352.253 212.192C352.209 212.173 352.169 212.146 352.136 212.113L350.91 210.952C349.673 209.774 348.824 208.247 348.475 206.575C348.126 204.903 348.295 203.164 348.957 201.59L354.599 188.018C355.079 186.856 355.936 185.888 357.032 185.272C358.128 184.655 359.399 184.424 360.642 184.617C361.885 184.81 363.027 185.415 363.884 186.334C364.742 187.254 365.266 188.435 365.371 189.689L366.586 204.345C366.726 206.049 366.343 207.756 365.489 209.236C364.634 210.717 363.348 211.902 361.802 212.633L360.294 213.36C360.241 213.4 360.176 213.42 360.11 213.415Z" fill="#263238"/>
<path d="M365.165 192.933C365.078 192.928 364.996 192.893 364.932 192.833C364.869 192.774 364.828 192.694 364.818 192.607C364.574 191.456 363.985 190.407 363.131 189.598C362.277 188.79 361.197 188.259 360.035 188.078C358.872 187.897 357.682 188.073 356.622 188.584C355.562 189.094 354.683 189.915 354.1 190.936C354.09 190.989 354.069 191.039 354.038 191.083C354.007 191.126 353.966 191.163 353.92 191.189C353.873 191.216 353.821 191.232 353.768 191.236C353.715 191.241 353.661 191.234 353.611 191.215C353.56 191.197 353.514 191.168 353.476 191.13C353.439 191.092 353.409 191.047 353.391 190.996C353.372 190.946 353.365 190.892 353.369 190.839C353.374 190.785 353.39 190.734 353.416 190.687C354.059 189.514 355.048 188.567 356.248 187.976C357.448 187.385 358.801 187.178 360.123 187.383C361.444 187.588 362.671 188.195 363.636 189.122C364.6 190.049 365.255 191.251 365.512 192.564C365.522 192.657 365.494 192.75 365.435 192.823C365.376 192.896 365.291 192.943 365.198 192.954L365.165 192.933Z" fill="#263238"/>
<path d="M360.489 185.295C360.443 185.292 360.397 185.28 360.355 185.259C360.314 185.239 360.276 185.21 360.246 185.174C360.216 185.139 360.193 185.098 360.179 185.053C360.164 185.009 360.159 184.962 360.164 184.915C360.316 183.147 360.164 179.914 358.504 179.035C358.463 179.012 358.426 178.982 358.397 178.945C358.367 178.908 358.346 178.866 358.332 178.82C358.319 178.775 358.315 178.728 358.321 178.681C358.326 178.634 358.34 178.588 358.363 178.547C358.386 178.506 358.417 178.469 358.453 178.44C358.49 178.41 358.533 178.389 358.578 178.375C358.623 178.362 358.671 178.358 358.718 178.364C358.765 178.369 358.81 178.383 358.851 178.406C361.238 179.708 360.891 184.438 360.837 184.98C360.828 185.067 360.788 185.147 360.724 185.205C360.66 185.263 360.576 185.295 360.489 185.295Z" fill="#263238"/>
<path d="M353.188 211.971C353.08 212.655 352.635 213.143 352.19 213.056C351.745 212.969 351.474 212.394 351.582 211.722C351.691 211.049 352.125 210.55 352.57 210.637C353.015 210.724 353.286 211.309 353.188 211.971Z" fill="#263238"/>
<path d="M360.923 213.187C360.826 213.849 360.381 214.337 359.936 214.272C359.491 214.207 359.22 213.599 359.329 212.927C359.437 212.254 359.871 211.777 360.316 211.842C360.761 211.907 361.032 212.504 360.923 213.187Z" fill="#263238"/>
<path d="M341.363 199.116C340.995 200.624 339.888 201.655 338.933 201.416C337.979 201.178 337.436 199.789 337.849 198.238C338.261 196.686 339.324 195.699 340.279 195.949C341.233 196.198 341.732 197.608 341.363 199.116Z" fill="#263238"/>
<path d="M338.282 198.595H338.206C338.159 198.592 338.113 198.58 338.071 198.559C338.028 198.539 337.99 198.51 337.959 198.475C337.928 198.44 337.904 198.398 337.889 198.354C337.873 198.309 337.867 198.262 337.87 198.215C338.25 192.14 341.862 182.083 345.822 178.796C345.854 178.761 345.894 178.733 345.938 178.714C345.982 178.694 346.029 178.685 346.077 178.685C346.125 178.685 346.172 178.694 346.216 178.714C346.26 178.733 346.299 178.761 346.332 178.796C346.366 178.829 346.392 178.869 346.411 178.913C346.429 178.957 346.438 179.004 346.438 179.051C346.438 179.098 346.429 179.145 346.411 179.189C346.392 179.233 346.366 179.273 346.332 179.306C346.308 179.334 346.278 179.356 346.245 179.371C342.426 182.626 338.911 192.292 338.553 198.269C338.55 198.346 338.522 198.419 338.473 198.478C338.424 198.537 338.357 198.578 338.282 198.595Z" fill="#263238"/>
<path d="M342.438 199.268C342.188 200.559 341.233 201.437 340.268 201.296C339.759 201.096 339.344 200.711 339.107 200.218C338.869 199.726 338.827 199.161 338.988 198.638C339.226 197.337 340.192 196.469 341.157 196.61C341.667 196.81 342.081 197.195 342.319 197.688C342.556 198.18 342.599 198.745 342.438 199.268Z" fill="white"/>
<path d="M342.513 199.387C342.177 200.982 341.298 202.154 340.571 202.002C339.845 201.85 339.487 200.418 339.877 198.812C340.268 197.207 341.092 196.046 341.819 196.209C342.546 196.371 342.817 197.782 342.513 199.387Z" fill="#263238"/>
<path d="M327.868 234.081L305.238 234.493C304.809 234.495 304.395 234.34 304.071 234.059C303.748 233.777 303.538 233.388 303.48 232.964L299.141 198.335C299.113 198.138 299.127 197.937 299.184 197.746C299.24 197.555 299.337 197.378 299.468 197.228C299.599 197.078 299.76 196.958 299.941 196.875C300.123 196.793 300.319 196.75 300.519 196.751L323.181 196.36C323.61 196.359 324.024 196.513 324.348 196.795C324.671 197.076 324.881 197.465 324.939 197.89L329.278 232.519C329.303 232.717 329.285 232.918 329.225 233.109C329.166 233.3 329.065 233.475 328.931 233.623C328.797 233.772 328.633 233.889 328.45 233.968C328.266 234.047 328.068 234.086 327.868 234.081Z" fill="#263238"/>
<path d="M314.915 199.235L309.49 199.332C308.957 199.336 308.441 199.144 308.041 198.792C307.641 198.439 307.384 197.952 307.32 197.423L306.908 194.19L316.238 194.017L316.629 197.206C316.673 197.456 316.662 197.712 316.597 197.957C316.531 198.202 316.412 198.429 316.248 198.623C316.085 198.817 315.88 198.972 315.65 199.078C315.419 199.184 315.168 199.237 314.915 199.235Z" fill="#263238"/>
<path opacity="0.7" d="M314.915 199.235L309.49 199.332C308.957 199.336 308.441 199.144 308.041 198.792C307.641 198.439 307.384 197.952 307.32 197.423L306.908 194.19L316.238 194.017L316.629 197.206C316.673 197.456 316.662 197.712 316.597 197.957C316.531 198.202 316.412 198.429 316.248 198.623C316.085 198.817 315.88 198.972 315.65 199.078C315.419 199.184 315.168 199.237 314.915 199.235Z" fill="white"/>
<path d="M324.223 196.415H323.138C323.565 196.418 323.977 196.574 324.299 196.855C324.622 197.135 324.833 197.522 324.895 197.945L329.235 232.584C329.263 232.782 329.248 232.982 329.191 233.173C329.135 233.364 329.038 233.541 328.908 233.691C328.777 233.841 328.615 233.962 328.434 234.044C328.253 234.126 328.056 234.169 327.857 234.168H328.942C329.14 234.169 329.337 234.127 329.518 234.044C329.699 233.962 329.86 233.841 329.989 233.691C330.119 233.54 330.215 233.363 330.27 233.172C330.325 232.982 330.338 232.781 330.309 232.584L325.969 197.945C325.907 197.524 325.698 197.139 325.378 196.858C325.057 196.578 324.648 196.421 324.223 196.415Z" fill="white"/>
<path opacity="0.2" d="M368.213 190.351C368.55 191.088 361.216 220.314 361.216 220.314L366.803 222.777L368.213 190.351Z" fill="black"/>
<path d="M380.245 209.227C378.976 220.694 377.804 225.174 376.99 226.422C372.781 241.968 359.394 234.146 357.463 233.506C354.121 232.421 350.671 230.143 347.482 228.667C341.277 225.858 335.418 223.634 329.614 220.064L332.587 213.653C332.587 213.653 354.859 218.491 357.777 219.077C359.047 219.359 365.371 220.401 365.23 217.005C365.881 215.855 366.456 196.208 368.279 188.365C368.49 187.486 368.877 186.659 369.418 185.935L369.602 185.696C370.817 184.047 371.62 184.058 373.844 184.145C378.694 184.34 380.983 188.083 381.492 192.91C381.97 197.445 380.787 204.757 380.245 209.227Z" fill="#eb5454"/>
<g opacity="0.7">
<path d="M380.245 209.228C378.976 220.695 377.804 225.175 376.99 226.423C372.781 241.969 359.394 234.147 357.463 233.507C354.121 232.422 350.671 230.144 347.482 228.668C341.277 225.859 335.418 223.635 329.614 220.065L332.587 213.654C332.587 213.654 354.859 218.492 357.777 219.078C359.047 219.36 365.371 220.402 365.23 217.006C365.881 215.856 366.456 196.209 368.279 188.366C368.49 187.487 368.877 186.66 369.418 185.936L369.602 185.697C370.817 184.048 371.62 184.059 373.844 184.146C378.694 184.341 380.983 188.084 381.492 192.911C381.97 197.446 380.787 204.758 380.245 209.228Z" fill="white"/>
</g>
<path d="M332.847 214.413C333.021 215.194 333.033 216.003 332.882 216.789C332.731 217.576 332.42 218.322 331.968 218.983C331.517 219.645 330.934 220.206 330.257 220.633C329.579 221.059 328.822 221.343 328.03 221.464C326.256 221.725 324.46 221.795 322.671 221.671L322.259 210.659L330.688 212.308C331.214 212.41 331.699 212.664 332.082 213.038C332.466 213.412 332.732 213.89 332.847 214.413Z" fill="#CE7A63"/>
<path d="M322.259 210.659L322.704 221.703L318.614 221.942C317.413 222.018 316.224 221.666 315.257 220.949C314.29 220.232 313.608 219.197 313.331 218.025L313.277 217.765C313.118 217.093 313.098 216.396 313.217 215.716C313.336 215.036 313.592 214.387 313.97 213.808C314.347 213.23 314.838 212.735 315.412 212.352C315.987 211.969 316.633 211.707 317.312 211.581L322.259 210.659Z" fill="#CE7A63"/>
<path d="M222.603 204.301L219.663 234.113H224.469L222.603 204.301Z" fill="#263238"/>
<path d="M258.479 233.94L223.97 234.081L222.288 204.312L256.787 204.16L258.479 233.94Z" fill="#eb5454"/>
<path opacity="0.6" d="M258.479 233.94L223.97 234.081L222.288 204.312L256.787 204.16L258.479 233.94Z" fill="white"/>
<path d="M256.787 204.16L222.288 204.312L221.963 198.736L256.472 198.595L256.787 204.16Z" fill="#263238"/>
<path d="M227.127 196.87C227.111 196.625 227.002 196.394 226.823 196.225C226.644 196.056 226.408 195.961 226.161 195.959C226.042 195.957 225.924 195.98 225.814 196.027C225.705 196.073 225.606 196.142 225.524 196.229C225.442 196.315 225.38 196.418 225.34 196.531C225.3 196.643 225.284 196.762 225.293 196.881C225.293 197.207 225.478 200.233 225.5 200.559C225.516 200.806 225.624 201.037 225.803 201.208C225.982 201.379 226.218 201.476 226.465 201.481C226.584 201.481 226.701 201.457 226.81 201.41C226.919 201.363 227.018 201.294 227.099 201.208C227.18 201.122 227.243 201.019 227.283 200.908C227.324 200.796 227.34 200.677 227.333 200.559C227.322 200.299 227.149 197.131 227.127 196.87Z" fill="#eb5454"/>
<path d="M233.767 196.848C233.753 196.6 233.645 196.367 233.466 196.196C233.287 196.025 233.049 195.928 232.801 195.926C232.681 195.925 232.563 195.95 232.453 195.997C232.343 196.045 232.245 196.115 232.163 196.203C232.082 196.29 232.019 196.394 231.98 196.507C231.94 196.62 231.924 196.739 231.933 196.859C231.933 197.184 232.118 200.211 232.139 200.536C232.158 200.783 232.269 201.014 232.45 201.182C232.631 201.351 232.868 201.446 233.116 201.448C233.234 201.448 233.352 201.424 233.461 201.377C233.57 201.33 233.668 201.261 233.749 201.175C233.831 201.088 233.893 200.986 233.934 200.874C233.974 200.763 233.991 200.644 233.983 200.526C233.962 200.265 233.788 197.108 233.767 196.848Z" fill="#eb5454"/>
<path d="M240.416 196.816C240.397 196.569 240.286 196.339 240.105 196.17C239.925 196.001 239.687 195.906 239.44 195.904C239.321 195.903 239.202 195.926 239.093 195.972C238.983 196.018 238.884 196.087 238.802 196.174C238.721 196.261 238.658 196.364 238.618 196.476C238.579 196.588 238.563 196.708 238.572 196.827C238.572 197.152 238.767 200.179 238.778 200.504C238.794 200.753 238.904 200.986 239.085 201.157C239.266 201.328 239.505 201.424 239.754 201.426C239.874 201.425 239.991 201.4 240.1 201.351C240.209 201.303 240.307 201.233 240.389 201.146C240.47 201.059 240.532 200.956 240.572 200.844C240.613 200.732 240.63 200.612 240.622 200.493C240.601 200.233 240.427 197.076 240.416 196.816Z" fill="#eb5454"/>
<path d="M247.055 196.794C247.039 196.546 246.929 196.313 246.748 196.142C246.567 195.971 246.328 195.874 246.079 195.872C245.961 195.873 245.844 195.899 245.736 195.946C245.627 195.994 245.53 196.062 245.449 196.149C245.368 196.235 245.305 196.336 245.264 196.447C245.223 196.558 245.205 196.676 245.211 196.794C245.211 197.12 245.406 200.157 245.428 200.483C245.444 200.728 245.553 200.959 245.732 201.128C245.911 201.297 246.147 201.392 246.394 201.394C246.513 201.396 246.631 201.373 246.741 201.326C246.85 201.28 246.949 201.211 247.031 201.124C247.113 201.038 247.175 200.935 247.215 200.822C247.255 200.71 247.27 200.591 247.261 200.472C247.251 200.212 247.066 197.055 247.055 196.794Z" fill="#eb5454"/>
<path d="M253.695 196.761C253.679 196.515 253.57 196.285 253.391 196.116C253.212 195.947 252.976 195.852 252.73 195.85C252.611 195.848 252.492 195.871 252.383 195.917C252.273 195.964 252.174 196.032 252.092 196.119C252.011 196.206 251.948 196.309 251.908 196.421C251.869 196.534 251.853 196.653 251.862 196.772C251.862 197.097 252.046 200.124 252.068 200.45C252.079 200.697 252.186 200.93 252.366 201.1C252.547 201.271 252.786 201.364 253.034 201.361C253.153 201.363 253.271 201.34 253.381 201.293C253.49 201.247 253.589 201.178 253.671 201.091C253.753 201.004 253.815 200.902 253.855 200.789C253.895 200.677 253.91 200.558 253.901 200.439C253.858 200.178 253.706 197.021 253.695 196.761Z" fill="#eb5454"/>
<g opacity="0.7">
<path d="M227.127 196.869C227.111 196.624 227.002 196.393 226.823 196.224C226.644 196.055 226.408 195.96 226.161 195.958C226.042 195.956 225.924 195.979 225.814 196.026C225.705 196.072 225.606 196.141 225.524 196.228C225.442 196.314 225.38 196.417 225.34 196.53C225.3 196.642 225.284 196.761 225.293 196.88C225.293 197.206 225.478 200.232 225.5 200.558C225.516 200.805 225.624 201.036 225.803 201.207C225.982 201.378 226.218 201.475 226.465 201.48C226.584 201.48 226.701 201.456 226.81 201.409C226.919 201.362 227.018 201.293 227.099 201.207C227.18 201.121 227.243 201.018 227.283 200.907C227.324 200.795 227.34 200.676 227.333 200.558C227.322 200.298 227.149 197.13 227.127 196.869Z" fill="white"/>
<path d="M233.767 196.848C233.753 196.6 233.645 196.367 233.466 196.196C233.287 196.025 233.049 195.928 232.801 195.926C232.681 195.925 232.563 195.95 232.453 195.997C232.343 196.045 232.245 196.115 232.163 196.203C232.082 196.29 232.019 196.394 231.98 196.507C231.94 196.62 231.924 196.739 231.933 196.859C231.933 197.184 232.118 200.211 232.139 200.536C232.158 200.783 232.269 201.014 232.45 201.182C232.631 201.351 232.868 201.446 233.116 201.448C233.234 201.448 233.352 201.424 233.461 201.377C233.57 201.33 233.668 201.261 233.749 201.175C233.831 201.088 233.893 200.986 233.934 200.874C233.974 200.763 233.991 200.644 233.983 200.526C233.962 200.265 233.788 197.108 233.767 196.848Z" fill="white"/>
<path d="M240.416 196.816C240.397 196.569 240.286 196.339 240.105 196.17C239.925 196.001 239.687 195.906 239.44 195.904C239.321 195.903 239.202 195.926 239.093 195.972C238.983 196.018 238.884 196.087 238.802 196.174C238.721 196.261 238.658 196.364 238.618 196.476C238.579 196.588 238.563 196.708 238.572 196.827C238.572 197.152 238.767 200.179 238.778 200.504C238.794 200.753 238.904 200.986 239.085 201.157C239.266 201.328 239.505 201.424 239.754 201.426C239.874 201.425 239.991 201.4 240.1 201.351C240.209 201.303 240.307 201.233 240.389 201.146C240.47 201.059 240.532 200.956 240.572 200.844C240.613 200.732 240.63 200.612 240.622 200.493C240.601 200.233 240.427 197.076 240.416 196.816Z" fill="white"/>
<path d="M247.056 196.793C247.04 196.545 246.93 196.312 246.749 196.141C246.568 195.97 246.329 195.873 246.08 195.871C245.962 195.872 245.845 195.898 245.737 195.945C245.628 195.993 245.531 196.061 245.45 196.148C245.369 196.234 245.306 196.335 245.265 196.446C245.224 196.557 245.206 196.675 245.212 196.793C245.212 197.119 245.407 200.156 245.429 200.482C245.445 200.727 245.554 200.958 245.733 201.127C245.912 201.296 246.148 201.391 246.395 201.393C246.514 201.395 246.632 201.372 246.742 201.325C246.851 201.279 246.95 201.21 247.032 201.124C247.114 201.037 247.176 200.934 247.216 200.821C247.256 200.709 247.271 200.59 247.262 200.471C247.252 200.211 247.067 197.054 247.056 196.793Z" fill="white"/>
<path d="M253.695 196.761C253.679 196.515 253.57 196.285 253.391 196.116C253.212 195.947 252.976 195.852 252.73 195.85C252.611 195.848 252.492 195.871 252.383 195.917C252.273 195.964 252.174 196.032 252.092 196.119C252.011 196.206 251.948 196.309 251.908 196.421C251.869 196.534 251.853 196.653 251.862 196.772C251.862 197.097 252.046 200.124 252.068 200.45C252.079 200.697 252.186 200.93 252.366 201.1C252.547 201.271 252.786 201.364 253.034 201.361C253.153 201.363 253.271 201.34 253.381 201.293C253.49 201.247 253.589 201.178 253.671 201.091C253.753 201.004 253.815 200.902 253.855 200.789C253.895 200.677 253.91 200.558 253.901 200.439C253.858 200.178 253.706 197.021 253.695 196.761Z" fill="white"/>
</g>
<path d="M259.445 233.104L224.935 233.245L222.288 204.312L256.787 204.16L259.445 233.104Z" fill="#eb5454"/>
<path opacity="0.8" d="M259.445 233.104L224.935 233.245L222.288 204.312L256.787 204.16L259.445 233.104Z" fill="white"/>
<path d="M249.486 211.31L232.399 211.375L231.933 206.287L249.019 206.211L249.486 211.31Z" fill="#eb5454"/>
<path opacity="0.6" d="M249.486 211.31L232.399 211.375L231.933 206.287L249.019 206.211L249.486 211.31Z" fill="white"/>
<path d="M230.132 217.971L225.565 217.992L225.142 213.425L229.709 213.403L230.132 217.971Z" fill="white"/>
<path d="M236.598 217.938L232.041 217.96L231.618 213.404L236.185 213.382L236.598 217.938Z" fill="white"/>
<path d="M230.686 224.122L226.129 224.144L225.706 219.576L230.273 219.555L230.686 224.122Z" fill="#eb5454"/>
<path d="M231.249 230.272L226.693 230.294L226.27 225.727L230.837 225.716L231.249 230.272Z" fill="#eb5454"/>
<path d="M237.162 224.1L232.606 224.11L232.183 219.554L236.739 219.532L237.162 224.1Z" fill="#eb5454"/>
<path opacity="0.2" d="M237.162 224.1L232.606 224.11L232.183 219.554L236.739 219.532L237.162 224.1Z" fill="white"/>
<path d="M243.639 224.067L239.071 224.089L238.659 219.522L243.216 219.5L243.639 224.067Z" fill="#eb5454"/>
<path opacity="0.2" d="M243.639 224.067L239.071 224.089L238.659 219.522L243.216 219.5L243.639 224.067Z" fill="white"/>
<path d="M250.105 224.046L245.548 224.057L245.125 219.5L249.692 219.479L250.105 224.046Z" fill="#eb5454"/>
<path opacity="0.2" d="M250.105 224.046L245.548 224.057L245.125 219.5L249.692 219.479L250.105 224.046Z" fill="white"/>
<path d="M256.581 224.013L252.014 224.035L251.602 219.468L256.158 219.457L256.581 224.013Z" fill="#eb5454"/>
<path opacity="0.2" d="M256.581 224.013L252.014 224.035L251.602 219.468L256.158 219.457L256.581 224.013Z" fill="white"/>
<path d="M237.726 230.251L233.158 230.273L232.746 225.705L237.313 225.684L237.726 230.251Z" fill="#eb5454"/>
<path opacity="0.2" d="M237.726 230.251L233.158 230.273L232.746 225.705L237.313 225.684L237.726 230.251Z" fill="white"/>
<path d="M244.191 230.219L239.635 230.24L239.212 225.673L243.779 225.662L244.191 230.219Z" fill="#eb5454"/>
<path opacity="0.2" d="M244.191 230.219L239.635 230.24L239.212 225.673L243.779 225.662L244.191 230.219Z" fill="white"/>
<path d="M250.669 230.197L246.113 230.219L245.689 225.652L250.257 225.63L250.669 230.197Z" fill="#eb5454"/>
<path opacity="0.2" d="M250.669 230.197L246.113 230.219L245.689 225.652L250.257 225.63L250.669 230.197Z" fill="white"/>
<path d="M243.074 217.916L238.507 217.938L238.095 213.37L242.651 213.349L243.074 217.916Z" fill="#eb5454"/>
<path opacity="0.2" d="M243.074 217.916L238.507 217.938L238.095 213.37L242.651 213.349L243.074 217.916Z" fill="white"/>
<path d="M249.54 217.884L244.984 217.905L244.561 213.349L249.128 213.327L249.54 217.884Z" fill="#eb5454"/>
<path opacity="0.2" d="M249.54 217.884L244.984 217.905L244.561 213.349L249.128 213.327L249.54 217.884Z" fill="white"/>
<path d="M256.017 217.862L251.449 217.884L251.037 213.317L255.594 213.295L256.017 217.862Z" fill="#eb5454"/>
<path opacity="0.2" d="M256.017 217.862L251.449 217.884L251.037 213.317L255.594 213.295L256.017 217.862Z" fill="white"/>
<path d="M257.146 230.165L252.578 230.187L252.166 225.63L256.722 225.608L257.146 230.165Z" fill="white"/>
<path d="M177.245 242.738V249.356H138.363L134.165 387.383H130.596V242.738H177.245Z" fill="#263238"/>
<path opacity="0.7" d="M177.245 242.738V249.356H138.363L134.165 387.383H130.596V242.738H177.245Z" fill="white"/>
<path d="M130.596 387.383H127.222L126.137 242.738H130.596V387.383Z" fill="#263238"/>
<g opacity="0.3">
<path d="M130.596 387.383H127.222L126.137 242.738H130.596V387.383Z" fill="white"/>
</g>
<path d="M188.311 242.738V387.383H184.774L181.628 249.356H177.462V242.738H188.311Z" fill="#263238"/>
<path d="M185.175 387.383H181.801L177.462 242.738H181.921L185.175 387.383Z" fill="#263238"/>
<g opacity="0.3">
<path d="M185.175 387.383H181.801L177.462 242.738H181.921L185.175 387.383Z" fill="white"/>
</g>
<path opacity="0.7" d="M188.311 242.738V387.383H184.774L181.628 249.356H177.462V242.738H188.311Z" fill="white"/>
<path d="M400.477 387.383H397.114L392.774 242.738H397.222L400.477 387.383Z" fill="#263238"/>
<path opacity="0.3" d="M392.774 242.738H397.222L400.477 387.383H397.114" fill="white"/>
<path d="M342.675 242.738H130.617V253.706H342.675V242.738Z" fill="#263238"/>
<path opacity="0.5" d="M342.675 242.738H130.617V253.706H342.675V242.738Z" fill="white"/>
<path d="M346.126 242.738V387.383H349.684L353.883 249.345H396.941L400.087 387.383H403.624V242.738H346.126Z" fill="#263238"/>
<path opacity="0.7" d="M346.126 242.738V387.383H349.684L353.883 249.345H396.941L400.087 387.383H403.624V242.738H346.126Z" fill="white"/>
<path d="M346.126 387.383H342.752L341.667 242.738H346.126V387.383Z" fill="#263238"/>
<path opacity="0.3" d="M346.126 387.383H342.752L341.667 242.738H346.126V387.383Z" fill="white"/>
<path d="M343.337 234.417H120.235V242.738H343.337V234.417Z" fill="#263238"/>
<path opacity="0.6" d="M343.337 234.417H120.235V242.738H343.337V234.417Z" fill="white"/>
<path d="M409.525 234.417H338.163V242.738H409.525V234.417Z" fill="#263238"/>
<path opacity="0.7" d="M409.525 234.417H338.163V242.738H409.525V234.417Z" fill="white"/>
<path d="M211.711 216.756H81.4627C99.6992 150.796 63.2261 84.8688 81.4627 18.9199H211.711C193.475 84.8688 229.991 150.796 211.711 216.756Z" fill="#eb5454"/>
<path opacity="0.7" d="M211.711 216.756H81.4627C99.6992 150.796 63.2261 84.8688 81.4627 18.9199H211.711C193.475 84.8688 229.991 150.796 211.711 216.756Z" fill="white"/>
<path d="M196.567 60.3404H137.713C137.56 60.3404 137.414 60.2798 137.306 60.172C137.198 60.0642 137.138 59.9179 137.138 59.7654C137.138 59.6129 137.198 59.4667 137.306 59.3588C137.414 59.251 137.56 59.1904 137.713 59.1904H196.567C196.719 59.1904 196.865 59.251 196.973 59.3588C197.081 59.4667 197.141 59.6129 197.141 59.7654C197.141 59.9179 197.081 60.0642 196.973 60.172C196.865 60.2798 196.719 60.3404 196.567 60.3404Z" fill="#263238"/>
<path d="M196.849 72.0347H137.995C137.841 72.0322 137.694 71.9715 137.584 71.8647C137.473 71.758 137.407 71.6133 137.398 71.4598C137.394 71.3858 137.405 71.3118 137.43 71.2422C137.455 71.1725 137.495 71.1088 137.545 71.055C137.596 71.0011 137.657 70.9582 137.725 70.9289C137.794 70.8997 137.867 70.8846 137.941 70.8848H196.795C196.95 70.8871 197.098 70.9475 197.21 71.054C197.323 71.1604 197.391 71.3052 197.402 71.4598C197.405 71.5342 197.393 71.6085 197.367 71.6782C197.34 71.7478 197.3 71.8114 197.248 71.8651C197.196 71.9188 197.134 71.9615 197.066 71.9906C196.997 72.0198 196.923 72.0348 196.849 72.0347Z" fill="#263238"/>
<path d="M197.607 83.7837H86.9514C86.7949 83.7796 86.6451 83.7192 86.5296 83.6136C86.414 83.508 86.3404 83.3643 86.3222 83.2088C86.3145 83.136 86.3224 83.0624 86.3451 82.9928C86.3678 82.9232 86.405 82.8592 86.4541 82.805C86.5032 82.7507 86.5633 82.7074 86.6303 82.6779C86.6972 82.6484 86.7697 82.6334 86.8429 82.6338H197.499C197.655 82.6359 197.805 82.6959 197.919 82.8022C198.033 82.9084 198.104 83.0533 198.117 83.2088C198.125 83.2807 198.117 83.3534 198.095 83.4222C198.073 83.491 198.037 83.5545 197.989 83.6086C197.941 83.6627 197.882 83.7062 197.817 83.7363C197.751 83.7665 197.68 83.7826 197.607 83.7837Z" fill="#263238"/>
<path d="M206.807 184.069H96.1187C96.0438 184.071 95.9693 184.057 95.9 184.028C95.8306 183.999 95.768 183.957 95.716 183.903C95.664 183.849 95.6238 183.784 95.5979 183.714C95.572 183.644 95.5609 183.569 95.5654 183.494C95.5764 183.34 95.6453 183.197 95.758 183.092C95.8708 182.987 96.0191 182.929 96.173 182.93H206.829C206.903 182.928 206.976 182.942 207.044 182.97C207.112 182.998 207.173 183.04 207.224 183.093C207.275 183.146 207.314 183.209 207.34 183.278C207.365 183.347 207.376 183.421 207.371 183.494C207.366 183.643 207.305 183.785 207.201 183.891C207.097 183.997 206.956 184.061 206.807 184.069Z" fill="#263238"/>
<path d="M131.269 204.171H93.9061C93.8345 204.173 93.7635 204.158 93.6984 204.128C93.6334 204.098 93.5761 204.054 93.531 203.998C93.4859 203.943 93.4542 203.877 93.4383 203.808C93.4225 203.738 93.4229 203.665 93.4396 203.596C93.4711 203.438 93.5545 203.296 93.6764 203.192C93.7984 203.088 93.9519 203.027 94.1122 203.021H131.442C131.514 203.019 131.585 203.033 131.65 203.063C131.715 203.093 131.772 203.138 131.817 203.193C131.863 203.249 131.894 203.314 131.91 203.384C131.926 203.454 131.926 203.526 131.909 203.596C131.879 203.748 131.8 203.886 131.685 203.99C131.569 204.094 131.423 204.157 131.269 204.171Z" fill="#263238"/>
<path d="M204.975 204.171H167.644C167.573 204.173 167.502 204.158 167.437 204.128C167.372 204.098 167.314 204.054 167.269 203.998C167.224 203.943 167.192 203.877 167.177 203.808C167.161 203.738 167.161 203.665 167.178 203.596C167.208 203.437 167.29 203.294 167.413 203.19C167.535 203.085 167.69 203.025 167.85 203.021H205.181C205.252 203.019 205.323 203.033 205.388 203.063C205.453 203.093 205.511 203.138 205.556 203.193C205.601 203.249 205.633 203.314 205.648 203.384C205.664 203.454 205.664 203.526 205.647 203.596C205.616 203.753 205.532 203.895 205.41 203.999C205.288 204.104 205.135 204.164 204.975 204.171Z" fill="#263238"/>
<path d="M116.308 45.6949C116.308 50.6093 112.609 53.6686 106.718 53.6686H102.27V59.7547H97.1602V37.6777H106.718C112.609 37.6777 116.308 40.737 116.308 45.6949ZM111.133 45.6949C111.133 43.2648 109.549 41.8436 106.436 41.8436H102.27V49.5027H106.436C109.571 49.5027 111.133 48.0924 111.133 45.6949Z" fill="#eb5454"/>
<path d="M119.813 72.3709L114.486 64.7118L109.246 72.3709H103.377L111.546 61.1426L103.789 50.2939H109.572L114.649 57.454L119.639 50.2939H125.161L117.458 60.9582L125.693 72.3709H119.813Z" fill="#eb5454"/>
<path d="M93.9274 91.128C93.9274 92.3431 93.0161 93.1025 91.5515 93.1025H90.4667V94.6105H89.1865V89.1861H91.5515C93.0161 89.0885 93.9274 89.8479 93.9274 91.128ZM92.6472 91.128C92.6472 90.5314 92.2567 90.1734 91.4864 90.1734H90.4016V92.0719H91.4864C92.2133 92.0176 92.6472 91.6705 92.6472 91.128Z" fill="#263238"/>
<path d="M97.345 90.293V91.3779H97.0629C96.9129 91.3774 96.7643 91.4081 96.6267 91.4679C96.4891 91.5278 96.3654 91.6156 96.2634 91.7257C96.1615 91.8358 96.0835 91.9659 96.0343 92.1077C95.9852 92.2495 95.9661 92.3999 95.9781 92.5495V94.5348H94.7305V90.3364H95.8913V90.8897C96.0679 90.6808 96.2922 90.5176 96.5452 90.4137C96.7982 90.3098 97.0726 90.2684 97.345 90.293Z" fill="#263238"/>
<path d="M102.107 92.799H98.9394C98.9969 93.0635 99.1512 93.297 99.372 93.4536C99.5928 93.6101 99.8642 93.6785 100.133 93.6452C100.332 93.6567 100.532 93.6259 100.719 93.5549C100.906 93.4839 101.076 93.3742 101.218 93.233L101.869 93.9381C101.54 94.2553 101.13 94.4741 100.684 94.5697C100.238 94.6654 99.7736 94.6341 99.3443 94.4793C98.915 94.3245 98.5377 94.0525 98.2552 93.6942C97.9727 93.3358 97.7964 92.9054 97.7461 92.4519C97.746 92.1614 97.8042 91.8738 97.9173 91.6063C98.0303 91.3387 98.196 91.0965 98.4044 90.8942C98.6129 90.6918 98.8598 90.5334 99.1306 90.4283C99.4014 90.3231 99.6906 90.2734 99.9809 90.2822C100.269 90.2699 100.557 90.3176 100.826 90.4223C101.094 90.527 101.338 90.6864 101.542 90.8903C101.746 91.0943 101.906 91.3385 102.011 91.6073C102.115 91.8761 102.163 92.1637 102.151 92.4519C102.14 92.5604 102.118 92.7014 102.107 92.799ZM98.9177 92.083H100.99C100.921 91.8619 100.784 91.6686 100.597 91.5313C100.411 91.394 100.185 91.3199 99.9538 91.3199C99.7223 91.3199 99.4968 91.394 99.3104 91.5313C99.124 91.6686 98.9864 91.8619 98.9177 92.083Z" fill="#263238"/>
<path d="M102.53 94.1657L102.943 93.287C103.38 93.5561 103.883 93.6988 104.396 93.6992C104.96 93.6992 105.177 93.5473 105.177 93.3086C105.177 92.6252 102.639 93.3086 102.639 91.6488C102.639 90.8569 103.355 90.2927 104.581 90.2927C105.142 90.2811 105.697 90.4078 106.197 90.6616L105.785 91.5295C105.419 91.3185 105.003 91.2098 104.581 91.2149C104.038 91.2149 103.8 91.3884 103.8 91.6054C103.8 92.3214 106.338 91.6054 106.338 93.287C106.338 94.0572 105.611 94.6213 104.353 94.6213C103.716 94.6334 103.087 94.4761 102.53 94.1657Z" fill="#263238"/>
<path d="M106.773 92.4524C106.772 92.1533 106.833 91.8572 106.952 91.5827C107.071 91.3083 107.246 91.0614 107.465 90.8577C107.684 90.6539 107.942 90.4976 108.225 90.3987C108.507 90.2997 108.807 90.2602 109.105 90.2827C109.493 90.2512 109.88 90.338 110.218 90.5317C110.555 90.7254 110.825 91.0169 110.993 91.3676L110.049 91.8666C109.958 91.695 109.822 91.5511 109.656 91.4499C109.49 91.3488 109.3 91.2941 109.105 91.2916C108.797 91.2916 108.502 91.4139 108.284 91.6316C108.067 91.8493 107.944 92.1445 107.944 92.4524C107.944 92.7603 108.067 93.0555 108.284 93.2732C108.502 93.4909 108.797 93.6132 109.105 93.6132C109.301 93.6182 109.494 93.5666 109.662 93.4647C109.829 93.3627 109.964 93.2146 110.049 93.0382L110.993 93.559C110.821 93.9068 110.55 94.1957 110.214 94.3889C109.878 94.5821 109.492 94.6709 109.105 94.6438C108.805 94.6664 108.503 94.6263 108.22 94.5261C107.936 94.4258 107.676 94.2676 107.457 94.0615C107.237 93.8554 107.063 93.6059 106.945 93.3289C106.828 93.0519 106.769 92.7534 106.773 92.4524Z" fill="#263238"/>
<path d="M114.291 90.2935V91.3784H114.019C113.869 91.3779 113.721 91.4085 113.583 91.4684C113.446 91.5283 113.322 91.616 113.22 91.7261C113.118 91.8363 113.04 91.9663 112.991 92.1082C112.942 92.25 112.923 92.4004 112.935 92.55V94.5353H111.741V90.3369H112.826V90.8902C113.003 90.679 113.229 90.5142 113.484 90.4102C113.74 90.3063 114.016 90.2662 114.291 90.2935Z" fill="#263238"/>
<path d="M114.865 89.089C114.868 88.9939 114.89 88.9004 114.93 88.8142C114.97 88.728 115.028 88.651 115.099 88.5879C115.17 88.5248 115.254 88.4771 115.344 88.4476C115.434 88.4181 115.53 88.4075 115.625 88.4164C115.718 88.4059 115.812 88.4147 115.902 88.4423C115.992 88.4698 116.075 88.5156 116.146 88.5766C116.217 88.6377 116.275 88.7128 116.316 88.7972C116.357 88.8816 116.38 88.9736 116.384 89.0673C116.384 89.2687 116.304 89.4619 116.162 89.6043C116.019 89.7467 115.826 89.8267 115.625 89.8267C115.423 89.8267 115.23 89.7467 115.088 89.6043C114.945 89.4619 114.865 89.2687 114.865 89.0673V89.089ZM115.017 90.3583H116.232V94.5567H114.995L115.017 90.3583Z" fill="#263238"/>
<path d="M121.938 92.4516C121.955 92.7344 121.913 93.0176 121.814 93.2833C121.716 93.549 121.564 93.7914 121.367 93.9952C121.17 94.1991 120.933 94.36 120.671 94.4677C120.409 94.5755 120.128 94.6278 119.845 94.6213C119.609 94.6307 119.374 94.5901 119.155 94.5022C118.937 94.4143 118.739 94.2811 118.575 94.1114V96.0642H117.36V90.3578H118.521V90.8351C118.687 90.6518 118.892 90.5079 119.121 90.414C119.35 90.3202 119.598 90.2787 119.845 90.2927C120.127 90.2863 120.408 90.3383 120.669 90.4454C120.93 90.5525 121.166 90.7124 121.363 90.9151C121.559 91.1178 121.712 91.3588 121.811 91.6232C121.91 91.8876 121.953 92.1696 121.938 92.4516ZM120.702 92.4516C120.687 92.2409 120.611 92.0391 120.483 91.8709C120.355 91.7028 120.181 91.5756 119.982 91.505C119.783 91.4344 119.568 91.4235 119.362 91.4735C119.157 91.5236 118.971 91.6324 118.827 91.7868C118.683 91.9411 118.587 92.1341 118.551 92.3423C118.515 92.5504 118.54 92.7645 118.624 92.9583C118.708 93.1522 118.846 93.3173 119.023 93.4335C119.199 93.5497 119.406 93.6118 119.617 93.6124C119.766 93.6127 119.914 93.5824 120.05 93.5232C120.187 93.464 120.31 93.3772 120.412 93.2683C120.514 93.1593 120.592 93.0306 120.642 92.8901C120.692 92.7496 120.712 92.6003 120.702 92.4516Z" fill="#263238"/>
<path d="M125.453 94.3833C125.156 94.573 124.808 94.6676 124.455 94.6545C124.248 94.6837 124.037 94.6652 123.838 94.6006C123.639 94.5359 123.457 94.4268 123.306 94.2814C123.156 94.1361 123.04 93.9584 122.969 93.7617C122.897 93.5651 122.871 93.3547 122.893 93.1465V91.4216H122.242V90.4778H122.893V89.458H124.108V90.4778H125.193V91.4216H124.108V93.1248C124.098 93.197 124.105 93.2705 124.127 93.3399C124.149 93.4093 124.186 93.4729 124.236 93.5259C124.286 93.579 124.347 93.6202 124.415 93.6465C124.483 93.6729 124.556 93.6837 124.629 93.6781C124.804 93.6813 124.975 93.628 125.117 93.5262L125.453 94.3833Z" fill="#263238"/>
<path d="M125.985 89.0889C125.988 88.9938 126.01 88.9002 126.05 88.814C126.09 88.7278 126.148 88.6508 126.219 88.5877C126.29 88.5247 126.374 88.4769 126.464 88.4474C126.555 88.4179 126.65 88.4073 126.745 88.4163C126.837 88.4073 126.93 88.4173 127.019 88.4456C127.107 88.4739 127.189 88.5199 127.259 88.5808C127.329 88.6417 127.386 88.7162 127.426 88.7999C127.466 88.8835 127.489 88.9744 127.493 89.0672C127.471 89.2516 127.382 89.4214 127.243 89.5447C127.104 89.6679 126.925 89.736 126.739 89.736C126.554 89.736 126.374 89.6679 126.235 89.5447C126.096 89.4214 126.008 89.2516 125.985 89.0672V89.0889ZM126.126 90.3582H127.352V94.5566H126.126V90.3582Z" fill="#263238"/>
<path d="M128.165 92.4518C128.137 91.9898 128.248 91.53 128.484 91.1319C128.721 90.7338 129.071 90.4158 129.49 90.2191C129.909 90.0224 130.377 89.956 130.834 90.0286C131.291 90.1012 131.716 90.3094 132.054 90.6262C132.391 90.943 132.626 91.3539 132.727 91.8056C132.828 92.2572 132.791 92.7288 132.621 93.1593C132.451 93.5899 132.156 93.9594 131.773 94.2201C131.391 94.4808 130.939 94.6207 130.476 94.6215C130.18 94.6408 129.882 94.599 129.603 94.4987C129.323 94.3983 129.067 94.2416 128.85 94.0381C128.633 93.8347 128.461 93.5889 128.343 93.316C128.225 93.0432 128.165 92.749 128.165 92.4518ZM131.539 92.4518C131.525 92.2411 131.449 92.0393 131.321 91.8712C131.193 91.703 131.019 91.5758 130.82 91.5053C130.621 91.4347 130.405 91.4237 130.2 91.4738C129.995 91.5238 129.809 91.6327 129.665 91.787C129.52 91.9413 129.424 92.1344 129.388 92.3425C129.352 92.5506 129.378 92.7647 129.462 92.9586C129.545 93.1524 129.684 93.3175 129.86 93.4337C130.037 93.5499 130.243 93.6121 130.455 93.6126C130.604 93.613 130.751 93.5826 130.888 93.5234C131.025 93.4642 131.148 93.3774 131.25 93.2685C131.352 93.1596 131.43 93.0308 131.48 92.8903C131.529 92.7498 131.55 92.6005 131.539 92.4518Z" fill="#263238"/>
<path d="M137.876 92.1479V94.5563H136.693V92.3866C136.693 91.714 136.379 91.3993 135.836 91.3993C135.294 91.3993 134.838 91.7573 134.838 92.4842V94.5671H133.612V90.3687H134.784V90.8569C134.964 90.6723 135.18 90.5277 135.419 90.4323C135.659 90.337 135.915 90.2931 136.173 90.3036C136.412 90.2922 136.65 90.3332 136.872 90.4239C137.093 90.5146 137.292 90.6527 137.454 90.8285C137.617 91.0043 137.739 91.2135 137.811 91.4415C137.884 91.6694 137.906 91.9105 137.876 92.1479Z" fill="#263238"/>
<path d="M138.679 91.0521C138.674 90.9525 138.69 90.8531 138.726 90.7602C138.762 90.6673 138.817 90.5829 138.887 90.5125C138.958 90.442 139.042 90.387 139.135 90.351C139.228 90.3151 139.328 90.2989 139.427 90.3035C139.527 90.299 139.627 90.3151 139.72 90.351C139.814 90.3869 139.899 90.4417 139.97 90.512C140.042 90.5822 140.098 90.6665 140.135 90.7594C140.172 90.8524 140.19 90.952 140.186 91.0521C140.189 91.1526 140.172 91.2527 140.135 91.3462C140.098 91.4397 140.042 91.5246 139.971 91.5957C139.9 91.6669 139.815 91.7227 139.721 91.7598C139.628 91.7969 139.528 91.8145 139.427 91.8115C139.327 91.813 139.229 91.7943 139.136 91.7565C139.044 91.7187 138.96 91.6627 138.891 91.5917C138.821 91.5208 138.766 91.4363 138.729 91.3436C138.693 91.2508 138.676 91.1517 138.679 91.0521ZM138.679 93.851C138.674 93.7515 138.69 93.6521 138.726 93.5592C138.762 93.4662 138.817 93.3818 138.887 93.3114C138.958 93.2409 139.042 93.186 139.135 93.15C139.228 93.114 139.328 93.0978 139.427 93.1025C139.527 93.0979 139.627 93.1141 139.72 93.15C139.814 93.1858 139.899 93.2406 139.97 93.3109C140.042 93.3812 140.098 93.4654 140.135 93.5584C140.172 93.6513 140.19 93.7509 140.186 93.851C140.189 93.952 140.172 94.0526 140.135 94.1467C140.098 94.2408 140.042 94.3264 139.971 94.3983C139.9 94.4703 139.816 94.5272 139.722 94.5655C139.628 94.6038 139.528 94.6228 139.427 94.6213C139.326 94.6228 139.227 94.6038 139.134 94.5654C139.041 94.527 138.957 94.4699 138.886 94.3978C138.816 94.3256 138.762 94.2399 138.726 94.1459C138.69 94.0519 138.674 93.9515 138.679 93.851Z" fill="#263238"/>
<path d="M239.203 90.0027L219.914 83.8615C216.425 82.7509 212.697 84.6784 211.587 88.1667L190.527 154.316C189.416 157.804 191.344 161.532 194.832 162.643L214.122 168.784C217.61 169.894 221.338 167.967 222.449 164.479L243.509 98.3297C244.619 94.8414 242.692 91.1133 239.203 90.0027Z" fill="black"/>
<path opacity="0.8" d="M243.812 96.5525C243.8 97.168 243.698 97.7784 243.508 98.3642L222.451 164.541C222.379 164.766 222.296 164.986 222.202 165.203C221.544 166.7 220.356 167.901 218.866 168.574C217.375 169.247 215.688 169.345 214.13 168.848L194.83 162.707C193.185 162.18 191.811 161.031 191 159.505C190.19 157.979 190.007 156.197 190.491 154.538L202.641 116.384L211.548 88.1665C211.809 87.3347 212.231 86.5624 212.79 85.8939C213.35 85.2254 214.036 84.6738 214.809 84.2708C215.581 83.8677 216.426 83.621 217.295 83.5449C218.163 83.4687 219.038 83.5646 219.869 83.827L239.212 90.0433C239.634 90.1782 240.042 90.3563 240.427 90.5749C241.486 91.1642 242.362 92.0338 242.959 93.0883C243.556 94.1427 243.851 95.3413 243.812 96.5525Z" fill="white"/>
<g opacity="0.6">
<path opacity="0.5" d="M197.141 133.558L205.895 106.078L230.685 87.2881L240.448 90.5427C241.509 91.1328 242.386 92.0042 242.983 93.0607C243.58 94.1173 243.875 95.3181 243.833 96.5311L197.141 133.558Z" fill="white"/>
</g>
<path opacity="0.5" d="M209.378 95.0337L211.548 88.1665C211.808 87.3347 212.23 86.5624 212.79 85.8939C213.349 85.2254 214.035 84.6738 214.808 84.2708C215.581 83.8677 216.426 83.621 217.294 83.5449C218.162 83.4687 219.037 83.5646 219.869 83.827L222.765 84.7492L209.378 95.0337Z" fill="white"/>
<path d="M222.69 94.7631C222.537 95.2415 222.247 95.664 221.854 95.9771C221.462 96.2902 220.985 96.4799 220.485 96.5222C219.985 96.5646 219.483 96.4576 219.044 96.2148C218.604 95.9721 218.247 95.6045 218.016 95.1586C217.785 94.7126 217.692 94.2082 217.748 93.7093C217.804 93.2104 218.007 92.7393 218.331 92.3556C218.655 91.9719 219.085 91.6928 219.567 91.5536C220.05 91.4144 220.562 91.4214 221.041 91.5736C221.359 91.6735 221.655 91.8355 221.911 92.0502C222.166 92.265 222.377 92.5282 222.53 92.8247C222.683 93.1213 222.776 93.4453 222.804 93.778C222.831 94.1107 222.793 94.4455 222.69 94.7631Z" fill="#eb5454"/>
<path d="M217.851 109.929C217.699 110.405 217.409 110.826 217.017 111.137C216.626 111.448 216.151 111.636 215.653 111.678C215.155 111.719 214.656 111.612 214.219 111.37C213.781 111.127 213.426 110.761 213.197 110.317C212.968 109.872 212.876 109.37 212.932 108.873C212.989 108.377 213.191 107.908 213.514 107.526C213.837 107.145 214.265 106.867 214.746 106.729C215.226 106.591 215.737 106.599 216.213 106.751C216.529 106.852 216.823 107.014 217.076 107.229C217.33 107.443 217.539 107.705 217.691 108.001C217.843 108.296 217.935 108.618 217.963 108.949C217.99 109.28 217.952 109.613 217.851 109.929Z" fill="#eb5454"/>
<path d="M213.023 125.107C212.872 125.586 212.583 126.01 212.191 126.325C211.799 126.64 211.323 126.831 210.822 126.875C210.321 126.919 209.819 126.813 209.378 126.571C208.938 126.329 208.579 125.961 208.348 125.515C208.116 125.069 208.022 124.564 208.078 124.065C208.134 123.565 208.337 123.093 208.661 122.709C208.985 122.325 209.416 122.046 209.899 121.907C210.382 121.768 210.895 121.775 211.374 121.928C211.691 122.028 211.986 122.19 212.241 122.404C212.495 122.618 212.705 122.88 212.858 123.175C213.012 123.47 213.105 123.793 213.133 124.125C213.162 124.456 213.124 124.79 213.023 125.107Z" fill="#eb5454"/>
<path d="M208.196 140.284C208.043 140.762 207.753 141.184 207.36 141.498C206.968 141.811 206.491 142 205.991 142.043C205.491 142.085 204.989 141.978 204.55 141.735C204.11 141.493 203.752 141.125 203.522 140.679C203.291 140.233 203.198 139.729 203.254 139.23C203.31 138.731 203.513 138.26 203.837 137.876C204.16 137.492 204.591 137.213 205.073 137.074C205.555 136.935 206.068 136.942 206.547 137.094C206.865 137.194 207.161 137.356 207.416 137.571C207.672 137.785 207.883 138.049 208.036 138.345C208.189 138.642 208.282 138.966 208.31 139.298C208.337 139.631 208.298 139.966 208.196 140.284Z" fill="#eb5454"/>
<path d="M203.368 155.45C203.217 155.929 202.928 156.353 202.536 156.668C202.144 156.983 201.667 157.174 201.167 157.218C200.666 157.262 200.164 157.156 199.723 156.914C199.283 156.672 198.924 156.304 198.692 155.858C198.461 155.412 198.367 154.907 198.423 154.407C198.479 153.908 198.681 153.436 199.006 153.052C199.33 152.668 199.761 152.389 200.244 152.249C200.727 152.11 201.24 152.118 201.719 152.271C202.356 152.478 202.887 152.927 203.195 153.522C203.504 154.117 203.566 154.809 203.368 155.45Z" fill="#eb5454"/>
<path d="M234.883 98.6466C234.649 99.2489 234.194 99.7392 233.611 100.018C233.028 100.296 232.361 100.342 231.745 100.145C231.13 99.9491 230.612 99.5253 230.298 98.9606C229.984 98.3958 229.898 97.7326 230.056 97.1061C230.14 96.7701 230.293 96.455 230.504 96.1802C230.715 95.9054 230.981 95.6767 231.284 95.5083C231.586 95.3399 231.921 95.2353 232.266 95.201C232.61 95.1666 232.959 95.2033 233.289 95.3086C233.619 95.414 233.924 95.5858 234.185 95.8136C234.447 96.0413 234.658 96.3202 234.808 96.6329C234.957 96.9456 235.041 97.2856 235.054 97.6319C235.067 97.9783 235.009 98.3236 234.883 98.6466Z" fill="#eb5454"/>
<path d="M230.055 113.813C229.903 114.289 229.614 114.709 229.224 115.021C228.833 115.333 228.359 115.522 227.861 115.564C227.364 115.606 226.865 115.5 226.427 115.259C225.989 115.018 225.633 114.653 225.403 114.209C225.173 113.766 225.08 113.264 225.134 112.768C225.189 112.271 225.39 111.802 225.711 111.419C226.033 111.037 226.46 110.758 226.94 110.618C227.419 110.479 227.93 110.484 228.406 110.634C229.045 110.839 229.578 111.288 229.887 111.883C230.196 112.479 230.256 113.173 230.055 113.813Z" fill="#eb5454"/>
<path d="M225.228 128.991C225.078 129.47 224.788 129.894 224.396 130.209C224.004 130.524 223.528 130.715 223.027 130.759C222.526 130.803 222.024 130.697 221.583 130.455C221.143 130.213 220.784 129.845 220.553 129.399C220.321 128.953 220.227 128.448 220.283 127.948C220.339 127.449 220.542 126.977 220.866 126.593C221.19 126.209 221.621 125.93 222.104 125.79C222.587 125.651 223.1 125.659 223.579 125.812C224.217 126.019 224.747 126.468 225.056 127.063C225.364 127.658 225.426 128.35 225.228 128.991Z" fill="#eb5454"/>
<path d="M220.389 144.167C220.155 144.769 219.7 145.26 219.117 145.538C218.534 145.817 217.867 145.862 217.251 145.666C216.636 145.47 216.118 145.046 215.804 144.481C215.49 143.916 215.403 143.253 215.561 142.627C215.646 142.291 215.799 141.975 216.01 141.701C216.221 141.426 216.487 141.197 216.789 141.029C217.092 140.86 217.427 140.756 217.771 140.721C218.116 140.687 218.465 140.724 218.795 140.829C219.125 140.934 219.43 141.106 219.691 141.334C219.952 141.562 220.164 141.841 220.314 142.153C220.463 142.466 220.547 142.806 220.56 143.152C220.573 143.499 220.515 143.844 220.389 144.167Z" fill="#eb5454"/>
<path d="M215.562 159.333C215.41 159.809 215.121 160.23 214.731 160.541C214.34 160.853 213.866 161.042 213.368 161.084C212.871 161.127 212.371 161.021 211.934 160.78C211.496 160.539 211.14 160.173 210.91 159.73C210.68 159.286 210.586 158.785 210.641 158.288C210.696 157.792 210.897 157.322 211.218 156.94C211.54 156.557 211.967 156.279 212.447 156.139C212.926 155.999 213.437 156.005 213.913 156.155C214.552 156.359 215.084 156.808 215.393 157.404C215.702 158 215.763 158.693 215.562 159.333Z" fill="#eb5454"/>
<g opacity="0.4">
<path d="M222.689 94.7622C222.536 95.2405 222.246 95.663 221.853 95.9761C221.461 96.2892 220.984 96.4789 220.484 96.5213C219.984 96.5636 219.482 96.4566 219.043 96.2139C218.603 95.9711 218.246 95.6036 218.015 95.1576C217.784 94.7116 217.691 94.2072 217.747 93.7083C217.803 93.2094 218.006 92.7383 218.33 92.3546C218.654 91.9709 219.084 91.6918 219.566 91.5526C220.049 91.4134 220.561 91.4204 221.04 91.5727C221.358 91.6725 221.654 91.8345 221.91 92.0493C222.165 92.264 222.376 92.5272 222.529 92.8238C222.682 93.1203 222.775 93.4443 222.803 93.777C222.83 94.1097 222.792 94.4445 222.689 94.7622Z" fill="white"/>
<path d="M217.851 109.928C217.699 110.404 217.409 110.825 217.017 111.136C216.626 111.447 216.151 111.635 215.653 111.677C215.155 111.718 214.656 111.611 214.219 111.369C213.781 111.126 213.426 110.76 213.197 110.316C212.968 109.871 212.876 109.369 212.932 108.872C212.989 108.376 213.191 107.907 213.514 107.525C213.837 107.144 214.265 106.866 214.746 106.728C215.226 106.59 215.737 106.598 216.213 106.75C216.529 106.851 216.823 107.013 217.076 107.228C217.33 107.442 217.539 107.704 217.691 108C217.843 108.295 217.935 108.617 217.963 108.948C217.99 109.279 217.952 109.612 217.851 109.928Z" fill="white"/>
<path d="M213.023 125.106C212.872 125.585 212.583 126.009 212.191 126.324C211.799 126.639 211.323 126.83 210.822 126.874C210.321 126.918 209.819 126.812 209.378 126.57C208.938 126.328 208.579 125.96 208.348 125.514C208.116 125.068 208.022 124.563 208.078 124.064C208.134 123.564 208.337 123.092 208.661 122.708C208.985 122.324 209.416 122.045 209.899 121.906C210.382 121.767 210.895 121.774 211.374 121.927C211.691 122.027 211.986 122.189 212.241 122.403C212.495 122.617 212.705 122.879 212.858 123.174C213.012 123.469 213.105 123.792 213.133 124.124C213.162 124.455 213.124 124.789 213.023 125.106Z" fill="white"/>
<path d="M208.196 140.283C208.043 140.761 207.753 141.184 207.36 141.497C206.968 141.81 206.491 141.999 205.991 142.042C205.491 142.084 204.989 141.977 204.55 141.734C204.11 141.492 203.752 141.124 203.522 140.678C203.291 140.232 203.198 139.728 203.254 139.229C203.31 138.73 203.513 138.259 203.837 137.875C204.16 137.491 204.591 137.212 205.073 137.073C205.555 136.934 206.068 136.941 206.547 137.093C206.865 137.193 207.161 137.355 207.416 137.57C207.672 137.784 207.883 138.048 208.036 138.344C208.189 138.641 208.282 138.965 208.31 139.297C208.337 139.63 208.298 139.965 208.196 140.283Z" fill="white"/>
<path d="M203.368 155.45C203.217 155.929 202.928 156.353 202.536 156.668C202.144 156.983 201.667 157.174 201.167 157.218C200.666 157.262 200.164 157.156 199.723 156.914C199.283 156.672 198.924 156.304 198.692 155.858C198.461 155.412 198.367 154.907 198.423 154.407C198.479 153.908 198.681 153.436 199.006 153.052C199.33 152.668 199.761 152.389 200.244 152.249C200.727 152.11 201.24 152.118 201.719 152.271C202.356 152.478 202.887 152.927 203.195 153.522C203.504 154.117 203.566 154.809 203.368 155.45Z" fill="white"/>
</g>
<g opacity="0.4">
<path d="M234.883 98.6466C234.649 99.2489 234.194 99.7392 233.611 100.018C233.028 100.296 232.361 100.342 231.745 100.145C231.13 99.9491 230.612 99.5253 230.298 98.9606C229.984 98.3958 229.898 97.7326 230.056 97.1061C230.14 96.7701 230.293 96.455 230.504 96.1802C230.715 95.9054 230.981 95.6767 231.284 95.5083C231.586 95.3399 231.921 95.2353 232.266 95.201C232.61 95.1666 232.959 95.2033 233.289 95.3086C233.619 95.414 233.924 95.5858 234.185 95.8136C234.447 96.0413 234.658 96.3202 234.808 96.6329C234.957 96.9456 235.041 97.2856 235.054 97.6319C235.067 97.9783 235.009 98.3236 234.883 98.6466Z" fill="white"/>
<path d="M230.056 113.813C229.904 114.289 229.615 114.709 229.225 115.021C228.834 115.333 228.36 115.522 227.862 115.564C227.365 115.606 226.865 115.5 226.428 115.259C225.99 115.018 225.634 114.653 225.404 114.209C225.174 113.766 225.081 113.264 225.135 112.768C225.19 112.271 225.391 111.802 225.712 111.419C226.034 111.037 226.461 110.758 226.941 110.618C227.42 110.479 227.931 110.484 228.407 110.634C229.046 110.839 229.579 111.288 229.888 111.883C230.197 112.479 230.257 113.173 230.056 113.813Z" fill="white"/>
<path d="M225.228 128.991C225.078 129.47 224.788 129.894 224.396 130.209C224.004 130.524 223.528 130.715 223.027 130.759C222.526 130.803 222.024 130.697 221.583 130.455C221.143 130.213 220.784 129.845 220.553 129.399C220.321 128.953 220.227 128.448 220.283 127.948C220.339 127.449 220.542 126.977 220.866 126.593C221.19 126.209 221.621 125.93 222.104 125.79C222.587 125.651 223.1 125.659 223.579 125.812C224.217 126.019 224.747 126.468 225.056 127.063C225.364 127.658 225.426 128.35 225.228 128.991Z" fill="white"/>
<path d="M220.39 144.167C220.156 144.769 219.701 145.26 219.118 145.538C218.535 145.817 217.868 145.862 217.252 145.666C216.637 145.47 216.119 145.046 215.805 144.481C215.491 143.916 215.404 143.253 215.562 142.627C215.647 142.291 215.8 141.975 216.011 141.701C216.222 141.426 216.488 141.197 216.79 141.029C217.093 140.86 217.428 140.756 217.772 140.721C218.117 140.687 218.465 140.724 218.796 140.829C219.126 140.934 219.431 141.106 219.692 141.334C219.953 141.562 220.165 141.841 220.315 142.153C220.464 142.466 220.548 142.806 220.561 143.152C220.574 143.499 220.516 143.844 220.39 144.167Z" fill="white"/>
<path d="M215.562 159.333C215.41 159.809 215.121 160.23 214.731 160.541C214.34 160.853 213.866 161.042 213.368 161.084C212.871 161.127 212.371 161.021 211.934 160.78C211.496 160.539 211.14 160.173 210.91 159.73C210.68 159.286 210.586 158.785 210.641 158.288C210.696 157.792 210.897 157.322 211.218 156.94C211.54 156.557 211.967 156.279 212.447 156.139C212.926 155.999 213.437 156.005 213.913 156.155C214.552 156.359 215.084 156.808 215.393 157.404C215.702 158 215.763 158.693 215.562 159.333Z" fill="white"/>
</g>
<path opacity="0.7" d="M202.695 165.984L169.368 172.862C167.835 173.176 166.24 172.869 164.932 172.009C163.624 171.149 162.711 169.805 162.393 168.273L152.803 121.776C152.178 118.78 152.545 115.661 153.849 112.892C155.152 110.123 157.321 107.853 160.028 106.425C161.205 105.8 162.465 105.347 163.77 105.08L180.987 101.532C182.804 101.155 184.677 101.14 186.5 101.487C188.322 101.835 190.058 102.539 191.608 103.559C193.158 104.579 194.492 105.895 195.532 107.431C196.573 108.967 197.3 110.693 197.672 112.511L207.274 159.008C207.432 159.767 207.44 160.55 207.295 161.311C207.151 162.073 206.858 162.798 206.432 163.446C206.007 164.094 205.458 164.652 204.817 165.088C204.175 165.523 203.455 165.828 202.695 165.984Z" fill="white"/>
<path d="M198.108 114.643L153.229 123.904L160.35 158.414L205.229 149.152L198.108 114.643Z" fill="#eb5454"/>
<path opacity="0.4" d="M198.108 114.643L153.229 123.904L160.35 158.414L205.229 149.152L198.108 114.643Z" fill="white"/>
<path d="M158.468 95.0517L182.905 90.0088C183.3 89.9274 183.707 89.9244 184.103 90.0003C184.499 90.0761 184.876 90.2292 185.213 90.4508C185.55 90.6724 185.84 90.9581 186.066 91.2917C186.293 91.6253 186.451 92.0003 186.533 92.3951L187.486 97.0169L156.993 103.31L156.031 98.6453C155.955 98.2493 155.958 97.8422 156.039 97.4472C156.12 97.0523 156.279 96.6773 156.505 96.3436C156.732 96.0099 157.021 95.724 157.358 95.5024C157.695 95.2807 158.072 95.1276 158.468 95.0517Z" fill="#eb5454"/>
<path opacity="0.7" d="M186.239 101.435C184.497 101.143 182.717 101.176 180.988 101.533L163.814 105.08C162.509 105.348 161.249 105.801 160.072 106.425L159.334 102.834L185.457 97.4102L186.239 101.435Z" fill="white"/>
<path opacity="0.3" d="M159.583 108.985C159.568 108.809 159.498 108.641 159.382 108.507C159.266 108.373 159.111 108.279 158.938 108.239C158.765 108.199 158.584 108.215 158.421 108.285C158.258 108.355 158.122 108.475 158.031 108.627C156.819 110.571 156.264 112.853 156.447 115.137C157.033 119.042 165.365 161.623 166.645 168.143C166.756 168.68 167.047 169.162 167.47 169.51C167.751 169.734 168.081 169.891 168.432 169.968C168.784 170.045 169.149 170.041 169.498 169.955L170.768 169.64L159.919 113.976C159.919 113.976 159.724 111.307 159.583 108.985Z" fill="white"/>
</svg>
