<svg width="590" height="380" viewBox="0 0 590 380" fill="none" xmlns="http://www.w3.org/2000/svg">
<g clip-path="url(#clip0_868_4948)">
<path d="M8.65944e-06 90.9685H108.511C108.511 90.9685 100.76 72.3701 80.6047 75.4669C86.0329 59.9653 65.1031 52.9887 52.6984 56.0943C40.2936 59.1999 43.3992 71.5959 43.3992 71.5959C43.3992 71.5959 33.5897 60.2381 15.4928 70.8217C8.18189 75.0974 8.5162 86.7104 -0.00878906 90.9773L8.65944e-06 90.9685Z" fill="white"/>
<path d="M480.884 175.514H589.395C589.395 175.514 581.644 156.916 561.488 160.013C566.916 144.511 545.987 137.535 533.582 140.64C521.177 143.737 524.283 156.142 524.283 156.142C524.283 156.142 514.473 144.784 496.376 155.368C489.065 159.643 489.4 171.256 480.875 175.523L480.884 175.514Z" fill="white"/>
<path d="M464.986 39.5984H356.475C356.475 39.5984 364.226 21 384.381 24.0968C378.953 8.59523 399.883 1.61863 412.288 4.72423C424.692 7.82982 421.587 20.2258 421.587 20.2258C421.587 20.2258 431.396 8.86796 449.493 19.4516C456.804 23.7273 456.47 35.3403 464.995 39.6072L464.986 39.5984Z" fill="white"/>
<path opacity="0.18" d="M540.796 380H51.0532C47.9916 380 45.5106 377.519 45.5106 374.458C45.5106 371.396 47.9916 368.915 51.0532 368.915H540.796C543.858 368.915 546.339 371.396 546.339 374.458C546.339 377.519 543.858 380 540.796 380Z" fill="#EB5454"/>
<g opacity="0.19">
<path d="M452.59 225.741C450.153 225.741 448.191 227.703 448.191 230.14V238.718C442.42 239.888 436.939 242.167 432.03 245.413L425.968 239.351C424.244 237.627 421.464 237.627 419.739 239.351L413.071 246.02C411.346 247.744 411.346 250.524 413.071 252.249L419.132 258.31C415.886 263.22 413.607 268.709 412.437 274.472H403.868C401.431 274.472 399.469 276.434 399.469 278.871V288.302C399.469 290.739 401.431 292.701 403.868 292.701H412.437C413.616 298.472 415.886 303.953 419.132 308.862L413.071 314.924C411.346 316.648 411.346 319.428 413.071 321.153L419.739 327.821C421.464 329.546 424.244 329.546 425.968 327.821L432.03 321.76C436.939 325.006 442.429 327.276 448.191 328.455V337.032C448.191 339.469 450.153 341.431 452.59 341.431H462.021C464.458 341.431 466.42 339.469 466.42 337.032V328.455C472.191 327.285 477.672 325.006 482.581 321.76L488.643 327.821C490.367 329.546 493.148 329.546 494.872 327.821L501.541 321.153C503.265 319.428 503.265 316.648 501.541 314.924L495.479 308.862C498.725 303.953 500.995 298.463 502.165 292.701H510.743C513.18 292.701 515.142 290.739 515.142 288.302V278.871C515.142 276.434 513.18 274.472 510.743 274.472H502.262C501.092 268.683 498.804 263.167 495.541 258.24L501.532 252.249C503.256 250.524 503.256 247.744 501.532 246.02L494.863 239.351C493.139 237.627 490.359 237.627 488.634 239.351L482.643 245.343C477.716 242.079 472.209 239.791 466.411 238.621V230.149C466.411 227.712 464.449 225.75 462.012 225.75H452.581L452.59 225.741ZM457.306 257.809C471.54 257.809 483.083 269.352 483.083 283.586C483.083 297.821 471.54 309.364 457.306 309.364C443.071 309.364 431.528 297.821 431.528 283.586C431.528 269.352 443.071 257.809 457.306 257.809Z" fill="#EB5454"/>
<path d="M503.001 170.228C501.646 170.228 500.555 171.318 500.555 172.673V177.442C497.353 178.093 494.3 179.36 491.573 181.163L488.203 177.794C487.244 176.835 485.705 176.835 484.746 177.794L481.042 181.497C480.083 182.456 480.083 183.996 481.042 184.955L484.411 188.324C482.608 191.052 481.341 194.105 480.69 197.307H475.93C474.576 197.307 473.485 198.398 473.485 199.753V204.996C473.485 206.351 474.576 207.442 475.93 207.442H480.69C481.341 210.644 482.608 213.697 484.411 216.424L481.042 219.794C480.083 220.753 480.083 222.292 481.042 223.251L484.746 226.955C485.705 227.914 487.244 227.914 488.203 226.955L491.573 223.586C494.3 225.389 497.353 226.647 500.555 227.307V232.076C500.555 233.43 501.646 234.521 503.001 234.521H508.244C509.599 234.521 510.69 233.43 510.69 232.076V227.307C513.893 226.656 516.945 225.389 519.673 223.586L523.042 226.955C524.001 227.914 525.541 227.914 526.5 226.955L530.203 223.251C531.162 222.292 531.162 220.753 530.203 219.794L526.834 216.424C528.638 213.697 529.896 210.644 530.555 207.442H535.324C536.679 207.442 537.77 206.351 537.77 204.996V199.753C537.77 198.398 536.679 197.307 535.324 197.307H530.608C529.957 194.087 528.69 191.025 526.878 188.289L530.212 184.955C531.171 183.996 531.171 182.456 530.212 181.497L526.508 177.794C525.55 176.835 524.01 176.835 523.051 177.794L519.717 181.128C516.981 179.316 513.919 178.049 510.699 177.389V172.682C510.699 171.327 509.608 170.236 508.253 170.236H503.01L503.001 170.228ZM505.623 188.043C513.532 188.043 519.945 194.456 519.945 202.366C519.945 210.275 513.532 216.688 505.623 216.688C497.714 216.688 491.3 210.275 491.3 202.366C491.3 194.456 497.714 188.043 505.623 188.043Z" fill="#EB5454"/>
<path d="M525.682 234.996C524.89 234.996 524.256 235.63 524.256 236.421V239.201C522.382 239.58 520.605 240.319 519.013 241.374L517.042 239.404C516.479 238.841 515.582 238.841 515.019 239.404L512.854 241.568C512.291 242.131 512.291 243.028 512.854 243.591L514.825 245.562C513.769 247.155 513.03 248.94 512.652 250.806H509.872C509.08 250.806 508.447 251.439 508.447 252.231V255.292C508.447 256.084 509.08 256.718 509.872 256.718H512.652C513.03 258.592 513.769 260.369 514.825 261.961L512.854 263.932C512.291 264.495 512.291 265.392 512.854 265.955L515.019 268.12C515.582 268.683 516.479 268.683 517.042 268.12L519.013 266.149C520.605 267.205 522.391 267.944 524.256 268.322V271.102C524.256 271.894 524.89 272.527 525.682 272.527H528.743C529.535 272.527 530.168 271.894 530.168 271.102V268.322C532.042 267.944 533.819 267.205 535.412 266.149L537.383 268.12C537.946 268.683 538.843 268.683 539.406 268.12L541.57 265.955C542.133 265.392 542.133 264.495 541.57 263.932L539.6 261.961C540.655 260.369 541.394 258.583 541.773 256.718H544.553C545.344 256.718 545.978 256.084 545.978 255.292V252.231C545.978 251.439 545.344 250.806 544.553 250.806H541.799C541.421 248.923 540.682 247.137 539.617 245.536L541.561 243.591C542.124 243.028 542.124 242.131 541.561 241.568L539.397 239.404C538.834 238.841 537.937 238.841 537.374 239.404L535.429 241.348C533.828 240.292 532.042 239.545 530.16 239.166V236.413C530.16 235.621 529.526 234.987 528.734 234.987H525.673L525.682 234.996ZM527.212 245.404C531.831 245.404 535.579 249.152 535.579 253.77C535.579 258.389 531.831 262.137 527.212 262.137C522.594 262.137 518.846 258.389 518.846 253.77C518.846 249.152 522.594 245.404 527.212 245.404Z" fill="#EB5454"/>
</g>
<path d="M299.562 306.653H232.638V374.818H299.562V306.653Z" fill="#EB5454"/>
<path d="M179.658 365.519H352.542C355.111 365.519 357.187 367.604 357.187 370.164C357.187 372.733 355.111 374.809 352.542 374.809H179.658C177.089 374.809 175.013 372.733 175.013 370.164C175.013 367.595 177.089 365.519 179.658 365.519Z" fill="#EB5454"/>
<path d="M444.153 38.9648H88.0388C75.8383 38.9648 65.9478 48.8554 65.9478 61.0559V299.43C65.9478 311.631 75.8383 321.521 88.0388 321.521H444.153C456.354 321.521 466.244 311.631 466.244 299.43V61.0559C466.244 48.8554 456.354 38.9648 444.153 38.9648Z" fill="#383838"/>
<path d="M65.9565 291.099V303.873C65.9565 313.656 73.8305 321.53 83.6136 321.53H448.587C458.37 321.53 466.244 313.656 466.244 303.873V291.099H65.9565Z" fill="white"/>
<path d="M448.807 57.9941H83.3849V273.565H448.807V57.9941Z" fill="#F6F5F4"/>
<path d="M266.096 314.096C270.756 314.096 274.533 310.318 274.533 305.659C274.533 300.999 270.756 297.222 266.096 297.222C261.436 297.222 257.659 300.999 257.659 305.659C257.659 310.318 261.436 314.096 266.096 314.096Z" fill="#EB5454" fill-opacity="0.5"/>
<path d="M83.3849 57.9941V73.1702H448.807V57.9941H83.3849Z" fill="#EB5454"/>
<path d="M102.098 65.5869C102.098 66.6778 101.218 67.5576 100.127 67.5576C99.036 67.5576 98.1562 66.6778 98.1562 65.5869C98.1562 64.496 99.036 63.6162 100.127 63.6162C101.218 63.6162 102.098 64.496 102.098 65.5869Z" fill="white"/>
<path d="M110.552 65.5869C110.552 66.6778 109.672 67.5576 108.582 67.5576C107.491 67.5576 106.611 66.6778 106.611 65.5869C106.611 64.496 107.491 63.6162 108.582 63.6162C109.672 63.6162 110.552 64.496 110.552 65.5869Z" fill="white"/>
<path d="M119.007 65.5869C119.007 66.6778 118.127 67.5576 117.036 67.5576C115.945 67.5576 115.065 66.6778 115.065 65.5869C115.065 64.496 115.945 63.6162 117.036 63.6162C118.127 63.6162 119.007 64.496 119.007 65.5869Z" fill="white"/>
<path d="M256.234 116.199C250.647 116.402 245.791 118.249 241.594 120.976C233.931 125.965 228.371 133.768 223.823 139.768C221.615 142.68 219.547 144.449 217.427 145.39C215.307 146.331 213.072 146.499 210.345 146.032C204.89 145.1 197.606 141.501 186.996 136.927C176.271 132.299 168.019 131.305 159.503 133.821C151.47 136.196 143.192 141.677 132.168 149.78V152.595C143.869 143.938 152.297 138.325 160.145 136.012C168.133 133.654 175.647 134.516 186.089 139.029C196.647 143.587 203.896 147.255 209.958 148.293C212.984 148.812 215.764 148.636 218.351 147.493C220.937 146.349 223.286 144.273 225.644 141.167C230.228 135.132 235.673 127.575 242.844 122.912C249.943 118.293 258.635 116.384 270.398 121.443V119.006C266.202 117.308 262.287 116.41 258.679 116.243C257.852 116.208 257.034 116.199 256.243 116.226L256.234 116.199Z" fill="#EB5454"/>
<path d="M270.398 94.9531C269.122 96.1056 267.979 97.5573 266.914 99.1672C264.671 102.563 262.77 106.742 260.958 110.657C259.146 114.572 257.404 118.232 255.679 120.458C254.817 121.575 253.973 122.305 253.242 122.613C252.512 122.921 251.905 122.921 251.017 122.428C241.797 117.405 225.635 109.909 213.714 112.346C204.248 114.282 198.186 120.027 193.207 125.851C188.227 131.675 184.198 137.552 178.963 140.261C173.597 143.05 169.954 142.734 165.776 141.141C161.597 139.549 156.978 136.522 150.423 133.98C142.409 130.874 136.03 132.326 132.168 133.971V136.382C135.371 134.772 141.423 132.933 149.605 136.1C155.922 138.546 160.426 141.537 164.966 143.261C169.506 144.995 174.169 145.303 180.01 142.276C185.984 139.179 190.057 133.021 194.931 127.32C199.805 121.628 205.374 116.367 214.172 114.563C224.747 112.399 240.882 119.472 249.926 124.408C251.316 125.165 252.838 125.235 254.131 124.689C255.424 124.144 256.489 123.115 257.492 121.83C259.48 119.252 261.213 115.513 263.034 111.598C264.855 107.675 266.738 103.575 268.832 100.399C269.351 99.6159 269.879 98.8945 270.407 98.2523V94.9355L270.398 94.9531Z" fill="#EB5454"/>
<path opacity="0.41" d="M270.389 167.851H132.168V170.34H270.389V167.851Z" fill="#EB5454"/>
<path d="M162.837 181.893H153.248C152.13 181.893 151.224 182.799 151.224 183.916V193.506C151.224 194.623 152.13 195.529 153.248 195.529H162.837C163.955 195.529 164.861 194.623 164.861 193.506V183.916C164.861 182.799 163.955 181.893 162.837 181.893Z" fill="#EB5454"/>
<path d="M153.116 183.353C152.852 183.353 152.685 183.52 152.685 183.784V193.628C152.685 193.892 152.852 194.059 153.116 194.059H162.96C163.224 194.059 163.391 193.892 163.391 193.628V183.784C163.391 183.52 163.224 183.353 162.96 183.353H153.116Z" fill="#F6F5F4"/>
<path d="M144.239 181.893H134.649C133.532 181.893 132.626 182.799 132.626 183.916V193.506C132.626 194.623 133.532 195.529 134.649 195.529H144.239C145.356 195.529 146.262 194.623 146.262 193.506V183.916C146.262 182.799 145.356 181.893 144.239 181.893Z" fill="#EB5454"/>
<path d="M135.397 188.342L138.476 191.324L143.5 186.45" stroke="white" stroke-width="2.01" stroke-linecap="round" stroke-linejoin="round"/>
<path d="M144.239 200.772H134.649C133.532 200.772 132.626 201.678 132.626 202.796V212.385C132.626 213.503 133.532 214.409 134.649 214.409H144.239C145.356 214.409 146.262 213.503 146.262 212.385V202.796C146.262 201.678 145.356 200.772 144.239 200.772Z" fill="#EB5454"/>
<path d="M144.371 202.232C144.635 202.232 144.802 202.4 144.802 202.664V212.508C144.802 212.772 144.635 212.939 144.371 212.939H134.526C134.262 212.939 134.095 212.772 134.095 212.508V202.664C134.095 202.4 134.262 202.232 134.526 202.232H144.371Z" fill="#F6F5F4"/>
<path d="M162.837 200.772H153.248C152.13 200.772 151.224 201.678 151.224 202.796V212.385C151.224 213.503 152.13 214.409 153.248 214.409H162.837C163.955 214.409 164.861 213.503 164.861 212.385V202.796C164.861 201.678 163.955 200.772 162.837 200.772Z" fill="#EB5454"/>
<path d="M153.987 207.222L157.066 210.204L162.089 205.33" stroke="white" stroke-width="2.01" stroke-linecap="round" stroke-linejoin="round"/>
<path d="M144.239 219.652H134.649C133.532 219.652 132.626 220.558 132.626 221.676V231.265C132.626 232.383 133.532 233.289 134.649 233.289H144.239C145.356 233.289 146.262 232.383 146.262 231.265V221.676C146.262 220.558 145.356 219.652 144.239 219.652Z" fill="#EB5454"/>
<path d="M144.371 221.112C144.635 221.112 144.802 221.279 144.802 221.543V231.388C144.802 231.652 144.635 231.819 144.371 231.819H134.526C134.262 231.819 134.095 231.652 134.095 231.388V221.543C134.095 221.279 134.262 221.112 134.526 221.112H144.371Z" fill="#F6F5F4"/>
<path d="M162.837 219.652H153.248C152.13 219.652 151.224 220.558 151.224 221.676V231.265C151.224 232.383 152.13 233.289 153.248 233.289H162.837C163.955 233.289 164.861 232.383 164.861 231.265V221.676C164.861 220.558 163.955 219.652 162.837 219.652Z" fill="#EB5454"/>
<path d="M153.987 226.11L157.066 229.093L162.089 224.219" stroke="white" stroke-width="2.01" stroke-linecap="round" stroke-linejoin="round"/>
<path d="M162.837 238.532H153.248C152.13 238.532 151.224 239.438 151.224 240.556V250.145C151.224 251.263 152.13 252.169 153.248 252.169H162.837C163.955 252.169 164.861 251.263 164.861 250.145V240.556C164.861 239.438 163.955 238.532 162.837 238.532Z" fill="#EB5454"/>
<path d="M153.116 239.992C152.852 239.992 152.685 240.159 152.685 240.423V250.268C152.685 250.532 152.852 250.699 153.116 250.699H162.96C163.224 250.699 163.391 250.532 163.391 250.268V240.423C163.391 240.159 163.224 239.992 162.96 239.992H153.116Z" fill="#F6F5F4"/>
<path d="M144.239 238.532H134.649C133.532 238.532 132.626 239.438 132.626 240.556V250.145C132.626 251.263 133.532 252.169 134.649 252.169H144.239C145.356 252.169 146.262 251.263 146.262 250.145V240.556C146.262 239.438 145.356 238.532 144.239 238.532Z" fill="#EB5454"/>
<path d="M135.397 244.99L138.476 247.973L143.5 243.099" stroke="white" stroke-width="2.01" stroke-linecap="round" stroke-linejoin="round"/>
<path d="M270.398 189.546H171.424V192.036H270.398V189.546Z" fill="#EB5454"/>
<path d="M270.398 208.479H171.424V210.968H270.398V208.479Z" fill="#EB5454"/>
<path d="M270.398 227.421H171.424V229.911H270.398V227.421Z" fill="#EB5454"/>
<path d="M270.398 246.362H171.424V248.852H270.398V246.362Z" fill="#EB5454"/>
<path d="M168.582 96.4756H132.168V99.5108H168.582V96.4756Z" fill="#EB5454"/>
<path d="M183.6 103.963H132.168V106.998H183.6V103.963Z" fill="#EB5454"/>
<path d="M477.892 110.578H504.725L475.86 185.385H449.027L477.892 110.578Z" fill="#EB5454"/>
<path d="M436.693 137.983H409.86L449.027 185.386H475.86L436.693 137.983Z" fill="#B30F0F"/>
<path d="M409.859 137.983H436.693L401.378 229.48H374.545L409.859 137.983Z" fill="#EB5454"/>
<path d="M362.211 182.068H335.378L374.545 229.479H401.378L362.211 182.068Z" fill="#B30F0F"/>
<path d="M335.378 182.068H362.211L326.897 273.565H300.064L335.378 182.068Z" fill="#EB5454"/>
<path opacity="0.5" d="M363.302 30.458C363.302 40.7337 368.783 55.1972 377.686 60.3351C379.912 61.6195 382.261 62.5873 384.68 63.2295C389.625 65.7985 389.862 73.1709 389.862 73.1709C389.862 73.1709 389.633 80.5346 384.68 83.1124C382.261 83.7546 379.912 84.7224 377.686 85.998C368.783 91.1359 363.302 105.599 363.302 115.875H420.839C420.839 105.599 415.358 91.1359 406.455 85.998C405.029 85.171 403.543 84.4936 402.029 83.9394C401.845 83.8426 401.634 83.7634 401.387 83.7018C401.387 83.7018 401.387 83.7018 401.378 83.7018C401.185 83.6314 400.983 83.5787 400.78 83.5171C394.956 81.4232 394.701 73.1797 394.701 73.1797C394.701 73.1797 394.956 64.9363 400.78 62.8424C400.983 62.7808 401.176 62.7193 401.378 62.6577C401.378 62.6577 401.378 62.6577 401.387 62.6577C401.634 62.5873 401.845 62.5081 402.029 62.4201C403.543 61.8571 405.029 61.1797 406.455 60.3615C415.358 55.2236 420.839 40.7601 420.839 30.4844H363.302V30.458Z" fill="#EB5454"/>
<path d="M362.255 26.5869H421.877C423.294 26.5869 424.446 27.4579 424.446 28.5224C424.446 29.5957 423.294 30.4579 421.877 30.4579H362.255C360.839 30.4579 359.686 29.5869 359.686 28.5224C359.686 27.4491 360.839 26.5869 362.255 26.5869Z" fill="#EB5454"/>
<path d="M362.255 115.884H421.877C423.294 115.884 424.446 116.755 424.446 117.819C424.446 118.893 423.294 119.755 421.877 119.755H362.255C360.839 119.755 359.686 118.884 359.686 117.819C359.686 116.746 360.839 115.884 362.255 115.884Z" fill="#EB5454"/>
<path d="M405.214 40.3996C410.282 40.5932 413.959 42.3527 416.308 43.9715C415.983 44.8425 415.648 45.7134 415.27 46.558C412.895 51.8631 409.446 56.4379 405.513 58.7077C403.437 59.9042 401.238 60.8103 398.977 61.4086C398.845 61.4438 398.713 61.4966 398.59 61.5581C392.361 64.7957 392.396 73.1096 392.396 73.1096C392.396 104.755 418.833 106.655 418.833 114.001H365.299C365.299 105.626 391.314 106.515 391.314 73.2327C391.314 73.2327 391.252 70.7958 390.355 68.1828C389.466 65.5699 387.628 62.3763 383.994 61.0655C383.968 61.0655 383.95 61.0479 383.924 61.0391C383.695 60.9687 383.501 60.9071 383.369 60.8631C383.29 60.8367 383.211 60.8103 383.132 60.8015C383.264 60.8279 383.475 60.8983 383.343 60.8543C383.308 60.8455 383.273 60.8279 383.237 60.8191C383.106 60.7839 383.018 60.7488 382.956 60.7136C382.894 60.6784 382.824 60.652 382.762 60.6256C381.337 60.0977 379.947 59.4643 378.627 58.6989C374.695 56.4291 371.255 51.8631 368.88 46.5668C380.809 53.1211 384.821 44.2882 397.78 41.1738C400.525 40.514 402.997 40.3028 405.214 40.382V40.3996Z" fill="#EB5454"/>
<path opacity="0.5" d="M367.621 32.1123C367.621 32.1123 370.551 58.743 385.771 59.9131C375.531 51.7224 375.232 32.1123 375.232 32.1123H367.621Z" fill="white" fill-opacity="0.2"/>
<path opacity="0.5" d="M367.621 113.191C367.621 113.191 370.551 86.5607 385.771 85.3906C375.531 93.5813 375.232 113.191 375.232 113.191H367.621Z" fill="white" fill-opacity="0.2"/>
<path opacity="0.35" d="M417.663 32.1123C417.663 32.1123 414.733 58.743 399.513 59.9131C409.754 51.7224 410.053 32.1123 410.053 32.1123H417.663Z" fill="#EB5454"/>
<path opacity="0.35" d="M417.663 113.191C417.663 113.191 414.733 86.5607 399.513 85.3906C409.754 93.5813 410.053 113.191 410.053 113.191H417.663Z" fill="#EB5454"/>
<path d="M475.922 213.082C475.922 213.082 475.332 217.349 475.42 218.264C475.508 219.17 475.059 219.715 474.875 220.806C474.69 221.897 474.743 223.621 474.919 226.982C475.103 230.343 475.191 231.522 476.098 232.252C477.004 232.982 480.004 231.979 480.004 231.979L479.731 233.8H487.095L487.007 231.803C487.007 231.803 488.01 230.528 488.37 229.533C488.731 228.531 490.464 221.352 490.825 219.451C491.186 217.542 491.458 215 490.095 212.73C488.731 210.46 485.186 209.369 482.37 209.457C479.555 209.545 476.643 209.457 475.922 213.091V213.082Z" fill="#F4B58E"/>
<path d="M439.754 206.536C439.754 206.536 438.303 204.169 438.663 203.263C439.024 202.357 439.024 201.442 438.663 199.815C438.303 198.178 435.936 196.903 435.936 196.903C435.936 196.903 433.569 190.542 432.663 190.902C431.757 191.263 433.754 195.812 433.393 196.718C433.033 197.624 431.027 198.9 430.666 200.536C430.305 202.172 431.396 204.53 432.118 204.715C432.848 204.9 433.939 207.988 433.939 207.988L439.754 206.536Z" fill="#F4B58E"/>
<path d="M502.816 280.868L498.637 285.593C498.637 285.593 497.186 287.774 497.186 289.956C497.186 292.138 498.092 293.95 499.913 293.405C501.734 292.859 504.092 290.317 504.637 288.496C505.183 286.675 506.274 283.226 506.274 283.226L502.825 280.859L502.816 280.868Z" fill="#F4B58E"/>
<path d="M461.687 363.487C461.687 363.487 461.177 365.414 459.373 366.311C457.57 367.209 452.177 369.655 451.534 370.684C450.892 371.713 451.024 372.742 451.024 372.742C451.024 372.742 454.112 373.895 458.476 373.517C462.84 373.138 464.643 372.743 465.672 373.006C466.702 373.262 469.526 373.394 469.526 372.874C469.526 372.355 469.913 366.707 468.109 364.138C464.256 363.496 461.687 363.496 461.687 363.496V363.487Z" fill="#241F31"/>
<path d="M466.948 281.246C466.948 281.246 464.379 321.337 463.86 323.906C463.35 326.475 460.772 363.997 460.772 363.997C460.772 363.997 464.37 367.085 468.998 364.508C475.684 343.947 472.596 333.153 474.136 328.015C475.675 322.877 484.931 299.229 484.931 299.229C484.931 299.229 492.637 328.015 493.667 331.613C494.696 335.211 498.805 365.027 498.805 365.027H505.491C505.491 365.027 507.03 351.144 507.549 344.467C508.06 337.78 504.461 332.132 503.951 326.475C503.441 320.818 501.893 292.551 499.843 283.296C483.391 281.756 466.948 281.237 466.948 281.237V281.246Z" fill="#3E73B2"/>
<mask id="mask0_868_4948" style="mask-type:luminance" maskUnits="userSpaceOnUse" x="460" y="281" width="48" height="85">
<path d="M466.948 281.246C466.948 281.246 464.379 321.337 463.86 323.906C463.35 326.475 460.772 363.997 460.772 363.997C460.772 363.997 464.37 367.085 468.998 364.508C475.684 343.947 472.596 333.153 474.136 328.015C475.675 322.877 484.931 299.229 484.931 299.229C484.931 299.229 492.637 328.015 493.667 331.613C494.696 335.211 498.805 365.027 498.805 365.027H505.491C505.491 365.027 507.03 351.144 507.549 344.467C508.06 337.78 504.461 332.132 503.951 326.475C503.441 320.818 501.893 292.551 499.843 283.296C483.391 281.756 466.948 281.237 466.948 281.237V281.246Z" fill="white"/>
</mask>
<g mask="url(#mask0_868_4948)">
<g style="mix-blend-mode:multiply" opacity="0.53">
<path d="M498.734 295.164C503.731 294.276 509.177 292.692 511.808 288.364C500.881 277.191 483.479 272.352 468.752 277.587C465.206 278.853 461.705 280.771 459.611 283.895C457.922 286.419 456.118 292.208 458.581 294.821C460.429 296.774 465.136 296.211 467.555 296.431C477.963 297.346 488.423 297.003 498.725 295.164H498.734Z" fill="#3E73B2"/>
</g>
</g>
<path d="M499.209 363.487C499.209 363.487 498.699 365.414 496.895 366.311C495.092 367.209 489.699 369.655 489.057 370.684C488.414 371.713 488.546 372.742 488.546 372.742C488.546 372.742 491.634 373.895 495.998 373.517C500.362 373.138 502.165 372.743 503.195 373.006C504.224 373.262 507.048 373.394 507.048 372.874C507.048 372.355 507.435 366.707 505.632 364.138C501.778 363.496 499.209 363.496 499.209 363.496V363.487Z" fill="#241F31"/>
<path d="M478.007 234.794C478.007 234.794 478.279 233.158 479.01 232.885C479.74 232.612 485.916 232.612 487.552 233.07C489.189 233.527 489.277 235.709 489.277 235.709L478.007 234.803V234.794Z" fill="#3E73B2"/>
<path d="M468.496 233.95C468.496 233.95 484.948 233.95 496.772 236.008C501.91 237.038 502.939 240.117 504.998 242.694C507.057 245.263 515.283 262.744 516.303 266.853C517.332 270.962 507.048 285.874 507.048 285.874C507.048 285.874 502.939 285.874 501.91 280.736C504.998 274.05 506.019 266.853 506.019 266.853L498.822 254L502.42 290.492C502.42 290.492 476.203 294.601 464.379 289.463C465.919 273.011 465.408 253.48 465.408 253.48C465.408 253.48 444.848 240.117 442.279 234.979C439.71 229.841 432.514 207.732 432.514 207.732C432.514 207.732 437.141 203.624 440.22 205.674C443.308 212.87 449.476 225.205 451.526 228.293C453.584 231.381 468.488 233.95 468.488 233.95H468.496Z" fill="#FE7D73"/>
<path d="M475.42 213.715C475.288 214.032 474.787 214.991 475.605 215.439C476.423 215.897 477.919 216.073 478.147 216.574C478.376 217.076 478.103 219.706 478.235 220.621C478.367 221.527 478.737 221.712 479.054 221.079C479.37 220.445 478.922 219.583 480.232 219.671C481.552 219.759 482.098 220.533 481.684 222.31C481.279 224.079 481.095 224.809 479.96 226.577C480.232 227.897 482.098 229.894 482.098 229.894C482.098 229.894 486.461 231.258 487.913 230.527C490.095 225.17 491.96 219.715 491.819 217.349C491.687 214.982 491.274 212.809 489.277 211.216C487.279 209.624 483.004 208.762 479.74 209.307C476.467 209.853 475.966 211.076 475.42 213.715Z" fill="#1E2B54"/>
<path d="M112.998 222.046C112.153 225.539 116.165 227.157 116.746 230.043C117.177 232.198 116.2 235.102 114.018 235.832C113.183 236.113 112.109 235.251 111.291 235.155C110.737 235.084 108.15 235.251 107.719 234.811C107.367 234.459 107.754 232.172 107.719 231.75C107.42 228.16 108.221 222.046 112.998 222.046Z" fill="#3D3846"/>
<path d="M150.089 223.621C150.089 223.621 151.717 221.192 152.174 219.16C152.632 217.137 153.564 215.826 154.699 214.348C155.834 212.87 155.526 211.902 156.265 212.342C156.995 212.773 156.679 213.996 155.992 215.016C155.306 216.037 156.309 216.45 157.4 215.078C158.491 213.705 160.462 211.788 162.564 211.752C164.667 211.717 164.86 213.749 163.928 215.06C162.995 216.371 160.101 219.855 158.72 221.623C157.33 223.392 153.168 226.084 153.168 226.084L150.098 223.621H150.089Z" fill="#F4B58E"/>
<path d="M113.068 232.981L131.192 236.105C131.192 236.105 138.696 231.011 141.318 229.99C143.948 228.97 150.626 222.169 150.626 222.169C151.136 223.304 152.552 224.826 154.743 225.591C154.743 225.591 149.218 234.266 143.992 238.524C138.766 242.782 140.016 242.914 137.491 244.146C134.966 245.377 117.687 247.031 117.687 247.031L113.068 232.981Z" fill="#EB5454"/>
<path d="M121.048 315.592C118.848 324.707 116.165 354.839 115.866 359.176C115.646 362.326 116.543 365.124 118.628 366.892C121.822 369.602 122.957 370.261 124.523 370.745C126.089 371.229 126.089 372.074 124.162 372.549C122.235 373.033 119.464 373.393 118.268 372.786C117.071 372.179 113.455 368.335 112.734 368.449C112.013 368.572 111.652 371.581 111.889 372.54C110.807 372.901 110.57 372.663 110.57 372.663C108.898 367.006 111.186 363.804 111.247 360.109C111.678 345.883 105.124 336.056 108.124 328.595C110.807 324.786 107.244 321.117 107.851 314.598C109.91 316.147 115.021 312.891 121.057 315.592H121.048Z" fill="#F1A271"/>
<path d="M110.279 365.555C113.174 365.959 116.218 369.127 118.628 370.385C120.265 371.238 121.936 370.701 123.036 370.121C123.538 370.376 124.021 370.587 124.523 370.745C126.089 371.229 126.089 372.074 124.162 372.549C122.236 373.033 119.464 373.393 118.268 372.786C117.062 372.188 113.455 368.335 112.734 368.449C112.013 368.572 111.652 371.581 111.889 372.54C110.807 372.901 110.57 372.663 110.57 372.663C109.716 369.786 109.892 367.543 110.279 365.546V365.555Z" fill="#1E2B54"/>
<path d="M106.118 318.724C103.919 327.838 96.1944 355.322 95.8953 359.66C95.6754 362.809 96.5727 365.607 98.6578 367.375C101.851 370.085 102.986 370.745 104.552 371.229C106.118 371.712 106.118 372.557 104.192 373.032C102.265 373.516 99.4936 373.877 98.2971 373.27C97.1006 372.663 93.4847 368.818 92.7633 368.932C92.0419 369.047 91.6812 372.064 91.9187 373.023C90.8366 373.384 90.5991 373.147 90.5991 373.147C88.9275 367.49 91.2149 364.287 91.2765 360.592C92.7369 336.346 87.4671 340.401 91.7516 329.079C94.4349 325.269 93.0361 322.076 93.6431 315.565C95.7018 317.114 100.092 316.023 106.127 318.724H106.118Z" fill="#F4B58E"/>
<path d="M90.3086 366.029C93.203 366.434 96.247 369.601 98.6576 370.859C100.294 371.713 101.966 371.176 103.065 370.595C103.567 370.85 104.051 371.062 104.552 371.22C106.118 371.704 106.118 372.548 104.191 373.023C102.265 373.507 99.4934 373.868 98.2969 373.261C97.1004 372.654 93.4845 368.809 92.7631 368.924C92.0417 369.047 91.681 372.056 91.9185 373.015C90.8364 373.375 90.5989 373.138 90.5989 373.138C89.7455 370.261 89.9215 368.018 90.3086 366.021V366.029Z" fill="#1E2B54"/>
<path d="M114.221 212.491C114.221 212.491 115.787 216.714 116.763 219.617C117.74 222.521 118.426 224.87 116.306 225.538C114.186 226.207 111.555 227.614 111.555 227.614L110.869 233.491L103.294 233.544L105.062 228.362C105.062 228.362 101.939 217.611 102.573 214.664C103.206 211.726 106.294 210.265 109.602 209.949C112.91 209.623 113.79 211.497 114.23 212.491H114.221Z" fill="#F4B58E"/>
<path d="M119.2 267.072C119.2 267.072 121.365 275.017 122.332 281.756C123.291 288.495 121.408 316.419 121.408 316.419C121.408 316.419 104.534 323.193 92.7367 317.413C90.81 296.228 91.0388 291.38 92.7279 282.961C94.4171 274.533 98.9831 265.146 98.9831 265.146L119.2 267.072Z" fill="#EB5454"/>
<mask id="mask1_868_4948" style="mask-type:luminance" maskUnits="userSpaceOnUse" x="91" y="265" width="32" height="55">
<path d="M119.2 267.072C119.2 267.072 121.365 275.017 122.332 281.756C123.291 288.495 121.408 316.419 121.408 316.419C121.408 316.419 104.534 323.193 92.7367 317.413C90.81 296.228 91.0388 291.38 92.7279 282.961C94.4171 274.533 98.9831 265.146 98.9831 265.146L119.2 267.072Z" fill="white"/>
</mask>
<g mask="url(#mask1_868_4948)">
<g style="mix-blend-mode:multiply" opacity="0.53">
<path d="M122.649 276.063C108.52 280.92 87.7133 272.474 87.7133 272.474L96.1591 257.245L125.711 259.779L122.658 276.063H122.649Z" fill="#EB5454"/>
</g>
</g>
<path d="M107.315 230.615C102.317 230.413 99.6517 233.826 98.8247 242.527C97.9977 251.228 101.904 254.052 97.5051 266.308C95.9567 270.618 115.232 272.352 118.963 269.862C122.693 267.372 115.646 259.322 121.479 251.334C126.221 244.841 115.637 230.941 107.323 230.606L107.315 230.615Z" fill="#EB5454"/>
<path d="M111.969 208.304C111.969 208.304 110.886 207.582 109.558 208.427C108.238 209.271 108.96 210.837 108.96 210.837L111.969 208.312V208.304Z" fill="#F5C211"/>
<path d="M104.816 227.668C104.816 227.668 101.438 223.418 99.0447 220.849C96.0535 217.638 95.552 208.251 105.511 206.465C108.238 205.981 114.793 207.169 114.634 210.846C114.537 213.107 114.326 214.242 112.03 214.137C109.743 214.031 107.605 214.524 107.658 216.794C107.719 219.072 108.098 221.316 108.098 221.316C108.098 221.316 106.848 218.509 105.581 220.585C104.315 222.662 107.156 224.993 104.807 227.668H104.816Z" fill="#3D3846"/>
<path d="M98.6312 210.731C98.6312 210.731 97.1004 212.773 96.7573 216.855C96.4141 220.937 96.7573 223.497 94.7162 227.746C92.6751 232.004 96.9332 234.723 100.505 234.899C104.077 235.066 107.825 233.711 107.315 230.474C106.804 227.236 105.617 225.538 105.097 222.811C104.587 220.083 104.077 214.638 104.077 214.638L98.6312 210.723V210.731Z" fill="#3D3846"/>
<g style="mix-blend-mode:multiply" opacity="0.53">
<path d="M104.631 236.14C104.631 236.14 101.807 239.588 98.7807 243.327C98.2617 251.404 101.772 254.439 97.5139 266.307C95.9655 270.618 115.241 272.351 118.971 269.861C120.362 268.929 120.256 267.231 119.878 265.04C115.435 265.128 108.687 265.119 106.831 264.275C104.007 262.99 102.08 258.882 101.948 257.465C101.816 256.049 107.728 244.612 107.605 241.278C107.473 237.934 104.649 236.14 104.649 236.14H104.631Z" fill="#EB5454"/>
</g>
<path d="M120.212 245.72C120.027 247.542 116.218 276.073 116.218 276.073L133.479 272.8L137.112 242.993L120.212 245.72Z" fill="#47464C"/>
<path d="M120.731 245.975C120.546 247.796 116.737 276.327 116.737 276.327L133.998 273.055L137.632 243.248L120.731 245.975Z" fill="#5E5C64"/>
<path d="M110.464 262.489C110.464 262.489 114.001 263.034 115.197 261.451C116.394 259.867 117.669 259.146 120.071 259.058C122.473 258.97 125.561 258.952 124.743 261.776C123.933 264.6 122.623 265.656 119.464 266.351C116.306 267.046 115.171 267.565 113.816 267.424C112.461 267.284 108.749 267.266 108.749 267.266L110.455 262.48L110.464 262.489Z" fill="#F4B58E"/>
<path d="M98.684 234.872C103.602 233.685 106.021 236.826 106.866 240.169C107.71 243.512 99.2471 258.556 99.2471 258.556L112.382 262.181C112.382 262.181 113.728 264.767 112.461 267.028C102.133 269.184 91.8306 265.84 89.7015 264.934C87.5637 264.028 90.5021 237.776 98.684 234.881V234.872Z" fill="#EB5454"/>
<path d="M467.863 115.532H514.148L499.587 83.9219L467.863 115.532Z" fill="#EB5454"/>
<path d="M330.46 148.638C335.008 146.016 340.19 146.474 342.038 149.667C343.885 152.861 341.695 157.585 337.146 160.207C332.598 162.829 327.416 162.371 325.569 159.178C323.721 155.984 325.912 151.26 330.46 148.638Z" fill="#5E5C64"/>
<path d="M317.052 144.389C316.718 144.591 316.472 144.776 316.34 144.925C315.284 146.131 313.771 148.488 316.947 150.952C320.123 153.415 322.049 160.62 325.41 160.902C328.771 161.192 335.211 156.873 335.211 156.873C335.211 156.873 342.17 153.45 343.595 150.398C345.029 147.345 339.75 142.084 339.205 138.098C338.659 134.113 335.862 134.245 334.287 134.553C332.712 134.87 325.762 140.518 325.762 140.518C325.762 140.518 319.357 142.963 317.043 144.389H317.052Z" fill="#EB5454"/>
<mask id="mask2_868_4948" style="mask-type:luminance" maskUnits="userSpaceOnUse" x="315" y="134" width="29" height="27">
<path d="M317.052 144.389C316.718 144.591 316.472 144.776 316.34 144.925C315.284 146.131 313.771 148.488 316.947 150.952C320.123 153.415 322.049 160.62 325.41 160.902C328.771 161.192 335.211 156.873 335.211 156.873C335.211 156.873 342.17 153.45 343.595 150.398C345.029 147.345 339.75 142.084 339.205 138.098C338.659 134.113 335.862 134.245 334.287 134.553C332.712 134.87 325.762 140.518 325.762 140.518C325.762 140.518 319.357 142.963 317.043 144.389H317.052Z" fill="white"/>
</mask>
<g mask="url(#mask2_868_4948)">
<g style="mix-blend-mode:multiply" opacity="0.44">
<path d="M335.387 149.263C332.651 151.647 329.096 153.961 325.63 154.559C322.261 155.139 317.967 153.925 315.055 156.433C314.202 157.172 313.78 158.307 313.683 159.433C313.419 162.512 315.425 165.477 318.099 167.025C320.774 168.574 323.994 168.899 327.082 168.697C333.495 168.283 339.786 165.653 344.44 161.21C349.085 156.767 352.014 150.512 352.217 144.081C352.27 142.365 352.102 140.544 351.099 139.154C349.322 136.691 343.745 135.397 341.66 137.931C340.437 139.409 340.789 141.617 340.217 143.333C339.557 145.33 338.052 146.773 336.53 148.233C336.17 148.576 335.791 148.928 335.396 149.271L335.387 149.263Z" fill="#EB5454"/>
</g>
</g>
<path d="M331.085 101.799C334.445 107.623 335.132 114.257 333.522 120.274C332.712 123.283 336.97 135.899 335.061 138.424C333.152 140.949 330.724 143.139 327.812 144.82C324.9 146.5 321.785 147.512 318.645 147.899C315.504 148.286 306.706 138.301 303.697 137.491C297.68 135.881 292.269 131.966 288.908 126.142C282.187 114.494 286.172 99.5995 297.82 92.878C309.469 86.1566 324.363 90.1419 331.085 101.79V101.799Z" fill="#EB5454"/>
<mask id="mask3_868_4948" style="mask-type:luminance" maskUnits="userSpaceOnUse" x="285" y="89" width="51" height="59">
<path d="M331.085 101.799C334.445 107.623 335.132 114.257 333.522 120.274C332.712 123.283 336.97 135.899 335.061 138.424C333.152 140.949 330.724 143.139 327.812 144.82C324.9 146.5 321.785 147.512 318.645 147.899C315.504 148.286 306.706 138.301 303.697 137.491C297.68 135.881 292.269 131.966 288.908 126.142C282.187 114.494 286.172 99.5995 297.82 92.878C309.469 86.1566 324.363 90.1419 331.085 101.79V101.799Z" fill="white"/>
</mask>
<g mask="url(#mask3_868_4948)">
<path opacity="0.35" d="M321.046 91.3474C326.747 98.1392 329.246 107.438 328.041 116.227C326.827 125.016 321.997 133.189 315.073 138.732C309.944 142.84 303.82 145.506 297.715 147.943C296.923 148.26 296.061 148.629 295.691 149.395C295.296 150.195 295.568 151.145 295.885 151.981C298.894 159.758 306.126 165.539 314.202 167.615C322.278 169.691 331.032 168.275 338.492 164.562C347.431 160.11 354.768 152.21 357.803 142.7C359.237 138.204 359.721 133.462 359.844 128.746C360.038 121.488 359.413 114.213 357.979 107.086C356.809 101.254 355.041 95.4207 351.636 90.5468C348.231 85.6728 342.979 81.8282 337.058 81.2476C332.334 80.7813 326.976 82.9543 325.366 87.4236" fill="#EB5454"/>
</g>
<path d="M322.656 114.468C322.243 114.705 322.093 115.242 322.34 115.664C323.501 117.67 325.005 120.195 325.507 122.166C325.885 123.679 325.577 125.157 325.463 126.952C325.155 131.694 326.061 134.817 328.56 139.154C329.325 140.492 330.161 141.688 330.61 142.946C331.093 142.568 331.569 142.172 332.017 141.758C331.463 140.465 330.689 139.357 330.073 138.283C327.654 134.087 326.915 131.562 327.205 127.066C327.31 125.439 327.698 123.723 327.205 121.752C326.598 119.333 324.997 116.773 323.862 114.802C323.624 114.389 323.088 114.239 322.665 114.485L322.656 114.468ZM305.043 126.53C304.63 126.785 304.498 127.321 304.753 127.726C305.809 129.45 307.128 131.456 309.178 132.591C314.51 135.547 315.988 135.908 319.164 141.415C319.947 142.761 320.783 144.714 322.085 146.061C322.129 146.104 322.489 146.606 322.78 147.011C323.36 146.835 323.941 146.641 324.513 146.412C324.126 145.876 323.747 145.26 323.343 144.846C322.393 143.87 321.53 142.022 320.677 140.544C317.387 134.843 315.302 133.99 310.023 131.069C308.483 130.216 307.269 128.491 306.249 126.82C305.994 126.406 305.457 126.274 305.052 126.53H305.043Z" fill="#EB5454"/>
<path d="M307.384 126.177L309.002 120.626L312.794 121.374L313.639 117.74L317.387 119.148L317.879 113.825L322.683 115.25L319.867 115.822L318.407 121.286L314.343 120.063L313.04 125.429L308.906 122.992L307.384 126.177Z" fill="white"/>
<path opacity="0.5" d="M292.885 98.8781C289.727 103.224 287.474 109.136 288.187 112.919C288.9 116.702 292.709 116.394 292.991 112.875C293.272 109.356 295.683 104.817 298.419 101.561C301.155 98.3062 297.055 93.749 292.885 98.8781Z" fill="white"/>
<path opacity="0.5" d="M290.738 118.787C288.9 120.687 288.979 123.371 291.108 124.875C293.237 126.379 294.715 125.306 294.636 122.632C294.557 119.948 292.92 117.115 290.738 118.796V118.787Z" fill="white"/>
<path d="M272.246 262.348H246.803L235.753 238.058L237.037 237.803L247.577 260.809H272.509L272.254 262.348H272.246Z" fill="#77767B"/>
<path d="M256.313 246.415C256.313 246.415 255.539 247.568 255.415 248.597C255.283 249.627 256.313 250.137 257.342 250.269C258.371 250.401 260.808 250.524 260.808 250.014C260.808 249.503 260.553 247.313 260.553 247.313C260.553 247.313 257.465 246.028 256.313 246.415Z" fill="#EF8F6A"/>
<path d="M279.363 297.187C281.782 306.425 287.395 318.68 287.395 318.68C286.542 317.369 302.052 355.015 303.275 359.475C304.12 362.572 303.759 365.537 302.026 367.71C299.369 371.035 298.366 371.915 296.897 372.698C295.427 373.481 295.595 374.326 297.609 374.431C299.624 374.537 302.457 374.352 303.539 373.516C304.621 372.681 307.472 368.132 308.211 368.115C308.958 368.097 309.9 371.027 309.847 372.03C310.999 372.179 311.193 371.889 311.193 371.889C311.756 365.924 308.853 363.179 308.061 359.51C301.867 335.625 308.747 333.997 302.58 318.751C301.014 314.88 295.647 299.492 295.674 293.422C295.7 287.351 276.961 287.958 279.372 297.196L279.363 297.187Z" fill="#F1A474"/>
<path d="M310.084 364.736C307.278 365.704 304.859 369.461 302.703 371.185C301.243 372.355 299.466 372.153 298.26 371.783C297.812 372.135 297.372 372.443 296.897 372.689C295.427 373.472 295.595 374.317 297.609 374.423C299.624 374.528 302.457 374.343 303.539 373.508C304.621 372.672 307.472 368.123 308.211 368.106C308.958 368.088 309.9 371.018 309.847 372.021C310.999 372.17 311.193 371.88 311.193 371.88C311.483 368.845 310.867 366.645 310.093 364.728L310.084 364.736Z" fill="#1E2B54"/>
<path d="M296.606 278.466C292.076 274.507 282.864 273.794 278.562 278.008C275.932 280.586 277.77 289.568 277.726 297.829C277.674 306.09 275.756 318.662 275.756 318.662C276.002 323.712 280.507 357.548 280.533 362.176C280.551 365.378 279.433 368.149 277.199 369.803C273.767 372.328 272.571 372.918 270.952 373.296C269.333 373.674 269.272 374.528 271.19 375.153C273.108 375.777 275.888 376.331 277.155 375.804C278.413 375.276 282.345 371.625 283.067 371.792C283.788 371.968 283.946 375.038 283.639 375.997C284.712 376.437 284.976 376.208 284.976 376.208C287.07 370.595 284.976 367.182 285.161 363.434C285.363 338.756 292.427 338.967 290.413 322.639C289.903 318.495 297.407 297.099 298.788 292.023C300.169 286.955 300.064 281.466 296.624 278.448L296.606 278.466Z" fill="#F4B58E"/>
<path d="M285.759 369.021C282.794 369.232 279.486 372.232 276.961 373.34C275.245 374.088 273.592 373.437 272.509 372.768C271.982 372.997 271.48 373.173 270.952 373.296C269.333 373.675 269.272 374.528 271.19 375.153C273.108 375.777 275.888 376.331 277.155 375.804C278.413 375.276 282.345 371.625 283.067 371.792C283.788 371.959 283.946 375.038 283.639 375.997C284.712 376.437 284.976 376.208 284.976 376.208C286.04 373.349 286.014 371.062 285.759 369.012V369.021Z" fill="#1E2B54"/>
<path d="M277.735 255.389L267.398 248.8L265.093 252.073C265.093 252.073 275.844 265.067 278.333 264.504C280.823 263.941 277.735 255.389 277.735 255.389Z" fill="#F4B58E"/>
<path d="M298.718 266.272L277.533 266.906C277.533 266.906 276.178 291.768 276.512 296.994C276.847 302.22 275.237 321.584 275.237 321.584C275.237 321.584 295.515 323.255 304.155 318.645C300.539 305.572 298.744 296.44 300.891 290.343C303.038 284.246 305.703 275.765 298.727 266.272H298.718Z" fill="#3E73B2"/>
<mask id="mask4_868_4948" style="mask-type:luminance" maskUnits="userSpaceOnUse" x="275" y="266" width="30" height="56">
<path d="M298.718 266.272L277.533 266.906C277.533 266.906 276.178 291.768 276.512 296.994C276.847 302.22 275.237 321.584 275.237 321.584C275.237 321.584 295.515 323.255 304.155 318.645C300.539 305.572 298.744 296.44 300.891 290.343C303.038 284.246 305.703 275.765 298.727 266.272H298.718Z" fill="white"/>
</mask>
<g mask="url(#mask4_868_4948)">
<g style="mix-blend-mode:multiply" opacity="0.31">
<path d="M263.052 288.276C261.855 288.082 260.562 287.775 259.841 286.807C258.855 285.487 259.383 283.622 259.981 282.091C260.967 279.584 262.058 277.112 263.237 274.683C264.855 271.367 266.72 268.059 269.571 265.71C273.424 262.543 278.624 261.531 283.612 261.346C289.216 261.135 298.436 261.1 302.263 266.071C305.756 270.61 302.844 275.317 299.079 278.423C289.251 286.534 275.641 290.291 263.061 288.276H263.052Z" fill="#3E73B2"/>
</g>
</g>
<path d="M275.615 219.177C275.615 219.177 276.407 223.682 277.031 226.726C277.665 229.77 278.254 232.189 280.463 231.688C282.671 231.186 285.697 231.081 285.697 231.081L287.334 235.198L294.996 234.468C294.996 234.468 292.63 231.098 291.776 228.406C290.923 225.723 289.014 217.374 286.946 215.113C284.888 212.852 281.43 213.16 278.369 214.567C275.298 215.975 275.492 218.069 275.615 219.169V219.177Z" fill="#F4B58E"/>
<path d="M291.266 232.586C296.342 232.727 297.398 235.533 297.627 244.419C297.864 253.296 298.313 262.419 301.762 271.366C303.433 275.704 280.647 278.264 277.04 275.484C278.342 267.249 280.832 261.108 275.474 252.61C273.152 248.923 277.577 245.404 281.457 241.093C284.853 237.319 287.316 232.472 291.266 232.586Z" fill="#FE7D73"/>
<path d="M288.099 209.65C288.099 209.65 289.251 208.99 290.527 209.94C291.803 210.89 290.967 212.421 290.967 212.421L288.09 209.65H288.099Z" fill="#F5C211"/>
<path d="M291.961 228.776C291.961 228.776 292.427 222.23 293.219 218.755C294.205 214.409 289.832 205.91 280.181 209.438C277.542 210.406 272.377 214.822 274.419 217.954C276.952 221.817 285.512 223.805 285.512 223.805C285.512 223.805 285.943 219.881 288.117 221.06C289.568 221.852 289.885 225.345 288.477 226.391C289.216 227.905 290.985 229.048 291.97 228.784L291.961 228.776Z" fill="#1E2B54"/>
<path d="M282.319 254.721L282.046 262.304C282.046 262.304 278.333 262.788 275.589 263.58C272.835 264.372 263.078 263.703 263.078 263.703L262.286 266.747C262.286 266.747 272.342 271.005 277.656 271.357C284.492 271.815 287.501 272.246 289.128 269.906C290.756 267.566 290.914 254.589 290.914 254.589L282.328 254.738L282.319 254.721Z" fill="#F4B58E"/>
<path d="M288.196 236.738C284.026 238.903 282.231 241.727 281.826 247.577C281.421 253.436 281.245 256.12 281.245 256.12C281.245 256.12 289.313 259.612 292.779 255.926C292.911 246.134 294.451 235.454 288.196 236.738Z" fill="#FE7D73"/>
<path d="M288.565 209.791C288.565 209.791 290.237 205.805 292.674 207.345C295.12 208.884 296.14 211.33 294.988 213.257C293.835 215.184 290.36 214.409 290.36 214.409L288.556 209.782L288.565 209.791Z" fill="#1E2B54"/>
<path d="M264.407 264.02C264.407 264.02 261.196 262.604 259.911 262.093C258.627 261.583 254.386 261.064 253.744 261.319C253.102 261.574 253.612 262.216 253.612 262.216C253.612 262.216 250.524 262.216 248.861 262.348C247.19 262.48 248.087 263.765 249.758 264.53C251.43 265.304 255.028 266.976 256.823 267.231C258.618 267.486 263.888 267.231 263.888 267.231L264.398 264.02H264.407Z" fill="#F4B58E"/>
<path d="M257.087 246.028C257.087 246.028 254.386 245.518 253.744 245.896C253.102 246.284 251.949 248.078 251.817 248.597C251.685 249.108 251.949 250.014 252.591 249.372C253.234 248.729 253.744 247.19 254.65 246.926C255.547 246.671 258.116 247.058 258.116 247.058L257.087 246.028Z" fill="#EF8F6A"/>
<path d="M268.524 249.504C268.524 249.504 264.539 246.679 263.509 246.16C262.48 245.65 258.627 245.773 257.984 245.386C257.342 244.999 254.896 243.328 253.999 243.46C253.102 243.592 250.313 243.882 250.55 244.533C250.964 245.65 253.48 244.876 254.122 244.999C254.764 245.131 257.078 246.794 257.852 247.568C258.627 248.342 260.034 248.078 260.166 249.108C260.298 250.137 258.627 251.932 258.24 252.838C257.852 253.735 257.342 254.509 257.852 254.897C258.363 255.284 258.495 254.897 259.137 253.867C259.779 252.838 260.94 252.196 262.225 251.941C263.509 251.685 266.21 252.328 266.21 252.328L268.524 249.504Z" fill="#F4B58E"/>
<path d="M100.953 200.472C123.721 177.704 123.721 140.789 100.953 118.02C78.1843 95.2514 41.2692 95.2514 18.5006 118.02C-4.26791 140.789 -4.26791 177.704 18.5006 200.472C41.2692 223.241 78.1843 223.241 100.953 200.472Z" fill="#EB5454"/>
<g style="mix-blend-mode:multiply" opacity="0.48">
<path d="M109.142 170.632C115.422 143.343 98.391 116.131 71.1028 109.851C43.8145 103.571 16.6022 120.602 10.3222 147.89C4.0423 175.178 21.0729 202.391 48.3612 208.671C75.6494 214.951 102.862 197.92 109.142 170.632Z" fill="#EB5454"/>
</g>
<path d="M106.042 169.933C111.937 144.356 95.9826 118.843 70.4057 112.947C44.8289 107.052 19.3155 123.007 13.4201 148.584C7.52459 174.16 23.4795 199.674 49.0563 205.569C74.6332 211.465 100.146 195.51 106.042 169.933Z" fill="#EB5454" fill-opacity="0.5"/>
<path d="M59.7277 128.913C58.2057 128.913 56.9828 130.294 56.9828 132.01V155.368C56.9828 156.151 57.2379 156.863 57.6602 157.409C57.1675 157.893 56.8596 158.535 56.8596 159.248C56.8596 160.77 58.2409 161.993 59.9564 161.993H81.0006C82.7161 161.993 84.0974 160.77 84.0974 159.248C84.0974 157.726 82.7161 156.512 81.0006 156.512H62.2614C62.3846 156.16 62.455 155.773 62.455 155.377V132.019C62.455 130.303 61.2321 128.922 59.7189 128.922L59.7277 128.913Z" fill="#EB5454"/>
<path d="M64.7843 164.304C67.5775 161.51 67.5775 156.982 64.7843 154.188C61.991 151.395 57.4623 151.395 54.6691 154.188C51.8758 156.982 51.8758 161.51 54.6691 164.304C57.4623 167.097 61.991 167.097 64.7843 164.304Z" fill="#EB5454"/>
<path opacity="0.5" d="M81.5813 117.071L18.7303 183.01C19.9972 185.192 21.4312 187.26 23.0236 189.213L89.7895 122.447C87.247 120.37 84.5021 118.567 81.5813 117.062V117.071ZM97.294 130.162L32.2348 197.958C35.1381 199.981 38.2613 201.661 41.5428 202.99L105.186 145.426C103.505 139.901 100.831 134.728 97.294 130.162Z" fill="white" fill-opacity="0.1"/>
<path d="M59.7277 115.101C58.0561 115.101 56.6925 116.455 56.6925 118.136C56.6925 119.807 58.0473 121.171 59.7277 121.171C61.3992 121.171 62.7629 119.816 62.7629 118.136C62.7629 116.464 61.408 115.101 59.7277 115.101ZM31.4342 127.25C30.3873 126.969 29.27 127.268 28.5046 128.033C27.3169 129.221 27.3169 131.139 28.5046 132.327C29.6922 133.514 31.6101 133.514 32.7978 132.327C33.9855 131.139 33.9855 129.221 32.7978 128.033C32.4195 127.655 31.9533 127.382 31.4342 127.25ZM88.0123 127.25C87.5021 127.391 87.027 127.655 86.6487 128.033C85.461 129.221 85.461 131.139 86.6487 132.327C87.8364 133.514 89.7543 133.514 90.942 132.327C92.1297 131.139 92.1297 129.221 90.942 128.033C90.1766 127.268 89.0593 126.969 88.0123 127.25ZM18.6071 156.221C16.9355 156.221 15.5719 157.576 15.5719 159.256C15.5719 160.928 16.9267 162.292 18.6071 162.292C20.2787 162.292 21.6423 160.937 21.6423 159.256C21.6423 157.585 20.2875 156.221 18.6071 156.221ZM100.839 156.221C99.1679 156.221 97.8042 157.576 97.8042 159.256C97.8042 160.937 99.1591 162.292 100.839 162.292C102.511 162.292 103.875 160.937 103.875 159.256C103.875 157.585 102.52 156.221 100.839 156.221ZM29.8594 185.403C29.3491 185.544 28.8741 185.808 28.4958 186.186C27.3081 187.374 27.3081 189.292 28.4958 190.479C29.6834 191.667 31.6013 191.667 32.789 190.479C33.9767 189.292 33.9767 187.374 32.789 186.186C32.0236 185.421 30.9063 185.122 29.8594 185.403ZM88.0123 185.403C87.5021 185.544 87.027 185.808 86.6487 186.186C85.461 187.374 85.461 189.292 86.6487 190.479C87.8364 191.667 89.7543 191.667 90.9332 190.479C92.1209 189.292 92.1209 187.374 90.9332 186.186C90.1678 185.421 89.0505 185.122 88.0035 185.403H88.0123ZM59.7277 197.342C58.0561 197.342 56.6925 198.697 56.6925 200.377C56.6925 202.057 58.0473 203.412 59.7277 203.412C61.3992 203.412 62.7629 202.057 62.7629 200.377C62.7629 198.705 61.408 197.342 59.7277 197.342Z" fill="#EB5454"/>
<path d="M161.06 22.8479C161.06 22.8479 179.201 16.276 184.954 11.8771C194.482 4.57502 201.494 5.4196 207.565 14.71C212.219 -2.33999 225.134 -0.483673 229.656 0.756806C236.131 2.53395 238.84 8.42842 236.245 14.3229C236.245 14.3229 241.673 5.0237 254.069 10.056C267.741 15.6074 262.207 23.235 283.911 25.1705C228.881 25.1705 161.069 22.8479 161.069 22.8479H161.06Z" fill="white"/>
</g>
<defs>
<clipPath id="clip0_868_4948">
<rect width="589.395" height="380" fill="white"/>
</clipPath>
</defs>
</svg>
