<svg width="398" height="400" viewBox="0 0 398 400" fill="none" xmlns="http://www.w3.org/2000/svg">
<g clip-path="url(#clip0_867_4630)">
<path d="M378.526 269.428C340.194 359.684 238.087 410.245 149.54 396.607C135.131 394.387 95.63 387.777 60.6572 356.588C-6.66714 296.548 -21.0657 177.661 33.2429 93.878C72.7714 32.8995 143.627 -1.66767 210.956 0.0608995C225.459 0.433757 281.037 2.72804 329.883 43.0052C337.057 48.9209 352.881 62.978 367.141 85.2795C400.629 137.647 403.507 210.607 378.526 269.428Z" fill="#FE7D73" fill-opacity="0.1"/>
<g opacity="0.3">
<path d="M146.926 63.3654C146.209 63.3168 145.629 62.7325 145.601 61.9983C145.543 60.3925 145.553 58.7597 145.631 57.1454C145.67 56.3597 146.337 55.7554 147.121 55.7925C147.131 55.7925 147.14 55.7925 147.149 55.794C147.92 55.8468 148.511 56.5068 148.473 57.2826C148.399 58.8154 148.389 60.3668 148.444 61.8925C148.473 62.6783 147.86 63.3383 147.074 63.3668C147.024 63.3683 146.974 63.3668 146.924 63.364L146.926 63.3654ZM147.856 51.004C147.8 50.9997 147.744 50.9925 147.689 50.9826C146.916 50.8383 146.407 50.094 146.551 49.3211C146.849 47.734 147.217 46.1454 147.647 44.5968C147.857 43.8397 148.637 43.3968 149.399 43.6054C150.156 43.8154 150.6 44.5997 150.39 45.3568C149.983 46.8283 149.633 48.3383 149.35 49.8468C149.216 50.5625 148.566 51.0525 147.857 51.004H147.856ZM151.484 39.1554C151.326 39.1454 151.167 39.1068 151.013 39.0411C150.293 38.7283 149.961 37.8897 150.274 37.1683C150.916 35.6911 151.63 34.2225 152.397 32.8054C152.771 32.114 153.634 31.8583 154.326 32.2311C155.017 32.6054 155.274 33.4683 154.9 34.1597C154.171 35.5054 153.494 36.8997 152.884 38.3025C152.639 38.8697 152.067 39.1954 151.483 39.1554H151.484ZM157.673 28.4125C157.411 28.3954 157.153 28.3054 156.926 28.1383C156.293 27.6725 156.159 26.7811 156.624 26.1483C157.581 24.8511 158.606 23.5797 159.669 22.3697C160.187 21.7797 161.086 21.7225 161.677 22.2397C162.267 22.7583 162.326 23.6568 161.807 24.2483C160.797 25.3983 159.824 26.6054 158.916 27.8383C158.616 28.244 158.141 28.4454 157.673 28.4125ZM166.101 19.3197C165.736 19.2954 165.379 19.1297 165.12 18.8297C164.607 18.234 164.673 17.3354 165.269 16.8226C166.486 15.7726 167.766 14.7597 169.073 13.8126C169.709 13.3511 170.599 13.4926 171.06 14.1297C171.521 14.7654 171.379 15.6554 170.743 16.1168C169.501 17.0168 168.284 17.9797 167.127 18.9768C166.831 19.2311 166.463 19.344 166.101 19.3197ZM176.33 12.3183C175.856 12.2854 175.409 12.0168 175.169 11.5668C174.8 10.8726 175.063 10.0111 175.757 9.64255C177.179 8.88684 178.651 8.18255 180.133 7.54969C180.856 7.24112 181.691 7.57684 182 8.29969C182.309 9.02255 181.973 9.85826 181.25 10.1668C179.841 10.7683 178.443 11.4368 177.091 12.1554C176.849 12.2854 176.584 12.3368 176.329 12.3183H176.33ZM228.58 12.464C228.383 12.4511 228.187 12.3968 228.003 12.2968C226.657 11.5711 225.261 10.8954 223.854 10.2883C223.133 9.97684 222.801 9.13826 223.113 8.41826C223.424 7.69684 224.261 7.36398 224.983 7.67684C226.464 8.31684 227.934 9.02969 229.351 9.79255C230.043 10.1654 230.301 11.0283 229.929 11.7197C229.656 12.2268 229.119 12.5011 228.579 12.4654L228.58 12.464ZM187.849 7.76112C187.26 7.72112 186.734 7.31398 186.571 6.71255C186.366 5.95398 186.814 5.17255 187.573 4.96684C189.127 4.54541 190.72 4.18684 192.304 3.90112C193.079 3.76541 193.819 4.27541 193.957 5.04826C194.097 5.82112 193.583 6.56112 192.809 6.70112C191.303 6.97255 189.791 7.31255 188.316 7.71255C188.159 7.75541 188.001 7.76969 187.847 7.75969L187.849 7.76112ZM217.074 7.85255C216.98 7.84684 216.886 7.83112 216.791 7.80541C215.317 7.39969 213.804 7.05255 212.297 6.77255C211.524 6.62826 211.014 5.88684 211.157 5.11398C211.301 4.34112 212.043 3.82826 212.816 3.97398C214.401 4.26826 215.993 4.63398 217.544 5.06112C218.301 5.26969 218.747 6.05255 218.539 6.81112C218.356 7.47398 217.733 7.89826 217.071 7.85398L217.074 7.85255ZM200.096 5.89112C199.379 5.84255 198.8 5.25969 198.771 4.52684C198.741 3.74112 199.353 3.08112 200.139 3.04969C201.746 2.98826 203.379 2.99398 204.99 3.06969C205 3.06969 205.01 3.06969 205.02 3.07112C205.79 3.12398 206.38 3.78255 206.344 4.55684C206.307 5.34255 205.641 5.94826 204.856 5.91112C203.326 5.83969 201.776 5.83398 200.247 5.89255C200.196 5.89398 200.144 5.89255 200.094 5.88969L200.096 5.89112Z" fill="#FF8E8E"/>
<path d="M236.911 17.9799C236.631 17.9614 236.354 17.8599 236.12 17.6714C235.547 17.2128 234.956 16.7585 234.361 16.3199C233.729 15.8542 233.593 14.9628 234.059 14.3314C234.524 13.6985 235.416 13.5628 236.049 14.0299C236.674 14.4899 237.296 14.9685 237.899 15.4499C238.511 15.9414 238.611 16.8371 238.12 17.4499C237.817 17.8285 237.361 18.0114 236.911 17.9799Z" fill="#FF8E8E"/>
</g>
<g opacity="0.3">
<path d="M257.491 56.1686C256.806 56.1215 256.237 55.5843 256.173 54.8786C256.106 54.1486 256.023 53.4072 255.926 52.6757C255.821 51.8972 256.37 51.1815 257.149 51.0772C257.931 50.9729 258.643 51.5215 258.747 52.3C258.85 53.07 258.937 53.8515 259.007 54.62C259.079 55.4029 258.503 56.0943 257.72 56.1672C257.643 56.1743 257.567 56.1743 257.493 56.17L257.491 56.1686Z" fill="#FF8E8E"/>
<path d="M198.616 116.553C197.963 116.508 197.307 116.453 196.651 116.385C195.87 116.305 195.3 115.607 195.38 114.825C195.46 114.044 196.161 113.471 196.94 113.554C198.456 113.708 199.973 113.8 201.469 113.828C202.254 113.844 202.88 114.491 202.864 115.277C202.85 116.063 202.2 116.688 201.414 116.674C200.489 116.657 199.547 116.615 198.616 116.553ZM189.247 115.117C189.169 115.111 189.087 115.1 189.007 115.08C187.464 114.707 185.919 114.265 184.416 113.765C183.67 113.518 183.267 112.713 183.514 111.967C183.763 111.221 184.57 110.815 185.313 111.065C186.74 111.54 188.207 111.96 189.674 112.314C190.439 112.498 190.907 113.267 190.723 114.031C190.557 114.715 189.924 115.163 189.246 115.117H189.247ZM208.893 116.294C208.223 116.248 207.66 115.733 207.577 115.043C207.484 114.263 208.041 113.554 208.823 113.461C210.316 113.284 211.821 113.04 213.299 112.735C214.069 112.578 214.821 113.073 214.979 113.843C215.137 114.613 214.641 115.365 213.871 115.524C212.316 115.844 210.73 116.101 209.159 116.288C209.069 116.298 208.98 116.301 208.893 116.295V116.294ZM177.773 110.964C177.593 110.951 177.411 110.904 177.24 110.82C175.817 110.118 174.409 109.347 173.051 108.527C172.379 108.121 172.163 107.247 172.569 106.574C172.974 105.901 173.849 105.684 174.521 106.091C175.81 106.868 177.149 107.601 178.5 108.268C179.204 108.615 179.494 109.47 179.146 110.174C178.883 110.707 178.331 111.003 177.773 110.964ZM220.764 113.521C220.216 113.484 219.714 113.128 219.519 112.575C219.256 111.834 219.644 111.021 220.386 110.758C221.801 110.257 223.217 109.688 224.591 109.067C225.307 108.743 226.15 109.061 226.474 109.778C226.797 110.494 226.48 111.337 225.763 111.66C224.316 112.314 222.826 112.913 221.334 113.441C221.146 113.508 220.951 113.533 220.764 113.52V113.521ZM231.74 108.211C231.301 108.181 230.881 107.95 230.63 107.548C230.213 106.883 230.413 106.004 231.079 105.587C232.354 104.785 233.613 103.921 234.816 103.017C235.443 102.544 236.336 102.671 236.809 103.3C237.28 103.928 237.153 104.82 236.526 105.293C235.259 106.244 233.936 107.153 232.593 107.997C232.329 108.163 232.031 108.231 231.741 108.211H231.74ZM241.297 100.634C240.963 100.611 240.636 100.471 240.383 100.215C239.83 99.6569 239.834 98.7555 240.394 98.2041C241.467 97.1426 242.506 96.0255 243.483 94.8826C243.993 94.2855 244.891 94.2141 245.489 94.7255C246.086 95.2369 246.156 96.1341 245.646 96.7312C244.617 97.9341 243.523 99.1112 242.396 100.227C242.094 100.525 241.691 100.661 241.299 100.635L241.297 100.634ZM248.974 91.1541C248.743 91.1383 248.513 91.0655 248.303 90.9326C247.641 90.5083 247.449 89.6283 247.873 88.9669C248.687 87.6983 249.456 86.3798 250.159 85.0498C250.526 84.3555 251.387 84.0883 252.081 84.4555C252.777 84.8226 253.043 85.6826 252.676 86.3783C251.936 87.7798 251.126 89.1683 250.27 90.5041C249.98 90.9569 249.476 91.1898 248.974 91.1555V91.1541ZM254.386 80.2155C254.256 80.2069 254.124 80.1798 253.996 80.1326C253.257 79.864 252.876 79.0483 253.143 78.3098C253.656 76.8955 254.114 75.4426 254.507 73.9869C254.711 73.2283 255.496 72.7798 256.251 72.9841C257.01 73.1883 257.459 73.9698 257.254 74.7283C256.84 76.2598 256.357 77.7912 255.817 79.2798C255.596 79.8898 255 80.2569 254.384 80.2155H254.386ZM257.26 68.364C257.231 68.3626 257.201 68.3583 257.173 68.3555C256.394 68.254 255.843 67.5412 255.944 66.7626C256.087 65.6626 256.197 64.5455 256.271 63.4412C256.299 63.0412 256.321 62.6412 256.339 62.244C256.374 61.4583 257.04 60.8512 257.826 60.8883C258.621 60.9098 259.217 61.5898 259.181 62.374C259.163 62.794 259.139 63.2126 259.11 63.6341C259.031 64.7955 258.916 65.9712 258.766 67.1283C258.669 67.8783 258.004 68.4155 257.26 68.3655V68.364Z" fill="#FF8E8E"/>
<path d="M167.47 104.365C167.187 104.347 166.909 104.244 166.673 104.052C166.074 103.568 165.474 103.061 164.89 102.547C164.3 102.028 164.243 101.128 164.761 100.538C165.281 99.9482 166.179 99.8896 166.77 100.41C167.326 100.898 167.896 101.38 168.463 101.84C169.074 102.334 169.169 103.23 168.674 103.841C168.371 104.215 167.917 104.395 167.471 104.365H167.47Z" fill="#FF8E8E"/>
</g>
<path d="M170.501 88.0281C170.666 88.2595 170.959 88.3609 171.23 88.2824L178.999 86.0095C181.83 88.5138 185.081 90.5838 188.667 92.0938L189.983 100.075C190.029 100.355 190.247 100.575 190.527 100.622L200.099 102.252C200.379 102.3 200.657 102.165 200.794 101.917L204.677 94.8209C208.56 94.5824 212.313 93.7038 215.814 92.2781L222.393 96.9938C222.623 97.1595 222.933 97.1595 223.164 96.9952L231.084 91.3795C231.316 91.2152 231.417 90.9224 231.339 90.6495L229.066 82.8809C231.57 80.0495 233.64 76.7966 235.15 73.2124L243.132 71.8967C243.411 71.8509 243.631 71.6324 243.679 71.3524L245.309 61.7809C245.356 61.5009 245.222 61.2224 244.973 61.0867L237.877 57.2038C237.639 53.3209 236.761 49.5681 235.336 46.0667L240.051 39.4881C240.217 39.2581 240.217 38.9481 240.053 38.7167L234.437 30.7967C234.273 30.5652 233.98 30.4638 233.709 30.5424L225.94 32.8167C223.109 30.3124 219.857 28.2424 216.271 26.7324L214.956 18.7509C214.91 18.4709 214.691 18.2509 214.411 18.2038L204.84 16.5738C204.56 16.5267 204.281 16.6609 204.146 16.9095L200.263 24.0052C196.38 24.2438 192.627 25.1224 189.126 26.5481L182.547 21.8324C182.317 21.6667 182.006 21.6667 181.774 21.8309L173.854 27.4467C173.623 27.6109 173.521 27.9038 173.6 28.1752L175.873 35.9438C173.369 38.7752 171.299 42.0281 169.789 45.6124L161.807 46.9281C161.527 46.9738 161.307 47.1924 161.26 47.4724L159.63 57.0438C159.583 57.3238 159.717 57.6024 159.966 57.7395L167.061 61.6224C167.3 65.5052 168.179 69.2581 169.603 72.7595L164.887 79.3381C164.721 79.5681 164.721 79.8781 164.886 80.1109L170.501 88.0309V88.0281Z" fill="#FF8E8E"/>
<path d="M201.803 69.1482C197.057 68.8268 193.126 65.0582 192.74 60.1782C192.317 54.8139 196.337 50.1053 201.703 49.6825C204.302 49.4768 206.824 50.2968 208.807 51.9896C210.79 53.6825 211.994 56.0453 212.199 58.6439C212.622 64.0096 208.602 68.7168 203.236 69.1396C202.752 69.1782 202.273 69.1796 201.803 69.1482ZM202.992 51.9453C202.624 51.921 202.254 51.9225 201.882 51.951C197.769 52.2753 194.686 55.8853 195.01 59.9982C195.334 64.111 198.943 67.1953 203.057 66.8696C207.17 66.5453 210.253 62.9353 209.929 58.8225C209.772 56.8296 208.849 55.0182 207.329 53.7196C206.093 52.6653 204.583 52.0525 202.992 51.9439V51.9453Z" fill="url(#paint0_linear_867_4630)"/>
<path d="M201.049 83.2257C200.233 83.17 199.416 83.0743 198.6 82.9343C198.343 82.89 198.087 82.8428 197.831 82.7914C196.571 82.5357 195.334 82.1785 194.139 81.7285C194.123 81.7228 194.106 81.7157 194.09 81.71C194.044 81.6928 193.997 81.6743 193.951 81.6571C193.861 81.6228 193.771 81.5871 193.683 81.5514C193.449 81.4571 193.31 81.2243 193.326 80.9857C193.33 80.9271 193.343 80.8685 193.366 80.8114C193.483 80.52 193.814 80.3785 194.106 80.4943C195.607 81.0957 197.184 81.5385 198.791 81.8128C206.776 83.1728 214.514 80.1943 219.587 74.5957C222.409 71.4814 224.406 67.5571 225.161 63.1157C225.294 62.3371 225.387 61.5571 225.439 60.78C225.793 55.5471 224.349 50.3943 221.274 46.0585C217.743 41.0771 212.483 37.77 206.464 36.7457C194.033 34.6314 182.209 43.0185 180.094 55.4428C179.964 56.2085 179.873 56.9785 179.821 57.7485C179.596 61.0871 180.103 64.4371 181.319 67.5571C181.35 67.6371 181.361 67.7214 181.356 67.8014C181.341 68.0143 181.207 68.2114 180.994 68.2928C180.701 68.4057 180.371 68.2628 180.257 67.9685C178.981 64.6928 178.449 61.1757 178.686 57.6714C178.74 56.8628 178.836 56.0543 178.973 55.2514C181.193 42.2071 193.616 33.4028 206.656 35.6228C212.974 36.6985 218.496 40.1714 222.203 45.4C225.431 49.9514 226.947 55.3614 226.576 60.8543C226.52 61.67 226.423 62.4885 226.284 63.3057C225.209 69.6243 221.736 75.1471 216.507 78.8543C211.954 82.0828 206.543 83.5985 201.049 83.2257Z" fill="url(#paint1_linear_867_4630)"/>
<g opacity="0.3">
<path d="M95.9443 97.4931C95.5643 97.4674 95.2329 97.196 95.1458 96.806C94.9843 96.0774 94.8429 95.3345 94.7258 94.5974C94.6501 94.1188 94.9758 93.6688 95.4558 93.5917C95.9358 93.5131 96.3858 93.8417 96.4615 94.3217C96.5729 95.0245 96.7086 95.7331 96.8615 96.4274C96.9672 96.9003 96.6672 97.3703 96.1929 97.476C96.1086 97.4945 96.0243 97.5003 95.9429 97.4945L95.9443 97.4931Z" fill="#FF8E8E"/>
<path d="M95.0943 90.7864C94.65 90.7564 94.2915 90.3936 94.2772 89.9393C94.2329 88.655 94.2558 87.355 94.3415 86.0736C94.36 85.8036 94.3815 85.5336 94.4058 85.2621C94.4486 84.7778 94.9 84.4421 95.3586 84.4636C95.8415 84.5064 96.1986 84.9336 96.1558 85.4164C96.1329 85.675 96.1115 85.9336 96.0943 86.1921C96.0115 87.4136 95.99 88.655 96.0315 89.8793C96.0486 90.365 95.6686 90.7707 95.1829 90.7878C95.1529 90.7878 95.1229 90.7878 95.0929 90.7864H95.0943ZM95.9043 81.6978C95.8629 81.695 95.82 81.6893 95.7786 81.6807C95.3043 81.5793 95.0015 81.1121 95.1029 80.6364C95.4286 79.1136 95.8515 77.5978 96.3586 76.1307C96.5172 75.6721 97.0201 75.4307 97.4772 75.5878C97.9358 75.7464 98.1786 76.2464 98.02 76.7064C97.5358 78.1064 97.1315 79.5521 96.8215 81.005C96.7286 81.4378 96.3329 81.7278 95.9043 81.6978ZM98.8943 73.0764C98.7829 73.0693 98.6715 73.0393 98.5658 72.9878C98.13 72.7736 97.9515 72.2464 98.1658 71.8107C98.8543 70.4164 99.6358 69.0493 100.493 67.7493C100.76 67.3436 101.303 67.2307 101.71 67.4993C102.116 67.7664 102.227 68.3107 101.961 68.7164C101.144 69.9564 100.399 71.2593 99.7429 72.5893C99.58 72.9178 99.24 73.1007 98.8943 73.0778V73.0764ZM103.911 65.4536C103.73 65.4407 103.551 65.3721 103.401 65.2464C103.033 64.9321 102.987 64.3764 103.303 64.0064C104.314 62.8207 105.406 61.6878 106.551 60.6393C106.91 60.3121 107.466 60.3378 107.793 60.6936C108.121 61.0507 108.097 61.6064 107.739 61.935C106.647 62.935 105.604 64.015 104.64 65.1464C104.453 65.3664 104.179 65.4707 103.911 65.4536ZM110.639 59.2878C110.386 59.2707 110.141 59.1436 109.981 58.9207C109.7 58.5264 109.791 57.9778 110.187 57.695C111.454 56.7921 112.789 55.9593 114.154 55.2193C114.581 54.9864 115.114 55.1464 115.346 55.5721C115.577 55.9978 115.419 56.5321 114.993 56.7636C113.69 57.4707 112.417 58.265 111.207 59.1264C111.034 59.2493 110.834 59.3007 110.639 59.2878ZM118.657 54.9421C118.329 54.9193 118.026 54.7121 117.899 54.385C117.721 53.9336 117.944 53.4236 118.396 53.2464C119.844 52.6793 121.341 52.1964 122.846 51.8136C123.317 51.695 123.794 51.9778 123.914 52.4493C124.034 52.9193 123.75 53.3978 123.28 53.5178C121.844 53.8836 120.417 54.3436 119.037 54.885C118.911 54.9336 118.783 54.9521 118.657 54.9436V54.9421ZM127.493 52.6893C127.081 52.6621 126.734 52.3464 126.681 51.9236C126.62 51.4421 126.961 51.0021 127.443 50.9407C128.981 50.7464 130.551 50.6464 132.111 50.6436C132.597 50.6507 132.991 51.0364 132.991 51.5207C132.991 52.0064 132.6 52.4007 132.114 52.4021C130.626 52.405 129.129 52.5007 127.661 52.685C127.604 52.6921 127.547 52.6936 127.491 52.6893H127.493ZM141.114 53.5007C141.064 53.4978 141.013 53.4893 140.961 53.4764C139.719 53.1678 138.436 52.9221 137.15 52.745C136.956 52.7178 136.764 52.6921 136.573 52.6693C136.091 52.6107 135.747 52.1736 135.806 51.6921C135.863 51.2093 136.306 50.8521 136.783 50.9236C136.987 50.9493 137.19 50.975 137.394 51.0036C138.737 51.1878 140.081 51.4464 141.386 51.7707C141.857 51.8878 142.144 52.3636 142.027 52.835C141.923 53.255 141.533 53.5278 141.116 53.5007H141.114Z" fill="#FF8E8E"/>
</g>
<g opacity="0.3">
<path d="M130.164 126.508C129.686 126.475 129.32 126.063 129.347 125.582C129.373 125.098 129.789 124.726 130.273 124.752C131.732 124.832 133.209 124.823 134.662 124.726C135.143 124.699 135.564 125.06 135.597 125.545C135.629 126.029 135.263 126.448 134.779 126.48C133.256 126.58 131.707 126.59 130.179 126.506C130.174 126.506 130.17 126.506 130.167 126.506L130.164 126.508ZM125.697 125.992C125.666 125.989 125.634 125.986 125.603 125.98C124.096 125.715 122.59 125.355 121.127 124.91C120.663 124.769 120.4 124.279 120.542 123.815C120.683 123.349 121.176 123.089 121.637 123.229C123.033 123.653 124.47 123.996 125.909 124.25C126.386 124.335 126.706 124.79 126.622 125.268C126.543 125.715 126.14 126.022 125.699 125.992H125.697ZM139.117 125.909C138.729 125.883 138.392 125.598 138.314 125.198C138.223 124.722 138.536 124.26 139.012 124.169C140.447 123.893 141.879 123.528 143.264 123.083C143.729 122.936 144.222 123.189 144.37 123.652C144.519 124.113 144.264 124.609 143.802 124.758C142.347 125.225 140.847 125.606 139.343 125.895C139.267 125.909 139.192 125.913 139.117 125.909ZM117.107 123.378C117.007 123.37 116.907 123.346 116.81 123.305C115.41 122.685 114.034 121.97 112.723 121.185C112.306 120.935 112.172 120.396 112.42 119.979C112.669 119.565 113.209 119.429 113.626 119.678C114.877 120.428 116.189 121.108 117.523 121.699C117.966 121.896 118.167 122.415 117.97 122.859C117.816 123.206 117.466 123.403 117.107 123.379V123.378ZM147.66 123.165C147.35 123.143 147.06 122.958 146.922 122.656C146.717 122.215 146.91 121.693 147.352 121.489C148.676 120.879 149.977 120.18 151.217 119.413C151.63 119.158 152.172 119.286 152.427 119.699C152.683 120.112 152.554 120.653 152.142 120.909C150.84 121.713 149.476 122.445 148.087 123.086C147.949 123.15 147.802 123.175 147.66 123.165ZM155.296 118.452C155.059 118.436 154.829 118.323 154.669 118.123C154.366 117.745 154.427 117.19 154.807 116.888C155.95 115.975 157.046 114.985 158.067 113.946C158.407 113.599 158.964 113.595 159.31 113.935C159.656 114.275 159.662 114.83 159.322 115.176C158.252 116.266 157.102 117.303 155.906 118.26C155.727 118.403 155.51 118.465 155.299 118.45L155.296 118.452ZM161.583 112.045C161.416 112.033 161.25 111.975 161.107 111.865C160.722 111.569 160.65 111.018 160.946 110.632C161.837 109.473 162.664 108.249 163.404 106.995C163.652 106.578 164.19 106.438 164.607 106.685C165.026 106.932 165.164 107.47 164.917 107.889C164.14 109.205 163.273 110.488 162.34 111.703C162.154 111.945 161.866 112.063 161.583 112.045Z" fill="#FF8E8E"/>
<path d="M109.373 118.74C109.204 118.729 109.036 118.669 108.893 118.556C108.3 118.093 107.717 117.612 107.163 117.123C106.799 116.803 106.763 116.248 107.083 115.883C107.404 115.52 107.959 115.485 108.323 115.803C108.852 116.269 109.407 116.729 109.973 117.17C110.356 117.469 110.423 118.022 110.124 118.403C109.937 118.642 109.653 118.759 109.372 118.739L109.373 118.74Z" fill="#FF8E8E"/>
</g>
<path d="M110.87 107.463C110.98 107.618 111.176 107.686 111.359 107.633L116.557 106.112C118.452 107.788 120.629 109.172 123.027 110.183L123.909 115.523C123.94 115.711 124.086 115.858 124.273 115.889L130.677 116.979C130.864 117.011 131.052 116.921 131.143 116.753L133.742 112.005C136.34 111.845 138.852 111.258 141.194 110.303L145.596 113.459C145.75 113.569 145.957 113.571 146.113 113.459L151.413 109.702C151.567 109.592 151.636 109.396 151.583 109.213L150.062 104.015C151.737 102.121 153.122 99.9434 154.133 97.5448L159.473 96.6648C159.66 96.6334 159.807 96.4877 159.839 96.3005L160.929 89.8962C160.96 89.7091 160.87 89.5219 160.703 89.4305L155.954 86.8319C155.794 84.2334 155.207 81.7219 154.253 79.3791L157.409 74.9762C157.519 74.8219 157.52 74.6148 157.409 74.4591L153.652 69.1591C153.542 69.0048 153.346 68.9362 153.163 68.9891L147.964 70.5105C146.07 68.8348 143.893 67.4505 141.494 66.4391L140.613 61.0977C140.582 60.9105 140.436 60.7634 140.249 60.7319L133.844 59.6419C133.657 59.6105 133.47 59.7005 133.379 59.8677L130.78 64.6162C128.182 64.7762 125.67 65.3634 123.327 66.3177L118.926 63.1619C118.772 63.0519 118.564 63.0505 118.409 63.1619L113.109 66.9191C112.954 67.0291 112.886 67.2248 112.939 67.4077L114.46 72.6062C112.784 74.5005 111.4 76.6777 110.389 79.0762L105.047 79.9562C104.86 79.9877 104.713 80.1334 104.682 80.3205L103.592 86.7248C103.56 86.9119 103.65 87.0991 103.817 87.1905L108.566 89.7891C108.726 92.3877 109.313 94.8991 110.267 97.2419L107.112 101.643C107.002 101.798 107 102.005 107.112 102.161L110.869 107.461L110.87 107.463Z" fill="#FF8E8E"/>
<path d="M131.796 94.9465C130.382 94.8508 129.04 94.3065 127.943 93.3693C126.593 92.2165 125.773 90.6065 125.633 88.8365C125.344 85.1836 128.083 81.9765 131.737 81.6879C135.397 81.4065 138.599 84.1393 138.887 87.7936C139.027 89.5636 138.469 91.2822 137.316 92.6322C136.163 93.9822 134.553 94.8036 132.781 94.9422C132.45 94.9679 132.122 94.9693 131.796 94.9479V94.9465ZM132.593 83.435C132.357 83.4193 132.117 83.4208 131.874 83.4393C129.186 83.6522 127.173 86.0108 127.384 88.6993C127.487 90.0008 128.09 91.1865 129.083 92.0336C130.077 92.8822 131.34 93.2908 132.643 93.1908C133.944 93.0879 135.13 92.485 135.977 91.4922C136.826 90.4979 137.236 89.235 137.133 87.9322C136.94 85.4879 134.97 83.5993 132.592 83.4379L132.593 83.435Z" fill="url(#paint2_linear_867_4630)"/>
<path d="M131.259 104.745C130.704 104.708 130.147 104.641 129.587 104.546C128.476 104.358 127.383 104.055 126.336 103.648L126.194 103.592C125.832 103.448 125.619 103.088 125.644 102.718C125.65 102.628 125.67 102.538 125.706 102.449C125.886 101.999 126.397 101.782 126.849 101.961C127.823 102.351 128.843 102.638 129.882 102.813C129.939 102.823 129.996 102.832 130.053 102.842C132.514 103.236 134.982 103.003 137.272 102.195C138.514 101.756 139.706 101.146 140.816 100.375C140.824 100.369 140.834 100.362 140.843 100.356C140.87 100.336 140.899 100.318 140.926 100.298C144.15 98.0105 146.292 94.6062 146.954 90.7105C147.04 90.2062 147.1 89.702 147.134 89.1991C147.363 85.812 146.429 82.4762 144.439 79.6691C142.152 76.4448 138.747 74.3048 134.852 73.6405C130.957 72.9791 127.033 73.8705 123.809 76.1562C120.584 78.442 118.443 81.8477 117.78 85.7434C117.696 86.2391 117.637 86.7377 117.603 87.2362C117.457 89.3977 117.786 91.5662 118.572 93.5862C118.62 93.7105 118.639 93.8391 118.63 93.9648C118.607 94.2934 118.4 94.5977 118.073 94.7248C117.62 94.8991 117.112 94.6777 116.934 94.2248C116.054 91.9648 115.686 89.5377 115.85 87.1205C115.887 86.562 115.953 86.0048 116.049 85.4505C116.792 81.0905 119.186 77.282 122.794 74.7234C126.402 72.1662 130.787 71.1634 135.149 71.9077C139.509 72.6491 143.317 75.0448 145.876 78.6534C148.103 81.7934 149.149 85.5248 148.893 89.3148C148.854 89.8777 148.789 90.442 148.693 91.0062C147.256 99.4462 139.63 105.315 131.266 104.748L131.259 104.745Z" fill="url(#paint3_linear_867_4630)"/>
<path d="M180.797 303.901L172.704 359.74H266.581L254.354 303.901H180.797Z" fill="#FE7D73"/>
<path d="M23.1014 125.107V291.309C23.1014 304.981 33.9972 316.161 47.6643 316.514C108.369 318.08 320.686 321.876 378.471 321.023C388.403 320.877 396.45 312.929 396.736 303C397.85 264.389 399.66 171.543 392.963 128.439C391.553 119.361 383.89 112.573 374.709 112.28C323.846 110.653 98.7772 105.486 41.0172 106.783C31.0557 107.007 23.1014 115.144 23.1014 125.107Z" fill="#FE7D73"/>
<path d="M33.53 124.299V282.201C33.53 290.184 39.9371 296.688 47.92 296.807L370.159 300.789C378.071 300.907 384.559 294.54 384.587 286.626L385.126 130.134C385.147 124.476 380.639 119.838 374.981 119.701L45.0686 113.036C38.7414 112.881 33.5286 117.969 33.5286 124.299H33.53Z" fill="#EB5454"/>
<path d="M387.013 307.26H387.006L33.5229 301.237C33.2757 301.233 33.08 301.03 33.0843 300.783C33.0886 300.536 33.2943 300.347 33.5386 300.343L387.021 306.366C387.269 306.37 387.464 306.573 387.46 306.82C387.456 307.064 387.257 307.26 387.013 307.26Z" fill="#C13030"/>
<path d="M286.801 374.588H149.407C145.674 374.588 142.871 371.931 143.593 369.077L145.356 362.104C145.886 360.007 148.193 358.468 150.933 358.383L283.386 354.25C286.249 354.161 288.783 355.68 289.406 357.86L292.584 368.965C293.41 371.851 290.594 374.59 286.801 374.59V374.588Z" fill="#EB5454"/>
<path d="M223.37 360.27C223.126 360.27 222.927 360.074 222.923 359.83C222.92 359.583 223.116 359.38 223.363 359.377L229.039 359.294C229.276 359.294 229.489 359.488 229.491 359.734C229.494 359.981 229.299 360.184 229.051 360.187L223.376 360.27H223.369H223.37Z" fill="#C13030"/>
<path d="M148.681 370.743C148.659 370.743 148.634 370.741 148.61 370.737C148.366 370.699 148.2 370.469 148.24 370.226L149.05 365.154C149.484 362.43 151.803 360.423 154.561 360.383L214.761 359.503H214.769C215.013 359.503 215.211 359.699 215.216 359.943C215.219 360.19 215.023 360.393 214.776 360.396L154.576 361.276C152.251 361.31 150.3 363 149.933 365.294L149.123 370.366C149.087 370.586 148.899 370.743 148.683 370.743H148.681Z" fill="#C13030"/>
<g opacity="0.53">
<path d="M220.902 135.336H212.426V284.827H220.902V135.336Z" fill="#C13030"/>
<path d="M235.063 135.336H226.587V284.827H235.063V135.336Z" fill="#C13030"/>
<path d="M249.224 135.336H240.749V284.827H249.224V135.336Z" fill="#C13030"/>
<path d="M263.386 135.336H254.91V284.827H263.386V135.336Z" fill="#C13030"/>
<path d="M277.547 135.336H269.072V284.827H277.547V135.336Z" fill="#C13030"/>
<path d="M291.71 135.336H283.234V284.827H291.71V135.336Z" fill="#C13030"/>
<path d="M305.871 135.336H297.396V284.827H305.871V135.336Z" fill="#C13030"/>
</g>
<path d="M220.902 206.593H212.426V284.827H220.902V206.593Z" fill="url(#paint4_linear_867_4630)"/>
<path d="M235.063 233.48H226.587V284.828H235.063V233.48Z" fill="url(#paint5_linear_867_4630)"/>
<path d="M249.224 167.028H240.749V284.827H249.224V167.028Z" fill="url(#paint6_linear_867_4630)"/>
<path d="M263.386 256.527H254.91V284.827H263.386V256.527Z" fill="url(#paint7_linear_867_4630)"/>
<path d="M277.547 182.777H269.072V284.827H277.547V182.777Z" fill="url(#paint8_linear_867_4630)"/>
<path d="M291.71 200.447H283.234V284.827H291.71V200.447Z" fill="url(#paint9_linear_867_4630)"/>
<path d="M305.871 219.653H297.396V284.828H305.871V219.653Z" fill="url(#paint10_linear_867_4630)"/>
<path d="M188.836 285.655L56.7585 284.662C54.1528 284.642 52.0514 282.525 52.0514 279.919V212.06C52.0514 209.44 54.1757 207.317 56.7943 207.317H188.871C191.491 207.317 193.614 209.442 193.614 212.06V280.912C193.614 283.545 191.469 285.675 188.836 285.655Z" fill="#C13030"/>
<path opacity="0.44" d="M168.35 237.956L151.366 220L127.013 246.487L109.83 227.946L93.7143 246.163L81.3557 231.149L57 256.506V274.843C57 277.266 58.9543 279.236 61.3786 279.254L184.22 280.177C186.67 280.196 188.664 278.216 188.664 275.766V225.881L168.349 237.956H168.35Z" fill="white"/>
<path d="M168.901 237.456H168.454V280.176H168.901V237.456Z" fill="white"/>
<path d="M151.59 219.999H151.143V279.929H151.59V219.999Z" fill="white"/>
<path d="M127.237 246.163H126.79V279.747H127.237V246.163Z" fill="white"/>
<path d="M110.51 228.602H110.063V279.746H110.51V228.602Z" fill="white"/>
<path d="M93.9386 245.619H93.4915V279.748H93.9386V245.619Z" fill="white"/>
<path d="M81.8414 229.876H81.3943V279.42H81.8414V229.876Z" fill="white"/>
<path d="M84.2567 232.514C85.714 231.056 85.714 228.694 84.2567 227.236C82.7995 225.779 80.4369 225.779 78.9797 227.236C77.5225 228.694 77.5225 231.056 78.9797 232.514C80.4369 233.971 82.7995 233.971 84.2567 232.514Z" fill="url(#paint11_linear_867_4630)"/>
<path d="M96.1728 245.619C96.1728 246.976 95.0713 248.077 93.7142 248.077C92.357 248.077 91.2556 246.976 91.2556 245.619C91.2556 244.262 92.3556 243.16 93.7142 243.16C95.0728 243.16 96.1728 244.26 96.1728 245.619Z" fill="#FE7D73"/>
<path d="M112.746 228.602C112.746 229.959 111.646 231.061 110.287 231.061C108.928 231.061 107.828 229.961 107.828 228.602C107.828 227.244 108.93 226.144 110.287 226.144C111.644 226.144 112.746 227.244 112.746 228.602Z" fill="#FE7D73"/>
<path d="M129.473 246.163C129.473 247.52 128.371 248.621 127.014 248.621C125.657 248.621 124.556 247.52 124.556 246.163C124.556 244.806 125.656 243.704 127.014 243.704C128.373 243.704 129.473 244.804 129.473 246.163Z" fill="#FE7D73"/>
<path d="M153.824 219.999C153.824 221.356 152.724 222.457 151.366 222.457C150.007 222.457 148.907 221.357 148.907 219.999C148.907 218.64 150.007 217.54 151.366 217.54C152.724 217.54 153.824 218.64 153.824 219.999Z" fill="#FE7D73"/>
<path d="M171.136 237.456C171.136 238.813 170.036 239.914 168.677 239.914C167.319 239.914 166.219 238.814 166.219 237.456C166.219 236.097 167.319 234.997 168.677 234.997C170.036 234.997 171.136 236.097 171.136 237.456Z" fill="url(#paint12_linear_867_4630)"/>
<g opacity="0.48">
<path d="M90.2158 196.019H54.0101C52.4958 196.019 51.2672 196.874 51.2672 197.929C51.2672 198.983 52.4944 199.839 54.0101 199.839H90.2158C91.7301 199.839 92.9586 198.983 92.9586 197.929C92.9586 196.874 91.7315 196.019 90.2158 196.019Z" fill="white"/>
<path d="M90.2158 187.562H54.0101C52.4958 187.562 51.2672 188.418 51.2672 189.473C51.2672 190.527 52.4944 191.383 54.0101 191.383H90.2158C91.7301 191.383 92.9586 190.527 92.9586 189.473C92.9586 188.418 91.7315 187.562 90.2158 187.562Z" fill="#C13030"/>
<path d="M90.2158 179.105H54.0101C52.4958 179.105 51.2672 179.961 51.2672 181.015C51.2672 182.07 52.4944 182.925 54.0101 182.925H90.2158C91.7301 182.925 92.9586 182.07 92.9586 181.015C92.9586 179.961 91.7315 179.105 90.2158 179.105Z" fill="#C13030"/>
</g>
<g opacity="0.48">
<path d="M140.544 196.019H104.339C102.824 196.019 101.596 196.874 101.596 197.929C101.596 198.983 102.823 199.839 104.339 199.839H140.544C142.059 199.839 143.287 198.983 143.287 197.929C143.287 196.874 142.06 196.019 140.544 196.019Z" fill="#C13030"/>
<path d="M140.544 187.562H104.339C102.824 187.562 101.596 188.418 101.596 189.473C101.596 190.527 102.823 191.383 104.339 191.383H140.544C142.059 191.383 143.287 190.527 143.287 189.473C143.287 188.418 142.06 187.562 140.544 187.562Z" fill="#C13030"/>
<path d="M140.544 179.105H104.339C102.824 179.105 101.596 179.961 101.596 181.015C101.596 182.07 102.823 182.925 104.339 182.925H140.544C142.059 182.925 143.287 182.07 143.287 181.015C143.287 179.961 142.06 179.105 140.544 179.105Z" fill="#C13030"/>
</g>
<g opacity="0.48">
<path d="M190.873 196.019H154.667C153.153 196.019 151.924 196.874 151.924 197.929C151.924 198.983 153.151 199.839 154.667 199.839H190.873C192.387 199.839 193.616 198.983 193.616 197.929C193.616 196.874 192.389 196.019 190.873 196.019Z" fill="#C13030"/>
<path d="M190.873 187.562H154.667C153.153 187.562 151.924 188.418 151.924 189.473C151.924 190.527 153.151 191.383 154.667 191.383H190.873C192.387 191.383 193.616 190.527 193.616 189.473C193.616 188.418 192.389 187.562 190.873 187.562Z" fill="#C13030"/>
<path d="M190.873 179.105H154.667C153.153 179.105 151.924 179.961 151.924 181.015C151.924 182.07 153.151 182.925 154.667 182.925H190.873C192.387 182.925 193.616 182.07 193.616 181.015C193.616 179.961 192.389 179.105 190.873 179.105Z" fill="#C13030"/>
</g>
<path opacity="0.91" d="M344.059 220.719C353.311 220.719 360.811 213.218 360.811 203.966C360.811 194.713 353.311 187.213 344.059 187.213C334.806 187.213 327.306 194.713 327.306 203.966C327.306 213.218 334.806 220.719 344.059 220.719Z" fill="white"/>
<path d="M354.013 200.425C354.531 201.687 354.819 203.067 354.819 204.514C354.819 210.457 350 215.275 344.057 215.275C338.114 215.275 333.296 210.458 333.296 204.514C333.296 198.57 338.113 193.753 344.057 193.753C344.239 193.753 344.42 193.757 344.6 193.767V191.04C344.42 191.033 344.239 191.028 344.057 191.028C336.609 191.028 330.57 197.067 330.57 204.515C330.57 211.964 336.609 218.003 344.057 218.003C351.506 218.003 357.544 211.964 357.544 204.515C357.544 202.681 357.177 200.933 356.514 199.34L354.011 200.427L354.013 200.425Z" fill="url(#paint13_linear_867_4630)"/>
<path d="M357.829 227.815H330.529C328.814 227.815 327.426 229.204 327.426 230.918C327.426 232.633 328.814 234.021 330.529 234.021H357.829C359.541 234.021 360.931 232.633 360.931 230.918C360.931 229.204 359.543 227.815 357.829 227.815Z" fill="#C13030"/>
<path opacity="0.91" d="M343.986 166.874C353.238 166.874 360.739 159.373 360.739 150.121C360.739 140.869 353.238 133.368 343.986 133.368C334.733 133.368 327.233 140.869 327.233 150.121C327.233 159.373 334.733 166.874 343.986 166.874Z" fill="white"/>
<path d="M349.681 159.774C348.021 160.821 346.056 161.431 343.947 161.431C338.004 161.431 333.186 156.614 333.186 150.669C333.186 144.725 338.003 139.908 343.947 139.908C344.129 139.908 344.31 139.912 344.49 139.922V137.195C344.31 137.188 344.129 137.184 343.947 137.184C336.499 137.184 330.46 143.222 330.46 150.671C330.46 158.119 336.499 164.158 343.947 164.158C346.547 164.158 348.974 163.422 351.033 162.148L349.68 159.776L349.681 159.774Z" fill="url(#paint14_linear_867_4630)"/>
<path d="M357.9 173.97H330.6C328.887 173.97 327.497 175.358 327.497 177.073C327.497 178.787 328.886 180.175 330.6 180.175H357.9C359.614 180.175 361.003 178.787 361.003 177.073C361.003 175.358 359.614 173.97 357.9 173.97Z" fill="#C13030"/>
<path opacity="0.91" d="M360.844 259.011C361.356 249.773 354.282 241.869 345.044 241.358C335.805 240.846 327.902 247.92 327.39 257.159C326.878 266.397 333.953 274.301 343.191 274.812C352.429 275.324 360.333 268.25 360.844 259.011Z" fill="white"/>
<path d="M353.241 264.135C351.304 266.978 348.041 268.847 344.343 268.847C338.4 268.847 333.581 264.03 333.581 258.085C333.581 252.141 338.399 247.324 344.343 247.324C344.524 247.324 344.706 247.328 344.886 247.338V244.611C344.706 244.604 344.524 244.6 344.343 244.6C336.894 244.6 330.856 250.638 330.856 258.087C330.856 265.535 336.894 271.574 344.343 271.574C348.95 271.574 353.019 269.262 355.451 265.737L353.243 264.138L353.241 264.135Z" fill="url(#paint15_linear_867_4630)"/>
<path d="M330.469 287.592H357.769C359.481 287.592 360.871 286.204 360.871 284.49C360.871 282.775 359.483 281.387 357.769 281.387H330.469C328.754 281.387 327.366 282.775 327.366 284.49C327.366 286.204 328.754 287.592 330.469 287.592Z" fill="#C13030"/>
<path d="M382.621 24.9744L224.104 24.213C222.194 24.1959 220.643 26.3087 220.657 28.9087L221.009 91.6259C221.023 94.2401 222.616 96.3273 224.536 96.2487L382.15 92.873C383.983 92.7987 385.449 90.7701 385.471 88.2744L386.024 29.6944C386.049 27.1101 384.523 24.9916 382.623 24.9744H382.621Z" fill="#FE7D73"/>
<path d="M224.434 92.2259C224.141 92.2259 223.913 91.9487 223.911 91.5944L223.56 28.8787C223.56 28.7144 223.603 28.5702 223.691 28.4487C223.818 28.2744 223.974 28.2373 224.083 28.2373L382.601 29.0002C382.71 29.0002 382.863 29.0387 382.99 29.213C383.077 29.3344 383.121 29.4787 383.12 29.6416L382.567 88.2202C382.564 88.5673 382.347 88.8373 382.064 88.8487H382.06L224.434 92.2244V92.2259ZM224.081 28.6444C224.071 28.6444 224.051 28.6444 224.02 28.6887C223.984 28.7387 223.966 28.8002 223.967 28.8759L224.318 91.5916C224.318 91.7302 224.393 91.8187 224.431 91.8187L382.053 88.443C382.094 88.4402 382.161 88.3487 382.161 88.2173L382.714 29.6387C382.714 29.563 382.697 29.5016 382.661 29.4516C382.628 29.4073 382.609 29.4073 382.6 29.4073L224.083 28.6444H224.081Z" fill="url(#paint16_linear_867_4630)"/>
<g opacity="0.6">
<path d="M238.246 57.3838H230.531V86.8638H238.246V57.3838Z" fill="white"/>
<path d="M251.136 67.5146H243.421V86.8618H251.136V67.5146Z" fill="white"/>
<path d="M264.026 42.4766H256.311V86.8637H264.026V42.4766Z" fill="white"/>
<path d="M276.916 76.1992H269.201V86.8621H276.916V76.1992Z" fill="white"/>
<path d="M289.804 48.4102H282.09V86.863H289.804V48.4102Z" fill="white"/>
<path d="M302.694 55.0674H294.98V86.8631H302.694V55.0674Z" fill="white"/>
<path d="M315.584 62.3047H307.87V86.8633H315.584V62.3047Z" fill="white"/>
<path d="M328.474 33.502H320.76V86.8634H328.474V33.502Z" fill="white"/>
<path d="M341.364 39.1465H333.65V86.8622H341.364V39.1465Z" fill="white"/>
<path d="M354.254 47.6865H346.54V86.8637H354.254V47.6865Z" fill="white"/>
<path d="M367.144 77.1895H359.43V86.8637H367.144V77.1895Z" fill="white"/>
<path d="M380.033 58.3965H372.318V86.8622H380.033V58.3965Z" fill="white"/>
</g>
<path d="M194.473 95.1631L41.6643 94.4288C39.8228 94.4117 38.3271 96.4488 38.3414 98.9545L38.68 159.413C38.6943 161.933 40.2286 163.945 42.08 163.869L194.017 160.615C195.784 160.542 197.196 158.587 197.219 156.182L197.751 99.7117C197.774 97.2202 196.304 95.1788 194.473 95.1617V95.1631Z" fill="#FE7D73"/>
<path d="M41.9829 159.991C41.7 159.991 41.48 159.724 41.4786 159.383L41.14 98.9257C41.14 98.7672 41.1814 98.6286 41.2657 98.5115C41.3886 98.3429 41.5386 98.3086 41.6429 98.3086L194.451 99.0429C194.556 99.0429 194.704 99.08 194.826 99.2486C194.91 99.3657 194.951 99.5043 194.95 99.6615L194.417 156.13C194.414 156.464 194.206 156.724 193.933 156.736H193.929L41.98 159.99L41.9829 159.991ZM41.6429 98.7C41.6329 98.7 41.6143 98.7 41.5829 98.7429C41.5486 98.79 41.5314 98.85 41.5314 98.9243L41.87 159.381C41.87 159.516 41.9414 159.6 41.9786 159.6L193.923 156.346C193.963 156.343 194.027 156.256 194.029 156.129L194.561 99.66C194.561 99.5872 194.546 99.5272 194.51 99.4786C194.479 99.4357 194.46 99.4357 194.451 99.4357L41.6443 98.7015L41.6429 98.7Z" fill="url(#paint17_linear_867_4630)"/>
<path d="M79.944 132.434C86.1221 126.256 86.1221 116.24 79.944 110.062C73.766 103.884 63.7493 103.884 57.5712 110.062C51.3931 116.24 51.3931 126.256 57.5712 132.434C63.7493 138.613 73.766 138.613 79.944 132.434Z" fill="white"/>
<path d="M119.126 132.433C125.304 126.255 125.304 116.239 119.126 110.061C112.948 103.883 102.931 103.883 96.7533 110.061C90.5752 116.239 90.5752 126.255 96.7533 132.433C102.931 138.612 112.948 138.612 119.126 132.433Z" fill="white"/>
<path d="M158.444 132.952C164.622 126.774 164.622 116.757 158.444 110.579C152.266 104.401 142.25 104.401 136.071 110.579C129.893 116.757 129.893 126.774 136.071 132.952C142.25 139.13 152.266 139.13 158.444 132.952Z" fill="white"/>
<path d="M78.1572 117.903C78.6472 119.094 78.9186 120.397 78.9186 121.764C78.9186 127.377 74.3686 131.925 68.7572 131.925C63.1458 131.925 58.5958 127.375 58.5958 121.764C58.5958 116.153 63.1458 111.603 68.7572 111.603C68.9286 111.603 69.1001 111.607 69.2701 111.615V109.04C69.1001 109.033 68.9286 109.028 68.7572 109.028C61.7229 109.028 56.0215 114.731 56.0215 121.764C56.0215 128.797 61.7229 134.5 68.7572 134.5C75.7915 134.5 81.4929 128.797 81.4929 121.764C81.4929 120.033 81.1472 118.381 80.5201 116.875L78.1572 117.903Z" fill="url(#paint18_linear_867_4630)"/>
<path d="M113.319 130.362C111.751 131.352 109.894 131.926 107.904 131.926C102.291 131.926 97.7429 127.376 97.7429 121.765C97.7429 116.154 102.293 111.604 107.904 111.604C108.076 111.604 108.247 111.608 108.417 111.616V109.041C108.247 109.034 108.076 109.029 107.904 109.029C100.87 109.029 95.1686 114.732 95.1686 121.765C95.1686 128.798 100.87 134.501 107.904 134.501C110.359 134.501 112.651 133.805 114.596 132.602L113.319 130.362Z" fill="url(#paint19_linear_867_4630)"/>
<path d="M155.876 127.478C154.047 130.162 150.966 131.926 147.471 131.926C141.859 131.926 137.31 127.376 137.31 121.765C137.31 116.154 141.86 111.604 147.471 111.604C147.643 111.604 147.814 111.608 147.984 111.616V109.041C147.814 109.034 147.643 109.029 147.471 109.029C140.437 109.029 134.736 114.732 134.736 121.765C134.736 128.798 140.439 134.501 147.471 134.501C151.823 134.501 155.664 132.318 157.961 128.988L155.876 127.478Z" fill="url(#paint20_linear_867_4630)"/>
<path opacity="0.5" d="M81.7615 143.769H55.98C54.3615 143.769 53.05 145.08 53.05 146.699C53.05 148.317 54.3615 149.629 55.98 149.629H81.7615C83.38 149.629 84.6915 148.317 84.6915 146.699C84.6915 145.08 83.38 143.769 81.7615 143.769Z" fill="white"/>
<path opacity="0.5" d="M121.08 143.769H95.2987C93.6801 143.769 92.3687 145.08 92.3687 146.699C92.3687 148.317 93.6801 149.629 95.2987 149.629H121.08C122.699 149.629 124.01 148.317 124.01 146.699C124.01 145.08 122.699 143.769 121.08 143.769Z" fill="white"/>
<path opacity="0.5" d="M134.369 149.63H160.15C161.769 149.63 163.08 148.318 163.08 146.7C163.08 145.081 161.769 143.77 160.15 143.77H134.369C132.75 143.77 131.439 145.081 131.439 146.7C131.439 148.318 132.75 149.63 134.369 149.63Z" fill="white"/>
<path d="M63.3943 385.243C63.3943 385.243 62.5143 390.227 62.0829 395.162C61.9143 397.09 63.4014 398.765 65.3343 398.845C71.9043 399.119 85.96 399.65 91.0029 399.426C91.7614 399.392 92.2572 398.616 91.9757 397.91C91.74 397.319 91.2872 396.842 90.7086 396.576L67.4929 385.906L63.3929 385.243H63.3943Z" fill="#FE7D73"/>
<path d="M62.6729 382.315L63.38 388.276C63.38 388.276 67.4471 390.169 70.2243 388.038L68.54 381.394L62.6729 382.314V382.315Z" fill="url(#paint21_linear_867_4630)"/>
<path d="M63.2042 270.226C62.8985 271.783 61.5642 347.922 69.7028 382.042C69.8356 382.599 69.5528 383.172 69.0228 383.389C67.7742 383.899 65.327 384.637 62.3942 384.736C61.4856 384.766 60.6713 384.176 60.4156 383.305C58.0885 375.387 46.9413 335.725 45.487 297.835C43.8628 255.496 45.487 296.393 45.487 296.393L46.4399 270.222L63.2028 270.225L63.2042 270.226Z" fill="url(#paint22_linear_867_4630)"/>
<path d="M36.6871 387.843C36.6871 387.843 35.2856 390.359 33.9285 397.046C33.6828 398.253 34.5271 399.408 35.7528 399.53C37.9228 399.743 41.2628 400.017 43.9385 399.999C45.1713 399.99 46.1342 398.916 45.9856 397.691C45.6899 395.251 44.7656 391.247 41.9142 388.126L36.6871 387.843Z" fill="#FE7D73"/>
<path d="M35.4557 380.175L37.1085 389.19C37.1085 389.19 38.7428 390.406 41.9757 389.525L41.1871 379.823L35.4557 380.173V380.175Z" fill="url(#paint23_linear_867_4630)"/>
<path d="M30.9914 272.562C24.3357 312.733 32.4357 371.849 35.1671 383.419C35.3343 384.128 35.9057 384.671 36.6243 384.789C37.8443 384.992 39.8514 385.156 41.83 384.582C42.5114 384.383 42.9914 383.769 43.0186 383.059C43.3857 373.705 42.7257 316.279 48.9271 293.583C49.2414 292.433 49.9443 291.431 50.9157 290.739L62.9543 282.181L63.8771 268.348L30.9914 272.562Z" fill="url(#paint24_linear_867_4630)"/>
<path d="M73.4057 196.444C53.4586 196.114 31.4471 201.681 31.4471 201.681C25.5014 236.375 30.4071 276.394 30.4071 276.394C45.85 280.444 63.2714 273.918 63.2714 273.918C65.8386 259.417 77.8143 218.604 77.8143 218.604C87.5614 217.394 95.59 214.583 102.201 210.865C97.1586 205.02 94.78 197.581 93.7471 193.183C86.6943 195.374 79.5571 196.545 73.4043 196.444H73.4057Z" fill="url(#paint25_linear_867_4630)"/>
<path d="M132.327 167.063C130.367 164.696 127.887 165.816 127.887 165.816C124.951 178.216 109.56 188.27 93.7471 193.184C94.7799 197.581 97.1571 205.02 102.201 210.867C128.444 196.111 132.328 167.064 132.328 167.064L132.327 167.063Z" fill="url(#paint26_linear_867_4630)"/>
<path d="M131.851 167.665C132.057 168.316 129.681 169.309 128.284 166.643C128.236 165.366 127.459 159.892 128.221 158.85C132.287 153.306 140.171 146.357 140.171 146.357C141.504 147.672 140.406 148.963 140.406 148.963L136.581 152.947C137.381 154.393 138.357 155.613 138.814 157.362C139.16 158.686 138.949 160.1 138.28 161.306C137.609 162.516 136.693 164.087 135.827 165.317C134.189 167.646 131.851 167.663 131.851 167.663V167.665Z" fill="url(#paint27_linear_867_4630)"/>
<path d="M134.91 155.533L131.424 158.487L130.33 161.429L133.437 164.876C133.437 164.876 134.481 159.04 135.259 157.776C136.036 156.513 135.633 155.902 134.909 155.533H134.91Z" fill="url(#paint28_linear_867_4630)"/>
<path d="M39.0986 220.997L31.4471 201.682C31.4471 201.682 12.8143 214.342 9.75 230.393C13.27 230.652 19.6771 231.567 25.9471 234.734C27.3257 227.156 39.0971 220.997 39.0971 220.997H39.0986Z" fill="url(#paint29_linear_867_4630)"/>
<path d="M55.3814 239.174C55.3814 239.174 34.4614 250.996 27.4028 240.901C25.9371 238.805 25.5871 236.721 25.9485 234.735C19.6785 231.569 13.2714 230.654 9.75137 230.394C8.82709 235.232 9.31566 240.379 12.1599 245.581C24.5242 268.198 58.1514 244.331 58.1514 244.331L55.3828 239.174H55.3814Z" fill="url(#paint30_linear_867_4630)"/>
<path d="M52.8671 254.13L64.2842 214.258C64.4142 213.805 64.8 213.475 65.2671 213.421C67.3357 213.18 73.33 212.503 80.25 211.917C88.5857 211.211 98.2671 210.64 104.051 211.127C104.874 211.195 105.371 212.065 105.006 212.805C101.716 219.461 88.1842 246.533 81.4085 255.401C81.1842 255.695 80.8371 255.867 80.4671 255.864L53.9771 255.617C53.2057 255.61 52.6542 254.87 52.8671 254.13Z" fill="#EB5454"/>
<path d="M81.4357 208.46L89.7129 207.082C90.1543 207.009 90.5143 207.429 90.3743 207.854L89.5543 210.337C89.4829 210.553 89.2943 210.71 89.0686 210.74L81.1028 211.804C80.69 211.86 80.3514 211.484 80.4457 211.08L80.9529 208.913C81.0071 208.68 81.1971 208.502 81.4343 208.463L81.4357 208.46Z" fill="#FE7D73"/>
<path d="M75.2371 215.469L75.9185 211.918C75.9871 211.562 76.2814 211.292 76.6414 211.256L93.3599 209.559C93.9228 209.502 94.3728 210.018 94.2414 210.568L93.1785 214.993C93.0928 215.348 92.7857 215.603 92.4214 215.622L76.0842 216.445C75.5528 216.472 75.1357 215.993 75.2371 215.47V215.469Z" fill="#FE7D73"/>
<path d="M55.6257 244.497C55.6257 244.497 54.0357 237.957 54.6771 235.637C55.3185 233.317 56.5614 230.334 60.7043 230.997C64.8471 231.66 69.7343 233.406 69.7343 233.406C69.7343 233.406 69.4871 236.427 66.3385 235.453L68.2914 236.964C68.2914 236.964 68.0128 239.384 65.3528 238.092L67.1685 240.096C67.1685 240.096 66.0257 242.083 64.07 240.809C62.1128 239.534 61.1757 245.287 55.6257 244.499V244.497Z" fill="url(#paint31_linear_867_4630)"/>
<path d="M53.2 180.25L46.8528 198.606C46.7471 198.91 46.8728 199.247 47.1543 199.403C48.8843 200.36 55.1171 203.124 62.63 198.361C63.4128 197.866 63.9457 197.056 64.0643 196.137L66.12 180.25H53.2014H53.2Z" fill="url(#paint32_linear_867_4630)"/>
<path d="M67.01 163.253C67.01 163.253 73.98 176.373 73.0857 181.673C72.1928 186.973 63.5543 186.592 56.0114 182.288L50.74 168.121L67.0086 163.252L67.01 163.253Z" fill="url(#paint33_linear_867_4630)"/>
<path d="M56.3457 175.331C56.6528 175.195 56.7657 174.819 56.5814 174.539C56.0228 173.686 54.9756 171.946 54.6428 170.422C54.6428 170.422 53.3899 169.619 57.8314 168.556C62.2728 167.494 68.8971 165.844 70.2899 162.062C71.6471 158.376 68.0814 149.105 62.3899 156.492C62.1728 156.773 61.7499 156.779 61.5328 156.498C60.5999 155.284 58.1471 152.764 54.7428 154.292C51.5571 155.722 51.1971 158.056 51.2414 159.234C51.2542 159.579 50.9442 159.849 50.6042 159.784C48.9928 159.476 45.1271 159.212 43.3228 163.178C41.8371 166.445 42.8028 168.294 43.6828 169.198C43.9685 169.491 43.8428 169.974 43.4528 170.094C42.3942 170.418 41.0271 171.315 41.1642 173.796C41.3542 177.225 45.1871 176.924 46.2799 176.768C46.4585 176.742 46.6385 176.804 46.7599 176.938C47.6957 177.974 51.9128 182.372 56.4771 182.902C56.8728 182.948 57.1785 182.558 57.0485 182.182L55.0728 176.441C54.9814 176.174 55.1085 175.882 55.3671 175.768L56.3471 175.333L56.3457 175.331Z" fill="#EB5454"/>
<path d="M57.14 176.145C57.14 176.145 52.1771 172.74 51.8143 175.608C51.4514 178.475 56.2828 179.76 58.6757 178.692L57.1386 176.145H57.14Z" fill="url(#paint34_linear_867_4630)"/>
</g>
<defs>
<linearGradient id="paint0_linear_867_4630" x1="192.71" y1="59.411" x2="212.229" y2="59.411" gradientUnits="userSpaceOnUse">
<stop stop-color="#DAE3FE"/>
<stop offset="1" stop-color="#E9EFFD"/>
</linearGradient>
<linearGradient id="paint1_linear_867_4630" x1="178.629" y1="59.28" x2="226.63" y2="59.28" gradientUnits="userSpaceOnUse">
<stop stop-color="#DAE3FE"/>
<stop offset="1" stop-color="#E9EFFD"/>
</linearGradient>
<linearGradient id="paint2_linear_867_4630" x1="125.613" y1="88.315" x2="138.909" y2="88.315" gradientUnits="userSpaceOnUse">
<stop stop-color="#DAE3FE"/>
<stop offset="1" stop-color="#E9EFFD"/>
</linearGradient>
<linearGradient id="paint3_linear_867_4630" x1="115.809" y1="88.2234" x2="148.926" y2="88.2234" gradientUnits="userSpaceOnUse">
<stop stop-color="#DAE3FE"/>
<stop offset="1" stop-color="#E9EFFD"/>
</linearGradient>
<linearGradient id="paint4_linear_867_4630" x1="138.3" y1="364.407" x2="269.34" y2="165.92" gradientUnits="userSpaceOnUse">
<stop stop-color="#FF928E"/>
<stop offset="1" stop-color="#FE7062"/>
</linearGradient>
<linearGradient id="paint5_linear_867_4630" x1="154.344" y1="375" x2="285.383" y2="176.513" gradientUnits="userSpaceOnUse">
<stop stop-color="#FF928E"/>
<stop offset="1" stop-color="#FE7062"/>
</linearGradient>
<linearGradient id="paint6_linear_867_4630" x1="148.93" y1="371.424" x2="279.97" y2="172.938" gradientUnits="userSpaceOnUse">
<stop stop-color="#FF928E"/>
<stop offset="1" stop-color="#FE7062"/>
</linearGradient>
<linearGradient id="paint7_linear_867_4630" x1="179.369" y1="391.52" x2="310.409" y2="193.035" gradientUnits="userSpaceOnUse">
<stop stop-color="#FF928E"/>
<stop offset="1" stop-color="#FE7062"/>
</linearGradient>
<linearGradient id="paint8_linear_867_4630" x1="172.276" y1="386.839" x2="303.316" y2="188.352" gradientUnits="userSpaceOnUse">
<stop stop-color="#FF928E"/>
<stop offset="1" stop-color="#FE7062"/>
</linearGradient>
<linearGradient id="paint9_linear_867_4630" x1="186.202" y1="396.032" x2="317.242" y2="197.545" gradientUnits="userSpaceOnUse">
<stop stop-color="#FF928E"/>
<stop offset="1" stop-color="#FE7062"/>
</linearGradient>
<linearGradient id="paint10_linear_867_4630" x1="200.48" y1="405.458" x2="331.518" y2="206.972" gradientUnits="userSpaceOnUse">
<stop stop-color="#FF928E"/>
<stop offset="1" stop-color="#FE7062"/>
</linearGradient>
<linearGradient id="paint11_linear_867_4630" x1="84.7389" y1="220.438" x2="69.0789" y2="267.78" gradientUnits="userSpaceOnUse">
<stop stop-color="#FDF53F"/>
<stop offset="1" stop-color="#D93C65"/>
</linearGradient>
<linearGradient id="paint12_linear_867_4630" x1="170.733" y1="231.24" x2="160.417" y2="262.426" gradientUnits="userSpaceOnUse">
<stop stop-color="#FF928E"/>
<stop offset="1" stop-color="#FE7062"/>
</linearGradient>
<linearGradient id="paint13_linear_867_4630" x1="366.873" y1="182.863" x2="308.464" y2="238.294" gradientUnits="userSpaceOnUse">
<stop stop-color="#FF928E"/>
<stop offset="1" stop-color="#FE7062"/>
</linearGradient>
<linearGradient id="paint14_linear_867_4630" x1="363.004" y1="132.388" x2="311.154" y2="181.595" gradientUnits="userSpaceOnUse">
<stop stop-color="#FF928E"/>
<stop offset="1" stop-color="#FE7062"/>
</linearGradient>
<linearGradient id="paint15_linear_867_4630" x1="363.497" y1="239.907" x2="311.647" y2="289.114" gradientUnits="userSpaceOnUse">
<stop stop-color="#FF928E"/>
<stop offset="1" stop-color="#FE7062"/>
</linearGradient>
<linearGradient id="paint16_linear_867_4630" x1="223.56" y1="60.2316" x2="383.119" y2="60.2316" gradientUnits="userSpaceOnUse">
<stop stop-color="#DAE3FE"/>
<stop offset="1" stop-color="#E9EFFD"/>
</linearGradient>
<linearGradient id="paint17_linear_867_4630" x1="41.14" y1="129.15" x2="194.953" y2="129.15" gradientUnits="userSpaceOnUse">
<stop stop-color="#DAE3FE"/>
<stop offset="1" stop-color="#E9EFFD"/>
</linearGradient>
<linearGradient id="paint18_linear_867_4630" x1="90.3029" y1="101.318" x2="35.1444" y2="153.664" gradientUnits="userSpaceOnUse">
<stop stop-color="#FF928E"/>
<stop offset="1" stop-color="#FE7062"/>
</linearGradient>
<linearGradient id="paint19_linear_867_4630" x1="125.9" y1="104.501" x2="76.9357" y2="150.969" gradientUnits="userSpaceOnUse">
<stop stop-color="#FF928E"/>
<stop offset="1" stop-color="#FE7062"/>
</linearGradient>
<linearGradient id="paint20_linear_867_4630" x1="165.56" y1="104.598" x2="116.596" y2="151.066" gradientUnits="userSpaceOnUse">
<stop stop-color="#FF928E"/>
<stop offset="1" stop-color="#FE7062"/>
</linearGradient>
<linearGradient id="paint21_linear_867_4630" x1="62.6729" y1="385.224" x2="70.2243" y2="385.224" gradientUnits="userSpaceOnUse">
<stop stop-color="#FEBBBA"/>
<stop offset="1" stop-color="#FF928E"/>
</linearGradient>
<linearGradient id="paint22_linear_867_4630" x1="44.7656" y1="327.48" x2="69.7356" y2="327.48" gradientUnits="userSpaceOnUse">
<stop stop-color="#E1473D"/>
<stop offset="1" stop-color="#E9605A"/>
</linearGradient>
<linearGradient id="paint23_linear_867_4630" x1="35.4557" y1="384.835" x2="41.9771" y2="384.835" gradientUnits="userSpaceOnUse">
<stop stop-color="#FEBBBA"/>
<stop offset="1" stop-color="#FF928E"/>
</linearGradient>
<linearGradient id="paint24_linear_867_4630" x1="28.4286" y1="326.663" x2="63.8771" y2="326.663" gradientUnits="userSpaceOnUse">
<stop stop-color="#E1473D"/>
<stop offset="1" stop-color="#E9605A"/>
</linearGradient>
<linearGradient id="paint25_linear_867_4630" x1="2.46571" y1="271.074" x2="84.3657" y2="210.373" gradientUnits="userSpaceOnUse">
<stop stop-color="#FF928E"/>
<stop offset="1" stop-color="#FE7062"/>
</linearGradient>
<linearGradient id="paint26_linear_867_4630" x1="93.7471" y1="188.208" x2="132.327" y2="188.208" gradientUnits="userSpaceOnUse">
<stop stop-color="#FEBBBA"/>
<stop offset="1" stop-color="#FF928E"/>
</linearGradient>
<linearGradient id="paint27_linear_867_4630" x1="123.733" y1="181.742" x2="97.8442" y2="240.643" gradientUnits="userSpaceOnUse">
<stop stop-color="#FEBBBA"/>
<stop offset="1" stop-color="#FF928E"/>
</linearGradient>
<linearGradient id="paint28_linear_867_4630" x1="132.143" y1="162.126" x2="142.944" y2="145.517" gradientUnits="userSpaceOnUse">
<stop stop-color="#FEBBBA"/>
<stop offset="1" stop-color="#FF928E"/>
</linearGradient>
<linearGradient id="paint29_linear_867_4630" x1="-13.5286" y1="249.494" x2="68.3714" y2="188.792" gradientUnits="userSpaceOnUse">
<stop stop-color="#FF928E"/>
<stop offset="1" stop-color="#FE7062"/>
</linearGradient>
<linearGradient id="paint30_linear_867_4630" x1="9.32566" y1="242.856" x2="58.1499" y2="242.856" gradientUnits="userSpaceOnUse">
<stop stop-color="#FEBBBA"/>
<stop offset="1" stop-color="#FF928E"/>
</linearGradient>
<linearGradient id="paint31_linear_867_4630" x1="54.5243" y1="237.737" x2="69.7357" y2="237.737" gradientUnits="userSpaceOnUse">
<stop stop-color="#FEBBBA"/>
<stop offset="1" stop-color="#FF928E"/>
</linearGradient>
<linearGradient id="paint32_linear_867_4630" x1="46.8157" y1="190.661" x2="66.1186" y2="190.661" gradientUnits="userSpaceOnUse">
<stop stop-color="#FEBBBA"/>
<stop offset="1" stop-color="#FF928E"/>
</linearGradient>
<linearGradient id="paint33_linear_867_4630" x1="70.6717" y1="178.356" x2="49.4462" y2="165.409" gradientUnits="userSpaceOnUse">
<stop stop-color="#FEBBBA"/>
<stop offset="1" stop-color="#FF928E"/>
</linearGradient>
<linearGradient id="paint34_linear_867_4630" x1="65.0958" y1="183.183" x2="46.0003" y2="171.535" gradientUnits="userSpaceOnUse">
<stop stop-color="#FEBBBA"/>
<stop offset="1" stop-color="#FF928E"/>
</linearGradient>
<clipPath id="clip0_867_4630">
<rect width="397.827" height="400" fill="white"/>
</clipPath>
</defs>
</svg>
