<svg width="83" height="71" viewBox="0 0 83 71" fill="none" xmlns="http://www.w3.org/2000/svg">
<rect x="0.5" y="1.4375" width="82" height="69" rx="5.5" fill="#F7F9FA" stroke="#EFEFEF"/>
<path d="M46.24 40.32C46.28 40.16 46.4 40 46.6 39.92C46.76 39.84 46.96 39.88 47.12 39.96C48.72 40.88 50.72 40.64 52.04 39.36C53.36 38.04 53.6 36.04 52.64 34.44C52.56 34.28 52.52 34.08 52.6 33.92C52.68 33.76 52.8 33.64 53 33.56C54.8 33.08 56.04 31.48 56.04 29.64C56.04 27.8 54.8 26.2 53 25.72C52.84 25.68 52.68 25.56 52.6 25.36C52.52 25.2 52.56 25 52.64 24.84C53.56 23.24 53.32 21.24 52.04 19.92C50.68 18.72 48.68 18.44 47.08 19.4C46.92 19.48 46.72 19.52 46.56 19.44C46.4 19.36 46.28 19.24 46.2 19.04C45.72 17.24 44.12 16 42.28 16C40.44 16 38.84 17.24 38.36 19.04C38.32 19.2 38.2 19.36 38 19.44C37.92 19.48 37.72 19.48 37.56 19.4C35.96 18.48 33.96 18.72 32.64 20C31.32 21.32 31.08 23.32 32.04 24.92C32.12 25.08 32.16 25.28 32.08 25.44C32 25.6 31.88 25.72 31.68 25.8C29.88 26.28 28.64 27.88 28.64 29.72C28.64 31.56 29.88 33.16 31.68 33.64C31.84 33.68 32 33.8 32.08 34C32.16 34.16 32.12 34.36 32.04 34.52C31.12 36.12 31.36 38.12 32.64 39.44C33.96 40.76 35.96 41 37.56 40.04C37.64 40 37.76 39.96 37.84 39.96C37.92 39.96 38 39.96 38.08 40C38.24 40.08 38.36 40.2 38.44 40.4C38.92 42.2 40.52 43.44 42.36 43.44C44.16 43.36 45.76 42.12 46.24 40.32ZM33.92 29.68C33.92 25.04 37.68 21.28 42.36 21.28C47 21.28 50.76 25.04 50.76 29.68C50.76 34.32 47 38.08 42.36 38.08C37.68 38.12 33.92 34.32 33.92 29.68ZM42.32 22.44C38.32 22.44 35.08 25.68 35.08 29.68C35.08 33.68 38.32 36.92 42.32 36.92C46.32 36.92 49.56 33.68 49.56 29.68C49.56 25.68 46.32 22.44 42.32 22.44ZM46.8 29.24L44.6 30.84L45.44 33.44C45.52 33.68 45.44 33.96 45.24 34.08C45.12 34.16 45 34.2 44.88 34.2C44.76 34.2 44.64 34.16 44.52 34.08L42.32 32.48L40.12 34.08C39.92 34.24 39.64 34.24 39.44 34.08C39.24 33.92 39.16 33.68 39.24 33.44L40.08 30.84L37.88 29.24C37.68 29.08 37.6 28.84 37.68 28.6C37.76 28.36 38 28.2 38.24 28.2H40.96L41.8 25.6C41.88 25.36 42.12 25.2 42.36 25.2C42.48 25.2 42.6 25.24 42.72 25.32C42.8 25.4 42.88 25.48 42.92 25.6L43.76 28.2H46.48C46.72 28.2 46.96 28.36 47.04 28.6C47.08 28.8 47 29.08 46.8 29.24ZM43.28 29.36H44.64L43.56 30.16C43.36 30.32 43.28 30.56 43.36 30.8L43.76 32.08L42.68 31.28C42.48 31.12 42.2 31.12 42 31.28L40.92 32.08L41.36 30.8C41.44 30.56 41.36 30.28 41.16 30.16L40.08 29.36H41.44C41.68 29.36 41.92 29.2 42 28.96L42.4 27.68L42.8 28.96C42.8 29.2 43.04 29.36 43.28 29.36ZM36.68 41.56L31.56 50.48L27 51.68L33.08 41.12C34.2 41.68 35.48 41.84 36.68 41.56ZM40.36 44.16L33.76 55.6L32.56 51.04L37.8 41.92C38.4 42.96 39.32 43.72 40.36 44.16ZM46.88 41.84L52.12 50.92L50.84 55.64L44.28 44.16C45.36 43.72 46.32 42.88 46.88 41.84ZM57.64 51.68L53.24 50.52L48.12 41.6C49.28 41.84 50.48 41.68 51.56 41.12L57.64 51.68Z" fill="#EB5454"/>
</svg>
