<svg width="58" height="24" viewBox="0 0 58 24" fill="none" xmlns="http://www.w3.org/2000/svg">
<path d="M13.1334 6.57227H1.79026C0.800637 6.57227 0 7.3729 0 8.36253C0 9.35215 0.800637 10.1528 1.79026 10.1528H13.1334C14.123 10.1528 14.9236 9.35215 14.9236 8.36253C14.9236 7.3729 14.123 6.57227 13.1334 6.57227Z" fill="#ffffff"/>
<path d="M13.1309 13.8496H7.75511C6.76548 13.8496 5.96484 14.6502 5.96484 15.6399C5.96484 16.6295 6.76548 17.4301 7.75511 17.4301H13.1309C14.1205 17.4301 14.9211 16.6295 14.9211 15.6399C14.9211 14.6502 14.1205 13.8496 13.1309 13.8496Z" fill="#ffffff"/>
<path d="M20.1557 2.41699C20.1483 2.50402 20.1035 2.5811 20.1035 2.66813V21.3289C20.1035 21.4109 20.1433 21.4805 20.1483 21.5601L30.9917 11.9993L20.1557 2.41699Z" fill="#ffffff"/>
<path d="M57.4906 12.0001V2.67106C57.4906 2.58155 57.4483 2.50695 57.4384 2.41992L46.6045 12.0004L57.4428 21.5612C57.4503 21.4817 57.4901 21.412 57.4901 21.33L57.4906 12.0001Z" fill="#ffffff"/>
<path d="M39.3781 13.6085L54.7696 0H22.8281L38.2196 13.6085C38.5503 13.9019 39.0449 13.9019 39.3781 13.6085Z" fill="#ffffff"/>
<path d="M43.8954 14.3926L41.747 16.2923C40.9066 17.0357 39.8523 17.4087 38.7981 17.4087C37.7439 17.4087 36.6871 17.0357 35.8467 16.2923L33.6983 14.3926L22.8027 24.0005H54.7938L43.8954 14.3926Z" fill="#ffffff"/>
</svg>
