<svg width="263" height="50" viewBox="0 0 263 50" fill="none" xmlns="http://www.w3.org/2000/svg">
<g opacity="0.2">
<path fill-rule="evenodd" clip-rule="evenodd" d="M22.7814 34.4191L30.1089 41.9062L23.9963 48.4169C22.0141 50.528 18.7997 50.528 16.8175 48.4169L1.56281 32.1696C-0.419374 30.0578 -0.419374 26.6349 1.56281 24.5238C3.54563 22.4126 6.75938 22.4126 8.74156 24.5238L20.4069 36.9481L22.7814 34.4191ZM24.6861 32.3904L31.1763 25.478L38.3544 33.1238L32.3783 39.4891L24.6861 32.3904Z" fill="#797979"/>
<path fill-rule="evenodd" clip-rule="evenodd" d="M54.0515 39.3431L46.4029 32.1976L64.3767 13.0544C66.3589 10.9432 69.5726 10.9432 71.5555 13.0544C73.5376 15.1655 73.5376 18.5884 71.5555 20.7002L54.0515 39.3431ZM51.6728 41.8765L45.5345 48.4142C43.5517 50.5253 40.338 50.5253 38.3558 48.4142L12.3323 20.6975C10.3502 18.5857 10.3502 15.1628 12.3323 13.0516C14.3145 10.9398 17.5283 10.9398 19.5111 13.0516L41.9452 36.9454L44.4684 34.258L51.6728 41.8765Z" fill="#797979"/>
<path fill-rule="evenodd" clip-rule="evenodd" d="M43.0228 30.4462L50.1676 22.7648L63.4835 36.9471L75.1463 24.5254C77.1291 22.4143 80.3428 22.4143 82.325 24.5254C84.3072 26.6373 84.3072 30.0601 82.325 32.1713L67.0729 48.4158C65.0907 50.527 61.8769 50.527 59.8947 48.4158L43.0228 30.4462ZM40.063 27.2937L23.1019 9.22904C21.1197 7.11788 21.1197 3.69503 23.1019 1.58387C25.0847 -0.527957 28.2984 -0.527957 30.2806 1.58387L47.2593 19.6673L40.063 27.2937Z" fill="#797979"/>
<path fill-rule="evenodd" clip-rule="evenodd" d="M60.7875 1.58727C58.8054 -0.523882 55.5916 -0.523882 53.6088 1.58727L31.1772 25.4783L38.356 33.1242L60.7875 9.23311C62.7697 7.12128 62.7697 3.69843 60.7875 1.58727Z" fill="#797979"/>
<path fill-rule="evenodd" clip-rule="evenodd" d="M110.091 5.318H103.849V44.3712H126.72V38.4734H110.091V5.318ZM140.23 17.0605C144.025 17.0605 146.572 18.7077 147.97 20.7268L148.27 17.5919H153.663V44.3712H148.27L147.97 41.2363C146.572 43.2554 144.025 44.9026 140.23 44.9026C133.388 44.9026 128.744 39.0047 128.744 30.9815C128.744 22.9052 133.388 17.0605 140.23 17.0605ZM141.528 22.6927C137.633 22.6927 134.836 25.9339 134.836 30.9815C134.836 36.0292 137.633 39.2704 141.528 39.2704C144.524 39.2704 146.322 37.5701 147.67 35.2854V26.6777C146.322 24.393 144.524 22.6927 141.528 22.6927ZM168.771 8.61229H162.778V17.5919H158.034V23.0115H162.778V34.9134C162.778 41.3957 166.423 44.9026 172.166 44.9026C174.663 44.9026 176.511 44.1587 177.759 43.3085L176.161 38.314C175.412 38.7922 174.314 39.1641 172.716 39.1641C170.369 39.1641 168.771 37.5701 168.771 34.8603V23.0115H176.361V17.5919H168.771V8.61229ZM189.421 8.61229H183.429V17.5919H178.685V23.0115H183.429V34.9134C183.429 41.3957 187.074 44.9026 192.817 44.9026C195.314 44.9026 197.162 44.1587 198.41 43.3085L196.812 38.314C196.063 38.7922 194.964 39.1641 193.366 39.1641C191.019 39.1641 189.421 37.5701 189.421 34.8603V23.0115H197.012V17.5919H189.421V8.61229ZM208.424 17.5919H202.431V44.3712H208.424V17.5919ZM205.428 5.10547C203.33 5.10547 201.732 6.75261 201.732 9.03736C201.732 11.3221 203.33 12.9692 205.428 12.9692C207.575 12.9692 209.173 11.3221 209.173 9.03736C209.173 6.75261 207.575 5.10547 205.428 5.10547ZM226.528 17.0605C218.787 17.0605 213.644 22.9052 213.644 30.9815C213.644 39.0047 218.837 44.9026 226.578 44.9026C231.122 44.9026 234.568 42.7241 236.815 39.0047L232.52 35.4448C231.322 37.5701 229.374 39.3235 226.628 39.3235C222.183 39.3235 219.736 35.6573 219.736 30.9815C219.736 26.2527 222.083 22.6396 226.578 22.6396C229.374 22.6396 231.222 24.3398 232.37 26.4652L236.715 22.9584C234.468 19.239 231.122 17.0605 226.528 17.0605ZM251.473 17.0605C259.213 17.0605 263.009 23.224 263.009 30.7159V32.9475H245.231C245.381 37.1982 247.778 39.5361 251.973 39.5361C254.919 39.5361 257.066 38.1546 258.215 36.4543L262.36 40.0674C259.863 43.2554 256.567 44.9026 251.923 44.9026C244.132 44.9026 239.139 39.0579 239.139 31.0347C239.139 22.9584 244.232 17.0605 251.473 17.0605ZM251.373 22.1614C247.828 22.1614 245.431 24.6586 245.231 28.378H257.116C256.966 24.7118 254.969 22.1614 251.373 22.1614Z" fill="#797979"/>
</g>
</svg>
