<svg width="83" height="70" viewBox="0 0 83 70" fill="none" xmlns="http://www.w3.org/2000/svg">
<rect x="0.5" y="0.5" width="82" height="69" rx="5.5" fill="#F7F9FA" stroke="#EFEFEF"/>
<path fill-rule="evenodd" clip-rule="evenodd" d="M61.1097 18.9H58.9722V50.1292C58.9711 50.7421 58.7271 51.3297 58.2937 51.7631C57.8602 52.1966 57.2727 52.4406 56.6597 52.4417H33.6222V54.175C33.6222 54.2789 33.6635 54.3785 33.7369 54.4519C33.8104 54.5254 33.91 54.5667 34.0139 54.5667H61.0972C61.2011 54.5667 61.3007 54.5254 61.3742 54.4519C61.4476 54.3785 61.4889 54.2789 61.4889 54.175V19.2958C61.4923 19.2423 61.4847 19.1887 61.4666 19.1383C61.4484 19.0878 61.4201 19.0416 61.3834 19.0026C61.3467 18.9635 61.3023 18.9324 61.2531 18.9112C61.2039 18.89 61.1508 18.8791 61.0972 18.8792L61.1097 18.9ZM31.9847 31.2458L37.643 41.05C37.7985 41.3202 37.8803 41.6265 37.8802 41.9382C37.8801 42.2499 37.7981 42.5561 37.6424 42.8262C37.4867 43.0962 37.2628 43.3206 36.993 43.4769C36.7233 43.6332 36.4173 43.7159 36.1055 43.7167H24.7847C24.4718 43.7207 24.1637 43.6399 23.893 43.4829C23.6223 43.3259 23.3991 43.0986 23.2472 42.825C23.0855 42.5572 23 42.2503 23 41.9375C23 41.6247 23.0855 41.3178 23.2472 41.05L28.918 31.2458C29.0744 30.9759 29.2989 30.7519 29.5691 30.5961C29.8393 30.4404 30.1457 30.3584 30.4576 30.3584C30.7695 30.3584 31.0759 30.4404 31.3462 30.5961C31.6164 30.7519 31.8409 30.9759 31.9972 31.2458H31.9847ZM30.443 40.1125C30.2597 40.1117 30.0803 40.1653 29.9276 40.2667C29.7748 40.368 29.6556 40.5124 29.5851 40.6816C29.5146 40.8508 29.4959 41.0371 29.5315 41.2169C29.567 41.3967 29.6552 41.5619 29.7848 41.6916C29.9144 41.8212 30.0796 41.9094 30.2595 41.9449C30.4393 41.9805 30.6256 41.9618 30.7948 41.8913C30.964 41.8208 31.1084 41.7015 31.2097 41.5488C31.3111 41.396 31.3647 41.2166 31.3639 41.0333C31.3639 40.9124 31.3401 40.7927 31.2938 40.6809C31.2475 40.5692 31.1797 40.4677 31.0942 40.3822C31.0087 40.2967 30.9072 40.2289 30.7954 40.1826C30.6837 40.1363 30.564 40.1125 30.443 40.1125ZM30.443 33.25C30.2154 33.25 29.9971 33.3404 29.8361 33.5014C29.6751 33.6624 29.5847 33.8807 29.5847 34.1083V37.6708C29.5858 37.8981 29.6766 38.1158 29.8373 38.2766C29.9981 38.4373 30.2157 38.5281 30.443 38.5292C30.6707 38.5292 30.889 38.4387 31.05 38.2778C31.2109 38.1168 31.3014 37.8985 31.3014 37.6708V34.1083C31.3014 33.8807 31.2109 33.6624 31.05 33.5014C30.889 33.3404 30.6707 33.25 30.443 33.25ZM37.5264 16V21.7167C37.5264 22.0375 37.3992 22.3453 37.1727 22.5726C36.9462 22.7998 36.6389 22.9281 36.318 22.9292H30.443L37.5264 16ZM38.6305 16H56.6597C56.8184 16 56.9755 16.0313 57.1221 16.092C57.2687 16.1527 57.4019 16.2417 57.5141 16.3539C57.6263 16.4661 57.7153 16.5993 57.7761 16.7459C57.8368 16.8925 57.868 17.0497 57.868 17.2083V50.125C57.868 50.4455 57.7407 50.7528 57.5141 50.9794C57.2875 51.206 56.9802 51.3333 56.6597 51.3333H31.6597C31.3389 51.3333 31.0311 51.2062 30.8038 50.9797C30.5765 50.7532 30.4483 50.4459 30.4472 50.125V44.8167H36.1055C36.6113 44.8168 37.1082 44.6838 37.5464 44.4312C37.9845 44.1785 38.3485 43.8151 38.6018 43.3773C38.8551 42.9395 38.9888 42.4428 38.9894 41.9371C38.9901 41.4313 38.8577 40.9343 38.6055 40.4958L32.9389 30.7C32.688 30.2594 32.324 29.8939 31.8844 29.6411C31.4449 29.3884 30.9459 29.2577 30.4389 29.2625V24.0333H36.3347C36.9477 24.0322 37.5352 23.7882 37.9687 23.3548C38.4021 22.9214 38.6461 22.3338 38.6472 21.7208V16H38.6305ZM54.6139 47.1167C54.7597 47.1167 54.8996 47.1746 55.0028 47.2778C55.1059 47.3809 55.1639 47.5208 55.1639 47.6667C55.1639 47.8125 55.1059 47.9524 55.0028 48.0556C54.8996 48.1587 54.7597 48.2167 54.6139 48.2167H34.543C34.3972 48.2167 34.2573 48.1587 34.1541 48.0556C34.051 47.9524 33.993 47.8125 33.993 47.6667C33.993 47.5208 34.051 47.3809 34.1541 47.2778C34.2573 47.1746 34.3972 47.1167 34.543 47.1167H54.6139ZM54.6139 42.6417C54.752 42.6537 54.8806 42.717 54.9743 42.8193C55.0681 42.9215 55.12 43.0551 55.12 43.1937C55.12 43.3324 55.0681 43.466 54.9743 43.5682C54.8806 43.6705 54.752 43.7338 54.6139 43.7458H40.918C40.7799 43.7338 40.6513 43.6705 40.5576 43.5682C40.4639 43.466 40.4119 43.3324 40.4119 43.1937C40.4119 43.0551 40.4639 42.9215 40.5576 42.8193C40.6513 42.717 40.7799 42.6537 40.918 42.6417H54.6139ZM54.6139 38.1708C54.7597 38.1708 54.8996 38.2288 55.0028 38.3319C55.1059 38.4351 55.1639 38.575 55.1639 38.7208C55.1639 38.8667 55.1059 39.0066 55.0028 39.1097C54.8996 39.2129 54.7597 39.2708 54.6139 39.2708H39.7139C39.568 39.2708 39.4281 39.2129 39.325 39.1097C39.2218 39.0066 39.1639 38.8667 39.1639 38.7208C39.1639 38.575 39.2218 38.4351 39.325 38.3319C39.4281 38.2288 39.568 38.1708 39.7139 38.1708H54.6139ZM54.6139 33.6958C54.752 33.7078 54.8806 33.7712 54.9743 33.8734C55.0681 33.9756 55.12 34.1093 55.12 34.2479C55.12 34.3866 55.0681 34.5202 54.9743 34.6224C54.8806 34.7246 54.752 34.788 54.6139 34.8H44.1472C44.0091 34.788 43.8805 34.7246 43.7867 34.6224C43.693 34.5202 43.6411 34.3866 43.6411 34.2479C43.6411 34.1093 43.693 33.9756 43.7867 33.8734C43.8805 33.7712 44.0091 33.7078 44.1472 33.6958H54.6139ZM41.4722 33.6958C41.6104 33.7078 41.739 33.7712 41.8327 33.8734C41.9264 33.9756 41.9784 34.1093 41.9784 34.2479C41.9784 34.3866 41.9264 34.5202 41.8327 34.6224C41.739 34.7246 41.6104 34.788 41.4722 34.8H36.9722C36.8341 34.788 36.7055 34.7246 36.6117 34.6224C36.518 34.5202 36.4661 34.3866 36.4661 34.2479C36.4661 34.1093 36.518 33.9756 36.6117 33.8734C36.7055 33.7712 36.8341 33.7078 36.9722 33.6958H41.4722ZM54.6139 29.2208C54.752 29.2328 54.8806 29.2962 54.9743 29.3984C55.0681 29.5006 55.12 29.6343 55.12 29.7729C55.12 29.9116 55.0681 30.0452 54.9743 30.1474C54.8806 30.2496 54.752 30.313 54.6139 30.325H48.918C48.7799 30.313 48.6513 30.2496 48.5576 30.1474C48.4639 30.0452 48.4119 29.9116 48.4119 29.7729C48.4119 29.6343 48.4639 29.5006 48.5576 29.3984C48.6513 29.2962 48.7799 29.2328 48.918 29.2208H54.6139ZM46.2222 29.2208C46.2987 29.2142 46.3758 29.2235 46.4486 29.2482C46.5213 29.273 46.5881 29.3125 46.6447 29.3644C46.7013 29.4164 46.7466 29.4795 46.7775 29.5498C46.8084 29.6201 46.8244 29.6961 46.8244 29.7729C46.8244 29.8497 46.8084 29.9257 46.7775 29.996C46.7466 30.0664 46.7013 30.1295 46.6447 30.1814C46.5881 30.2333 46.5213 30.2729 46.4486 30.2976C46.3758 30.3223 46.2987 30.3317 46.2222 30.325H39.918C39.8415 30.3317 39.7644 30.3223 39.6917 30.2976C39.619 30.2729 39.5522 30.2333 39.4955 30.1814C39.4389 30.1295 39.3937 30.0664 39.3628 29.996C39.3318 29.9257 39.3159 29.8497 39.3159 29.7729C39.3159 29.6961 39.3318 29.6201 39.3628 29.5498C39.3937 29.4795 39.4389 29.4164 39.4955 29.3644C39.5522 29.3125 39.619 29.273 39.6917 29.2482C39.7644 29.2235 39.8415 29.2142 39.918 29.2208H46.2222ZM54.6139 24.75C54.7597 24.75 54.8996 24.8079 55.0028 24.9111C55.1059 25.0142 55.1639 25.1541 55.1639 25.3C55.1639 25.4459 55.1059 25.5858 55.0028 25.6889C54.8996 25.7921 54.7597 25.85 54.6139 25.85H52.2514C52.1055 25.85 51.9656 25.7921 51.8625 25.6889C51.7593 25.5858 51.7014 25.4459 51.7014 25.3C51.7014 25.1541 51.7593 25.0142 51.8625 24.9111C51.9656 24.8079 52.1055 24.75 52.2514 24.75H54.6139ZM49.8889 24.75C50.0347 24.75 50.1746 24.8079 50.2778 24.9111C50.3809 25.0142 50.4389 25.1541 50.4389 25.3C50.4389 25.4459 50.3809 25.5858 50.2778 25.6889C50.1746 25.7921 50.0347 25.85 49.8889 25.85H43.418C43.2722 25.85 43.1323 25.7921 43.0291 25.6889C42.926 25.5858 42.868 25.4459 42.868 25.3C42.868 25.1541 42.926 25.0142 43.0291 24.9111C43.1323 24.8079 43.2722 24.75 43.418 24.75H49.8889Z" fill="#EB5454"/>
</svg>
