<svg width="36" height="36" viewBox="0 0 36 36" fill="none" xmlns="http://www.w3.org/2000/svg">
<path d="M26.5259 14.875H25.2759V11.5812C25.2759 6.85 21.8447 3 17.6259 3C13.4072 3 9.97594 6.85 9.97594 11.5812V14.875H8.66969C8.44515 14.8765 8.22319 14.9231 8.01691 15.0118C7.81063 15.1005 7.62422 15.2297 7.46868 15.3916C7.31313 15.5536 7.19161 15.745 7.11127 15.9547C7.03094 16.1644 6.99342 16.3881 7.00094 16.6125V31.25C6.99252 31.7027 7.16306 32.1404 7.47552 32.4681C7.78798 32.7958 8.21711 32.9869 8.66969 33H26.5259C26.9847 32.9902 27.4216 32.802 27.7437 32.4752C28.0658 32.1484 28.2478 31.7089 28.2509 31.25V16.6125C28.2526 16.3849 28.2092 16.1593 28.1232 15.9485C28.0373 15.7378 27.9105 15.5462 27.7501 15.3847C27.5898 15.2231 27.3991 15.095 27.189 15.0075C26.9789 14.92 26.7535 14.875 26.5259 14.875ZM19.3009 26.75C19.5884 27.5625 19.3572 28.2188 18.7884 28.2188H16.3759C15.8072 28.2188 15.5759 27.5938 15.8572 26.75L16.7009 24.3625C16.3318 24.1659 16.0389 23.8515 15.869 23.4694C15.699 23.0872 15.6617 22.6592 15.763 22.2534C15.8643 21.8475 16.0984 21.4873 16.428 21.2298C16.7577 20.9724 17.1639 20.8325 17.5822 20.8325C18.0005 20.8325 18.4067 20.9724 18.7363 21.2298C19.066 21.4873 19.3001 21.8475 19.4014 22.2534C19.5027 22.6592 19.4654 23.0872 19.2954 23.4694C19.1255 23.8515 18.8326 24.1659 18.4634 24.3625L19.3009 26.75ZM22.2822 14.875H12.9072V11.5812C12.9072 8.45625 15.0322 5.95625 17.6134 5.95625C20.1947 5.95625 22.3134 8.45625 22.3134 11.5812L22.2822 14.875Z" fill="white"/>
</svg>
