<svg width="83" height="70" viewBox="0 0 83 70" fill="none" xmlns="http://www.w3.org/2000/svg">
<rect x="0.5" y="0.5" width="82" height="69" rx="5.5" fill="#F7F9FA" stroke="#EFEFEF"/>
<path d="M52.4311 31.25H50.9311V27.2975C50.9311 21.62 46.8136 17 41.7511 17C36.6886 17 32.5711 21.62 32.5711 27.2975V31.25H31.0036C30.7342 31.2519 30.4678 31.3077 30.2203 31.4141C29.9728 31.5206 29.7491 31.6756 29.5624 31.8699C29.3758 32.0643 29.2299 32.2941 29.1335 32.5457C29.0371 32.7973 28.9921 33.0657 29.0011 33.335V50.9C28.991 51.4432 29.1957 51.9685 29.5706 52.3617C29.9456 52.7549 30.4605 52.9843 31.0036 53H52.4311C52.9816 52.9883 53.5059 52.7624 53.8924 52.3702C54.279 51.9781 54.4973 51.4506 54.5011 50.9V33.335C54.5031 33.0619 54.451 32.7911 54.3479 32.5382C54.2447 32.2854 54.0926 32.0554 53.9002 31.8616C53.7078 31.6678 53.4789 31.514 53.2268 31.409C52.9746 31.304 52.7042 31.25 52.4311 31.25ZM43.7611 45.5C44.1061 46.475 43.8286 47.2625 43.1461 47.2625H40.2511C39.5686 47.2625 39.2911 46.5125 39.6286 45.5L40.6411 42.635C40.1981 42.3991 39.8467 42.0218 39.6427 41.5632C39.4388 41.1046 39.3941 40.591 39.5156 40.104C39.6372 39.6171 39.9181 39.1847 40.3137 38.8758C40.7092 38.5668 41.1967 38.399 41.6986 38.399C42.2005 38.399 42.688 38.5668 43.0836 38.8758C43.4792 39.1847 43.7601 39.6171 43.8816 40.104C44.0032 40.591 43.9585 41.1046 43.7545 41.5632C43.5506 42.0218 43.1992 42.3991 42.7561 42.635L43.7611 45.5ZM47.3386 31.25H36.0886V27.2975C36.0886 23.5475 38.6386 20.5475 41.7361 20.5475C44.8336 20.5475 47.3761 23.5475 47.3761 27.2975L47.3386 31.25Z" fill="#eb5454"/>
</svg>
