<svg width="801" height="611" viewBox="0 0 801 611" fill="none" xmlns="http://www.w3.org/2000/svg">
<g opacity="0.03" clip-path="url(#clip0_90_1165)">
<path d="M660.183 12.5758C654.316 12.2557 648.472 12.7162 642.848 13.984C624.406 18.1416 609.666 30.2134 602.355 47.1458L602.276 47.3064L602.205 47.501L536.248 219.139L513.369 278.683L439.951 469.823C439.809 470.212 439.416 471.193 437.919 471.531C436.421 471.868 435.646 471.15 435.313 470.868L286.78 329.658L240.572 285.723L107.899 159.543L107.227 158.944C93.2538 146.667 74.7163 142.062 56.2741 146.219C50.6501 147.487 45.1658 149.545 40.0114 152.385C17.6311 164.608 6.56556 187.529 11.8134 210.808L90.1786 558.423C95.4265 581.702 115.264 597.692 140.716 599.096C146.583 599.416 152.428 598.956 158.052 597.688C176.494 593.53 191.233 581.458 198.545 564.526L198.653 564.323L198.724 564.128L256.495 409.977L210.288 366.043L146.57 536.033L72.3264 206.701L392.121 510.781C407.168 525.101 428.857 530.746 450.184 525.938C455.516 524.736 460.593 522.913 465.328 520.596C474.79 515.927 482.818 509.154 488.811 500.839C491.793 496.703 494.258 492.148 496.12 487.3L654.262 75.511L728.506 404.843L598.546 279.122L575.659 338.633L692.816 451.992L693.6 452.744C707.617 465.046 726.154 469.652 744.597 465.495C750.221 464.227 755.705 462.169 760.859 459.329C783.24 447.106 794.305 424.185 789.057 400.906L710.684 53.2567C705.437 29.9781 685.607 14.0222 660.147 12.584L660.183 12.5758Z" fill="white"/>
<path d="M618.615 33.4812C613.466 34.642 609.027 37.2497 605.657 40.6876C604.434 42.749 603.306 44.8959 602.318 47.154L602.239 47.3147L602.168 47.5093L536.212 219.147L513.332 278.692L439.915 469.831C439.772 470.22 439.379 471.202 437.882 471.539C436.385 471.877 435.609 471.159 435.277 470.877L286.743 329.666L240.536 285.732L107.899 159.543L107.227 158.944C105.742 157.636 104.179 156.489 102.616 155.341C97.6439 153.034 91.8159 152.205 85.8633 153.547C72.4242 156.577 63.8244 169.157 66.6437 181.663L72.2899 206.709L392.121 510.781C407.168 525.101 428.857 530.746 450.184 525.938C455.516 524.736 460.593 522.913 465.328 520.596C474.79 515.927 482.818 509.154 488.811 500.839C491.793 496.703 494.258 492.148 496.12 487.3L654.262 75.511L648.04 50.631C645.22 38.1251 632.054 30.4515 618.615 33.4812Z" fill="white"/>
<path d="M733.652 430.395L727.079 403.451L598.546 279.122L575.659 338.633L692.816 451.992L693.6 452.744C695.808 454.71 698.182 456.389 700.643 457.941C704.902 459.302 709.656 459.623 714.44 458.544C727.879 455.515 736.479 442.934 733.66 430.429L733.652 430.395Z" fill="white"/>
<path d="M181.725 578.602C187.422 577.318 192.186 574.28 195.631 570.325C196.703 568.441 197.694 566.539 198.545 564.526L198.653 564.323L198.724 564.128L256.495 409.977L210.288 366.043L146.997 534.865L152.264 561.461C155.083 573.967 168.249 581.64 181.688 578.611L181.725 578.602Z" fill="white"/>
<path d="M513.369 278.683L512.456 281.103L513.369 278.683Z" fill="white"/>
<path d="M648.04 50.631C645.22 38.1251 632.055 30.4515 618.615 33.4811C613.466 34.642 609.027 37.2497 605.657 40.6876C604.434 42.749 603.306 44.8959 602.318 47.154L602.239 47.3146L602.168 47.5093L439.951 469.823C439.809 470.212 439.416 471.193 437.919 471.531C436.823 471.778 436.139 471.468 435.726 471.168L444.657 480.653C464.405 500.842 492.58 494.919 498.991 477.904L503.283 468.687L654.262 75.511L648.04 50.631Z" fill="white"/>
<path d="M300.741 127.568L292.698 146.701L247.846 265.05L294.622 309.463L359.629 135.826C359.8 135.394 360.156 134.421 361.69 134.075C363.224 133.73 364.008 134.481 364.303 134.772L355.083 124.852C335.335 104.664 307.16 110.587 300.749 127.602L300.741 127.568Z" fill="white"/>
<path d="M520.045 203.437L407.784 95.1158C392.727 80.5837 370.891 74.7932 349.417 79.6341C327.944 84.475 310.704 99.0745 303.339 118.662L292.698 146.701L300.741 127.568C307.152 110.553 335.327 104.63 355.075 124.818L363.349 133.773L367.305 137.702L382.739 152.542L497.167 263.159L520.037 203.403L520.045 203.437Z" fill="white"/>
</g>
<defs>
<clipPath id="clip0_90_1165">
<rect width="716.41" height="463.286" fill="white" transform="translate(0 158.406) rotate(-12.7042)"/>
</clipPath>
</defs>
</svg>
