<svg width="40" height="40" viewBox="0 0 40 40" fill="none" xmlns="http://www.w3.org/2000/svg">
<path d="M19.9902 17.7513L19.7621 19.0741H20.6187L20.3906 17.7513C20.35 17.5283 20.4413 17.3053 20.6187 17.1634C20.7809 17.0316 20.8721 16.839 20.8721 16.6312C20.8721 16.4285 20.7809 16.2359 20.6288 16.1092C20.4717 15.9774 20.274 15.9267 20.0612 15.9622C19.7976 16.0078 19.5797 16.2207 19.5239 16.4791C19.4682 16.7427 19.5543 17.0012 19.7621 17.1684C19.9446 17.3002 20.0307 17.5283 19.9902 17.7513Z" fill="white"/>
<path d="M10.112 20.063L7 17.4072V33.56C7 33.8134 7.07096 34.0516 7.1926 34.2645L16.9796 25.9119L10.112 20.063Z" fill="white"/>
<path d="M23.1632 10.7738C23.1632 9.9831 22.8541 9.23298 22.2915 8.67547C21.734 8.11288 20.9889 7.80371 20.1932 7.80371C18.5561 7.80371 17.2231 9.13668 17.2231 10.7738V12.796H23.1632V10.7738Z" fill="white"/>
<path d="M33.0514 16.4242L30.4058 14.8125V18.6796L33.0514 16.4242Z" fill="white"/>
<path d="M22.6715 26.5557L22.2357 26.9307L21.7694 27.3311C21.5818 27.4933 21.369 27.6099 21.151 27.7062C20.3198 28.066 19.3467 27.9444 18.627 27.3311L17.7198 26.5607L7.92773 34.9134C7.93787 34.9184 7.95308 34.9235 7.96321 34.9286C8.03417 34.9539 8.10513 34.9742 8.18115 34.9894C8.19636 34.9944 8.21663 34.9995 8.23183 34.9995H32.1493C32.1747 34.9944 32.1949 34.9894 32.2203 34.9843C32.2862 34.9742 32.347 34.9539 32.4078 34.9336C32.423 34.9286 32.4382 34.9235 32.4534 34.9134L22.6715 26.5557Z" fill="white"/>
<path d="M23.4165 25.917L33.1984 34.2645C33.32 34.0516 33.391 33.8134 33.391 33.56V17.4072L32.6409 18.0458L23.4165 25.917Z" fill="white"/>
<path d="M9.98063 18.6796V14.8125L7.33496 16.4242L9.98063 18.6796Z" fill="white"/>
<path d="M18.0335 25.547L19.2549 26.5911C19.5286 26.8243 19.8631 26.9408 20.1977 26.9408C20.5322 26.9408 20.8667 26.8243 21.1404 26.5911L22.3517 25.5521C22.3568 25.547 22.3618 25.547 22.3669 25.542L29.4372 19.5056V13.9507V6.45461C29.4372 5.65382 28.7834 5 27.9826 5H12.3975C11.5967 5 10.9429 5.65382 10.9429 6.45461V13.9558V19.5107L18.0335 25.547ZM14.658 14.4727C14.658 13.5756 15.3675 12.8458 16.2545 12.8002V10.7728C16.2545 8.60359 18.0233 6.83474 20.1926 6.83474C21.2468 6.83474 22.2351 7.24527 22.9751 7.98525C23.7201 8.7303 24.1307 9.71862 24.1307 10.7678V12.8002C25.0176 12.8458 25.7272 13.5756 25.7272 14.4727V20.5446C25.7272 21.4721 24.972 22.2273 24.0445 22.2273H16.3407C15.4131 22.2273 14.658 21.4721 14.658 20.5446V14.4727Z" fill="white"/>
<path d="M16.3411 21.259H24.05C24.4454 21.259 24.7647 20.9396 24.7647 20.5443V14.4724C24.7647 14.0771 24.4454 13.7578 24.05 13.7578H23.6496H16.7415H16.3411C15.9458 13.7578 15.6265 14.0771 15.6265 14.4724V20.5443C15.6265 20.9396 15.9458 21.259 16.3411 21.259ZM18.5813 16.2666C18.7232 15.623 19.2503 15.1161 19.8991 15.0046C20.3856 14.9185 20.8823 15.0502 21.2574 15.3645C21.6324 15.6787 21.8453 16.1399 21.8453 16.6316C21.8453 17.0624 21.6781 17.4729 21.3841 17.777L21.6476 19.3178C21.6781 19.5002 21.6274 19.6827 21.5108 19.8246C21.3942 19.9665 21.2219 20.0426 21.0344 20.0426H19.3517C19.1692 20.0426 18.9969 19.9615 18.8753 19.8246C18.7587 19.6827 18.708 19.5002 18.7384 19.3178L19.002 17.777C18.6219 17.3766 18.4647 16.8191 18.5813 16.2666Z" fill="white"/>
</svg>
