<svg width="83" height="70" viewBox="0 0 83 70" fill="none" xmlns="http://www.w3.org/2000/svg">
<rect x="0.5" y="0.5" width="82" height="69" rx="5.5" fill="#F7F9FA" stroke="#EFEFEF"/>
<path d="M45.5901 31.4098C48.3989 31.4098 50.7283 29.3253 51.1178 26.6218H45.5901C45.1496 26.6218 44.7929 26.2651 44.7929 25.8246V20.2969C42.0896 20.6846 40.0049 23.0158 40.0049 25.8246C40.0049 28.9048 42.5097 31.4095 45.5898 31.4095L45.5901 31.4098Z" fill="#eb5454"/>
<path d="M27.2379 28.5938L23.7715 31.4367L27.2379 33.8547V28.5938Z" fill="#eb5454"/>
<path d="M41.4968 38.0507C41.7899 37.8119 42.2103 37.8119 42.5034 38.0507L46.3095 41.1418L55.1657 34.9673L55.1641 26.9084V16.25H28.835V34.9657L37.6912 41.1402L41.4968 38.0507ZM45.59 18.6433C49.5496 18.6433 52.771 21.8647 52.771 25.8244C52.771 29.784 49.5496 33.0054 45.59 33.0054C41.6303 33.0054 38.4089 29.784 38.4089 25.8244C38.4089 21.8647 41.6303 18.6433 45.59 18.6433ZM36.0159 31.4093H32.0268C31.5863 31.4093 31.2296 31.0525 31.2296 30.6121C31.2296 30.1716 31.5863 29.8149 32.0268 29.8149H36.0159C36.4564 29.8149 36.8131 30.1716 36.8131 30.6121C36.8131 31.0525 36.4564 31.4093 36.0159 31.4093ZM36.0159 28.2174H32.0268C31.5863 28.2174 31.2296 27.8606 31.2296 27.4202C31.2296 26.9797 31.5863 26.623 32.0268 26.623H36.0159C36.4564 26.623 36.8131 26.9797 36.8131 27.4202C36.8131 27.8606 36.4564 28.2174 36.0159 28.2174ZM36.0159 25.027H32.0268C31.5863 25.027 31.2296 24.6703 31.2296 24.2298C31.2296 23.7893 31.5863 23.4326 32.0268 23.4326H36.0159C36.4564 23.4326 36.8131 23.7893 36.8131 24.2298C36.8131 24.6687 36.4564 25.027 36.0159 25.027ZM36.0159 21.8351H32.0268C31.5863 21.8351 31.2296 21.4783 31.2296 21.0379C31.2296 20.5974 31.5863 20.2407 32.0268 20.2407H36.0159C36.4564 20.2407 36.8131 20.5974 36.8131 21.0379C36.8131 21.4783 36.4564 21.8351 36.0159 21.8351Z" fill="#eb5454"/>
<path d="M56.7598 28.5938V33.8547L60.2262 31.4367L56.7598 28.5938Z" fill="#eb5454"/>
<path d="M46.3877 20.2979V25.0267H51.1181C50.7661 22.5839 48.8305 20.6484 46.3877 20.2979Z" fill="#eb5454"/>
<path d="M45.6571 42.6684L41.9999 39.6982L38.3458 42.6653C38.2822 42.7413 38.2047 42.8018 38.1225 42.8467L24.7002 53.7501H59.2995L45.8756 42.8467C45.795 42.8018 45.7207 42.7428 45.6571 42.6684Z" fill="#eb5454"/>
<path d="M47.5967 42.1886L60.749 52.8716V33.0176L47.5967 42.1886Z" fill="#eb5454"/>
<path d="M23.25 33.0176V52.8716L36.4023 42.1886L23.25 33.0176Z" fill="#eb5454"/>
</svg>
