<svg width="21" height="20" viewBox="0 0 21 20" fill="none" xmlns="http://www.w3.org/2000/svg">
<path d="M16.9347 0.000239597H3.33792C1.49494 0.000239597 0 1.63933 0 3.6597V12.0203C0 14.0405 1.49612 15.6798 3.33792 15.6798H10.6189L12.2861 19.3957C12.383 19.6343 12.5713 19.8247 12.8089 19.9244C13.0465 20.0241 13.314 20.0253 13.5523 19.9274C13.7907 19.8295 13.9803 19.6406 14.0792 19.4026L15.7497 15.6798H16.9348C18.7778 15.6798 20.2727 14.0407 20.2727 12.0203V3.66014C20.2727 1.63909 18.7766 0 16.9348 0L16.9347 0.000239597ZM11.9424 10.5872H4.69394C4.40975 10.5798 4.18333 10.3471 4.18333 10.0629C4.18333 9.77857 4.40976 9.54604 4.69394 9.53867H11.9424C12.2266 9.54607 12.453 9.77858 12.453 10.0629C12.453 10.3471 12.2266 10.5798 11.9424 10.5872ZM15.5776 6.29165H4.69406C4.40988 6.28425 4.18346 6.05157 4.18346 5.7674C4.18346 5.48306 4.40988 5.25052 4.69406 5.24315H15.5788C15.863 5.25056 16.0894 5.48307 16.0894 5.7674C16.0894 6.05158 15.863 6.28428 15.5788 6.29165H15.5776Z" fill="#0B3AE1"/>
</svg>
