<svg width="166" height="50" viewBox="0 0 166 50" fill="none" xmlns="http://www.w3.org/2000/svg">
<g opacity="0.2">
<path d="M100.923 28.1031C100.923 28.1031 100.592 26.8213 100.592 25.8712V11.0074H106.226V39.6369L88.1901 23.8553C87.2251 22.9888 86.654 22.0214 86.654 22.0214C86.654 22.0214 86.9399 23.0881 86.9399 24.0112L86.935 38.9908H81.2983V10.4736L99.1684 25.9383C100.127 26.796 100.923 28.1031 100.923 28.1031Z" fill="#797979"/>
<path d="M151.932 11.0127C160.859 11.0127 163.145 14.7328 163.145 20.0795C163.145 23.9546 160.444 27.7513 154.998 28.2006L154.401 28.2311C154.401 28.2311 154.928 28.3295 155.479 28.8895L165.362 38.9925H157.725L143.927 24.188H150.797C156.951 24.188 157.13 20.7614 157.172 19.8975C157.287 17.6735 156.614 15.8953 151.921 15.8953H144.065V38.9925H138.211V11.0127H151.932Z" fill="#797979"/>
<path d="M108.765 25.4006C108.765 13.6787 118.049 10.5986 125.854 10.5986C128.979 10.5986 131.746 10.8947 134.659 11.5469L134.667 17.4911C132.992 16.9468 129.629 15.7521 125.855 15.7521C118.456 15.7521 114.863 18.7894 114.863 25.3997C114.863 30.8144 118.736 34.2636 125.855 34.2636C129.629 34.2636 133.409 33.3144 135.239 32.6013L135.228 38.3677C132.319 39.0165 128.98 39.4171 125.855 39.4171C117.519 39.4179 108.765 35.1362 108.765 25.4006Z" fill="#797979"/>
<path d="M45.3658 11.7295L50.8599 17.1973C50.7099 17.2678 50.5369 17.3549 50.3333 17.4629C50.0152 17.6379 49.6361 17.8722 49.1821 18.2048C48.2764 18.8623 47.0963 19.9124 45.5866 21.634L34.849 33.6416C33.0088 35.6967 31.139 37.3251 29.4002 38.1863L23.9028 32.7168C24.0528 32.6427 24.2259 32.5609 24.4261 32.4477C24.7442 32.2761 25.1233 32.0384 25.5773 31.711C26.4805 31.0474 27.6639 30.0033 29.1752 28.2791L39.9104 16.2916C41.7514 14.2392 43.6245 12.5907 45.3658 11.7295Z" fill="#797979"/>
<path d="M24.1 40.756C26.5285 40.756 28.7609 40.2475 30.2756 39.4176C30.9678 39.0362 31.9559 38.3796 32.8055 37.6795C33.6518 36.982 34.8517 35.8952 35.8661 34.7553L46.6145 22.7818C49.3257 19.7644 50.9549 18.8327 51.9438 18.466L57.4568 23.9843C56.3064 25.2844 42.5848 40.7273 42.5848 40.7273C41.6494 41.7949 40.6638 42.8251 39.9939 43.4738C39.3503 44.1008 38.2493 45.0352 37.6807 45.4749C34.4536 47.9733 30.1429 49.9996 24.3382 49.9996C11.1851 49.9996 0.548828 38.687 0.548828 25.6606C0.548828 9.50111 12.4971 0.124279 23.3789 0.124279C26.7148 0.0197827 29.3914 0.612801 31.5076 1.37214C33.4631 2.07488 34.9398 2.92479 36.0111 3.503C34.7445 4.36075 33.5191 5.53024 31.4993 7.81001L29.2925 10.3136C28.7848 10.1072 26.5335 9.27731 23.6435 9.37049C16.6611 9.58819 9.02441 15.5689 9.29965 25.3802C9.55594 34.5542 16.7122 40.756 24.1 40.756Z" fill="#797979"/>
<path d="M44.4234 10.582C43.7287 10.966 42.7431 11.6209 41.8886 12.321C41.0447 13.0185 39.8457 14.1053 38.828 15.2426L28.0821 27.2188C25.3709 30.2361 23.7409 31.1644 22.7528 31.5318L17.2397 26.0188C18.3934 24.7152 32.1126 9.27494 32.1126 9.27494C33.0504 8.20734 34.0335 7.17718 34.7035 6.52581C35.3471 5.89883 36.448 4.96794 37.0216 4.5247C40.2429 2.02636 44.5594 0 50.3642 0C63.5164 0 74.1477 11.3135 74.1477 24.3364C74.1477 40.5011 62.202 49.8727 51.3176 49.8727C47.9842 49.9799 45.3052 49.3868 43.1923 48.6214C41.2318 47.9213 39.7493 47.0661 38.6805 46.4905C40.0188 45.5361 41.1642 44.4894 43.1997 42.1914L45.4032 39.6878C45.9109 39.8907 48.1631 40.7215 51.0556 40.6309C58.0354 40.4106 65.6746 34.4238 65.3994 24.615C65.1406 15.4455 57.9794 9.24098 50.5957 9.24098C48.1631 9.24098 45.9405 9.75215 44.4234 10.582Z" fill="#797979"/>
</g>
</svg>
