<svg width="83" height="70" viewBox="0 0 83 70" fill="none" xmlns="http://www.w3.org/2000/svg">
<rect x="0.5" y="0.5" width="82" height="69" rx="5.5" fill="#F7F9FA" stroke="#EFEFEF"/>
<path d="M31.6075 29.6405L31.3984 32.3595C30.7186 38.3203 29.0454 41.5621 28.3134 42.7124C26.6402 42.817 25.333 44.1765 25.333 45.8497C25.333 47.5752 26.7448 48.9869 28.4703 48.9869H42.5879H56.7056C58.431 48.9869 59.8428 47.5752 59.8428 45.8497C59.8428 44.1765 58.5356 42.817 56.8624 42.7124C56.1304 41.5621 54.4049 38.3203 53.7775 32.3595L53.5683 29.6405C53.5683 24.6209 50.2219 20.4379 45.6206 19.0784C45.6729 18.8693 45.7252 18.6078 45.7252 18.3987V18.1373C45.7252 16.4118 44.3134 15 42.5879 15C40.8624 15 39.4507 16.4118 39.4507 18.1373V18.3987C39.4507 18.6601 39.5029 18.8693 39.5552 19.0784C34.9539 20.4379 31.6075 24.6209 31.6075 29.6405Z" fill="#eb5454"/>
<path d="M47.0324 50.346C47.0324 50.2414 47.0324 50.1368 47.0324 50.0322H38.1436C38.1436 50.1368 38.1436 50.2414 38.1436 50.346C38.1436 52.908 40.1305 54.9995 42.588 54.9995C45.0455 54.9995 47.0324 52.908 47.0324 50.346Z" fill="#eb5454"/>
</svg>
