<svg width="227" height="58" viewBox="0 0 227 58" fill="none" xmlns="http://www.w3.org/2000/svg">
<path d="M107.688 56.8999L103.288 49.6881C103.043 49.3214 102.432 49.3214 102.31 49.6881L98.0316 56.7777C97.9094 56.8999 97.6649 57.0221 97.5427 57.0221H92.2866C91.7977 57.0221 91.5532 56.5332 91.7977 56.0442L97.7871 46.9989C98.765 45.5321 98.765 43.5764 97.7871 42.1096L92.5311 34.4088C92.2866 34.0421 92.5311 33.431 93.02 33.431H98.3983C98.6428 33.431 98.765 33.5532 98.8873 33.6754L102.554 39.7871C102.799 40.1538 103.41 40.1538 103.532 39.7871L107.199 33.6754C107.321 33.431 107.566 33.431 107.688 33.431H112.822C113.311 33.431 113.555 33.9199 113.311 34.4088L108.177 42.1096C107.199 43.5764 107.199 45.5321 108.177 46.9989L114.289 56.0442C114.533 56.4109 114.289 57.0221 113.8 57.0221H108.299C108.055 57.1444 107.81 57.0221 107.688 56.8999Z" fill="#e0e0e0"/>
<path d="M133.113 40.8872C133.113 42.2318 132.868 43.4542 132.379 44.3098C131.89 45.2877 131.157 46.0211 130.301 46.6322C129.446 47.2434 128.468 47.6101 127.368 47.8546C126.268 48.099 125.045 48.2213 123.823 48.2213H121.623C121.256 48.2213 121.012 48.4657 121.012 48.8324V56.5332C121.012 56.8999 120.767 57.1444 120.4 57.1444H115.878C115.511 57.1444 115.267 56.8999 115.267 56.5332V34.2866C115.267 33.9199 115.511 33.6754 115.878 33.6754H123.945C125.168 33.6754 126.39 33.7977 127.49 34.0421C128.59 34.2866 129.568 34.6533 130.424 35.2645C131.279 35.8756 131.89 36.6091 132.379 37.4647C132.868 38.4426 133.113 39.5427 133.113 40.8872ZM127.49 40.8872C127.49 40.2761 127.368 39.9094 127.123 39.5427C126.879 39.176 126.634 38.9315 126.268 38.687C125.901 38.4426 125.412 38.3203 125.045 38.3203C124.556 38.1981 124.067 38.1981 123.579 38.1981H121.745C121.378 38.1981 121.134 38.4426 121.134 38.8093V43.0875C121.134 43.4542 121.378 43.6986 121.745 43.6986H123.579C124.067 43.6986 124.679 43.6986 125.045 43.5764C125.534 43.4542 126.023 43.3319 126.39 43.0875C126.757 42.843 127.123 42.5985 127.246 42.2318C127.368 41.9873 127.49 41.4984 127.49 40.8872Z" fill="#e0e0e0"/>
<path d="M147.292 56.7777L142.525 48.099C142.403 47.8546 142.158 47.7323 142.036 47.7323H140.936C140.569 47.7323 140.325 47.9768 140.325 48.3435V56.411C140.325 56.7777 140.08 57.0221 139.713 57.0221H135.435C135.069 57.0221 134.824 56.7777 134.824 56.411V34.1644C134.824 33.7977 135.069 33.5532 135.435 33.5532H143.747C144.847 33.5532 145.947 33.6754 147.047 33.9199C148.148 34.1644 149.125 34.5311 149.981 35.1423C150.837 35.7534 151.57 36.3646 152.059 37.3424C152.548 38.1981 152.792 39.4204 152.792 40.765C152.792 42.354 152.303 43.6986 151.448 44.7987C150.714 45.6544 149.737 46.3878 148.514 46.8767C148.148 46.9989 148.025 47.4879 148.27 47.7323L153.404 56.2887C153.648 56.6554 153.404 57.2666 152.915 57.2666H147.659C147.536 57.1444 147.292 57.0221 147.292 56.7777ZM147.17 40.8872C147.17 40.2761 147.047 39.9094 146.803 39.5427C146.558 39.176 146.314 38.9315 145.947 38.687C145.581 38.4426 145.214 38.3203 144.725 38.3203C144.236 38.1981 143.869 38.1981 143.38 38.1981H140.936C140.569 38.1981 140.325 38.4426 140.325 38.8093V43.0875C140.325 43.4542 140.569 43.6986 140.936 43.6986H143.014C143.503 43.6986 143.992 43.6986 144.481 43.5764C144.969 43.4542 145.458 43.3319 145.825 43.2097C146.192 42.9652 146.558 42.7207 146.803 42.354C147.047 41.9873 147.17 41.4984 147.17 40.8872Z" fill="#e0e0e0"/>
<path d="M155.115 56.5332V34.2866C155.115 33.9199 155.359 33.6754 155.726 33.6754H170.272C170.639 33.6754 170.883 33.9199 170.883 34.2866V37.8314C170.883 38.1981 170.639 38.4426 170.272 38.4426H161.104C160.738 38.4426 160.493 38.687 160.493 39.0537V42.2318C160.493 42.5985 160.738 42.843 161.104 42.843H169.661C170.027 42.843 170.272 43.0874 170.272 43.4541V46.7545C170.272 47.1212 170.027 47.3656 169.661 47.3656H161.104C160.738 47.3656 160.493 47.6101 160.493 47.9768V51.6438C160.493 52.0105 160.738 52.255 161.104 52.255H170.761C171.127 52.255 171.372 52.4995 171.372 52.8662V56.5332C171.372 56.8999 171.127 57.1444 170.761 57.1444H155.604C155.359 57.1444 155.115 56.8999 155.115 56.5332Z" fill="#e0e0e0"/>
<path d="M186.896 39.2982C186.651 39.5427 186.285 39.5427 186.04 39.2982C185.673 38.9315 185.184 38.5648 184.573 38.3203C183.84 37.9536 182.984 37.8314 182.251 37.8314C181.884 37.8314 181.517 37.8314 181.151 37.9536C180.784 38.0759 180.417 38.1981 180.051 38.3203C179.684 38.5648 179.439 38.8093 179.317 39.0537C179.073 39.2982 178.951 39.7871 178.951 40.1538C178.951 40.5205 179.073 40.8872 179.195 41.1317C179.317 41.3762 179.562 41.6207 179.928 41.8651C180.295 42.1096 180.662 42.2318 181.028 42.3541C181.517 42.4763 182.006 42.7208 182.495 42.843C183.351 43.0875 184.084 43.4542 184.94 43.6986C185.796 44.0653 186.529 44.432 187.262 44.921C187.996 45.4099 188.607 46.1433 188.974 46.8767C189.463 47.6101 189.707 48.588 189.707 49.8103C189.707 51.1549 189.463 52.3772 188.974 53.3551C188.485 54.333 187.751 55.1886 187.018 55.7998C186.162 56.411 185.184 56.8999 184.084 57.2666C182.984 57.6333 181.884 57.7555 180.784 57.7555C179.073 57.7555 177.484 57.5111 175.895 56.8999C174.55 56.411 173.45 55.6776 172.472 54.8219C172.228 54.5774 172.228 54.2107 172.472 53.9663L175.283 51.0327C175.528 50.7882 175.895 50.7882 176.139 51.0327C176.628 51.5216 177.239 52.0105 177.973 52.3772C178.951 52.8662 179.806 53.1106 180.784 53.1106C181.151 53.1106 181.64 53.1106 182.006 52.9884C182.373 52.8662 182.74 52.7439 183.106 52.4995C183.351 52.255 183.595 52.0105 183.84 51.6438C183.962 51.2771 184.084 50.9104 184.084 50.4215C184.084 49.9326 183.962 49.5659 183.718 49.3214C183.473 48.9547 183.229 48.7102 182.74 48.4658C182.373 48.2213 181.762 47.9768 181.273 47.7323C180.662 47.4879 179.928 47.2434 179.195 46.999C178.462 46.7545 177.728 46.51 176.995 46.1433C176.261 45.7766 175.65 45.4099 175.039 44.921C174.428 44.432 174.061 43.8209 173.694 43.0875C173.328 42.3541 173.206 41.4984 173.206 40.3983C173.206 39.0537 173.45 37.9536 174.061 37.098C174.55 36.1201 175.283 35.3867 176.139 34.7756C176.995 34.1644 177.973 33.7977 179.073 33.431C180.173 33.1865 181.273 33.0643 182.373 33.0643C183.718 33.0643 185.062 33.3087 186.407 33.7977C187.629 34.1644 188.607 34.7755 189.585 35.5089C189.829 35.7534 189.952 36.1201 189.707 36.3646L186.896 39.2982Z" fill="#e0e0e0"/>
<path d="M204.742 39.2982C204.497 39.5427 204.131 39.5427 203.886 39.2982C203.52 38.9315 203.031 38.5648 202.419 38.3203C201.686 37.9536 200.83 37.8314 200.097 37.8314C199.73 37.8314 199.364 37.8314 198.997 37.9536C198.63 38.0759 198.263 38.1981 197.897 38.3203C197.53 38.5648 197.286 38.8093 197.163 39.0537C196.919 39.2982 196.797 39.7871 196.797 40.1538C196.797 40.5205 196.919 40.8872 197.041 41.1317C197.163 41.3762 197.408 41.6207 197.775 41.8651C198.141 42.1096 198.508 42.2318 198.875 42.3541C199.364 42.4763 199.853 42.7208 200.341 42.843C201.197 43.0875 201.93 43.4542 202.786 43.6986C203.642 44.0653 204.375 44.432 205.109 44.921C205.842 45.4099 206.453 46.1433 206.82 46.8767C207.309 47.6101 207.553 48.588 207.553 49.8103C207.553 51.1549 207.309 52.3772 206.82 53.3551C206.331 54.333 205.597 55.1886 204.864 55.7998C204.008 56.411 203.031 56.8999 201.93 57.2666C200.83 57.6333 199.73 57.7555 198.63 57.7555C196.919 57.7555 195.33 57.5111 193.741 56.8999C192.396 56.411 191.296 55.6776 190.318 54.8219C190.074 54.5774 190.074 54.2107 190.318 53.9663L193.13 51.0327C193.374 50.7882 193.741 50.7882 193.985 51.0327C194.474 51.5216 195.085 52.0105 195.819 52.3772C196.797 52.8662 197.652 53.1106 198.63 53.1106C198.997 53.1106 199.486 53.1106 199.852 52.9884C200.219 52.8662 200.586 52.7439 200.953 52.4995C201.197 52.255 201.442 52.0105 201.686 51.6438C201.808 51.2771 201.93 50.9104 201.93 50.4215C201.93 49.9326 201.808 49.5659 201.564 49.3214C201.319 48.9547 201.075 48.7102 200.586 48.4658C200.219 48.2213 199.608 47.9768 199.119 47.7323C198.508 47.4879 197.775 47.2434 197.041 46.999C196.308 46.7545 195.574 46.51 194.841 46.1433C194.108 45.7766 193.496 45.4099 192.885 44.921C192.274 44.432 191.907 43.8209 191.541 43.0875C191.174 42.3541 191.052 41.4984 191.052 40.3983C191.052 39.0537 191.296 37.9536 191.907 37.098C192.396 36.1201 193.13 35.3867 193.985 34.7756C194.841 34.1644 195.819 33.7977 196.919 33.431C198.019 33.1865 199.119 33.0643 200.219 33.0643C201.564 33.0643 202.908 33.3087 204.253 33.7977C205.475 34.1644 206.453 34.7755 207.431 35.5089C207.675 35.7534 207.798 36.1201 207.553 36.3646L204.742 39.2982Z" fill="#e0e0e0"/>
<path d="M16.8683 33.7977C16.3793 33.7977 15.8904 34.1644 15.8904 34.7756L16.0126 49.1992H15.8904L6.72287 34.2866C6.60063 34.0421 6.23393 33.7977 5.98946 33.7977H0.977871C0.488935 33.7977 0 34.1644 0 34.7756V56.411C0 56.8999 0.366701 57.3888 0.977871 57.3888H4.64489C5.13382 57.3888 5.62276 57.0221 5.62276 56.411L5.50053 41.9874H5.62276L14.7903 56.8999C14.9125 57.1444 15.2792 57.3888 15.5237 57.3888H20.5353C21.0242 57.3888 21.5132 57.0221 21.5132 56.411V34.7756C21.5132 34.2866 21.1465 33.7977 20.5353 33.7977H16.8683Z" fill="#e0e0e0"/>
<path d="M47.549 40.3983C46.9378 38.9315 45.96 37.5869 44.8599 36.4868C43.7598 35.3867 42.4152 34.6533 40.8261 34.0421C39.2371 33.431 37.5258 33.1865 35.6923 33.1865C33.8588 33.1865 32.1475 33.431 30.5585 34.0421C28.9694 34.6533 27.6249 35.3867 26.5248 36.4868C25.4247 37.5869 24.4468 38.8093 23.8356 40.3983C23.2245 41.8651 22.8578 43.5764 22.8578 45.5321C22.8578 47.3657 23.2245 49.0769 23.8356 50.666C24.4468 52.255 25.3024 53.4773 26.5248 54.5774C27.6249 55.6776 28.9694 56.5332 30.5585 57.1444C32.1475 57.7555 33.8588 58 35.6923 58C37.5258 58 39.2371 57.7555 40.8261 57.1444C42.4152 56.5332 43.7598 55.6776 44.8599 54.5774C45.96 53.4773 46.9378 52.1328 47.549 50.666C48.1602 49.0769 48.5269 47.4879 48.5269 45.5321C48.5269 43.5764 48.1602 41.8651 47.549 40.3983ZM41.9263 48.4658C41.5595 49.3214 41.0706 50.177 40.5817 50.7882C39.9705 51.3994 39.2371 51.8883 38.5037 52.255C37.6481 52.6217 36.7924 52.7439 35.8146 52.7439C34.8367 52.7439 33.8588 52.6217 33.1254 52.255C32.2698 51.8883 31.6586 51.3994 31.0474 50.7882C30.4363 50.177 29.9473 49.3214 29.7029 48.4658C29.3362 47.6101 29.2139 46.6322 29.2139 45.5321C29.2139 44.5543 29.3362 43.5764 29.7029 42.7208C30.0696 41.8651 30.4363 41.1317 31.0474 40.3983C31.6586 39.7871 32.392 39.2982 33.1254 38.9315C33.981 38.5648 34.8367 38.3203 35.8146 38.3203C36.7924 38.3203 37.7703 38.4426 38.5037 38.9315C39.3593 39.2982 40.0927 39.7871 40.5817 40.3983C41.1928 41.0095 41.6818 41.7429 41.9263 42.7208C42.293 43.5764 42.4152 44.5543 42.4152 45.5321C42.4152 46.51 42.293 47.4879 41.9263 48.4658Z" fill="#e0e0e0"/>
<path d="M64.6617 33.7977C64.295 33.7977 63.9283 34.0422 63.8061 34.4089L58.55 50.4215H58.4278L53.1717 34.4089C53.0495 34.0422 52.6828 33.7977 52.3161 33.7977H47.9157C47.3045 33.7977 46.8156 34.4089 47.06 35.02L55.2497 56.6554C55.372 57.0221 55.7387 57.2666 56.1054 57.2666H60.5058C60.8725 57.2666 61.2392 57.0221 61.3614 56.6554L69.6733 35.02C69.9178 34.4089 69.4289 33.7977 68.8177 33.7977H64.6617Z" fill="#e0e0e0"/>
<path d="M92.4089 43.0875L86.9084 35.02C86.4194 34.4088 85.8083 33.9199 85.0749 33.6754C83.8525 33.3087 82.5079 33.1865 81.1634 33.1865C79.3299 33.1865 77.6186 33.431 76.0295 34.0421C74.4405 34.6533 73.0959 35.3867 71.9958 36.4868C70.8957 37.5869 69.9178 38.8093 69.3067 40.3983C68.6955 41.8651 68.3288 43.5764 68.3288 45.5321C68.3288 47.3657 68.6955 49.0769 69.3067 50.666C69.9178 52.255 70.7735 53.4773 71.9958 54.5774C73.0959 55.6776 74.4405 56.5332 76.0295 57.1444C77.6186 57.7555 79.3299 58 81.1634 58C82.7524 58 84.097 57.7555 85.4415 57.3888L92.4089 46.7545C93.1423 45.6544 93.1423 44.1876 92.4089 43.0875ZM81.1634 52.7439C80.1855 52.7439 79.2076 52.6217 78.4742 52.255C77.6186 51.8883 77.0074 51.3994 76.3962 50.7882C75.7851 50.177 75.2961 49.3214 75.0517 48.4658C74.685 47.6101 74.5627 46.6322 74.5627 45.5321C74.5627 44.5543 74.685 43.5764 75.0517 42.7208C75.4184 41.8651 75.7851 41.1317 76.3962 40.3983C77.0074 39.7871 77.7408 39.2982 78.4742 38.9315C79.3299 38.5648 80.1855 38.3203 81.1634 38.3203C82.1412 38.3203 83.1191 38.4426 83.8525 38.9315C84.7081 39.2982 85.4415 39.7871 85.9305 40.3983C86.5417 41.0095 87.0306 41.7429 87.2751 42.7208C87.6418 43.5764 87.764 44.5543 87.764 45.5321C87.764 46.6322 87.6418 47.6101 87.2751 48.4658C86.9084 49.3214 86.4194 50.177 85.9305 50.7882C85.3193 51.3994 84.5859 51.8883 83.8525 52.255C82.9969 52.6217 82.1412 52.7439 81.1634 52.7439Z" fill="#e0e0e0"/>
<path d="M203.397 5.43941L208.287 0.550053C209.02 -0.183351 210.12 -0.183351 210.854 0.550053L215.743 5.43941C216.843 6.53952 216.11 8.49526 214.521 8.49526H214.276C213.787 8.49526 213.298 8.25079 213.054 8.00632L210.609 5.68387C209.876 4.95047 208.776 4.95047 208.042 5.68387L205.842 7.88409C205.475 8.25079 205.109 8.37302 204.62 8.37302C203.031 8.49525 202.297 6.53952 203.397 5.43941Z" fill="#e0e0e0"/>
<path d="M215.621 26.7081L210.731 31.5975C209.998 32.3309 208.898 32.3309 208.164 31.5975L203.275 26.7081C202.175 25.608 202.908 23.6523 204.497 23.6523H204.742C205.231 23.6523 205.72 23.8967 205.964 24.1412L208.164 26.3414C208.898 27.0748 209.998 27.0748 210.731 26.3414L212.932 24.1412C213.298 23.7745 213.665 23.6523 214.154 23.6523C215.987 23.6523 216.721 25.4858 215.621 26.7081Z" fill="#e0e0e0"/>
<path d="M198.508 22.1855L193.619 17.2961C192.885 16.5627 192.885 15.4626 193.619 14.7292L198.508 9.83984C199.608 8.73973 201.564 9.47313 201.564 11.0622V11.3066C201.564 11.7956 201.319 12.2845 201.075 12.529L198.875 14.7292C198.141 15.4626 198.141 16.5627 198.875 17.2961L201.075 19.4963C201.442 19.863 201.564 20.2297 201.564 20.7187C201.442 22.5522 199.608 23.2856 198.508 22.1855Z" fill="#e0e0e0"/>
<path d="M220.632 9.96207L225.522 14.8514C226.255 15.5848 226.255 16.6849 225.522 17.4183L220.632 22.3077C219.532 23.4078 217.576 22.6744 217.576 21.0854V20.8409C217.576 20.352 217.821 19.863 218.065 19.6185L220.266 17.4183C220.999 16.6849 220.999 15.5848 220.266 14.8514L218.065 12.6512C217.699 12.2845 217.576 11.9178 217.576 11.4289C217.576 9.59536 219.41 8.73973 220.632 9.96207Z" fill="#e0e0e0"/>
</svg>
