<svg width="83" height="70" viewBox="0 0 83 70" fill="none" xmlns="http://www.w3.org/2000/svg">
<rect x="0.5" y="0.5" width="82" height="69" rx="5.5" fill="#1A4EE6" fill-opacity="0.1" stroke="#EFEFEF"/>
<g clip-path="url(#clip0_90_1232)">
<path d="M27.4286 17.1429V18.5714H21V17.1429C21 15.9614 21.9614 15 23.1429 15H25.2857C26.4671 15 27.4286 15.9614 27.4286 17.1429ZM36 50C35.6071 50 35.2857 50.3214 35.2857 50.7143V52.8571C35.2857 54.0357 34.3214 55 33.1429 55H31C29.8214 55 28.8571 54.0357 28.8571 52.8571V17.1429C28.8571 16.3429 28.5929 15.6 28.1429 15H53.8571C55.0357 15 56 15.9643 56 17.1429V50H36ZM40.2857 28.5714C40.2857 28.9643 40.6071 29.2857 41 29.2857H52.4286C52.8214 29.2857 53.1429 28.9643 53.1429 28.5714C53.1429 28.1786 52.8214 27.8571 52.4286 27.8571H41C40.6071 27.8571 40.2857 28.1786 40.2857 28.5714ZM40.2857 35C40.2857 35.3929 40.6071 35.7143 41 35.7143H52.4286C52.8214 35.7143 53.1429 35.3929 53.1429 35C53.1429 34.6071 52.8214 34.2857 52.4286 34.2857H41C40.6071 34.2857 40.2857 34.6071 40.2857 35ZM40.2857 41.4286C40.2857 41.8214 40.6071 42.1429 41 42.1429H49.5714C49.9643 42.1429 50.2857 41.8214 50.2857 41.4286C50.2857 41.0357 49.9643 40.7143 49.5714 40.7143H41C40.6071 40.7143 40.2857 41.0357 40.2857 41.4286ZM31.9214 28.3643L34.0643 30.5071C34.2071 30.6429 34.3857 30.7143 34.5714 30.7143C34.7571 30.7143 34.9357 30.6429 35.0786 30.5071L38.65 26.9357C38.9286 26.6571 38.9286 26.2 38.65 25.9214C38.3714 25.6429 37.9143 25.6429 37.6357 25.9214L34.5714 28.9929L32.9357 27.35C32.6571 27.0714 32.2 27.0714 31.9214 27.35C31.6429 27.6286 31.6429 28.0857 31.9214 28.3643ZM31.9214 34.7929L34.0643 36.9357C34.2071 37.0714 34.3857 37.1429 34.5714 37.1429C34.7571 37.1429 34.9357 37.0714 35.0786 36.9357L38.65 33.3643C38.9286 33.0857 38.9286 32.6286 38.65 32.35C38.3714 32.0714 37.9143 32.0714 37.6357 32.35L34.5714 35.4214L32.9357 33.7786C32.6571 33.5 32.2 33.5 31.9214 33.7786C31.6429 34.0571 31.6429 34.5143 31.9214 34.7929ZM38.65 39.7929C38.9286 39.5143 38.9286 39.0571 38.65 38.7786C38.3714 38.5 37.9143 38.5 37.6357 38.7786L34.5714 41.85L32.9357 40.2071C32.6571 39.9286 32.2 39.9286 31.9214 40.2071C31.6429 40.4857 31.6429 40.9429 31.9214 41.2214L34.0643 43.3643C34.2071 43.5 34.3857 43.5714 34.5714 43.5714C34.7571 43.5714 34.9357 43.5 35.0786 43.3643L38.65 39.7929ZM56.7143 51.4286H36.7143V52.8571C36.7143 53.6643 36.435 54.4014 35.9814 55H58.8571C60.0386 55 61 54.0386 61 52.8571V51.4286H56.7143Z" fill="#1849E5"/>
</g>
<defs>
<clipPath id="clip0_90_1232">
<rect width="40" height="50" fill="white" transform="translate(21 10)"/>
</clipPath>
</defs>
</svg>
