<svg width="30" height="30" viewBox="0 0 30 30" fill="none" xmlns="http://www.w3.org/2000/svg">
<path d="M18.75 6.75C18.75 7.74456 18.3549 8.69839 17.6517 9.40165C16.9484 10.1049 15.9946 10.5 15 10.5C14.0054 10.5 13.0516 10.1049 12.3483 9.40165C11.6451 8.69839 11.25 7.74456 11.25 6.75C11.25 5.75544 11.6451 4.80161 12.3483 4.09835C13.0516 3.39509 14.0054 3 15 3C15.9946 3 16.9484 3.39509 17.6517 4.09835C18.3549 4.80161 18.75 5.75544 18.75 6.75ZM26.25 7.5C26.25 8.29565 25.9339 9.05871 25.3713 9.62132C24.8087 10.1839 24.0456 10.5 23.25 10.5C22.4544 10.5 21.6913 10.1839 21.1287 9.62132C20.5661 9.05871 20.25 8.29565 20.25 7.5C20.25 6.70435 20.5661 5.94129 21.1287 5.37868C21.6913 4.81607 22.4544 4.5 23.25 4.5C24.0456 4.5 24.8087 4.81607 25.3713 5.37868C25.9339 5.94129 26.25 6.70435 26.25 7.5ZM6.75 10.5C7.54565 10.5 8.30871 10.1839 8.87132 9.62132C9.43393 9.05871 9.75 8.29565 9.75 7.5C9.75 6.70435 9.43393 5.94129 8.87132 5.37868C8.30871 4.81607 7.54565 4.5 6.75 4.5C5.95435 4.5 5.19129 4.81607 4.62868 5.37868C4.06607 5.94129 3.75 6.70435 3.75 7.5C3.75 8.29565 4.06607 9.05871 4.62868 9.62132C5.19129 10.1839 5.95435 10.5 6.75 10.5ZM9 13.875C9 12.84 9.84 12 10.875 12H19.125C19.5636 11.9998 19.9885 12.1534 20.3256 12.434C20.6627 12.7147 20.8907 13.1046 20.97 13.536C19.4795 13.6772 18.0556 14.2214 16.8508 15.1101C15.646 15.9988 14.7057 17.1986 14.1308 18.581C13.5559 19.9633 13.3679 21.476 13.5871 22.957C13.8063 24.438 14.4243 25.8315 15.375 26.988C14.5571 27.0392 13.7374 26.9223 12.9664 26.6446C12.1954 26.3668 11.4895 25.9341 10.8922 25.373C10.2949 24.812 9.81881 24.1345 9.49338 23.3824C9.16795 22.6303 9.00004 21.8195 9 21V13.875ZM22.4835 13.5315C24.192 13.6815 25.7505 14.3535 27 15.3855V13.875C27 12.84 26.16 12 25.125 12H21.9315C22.2315 12.447 22.4265 12.969 22.482 13.5315M7.5 13.875C7.5 13.1805 7.71 12.537 8.0685 12H4.875C3.84 12 3 12.84 3 13.875V19.5C2.99993 20.1422 3.13731 20.7769 3.4029 21.3616C3.6685 21.9463 4.05616 22.4674 4.53983 22.8898C5.02351 23.3122 5.592 23.6263 6.2071 23.8108C6.8222 23.9953 7.46967 24.046 8.106 23.9595C7.70467 23.0245 7.49846 22.0175 7.5 21V13.875ZM28.5 21.75C28.5 23.5402 27.7888 25.2571 26.523 26.523C25.2571 27.7888 23.5402 28.5 21.75 28.5C19.9598 28.5 18.2429 27.7888 16.977 26.523C15.7112 25.2571 15 23.5402 15 21.75C15 19.9598 15.7112 18.2429 16.977 16.977C18.2429 15.7112 19.9598 15 21.75 15C23.5402 15 25.2571 15.7112 26.523 16.977C27.7888 18.2429 28.5 19.9598 28.5 21.75ZM22.5 18.75C22.5 18.5511 22.421 18.3603 22.2803 18.2197C22.1397 18.079 21.9489 18 21.75 18C21.5511 18 21.3603 18.079 21.2197 18.2197C21.079 18.3603 21 18.5511 21 18.75V21H18.75C18.5511 21 18.3603 21.079 18.2197 21.2197C18.079 21.3603 18 21.5511 18 21.75C18 21.9489 18.079 22.1397 18.2197 22.2803C18.3603 22.421 18.5511 22.5 18.75 22.5H21V24.75C21 24.9489 21.079 25.1397 21.2197 25.2803C21.3603 25.421 21.5511 25.5 21.75 25.5C21.9489 25.5 22.1397 25.421 22.2803 25.2803C22.421 25.1397 22.5 24.9489 22.5 24.75V22.5H24.75C24.9489 22.5 25.1397 22.421 25.2803 22.2803C25.421 22.1397 25.5 21.9489 25.5 21.75C25.5 21.5511 25.421 21.3603 25.2803 21.2197C25.1397 21.079 24.9489 21 24.75 21H22.5V18.75Z" fill="white"/>
</svg>
