<svg width="379" height="400" viewBox="0 0 379 400" fill="none" xmlns="http://www.w3.org/2000/svg">
<path d="M225.094 229.344C225.163 229.406 225.229 229.472 225.292 229.541L225.855 230.124L228.029 232.427L236.231 241.212L265.293 272.546H264.957L297.922 234.789L298.149 234.532L298.337 234.818L300.738 238.435L325.68 275.985L325.334 275.926L349.307 256.775L349.445 256.667L349.564 256.795L367.865 277.547L372.805 283.209L374.09 284.691C374.377 285.027 374.515 285.205 374.515 285.205C374.515 285.205 374.347 285.047 374.051 284.731L372.746 283.209L367.706 277.616L349.287 257.012H349.544L325.63 276.292L325.433 276.45L325.284 276.232L300.313 238.741L297.902 235.115H298.307C286.311 248.85 275.026 261.746 265.303 272.873L265.135 273.06L264.967 272.873C253.03 259.888 243.039 249.038 236.033 241.409L227.93 232.516L225.806 230.164C225.578 229.897 225.401 229.7 225.262 229.551C225.124 229.403 225.084 229.354 225.094 229.344Z" fill="#E6E6E6"/>
<path d="M261.884 272.803C261.878 273.49 262.077 274.162 262.454 274.736C262.832 275.309 263.372 275.757 264.005 276.022C264.638 276.288 265.336 276.359 266.01 276.226C266.684 276.094 267.302 275.764 267.788 275.278C268.273 274.793 268.603 274.174 268.736 273.5C268.868 272.826 268.797 272.129 268.532 271.495C268.267 270.862 267.819 270.322 267.245 269.945C266.672 269.567 265.999 269.368 265.313 269.374C264.405 269.379 263.536 269.742 262.894 270.384C262.252 271.026 261.889 271.895 261.884 272.803Z" fill="#E0E0E0"/>
<path d="M322.429 276.924C322.433 277.608 322.64 278.276 323.023 278.843C323.407 279.41 323.95 279.85 324.584 280.108C325.218 280.366 325.915 280.429 326.585 280.291C327.255 280.153 327.87 279.819 328.35 279.332C328.831 278.844 329.156 278.225 329.284 277.553C329.413 276.881 329.339 276.186 329.072 275.555C328.805 274.925 328.357 274.388 327.785 274.013C327.213 273.637 326.542 273.44 325.858 273.445C324.942 273.453 324.067 273.824 323.424 274.476C322.782 275.128 322.424 276.008 322.429 276.924Z" fill="#E0E0E0"/>
<path d="M345.977 257.882C345.983 258.564 346.191 259.229 346.574 259.793C346.958 260.357 347.501 260.794 348.133 261.049C348.765 261.305 349.459 261.367 350.127 261.229C350.795 261.09 351.407 260.756 351.885 260.27C352.363 259.783 352.686 259.166 352.813 258.496C352.941 257.826 352.866 257.133 352.6 256.505C352.334 255.877 351.887 255.342 351.317 254.968C350.746 254.594 350.078 254.398 349.396 254.403C348.482 254.414 347.609 254.786 346.969 255.437C346.328 256.089 345.971 256.968 345.977 257.882Z" fill="#E0E0E0"/>
<path d="M294.662 235.253C294.666 235.937 294.873 236.605 295.257 237.172C295.64 237.739 296.184 238.179 296.818 238.437C297.452 238.695 298.148 238.759 298.819 238.62C299.489 238.482 300.103 238.148 300.584 237.661C301.064 237.174 301.389 236.555 301.518 235.882C301.646 235.21 301.572 234.515 301.306 233.884C301.039 233.254 300.591 232.717 300.019 232.342C299.446 231.966 298.776 231.769 298.091 231.775C297.176 231.782 296.3 232.153 295.658 232.805C295.015 233.457 294.657 234.337 294.662 235.253Z" fill="#E0E0E0"/>
<path d="M371.787 285.304C371.791 285.988 371.998 286.656 372.382 287.223C372.765 287.79 373.309 288.23 373.943 288.488C374.577 288.745 375.273 288.809 375.943 288.671C376.614 288.533 377.228 288.199 377.709 287.712C378.189 287.224 378.514 286.605 378.643 285.933C378.771 285.261 378.697 284.565 378.431 283.935C378.164 283.305 377.716 282.768 377.144 282.392C376.571 282.017 375.901 281.819 375.216 281.825C374.301 281.833 373.425 282.204 372.783 282.856C372.14 283.508 371.782 284.388 371.787 285.304Z" fill="#E0E0E0"/>
<path d="M68.875 23.6172H46.6709V111.93H68.875V23.6172Z" fill="#E6E6E6"/>
<path d="M101.534 42.8765H79.3301V111.92H101.534V42.8765Z" fill="#E6E6E6"/>
<path d="M134.697 58.6475H112.493V111.92H134.697V58.6475Z" fill="#E6E6E6"/>
<path d="M165.399 80.2886H143.195V111.93H165.399V80.2886Z" fill="#E6E6E6"/>
<path d="M147.622 1.58105C147.622 1.58105 147.415 1.84786 147.01 2.32218L145.162 4.44674L138.136 12.4509L112.799 41.1077L112.661 41.2559L112.503 41.1374L95.9708 28.4691H96.3068L73.1836 57.7781L72.907 58.1338L72.739 58.3512L72.5314 58.1635L41.3943 30.6628H41.7402C29.5165 46.7106 19.1606 60.4165 11.7493 70.1104L3.1226 81.3854L0.82018 84.3499L0.217398 85.1108C0.150119 85.2007 0.0775226 85.2865 0 85.3677C0.0561325 85.2712 0.118868 85.1788 0.187754 85.091L0.760885 84.3005L3.00403 81.2668L11.5121 69.9128L41.3548 30.3268L41.5129 30.1193L41.7006 30.2873L72.8773 57.7188H72.5018L72.7785 57.3631L95.9312 28.0738L96.0795 27.8861L96.2672 28.0343L112.77 40.6927H112.473L137.938 12.2631C141.011 8.85396 143.423 6.17603 145.073 4.3578L146.96 2.28265C147.395 1.78857 147.622 1.58105 147.622 1.58105Z" fill="#E6E6E6"/>
<path d="M143.956 22.0658C143.948 21.9158 143.965 21.7656 144.006 21.6211L144.253 20.3562C144.51 19.1803 144.855 17.619 145.241 15.7118C146.12 11.7592 147.365 6.36379 148.798 0.316213L149.114 0.612662L147.998 0.958519C141.802 2.86568 136.189 4.55545 132.118 5.76101L127.286 7.15432L125.962 7.51007C125.81 7.56669 125.649 7.59677 125.487 7.599C125.629 7.52199 125.778 7.45911 125.932 7.41125L127.226 6.96657L132.009 5.41515C136.051 4.12065 141.654 2.3716 147.82 0.47432L148.937 0.138343L149.371 0L149.263 0.444672C147.889 6.5219 146.634 11.8975 145.646 15.8008C145.162 17.6882 144.766 19.2396 144.48 20.4056C144.342 20.8898 144.223 21.3049 144.134 21.6409C144.096 21.7905 144.036 21.9336 143.956 22.0658Z" fill="#E6E6E6"/>
<path d="M319.119 150.903C323.531 150.831 327.865 152.069 331.574 154.461C335.282 156.852 338.199 160.29 339.954 164.339C341.709 168.388 342.224 172.866 341.434 177.207C340.644 181.549 338.584 185.559 335.515 188.73C332.446 191.901 328.506 194.091 324.193 195.022C319.88 195.954 315.387 195.586 311.283 193.965C307.179 192.343 303.648 189.541 301.136 185.913C298.624 182.285 297.244 177.993 297.172 173.581C297.082 167.666 299.342 161.956 303.456 157.704C307.571 153.453 313.203 151.007 319.119 150.903ZM319.652 183.888C321.762 183.849 323.812 183.185 325.545 181.981C327.277 180.776 328.614 179.086 329.385 177.122C330.157 175.159 330.33 173.011 329.882 170.949C329.433 168.887 328.384 167.005 326.866 165.54C325.348 164.074 323.43 163.092 321.354 162.716C319.278 162.34 317.137 162.588 315.202 163.429C313.267 164.269 311.624 165.664 310.481 167.438C309.339 169.212 308.748 171.284 308.782 173.394C308.807 174.796 309.108 176.181 309.667 177.467C310.227 178.754 311.034 179.918 312.043 180.892C313.053 181.867 314.244 182.633 315.55 183.147C316.855 183.661 318.249 183.913 319.652 183.888Z" fill="#E0E0E0"/>
<path d="M319.079 148.126C325.733 148.031 332.153 150.578 336.932 155.209C341.712 159.84 344.459 166.177 344.574 172.83L329.356 173.226C329.257 166.615 324.781 163.927 319.474 163.591C318.17 163.513 316.864 163.706 315.638 164.157C314.413 164.608 313.293 165.309 312.351 166.214C311.409 167.119 310.665 168.209 310.164 169.415C309.664 170.622 309.419 171.919 309.445 173.226L294.385 173.631C294.282 166.975 296.825 160.551 301.455 155.769C306.085 150.987 312.424 148.238 319.079 148.126Z" fill="#F0F0F0"/>
<path d="M138.442 249.225C146.123 241.165 156.663 236.441 167.791 236.072C178.92 235.702 189.749 239.716 197.949 247.249C201.977 250.961 205.228 255.436 207.514 260.415C209.8 265.393 211.074 270.775 211.265 276.249C211.455 281.724 210.557 287.182 208.622 292.307C206.688 297.431 203.755 302.121 199.995 306.104C192.313 314.165 181.774 318.888 170.645 319.258C159.516 319.628 148.687 315.614 140.487 308.081C136.459 304.368 133.208 299.893 130.922 294.915C128.637 289.937 127.362 284.555 127.171 279.08C126.981 273.606 127.879 268.148 129.814 263.023C131.749 257.898 134.681 253.209 138.442 249.225ZM183.897 291.262C185.7 289.359 187.106 287.115 188.034 284.663C188.961 282.211 189.391 279.599 189.299 276.979C189.207 274.359 188.595 271.783 187.498 269.402C186.401 267.021 184.841 264.882 182.909 263.109C178.984 259.511 173.803 257.599 168.482 257.784C163.161 257.969 158.126 260.236 154.46 264.097C152.657 266.001 151.251 268.244 150.324 270.696C149.396 273.148 148.966 275.761 149.058 278.381C149.15 281.001 149.762 283.576 150.859 285.958C151.956 288.339 153.516 290.478 155.448 292.25C159.373 295.856 164.558 297.774 169.885 297.589C175.212 297.404 180.252 295.132 183.917 291.262H183.897Z" fill="#F5F5F5"/>
<path d="M138.442 249.225C146.124 241.165 156.663 236.441 167.792 236.072C178.921 235.702 189.75 239.716 197.95 247.249L182.949 263.139C179.025 259.541 173.844 257.629 168.523 257.813C163.202 257.998 158.166 260.266 154.5 264.127C152.697 266.03 151.291 268.274 150.364 270.726C149.436 273.178 149.006 275.79 149.098 278.41C149.19 281.03 149.802 283.606 150.899 285.987C151.997 288.368 153.556 290.507 155.488 292.28L140.468 308.11C136.437 304.396 133.184 299.918 130.897 294.937C128.611 289.955 127.336 284.569 127.148 279.091C126.959 273.613 127.86 268.152 129.799 263.025C131.738 257.899 134.676 253.208 138.442 249.225Z" fill="#E0E0E0"/>
<path d="M196.23 240.421C216.981 259.621 219.501 290.817 200.083 311.411L179.006 293.238C188.285 283.406 190.301 270.273 180.37 261.093L196.23 240.421Z" fill="#EBEBEB"/>
<path d="M176.812 294.543L189.333 319.306C194.51 317.408 199.175 314.333 202.959 310.324L180.469 292.161L176.812 294.543Z" fill="#E0E0E0"/>
<path d="M224.048 65.9601C223.865 54.8602 226.979 43.9555 232.995 34.6257C239.012 25.2958 247.66 17.9599 257.846 13.5461C268.032 9.13232 279.299 7.83888 290.22 9.82946C301.142 11.82 311.228 17.0052 319.202 24.7289C327.176 32.4526 332.68 42.3679 335.018 53.2204C337.355 64.0729 336.422 75.375 332.335 85.6968C328.248 96.0186 321.192 104.896 312.059 111.207C302.925 117.518 292.125 120.978 281.025 121.149C266.159 121.361 251.814 115.671 241.134 105.326C230.454 94.9819 224.31 80.8261 224.048 65.9601ZM306.984 64.6261C306.898 59.3209 305.24 54.1605 302.221 49.7974C299.201 45.4343 294.956 42.0645 290.022 40.1141C285.087 38.1636 279.685 37.7201 274.499 38.8396C269.312 39.9591 264.574 42.5913 260.884 46.4035C257.193 50.2156 254.716 55.0365 253.765 60.2565C252.814 65.4766 253.432 70.8613 255.542 75.7299C257.651 80.5986 261.157 84.7324 265.615 87.6088C270.074 90.4851 275.285 91.9749 280.591 91.8896C287.704 91.7674 294.478 88.8281 299.426 83.7167C304.375 78.6053 307.093 71.7395 306.984 64.6261Z" fill="#FAFAFA"/>
<path d="M224.047 65.96C223.823 51.0832 229.51 36.7251 239.861 26.0372C250.211 15.3492 264.38 9.20485 279.256 8.95264L279.731 38.232C272.615 38.346 265.836 41.2819 260.886 46.3939C255.935 51.5059 253.218 58.3752 253.332 65.4906C253.446 72.606 256.382 79.3847 261.494 84.3355C266.606 89.2862 273.475 92.0035 280.59 91.8895L281.025 121.149C266.157 121.366 251.809 115.678 241.128 105.332C230.447 94.9865 224.305 80.8277 224.047 65.96Z" fill="#E0E0E0"/>
<path d="M274.217 4.44645C310.413 3.86343 339.297 31.8285 339.871 68.0251L305.611 68.5785C305.334 51.2658 292.103 40.3663 274.8 40.6529L274.217 4.44645Z" fill="#F0F0F0"/>
<path d="M340.314 399.743C340.314 399.881 266.429 400 175.29 400C84.1518 400 10.2666 399.881 10.2666 399.743C10.2666 399.605 84.1321 399.476 175.29 399.476C266.449 399.476 340.314 399.595 340.314 399.743Z" fill="#575959"/>
<path d="M111.525 262.724L294.633 261.41V263.979L111.525 265.619V262.724Z" fill="#575959"/>
<path d="M107.533 76.5634L111.703 264.256L294.633 262.833V73.4111L107.533 76.5634Z" fill="white"/>
<path d="M107.533 76.563L294.632 73.1934H294.859V73.4206C294.859 127.641 294.859 191.625 294.859 259.888V263.099H294.602L111.673 264.493H111.456V264.275C109.094 151.782 107.552 78.4998 107.503 76.5729C107.503 78.4702 109.262 151.782 111.89 264.255L111.673 264.038L294.602 262.585L294.346 262.842V259.878C294.346 191.615 294.346 127.631 294.346 73.4108L294.573 73.638L107.533 76.563Z" fill="#575959"/>
<path d="M106.802 77.818L295.433 76.7409L295.67 68.8257L106.802 70.0016V77.818Z" fill="#575959"/>
<path d="M197.1 269.374C196.784 269.374 196.448 267.902 196.359 266.064C196.27 264.226 196.468 262.724 196.784 262.704C197.1 262.685 197.436 264.167 197.525 266.005C197.614 267.843 197.426 269.374 197.1 269.374Z" fill="#575959"/>
<path d="M197.032 268.02C197.032 267.951 197.348 267.932 197.842 268.129C198.14 268.255 198.42 268.421 198.672 268.623C199.012 268.897 199.297 269.232 199.512 269.611C199.805 270.137 199.952 270.731 199.939 271.332C199.925 271.933 199.75 272.52 199.433 273.03C199.243 273.339 199.002 273.612 198.722 273.841C198.428 274.076 198.093 274.254 197.733 274.364C196.969 274.575 196.156 274.516 195.431 274.197C195.064 274.033 194.73 273.806 194.443 273.525C194.158 273.243 193.932 272.907 193.781 272.536C193.507 271.862 193.448 271.12 193.613 270.412C193.734 269.821 194.019 269.277 194.435 268.84C194.851 268.403 195.381 268.092 195.965 267.941C196.712 267.737 197.508 267.807 198.208 268.139C198.682 268.376 198.86 268.623 198.82 268.683C198.781 268.742 198.514 268.683 198.059 268.564C197.441 268.448 196.802 268.503 196.212 268.722C195.831 268.87 195.493 269.107 195.223 269.414C194.915 269.775 194.714 270.215 194.642 270.685C194.57 271.155 194.631 271.635 194.818 272.072C195.034 272.541 195.418 272.912 195.895 273.11C196.37 273.322 196.903 273.367 197.407 273.238C197.871 273.118 198.273 272.829 198.534 272.428C198.791 272.049 198.945 271.61 198.978 271.153C199.008 270.947 199.008 270.737 198.978 270.53C198.946 270.336 198.89 270.147 198.81 269.967C198.557 269.386 198.159 268.879 197.654 268.495C197.289 268.238 197.032 268.1 197.032 268.02Z" fill="#575959"/>
<path d="M224.245 179.273C224.245 179.273 224.245 179.273 224.127 179.273H223.791L222.486 179.332L217.457 179.55L198.958 180.241C183.335 180.815 161.744 181.575 137.909 182.396L129.707 182.672H129.52V182.485C127.859 160.676 126.357 141.13 125.32 127.078C124.806 120.062 124.401 114.42 124.114 110.536C123.986 108.56 123.877 107.087 123.808 106.07C123.808 105.556 123.749 105.17 123.739 104.904C123.729 104.637 123.739 104.676 123.739 104.607C123.739 104.538 123.739 104.508 123.739 104.508C123.743 104.541 123.743 104.574 123.739 104.607C123.739 104.676 123.739 104.775 123.739 104.904C123.739 105.032 123.798 105.556 123.847 106.06C123.927 107.048 124.055 108.58 124.223 110.526C124.529 114.41 124.984 120.052 125.547 127.048C126.654 141.061 128.176 160.557 129.856 182.455L129.658 182.277L137.86 181.99C161.694 181.18 183.315 180.459 198.909 179.965L217.417 179.392L222.447 179.253H223.751H224.206L224.245 179.273Z" fill="#455A64"/>
<path d="M158.009 98.4312V100.951L184.077 99.706V97.5913L158.009 98.4312Z" fill="#575959"/>
<path d="M138.274 177.119H147.336L145.913 152.523H137.029L138.274 177.119Z" fill="#203AB6"/>
<path d="M154.698 177.129H163.75L162.337 142.75H153.453L154.698 177.129Z" fill="#203AB6"/>
<path d="M170.073 176.032H179.135L177.712 131.021H168.838L170.073 176.032Z" fill="#203AB6"/>
<path d="M205.352 174.283H214.403L212.99 112.938H204.106L205.352 174.283Z" fill="#203AB6"/>
<path d="M188.187 174.49H197.239L195.816 121.703H186.942L188.187 174.49Z" fill="#203AB6"/>
<path d="M132.583 146.15C132.345 145.784 148.532 134.994 168.72 122.049C188.908 109.104 205.49 98.9058 205.727 99.3208C205.964 99.7359 189.778 110.477 169.58 123.422C149.381 136.367 132.8 146.516 132.583 146.15Z" fill="#203AB6"/>
<path d="M196.764 99.2809C196.685 98.8461 202.545 97.3836 209.877 96.0002L211.735 95.6543L210.678 97.2255L210.619 97.3144C206.429 103.54 202.713 108.392 202.367 108.184C202.021 107.977 205.114 102.7 209.285 96.4646L209.344 96.3757L210.154 97.601C202.832 98.935 196.844 99.7058 196.764 99.2809Z" fill="#203AB6"/>
<path d="M137.029 185.43H146.496L146.792 187.11H137.029V185.43Z" fill="#575959"/>
<path d="M153.789 184.738H163.256L163.552 186.418H153.789V184.738Z" fill="#575959"/>
<path d="M171.042 184.244H180.509L180.805 185.924H171.042V184.244Z" fill="#575959"/>
<path d="M187.209 183.838H196.676L196.972 185.528H187.209V183.838Z" fill="#575959"/>
<path d="M207.239 183.246H216.706L217.002 184.935H207.239V183.246Z" fill="#575959"/>
<path d="M249.701 250.223C266.39 250.223 279.919 236.694 279.919 220.005C279.919 203.316 266.39 189.787 249.701 189.787C233.012 189.787 219.482 203.316 219.482 220.005C219.482 236.694 233.012 250.223 249.701 250.223Z" fill="#203AB6"/>
<path opacity="0.3" d="M249.701 250.223C266.39 250.223 279.919 236.694 279.919 220.005C279.919 203.316 266.39 189.787 249.701 189.787C233.012 189.787 219.482 203.316 219.482 220.005C219.482 236.694 233.012 250.223 249.701 250.223Z" fill="black"/>
<path d="M249.701 219.966L220.224 226.596C215.48 204.857 233.01 189.748 249.701 189.748" fill="#203AB6"/>
<path d="M249.74 219.966L249.542 189.748C271.796 189.748 282.823 210.094 279.266 226.399L249.74 219.966Z" fill="#203AB6"/>
<path d="M249.74 219.966L249.542 189.748C271.796 189.748 282.823 210.094 279.266 226.399L249.74 219.966Z" fill="#203AB6"/>
<path opacity="0.1" d="M249.74 219.966L249.542 189.748C271.796 189.748 282.823 210.094 279.266 226.399L249.74 219.966Z" fill="black"/>
<path d="M280.7 148.452C280.113 148.06 279.487 147.728 278.832 147.464C277.007 146.906 275.049 146.961 273.259 147.622C270.947 148.343 268.654 150.181 266.431 152.484C264.207 154.786 261.826 157.573 258.347 159.203C256.669 160.037 254.78 160.35 252.922 160.102C251.246 159.755 249.627 159.176 248.11 158.383C246.775 157.688 245.347 157.185 243.871 156.891C242.586 156.689 241.271 156.854 240.076 157.365C238.317 158.112 236.879 159.456 236.015 161.16C235.737 161.8 235.509 162.461 235.333 163.136C235.364 162.421 235.535 161.72 235.837 161.071C236.664 159.271 238.119 157.835 239.928 157.029C241.167 156.478 242.536 156.282 243.881 156.466C245.406 156.749 246.883 157.248 248.268 157.948C249.745 158.715 251.322 159.273 252.952 159.608C254.71 159.827 256.493 159.525 258.081 158.739C261.421 157.178 263.763 154.411 266.045 152.148C268.328 149.885 270.69 147.978 273.091 147.276C274.956 146.625 276.987 146.625 278.852 147.276C279.349 147.468 279.818 147.727 280.245 148.047C280.413 148.163 280.566 148.299 280.7 148.452Z" fill="#575959"/>
<path d="M283.259 167.979C283.259 168.127 272.528 168.236 259.296 168.236C246.064 168.236 235.333 168.127 235.333 167.979C235.333 167.83 246.064 167.722 259.296 167.722C272.528 167.722 283.259 167.84 283.259 167.979Z" fill="#575959"/>
<path d="M280.591 167.979C280.453 167.979 280.334 161.872 280.334 154.332C280.334 146.792 280.453 140.695 280.591 140.695C280.729 140.695 280.848 146.802 280.848 154.332C280.848 161.862 280.739 167.979 280.591 167.979Z" fill="#575959"/>
<path d="M240.164 156.486C240.164 156.486 240.095 156.387 240.164 156.209C240.21 156.085 240.282 155.971 240.376 155.877C240.47 155.784 240.583 155.711 240.708 155.666C240.896 155.583 241.103 155.553 241.306 155.579C241.51 155.605 241.703 155.686 241.864 155.814C242.038 156.01 242.141 156.258 242.155 156.52C242.17 156.781 242.095 157.039 241.944 157.253C241.792 157.466 241.573 157.622 241.321 157.694C241.07 157.767 240.801 157.752 240.559 157.652C240.389 157.551 240.249 157.405 240.154 157.232C240.058 157.058 240.011 156.862 240.016 156.664C240.014 156.532 240.038 156.402 240.087 156.279C240.137 156.157 240.21 156.046 240.303 155.953C240.451 155.834 240.56 155.834 240.569 155.854C240.579 155.874 240.303 156.14 240.372 156.644C240.386 156.774 240.429 156.899 240.5 157.008C240.57 157.118 240.665 157.21 240.777 157.277C240.916 157.312 241.061 157.304 241.196 157.255C241.33 157.206 241.446 157.117 241.529 157.001C241.613 156.885 241.659 156.746 241.662 156.603C241.665 156.46 241.625 156.32 241.548 156.2C241.448 156.118 241.331 156.062 241.205 156.036C241.08 156.011 240.95 156.016 240.826 156.051C240.322 156.13 240.233 156.506 240.164 156.486Z" fill="#575959"/>
<path d="M272.477 146.575C272.477 146.575 272.477 146.456 272.655 146.357C272.885 146.242 273.151 146.22 273.396 146.298C273.591 146.351 273.768 146.456 273.908 146.603C274.047 146.749 274.144 146.931 274.187 147.128C274.202 147.383 274.131 147.635 273.985 147.845C273.839 148.054 273.627 148.209 273.383 148.283C273.139 148.357 272.876 148.347 272.639 148.254C272.401 148.161 272.201 147.99 272.072 147.77C272.001 147.58 271.983 147.373 272.019 147.173C272.056 146.973 272.146 146.787 272.28 146.634C272.447 146.436 272.684 146.312 272.942 146.288C273.12 146.288 273.209 146.347 273.199 146.377C273.189 146.407 272.823 146.426 272.576 146.851C272.508 146.957 272.465 147.077 272.451 147.203C272.438 147.328 272.453 147.454 272.497 147.573C272.584 147.679 272.701 147.758 272.832 147.798C272.964 147.838 273.105 147.837 273.236 147.797C273.368 147.757 273.484 147.678 273.571 147.571C273.658 147.464 273.71 147.334 273.723 147.197C273.696 147.074 273.642 146.959 273.563 146.861C273.484 146.763 273.383 146.685 273.268 146.634C272.833 146.416 272.527 146.644 272.477 146.575Z" fill="#575959"/>
<path d="M279.74 114.232C279.74 114.37 269.345 114.489 256.528 114.489C243.712 114.489 233.316 114.37 233.316 114.232C233.316 114.094 243.702 113.975 256.528 113.975C269.355 113.975 279.74 114.113 279.74 114.232Z" fill="#575959"/>
<path d="M279.74 120.705C279.74 120.853 269.345 120.962 256.528 120.962C243.712 120.962 233.316 120.853 233.316 120.705C233.316 120.556 243.702 120.448 256.528 120.448C269.355 120.448 279.74 120.566 279.74 120.705Z" fill="#575959"/>
<path d="M279.74 127.157C279.74 127.296 269.345 127.414 256.528 127.414C243.712 127.414 233.316 127.296 233.316 127.157C233.316 127.019 243.702 126.9 256.528 126.9C269.355 126.9 279.74 127.009 279.74 127.157Z" fill="#575959"/>
<path d="M279.74 133.6C279.74 133.748 269.345 133.857 256.528 133.857C243.712 133.857 233.316 133.748 233.316 133.6C233.316 133.452 243.702 133.343 256.528 133.343C269.355 133.343 279.74 133.462 279.74 133.6Z" fill="#575959"/>
<path d="M258.021 102.463H233.316V104.548H258.021V102.463Z" fill="#575959"/>
<path d="M156.042 205.983H131.338V208.068H156.042V205.983Z" fill="#575959"/>
<path d="M198.939 218.068C198.939 218.217 183.948 218.325 165.46 218.325C146.971 218.325 131.971 218.217 131.971 218.068C131.971 217.92 146.961 217.812 165.46 217.812C183.958 217.812 198.939 217.93 198.939 218.068Z" fill="#575959"/>
<path d="M199.333 223.919C199.333 224.057 184.076 224.175 165.261 224.175C146.447 224.175 131.189 224.057 131.189 223.919C131.189 223.78 146.437 223.662 165.261 223.662C184.086 223.662 199.333 223.8 199.333 223.919Z" fill="#575959"/>
<path d="M200.114 229.433C200.114 229.571 184.768 229.69 165.845 229.69C146.921 229.69 131.575 229.571 131.575 229.433C131.575 229.294 146.921 229.176 165.845 229.176C184.768 229.176 200.114 229.284 200.114 229.433Z" fill="#575959"/>
<path d="M167.219 235.302C167.219 235.441 159.313 235.559 149.59 235.559C139.866 235.559 131.971 235.441 131.971 235.302C131.971 235.164 139.876 235.045 149.59 235.045C159.303 235.045 167.219 235.164 167.219 235.302Z" fill="#575959"/>
<path d="M59.6063 395.266V386.373L42.8766 386.225L42.7383 399.298L43.7264 399.367C48.3412 399.654 67.2053 400.494 70.2983 399.585C73.7964 398.557 59.6063 395.266 59.6063 395.266Z" fill="#203AB6"/>
<path d="M70.7423 398.764C70.7423 398.922 64.4872 399.051 56.7697 399.051C49.0521 399.051 42.7871 398.922 42.7871 398.764C42.7871 398.606 49.0521 398.478 56.7697 398.478C64.4872 398.478 70.7423 398.606 70.7423 398.764Z" fill="#575959"/>
<path d="M59.9028 397.094C59.7644 397.015 59.9028 396.531 60.2388 396.106C60.5748 395.681 61.0392 395.404 61.138 395.513C61.2368 395.622 61.0194 396.027 60.6933 396.501C60.3672 396.975 60.0411 397.173 59.9028 397.094Z" fill="#575959"/>
<path d="M60.9693 397.678C60.8211 397.618 60.9001 397.085 61.2262 396.531C61.5523 395.978 61.9871 395.642 62.1057 395.741C62.2243 395.84 62.0266 396.304 61.7203 396.818C61.414 397.332 61.1175 397.737 60.9693 397.678Z" fill="#575959"/>
<path d="M47.8174 398.705C47.7483 398.755 47.4914 398.518 47.1257 398.122C46.6807 397.606 46.1877 397.133 45.6534 396.709C45.1205 396.318 44.4995 396.063 43.845 395.968C43.3411 395.899 43.015 395.968 42.9853 395.889C42.9557 395.81 43.2719 395.602 43.8549 395.563C44.6232 395.541 45.3761 395.781 45.9893 396.245C46.5739 396.693 47.0698 397.246 47.4518 397.875C47.7582 398.34 47.8965 398.656 47.8174 398.705Z" fill="#575959"/>
<path d="M59.9524 395.415C60.0314 395.543 59.735 395.859 59.2607 396.027C58.7864 396.195 58.3614 396.136 58.3417 395.978C58.3219 395.82 58.648 395.642 59.0729 395.494C59.4978 395.346 59.8635 395.276 59.9524 395.415Z" fill="#575959"/>
<path d="M59.6756 394.545C59.6756 394.703 59.2408 394.841 58.6874 394.851C58.134 394.861 57.6992 394.732 57.6992 394.574C57.6992 394.416 58.1538 394.288 58.6874 394.278C59.221 394.268 59.6756 394.387 59.6756 394.545Z" fill="#203AB6"/>
<path d="M70.7423 398.764C70.7423 398.922 64.4872 399.051 56.7697 399.051C49.0521 399.051 42.7871 398.922 42.7871 398.764C42.7871 398.606 49.0521 398.478 56.7697 398.478C64.4872 398.478 70.7423 398.606 70.7423 398.764Z" fill="#575959"/>
<path d="M59.9028 397.094C59.7644 397.015 59.9028 396.531 60.2388 396.106C60.5748 395.681 61.0392 395.404 61.138 395.513C61.2368 395.622 61.0194 396.027 60.6933 396.501C60.3672 396.975 60.0411 397.173 59.9028 397.094Z" fill="#575959"/>
<path d="M60.9693 397.678C60.8211 397.618 60.9001 397.085 61.2262 396.531C61.5523 395.978 61.9871 395.642 62.1057 395.741C62.2243 395.84 62.0266 396.304 61.7203 396.818C61.414 397.332 61.1175 397.737 60.9693 397.678Z" fill="#575959"/>
<path d="M47.8174 398.705C47.7483 398.755 47.4914 398.518 47.1257 398.122C46.6807 397.606 46.1877 397.133 45.6534 396.709C45.1205 396.318 44.4995 396.063 43.845 395.968C43.3411 395.899 43.015 395.968 42.9853 395.889C42.9557 395.81 43.2719 395.602 43.8549 395.563C44.6232 395.541 45.3761 395.781 45.9893 396.245C46.5739 396.693 47.0698 397.246 47.4518 397.875C47.7582 398.34 47.8965 398.656 47.8174 398.705Z" fill="#575959"/>
<path d="M59.9524 395.415C60.0314 395.543 59.735 395.859 59.2607 396.027C58.7864 396.195 58.3614 396.136 58.3417 395.978C58.3219 395.82 58.648 395.642 59.0729 395.494C59.4978 395.346 59.8635 395.276 59.9524 395.415Z" fill="#575959"/>
<path d="M59.6756 394.545C59.6756 394.703 59.2408 394.841 58.6874 394.851C58.134 394.861 57.6992 394.732 57.6992 394.574C57.6992 394.416 58.1538 394.288 58.6874 394.278C59.221 394.268 59.6756 394.387 59.6756 394.545Z" fill="#575959"/>
<path d="M77.2545 392.104L79.8929 383.576L63.9439 378.517L59.9912 390.958L60.9794 391.334C65.2977 392.974 83.0748 399.358 86.2962 399.407C89.8338 399.446 77.2545 392.104 77.2545 392.104Z" fill="#203AB6"/>
<path d="M86.8597 398.735C86.8597 398.893 80.7924 397.164 73.4207 394.871C66.049 392.579 60.1101 390.612 60.1595 390.464C60.2089 390.316 66.2169 392.045 73.5985 394.328C80.9802 396.61 86.9092 398.587 86.8597 398.735Z" fill="#575959"/>
<path d="M76.9984 393.933C76.8897 393.814 77.1466 393.399 77.6209 393.053C78.0952 392.707 78.6091 392.618 78.6585 392.757C78.7079 392.895 78.3917 393.211 77.9569 393.527C77.5221 393.844 77.1071 394.041 76.9984 393.933Z" fill="#575959"/>
<path d="M77.8376 394.812C77.719 394.713 77.9463 394.219 78.4305 393.824C78.9147 393.429 79.4187 393.201 79.5076 393.33C79.5965 393.458 79.2605 393.844 78.8159 394.249C78.3712 394.654 77.9661 394.871 77.8376 394.812Z" fill="#575959"/>
<path d="M64.9915 391.907C64.9124 391.907 64.7444 391.64 64.5171 391.146C64.2457 390.522 63.9148 389.927 63.529 389.367C63.1366 388.836 62.6212 388.409 62.027 388.122C61.5625 387.914 61.2266 387.875 61.2266 387.796C61.2266 387.717 61.5823 387.598 62.1554 387.737C62.8925 387.946 63.5369 388.399 63.9835 389.021C64.4067 389.619 64.718 390.289 64.9025 390.997C65.031 391.531 65.0606 391.907 64.9915 391.907Z" fill="#455A64"/>
<path d="M77.5412 392.341C77.5412 392.49 77.2052 392.707 76.7012 392.727C76.1973 392.746 75.802 392.559 75.8316 392.401C75.8613 392.242 76.2368 392.173 76.6815 392.154C77.1261 392.134 77.4621 392.183 77.5412 392.341Z" fill="#575959"/>
<path d="M77.5414 391.442C77.5414 391.59 77.0473 391.59 76.5038 391.442C75.9604 391.294 75.575 391.027 75.6244 390.879C75.6738 390.731 76.1481 390.741 76.662 390.879C77.1758 391.017 77.581 391.284 77.5414 391.442Z" fill="#575959"/>
<path d="M88.6084 218.612L66.6513 216.922L33.3896 214.225L37.1052 392.895L65.9893 392.52C65.9893 392.52 65.9893 390.543 65.9201 387.045L82.8573 391.68C82.8573 391.68 99.3597 335.927 104.982 313.051C109.676 293.989 88.6084 218.612 88.6084 218.612ZM65.6039 359.297C65.1691 318.051 64.6651 247.911 65.2679 239.334C65.2679 239.334 81.3553 301.084 81.5035 305.956C81.6023 308.901 72.6396 337.4 65.6039 359.297Z" fill="#455A64"/>
<path d="M66.1476 385.75C66.1476 385.909 59.6849 386.037 51.7203 386.037C43.7557 386.037 37.2832 385.909 37.2832 385.75C37.2832 385.592 43.7458 385.464 51.7203 385.464C59.6948 385.464 66.1476 385.592 66.1476 385.75Z" fill="#455A64"/>
<path d="M65.8906 379.327C66.7941 379.541 67.6795 379.825 68.5389 380.177L75.1498 382.479L81.7606 384.792C82.6955 385.059 83.6023 385.416 84.4682 385.859C83.5028 385.725 82.553 385.496 81.6321 385.177C79.9127 384.673 77.551 383.922 74.962 383.023C72.373 382.124 70.0212 381.234 68.4006 380.552C67.5112 380.262 66.6665 379.85 65.8906 379.327Z" fill="#455A64"/>
<path d="M92.3539 305.402C90.5675 305.819 88.743 306.05 86.9091 306.094C85.0904 306.326 83.2524 306.369 81.4248 306.222C83.2102 305.799 85.0351 305.564 86.8696 305.521C88.6885 305.289 90.5267 305.249 92.3539 305.402Z" fill="#455A64"/>
<path d="M90.4671 308.644C89.0466 308.524 87.6479 308.218 86.3069 307.735C84.9112 307.43 83.5621 306.942 82.2949 306.282C83.7195 306.39 85.1225 306.693 86.465 307.181C88.718 307.834 90.5165 308.486 90.4671 308.644Z" fill="#455A64"/>
<path d="M67.9266 217.149C68.0594 218.277 68.1089 219.414 68.0748 220.549C68.0748 222.654 68.0748 225.559 68.0748 228.77C68.0748 230.361 68.0748 231.883 68.0155 233.286C68.0517 234.55 67.8158 235.807 67.3238 236.972C66.9733 237.766 66.413 238.449 65.7032 238.948C65.4612 239.149 65.1722 239.285 64.8633 239.344C64.8633 239.344 65.14 239.166 65.5846 238.79C66.2086 238.255 66.6935 237.577 66.9977 236.814C67.4097 235.682 67.5944 234.48 67.5412 233.276C67.5412 231.863 67.5412 230.312 67.5412 228.751C67.5412 225.539 67.6203 222.634 67.6796 220.539C67.6764 219.404 67.759 218.271 67.9266 217.149Z" fill="#455A64"/>
<path d="M51.3947 216.142C51.4053 216.286 51.4053 216.432 51.3947 216.576C51.3947 216.893 51.3947 217.318 51.3947 217.861C51.3947 219.007 51.3057 220.667 51.2366 222.802C51.0982 227.1 50.9006 233.276 50.6536 240.895C50.1891 256.172 49.7148 277.289 49.5962 300.6C49.4776 323.911 49.7444 345.068 50.0508 360.335C50.2188 367.954 50.3472 374.169 50.446 378.428C50.446 380.553 50.5251 382.203 50.5547 383.369C50.5547 383.913 50.5547 384.357 50.5547 384.654C50.5654 384.798 50.5654 384.944 50.5547 385.088C50.5441 384.944 50.5441 384.798 50.5547 384.654C50.5547 384.347 50.5547 383.922 50.4856 383.379C50.4856 382.223 50.3769 380.573 50.2879 378.438C50.1199 374.169 49.9223 367.983 49.7247 360.345C49.3195 345.058 49.0033 323.941 49.1219 300.6C49.2405 277.26 49.7741 256.133 50.3275 240.885C50.6041 233.247 50.8611 227.051 51.0785 222.792C51.1872 220.677 51.2761 219.027 51.3354 217.851C51.3354 217.308 51.3947 216.863 51.4144 216.567C51.3977 216.426 51.3911 216.284 51.3947 216.142Z" fill="#455A64"/>
<path d="M81.4147 220.638C81.4747 220.769 81.5242 220.904 81.5629 221.043C81.6519 221.339 81.7803 221.735 81.9384 222.248C82.2546 223.306 82.7586 224.867 83.312 226.903C84.4484 230.964 85.98 236.863 87.6896 244.205C89.3991 251.548 91.2964 260.303 93.2727 270.066C95.249 279.829 97.3341 290.58 99.2017 301.924C99.4389 303.347 99.6563 304.76 99.844 306.173C99.844 306.549 99.9132 306.934 99.9132 307.3L99.7353 308.347C99.6068 309.049 99.508 309.751 99.3499 310.432C98.7867 313.179 98.1543 315.867 97.4724 318.496C96.1285 323.753 94.7055 328.783 93.3024 333.565C90.5157 343.131 87.8279 351.688 85.5452 358.872C83.2626 366.056 81.3554 371.837 80.0115 375.829L78.4502 380.424L78.0253 381.62C77.9884 381.757 77.9354 381.89 77.8672 382.015C77.893 381.874 77.9293 381.736 77.9759 381.6C78.0747 381.304 78.1933 380.908 78.3514 380.395L79.8238 375.77L85.1994 358.764C87.4326 351.57 90.0809 343.002 92.8478 333.437C94.2312 328.654 95.6443 323.615 96.9882 318.367C97.6602 315.749 98.2926 313.071 98.8558 310.334C99.014 309.652 99.1029 308.96 99.2215 308.268L99.3993 307.231C99.3993 306.895 99.3499 306.569 99.3302 306.243C99.1424 304.849 98.9349 303.436 98.6977 302.023C96.8202 290.689 94.7451 279.938 92.7687 270.174C90.7924 260.411 89.0038 251.587 87.3437 244.285C85.6836 236.982 84.1915 231.023 83.1144 226.952C82.6005 224.916 82.1262 223.345 81.8396 222.278L81.5135 221.063C81.465 220.925 81.4319 220.783 81.4147 220.638Z" fill="#455A64"/>
<path d="M65.5156 355.671C65.5952 356.131 65.625 356.598 65.6045 357.064C65.6045 358.052 65.6045 359.347 65.654 360.879C65.654 364.189 65.7725 368.586 65.8417 373.438C65.9109 378.29 66.0986 382.687 66.1876 385.998C66.1876 387.529 66.2666 388.814 66.2963 389.812C66.3409 390.275 66.3409 390.742 66.2963 391.205C66.1872 390.752 66.1276 390.288 66.1184 389.822C66.0393 388.923 65.9504 387.628 65.8516 386.018C65.654 382.806 65.4662 378.359 65.3575 373.448C65.2488 368.537 65.2686 364.09 65.3575 360.879C65.3575 359.268 65.4267 357.914 65.4662 357.064C65.4462 356.599 65.4627 356.133 65.5156 355.671Z" fill="#455A64"/>
<path d="M88.6084 218.612L66.6513 216.922L33.3896 214.225L37.1052 392.895L65.9893 392.52C65.9893 392.52 65.9893 390.543 65.9201 387.045L82.8573 391.68C82.8573 391.68 99.3597 335.927 104.982 313.051C109.676 293.989 88.6084 218.612 88.6084 218.612ZM65.6039 359.297C65.1691 318.051 64.6651 247.911 65.2679 239.334C65.2679 239.334 81.3553 301.084 81.5035 305.956C81.6023 308.901 72.6396 337.4 65.6039 359.297Z" fill="#575959"/>
<path d="M66.1476 385.75C66.1476 385.909 59.6849 386.037 51.7203 386.037C43.7557 386.037 37.2832 385.909 37.2832 385.75C37.2832 385.592 43.7458 385.464 51.7203 385.464C59.6948 385.464 66.1476 385.592 66.1476 385.75Z" fill="#455A64"/>
<path d="M65.8906 379.327C66.7941 379.541 67.6795 379.825 68.5389 380.177L75.1498 382.479L81.7606 384.792C82.6955 385.059 83.6023 385.416 84.4682 385.859C83.5028 385.725 82.553 385.496 81.6321 385.177C79.9127 384.673 77.551 383.922 74.962 383.023C72.373 382.124 70.0212 381.234 68.4006 380.552C67.5112 380.262 66.6665 379.85 65.8906 379.327Z" fill="#455A64"/>
<path d="M92.3539 305.402C90.5675 305.819 88.743 306.05 86.9091 306.094C85.0904 306.326 83.2524 306.369 81.4248 306.222C83.2102 305.799 85.0351 305.564 86.8696 305.521C88.6885 305.289 90.5267 305.249 92.3539 305.402Z" fill="#455A64"/>
<path d="M90.4671 308.644C89.0466 308.524 87.6479 308.218 86.3069 307.735C84.9112 307.43 83.5621 306.942 82.2949 306.282C83.7195 306.39 85.1225 306.693 86.465 307.181C88.718 307.834 90.5165 308.486 90.4671 308.644Z" fill="#455A64"/>
<path d="M67.9266 217.149C68.0594 218.277 68.1089 219.414 68.0748 220.549C68.0748 222.654 68.0748 225.559 68.0748 228.77C68.0748 230.361 68.0748 231.883 68.0155 233.286C68.0517 234.55 67.8158 235.807 67.3238 236.972C66.9733 237.766 66.413 238.449 65.7032 238.948C65.4612 239.149 65.1722 239.285 64.8633 239.344C64.8633 239.344 65.14 239.166 65.5846 238.79C66.2086 238.255 66.6935 237.577 66.9977 236.814C67.4097 235.682 67.5944 234.48 67.5412 233.276C67.5412 231.863 67.5412 230.312 67.5412 228.751C67.5412 225.539 67.6203 222.634 67.6796 220.539C67.6764 219.404 67.759 218.271 67.9266 217.149Z" fill="#455A64"/>
<path d="M51.3947 216.142C51.4053 216.286 51.4053 216.432 51.3947 216.576C51.3947 216.893 51.3947 217.318 51.3947 217.861C51.3947 219.007 51.3057 220.667 51.2366 222.802C51.0982 227.1 50.9006 233.276 50.6536 240.895C50.1891 256.172 49.7148 277.289 49.5962 300.6C49.4776 323.911 49.7444 345.068 50.0508 360.335C50.2188 367.954 50.3472 374.169 50.446 378.428C50.446 380.553 50.5251 382.203 50.5547 383.369C50.5547 383.913 50.5547 384.357 50.5547 384.654C50.5654 384.798 50.5654 384.944 50.5547 385.088C50.5441 384.944 50.5441 384.798 50.5547 384.654C50.5547 384.347 50.5547 383.922 50.4856 383.379C50.4856 382.223 50.3769 380.573 50.2879 378.438C50.1199 374.169 49.9223 367.983 49.7247 360.345C49.3195 345.058 49.0033 323.941 49.1219 300.6C49.2405 277.26 49.7741 256.133 50.3275 240.885C50.6041 233.247 50.8611 227.051 51.0785 222.792C51.1872 220.677 51.2761 219.027 51.3354 217.851C51.3354 217.308 51.3947 216.863 51.4144 216.567C51.3977 216.426 51.3911 216.284 51.3947 216.142Z" fill="#455A64"/>
<path d="M81.4147 220.638C81.4747 220.769 81.5242 220.904 81.5629 221.043C81.6519 221.339 81.7803 221.735 81.9384 222.248C82.2546 223.306 82.7586 224.867 83.312 226.903C84.4484 230.964 85.98 236.863 87.6896 244.205C89.3991 251.548 91.2964 260.303 93.2727 270.066C95.249 279.829 97.3341 290.58 99.2017 301.924C99.4389 303.347 99.6563 304.76 99.844 306.173C99.844 306.549 99.9132 306.934 99.9132 307.3L99.7353 308.347C99.6068 309.049 99.508 309.751 99.3499 310.432C98.7867 313.179 98.1543 315.867 97.4724 318.496C96.1285 323.753 94.7055 328.783 93.3024 333.565C90.5157 343.131 87.8279 351.688 85.5452 358.872C83.2626 366.056 81.3554 371.837 80.0115 375.829L78.4502 380.424L78.0253 381.62C77.9884 381.757 77.9354 381.89 77.8672 382.015C77.893 381.874 77.9293 381.736 77.9759 381.6C78.0747 381.304 78.1933 380.908 78.3514 380.395L79.8238 375.77L85.1994 358.764C87.4326 351.57 90.0809 343.002 92.8478 333.437C94.2312 328.654 95.6443 323.615 96.9882 318.367C97.6602 315.749 98.2926 313.071 98.8558 310.334C99.014 309.652 99.1029 308.96 99.2215 308.268L99.3993 307.231C99.3993 306.895 99.3499 306.569 99.3302 306.243C99.1424 304.849 98.9349 303.436 98.6977 302.023C96.8202 290.689 94.7451 279.938 92.7687 270.174C90.7924 260.411 89.0038 251.587 87.3437 244.285C85.6836 236.982 84.1915 231.023 83.1144 226.952C82.6005 224.916 82.1262 223.345 81.8396 222.278L81.5135 221.063C81.465 220.925 81.4319 220.783 81.4147 220.638Z" fill="#455A64"/>
<path d="M65.5156 355.671C65.5952 356.131 65.625 356.598 65.6045 357.064C65.6045 358.052 65.6045 359.347 65.654 360.879C65.654 364.189 65.7725 368.586 65.8417 373.438C65.9109 378.29 66.0986 382.687 66.1876 385.998C66.1876 387.529 66.2666 388.814 66.2963 389.812C66.3409 390.275 66.3409 390.742 66.2963 391.205C66.1872 390.752 66.1276 390.288 66.1184 389.822C66.0393 388.923 65.9504 387.628 65.8516 386.018C65.654 382.806 65.4662 378.359 65.3575 373.448C65.2488 368.537 65.2686 364.09 65.3575 360.879C65.3575 359.268 65.4267 357.914 65.4662 357.064C65.4462 356.599 65.4627 356.133 65.5156 355.671Z" fill="#455A64"/>
<path d="M50.7823 132.859L67.5811 134.104C67.8084 132.128 68.1345 124.608 68.1345 124.608C68.1345 124.608 75.1406 123.965 75.6544 117.028C76.1683 110.091 75.9509 94.0732 75.9509 94.0732C72.1102 92.1321 67.8207 91.2524 63.526 91.5251C59.2314 91.7979 55.0876 93.2132 51.5234 95.6247L50.4463 96.3559L50.7823 132.859Z" fill="#E5BAAB"/>
<path d="M73.5589 105.901C73.4257 105.761 73.3366 105.585 73.3026 105.395C73.2685 105.204 73.291 105.008 73.3672 104.831C73.4435 104.653 73.5702 104.502 73.7316 104.395C73.893 104.289 74.082 104.232 74.2753 104.232C74.4686 104.232 74.6576 104.289 74.819 104.395C74.9804 104.502 75.107 104.653 75.1833 104.831C75.2595 105.008 75.282 105.204 75.248 105.395C75.2139 105.585 75.1248 105.761 74.9917 105.901C74.8994 105.998 74.7883 106.076 74.6651 106.129C74.5419 106.181 74.4093 106.209 74.2753 106.209C74.1412 106.209 74.0086 106.181 73.8855 106.129C73.7623 106.076 73.6512 105.998 73.5589 105.901Z" fill="#575959"/>
<path d="M75.3378 104.419C75.2192 104.538 74.5769 103.975 73.6184 103.906C72.6599 103.836 71.9385 104.291 71.8397 104.163C71.7409 104.034 71.9089 103.896 72.235 103.688C72.6554 103.412 73.157 103.287 73.6579 103.332C74.1626 103.363 74.6427 103.561 75.0216 103.896C75.3082 104.143 75.3971 104.35 75.3378 104.419Z" fill="#575959"/>
<path d="M64.2702 104.577C64.4267 104.692 64.5461 104.849 64.6137 105.031C64.6812 105.213 64.6938 105.41 64.6499 105.599C64.606 105.788 64.5077 105.959 64.367 106.093C64.2263 106.226 64.0496 106.315 63.8587 106.349C63.6679 106.382 63.4714 106.359 63.2936 106.282C63.1159 106.204 62.9648 106.077 62.8591 105.914C62.7534 105.752 62.6978 105.562 62.6992 105.368C62.7007 105.174 62.759 104.985 62.867 104.824C62.9412 104.714 63.0369 104.62 63.1485 104.547C63.26 104.475 63.385 104.425 63.516 104.402C63.6471 104.379 63.7814 104.383 63.911 104.413C64.0406 104.443 64.1628 104.499 64.2702 104.577Z" fill="#575959"/>
<path d="M64.9033 104.627C64.7847 104.736 64.1424 104.172 63.1839 104.103C62.2254 104.034 61.504 104.499 61.4052 104.37C61.3064 104.242 61.4744 104.093 61.7906 103.886C62.219 103.62 62.7203 103.495 63.2234 103.53C63.7266 103.567 64.2047 103.764 64.5871 104.093C64.8737 104.35 64.9626 104.578 64.9033 104.627Z" fill="#575959"/>
<path d="M68.2525 112.749C68.758 112.593 69.2848 112.516 69.8138 112.522C70.0708 112.522 70.2783 112.473 70.3079 112.334C70.3329 112.079 70.2849 111.822 70.1696 111.593L69.5371 109.617C68.9286 107.927 68.482 106.183 68.2031 104.409C68.9688 106.032 69.5809 107.722 70.0312 109.459L70.6241 111.435C70.7668 111.762 70.7947 112.128 70.7032 112.473C70.6617 112.565 70.5988 112.646 70.5198 112.71C70.4408 112.774 70.3479 112.817 70.2486 112.838C70.1076 112.857 69.9648 112.857 69.8237 112.838C69.2986 112.893 68.7681 112.863 68.2525 112.749Z" fill="#575959"/>
<path d="M65.0801 113.609C64.092 112.957 67.7284 115.24 69.685 115.269C69.3296 115.751 68.8211 116.097 68.2429 116.252C67.6647 116.406 67.0512 116.359 66.5031 116.119C64.4675 115.22 65.0801 113.609 65.0801 113.609Z" fill="white"/>
<path d="M68.0947 124.508C64.886 124.373 61.7902 123.286 59.2012 121.386C59.2012 121.386 61.0293 126.514 67.9959 126.327L68.0947 124.508Z" fill="#D78776"/>
<path d="M51.7703 102.512C51.6122 102.453 46.6121 101.8 47.0864 107.71C47.5607 113.619 53.3711 111.178 53.3613 111.01C53.3514 110.842 51.7703 102.512 51.7703 102.512Z" fill="#E5BAAB"/>
<path d="M51.3352 109.083C51.3352 109.083 51.2463 109.162 51.0783 109.261C50.8404 109.383 50.5653 109.411 50.3075 109.34C49.9074 109.127 49.5707 108.812 49.3313 108.426C49.0919 108.041 48.9582 107.6 48.9439 107.146C48.8894 106.642 48.9502 106.132 49.1217 105.654C49.1613 105.465 49.2457 105.289 49.3678 105.139C49.4899 104.989 49.6461 104.871 49.8233 104.795C49.9401 104.757 50.0661 104.76 50.1809 104.803C50.2957 104.846 50.3926 104.927 50.4558 105.032C50.5447 105.19 50.5249 105.308 50.5546 105.318C50.5842 105.328 50.6732 105.21 50.5546 104.973C50.5134 104.827 50.4224 104.702 50.2977 104.617C50.1224 104.512 49.9145 104.477 49.7146 104.518C49.4793 104.585 49.2649 104.71 49.0919 104.883C48.9189 105.056 48.7931 105.271 48.7265 105.506C48.5134 106.035 48.4353 106.609 48.4992 107.176C48.5102 107.704 48.6775 108.217 48.9801 108.65C49.2826 109.082 49.7068 109.415 50.1989 109.607C50.3608 109.641 50.5283 109.638 50.6891 109.599C50.8499 109.56 50.9997 109.485 51.1277 109.38C51.3352 109.232 51.3649 109.093 51.3352 109.083Z" fill="#D78776"/>
<path d="M76.3948 91.5731C76.7948 91.5624 77.1869 91.4599 77.5409 91.2734C77.8949 91.087 78.2013 90.8216 78.4363 90.4978C78.6713 90.174 78.8287 89.8005 78.8964 89.4062C78.964 89.0118 78.94 88.6072 78.8262 88.2237C78.7125 87.8401 78.512 87.4878 78.2404 87.1941C77.9688 86.9003 77.6332 86.673 77.2596 86.5297C76.8861 86.3863 76.4846 86.3309 76.0862 86.3675C75.6878 86.4041 75.3031 86.5319 74.962 86.741C75.7884 86.055 76.4617 85.2033 76.9383 84.2409C77.1689 83.7555 77.2451 83.2111 77.1568 82.6811C77.0684 82.151 76.8198 81.6608 76.4443 81.2764C76.0094 80.9887 75.5064 80.8207 74.9859 80.7895C74.4654 80.7583 73.9459 80.8649 73.4798 81.0986C72.0074 81.731 70.8413 82.9761 69.3295 83.4998C67.8176 84.0235 66.1278 83.7666 64.5072 83.8358C62.6887 83.8682 60.9275 84.4772 59.4774 85.575C58.2418 86.5458 57.4421 87.9675 57.2541 89.5276C57.0598 89.2609 56.8451 89.0098 56.6117 88.7766C55.8432 87.8594 54.8064 87.2062 53.6472 86.909C53.5781 87.0374 54.9319 87.7885 56.2263 89.1324C56.5788 89.4696 56.9089 89.8294 57.2145 90.2095C54.9615 89.9328 52.4812 89.913 50.7025 91.3162C49.9819 91.9585 49.4124 92.7524 49.0348 93.6408C48.6573 94.5292 48.481 95.4901 48.5187 96.4547C48.5187 98.3717 49.3092 100.2 49.8724 102.038C50.0087 102.559 50.2435 103.048 50.5642 103.481L51.414 108.421L54.5069 108.362L54.3093 97.9962C54.3093 97.9962 53.9931 93.6285 57.7481 94.0436C61.5032 94.4586 66.6416 98.6583 73.9343 97.5911C75.1309 97.5244 76.2967 97.1864 77.3435 96.6029C77.8502 96.2819 78.262 95.8316 78.5365 95.2983C78.8109 94.765 78.9381 94.1681 78.9048 93.5692C78.8329 92.9733 78.5292 92.4298 78.0594 92.0562C77.5896 91.6826 76.9916 91.509 76.3948 91.5731Z" fill="#575959"/>
<path d="M139.243 142.731L139.698 139.588C140.162 137.869 140.454 136.108 140.567 134.331C140.642 133.448 140.561 132.558 140.33 131.703C140.097 130.625 139.711 129.587 139.184 128.62C138.611 127.78 139.362 126.643 140.172 126.989C140.982 127.335 142.672 129.568 143.216 132.79C143.759 136.011 146.299 131.545 147.247 129.934C148.196 128.323 151.388 123.471 152.119 123.372C153.186 123.224 153.542 124.361 152.544 125.932C151.546 127.503 148.917 132.493 149.797 132.948C150.455 132.843 151.128 132.876 151.773 133.047C151.877 133.077 151.969 133.139 152.036 133.224C152.103 133.309 152.143 133.413 152.149 133.521C152.145 134.019 152.198 134.517 152.307 135.003C152.307 135.003 153.601 134.707 153.868 135.27C154.048 135.848 154.132 136.453 154.115 137.058C154.115 137.058 155.103 136.723 155.578 137.058C156.566 137.859 155.301 139.232 155.301 139.232C152.391 142.703 149.266 145.987 145.943 149.065L139.134 142.503" fill="#E5BAAB"/>
<path d="M151.91 135.22C151.619 135.831 151.229 136.389 150.754 136.87C150.359 137.345 149.864 137.859 149.281 138.481C148.977 138.805 148.647 139.102 148.293 139.37C148.076 139.544 147.813 139.65 147.536 139.678C147.259 139.707 146.98 139.654 146.732 139.529C146.597 139.449 146.482 139.339 146.398 139.207C146.314 139.074 146.262 138.924 146.248 138.768C146.228 138.489 146.29 138.211 146.426 137.967C146.669 137.6 146.933 137.247 147.216 136.91C147.72 136.277 148.135 135.685 148.481 135.171C148.813 134.59 149.193 134.038 149.617 133.521C149.453 134.178 149.172 134.8 148.787 135.358C148.428 135.994 148.032 136.608 147.602 137.196C147.339 137.512 147.095 137.842 146.87 138.185C146.692 138.511 146.702 138.916 146.989 139.064C147.15 139.132 147.327 139.156 147.5 139.134C147.674 139.111 147.839 139.043 147.977 138.936C148.305 138.687 148.615 138.417 148.906 138.125C149.499 137.572 150.013 137.048 150.438 136.604C150.88 136.094 151.374 135.63 151.91 135.22Z" fill="#D78776"/>
<path d="M153.64 137.246C153.349 137.774 152.975 138.251 152.533 138.659C152.087 139.138 151.601 139.577 151.08 139.974C150.768 140.21 150.438 140.421 150.092 140.606C149.887 140.709 149.667 140.779 149.44 140.814C149.303 140.836 149.162 140.829 149.028 140.793C148.893 140.757 148.768 140.694 148.659 140.606C148.477 140.417 148.362 140.174 148.331 139.913C148.301 139.652 148.357 139.389 148.491 139.163C148.692 138.811 148.927 138.48 149.193 138.175C149.628 137.671 150.033 137.187 150.438 136.703C151.159 135.873 151.634 135.389 151.693 135.428C151.432 135.971 151.1 136.476 150.705 136.93L149.598 138.501C149.365 138.781 149.153 139.078 148.966 139.391C148.89 139.517 148.854 139.663 148.865 139.81C148.876 139.957 148.931 140.097 149.025 140.211C149.203 140.379 149.578 140.31 149.905 140.151C150.229 139.984 150.542 139.795 150.843 139.588C151.357 139.222 151.848 138.826 152.316 138.402C152.708 137.965 153.153 137.576 153.64 137.246Z" fill="#D78776"/>
<path d="M154.045 140.072C154.095 140.072 154.045 140.517 153.581 141.061C153.44 141.229 153.267 141.367 153.072 141.467C152.877 141.567 152.663 141.627 152.444 141.644C152.161 141.646 151.886 141.552 151.664 141.377C151.541 141.274 151.443 141.145 151.376 141C151.31 140.855 151.276 140.697 151.278 140.537C151.357 140.033 151.561 139.557 151.871 139.153C152.08 138.827 152.307 138.514 152.553 138.215C152.978 137.701 153.284 137.434 153.344 137.483C153.403 137.533 153.186 137.869 152.85 138.472C152.652 138.817 152.454 139.134 152.276 139.46C152.038 139.808 151.874 140.202 151.792 140.616C151.8 140.784 151.872 140.942 151.993 141.058C152.115 141.174 152.277 141.239 152.444 141.238C152.772 141.228 153.085 141.098 153.324 140.873C153.769 140.398 153.976 140.033 154.045 140.072Z" fill="#D78776"/>
<path d="M138.502 138.649C138.502 138.649 112.582 164.154 108.946 164.342C104.795 164.539 92.0282 146.436 92.0282 146.436C83.856 133.827 73.0751 131.792 69.1422 131.475V129.914L49.8235 128.333C49.8235 128.333 49.8235 129.993 49.8235 131.446H41.2957C41.2957 131.446 25.9791 130.744 23.6865 151.318L34.6947 160.024L39.2106 176.822C40.7818 182.672 35.169 191.991 32.4911 207.08C32.0781 209.595 32.4979 212.177 33.6868 214.432L89.4688 220.845L86.5043 178.196L85.6051 168.314C90.2001 174.589 98.4512 183.463 108.56 183.265C125.804 182.939 149.757 146.703 149.757 146.703L138.502 138.649Z" fill="#E0E0E0"/>
<path d="M62.6395 129.637C62.7353 130.514 62.7353 131.399 62.6395 132.276C62.4954 134.471 62.1982 136.653 61.7502 138.807L61.681 139.133L61.3845 138.975C60.7126 138.62 60.011 138.244 59.2995 137.829C56.5326 136.199 54.1709 134.519 52.3823 133.353C51.4168 132.765 50.4863 132.122 49.5957 131.426C49.8914 131.512 50.174 131.639 50.4356 131.801C50.9495 132.088 51.6906 132.503 52.58 133.046C54.3784 134.133 56.7698 135.774 59.4971 137.384C60.1889 137.79 60.8806 138.175 61.5525 138.531L61.1869 138.699C61.76 136.149 62.0367 133.867 62.2442 132.246C62.3231 131.369 62.455 130.498 62.6395 129.637Z" fill="#FAFAFA"/>
<path d="M69.2013 131.584C69.0772 132.433 68.8923 133.272 68.6479 134.094C68.4602 134.875 68.2626 135.803 67.9266 136.811C67.7517 137.344 67.5438 137.866 67.304 138.373C67.2349 138.554 67.1105 138.71 66.9483 138.817C66.8358 138.886 66.7031 138.915 66.5721 138.899C66.441 138.883 66.3193 138.823 66.2269 138.728C66.0418 138.455 65.8923 138.16 65.7822 137.849C64.7941 135.606 64.0134 133.57 63.4403 132.078C63.0798 131.296 62.8049 130.478 62.6201 129.637C63.0817 130.364 63.469 131.135 63.7763 131.94C64.4383 133.392 65.3178 135.408 66.2566 137.651C66.3477 137.901 66.4601 138.142 66.5926 138.373C66.642 138.373 66.5925 138.373 66.6815 138.373C66.7559 138.312 66.8137 138.234 66.8495 138.145C67.0859 137.659 67.297 137.161 67.4819 136.653C67.8278 135.665 68.0649 134.756 68.2922 133.995C68.4887 133.155 68.7943 132.344 69.2013 131.584Z" fill="#FAFAFA"/>
<path d="M65.6042 200.598C65.557 200.367 65.5306 200.132 65.5252 199.896C65.5252 199.382 65.4857 198.723 65.4066 197.92C65.3276 196.101 65.209 193.582 65.0706 190.489C64.8335 184.164 64.4975 175.518 64.1418 165.972C63.786 156.427 63.5587 147.78 63.3611 141.456C63.2919 138.353 63.2326 135.833 63.1832 134.015C63.1832 133.185 63.1832 132.513 63.1832 132.039C63.1577 131.802 63.1577 131.564 63.1832 131.327C63.2288 131.558 63.2519 131.793 63.2524 132.029C63.2524 132.543 63.3315 133.215 63.3809 134.005C63.4599 135.813 63.5785 138.333 63.7168 141.426C63.954 147.75 64.2801 156.397 64.6457 165.943C65.0113 175.488 65.2189 184.135 65.4264 190.469C65.4955 193.562 65.5548 196.082 65.6042 197.9C65.6042 198.74 65.6042 199.412 65.6042 199.926C65.6275 200.149 65.6275 200.374 65.6042 200.598Z" fill="#F5F5F5"/>
<path d="M62.0869 135.882L63.7075 140.349L65.1008 135.556L62.9367 130.754L62.0869 135.882Z" fill="#203AB6"/>
<path d="M64.0037 139.015L62.9365 189.293L70.5256 205.163L73.5198 187.307L64.0037 139.015Z" fill="#203AB6"/>
<path d="M109.222 170.557C109.222 170.557 109.222 170.706 109.222 170.953L109.162 171.328L108.994 170.953C108.612 169.953 108.392 168.899 108.342 167.83C108.179 166.638 108.321 165.424 108.757 164.302C108.905 164.302 108.757 165.883 108.856 167.8C108.935 169.164 109.152 170.33 109.222 170.893H108.994C109.083 170.627 109.182 170.557 109.222 170.557Z" fill="#FAFAFA"/>
<path d="M111.446 170.389C110.709 169.616 110.161 168.682 109.845 167.662C109.369 166.719 109.109 165.683 109.084 164.628C109.587 165.547 109.997 166.513 110.309 167.513C110.781 168.433 111.161 169.396 111.446 170.389Z" fill="#FAFAFA"/>
<path d="M148.136 149.104C145.999 147.974 143.945 146.692 141.99 145.27C139.941 143.991 137.986 142.568 136.14 141.011C138.276 142.151 140.33 143.439 142.286 144.865C144.334 146.138 146.289 147.554 148.136 149.104Z" fill="#FAFAFA"/>
<path d="M40.396 157.177C40.396 157.177 36.2853 185.834 38.232 187.435C48.9832 196.477 63.9243 201.22 69.2604 202.712C70.041 202.524 70.9502 202.277 71.9976 201.941C72.9056 201.653 73.7578 201.212 74.5174 200.637C75.4875 199.956 76.3588 199.145 77.1064 198.226C77.2193 198.029 77.3907 197.871 77.5969 197.776C77.8031 197.68 78.0339 197.651 78.2573 197.692C78.4808 197.733 78.686 197.843 78.8445 198.006C79.003 198.169 79.107 198.377 79.1421 198.601C79.1915 199.589 77.6104 202.129 74.636 203.987C74.636 203.987 81.484 215.005 83.6679 216.003C85.8517 217.001 92.0969 219.807 91.0396 220.341C89.9823 220.875 82.3833 218.671 82.3833 218.671L66.9679 214.55C66.9679 214.55 15.9784 206.556 19.3678 183.166C21.4529 168.828 23.7257 155.912 24.5458 152.642L40.396 157.177Z" fill="#E5BAAB"/>
<path d="M23.6864 151.308L19.1606 182.544C18.1033 192.158 24.5461 199.797 33.2123 204.095C46.4044 210.627 65.9898 215.291 65.8218 215.262C65.6538 215.232 67.146 201.319 67.146 201.319C67.146 201.319 39.6848 189.461 38.8251 184.322C37.9654 179.184 42.3133 157.839 42.3133 157.839L23.6864 151.308Z" fill="#E0E0E0"/>
<path d="M65.7827 215.262C65.7724 215.18 65.7724 215.097 65.7827 215.015C65.7827 214.817 65.7827 214.58 65.8322 214.293C65.8816 213.612 65.9507 212.693 66.0496 211.517C66.2571 209.066 66.5634 205.588 66.929 201.309L67.0377 201.487L53.2034 194.797L49.2507 192.821C47.9167 192.109 46.5728 191.328 45.2388 190.469C43.8853 189.595 42.5851 188.642 41.3454 187.613C40.7228 187.089 40.1003 186.536 39.5074 185.953C39.1731 185.659 38.9038 185.299 38.7169 184.895C38.6121 184.7 38.5356 184.49 38.4896 184.273C38.4247 184.067 38.3784 183.855 38.3512 183.641C37.9066 180.221 38.8157 177 39.3394 173.927C39.8631 170.854 40.3869 167.859 40.8809 165.033C41.8691 159.361 42.7683 154.262 43.5194 149.954C43.9249 148.045 44.1564 146.104 44.2111 144.153C44.2301 142.686 43.9265 141.232 43.3217 139.894C42.9338 139.051 42.383 138.292 41.7011 137.661C41.2268 137.236 40.9402 137.068 40.9501 137.039C41.2441 137.187 41.5194 137.369 41.7703 137.582C42.4958 138.194 43.0849 138.952 43.4996 139.805C44.1482 141.163 44.4857 142.649 44.4878 144.153C44.4657 146.122 44.2573 148.084 43.8652 150.013C43.1438 154.331 42.2841 159.44 41.3355 165.122C40.8513 167.958 40.3473 170.943 39.8236 174.016C39.6951 174.787 39.5568 175.567 39.4185 176.358C39.2801 177.148 39.1319 177.919 39.0232 178.71C38.7634 180.307 38.7202 181.933 38.8947 183.542C38.926 183.738 38.9689 183.933 39.0232 184.125C39.0621 184.315 39.1287 184.498 39.2208 184.668C39.3836 185.017 39.6195 185.327 39.9125 185.577C40.4956 186.15 41.0983 186.694 41.711 187.208C42.9343 188.226 44.2179 189.17 45.555 190.034C46.8692 190.894 48.1934 191.664 49.5076 192.376L53.4603 194.352L67.186 201.19L67.2947 201.25V201.368C66.85 205.647 66.4942 209.115 66.2472 211.566C66.1088 212.732 66.01 213.661 65.931 214.333C65.8915 214.623 65.8618 214.86 65.842 215.044C65.8293 215.119 65.8095 215.191 65.7827 215.262Z" fill="#FAFAFA"/>
<path d="M63.2328 199.412C63.2621 200.127 63.2057 200.844 63.0648 201.546C62.8968 202.85 62.6201 204.649 62.2545 206.625C61.8889 208.602 61.4739 210.38 61.1379 211.655C61.0023 212.358 60.773 213.039 60.4561 213.681C60.4905 212.966 60.5998 212.258 60.7822 211.566C61.072 210.077 61.4014 208.397 61.7703 206.526C62.1161 204.128 62.6045 201.752 63.2328 199.412Z" fill="#FAFAFA"/>
<path d="M65.7824 215.262C65.6179 215.261 65.4545 215.234 65.2982 215.183L63.9444 214.857L59.0036 213.552C54.8237 212.426 49.0132 210.943 42.7878 208.661C39.8582 207.589 37.0056 206.318 34.25 204.856C31.9989 203.659 29.8505 202.277 27.8269 200.726C26.4616 199.681 25.1736 198.538 23.9731 197.307C23.5482 196.872 23.2419 196.526 22.9849 196.319C22.8673 196.202 22.7674 196.069 22.6885 195.923C22.6885 195.923 23.1826 196.388 24.0719 197.208C25.3248 198.374 26.6446 199.466 28.0246 200.479C30.068 201.949 32.2146 203.27 34.4477 204.431C37.1963 205.86 40.0351 207.107 42.9459 208.167C49.1318 210.44 54.9324 211.971 59.0827 213.196L64.0235 214.649L65.3575 215.074C65.5066 215.118 65.6494 215.181 65.7824 215.262Z" fill="#FAFAFA"/>
<path d="M66.1181 202.752C66.1239 202.928 66.0771 203.103 65.9834 203.253C65.8898 203.403 65.7536 203.521 65.5923 203.593C65.431 203.665 65.2518 203.688 65.0777 203.658C64.9036 203.628 64.7424 203.546 64.6146 203.424C64.4869 203.302 64.3984 203.145 64.3605 202.972C64.3226 202.8 64.337 202.62 64.4018 202.455C64.4667 202.291 64.579 202.149 64.7245 202.049C64.87 201.949 65.0421 201.894 65.2188 201.892C65.4513 201.889 65.6757 201.978 65.8438 202.139C66.0119 202.299 66.1103 202.519 66.1181 202.752Z" fill="#FAFAFA"/>
</svg>
