<svg width="83" height="70" viewBox="0 0 83 70" fill="none" xmlns="http://www.w3.org/2000/svg">
<rect x="0.5" y="0.5" width="82" height="69" rx="5.5" fill="#eb5454" fill-opacity="0.1" stroke="#EFEFEF"/>
<path d="M37.3923 47.6074H46.9191V48.4663H37.3923V47.6074Z" fill="#eb5454"/>
<path d="M52.0212 45.4375H54.6592V46.9328H52.0212V45.4375Z" fill="#eb5454"/>
<path d="M61.3134 47.6074H47.6009V48.7502C47.6009 48.9671 47.4219 49.1407 47.2104 49.1407H37.1032C36.8916 49.1407 36.718 48.9671 36.718 48.7502V47.6074H23V49.9995H61.3116L61.3134 47.6074Z" fill="#eb5454"/>
<path d="M29.6499 45.4375H32.2915V46.9328H29.6499V45.4375Z" fill="#eb5454"/>
<path d="M24.4176 44.7635H59.8942C60.6753 44.7635 61.3117 44.127 61.3117 43.3459L61.3135 21.4175C61.3135 20.6364 60.6771 20 59.896 20H24.418C23.6369 20 23.0005 20.6364 23.0005 21.4175V43.3459C23.0005 44.127 23.6365 44.7635 24.4176 44.7635ZM24.414 22.6902C24.414 21.9869 24.9872 21.4119 25.6959 21.4119H58.6174C59.3262 21.4119 59.8993 21.9851 59.8993 22.6902V42.0636C59.8993 42.7723 59.3262 43.3455 58.6174 43.3455H25.6959C24.9872 43.3455 24.414 42.7723 24.414 42.0636V22.6902Z" fill="#eb5454"/>
<path d="M40.9417 35.1875H43.3807V36.0988H40.9417V35.1875Z" fill="#eb5454"/>
<path d="M39.1718 33.1927C39.1085 32.9323 39.0506 32.6575 39.0036 32.3772C38.9982 32.3284 38.9892 32.2814 38.9801 32.2326C38.9367 31.9523 38.8988 31.663 38.8698 31.3701L37.1865 32.3736L37.7705 36.0097H38.0218L37.8718 34.2685C37.8573 34.1474 37.9152 34.028 38.0218 33.9593L39.1718 33.1927Z" fill="#eb5454"/>
<path d="M46.5539 36.0068L47.138 32.3707L45.4546 31.3672C45.4402 31.5353 45.4112 31.6999 45.3877 31.868C45.3733 31.9783 45.3642 32.0904 45.3443 32.1953C45.2919 32.537 45.2286 32.8697 45.1509 33.1879L46.3026 33.9545C46.4093 34.0214 46.4672 34.1425 46.4527 34.2637L46.3026 36.0049L46.5539 36.0068Z" fill="#eb5454"/>
<path d="M42.1622 23.5098C41.853 23.7213 41.1695 24.2764 40.571 25.3088H43.7533C43.1494 24.2764 42.4695 23.7231 42.1622 23.5098Z" fill="#eb5454"/>
<path d="M39.4714 29.8789C39.4714 30.2604 39.4859 30.6364 39.5148 31.0071C39.5383 31.3163 39.5727 31.62 39.6161 31.9184C39.6306 31.9907 39.6396 32.0685 39.6541 32.1408C39.7029 32.4391 39.7553 32.7338 39.8276 33.0177C39.9578 33.5619 40.126 34.0682 40.3248 34.513H43.9989C44.167 34.1369 44.3117 33.7174 44.4382 33.2545C44.4581 33.1822 44.4726 33.1153 44.4907 33.052C44.6552 32.3867 44.7655 31.6688 44.8143 30.9203L44.8234 30.7811C44.8432 30.4827 44.8523 30.1826 44.8523 29.8788C44.8523 28.2209 44.525 26.948 44.0947 25.9824H40.2272C39.7987 26.9479 39.4714 28.2208 39.4714 29.8789ZM42.1619 26.3784C43.1979 26.3784 44.0477 27.2228 44.0477 28.2588C44.0477 29.3003 43.1997 30.1446 42.1619 30.1446C41.1204 30.1446 40.276 29.3003 40.276 28.2588C40.276 27.2228 41.1204 26.3784 42.1619 26.3784Z" fill="#eb5454"/>
<path d="M42.1623 29.4684C42.8276 29.4684 43.3719 28.9277 43.3719 28.2587C43.3719 27.5934 42.8276 27.0527 42.1623 27.0527C41.4969 27.0527 40.9526 27.5934 40.9526 28.2587C40.9508 28.9295 41.4969 29.4684 42.1623 29.4684Z" fill="#eb5454"/>
<path d="M47.3204 40.7909C46.9823 40.7909 46.6496 40.9067 46.3658 41.1236C46.2844 41.1869 46.1687 41.2104 46.0674 41.1761C45.9607 41.1471 45.8794 41.0658 45.845 40.9645C45.5358 40.0912 44.4618 39.6338 43.5976 40.1401C43.462 40.2214 43.2884 40.1979 43.1835 40.0822C43.1166 40.0153 43.0443 39.952 42.972 39.8887C42.8942 39.8255 42.8418 39.7242 42.8418 39.6229V36.7734H41.502V39.1221C41.502 39.2867 41.3863 39.4205 41.2272 39.4548C40.6287 39.5705 40.108 39.9321 39.7898 40.4583C39.7174 40.5831 39.5728 40.6464 39.4336 40.6174C38.9219 40.5071 38.459 40.6662 38.1028 40.9845C37.9925 41.0857 37.828 41.1002 37.6978 41.0188C37.4573 40.8687 37.1861 40.7928 36.9167 40.7928C36.1121 40.7928 35.4558 41.4492 35.4558 42.2592C35.4558 42.4038 35.4757 42.543 35.5137 42.6732L48.8591 42.6714C48.879 42.5702 48.888 42.4689 48.888 42.3622C48.888 41.4944 48.1829 40.7909 47.3204 40.7909Z" fill="#eb5454"/>
<path d="M25.6961 42.6711H34.8234C34.7999 42.5355 34.7801 42.3963 34.7801 42.257C34.7801 41.0764 35.7401 40.1163 36.9154 40.1163C37.2336 40.1163 37.5464 40.1886 37.8411 40.3278C38.2697 40.0186 38.7813 39.8595 39.3364 39.9174C39.7035 39.4111 40.2278 39.0351 40.8263 38.856V36.7731H40.6039C40.4159 36.7731 40.2658 36.6194 40.2658 36.435V35.1856H40.1067C39.9765 35.1856 39.8608 35.1133 39.8029 34.9976C39.6348 34.6559 39.4901 34.2798 39.3636 33.8748L38.559 34.4099L38.7235 36.3139C38.7289 36.4097 38.7 36.5019 38.6367 36.5688C38.5698 36.6411 38.483 36.6791 38.3854 36.6791H37.4832C37.315 36.6791 37.174 36.5579 37.1505 36.3952L36.4797 32.2493C36.4598 32.1137 36.5231 31.9745 36.6442 31.9076L38.8085 30.6112C38.7995 30.3707 38.7941 30.1248 38.7941 29.8789C38.7941 24.643 41.866 22.8873 41.9962 22.8146C42.0974 22.7568 42.2222 22.7568 42.3234 22.8146C42.4048 22.858 43.6596 23.5812 44.5745 25.4183C44.6179 25.4671 44.6414 25.5285 44.6523 25.5973C45.1495 26.6532 45.5255 28.0472 45.5255 29.8788C45.5255 30.1247 45.5165 30.3706 45.502 30.611L47.6772 31.9075C47.7983 31.9744 47.8598 32.1154 47.8363 32.2492L47.1709 36.3951C47.1474 36.5596 47.0064 36.679 46.8382 36.679H45.936C45.8402 36.679 45.7534 36.641 45.6847 36.5687C45.6214 36.5018 45.5888 36.4096 45.5979 36.3137L45.7624 34.4098L44.9488 33.871C44.824 34.276 44.683 34.6611 44.5203 34.9992C44.4624 35.1149 44.3467 35.1873 44.2165 35.1873H44.0574V36.4366C44.0574 36.6193 43.9037 36.7748 43.7193 36.7748H43.5168V39.4272C43.7916 39.3115 44.0809 39.2482 44.3756 39.2482C45.1802 39.2482 45.9143 39.6822 46.3085 40.362C46.6213 40.2029 46.9684 40.1161 47.321 40.1161C48.5559 40.1161 49.563 41.1232 49.563 42.3635C49.563 42.4702 49.5486 42.5715 49.5341 42.6727H58.6179C58.9506 42.6727 59.2254 42.3979 59.2254 42.0652V22.69C59.2254 22.3573 58.9506 22.0879 58.6179 22.0879H25.6964C25.3637 22.0879 25.0889 22.3573 25.0889 22.69V42.0634C25.0889 42.396 25.3635 42.6711 25.6961 42.6711Z" fill="#eb5454"/>
</svg>
