<svg width="83" height="70" viewBox="0 0 83 70" fill="none" xmlns="http://www.w3.org/2000/svg">
<rect x="0.5" y="0.5" width="82" height="69" rx="5.5" fill="#F7F9FA" stroke="#EFEFEF"/>
<path d="M43.6516 51.1416C42.3394 49.2858 41.7015 46.7316 41.7015 43.333C41.702 43.0472 41.8842 42.7883 42.1548 42.6878C44.2068 41.9327 45.9974 40.9485 47.6304 39.6783C47.7238 39.6068 47.8308 39.5602 47.9434 39.541L47.9524 39.5395C48.14 39.5104 48.3372 39.5602 48.4876 39.6741L48.4931 39.6782C48.6538 39.8032 48.8164 39.9246 48.9802 40.0441V20.2153H28V47.4698V47.6015V53.4633H36.4967V47.6015H40.4833V53.4633H46.0349C45.185 52.8566 44.3608 52.1445 43.6516 51.1416ZM42.8584 22.1224H46.8448V26.567H42.8584V22.1224ZM42.8584 27.9316H46.8448V32.3762H42.8584V27.9316ZM42.8584 33.9277H46.8448V38.3724H42.8584V33.9277ZM34.2362 44.935H30.2496V40.4904H34.2362V44.935ZM34.2362 38.3724H30.2496V33.9277H34.2362V38.3724ZM34.2362 32.3762H30.2496V27.9316H34.2362V32.3762ZM34.2362 26.567H30.2496V22.1224H34.2362V26.567ZM40.4833 44.935H36.4967V40.4904H40.4833V44.935ZM40.4833 38.3724H36.4967V33.9277H40.4833V38.3724ZM40.4833 32.3762H36.4967V27.9316H40.4833V32.3762ZM40.4833 26.567H36.4967V22.1224H40.4833V26.567ZM48.98 19.2746H28V16.7144H32.1284V15H44.8516V16.7144H48.98V19.2746ZM53.8746 43.192C51.9136 42.4704 50.0274 41.481 48.2548 40.1023C48.2201 40.0759 48.1764 40.0649 48.1335 40.0715C48.1079 40.0758 48.0836 40.0864 48.0628 40.1023C46.2902 41.481 44.404 42.4704 42.4431 43.192C42.3794 43.2156 42.3371 43.2768 42.337 43.3455C42.337 47.0284 43.0884 49.2946 44.1917 50.8551C45.295 52.4156 46.7392 53.2597 48.073 54.124C48.1255 54.1573 48.1922 54.1573 48.2447 54.124C49.5786 53.2597 51.0226 52.4156 52.126 50.8551C53.2293 49.2946 53.9807 47.0284 53.9807 43.3455C53.9806 43.2768 53.9382 43.2156 53.8746 43.192Z" fill="#EB5454"/>
</svg>
