<svg width="83" height="70" viewBox="0 0 83 70" fill="none" xmlns="http://www.w3.org/2000/svg">
<rect x="0.5" y="0.5" width="82" height="69" rx="5.5" fill="#eb5454" fill-opacity="0.1" stroke="#EFEFEF"/>
<path d="M28 29.2305L23.7875 32.243C23.7568 32.2661 23.7275 32.2912 23.7 32.318L28 36.068V29.2305Z" fill="#eb5454"/>
<path d="M58.4625 32.243L54.25 29.2305V36.0492L58.55 32.2992C58.5219 32.2789 58.4927 32.2601 58.4625 32.243Z" fill="#eb5454"/>
<path d="M23.0437 33.4062C23.0178 33.5191 23.0031 33.6342 23 33.75V54.375C23.0027 54.657 23.0689 54.9347 23.1937 55.1875C23.2107 55.1651 23.2295 55.1442 23.25 55.125L36.575 45.125L23.0437 33.4062Z" fill="#eb5454"/>
<path d="M40.75 43.5625L24.0812 56.0625C24.3289 56.1825 24.5999 56.2465 24.875 56.25H57.375C57.6497 56.2485 57.9206 56.1866 58.1687 56.0687L41.5 43.5625C41.3918 43.4814 41.2602 43.4375 41.125 43.4375C40.9898 43.4375 40.8582 43.4814 40.75 43.5625Z" fill="#eb5454"/>
<path d="M59.2063 33.4062L45.675 45.1312L59 55.1312C59.0205 55.1505 59.0393 55.1714 59.0563 55.1938C59.182 54.939 59.2483 54.6591 59.25 54.375V33.75C59.2469 33.6342 59.2322 33.5191 59.2063 33.4062Z" fill="#eb5454"/>
<path d="M46.125 36.875V30.625C46.125 30.4592 46.0592 30.3003 45.9419 30.1831C45.8247 30.0658 45.6658 30 45.5 30H36.75C36.5842 30 36.4253 30.0658 36.3081 30.1831C36.1908 30.3003 36.125 30.4592 36.125 30.625V36.875C36.125 37.0408 36.1908 37.1997 36.3081 37.3169C36.4253 37.4342 36.5842 37.5 36.75 37.5H45.5C45.6658 37.5 45.8247 37.4342 45.9419 37.3169C46.0592 37.1997 46.125 37.0408 46.125 36.875ZM44.0687 32.3187L40.9437 35.4437C40.8856 35.5023 40.8165 35.5488 40.7404 35.5806C40.6642 35.6123 40.5825 35.6286 40.5 35.6286C40.4175 35.6286 40.3358 35.6123 40.2596 35.5806C40.1835 35.5488 40.1144 35.5023 40.0563 35.4437L38.1813 33.5687C38.0636 33.4511 37.9974 33.2914 37.9974 33.125C37.9974 32.9586 38.0636 32.7989 38.1813 32.6813C38.2989 32.5636 38.4586 32.4974 38.625 32.4974C38.7914 32.4974 38.9511 32.5636 39.0687 32.6813L40.5 34.1188L43.1813 31.4313C43.2989 31.3136 43.4586 31.2474 43.625 31.2474C43.7914 31.2474 43.9511 31.3136 44.0687 31.4313C44.1864 31.5489 44.2526 31.7086 44.2526 31.875C44.2526 32.0414 44.1864 32.2011 44.0687 32.3187Z" fill="#eb5454"/>
<path d="M40 42.5625C40.3246 42.3191 40.7193 42.1875 41.125 42.1875C41.5307 42.1875 41.9254 42.3191 42.25 42.5625L44.6563 44.375L53 37.1313V21.875C53 21.3777 52.8025 20.9008 52.4508 20.5492C52.0992 20.1975 51.6223 20 51.125 20H31.125C30.6277 20 30.1508 20.1975 29.7992 20.5492C29.4475 20.9008 29.25 21.3777 29.25 21.875V37.1313L37.5938 44.375L40 42.5625ZM34.875 36.875V30.625C34.875 30.1277 35.0725 29.6508 35.4242 29.2992C35.7758 28.9475 36.2527 28.75 36.75 28.75H37.375V26.25C37.375 25.2554 37.7701 24.3016 38.4733 23.5983C39.1766 22.8951 40.1304 22.5 41.125 22.5C42.1196 22.5 43.0734 22.8951 43.7767 23.5983C44.4799 24.3016 44.875 25.2554 44.875 26.25V28.75H45.5C45.9973 28.75 46.4742 28.9475 46.8258 29.2992C47.1775 29.6508 47.375 30.1277 47.375 30.625V36.875C47.375 37.3723 47.1775 37.8492 46.8258 38.2008C46.4742 38.5525 45.9973 38.75 45.5 38.75H36.75C36.2527 38.75 35.7758 38.5525 35.4242 38.2008C35.0725 37.8492 34.875 37.3723 34.875 36.875Z" fill="#eb5454"/>
<path d="M43.625 26.25C43.625 25.587 43.3616 24.9511 42.8928 24.4822C42.4239 24.0134 41.788 23.75 41.125 23.75C40.462 23.75 39.8261 24.0134 39.3572 24.4822C38.8884 24.9511 38.625 25.587 38.625 26.25V28.75H43.625V26.25Z" fill="#eb5454"/>
</svg>
