<svg width="38" height="38" viewBox="0 0 38 38" fill="none" xmlns="http://www.w3.org/2000/svg">
<path d="M5.10417 0.816697C6.40405 0.353153 7.80879 0.268015 9.15514 0.57118C10.5015 0.874346 11.7342 1.55336 12.7099 2.52932C13.6856 3.50528 14.3644 4.73811 14.6673 6.08453C14.9701 7.43094 14.8847 8.83567 14.4208 10.1354L37.0146 32.7292L32.5938 37.1479L10 14.5563C8.6999 15.0201 7.29485 15.1053 5.94821 14.8021C4.60158 14.4989 3.36867 13.8197 2.39283 12.8434C1.41699 11.8671 0.738309 10.6339 0.43569 9.28712C0.133071 7.94035 0.218946 6.53534 0.683332 5.23545L5.34166 9.89586C5.93105 10.4651 6.72043 10.7801 7.53979 10.773C8.35916 10.7659 9.14295 10.4372 9.72235 9.8578C10.3017 9.2784 10.6304 8.49461 10.6375 7.67524C10.6446 6.85588 10.3297 6.0665 9.76042 5.47711L5.10417 0.816697ZM26.7021 4.73961L33.3312 1.05628L36.2771 4.0042L32.5938 10.6313L28.9104 11.3688L24.4937 15.7875L21.5458 12.8417L25.9646 8.42295L26.7021 4.73961ZM11.9708 20.9438L16.3896 25.3646L6.07708 35.6771C5.50841 36.2405 4.74524 36.5641 3.94496 36.5813C3.14468 36.5985 2.3683 36.308 1.77594 35.7696C1.18358 35.2312 0.820409 34.486 0.761313 33.6877C0.702218 32.8895 0.951707 32.0989 1.45833 31.4792L1.66042 31.2563L11.9708 20.9438Z" fill="#EB5454"/>
</svg>
