<svg width="83" height="70" viewBox="0 0 83 70" fill="none" xmlns="http://www.w3.org/2000/svg">
<rect x="0.5" y="0.5" width="82" height="69" rx="5.5" fill="#F7F9FA" stroke="#F5F4F1"/>
<path d="M40.5 17V23.25H46.75L40.5 17Z" fill="#EB5454"/>
<path d="M27.375 45.75C27.0298 45.75 26.75 45.4702 26.75 45.125C26.75 44.7798 27.0298 44.5 27.375 44.5H34.25V42H27.375C27.0298 42 26.75 41.7202 26.75 41.375C26.75 41.0298 27.0298 40.75 27.375 40.75H34.25V39.5C34.25 39.0596 34.3403 38.6429 34.4803 38.25H27.375C27.0298 38.25 26.75 37.9702 26.75 37.625C26.75 37.2798 27.0298 37 27.375 37H35.2253C35.9122 36.2384 36.896 35.75 38 35.75H46.75V24.5H40.5C39.8097 24.5 39.25 23.9403 39.25 23.25V17H24.25C23.5597 17 23 17.5596 23 18.25V48.25C23 48.9403 23.5597 49.5 24.25 49.5H34.25V45.75H27.375ZM27.375 29.5H42.375C42.7202 29.5 43 29.7798 43 30.125C43 30.4702 42.7202 30.75 42.375 30.75H27.375C27.0298 30.75 26.75 30.4702 26.75 30.125C26.75 29.7798 27.0298 29.5 27.375 29.5ZM27.375 33.25H42.375C42.7202 33.25 43 33.5298 43 33.875C43 34.2202 42.7202 34.5 42.375 34.5H27.375C27.0298 34.5 26.75 34.2202 26.75 33.875C26.75 33.5298 27.0298 33.25 27.375 33.25Z" fill="#EB5454"/>
<path d="M55.5 37H38C36.6193 37 35.5 38.1192 35.5 39.5V49.5C35.5 50.8807 36.6193 52 38 52H55.5C56.8807 52 58 50.8807 58 49.5V39.5C58 38.1192 56.8807 37 55.5 37ZM56.5669 50.5669C56.4448 50.689 56.2849 50.75 56.125 50.75C55.9651 50.75 55.8052 50.689 55.6831 50.5669L49.8288 44.7126L47.1405 46.8632C47.0264 46.9541 46.8879 46.9999 46.7499 46.9999C46.612 46.9999 46.4734 46.9541 46.3593 46.8632L43.6712 44.7126L37.8169 50.5669C37.6948 50.689 37.5349 50.75 37.375 50.75C37.2151 50.75 37.0552 50.689 36.9331 50.5669C36.689 50.3228 36.689 49.9272 36.9331 49.6831L42.6891 43.9271L36.9843 39.3632C36.7151 39.1471 36.6712 38.7541 36.8866 38.4843C37.1039 38.2164 37.4964 38.1712 37.7655 38.3866L46.7499 45.5748L55.7343 38.3866C56.0053 38.1706 56.3971 38.2164 56.6132 38.4843C56.8287 38.7541 56.7847 39.1471 56.5155 39.3632L50.8108 43.927L56.5669 49.6831C56.811 49.9272 56.811 50.3228 56.5669 50.5669Z" fill="#EB5454"/>
</svg>
