<svg width="70" height="70" viewBox="0 0 70 70" fill="none" xmlns="http://www.w3.org/2000/svg">
<circle cx="35" cy="35" r="35" fill="#EB5454"/>
<path d="M47.1489 36.5319C48 36.3191 48.766 36.0638 49.4894 35.6809V47.2979C49.4894 47.4681 49.4468 47.6383 49.4043 47.8085L38.9787 38.7872L43.2766 35.0426C44.2979 35.7234 45.4468 36.234 46.7234 36.5319C46.8085 36.5319 46.8511 36.5319 46.9362 36.5319C47.0213 36.5319 47.0638 36.5319 47.1489 36.5319ZM35.4043 41.8511C34.9362 42.2766 34.3404 42.4894 33.7447 42.4894C33.1489 42.4894 32.5532 42.2766 32.0851 41.8511L29.8298 39.8936L19.3617 48.9574C19.4894 49 19.617 49 19.7021 49H47.7872C47.9149 49 48.0426 49 48.1277 48.9574L37.6596 39.8936L35.4043 41.8511ZM18.0851 29.766C18.0426 29.9362 18 30.1064 18 30.2766V47.2979C18 47.4681 18.0426 47.6383 18.0851 47.8085L28.5106 38.7872L18.0851 29.766ZM31.1064 38.7872L33.1915 40.5745C33.5319 40.8723 34 40.8723 34.2979 40.5745L36.383 38.7872L37.1489 38.1489L41.9574 33.9787C40.4681 32.5319 39.4894 30.617 39.3191 28.5745H19.7021C19.5745 28.5745 19.4468 28.5745 19.3617 28.617L30.383 38.1489L31.1064 38.7872ZM46.9362 21C45.5745 22.5319 43.4043 23.5532 40.9787 23.7234V27.8511C40.9787 31.0851 43.4043 33.9362 46.9362 34.8298C50.4681 33.9362 52.8936 31.0851 52.8936 27.8511V23.7234C50.4681 23.5532 48.2979 22.5319 46.9362 21Z" fill="white"/>
</svg>
