<svg width="83" height="70" viewBox="0 0 83 70" fill="none" xmlns="http://www.w3.org/2000/svg">
<rect x="0.5" y="0.5" width="82" height="69" rx="5.5" fill="#FC6551" fill-opacity="0.1" stroke="#EFEFEF"/>
<path d="M38.6332 49.3698C38.2554 49.794 37.7582 50.0459 37.2081 50.0724H37.1285C36.6314 50.0724 36.1607 49.8736 35.8094 49.5223L25.5086 39.2148C25.1307 38.8369 24.9319 38.3265 24.9451 37.7962C24.965 37.2593 25.2103 36.7555 25.5947 36.4241L26.0057 36.1059L21.3126 31.4062C21.3126 31.4062 20.7691 32.1221 20.7625 32.1288C20.6763 32.2547 20.5968 32.3807 20.5172 32.5132C20.0797 33.2954 19.9339 34.2168 20.0267 35.1116C20.3382 38.0349 21.2066 40.7924 22.5323 43.2715C22.8372 43.8216 23.1554 44.3718 23.5001 44.8955C25.2235 47.5337 27.4706 49.7808 30.1088 51.5042C30.4469 51.723 30.7849 51.9483 31.1429 52.1406C33.7082 53.6187 36.5982 54.5998 39.6739 54.9577C40.6417 55.0704 41.6426 54.971 42.4844 54.4937C42.617 54.4208 42.7496 54.3346 42.8755 54.2485C42.8822 54.2418 43.598 53.6983 43.598 53.6983L38.8984 49.0052L38.6266 49.3632L38.6332 49.3698Z" fill="#FC6551"/>
<path d="M28.7563 35.2906C29.5982 34.4422 29.5982 33.07 28.7563 32.215L25.4884 28.947C24.6466 28.1052 23.2612 28.1052 22.4128 28.947L21.9222 29.4376L28.2592 35.7745L28.7563 35.284V35.2906Z" fill="#FC6551"/>
<path d="M42.7298 46.1949C41.888 45.353 40.5092 45.353 39.6674 46.1949L39.1769 46.6854L45.5205 53.0223L46.011 52.5318C46.8594 51.6833 46.8528 50.3112 46.011 49.4561L42.7364 46.1882L42.7298 46.1949Z" fill="#FC6551"/>
<path d="M44.3337 15.054C38.7126 14.6231 33.3235 16.7907 29.5651 20.8739L28.3521 20.1381C27.8682 19.8465 27.2451 20.1845 27.2318 20.7546L27.1125 26.2099C27.0993 26.78 27.7091 27.1446 28.2062 26.8728L32.9921 24.2479C33.4892 23.9761 33.5025 23.2668 33.0186 22.9752L31.9116 22.2991C35.6104 18.5473 40.9862 16.8636 46.3819 18.0634C52.0825 19.3294 56.6231 23.8303 57.9886 29.511C59.785 36.9748 55.9006 44.3127 49.3184 47.2956C48.682 47.5872 48.3639 48.3097 48.6025 48.966C48.8676 49.7017 49.7028 50.0597 50.4121 49.7415C57.8759 46.3676 62.3834 38.221 60.7925 29.7828C59.2746 21.7754 52.4471 15.6704 44.3337 15.054Z" fill="#FC6551"/>
<path d="M41.6623 23.6246C37.4465 24.1284 33.993 27.4294 33.2904 31.6121C32.9192 33.8194 33.3103 35.9008 34.225 37.6773L32.6872 42.5427C32.5148 43.0929 33.0319 43.6099 33.582 43.4375L38.4474 41.8997C40.2239 42.8078 42.3119 43.2055 44.5126 42.8343C48.6953 42.1317 51.9963 38.6716 52.5001 34.4624C53.2558 28.1586 47.9661 22.869 41.6623 23.6246ZM42.2191 37.8894H36.8765V36.557L39.9786 32.4208C40.1444 32.202 40.2769 31.97 40.3697 31.7447C40.4559 31.5193 40.5023 31.3072 40.5023 31.1083C40.5023 30.7968 40.4228 30.578 40.257 30.4256C40.0913 30.2665 39.8394 30.1869 39.5146 30.1869C39.2097 30.1869 38.9711 30.2731 38.7855 30.4521C38.5999 30.6311 38.4806 30.8896 38.4408 31.2276V31.4265L38.2486 31.4066H36.777V31.2077C36.8963 30.3725 37.1946 29.7428 37.6653 29.2987C38.1425 28.848 38.7656 28.6226 39.508 28.6226C40.3432 28.6226 41.0061 28.8413 41.4701 29.2722C41.9407 29.7097 42.1793 30.3261 42.1793 31.1083C42.1793 31.4464 42.1131 31.7977 41.9739 32.1556C41.8413 32.5136 41.6491 32.8516 41.4104 33.1764L39.097 36.3184H42.2257V37.8828L42.2191 37.8894ZM48.9538 36.5438H48.2976V37.896H46.7001V36.5438H42.935V35.1982L45.9311 28.7286H47.6281L44.7512 35.0126H46.6934V32.3346H48.2909V35.0126H48.9472V36.5504L48.9538 36.5438Z" fill="#FC6551"/>
</svg>
