<svg width="137" height="50" viewBox="0 0 137 50" fill="none" xmlns="http://www.w3.org/2000/svg">
<path opacity="0.2" d="M14.0502 12.7633H0.362305L0.362305 0H42.9029V12.7633H29.2121V50H14.0502V12.7633ZM45.2569 0H86.6205V12.7633H60.4201V18.92H86.6205V30.9302H60.4201V37.2367H86.6205V50H45.2569V0ZM89.1211 0H113.998C130.338 0 136.077 12.3129 136.077 24.9259C136.077 40.241 128.126 50 111.053 50H89.1211V0ZM104.284 37.2367H110.169C119.59 37.2367 120.918 29.4304 120.918 24.7761C120.918 21.6215 119.887 12.9136 108.992 12.9136H104.133L104.284 37.2367Z" fill="#797979"/>
</svg>
