<svg width="20" height="20" viewBox="0 0 20 20" fill="none" xmlns="http://www.w3.org/2000/svg">
<path d="M9.9987 0.833008C15.0614 0.833008 19.1654 4.93692 19.1654 9.99967C19.1654 15.0624 15.0614 19.1663 9.9987 19.1663C4.93595 19.1663 0.832031 15.0624 0.832031 9.99967C0.832031 4.93692 4.93595 0.833008 9.9987 0.833008ZM9.9987 4.49967C9.75558 4.49967 9.52242 4.59625 9.35052 4.76816C9.17861 4.94007 9.08203 5.17323 9.08203 5.41634V9.99967C9.08208 10.2428 9.17869 10.4759 9.35061 10.6478L12.1006 13.3978C12.2735 13.5647 12.5051 13.6571 12.7454 13.655C12.9857 13.653 13.2157 13.5565 13.3856 13.3866C13.5556 13.2166 13.652 12.9867 13.6541 12.7464C13.6562 12.506 13.5638 12.2745 13.3968 12.1016L10.9154 9.62017V5.41634C10.9154 5.17323 10.8188 4.94007 10.6469 4.76816C10.475 4.59625 10.2418 4.49967 9.9987 4.49967Z" fill="#EB5454"/>
</svg>
