<svg width="50" height="50" viewBox="0 0 50 50" fill="none" xmlns="http://www.w3.org/2000/svg">
<path fill-rule="evenodd" clip-rule="evenodd" d="M27.8275 36.9684C25.8962 38.0706 24.503 38.6955 24.503 38.6955C24.3147 38.7795 24.0989 38.7795 23.9107 38.6955C23.9107 38.6955 18.5991 36.3145 14.3492 32.6511C11.4012 30.1094 9 26.9413 9 23.5517V9.06895C9 8.66922 9.32441 8.34481 9.72414 8.34481C11.7235 8.34481 13.3448 6.72347 13.3448 4.72414C13.3448 4.32441 13.6692 4 14.0689 4C19.5376 4 28.8761 4 34.3447 4C34.7445 4 35.0689 4.32441 35.0689 4.72414C35.0689 6.72347 36.6902 8.34481 38.6895 8.34481C39.0893 8.34481 39.4137 8.66922 39.4137 9.06895C39.4137 12.9568 39.4137 18.7637 39.4137 23.5517C39.4137 26.7378 37.2927 29.7278 34.5895 32.1862L40.6498 38.2465C40.8569 38.4536 40.9192 38.765 40.8069 39.0358C40.6947 39.3059 40.4304 39.4826 40.1378 39.4826H36.1674L37.9068 43.5421C38.0581 43.8948 37.9082 44.3039 37.565 44.4748L34.6684 45.9231C34.4903 46.0129 34.2825 46.0245 34.0949 45.9557C33.9074 45.8862 33.7567 45.7435 33.6785 45.5596L31.9399 41.4747L29.0629 44.3408C28.8551 44.5472 28.5444 44.6088 28.2736 44.4965C28.0035 44.3836 27.8275 44.12 27.8275 43.8274V36.9684ZM38.3897 38.0344L29.2758 28.9204V42.0844L31.6756 39.6933C31.8457 39.5239 32.089 39.45 32.3251 39.4957C32.5612 39.542 32.7589 39.702 32.853 39.9229L34.7097 44.2836L36.3064 43.4849L34.4034 39.0438C34.3071 38.82 34.3302 38.563 34.4642 38.3602C34.5982 38.1567 34.8256 38.0344 35.0689 38.0344H38.3897ZM23.4827 35.1378C23.4827 35.5375 23.8071 35.8619 24.2068 35.8619C24.6066 35.8619 24.931 35.5375 24.931 35.1378C24.931 34.7381 24.6066 34.4137 24.2068 34.4137C23.8071 34.4137 23.4827 34.7381 23.4827 35.1378ZM23.482 29.3447V32.2413C23.482 32.641 23.8064 32.9654 24.2061 32.9654C24.6058 32.9654 24.9302 32.641 24.9302 32.2413V29.3447C24.9302 28.945 24.6058 28.6206 24.2061 28.6206C23.8064 28.6206 23.482 28.945 23.482 29.3447ZM22.0446 18.4827H26.3691C26.3003 20.9382 25.8847 23.0911 25.2576 24.4713C25.0606 24.9058 24.847 25.2555 24.6102 25.4931C24.4784 25.6241 24.3531 25.7241 24.2068 25.7241C24.0606 25.7241 23.9353 25.6241 23.8035 25.4931C23.5667 25.2555 23.3531 24.9058 23.1561 24.4713C22.529 23.0911 22.1134 20.9382 22.0446 18.4827ZM16.2739 18.4827H20.5963C20.676 21.3894 21.2306 23.9101 22.0069 25.4156C18.9025 24.5242 16.573 21.7942 16.2739 18.4827ZM27.8174 18.4827H32.1397C31.8407 21.7942 29.5111 24.5242 26.4068 25.4156C27.183 23.9101 27.7377 21.3894 27.8174 18.4827ZM27.8174 17.0344C27.7377 14.1278 27.183 11.607 26.4068 10.1016C29.5111 10.993 31.8407 13.723 32.1397 17.0344H27.8174ZM22.0446 17.0344C22.1134 14.5789 22.529 12.426 23.1561 11.0458C23.3531 10.6114 23.5667 10.2616 23.8035 10.0241C23.9353 9.89301 24.0606 9.79308 24.2068 9.79308C24.3531 9.79308 24.4784 9.89301 24.6102 10.0241C24.847 10.2616 25.0606 10.6114 25.2576 11.0458C25.8847 12.426 26.3003 14.5789 26.3691 17.0344H22.0446ZM16.2739 17.0344C16.573 13.723 18.9025 10.993 22.0069 10.1016C21.2306 11.607 20.676 14.1278 20.5963 17.0344H16.2739ZM24.9302 7.62068L24.931 5.44827H23.482V7.62068C23.482 8.0204 23.8064 8.34481 24.2061 8.34481C24.6058 8.34481 24.9302 8.0204 24.9302 7.62068Z" fill="#eb5454"/>
</svg>
