<svg width="685" height="664" viewBox="0 0 685 664" fill="none" xmlns="http://www.w3.org/2000/svg">
<g opacity="0.1">
<path d="M238.921 0H145.654C143.16 0 141.139 2.02132 141.139 4.51475V97.7814C141.139 100.275 143.16 102.296 145.654 102.296H238.921C241.414 102.296 243.435 100.275 243.435 97.7814V4.51475C243.435 2.02132 241.414 0 238.921 0Z" fill="#F0F0F0"/>
<path d="M222.175 25.2498H222.06C218.596 25.2498 215.789 25.4632 215.789 25.7423C217.623 26.1994 219.518 26.3656 221.403 26.2349C221.092 26.5632 220.632 27.0393 220.057 27.6796L215.132 33.2614L198.715 52.1085L191.803 47.4296C190.572 46.6251 189.357 45.7878 188.224 45.0491L187.847 44.8192L187.567 45.1476C180.262 53.6846 173.793 61.3186 169.18 66.8348L163.779 73.4017C163.083 74.1652 162.456 74.9893 161.907 75.8643C162.674 75.1934 163.393 74.4692 164.058 73.6972L169.689 67.3601C174.368 62.0245 180.82 54.5875 188.027 46.1983L191.311 48.3489L198.583 53.1756L198.945 53.4219L199.224 53.0935L215.641 33.7047L220.386 27.9423C221.009 27.1871 221.436 26.6289 221.699 26.3005H221.781C221.642 28.2018 221.802 30.1132 222.257 31.9645C222.536 31.9645 222.75 29.2228 222.766 25.808V25.3155L222.175 25.2498Z" fill="#E0E0E0"/>
<path d="M481.355 68.2795H531.395C531.395 78.1284 528.49 87.7585 523.042 95.9633C517.594 104.168 509.846 110.583 500.768 114.404C491.691 118.225 481.687 119.282 472.012 117.443C462.336 115.604 453.418 110.951 446.375 104.066C439.333 97.1815 434.478 88.3716 432.42 78.7402C430.362 69.1087 431.191 59.0841 434.805 49.9222C438.419 40.7603 444.656 32.8685 452.735 27.2356C460.814 21.6026 470.376 18.479 480.222 18.256L481.355 68.2795Z" fill="#F0F0F0"/>
<path d="M494.833 56.0814L493.717 6.04154C507.084 6.03599 519.955 11.099 529.736 20.2097C539.099 29.5325 544.513 42.1017 544.857 55.3098L494.833 56.0814Z" fill="#EBEBEB"/>
<path d="M501.729 274.267C501.45 283.461 501.975 311.502 501.975 311.502L510.184 303.293H556.398C557.175 303.289 557.918 302.977 558.466 302.426C559.013 301.876 559.321 301.131 559.32 300.354V274.415C559.32 273.64 559.013 272.897 558.465 272.349C557.917 271.801 557.173 271.493 556.398 271.493H504.667C503.914 271.487 503.189 271.773 502.641 272.29C502.094 272.807 501.767 273.515 501.729 274.267Z" fill="#EBEBEB"/>
<path d="M525.337 287.385C525.333 287.812 525.203 288.23 524.963 288.584C524.723 288.938 524.384 289.213 523.987 289.375C523.591 289.536 523.156 289.577 522.737 289.492C522.317 289.406 521.933 289.198 521.631 288.895C521.33 288.591 521.125 288.205 521.043 287.785C520.961 287.365 521.004 286.93 521.169 286.535C521.333 286.14 521.611 285.803 521.967 285.565C522.323 285.328 522.742 285.201 523.169 285.201C523.455 285.201 523.739 285.258 524.003 285.368C524.267 285.478 524.506 285.639 524.708 285.842C524.909 286.045 525.068 286.285 525.176 286.55C525.284 286.815 525.339 287.099 525.337 287.385Z" fill="#E0E0E0"/>
<path d="M532.659 287.385C532.658 287.817 532.53 288.24 532.289 288.599C532.049 288.959 531.707 289.239 531.307 289.403C530.907 289.568 530.467 289.61 530.043 289.525C529.619 289.439 529.23 289.23 528.925 288.923C528.621 288.616 528.414 288.225 528.331 287.8C528.249 287.376 528.295 286.936 528.462 286.538C528.63 286.139 528.913 285.799 529.274 285.561C529.635 285.323 530.059 285.198 530.491 285.201C530.777 285.201 531.061 285.258 531.325 285.368C531.589 285.478 531.828 285.639 532.03 285.842C532.231 286.045 532.39 286.285 532.498 286.55C532.606 286.815 532.661 287.099 532.659 287.385Z" fill="#E0E0E0"/>
<path d="M539.981 287.385C539.981 287.816 539.853 288.239 539.613 288.598C539.373 288.957 539.032 289.237 538.633 289.402C538.234 289.567 537.795 289.61 537.371 289.526C536.948 289.442 536.559 289.234 536.253 288.929C535.948 288.623 535.74 288.234 535.656 287.811C535.571 287.387 535.615 286.948 535.78 286.549C535.945 286.15 536.225 285.809 536.584 285.569C536.943 285.329 537.365 285.201 537.797 285.201C538.376 285.201 538.932 285.431 539.341 285.841C539.751 286.25 539.981 286.805 539.981 287.385Z" fill="#E0E0E0"/>
<path d="M125.412 420.184C126.643 404.21 138.398 379.486 152.845 372.574C160.124 369.152 168.161 367.657 176.184 368.232C184.207 368.807 191.948 371.432 198.666 375.857C207.711 381.965 214.574 391.273 224.474 395.87C244.059 404.965 267.306 392.078 280.982 375.365C294.657 358.652 303.227 337.933 318.742 322.83C326.207 315.564 335.048 309.863 344.747 306.062C354.447 302.262 364.808 300.438 375.222 300.698C385.636 300.958 395.893 303.297 405.39 307.576C414.887 311.856 423.434 317.991 430.527 325.62C441.05 336.948 447.946 351.084 456.4 364.02C464.855 376.957 475.707 389.418 490.401 394.261C510.578 400.91 533.348 391.142 547.631 375.398C561.914 359.653 569.335 338.984 575.541 318.66C581.746 298.335 587.181 277.37 598.525 259.41C609.869 241.449 628.601 226.575 649.845 226.033V419.593L125.412 420.184Z" fill="#F0F0F0"/>
</g>
<path d="M684.634 663.242C684.634 663.472 531.362 663.669 342.333 663.669C153.305 663.669 0 663.472 0 663.242C0 663.012 153.239 662.815 342.333 662.815C531.427 662.815 684.634 663.078 684.634 663.242Z" fill="#263238"/>
<path d="M554.674 250.364C555.006 250.321 555.336 250.255 555.659 250.167C556.118 250.007 556.535 249.747 556.882 249.407C557.228 249.066 557.495 248.653 557.662 248.197C557.861 247.498 557.923 246.768 557.842 246.046C557.842 245.241 557.842 244.404 557.842 243.403C557.842 241.482 557.842 239.282 557.842 236.836C557.842 226.87 557.76 212.489 557.695 194.758C557.695 185.86 557.695 176.141 557.695 165.7C557.695 160.463 557.695 155.061 557.695 149.496C557.695 146.721 557.695 143.897 557.695 141.041C557.695 139.645 557.695 138.102 557.695 136.789C557.588 136.149 557.266 135.565 556.782 135.132C556.299 134.699 555.683 134.444 555.035 134.408H478.465C477.721 134.408 477.007 134.698 476.473 135.216C475.94 135.734 475.63 136.44 475.608 137.183C475.608 138.825 475.608 140.466 475.608 142.207V171.676C475.608 184.465 475.608 196.794 475.608 208.549C475.608 220.304 475.608 231.533 475.608 241.892V245.783C475.558 246.401 475.558 247.021 475.608 247.638C475.703 248.196 475.967 248.712 476.363 249.116C476.754 249.529 477.256 249.82 477.808 249.953C478.395 250.041 478.989 250.068 479.581 250.035H497.197L539.274 250.183L550.767 250.265H553.738H554.756C554.756 250.265 554.411 250.265 553.738 250.265H550.767L539.274 250.347L497.197 250.479H483.259H479.581C478.934 250.517 478.284 250.484 477.644 250.38C476.964 250.227 476.346 249.872 475.871 249.362C475.378 248.858 475.046 248.217 474.919 247.523C474.871 246.868 474.871 246.209 474.919 245.553V241.662C474.919 231.221 474.919 220.057 474.919 208.319C474.919 196.581 474.919 184.235 474.919 171.446C474.919 165.065 474.919 158.564 474.919 151.942V141.977C474.919 140.335 474.919 138.693 474.919 136.92C474.949 135.956 475.353 135.042 476.045 134.371C476.738 133.699 477.665 133.324 478.629 133.325H555.084C555.906 133.377 556.686 133.705 557.297 134.256C557.908 134.808 558.314 135.55 558.45 136.362C558.565 138.004 558.45 139.284 558.45 140.745V149.2C558.45 154.766 558.45 160.167 558.45 165.404C558.45 175.846 558.45 185.565 558.45 194.463C558.45 212.193 558.351 226.575 558.319 236.54C558.319 239.019 558.319 241.219 558.319 243.107C558.319 244.059 558.319 244.946 558.319 245.75C558.382 246.492 558.304 247.238 558.089 247.95C557.91 248.428 557.623 248.858 557.25 249.206C556.877 249.553 556.427 249.809 555.938 249.953C555.562 250.203 555.125 250.345 554.674 250.364Z" fill="#263238"/>
<path d="M521.971 156.949C510.807 154.47 498.543 160.528 495.407 172.037C492.387 183.086 499.692 195.99 510.774 198.994C516.24 200.304 521.996 199.565 526.954 196.918C531.913 194.271 535.729 189.899 537.682 184.629C541.655 172.825 534.087 160.101 522.66 156.342C521.347 155.899 520.821 157.984 522.102 158.41C531.837 161.973 538.831 172.48 535.909 183.036C533.151 193.051 521.412 199.749 511.398 197.089C501.761 194.528 495.539 184.185 496.77 174.549C498.264 162.745 510.758 155.685 521.872 157.606C522.283 157.606 522.463 157.064 522.053 156.982L521.971 156.949Z" fill="#263238"/>
<path d="M510.873 198.649C516.533 200.32 522.622 199.709 527.838 196.948C533.054 194.187 536.982 189.494 538.782 183.874C542.263 171.889 534.497 158.919 522.825 155.357C520.132 154.536 519.163 158.509 521.675 159.494C531.526 163.368 538.093 174.089 534.218 184.612C530.738 193.97 520.493 198.485 510.988 197.418C510.232 197.319 510.134 198.501 510.824 198.698L510.873 198.649Z" fill="#FEE4E0"/>
<path d="M539.324 218.284C539.324 218.514 529.178 218.711 516.635 218.711C504.092 218.711 493.946 218.514 493.946 218.284C493.946 218.054 504.109 217.857 516.635 217.857C529.161 217.857 539.324 218.054 539.324 218.284Z" fill="#FEE4E0"/>
<path d="M539.324 225.163C539.324 225.409 529.178 225.59 516.635 225.59C504.092 225.59 493.946 225.409 493.946 225.163C493.946 224.917 504.109 224.736 516.635 224.736C529.161 224.736 539.324 224.933 539.324 225.163Z" fill="#FEE4E0"/>
<path d="M230.022 62.5334V214.328C230.027 215.946 230.672 217.497 231.816 218.641C232.96 219.786 234.511 220.431 236.13 220.435H438.325C439.943 220.431 441.494 219.786 442.639 218.641C443.783 217.497 444.428 215.946 444.432 214.328V57.2799C444.432 56.4639 444.269 55.6561 443.952 54.9042C443.635 54.1523 443.17 53.4717 442.586 52.9023C442.001 52.333 441.308 51.8867 440.548 51.5896C439.788 51.2925 438.976 51.1507 438.161 51.1727L235.966 56.4262C234.376 56.4731 232.867 57.1367 231.757 58.2765C230.648 59.4163 230.026 60.943 230.022 62.5334Z" fill="#E0E0E0"/>
<path d="M426.373 89.0966C426.373 89.2608 423.796 87.7996 418.903 86.2564C411.967 84.0935 404.63 83.5321 397.446 84.6147C392.537 85.3915 387.782 86.9431 383.36 89.2115C378.31 91.9261 373.636 95.2871 369.454 99.2096C364.89 103.248 360.359 107.812 355.139 112.032C349.814 116.572 343.586 119.93 336.866 121.882C333.384 122.781 329.76 122.998 326.195 122.522C322.776 122.006 319.455 120.977 316.345 119.469C310.649 116.497 305.124 113.208 299.796 109.618C295.022 106.451 289.758 104.094 284.216 102.641C279.384 101.469 274.394 101.086 269.44 101.508C262.21 102.11 255.214 104.356 248.984 108.075C244.601 110.767 242.532 112.77 242.417 112.639C242.859 112.103 243.354 111.613 243.895 111.178C245.382 109.842 246.974 108.629 248.656 107.55C253.916 104.154 259.804 101.849 265.972 100.771C272.14 99.694 278.461 99.8664 284.561 101.278C290.257 102.7 295.674 105.07 300.584 108.288C305.88 111.807 311.36 115.041 317.001 117.975C323.021 121.041 329.94 121.851 336.505 120.257C343.005 118.342 349.029 115.081 354.186 110.685C359.341 106.565 363.889 102.017 368.519 97.9783C372.82 94.0101 377.622 90.6213 382.802 87.8981C387.366 85.6859 392.254 84.2172 397.282 83.5476C404.614 82.5222 412.086 83.248 419.084 85.6654C420.976 86.3095 422.815 87.0999 424.584 88.0295C425.215 88.3225 425.815 88.6801 426.373 89.0966Z" fill="#455A64"/>
<path d="M297.563 124.755H277.78V178.242H297.563V124.755Z" fill="#455A64"/>
<path d="M381.488 124.755H361.705V178.242H381.488V124.755Z" fill="#455A64"/>
<path d="M409.447 93.3487H389.664V178.242H409.447V93.3487Z" fill="#455A64"/>
<path d="M271.968 161.398H252.186V179.392H271.968V161.398Z" fill="#455A64"/>
<path d="M325.538 148.905H305.755V178.242H325.538V148.905Z" fill="#455A64"/>
<path d="M353.513 142.174H333.73V178.242H353.513V142.174Z" fill="#455A64"/>
<path d="M298.351 184.547C298.351 184.99 293.573 185.335 287.663 185.335C281.753 185.335 276.976 184.99 276.976 184.547C276.976 184.103 281.769 183.759 287.663 183.759C293.557 183.759 298.351 184.103 298.351 184.547Z" fill="#263238"/>
<path d="M273.741 184.547C273.741 184.99 268.948 185.335 263.054 185.335C257.16 185.335 252.366 184.99 252.366 184.547C252.366 184.103 257.16 183.759 263.054 183.759C268.948 183.759 273.741 184.103 273.741 184.547Z" fill="#263238"/>
<path d="M413.354 184.547C413.354 184.99 407.936 185.335 401.271 185.335C394.605 185.335 389.188 184.99 389.188 184.547C389.188 184.103 394.589 183.759 401.271 183.759C407.952 183.759 413.354 184.103 413.354 184.547Z" fill="#263238"/>
<path d="M371.884 185.335C378.557 185.335 383.967 184.982 383.967 184.547C383.967 184.111 378.557 183.759 371.884 183.759C365.211 183.759 359.801 184.111 359.801 184.547C359.801 184.982 365.211 185.335 371.884 185.335Z" fill="#263238"/>
<path d="M353.497 184.547C353.497 184.99 348.719 185.335 342.809 185.335C336.899 185.335 332.138 184.99 332.138 184.547C332.138 184.103 336.915 183.759 342.809 183.759C348.703 183.759 353.497 184.103 353.497 184.547Z" fill="#263238"/>
<path d="M324.602 184.547C324.602 184.99 319.808 185.335 313.915 185.335C308.021 185.335 303.227 184.99 303.227 184.547C303.227 184.103 308.004 183.759 313.915 183.759C319.825 183.759 324.602 184.103 324.602 184.547Z" fill="#263238"/>
<path d="M389.073 251.217H389.401C389.739 251.247 390.068 251.341 390.37 251.496C390.874 251.754 391.287 252.161 391.552 252.662C391.87 253.372 391.989 254.155 391.897 254.928C391.897 258.408 391.897 263.514 391.979 270.064C392.061 276.615 391.979 284.692 392.061 294.034C392.061 298.718 392.061 303.709 392.061 309.006V315.031C392.155 315.777 392.018 316.534 391.667 317.198C391.278 317.885 390.635 318.391 389.877 318.61C389.146 318.742 388.402 318.786 387.661 318.742H383.36L383.655 318.446C383.655 323.174 383.655 328.296 383.655 333.583V334.453L383.081 333.796L369.668 318.676L369.93 318.791H231.664H221.994C221.453 318.791 220.976 318.791 220.353 318.791C219.752 318.717 219.184 318.478 218.711 318.101C218.236 317.707 217.879 317.19 217.677 316.607C217.586 316.309 217.536 316 217.529 315.688V280.719C217.529 272.593 217.529 264.597 217.529 256.783V253.828C217.548 253.278 217.709 252.742 217.997 252.273C218.285 251.804 218.689 251.418 219.171 251.152C219.681 250.903 220.245 250.785 220.812 250.807H236.474L315.885 250.905L369.405 251.037L383.967 251.119H369.405L315.885 251.25L236.474 251.349H220.829C220.409 251.319 219.989 251.404 219.614 251.595C219.245 251.785 218.932 252.068 218.707 252.417C218.483 252.765 218.354 253.167 218.333 253.581V280.719C218.333 288.851 218.333 297.12 218.333 305.526V315.031C218.292 315.521 218.331 316.015 218.448 316.492C218.581 316.919 218.839 317.296 219.187 317.576C219.539 317.862 219.967 318.039 220.418 318.085H231.648H369.914H370.078L370.177 318.2L383.557 333.369L382.982 333.583C382.982 328.28 382.982 323.174 382.982 318.446V318.134H387.645C388.33 318.184 389.018 318.156 389.697 318.052C390.305 317.872 390.821 317.467 391.142 316.919C391.47 316.347 391.619 315.689 391.568 315.031C391.568 314.342 391.568 313.652 391.568 312.979V308.94C391.568 303.638 391.568 298.647 391.568 293.968C391.568 284.626 391.568 276.582 391.568 269.999C391.568 263.415 391.568 258.342 391.568 254.862C391.675 254.117 391.578 253.357 391.289 252.662C391.043 252.179 390.661 251.78 390.189 251.513C389.836 251.353 389.459 251.253 389.073 251.217Z" fill="#263238"/>
<path d="M226.723 306.609C228.102 301.799 229.711 296.89 232.912 293.049C236.113 289.207 241.318 286.629 246.161 287.877C253.828 289.847 257.521 300.059 265.353 301.011C269.687 301.602 273.906 299.008 276.697 295.642C279.488 292.277 281.212 288.189 283.346 284.38C286.629 278.651 290.947 273.348 296.841 270.475C302.735 267.602 310.319 267.585 315.474 271.64C324.307 278.601 323.076 293.968 332.483 300.108C334.77 301.547 337.434 302.273 340.135 302.194C342.836 302.115 345.453 301.234 347.652 299.665C351.839 296.562 353.973 291.21 358.373 288.435C363.462 285.152 370.522 286.482 375.135 290.356C379.748 294.231 382.145 300.206 383.015 306.15" fill="#FEE4E0"/>
<path d="M379.847 278.995C379.713 278.967 379.586 278.917 379.469 278.848L378.385 278.339C376.969 277.737 375.509 277.243 374.018 276.861C368.479 275.672 362.733 275.841 357.273 277.354C353.506 278.374 349.841 279.737 346.322 281.425C342.497 283.198 338.541 285.365 334.321 287.549C329.923 289.928 325.345 291.959 320.629 293.623C315.531 295.428 310.119 296.182 304.721 295.839C299.351 295.332 294.091 294.003 289.125 291.899C284.282 289.962 279.832 287.68 275.597 285.546C267.158 281.212 259.18 277.748 252.153 276.697C246.58 275.68 240.84 276.099 235.473 277.912C233.528 278.643 231.659 279.561 229.891 280.653C229.989 280.552 230.099 280.464 230.219 280.391L231.205 279.685C232.508 278.849 233.894 278.151 235.342 277.6C240.751 275.636 246.579 275.116 252.251 276.089C259.459 277.091 267.47 280.539 275.942 284.84C280.194 286.958 284.643 289.223 289.437 291.128C294.327 293.189 299.503 294.49 304.787 294.986C310.073 295.324 315.373 294.587 320.367 292.819C325.041 291.19 329.581 289.198 333.944 286.859C338.179 284.676 342.152 282.541 346.027 280.785C349.593 279.103 353.309 277.756 357.125 276.763C362.677 275.273 368.513 275.199 374.1 276.549C376.139 277.039 378.081 277.866 379.847 278.995Z" fill="#263238"/>
<path d="M306.593 268.521C306.609 268.865 306.522 269.206 306.343 269.5C306.164 269.794 305.901 270.028 305.587 270.171C305.274 270.314 304.925 270.36 304.586 270.303C304.246 270.246 303.931 270.089 303.682 269.851C303.433 269.614 303.26 269.307 303.187 268.971C303.113 268.634 303.142 268.284 303.27 267.964C303.398 267.644 303.618 267.37 303.903 267.177C304.188 266.983 304.524 266.88 304.869 266.879C305.311 266.883 305.735 267.054 306.055 267.359C306.376 267.664 306.568 268.08 306.593 268.521Z" fill="#455A64"/>
<path d="M244.732 275.827C244.732 276.168 244.631 276.501 244.442 276.785C244.252 277.068 243.983 277.289 243.668 277.419C243.353 277.55 243.007 277.584 242.672 277.518C242.338 277.451 242.031 277.287 241.79 277.046C241.548 276.805 241.384 276.497 241.318 276.163C241.251 275.829 241.285 275.482 241.416 275.167C241.546 274.852 241.767 274.583 242.051 274.394C242.334 274.204 242.668 274.103 243.008 274.103C243.238 274.091 243.467 274.128 243.682 274.21C243.896 274.293 244.091 274.419 244.254 274.582C244.416 274.744 244.543 274.939 244.625 275.153C244.708 275.368 244.744 275.597 244.732 275.827Z" fill="#455A64"/>
<path d="M367.829 275.843C367.829 276.187 367.727 276.524 367.536 276.81C367.345 277.096 367.073 277.319 366.755 277.451C366.437 277.583 366.087 277.617 365.749 277.55C365.412 277.483 365.102 277.317 364.858 277.074C364.615 276.83 364.449 276.52 364.382 276.183C364.315 275.845 364.349 275.495 364.481 275.177C364.613 274.859 364.836 274.588 365.122 274.396C365.408 274.205 365.745 274.103 366.089 274.103C366.55 274.103 366.993 274.286 367.319 274.613C367.646 274.939 367.829 275.382 367.829 275.843Z" fill="#455A64"/>
<path d="M484.425 519.279H499.808C506.982 519.279 522.365 500.415 438.9 502.566C384.033 503.978 380.421 512.088 383.196 516.816C383.867 517.89 384.821 518.757 385.954 519.322C387.087 519.887 388.354 520.128 389.615 520.017C390.961 519.919 392.734 519.903 394.836 519.919L393.522 525.698L362.986 660.681L368.306 660.221L390.863 585.917L433.893 584.275L436.355 663.275H443.103L444.744 583.864H444.958L449.505 583.7L487.643 582.223L510.249 663.291H516.718L484.425 519.279ZM394.13 575.327L409.185 525.698L410.826 520.083C417.131 520.083 424.502 519.935 431.89 519.935L433.531 574.112L394.13 575.327ZM450.868 573.554H449.226L445.04 573.686L446.156 519.23H470.191L484.967 572.438L450.868 573.554Z" fill="#455A64"/>
<path d="M346.93 653.966V636.515L378.205 636.318L378.451 662.405L376.514 662.552C367.895 663.111 332.631 664.194 326.852 662.388C320.416 660.402 346.93 653.966 346.93 653.966Z" fill="#FEE4E0"/>
<path d="M326.113 660.796C326.113 661.091 337.802 661.337 352.233 661.337C366.663 661.337 378.353 661.091 378.353 660.796C378.353 660.5 366.663 660.27 352.233 660.27C337.802 660.27 326.113 660.5 326.113 660.796Z" fill="#263238"/>
<path d="M346.388 657.529C346.651 657.397 346.388 656.478 345.748 655.559C345.108 654.639 344.27 654.163 344.106 654.377C343.942 654.59 344.32 655.345 344.944 656.199C345.567 657.053 346.126 657.676 346.388 657.529Z" fill="#263238"/>
<path d="M344.385 658.678C344.664 658.579 344.517 657.545 343.909 656.462C343.302 655.378 342.481 654.705 342.267 654.82C342.054 654.935 342.432 655.903 343.006 656.905C343.581 657.906 344.106 658.793 344.385 658.678Z" fill="#263238"/>
<path d="M368.929 660.681C369.06 660.681 369.52 660.303 370.193 659.532C371.023 658.537 371.94 657.619 372.935 656.79C373.916 656.014 375.081 655.504 376.317 655.312C377.269 655.181 377.959 655.312 377.959 655.181C377.959 655.05 377.433 654.639 376.317 654.557C374.861 654.547 373.446 655.04 372.311 655.953C371.22 656.825 370.301 657.894 369.602 659.105C369.06 659.991 368.814 660.599 368.929 660.681Z" fill="#263238"/>
<path d="M346.29 654.245C346.142 654.492 346.667 655.099 347.57 655.427C348.473 655.756 349.212 655.641 349.311 655.427C349.409 655.214 348.72 654.787 347.932 654.491C347.144 654.196 346.438 653.999 346.29 654.245Z" fill="#263238"/>
<path d="M346.782 652.571C346.782 652.85 347.587 653.112 348.637 653.112C349.688 653.112 350.542 652.899 350.525 652.62C350.509 652.341 349.672 652.078 348.654 652.062C347.636 652.045 346.815 652.275 346.782 652.571Z" fill="#263238"/>
<path d="M412.911 653.966V636.515L444.186 636.318L444.432 662.405L442.495 662.552C433.876 663.111 398.612 664.194 392.833 662.388C386.414 660.402 412.911 653.966 412.911 653.966Z" fill="#FEE4E0"/>
<path d="M392.11 660.796C392.11 661.091 403.816 661.337 418.23 661.337C432.645 661.337 444.35 661.091 444.35 660.796C444.35 660.5 432.661 660.27 418.23 660.27C403.799 660.27 392.11 660.5 392.11 660.796Z" fill="#263238"/>
<path d="M412.386 657.529C412.648 657.397 412.386 656.478 411.746 655.559C411.105 654.639 410.268 654.163 410.104 654.377C409.94 654.59 410.334 655.345 410.941 656.199C411.548 657.053 412.123 657.676 412.386 657.529Z" fill="#263238"/>
<path d="M410.383 658.678C410.662 658.579 410.514 657.545 409.907 656.462C409.299 655.378 408.478 654.705 408.265 654.82C408.052 654.935 408.429 655.903 409.004 656.905C409.578 657.906 410.12 658.793 410.383 658.678Z" fill="#263238"/>
<path d="M434.927 660.681C435.058 660.681 435.518 660.303 436.191 659.532C437.02 658.537 437.938 657.619 438.932 656.79C439.913 656.014 441.078 655.504 442.314 655.312C443.267 655.181 443.956 655.312 443.956 655.181C443.956 655.05 443.414 654.639 442.314 654.557C440.858 654.547 439.443 655.04 438.309 655.953C437.217 656.825 436.298 657.894 435.6 659.105C435.058 659.991 434.812 660.599 434.927 660.681Z" fill="#263238"/>
<path d="M412.287 654.245C412.14 654.492 412.681 655.099 413.568 655.427C414.454 655.756 415.21 655.641 415.308 655.427C415.407 655.214 414.717 654.787 413.929 654.491C413.141 654.196 412.452 653.999 412.287 654.245Z" fill="#263238"/>
<path d="M412.78 652.571C412.78 652.85 413.584 653.112 414.635 653.112C415.686 653.112 416.539 652.899 416.523 652.62C416.507 652.341 415.669 652.078 414.651 652.062C413.633 652.045 412.813 652.275 412.78 652.571Z" fill="#263238"/>
<path d="M502.517 340.938C501.236 340.642 499.644 340.806 498.872 339.739C498.1 338.672 498.659 337.424 499.069 336.292C500.442 332.659 500.483 328.657 499.184 324.997C498.253 322.583 496.61 320.51 494.472 319.054C494.785 318.752 495.056 318.41 495.277 318.036C495.883 316.942 496.188 315.707 496.163 314.457C496.204 313.344 496.01 312.236 495.594 311.204C495.179 310.171 494.55 309.238 493.75 308.464C493.046 307.826 492.13 307.473 491.18 307.473C490.231 307.473 489.315 307.826 488.611 308.464C488.35 308.71 488.142 309.006 488 309.335C487.858 309.664 487.785 310.019 487.785 310.377C487.785 310.735 487.858 311.09 488 311.419C488.142 311.748 488.35 312.044 488.611 312.29C488.956 312.571 489.373 312.75 489.814 312.805C490.255 312.86 490.703 312.79 491.107 312.602C491.648 312.322 491.73 311.978 491.73 311.978C491.527 312.171 491.294 312.332 491.041 312.454C490.668 312.585 490.267 312.616 489.878 312.544C489.489 312.472 489.126 312.299 488.825 312.043C488.61 311.821 488.443 311.556 488.336 311.266C488.229 310.976 488.183 310.667 488.202 310.358C488.22 310.05 488.303 309.748 488.444 309.473C488.585 309.198 488.782 308.955 489.022 308.76C489.65 308.237 490.451 307.967 491.268 308.004C492.085 308.04 492.858 308.38 493.438 308.957C494.144 309.684 494.693 310.55 495.049 311.499C495.405 312.448 495.56 313.461 495.506 314.473C495.529 315.595 495.245 316.702 494.686 317.674C494.464 318.039 494.194 318.37 493.881 318.66C493.004 318.131 492.052 317.738 491.057 317.494C488.94 316.985 486.641 317.116 484.704 316.115C483.088 315.191 481.858 313.717 481.24 311.961C481.24 311.781 481.24 311.584 481.24 311.387C481.472 308.533 481.861 305.694 482.405 302.883C482.77 300.152 482.698 297.381 482.192 294.674C481.814 292.364 480.911 290.171 479.554 288.265C478.196 286.358 476.42 284.788 474.361 283.674C472.948 282.978 471.399 282.603 469.824 282.574C468.249 282.546 466.687 282.865 465.249 283.51C464.48 283.862 463.771 284.333 463.148 284.906L462.803 285.267C461.833 285.748 460.977 286.431 460.291 287.27L455.235 332.877L492.321 355.549C495.209 355.453 498.063 354.899 500.776 353.907C502.129 353.392 503.344 352.568 504.324 351.503C505.304 350.437 506.023 349.158 506.424 347.767C506.768 346.345 506.554 344.846 505.828 343.576C505.101 342.306 503.917 341.362 502.517 340.938ZM478.17 293.18C477.522 291.38 476.522 289.726 475.228 288.317C473.934 286.908 472.373 285.77 470.634 284.971C468.214 284.023 465.517 284.071 463.132 285.103C463.796 284.593 464.524 284.173 465.299 283.855C466.695 283.29 468.196 283.033 469.7 283.101C471.205 283.169 472.677 283.56 474.016 284.249C475.959 285.349 477.626 286.874 478.895 288.711C480.163 290.548 480.998 292.648 481.338 294.854C481.798 297.468 481.853 300.137 481.503 302.768C481.289 304.82 480.715 306.888 480.452 309.088C480.249 307.531 480.128 305.963 480.091 304.393C480.083 300.574 479.433 296.784 478.17 293.18Z" fill="#263238"/>
<path d="M467.187 293.114C466.964 292.24 466.456 291.466 465.742 290.914C464.34 290.28 462.746 290.209 461.293 290.717L461.211 280.243L440.821 263.662L429.838 269.358C427.024 270.821 424.67 273.034 423.035 275.752C421.401 278.47 420.551 281.587 420.578 284.758C420.66 293.196 420.874 304.639 421.432 311.14C422.384 322.304 433.679 323.224 433.679 323.224C433.679 323.224 434.172 327.246 434.5 331.235C434.5 331.235 432.021 364.283 443.645 363.988C452.214 363.774 457.977 345.764 460.407 336.292L461.704 331.087V330.808V330.595L461.457 299.254L461.802 299.615C462.172 299.929 462.626 300.128 463.107 300.186C463.589 300.244 464.077 300.16 464.511 299.944C465.127 299.67 465.682 299.274 466.142 298.781C466.602 298.287 466.957 297.705 467.187 297.071C467.622 295.788 467.622 294.397 467.187 293.114Z" fill="#FFBE9D"/>
<path d="M423.172 292.917C423.174 293.105 423.214 293.291 423.289 293.464C423.364 293.637 423.472 293.793 423.608 293.923C423.745 294.053 423.905 294.154 424.081 294.221C424.257 294.288 424.445 294.319 424.633 294.313C425.012 294.313 425.375 294.162 425.643 293.894C425.911 293.626 426.061 293.263 426.061 292.884C426.061 292.506 425.911 292.142 425.643 291.874C425.375 291.607 425.012 291.456 424.633 291.456C424.439 291.449 424.246 291.482 424.066 291.553C423.885 291.624 423.722 291.732 423.584 291.869C423.447 292.006 423.34 292.17 423.269 292.35C423.198 292.53 423.165 292.723 423.172 292.917Z" fill="#263238"/>
<path d="M421.744 291.407C421.924 291.587 422.958 290.652 424.502 290.537C426.045 290.422 427.21 291.128 427.375 290.914C427.539 290.701 427.243 290.487 426.734 290.159C426.046 289.721 425.232 289.525 424.42 289.601C423.61 289.671 422.845 289.999 422.236 290.537C421.793 290.947 421.645 291.325 421.744 291.407Z" fill="#263238"/>
<path d="M439.753 292.425C439.753 292.804 439.904 293.167 440.172 293.435C440.44 293.703 440.803 293.853 441.182 293.853C441.561 293.853 441.924 293.703 442.192 293.435C442.46 293.167 442.61 292.804 442.61 292.425C442.61 292.046 442.46 291.683 442.192 291.415C441.924 291.147 441.561 290.996 441.182 290.996C440.803 290.996 440.44 291.147 440.172 291.415C439.904 291.683 439.753 292.046 439.753 292.425Z" fill="#263238"/>
<path d="M438.834 290.898C439.014 291.078 440.049 290.159 441.592 290.028C443.135 289.896 444.301 290.619 444.465 290.422C444.629 290.225 444.334 289.979 443.825 289.65C443.131 289.23 442.322 289.041 441.514 289.109C440.706 289.176 439.94 289.498 439.326 290.028C438.883 290.405 438.735 290.816 438.834 290.898Z" fill="#263238"/>
<path d="M433.564 304.13C432.733 304.303 431.883 304.369 431.036 304.327C430.812 304.358 430.586 304.358 430.363 304.327C430.216 304.296 430.078 304.231 429.961 304.137C429.844 304.043 429.751 303.922 429.69 303.785C429.533 303.243 429.568 302.663 429.788 302.144L430.724 298.86C431.438 296.057 432.365 293.313 433.498 290.652C433 293.498 432.286 296.302 431.364 299.041L430.379 302.324C430.195 302.707 430.132 303.136 430.198 303.556C430.281 303.835 430.642 303.884 431.036 303.884C431.886 303.847 432.737 303.929 433.564 304.13Z" fill="#263238"/>
<path d="M438.9 305.378C438.998 305.263 434.451 308.12 431.315 308.202C431.896 308.971 432.719 309.521 433.652 309.762C434.585 310.004 435.573 309.922 436.454 309.531C437.31 309.275 438.037 308.704 438.491 307.934C438.944 307.164 439.09 306.251 438.9 305.378Z" fill="#FAFAFA"/>
<path d="M433.613 323.24C438.918 322.89 444.012 321.027 448.29 317.871C448.29 317.871 445.138 326.162 433.925 325.965L433.613 323.24Z" fill="#EB996E"/>
<path d="M418.953 286.104C423.878 286.777 427.408 285.447 432.169 284.249C436.93 283.05 441.461 279.915 443.119 275.285C443.69 278.345 445.099 281.187 447.19 283.494C447.634 283.986 448.487 284.446 448.832 283.904C448.906 283.745 448.944 283.571 448.944 283.395C448.944 283.219 448.906 283.046 448.832 282.886L447.847 278.979C449.533 282.059 451.725 284.834 454.332 287.188C457.057 289.371 465.348 292.753 464.084 289.502C463.772 288.682 466.546 263.366 442.479 262.989C418.411 262.611 418.953 286.104 418.953 286.104Z" fill="#263238"/>
<path d="M461.605 293.311C461.522 293.311 462.015 292.737 463.049 292.769C463.577 292.811 464.08 293.005 464.499 293.329C464.918 293.652 465.234 294.09 465.408 294.59C465.582 295.089 465.607 295.629 465.48 296.142C465.352 296.655 465.078 297.121 464.691 297.481C464.233 297.881 463.656 298.118 463.049 298.154C462.015 298.154 461.539 297.662 461.605 297.596C461.67 297.53 462.196 297.711 462.984 297.596C463.473 297.509 463.916 297.252 464.236 296.871C464.555 296.49 464.73 296.008 464.73 295.511C464.73 295.014 464.555 294.533 464.236 294.151C463.916 293.77 463.473 293.513 462.984 293.426C462.163 293.196 461.654 293.443 461.605 293.311Z" fill="#EB996E"/>
<path d="M501.565 371.95L505.702 371.113C505.702 371.113 496.689 330.595 465.365 330.595H461.671V330.792V331.071L460.374 336.275C457.944 345.748 452.165 363.758 443.612 363.971C432.76 364.25 434.205 335.536 434.434 331.662C434.163 331.694 433.897 331.766 433.646 331.875C433.646 331.875 399.581 333.763 384.395 363.643L410.662 382.835L417.081 378.96C417.081 378.96 419.183 421.218 415.571 432.727C411.499 445.729 405.195 460.127 405.195 460.127C434.073 457.878 466.924 459.175 501.942 462.409L478.58 376.629C486.431 376.212 494.176 374.636 501.565 371.95Z" fill="#FEE4E0"/>
<path d="M473.458 392.193C473.458 392.193 473.245 392.57 472.719 393.112C471.963 393.857 471.133 394.523 470.24 395.098C467.254 397.044 463.739 398.019 460.177 397.889C456.615 397.76 453.18 396.533 450.342 394.376C449.487 393.743 448.705 393.016 448.011 392.209C447.519 391.634 447.305 391.273 447.355 391.24C447.404 391.208 448.52 392.422 450.638 393.884C453.447 395.817 456.748 396.911 460.156 397.036C463.563 397.161 466.936 396.312 469.879 394.589C472.194 393.309 473.343 392.193 473.458 392.193Z" fill="#263238"/>
<path d="M488.628 414.766C488.326 414.113 488.089 413.431 487.922 412.731C487.462 411.253 486.904 409.447 486.28 407.149C484.868 402.437 482.996 395.919 480.665 388.778C478.334 381.636 476.233 375.168 474.656 370.505C473.934 368.305 473.31 366.45 472.818 364.973C472.546 364.314 472.353 363.625 472.243 362.921C472.599 363.543 472.896 364.197 473.13 364.874C473.655 366.138 474.377 367.993 475.231 370.308C476.955 374.922 479.204 381.341 481.47 388.515C483.735 395.689 485.607 402.224 486.855 406.985C487.478 409.365 487.971 411.302 488.266 412.648C488.468 413.338 488.589 414.049 488.628 414.766Z" fill="#263238"/>
<path d="M478.465 349.967C476.993 349.935 475.551 349.547 474.262 348.834C472.863 348.384 471.587 347.614 470.536 346.585C471.956 346.863 473.324 347.362 474.591 348.063C475.971 348.498 477.277 349.14 478.465 349.967Z" fill="#263238"/>
<path d="M486.543 364.02C486.639 362.369 487.022 360.747 487.676 359.227C488.067 357.614 488.734 356.082 489.646 354.695C489.529 356.346 489.141 357.965 488.497 359.489C488.106 361.099 487.446 362.631 486.543 364.02Z" fill="#263238"/>
<path d="M458.42 374.134C458.78 372.628 459.373 371.188 460.177 369.865C460.728 368.414 461.491 367.053 462.442 365.826C461.819 368.889 460.435 371.745 458.42 374.134Z" fill="#263238"/>
<path d="M453.33 383.032C451.867 382.268 450.589 381.192 449.587 379.88C448.377 378.75 447.435 377.365 446.829 375.825C449.194 378.06 451.389 380.47 453.396 383.032H453.33Z" fill="#263238"/>
<path d="M473.655 381.685C472.801 383.465 471.607 385.06 470.142 386.381C468.922 387.696 467.562 388.874 466.086 389.894L464.872 390.633L465.824 389.664C466.054 389.434 466.201 389.336 466.251 389.369C466.3 389.402 466.251 389.582 466.119 389.861L465.857 389.631C466.431 388.942 467.892 387.514 469.534 385.79C470.779 384.299 472.159 382.925 473.655 381.685Z" fill="#263238"/>
<path d="M478.071 410.99C476.444 410.716 474.901 410.076 473.557 409.119C472.062 408.403 470.753 407.353 469.731 406.049C471.234 406.66 472.661 407.442 473.984 408.38C475.45 409.076 476.823 409.953 478.071 410.99Z" fill="#263238"/>
<path d="M457.501 404.292C456.944 405.863 456.116 407.325 455.054 408.61C454.223 410.055 453.158 411.354 451.902 412.451C452.451 410.876 453.279 409.414 454.349 408.134C455.181 406.689 456.246 405.391 457.501 404.292Z" fill="#263238"/>
<path d="M444.005 405.622C442.725 405.15 441.557 404.418 440.574 403.471C438.817 402.109 437.52 400.844 437.668 400.664C437.816 400.483 439.31 401.435 441.099 402.798C442.889 404.161 444.104 405.425 444.005 405.622Z" fill="#263238"/>
<path d="M436.7 385.626C436.831 385.823 435.551 386.972 433.827 388.203C432.103 389.434 430.543 390.272 430.543 390.075C430.543 389.878 431.676 388.729 433.4 387.497C434.362 386.656 435.484 386.019 436.7 385.626Z" fill="#263238"/>
<path d="M433.909 375.496C433.728 375.644 432.546 374.396 431.266 372.722C429.985 371.047 429.115 369.553 429.296 369.438C429.476 369.323 430.675 370.555 431.939 372.229C433.203 373.904 434.106 375.365 433.909 375.496Z" fill="#263238"/>
<path d="M463.181 348.572C463.454 347.145 464.012 345.788 464.822 344.582C465.387 343.243 466.2 342.023 467.219 340.987C466.941 342.417 466.383 343.779 465.578 344.993C465.017 346.33 464.203 347.545 463.181 348.572Z" fill="#263238"/>
<path d="M426.603 350.279C425.091 349.834 423.669 349.129 422.4 348.194C420.991 347.488 419.718 346.538 418.641 345.387C420.16 345.811 421.586 346.519 422.843 347.472C424.256 348.172 425.53 349.123 426.603 350.279Z" fill="#263238"/>
<path d="M407.444 345.37C407.658 345.485 407.05 346.897 406.098 348.49C405.146 350.082 404.21 351.314 403.997 351.182C403.783 351.051 404.407 349.672 405.359 348.063C406.311 346.454 407.247 345.256 407.444 345.37Z" fill="#263238"/>
<path d="M427.375 456.22C424.585 455.077 422.043 453.404 419.889 451.295C421.335 451.751 422.683 452.475 423.862 453.429C425.187 454.146 426.376 455.091 427.375 456.22Z" fill="#263238"/>
<path d="M482.241 450.343C482.422 450.507 481.223 452.083 479.565 453.889C477.907 455.695 476.446 457.008 476.282 456.844C476.118 456.68 477.3 455.104 478.958 453.298C480.616 451.492 482.077 450.178 482.241 450.343Z" fill="#263238"/>
<path d="M444.958 456.499C444.892 454.311 444.892 452.121 444.958 449.932C445.171 449.932 445.762 451.328 445.762 453.216C445.89 454.371 445.605 455.534 444.958 456.499Z" fill="#263238"/>
<path d="M464.363 456.811C462.918 456.421 461.56 455.764 460.357 454.874C459.012 454.221 457.803 453.318 456.794 452.214C459.587 453.25 462.156 454.81 464.363 456.811Z" fill="#263238"/>
<path d="M501.975 462.426C501.648 462.462 501.317 462.462 500.99 462.426L498.166 462.196L487.823 461.276C479.089 460.521 467.023 459.438 453.659 459.224C440.295 459.011 428.163 459.306 419.413 459.635L409.037 460.078L406.213 460.193C405.886 460.239 405.555 460.239 405.228 460.193L406.197 460.045L409.02 459.783C411.45 459.569 414.996 459.323 419.38 459.06C428.147 458.568 440.262 458.141 453.675 458.403C467.088 458.666 479.155 459.799 487.889 460.702C492.24 461.178 495.769 461.588 498.199 461.9L501.006 462.278C501.334 462.287 501.66 462.337 501.975 462.426Z" fill="#263238"/>
<g opacity="0.2">
<path d="M472.21 362.921L480.419 417.508C480.419 417.508 488.02 417.508 489.416 415.242L472.21 362.921Z" fill="black"/>
<path d="M472.21 362.921L480.419 417.508C480.419 417.508 488.02 417.508 489.416 415.242L472.21 362.921Z" fill="black"/>
</g>
<path d="M424.551 459.109C405.228 460.603 394.672 459.274 373.411 461.276C366.227 462.224 359.62 465.711 354.784 471.107C349.948 476.503 347.202 483.452 347.045 490.696L343.318 651.274H382.375L388.548 507.311L400.04 508.772C398.563 562.686 404.194 651.274 404.194 651.274L447.568 649.156L445.089 510.889C445.089 510.889 503.42 514.846 501.959 462.475C501.975 462.426 456.039 456.86 424.551 459.109Z" fill="#263238"/>
<path d="M436.224 458.699C435.249 458.918 434.262 459.083 433.269 459.191C431.364 459.487 428.606 459.897 425.224 460.521C421.257 461.076 417.371 462.107 413.65 463.591C411.504 464.542 409.517 465.815 407.756 467.367C405.883 469.04 404.364 471.072 403.291 473.343C401.329 477.832 400.376 482.696 400.5 487.593C400.5 492.125 400.664 496.245 400.631 499.693C400.598 503.141 400.484 505.932 400.352 507.902C400.352 508.87 400.221 509.625 400.155 510.118C400.145 510.378 400.106 510.637 400.04 510.889C399.969 509.895 399.969 508.896 400.04 507.902C400.04 505.964 400.04 503.19 400.04 499.693C400.04 496.196 399.843 492.108 399.728 487.593C399.555 482.569 400.515 477.569 402.536 472.966C403.662 470.599 405.253 468.483 407.215 466.743C409.042 465.142 411.108 463.835 413.338 462.869C417.134 461.393 421.099 460.4 425.142 459.914C428.541 459.372 431.332 459.044 433.252 458.863C434.205 458.781 434.894 458.715 435.469 458.699C435.719 458.658 435.974 458.658 436.224 458.699Z" fill="#455A64"/>
<path d="M385.1 497.263C385.944 498.842 386.653 500.49 387.218 502.188C388.055 503.792 388.51 505.568 388.548 507.376C387.704 505.797 386.995 504.15 386.43 502.451C385.584 500.851 385.129 499.073 385.1 497.263Z" fill="#455A64"/>
<path d="M388.285 493.98C389.023 496.091 389.406 498.31 389.418 500.547C389.673 502.805 389.38 505.091 388.564 507.212C388.302 507.212 388.745 504.224 388.564 500.645C388.384 497.066 387.99 493.98 388.285 493.98Z" fill="#455A64"/>
<path d="M442.15 497.017C443.147 499.174 443.806 501.472 444.104 503.83C444.651 506.128 445.008 508.467 445.171 510.824C444.18 508.662 443.537 506.357 443.267 503.994C442.699 501.704 442.325 499.37 442.15 497.017Z" fill="#455A64"/>
<path d="M446.057 496.984C447.036 501.588 446.775 506.37 445.302 510.84C445.319 508.524 445.467 506.211 445.745 503.912C445.729 501.599 445.833 499.286 446.057 496.984Z" fill="#455A64"/>
<path d="M381.374 641.85C381.374 642.08 372.82 642.277 362.264 642.277C351.708 642.277 343.154 642.08 343.154 641.85C343.154 641.62 351.708 641.423 362.264 641.423C372.82 641.423 381.374 641.604 381.374 641.85Z" fill="#455A64"/>
<path d="M447.043 641.128C447.043 641.358 437.307 641.555 425.306 641.555C413.305 641.555 403.57 641.358 403.57 641.128C403.57 640.898 413.305 640.701 425.306 640.701C437.307 640.701 447.043 640.898 447.043 641.128Z" fill="#455A64"/>
<path d="M496.787 486.461H496.245H494.604H488.365L465.381 486.575H449.538C446.626 486.566 443.722 486.897 440.886 487.561C437.899 488.241 435.223 489.899 433.285 492.272C431.448 494.924 430.468 498.076 430.478 501.302C430.314 504.585 430.675 508.016 430.806 511.513C430.981 518.496 431.173 525.692 431.381 533.102C432.218 562.653 432.907 589.43 433.154 608.819C433.285 618.505 433.318 626.352 433.318 631.803C433.318 634.473 433.318 636.558 433.318 638.058C433.318 638.731 433.318 639.256 433.318 639.7C433.344 639.885 433.344 640.073 433.318 640.258C433.296 640.072 433.296 639.885 433.318 639.7C433.318 639.289 433.318 638.764 433.318 638.058C433.318 636.564 433.318 634.479 433.203 631.803C433.088 626.336 432.94 618.505 432.76 608.819C432.349 589.446 431.578 562.67 430.74 533.102C430.543 525.714 430.363 518.507 430.182 511.53C430.051 508.066 429.706 504.635 429.887 501.236C429.884 497.851 430.928 494.549 432.875 491.78C434.922 489.284 437.75 487.549 440.903 486.855C443.804 486.186 446.774 485.855 449.752 485.87H465.594L488.578 486.034L494.817 486.132H496.459C496.579 486.23 496.689 486.34 496.787 486.461Z" fill="#455A64"/>
<path opacity="0.2" d="M395.427 508.131C395.427 508.131 393.916 488.677 401.222 477.497L400.056 508.69L395.427 508.131Z" fill="black"/>
<path d="M398.579 489.629C398.437 489.651 398.293 489.651 398.152 489.629L396.871 489.399C395.739 489.186 394.097 488.858 391.946 488.611C389.357 488.293 386.731 488.449 384.197 489.071C382.629 489.485 381.15 490.18 379.83 491.123C378.385 492.198 377.229 493.613 376.465 495.244C374.823 498.691 374.626 503.009 374.527 507.54C374.429 512.072 374.298 516.964 374.166 522.086C373.887 532.33 373.592 543.593 373.28 555.413C372.59 579.021 371.95 600.397 371.49 615.96C371.228 623.643 370.998 629.898 370.85 634.298C370.751 636.416 370.686 638.091 370.637 639.223C370.637 639.749 370.637 640.176 370.554 640.52C370.576 640.667 370.576 640.817 370.554 640.964C370.529 640.817 370.529 640.667 370.554 640.52C370.554 640.176 370.554 639.749 370.554 639.223C370.554 638.009 370.554 636.334 370.554 634.298C370.637 629.882 370.768 623.643 370.916 615.944C371.31 600.38 371.868 579.005 372.459 555.38C372.804 543.56 373.116 532.314 373.411 522.07C373.559 516.947 373.707 512.072 373.854 507.524C374.002 502.976 374.166 498.577 375.956 494.981C376.781 493.273 378.016 491.795 379.551 490.68C380.926 489.715 382.468 489.013 384.099 488.611C386.697 488.001 389.388 487.89 392.028 488.283C394.179 488.578 395.821 488.972 396.953 489.219L398.218 489.547C398.447 489.563 398.595 489.613 398.579 489.629Z" fill="#455A64"/>
<path d="M395.558 365.794C395.558 365.794 354.334 407.149 346.47 416.392C339.756 424.288 344.139 439.179 349.754 439.819C355.369 440.459 446.255 439.228 446.255 439.228L445.056 420.644C445.056 420.644 386.184 420.906 384.46 419.823C382.736 418.739 418.51 382.572 418.51 382.572L395.558 365.794Z" fill="#FFBE9D"/>
<path d="M504.569 371.195C504.569 371.195 517.095 409.168 518.605 413.65C520.116 418.132 527.898 437.127 513.122 438.719C498.347 440.312 419.051 438.719 419.051 438.719L413.157 419.527C413.157 419.527 489.793 419.33 489.416 415.242C489.038 411.155 477.776 376.859 477.776 376.859L504.569 371.195Z" fill="#FFBE9D"/>
<path d="M337.228 359.358L365.712 438.259L496.836 438.21L495.933 434.352L446.731 432.546L422.515 358.143L337.228 359.358Z" fill="#263238"/>
<path d="M395.673 395.279C395.691 396.167 395.454 397.042 394.99 397.8C394.526 398.557 393.854 399.166 393.055 399.554C392.255 399.941 391.361 400.091 390.479 399.986C389.597 399.881 388.763 399.526 388.077 398.961C387.391 398.397 386.881 397.648 386.607 396.803C386.334 395.957 386.309 395.051 386.534 394.192C386.76 393.333 387.228 392.556 387.881 391.954C388.535 391.353 389.348 390.951 390.223 390.797C391.538 390.678 392.847 391.081 393.867 391.92C394.887 392.759 395.536 393.965 395.673 395.279Z" fill="#FAFAFA"/>
<path d="M564.656 436.536H254.895H251.529H248.18V663.078H254.895V449.883H564.656V663.242H643.837V449.883V436.536H564.656Z" fill="#455A64"/>
<path d="M183.529 654.229V637.27L153.157 637.073L152.894 662.437L154.782 662.569C163.171 663.111 197.467 664.211 203.049 662.421C209.337 660.484 183.529 654.229 183.529 654.229Z" fill="#FEE4E0"/>
<path d="M203.772 660.878C203.772 661.157 192.411 661.387 178.39 661.387C164.37 661.387 153.009 661.157 153.009 660.878C153.009 660.599 164.37 660.352 178.39 660.352C192.411 660.352 203.772 660.582 203.772 660.878Z" fill="#263238"/>
<path d="M184.071 657.693C183.824 657.562 184.071 656.659 184.678 655.788C185.285 654.918 186.139 654.426 186.32 654.623C186.5 654.82 186.106 655.575 185.499 656.396C184.891 657.217 184.317 657.824 184.071 657.693Z" fill="#263238"/>
<path d="M186.008 658.809C185.745 658.711 185.877 657.709 186.484 656.659C187.091 655.608 187.863 655.017 188.126 655.132C188.388 655.247 187.978 656.166 187.42 657.151C186.862 658.136 186.353 658.908 186.008 658.809Z" fill="#263238"/>
<path d="M162.153 660.763C162.038 660.845 161.579 660.402 160.922 659.647C160.124 658.675 159.234 657.785 158.262 656.987C157.313 656.227 156.181 655.729 154.979 655.542C154.043 655.411 153.452 655.542 153.337 655.411C153.222 655.28 153.846 654.886 154.979 654.82C156.395 654.789 157.775 655.267 158.87 656.166C159.925 657.015 160.815 658.05 161.497 659.22C162.038 660.09 162.268 660.681 162.153 660.763Z" fill="#263238"/>
<path d="M184.153 654.508C184.317 654.754 183.792 655.329 182.922 655.657C182.051 655.985 181.28 655.854 181.28 655.575C181.28 655.296 181.854 654.968 182.61 654.689C183.365 654.409 184.005 654.262 184.153 654.508Z" fill="#263238"/>
<path d="M183.677 652.866C183.677 653.145 182.905 653.391 181.871 653.408C180.837 653.424 180.032 653.194 180.049 652.915C180.065 652.636 180.886 652.39 181.871 652.374C182.856 652.357 183.66 652.587 183.677 652.866Z" fill="#263238"/>
<path d="M271.722 148.445L272.001 143.306C272.502 140.462 272.716 137.575 272.642 134.687C272.638 133.253 272.382 131.831 271.887 130.485C271.343 128.779 270.57 127.155 269.588 125.658C269.343 125.411 269.182 125.092 269.13 124.748C269.078 124.404 269.136 124.052 269.297 123.743C269.458 123.434 269.713 123.184 270.025 123.03C270.337 122.875 270.69 122.824 271.033 122.883C272.478 123.261 275.433 126.692 276.779 131.814C278.125 136.937 281.573 129.352 282.87 126.61C284.167 123.868 288.632 115.578 289.781 115.315C291.423 114.921 292.228 116.678 290.848 119.387C289.469 122.095 285.923 130.501 287.434 131.125C288.505 130.84 289.625 130.79 290.717 130.977C290.889 131.015 291.046 131.105 291.166 131.234C291.286 131.363 291.364 131.525 291.39 131.699C291.455 132.504 291.615 133.297 291.866 134.064C291.866 134.064 293.902 133.407 294.411 134.277C294.788 135.181 295.016 136.14 295.084 137.117C295.084 137.117 296.627 136.444 297.448 136.969C299.205 138.119 297.301 140.532 297.301 140.532C293.114 146.558 288.546 152.311 283.625 157.754L271.69 148.15" fill="#FFBE9D"/>
<path d="M125.691 148.1L125.494 213.589L153.518 214.886L154.322 198.961C154.322 198.961 164.304 200.948 166.882 191.672C168.523 185.762 168.113 140.007 168.113 140.007L125.691 148.1Z" fill="#FFBE9D"/>
<path d="M166.652 129.894C158.098 132.652 156.046 133.587 152.205 133.883C148.363 134.178 122.358 134.211 119.977 148.872C119.657 148.183 119.409 147.462 119.239 146.721C119.047 145.284 118.943 143.837 118.927 142.387C118.515 143.059 118.255 143.813 118.167 144.596C118.079 145.379 118.165 146.172 118.418 146.918C118.484 147.238 118.577 147.551 118.697 147.854C118.516 147.69 118.352 147.509 118.155 147.345C117.211 146.51 116.088 145.903 114.872 145.572C113.936 145.342 113.328 145.391 113.23 145.572C114.759 146.231 116.207 147.063 117.548 148.051C118.418 148.807 119.166 149.693 119.764 150.678C119.764 150.678 119.764 150.809 119.764 150.875C119.764 150.941 114.166 148.412 115.643 158.558C117.121 168.704 123.737 177.323 124.558 193.937C124.558 193.937 147.756 196.695 151.893 187.781L155.357 177.553C155.357 177.553 149.775 176.634 150.432 172.152C151.334 165.929 156.079 165.782 159.625 168.54L163.697 157.639C163.697 157.639 174.007 150.875 174.598 146.557C175.189 142.239 175.123 127.119 166.652 129.894Z" fill="#263238"/>
<path d="M47.9715 641.555L43.8672 659.876L72.2198 663.39L73.2377 645.232L47.9715 641.555Z" fill="#FEE4E0"/>
<path d="M60.7767 642.458C60.7605 645.284 60.4524 648.1 59.8573 650.863C59.5362 653.652 58.9367 656.402 58.0679 659.072C58.4109 653.435 59.3184 647.847 60.7767 642.392V642.458Z" fill="#263238"/>
<path d="M72.3345 661.436C70.9538 661.391 69.58 661.221 68.2302 660.927L58.3798 659.285C54.5217 658.645 51.0577 658.005 48.5294 657.447C47.1647 657.221 45.8275 656.852 44.54 656.347C45.9222 656.372 47.2979 656.542 48.6444 656.856L58.4947 658.497C62.3364 659.138 65.8168 659.778 68.3451 660.336C69.7132 660.546 71.0521 660.915 72.3345 661.436Z" fill="#263238"/>
<path d="M90.0324 353.579L37.4971 648.565L82.4476 651.11C82.4476 651.11 130.189 396.839 137.199 396.215C140.138 395.936 141.32 649.041 143.668 648.565C146.015 648.089 192.246 649.386 192.246 649.386C192.246 649.386 185.991 349.836 186.106 349.836L90.0324 353.579Z" fill="#263238"/>
<path d="M156.441 390.009C156.441 390.239 148.692 392.094 139.038 394.146C129.385 396.198 121.505 397.676 121.455 397.43C121.406 397.183 129.204 395.345 138.858 393.293C148.511 391.24 156.391 389.779 156.441 390.009Z" fill="#455A64"/>
<path d="M85.7804 633.789C85.7804 634.036 75.6181 633.904 63.0917 633.527C50.5653 633.149 40.4194 632.624 40.4194 632.394C40.4194 632.164 50.5817 632.279 63.1081 632.657C75.6345 633.034 85.7804 633.527 85.7804 633.789Z" fill="#455A64"/>
<path d="M191.951 633.822C191.951 634.052 180.968 633.921 167.456 633.51C153.945 633.1 142.978 632.591 142.978 632.361C142.978 632.131 153.945 632.263 167.473 632.657C181 633.051 191.951 633.527 191.951 633.822Z" fill="#455A64"/>
<path d="M112.475 398.185C112.704 398.185 101.59 450.852 87.6352 515.7C73.6805 580.548 62.1884 633.1 61.9586 633.05C61.7287 633.001 72.8432 580.4 86.7979 515.519C100.753 450.638 112.228 398.136 112.475 398.185Z" fill="#455A64"/>
<path d="M167.653 633.083C167.634 632.881 167.634 632.678 167.653 632.476C167.653 632.033 167.653 631.442 167.555 630.686C167.555 629.045 167.391 626.763 167.259 623.808C167.013 617.848 166.734 609.196 166.422 598.509C165.798 577.166 165.174 547.615 165.026 515.01C164.879 482.406 165.191 452.871 165.617 431.496C165.814 420.808 166.028 412.172 166.225 406.196C166.323 403.241 166.389 400.943 166.455 399.318C166.455 398.562 166.455 397.971 166.455 397.528C166.433 397.326 166.433 397.123 166.455 396.921C166.481 397.122 166.481 397.326 166.455 397.528V399.318C166.455 400.959 166.455 403.241 166.455 406.196C166.373 412.222 166.258 420.857 166.11 431.512C165.847 452.854 165.617 482.406 165.782 515.01C165.946 547.615 166.455 577.133 166.914 598.509C167.161 609.147 167.358 617.782 167.505 623.808C167.505 626.746 167.604 629.061 167.637 630.686C167.637 631.442 167.637 632.033 167.637 632.476C167.668 632.677 167.674 632.881 167.653 633.083Z" fill="#455A64"/>
<path d="M267.011 146.968C267.011 146.968 232.206 199.503 229.251 202.409C226.296 205.315 171.79 211.093 171.79 211.093C155.045 207.318 100.933 208.565 90.7219 216.019C81.873 220.944 71.136 232.436 65.6034 259.574C56.1635 306.002 46.7236 323.109 65.6034 329.593C73.1516 332.167 80.9314 334.004 88.8339 335.077L88.3085 356.091L186.156 350L181.23 297.826C180.639 283.165 180.36 267.897 179.999 254.369C186.123 252.055 243.025 230.515 246.932 229.957C250.84 229.399 288.32 160.463 288.32 160.463C289.437 152.27 267.011 146.968 267.011 146.968Z" fill="#FEE4E0"/>
<path d="M91.5265 241.974C91.7564 241.974 91.231 267.552 90.3609 299.074C89.4908 330.595 88.5714 356.157 88.3252 356.157C88.0789 356.157 88.6207 330.578 89.5072 299.057C90.3937 267.536 91.2967 241.974 91.5265 241.974Z" fill="#263238"/>
<path d="M234.16 214.229C232.855 212.505 231.886 210.55 231.303 208.467C230.465 206.505 229.784 204.479 229.268 202.409C230.564 204.137 231.527 206.091 232.108 208.171C232.935 210.139 233.621 212.164 234.16 214.229Z" fill="#263238"/>
<path d="M238.067 209.764C236.407 208.829 234.845 207.728 233.405 206.48C231.77 205.437 230.362 204.075 229.268 202.474C230.922 203.419 232.484 204.518 233.93 205.758C235.556 206.812 236.961 208.173 238.067 209.764Z" fill="#263238"/>
<path d="M286.367 164.649C285.21 164.095 284.111 163.43 283.083 162.662C281.081 161.398 278.306 159.691 275.121 157.984C271.936 156.276 268.981 154.914 266.814 153.961C265.603 153.528 264.438 152.978 263.333 152.32C264.609 152.53 265.855 152.894 267.044 153.403C272.885 155.581 278.407 158.536 283.461 162.186C284.529 162.882 285.505 163.71 286.367 164.649Z" fill="#263238"/>
<path d="M90.3608 299.32C88.322 299.442 86.2768 299.237 84.3028 298.712C82.2704 298.432 80.3095 297.769 78.5239 296.759C80.5397 296.953 82.5341 297.326 84.4834 297.875C86.4912 298.131 88.4631 298.616 90.3608 299.32Z" fill="#263238"/>
<path d="M180.738 210.355C178.964 210.659 177.209 211.07 175.485 211.586C171.367 212.934 167.789 215.563 165.272 219.09C162.755 222.617 161.433 226.856 161.497 231.188C161.583 232.986 161.764 234.778 162.039 236.557C161.784 236.132 161.606 235.665 161.513 235.178C161.153 233.882 160.944 232.549 160.89 231.205C160.665 226.707 161.966 222.265 164.583 218.6C167.199 214.934 170.977 212.26 175.304 211.011C176.592 210.623 177.919 210.38 179.261 210.289C179.753 210.219 180.254 210.242 180.738 210.355Z" fill="#263238"/>
<path d="M186.172 350.066C186.172 350.312 164.288 351.855 137.282 353.53C110.275 355.204 88.3416 356.386 88.3252 356.157C88.3088 355.927 110.209 354.367 137.232 352.676C164.255 350.985 186.156 349.836 186.172 350.066Z" fill="#263238"/>
<path d="M147.197 209.32C147.339 209.714 147.438 210.121 147.493 210.535C147.493 210.946 147.69 211.438 147.756 212.029C147.821 212.62 147.871 213.326 147.953 214.098C148.148 218.531 147.427 222.958 145.835 227.1C143.506 233.315 139.226 238.609 133.637 242.188C132.838 242.695 132.004 243.145 131.141 243.534C130.278 243.954 129.39 244.321 128.482 244.634C126.659 245.291 124.771 245.849 122.9 246.522C120.999 247.145 119.181 247.994 117.482 249.05C115.785 250.199 114.283 251.612 113.033 253.237C110.692 256.616 108.533 260.118 106.565 263.727C104.676 267.179 101.906 270.068 98.5366 272.1C95.3483 273.711 91.7623 274.367 88.2102 273.988C85.1458 273.708 82.161 272.856 79.4105 271.476C75.4576 269.477 71.8673 266.83 68.7885 263.645C67.6886 262.545 66.8677 261.659 66.3259 261.068C66.0194 260.779 65.7493 260.453 65.5215 260.099C65.8445 260.359 66.1515 260.639 66.4408 260.936L69.0184 263.415C72.1439 266.466 75.728 269.009 79.6403 270.951C82.3423 272.247 85.2571 273.043 88.243 273.299C91.6407 273.613 95.0578 272.953 98.0934 271.394C101.335 269.423 103.993 266.624 105.793 263.284C107.782 259.639 109.975 256.11 112.36 252.711C113.669 251.015 115.244 249.54 117.022 248.344C118.775 247.245 120.655 246.363 122.621 245.717L128.203 243.862C129.094 243.561 129.966 243.204 130.813 242.795C131.651 242.434 132.458 242.006 133.226 241.515C138.719 238.054 142.955 232.921 145.309 226.87C146.932 222.817 147.731 218.48 147.657 214.114C147.657 213.343 147.657 212.669 147.559 212.062C147.46 211.455 147.411 210.962 147.362 210.568C147.27 210.158 147.215 209.74 147.197 209.32Z" fill="#263238"/>
<path d="M184.251 330.037C184.251 330.037 183.874 329.774 183.151 329.331C182.12 328.664 180.973 328.197 179.769 327.952C177.833 327.661 175.882 327.486 173.925 327.426C171.643 327.246 169 327.229 166.127 327.114C162.944 327.06 159.779 326.619 156.703 325.801C153.172 324.797 149.839 323.192 146.853 321.056C143.53 318.687 140.777 315.609 138.792 312.043C136.669 308.207 135.54 303.901 135.508 299.517C135.445 295.262 136.578 291.075 138.778 287.432C140.978 283.789 144.157 280.838 147.953 278.913C149.659 278.061 151.478 277.453 153.354 277.107C155.106 276.814 156.88 276.672 158.657 276.681C161.795 276.777 164.937 276.684 168.064 276.401C170.318 276.257 172.501 275.557 174.418 274.362C176.334 273.167 177.925 271.516 179.047 269.555C179.597 268.456 179.942 267.265 180.065 266.042C180.163 265.205 180.163 264.745 180.196 264.745C180.216 264.854 180.216 264.965 180.196 265.073C180.196 265.303 180.196 265.632 180.196 266.059C180.129 267.32 179.822 268.556 179.293 269.703C178.43 271.518 177.105 273.075 175.452 274.218C173.277 275.743 170.753 276.697 168.113 276.992C164.961 277.322 161.792 277.454 158.624 277.386C156.885 277.395 155.149 277.549 153.436 277.846C151.638 278.194 149.898 278.791 148.265 279.619C144.615 281.484 141.56 284.333 139.445 287.843C137.33 291.354 136.24 295.386 136.296 299.484C136.337 303.73 137.431 307.899 139.481 311.616C141.398 315.076 144.055 318.07 147.263 320.383C150.167 322.486 153.41 324.074 156.851 325.079C159.869 325.917 162.979 326.386 166.11 326.474C169 326.622 171.626 326.688 173.925 326.917C175.897 327.006 177.861 327.231 179.802 327.59C181.033 327.906 182.188 328.464 183.201 329.232C183.468 329.421 183.726 329.624 183.972 329.84C184.076 329.889 184.17 329.955 184.251 330.037Z" fill="#263238"/>
<path d="M129.877 354.072C129.922 352.897 129.856 351.721 129.68 350.558C129.071 347.405 127.257 344.614 124.624 342.776C123.757 342.202 122.818 341.744 121.833 341.414C120.758 341.112 119.66 340.903 118.549 340.79C115.958 340.732 113.381 340.385 110.866 339.756C109.485 339.294 108.223 338.531 107.172 337.523C106.111 336.456 105.264 335.197 104.677 333.813C103.488 330.909 103.119 327.735 103.609 324.635C104.529 318.315 107.303 312.881 107.779 307.529C108.115 305.03 107.885 302.489 107.106 300.092C106.395 298.028 105.065 296.234 103.298 294.953C100.706 293.057 97.4856 292.228 94.3009 292.638C93.1478 292.856 92.0162 293.174 90.9189 293.59C91.9097 292.934 93.0292 292.498 94.2024 292.31C97.4992 291.753 100.882 292.526 103.609 294.46C105.507 295.793 106.946 297.68 107.73 299.862C108.578 302.351 108.848 305.001 108.518 307.611C108.042 313.143 105.235 318.643 104.414 324.75C103.942 327.697 104.283 330.717 105.399 333.484C105.948 334.769 106.727 335.943 107.697 336.948C108.653 337.874 109.803 338.575 111.063 339.001C113.524 339.628 116.044 339.992 118.582 340.084C119.762 340.205 120.928 340.442 122.063 340.79C124.16 341.515 126.016 342.807 127.425 344.523C128.833 346.238 129.739 348.31 130.041 350.509C130.162 351.392 130.162 352.286 130.041 353.169C130.015 353.474 129.96 353.776 129.877 354.072Z" fill="#263238"/>
<path d="M126.593 263.235C126.593 263.235 126.938 262.874 127.759 262.627C128.936 262.321 130.182 262.407 131.305 262.874C132.093 263.197 132.799 263.691 133.374 264.318C134.022 265.068 134.434 265.994 134.556 266.978C134.705 268.109 134.514 269.259 134.008 270.282C133.503 271.305 132.705 272.155 131.716 272.724C130.685 273.214 129.531 273.381 128.404 273.206C127.276 273.03 126.228 272.519 125.395 271.739C124.667 271.057 124.163 270.169 123.95 269.194C123.787 268.354 123.827 267.488 124.065 266.666C124.391 265.488 125.116 264.461 126.117 263.76C126.456 263.475 126.875 263.303 127.316 263.268C127.316 263.268 126.922 263.514 126.314 264.023C125.49 264.759 124.916 265.735 124.673 266.814C124.462 267.586 124.47 268.402 124.696 269.171C124.922 269.939 125.357 270.629 125.953 271.164C126.672 271.813 127.567 272.235 128.524 272.378C129.482 272.521 130.461 272.379 131.338 271.969C132.182 271.475 132.864 270.747 133.301 269.872C133.739 268.998 133.912 268.015 133.801 267.044C133.707 266.25 133.405 265.496 132.927 264.856C132.448 264.216 131.81 263.714 131.075 263.399C130.055 262.91 128.909 262.744 127.792 262.923C127.037 263.087 126.626 263.3 126.593 263.235Z" fill="#263238"/>
<path d="M77.3747 333.222C77.1941 333.222 77.9657 330.332 78.1463 325.637C78.2111 324.363 78.2111 323.086 78.1463 321.812C78.1463 320.433 77.8836 318.971 77.703 317.428C77.1584 314.11 76.2839 310.854 75.0927 307.709C73.8494 304.59 72.287 301.608 70.4302 298.811C69.5986 297.606 68.7054 296.444 67.7542 295.331C66.9479 294.332 66.0874 293.378 65.1766 292.474C61.8932 289.19 59.3649 287.549 59.4798 287.434C60.1039 287.722 60.6932 288.08 61.2365 288.501C61.9174 288.935 62.5699 289.412 63.1902 289.929C64.0337 290.589 64.8394 291.296 65.6035 292.047C66.5572 292.933 67.4563 293.876 68.2959 294.871C69.2745 296 70.195 297.178 71.054 298.401C72.9732 301.231 74.5857 304.258 75.8643 307.43C77.0731 310.612 77.9372 313.914 78.4418 317.28C78.6504 318.761 78.7765 320.252 78.8194 321.746C78.9034 323.042 78.9034 324.341 78.8194 325.637C78.7594 326.704 78.6443 327.767 78.4746 328.822C78.3749 329.625 78.2213 330.42 78.015 331.202C77.886 331.899 77.671 332.578 77.3747 333.222Z" fill="#263238"/>
<path d="M247.721 229.3C246.88 229 246.062 228.638 245.274 228.217C243.715 227.494 241.466 226.46 238.576 225.409C235.222 224.167 231.743 223.291 228.201 222.799C223.876 222.179 219.473 222.396 215.231 223.439C210.952 224.435 206.998 226.503 203.739 229.448C201.108 231.849 199.097 234.852 197.878 238.198C197.076 240.461 196.741 242.862 196.893 245.258C197.024 246.9 197.287 247.885 197.205 247.901C197.123 247.917 197.09 247.688 196.958 247.244C196.783 246.603 196.652 245.95 196.564 245.291C196.275 242.835 196.533 240.346 197.32 238.001C198.483 234.51 200.511 231.37 203.213 228.873C206.518 225.812 210.555 223.653 214.935 222.602C219.288 221.543 223.804 221.342 228.233 222.011C231.821 222.557 235.335 223.51 238.708 224.851C240.957 225.739 243.151 226.764 245.274 227.921C246.03 228.332 246.621 228.66 246.998 228.906C247.262 228.991 247.507 229.125 247.721 229.3Z" fill="#263238"/>
<path d="M261.166 155.784C261.166 155.784 261.33 155.899 261.61 156.178C262.02 156.563 262.399 156.98 262.742 157.425C264.041 159.055 265.067 160.885 265.78 162.843C266.853 165.76 267.295 168.871 267.076 171.971C266.824 175.78 265.597 179.46 263.514 182.659C261.379 185.837 258.439 188.392 254.993 190.063C252.22 191.449 249.191 192.254 246.095 192.427C244.015 192.56 241.926 192.366 239.906 191.852C239.347 191.722 238.798 191.552 238.264 191.343C237.903 191.212 237.722 191.13 237.739 191.097C240.426 191.735 243.191 191.978 245.947 191.82C248.949 191.57 251.872 190.733 254.55 189.357C257.859 187.721 260.688 185.255 262.759 182.199C264.577 179.387 265.737 176.2 266.152 172.877C266.567 169.554 266.227 166.18 265.156 163.007C264.197 160.412 262.852 157.977 261.166 155.784Z" fill="#263238"/>
<path d="M153.978 209.091C149.237 209.56 144.473 209.741 139.711 209.632C134.953 209.81 130.19 209.706 125.444 209.32C130.185 208.851 134.949 208.67 139.711 208.779C144.468 208.6 149.232 208.705 153.978 209.091Z" fill="#263238"/>
</svg>
