<svg width="18" height="20" viewBox="0 0 18 20" fill="none" xmlns="http://www.w3.org/2000/svg">
<path fill-rule="evenodd" clip-rule="evenodd" d="M17.5892 14.8857C16.615 12.8158 15.0016 11.1719 13.023 10.1673C12.9317 10.1369 12.8098 10.1369 12.7491 10.1976C12.1097 10.7151 11.3793 11.0803 10.5877 11.3239L9.67441 12.6328L10.2832 17.3815L8.82206 19.2081L7.36095 17.3815L7.96972 12.6328L7.05643 11.2933C7.05643 11.2933 5.6257 10.6539 4.98655 10.1061C4.89524 10.0452 4.80394 10.0148 4.71263 10.0757C2.70347 11.05 1.05976 12.6633 0.0551574 14.7332C-0.0361493 14.9158 -0.00578419 15.1594 0.085522 15.3116C2.00336 18.1122 5.16917 19.9691 8.76121 19.9994C12.3531 20.03 15.5496 18.2646 17.5282 15.4945C17.6499 15.3118 17.6805 15.0683 17.5892 14.8857H17.5892Z" fill="#0B3AE1"/>
<path fill-rule="evenodd" clip-rule="evenodd" d="M8.85266 0.000307637C6.0827 -0.0302693 3.79962 2.22245 3.79962 4.99263C3.76926 7.76282 6.02176 10.0459 8.79194 10.0763C11.5621 10.1066 13.8452 7.85414 13.8756 5.08396C13.8756 2.31377 11.6532 0.0306943 8.85272 0.000307637H8.85266Z" fill="#0B3AE1"/>
</svg>
