<svg width="69" height="66" viewBox="0 0 69 66" fill="none" xmlns="http://www.w3.org/2000/svg">
<path d="M55.257 42.4397L61.2022 34.6743C62.8495 32.5227 62.4276 29.4216 60.2646 27.783L28.8028 3.94855C26.6398 2.30993 23.542 2.74454 21.8947 4.89614L3.90455 28.3533C2.25725 30.5049 2.67919 33.606 4.84218 35.2446L28.4385 53.1204L35.9711 43.2817C40.1043 37.8832 47.8634 36.8386 53.2906 40.95L55.257 42.4397ZM53.1135 35.5002L34.1285 33.7579C32.2364 33.5916 30.624 32.37 29.9599 30.5998L23.2248 12.8574C23.112 12.5979 23.0532 12.3184 23.0521 12.0357C23.0509 11.7529 23.1075 11.4729 23.2183 11.2126C23.3291 10.9522 23.4919 10.717 23.6968 10.521C23.9017 10.325 24.1444 10.1725 24.4103 10.0725C24.6761 9.97258 24.9596 9.92733 25.2436 9.93953C25.5275 9.95172 25.8061 10.0211 26.0623 10.1435C26.3185 10.2658 26.5471 10.4386 26.7342 10.6514C26.9214 10.8642 27.0632 11.1126 27.151 11.3815L34.0509 29.5578L53.5002 31.3428C53.8733 31.3774 54.2302 31.5106 54.5341 31.7286C54.838 31.9466 55.0777 32.2415 55.2285 32.5827C55.3793 32.9239 55.4356 33.299 55.3916 33.6691C55.3476 34.0392 55.2049 34.3909 54.9782 34.6877C54.544 35.2549 53.8447 35.5596 53.1135 35.5002Z" fill="white"/>
<path d="M49.6907 53.7679L51.1883 51.8119C52.8356 49.6603 52.4136 46.5592 50.2506 44.9206C48.0876 43.282 44.9701 43.7017 43.3228 45.8533L41.8253 47.8093C40.7438 46.99 39.185 47.1999 38.3614 48.2757L33.8688 54.1437C33.0451 55.2195 33.2561 56.77 34.3376 57.5893L42.203 63.548C43.2845 64.3673 44.8433 64.1574 45.6669 63.0816L50.1595 57.2136C50.9832 56.1378 50.7722 54.5873 49.6907 53.7679ZM47.7244 52.2783L43.7917 49.299L45.2892 47.343C46.1128 46.2672 47.6716 46.0573 48.7531 46.8766C49.8346 47.6959 50.0456 49.2465 49.2219 50.3223L47.7244 52.2783Z" fill="white"/>
</svg>
