<svg width="34" height="40" viewBox="0 0 34 40" fill="none" xmlns="http://www.w3.org/2000/svg">
<path fill-rule="evenodd" clip-rule="evenodd" d="M5.74589 10.3643C5.74614 10.3643 5.74627 10.364 5.7461 10.3638C5.70348 10.3179 5.67029 10.2641 5.6484 10.2054C5.62643 10.1465 5.61629 10.0838 5.61853 10.021C5.62078 9.95818 5.63539 9.89641 5.66151 9.83922C5.68763 9.78204 5.72476 9.73056 5.77077 9.68772C5.81679 9.64489 5.87079 9.61153 5.9297 9.58957C5.98861 9.5676 6.05126 9.55746 6.11409 9.5597C6.17692 9.56195 6.23869 9.57655 6.29587 9.60268C6.35306 9.6288 6.40454 9.66593 6.44737 9.71194L6.82656 10.1204C7.00319 10.3106 7.29604 10.3341 7.50067 10.1743L9.23105 8.82343C9.33009 8.74612 9.38797 8.62749 9.38797 8.50185C9.38797 8.27653 9.20532 8.09388 8.98 8.09388H4.75425C4.47811 8.09388 4.25425 8.31773 4.25425 8.59388V12.7254C4.25425 13.0015 4.47811 13.2254 4.75425 13.2254H8.88798C9.16412 13.2254 9.38797 13.0015 9.38797 12.7254V10.9391C9.38797 10.5225 8.9085 10.2886 8.58022 10.545L7.4015 11.4655C7.30771 11.5476 7.18563 11.5899 7.06117 11.5834C6.93671 11.577 6.81968 11.5222 6.7349 11.4309L5.74567 10.3648C5.7455 10.3646 5.74563 10.3643 5.74589 10.3643ZM27.1364 5.39103C27.5815 5.39103 27.8047 4.85312 27.4904 4.53795L24.4962 1.53577C24.1814 1.22015 23.6421 1.44309 23.6421 1.88886V5.19505C23.642 5.22101 23.647 5.24674 23.6568 5.27077C23.6667 5.29479 23.6812 5.31664 23.6995 5.33504C23.7174 5.35294 23.7386 5.36711 23.7621 5.37672C23.7855 5.38634 23.8106 5.3912 23.8359 5.39103H27.1364ZM10.3461 7.61392C10.3461 7.75079 10.5037 7.82762 10.6115 7.74334L11.0523 7.39883C11.1019 7.3602 11.1586 7.33172 11.2192 7.315C11.2798 7.2983 11.3431 7.29369 11.4055 7.30145C11.4679 7.3092 11.5282 7.32918 11.5829 7.36022C11.6375 7.39127 11.6856 7.43278 11.7242 7.48238C11.7628 7.53199 11.7913 7.58872 11.808 7.64933C11.8247 7.70995 11.8293 7.77326 11.8216 7.83565C11.8138 7.89805 11.7939 7.9583 11.7628 8.01298C11.7318 8.06766 11.6902 8.11568 11.6406 8.15432L10.5382 9.01608C10.417 9.11084 10.3461 9.25614 10.3461 9.41001V13.7053C10.3461 13.8326 10.2955 13.9547 10.2055 14.0447C10.1155 14.1347 9.99344 14.1853 9.86615 14.1853H3.7743C3.64701 14.1853 3.52493 14.1347 3.43492 14.0447C3.34491 13.9547 3.29435 13.8326 3.29435 13.7053V7.61392C3.29435 7.5509 3.30676 7.48848 3.33088 7.43025C3.355 7.37202 3.39036 7.31911 3.43492 7.27455C3.47949 7.22998 3.5324 7.19463 3.59063 7.17051C3.64886 7.14639 3.71127 7.13397 3.7743 7.13397H9.86615C9.99344 7.13397 10.1155 7.18454 10.2055 7.27455C10.2955 7.36455 10.3461 7.48663 10.3461 7.61392ZM16.9086 28.2128C16.3159 28.9531 16.0416 29.8984 16.1457 30.8409C16.2499 31.7834 16.7241 32.646 17.4641 33.239C18.2043 33.8317 19.1496 34.1062 20.0922 34.002C21.0347 33.8978 21.8973 33.4236 22.4903 32.6835C23.0829 31.9431 23.3573 30.9978 23.2531 30.0552C23.149 29.1126 22.6748 28.2499 21.9348 27.6569C21.1943 27.0644 20.2489 26.7901 19.3064 26.8944C18.3638 26.9986 17.5016 27.4728 16.9086 28.2128ZM24.0887 35.5552C23.9497 35.6749 23.9474 35.8932 24.0905 36.008C24.305 36.1777 24.5778 36.256 24.8496 36.2258C25.1215 36.1956 25.3704 36.0594 25.5424 35.8467L26.2872 34.917C26.4571 34.7027 26.5354 34.43 26.5053 34.1582C26.4752 33.8865 26.339 33.6375 26.1263 33.4656C25.9774 33.3462 25.7558 33.3992 25.6672 33.5683C25.4651 33.9539 25.226 34.3193 24.9531 34.6593L24.9291 34.6891C24.6753 35.0025 24.394 35.2924 24.0887 35.5552ZM26.3176 36.8468C26.1969 36.75 26.1915 36.569 26.2885 36.4484L27.0334 35.5188C27.1276 35.4017 27.3002 35.3688 27.4174 35.4627L31.1143 38.4251C31.2968 38.5724 31.4138 38.7858 31.4397 39.0188C31.4656 39.2519 31.3983 39.4858 31.2525 39.6695C31.1052 39.8519 30.8918 39.9688 30.6587 39.9946C30.4256 40.0204 30.1918 39.9531 30.0082 39.8072L26.3176 36.8468ZM10.3461 17.6089C10.3461 17.7458 10.5037 17.8226 10.6115 17.7384L11.0523 17.3939C11.1524 17.3158 11.2795 17.2808 11.4055 17.2965C11.5315 17.3121 11.6462 17.3772 11.7242 17.4774C11.8022 17.5776 11.8372 17.7047 11.8216 17.8307C11.8059 17.9567 11.7408 18.0713 11.6406 18.1493L10.5382 19.0111C10.417 19.1059 10.3461 19.2512 10.3461 19.405V23.7004C10.3461 23.8276 10.2955 23.9497 10.2055 24.0397C10.1155 24.1297 9.99344 24.1803 9.86615 24.1803H3.7743C3.64701 24.1803 3.52493 24.1297 3.43492 24.0397C3.34491 23.9497 3.29435 23.8276 3.29435 23.7004V17.6089C3.29447 17.4817 3.34507 17.3597 3.43505 17.2697C3.52504 17.1797 3.64705 17.1291 3.7743 17.129H9.86615C9.99341 17.1291 10.1154 17.1797 10.2054 17.2697C10.2954 17.3597 10.346 17.4817 10.3461 17.6089ZM5.74589 20.3591C5.74606 20.3592 5.7462 20.359 5.74607 20.3588C5.65987 20.266 5.614 20.1427 5.61853 20.016C5.62308 19.8891 5.67784 19.7693 5.77077 19.6827C5.86371 19.5962 5.9872 19.5502 6.11409 19.5547C6.24098 19.5593 6.36086 19.614 6.44737 19.707L6.82656 20.1154C7.00319 20.3057 7.29604 20.3291 7.50067 20.1693L9.23059 18.8188C9.32992 18.7413 9.38797 18.6223 9.38797 18.4963C9.38797 18.2703 9.20478 18.0871 8.97881 18.0871H4.75425C4.47811 18.0871 4.25425 18.311 4.25425 18.5871V22.7204C4.25425 22.9965 4.47811 23.2204 4.75425 23.2204H8.88798C9.16412 23.2204 9.38797 22.9965 9.38797 22.7204V20.9339C9.38797 20.5174 8.90857 20.2835 8.58027 20.5398L7.4015 21.4601C7.30771 21.5422 7.18563 21.5845 7.06117 21.578C6.93671 21.5715 6.81968 21.5168 6.7349 21.4255L5.7457 20.3594C5.74557 20.3593 5.74571 20.3591 5.74589 20.3591ZM10.3461 27.604C10.3461 27.7408 10.5037 27.8177 10.6115 27.7334L11.0523 27.3889C11.1019 27.3503 11.1586 27.3218 11.2192 27.3051C11.2798 27.2883 11.3431 27.2837 11.4055 27.2915C11.4679 27.2993 11.5282 27.3192 11.5829 27.3503C11.6375 27.3813 11.6856 27.4228 11.7242 27.4724C11.7628 27.522 11.7913 27.5788 11.808 27.6394C11.8247 27.7 11.8293 27.7633 11.8216 27.8257C11.8138 27.8881 11.7939 27.9484 11.7628 28.003C11.7318 28.0577 11.6902 28.1057 11.6406 28.1444L10.5389 29.0026C10.4172 29.0973 10.3461 29.2429 10.3461 29.397V33.6954C10.3461 33.8227 10.2955 33.9447 10.2055 34.0348C10.1155 34.1248 9.99344 34.1753 9.86615 34.1753H3.7743C3.64701 34.1753 3.52493 34.1248 3.43492 34.0348C3.34491 33.9447 3.29435 33.8227 3.29435 33.6954V27.604C3.29447 27.4767 3.34507 27.3547 3.43505 27.2647C3.52504 27.1747 3.64705 27.1241 3.7743 27.124H9.86615C9.99341 27.1241 10.1154 27.1747 10.2054 27.2647C10.2954 27.3547 10.346 27.4767 10.3461 27.604ZM5.74678 30.3533C5.74663 30.3528 5.74639 30.3524 5.74607 30.3521C5.65987 30.2592 5.614 30.1359 5.61853 30.0093C5.62308 29.8824 5.67784 29.7625 5.77077 29.676C5.86371 29.5895 5.9872 29.5434 6.11409 29.548C6.24098 29.5525 6.36086 29.6073 6.44737 29.7002L6.82671 30.1088C7.00328 30.299 7.296 30.3225 7.50063 30.1629L9.23093 28.8135C9.33003 28.7362 9.38797 28.6175 9.38797 28.4918C9.38797 28.2665 9.20536 28.0839 8.98009 28.0839H4.75425C4.47811 28.0839 4.25425 28.3078 4.25425 28.5839V32.7159C4.25425 32.992 4.47811 33.2159 4.75425 33.2159H8.88798C9.16412 33.2159 9.38797 32.992 9.38797 32.7159V30.9299C9.38797 30.5133 8.90836 30.2794 8.5801 30.536L7.40328 31.4556C7.30938 31.5375 7.18729 31.5796 7.06287 31.5731C6.93844 31.5665 6.82145 31.5118 6.73668 31.4205L5.74747 30.3544C5.74716 30.3541 5.74692 30.3537 5.74678 30.3533ZM15.1927 26.8378C15.1927 26.8375 15.1928 26.8373 15.193 26.837C16.1508 25.6426 17.5436 24.8772 19.0653 24.709C20.5872 24.5408 22.1137 24.9836 23.3093 25.9401C24.5039 26.8979 25.2694 28.2908 25.4377 29.8127C25.6059 31.3346 25.1631 32.8611 24.2065 34.0567C23.249 35.2517 21.8561 36.0177 20.3341 36.1862C18.8121 36.3548 17.2854 35.9122 16.0895 34.9557C14.8947 33.9978 14.1291 32.6047 13.961 31.0826C13.7928 29.5606 14.2358 28.0342 15.1925 26.8386C15.1926 26.8384 15.1927 26.8381 15.1927 26.8378ZM16.1871 27.5849C16.1872 27.5834 16.1878 27.582 16.1887 27.5809C16.9444 26.6552 18.035 26.0653 19.2234 25.9397C20.4125 25.8139 21.6032 26.1631 22.536 26.9112L22.564 26.9338C23.4919 27.6894 24.0834 28.7811 24.2095 29.971C24.3356 31.1609 23.9861 32.3524 23.2373 33.2856L23.2128 33.315C22.4572 34.2417 21.366 34.8323 20.1768 34.9582C18.9877 35.084 17.797 34.7349 16.8641 33.9869L16.8361 33.9642C15.9094 33.2086 15.3188 32.1174 15.1929 30.9282C15.0671 29.7391 15.4162 28.5484 16.1642 27.6155L16.1855 27.5888C16.1864 27.5877 16.1869 27.5863 16.1871 27.5849ZM22.1505 21.0942C22.1507 21.0943 22.1508 21.0945 22.1509 21.0946C23.0492 22.3511 24.5878 23.4964 27.146 24.334C27.2442 24.3662 27.3513 24.3662 27.4496 24.334C30.0079 23.4959 31.5466 22.3505 32.4448 21.0944C33.2556 19.9107 33.667 18.4989 33.6189 17.065V11.7628C33.6189 11.5353 33.4654 11.3365 33.2454 11.279L27.4238 9.75743C27.3409 9.73576 27.2538 9.73576 27.1709 9.75743L21.3489 11.279C21.1288 11.3365 20.9753 11.5353 20.9753 11.7628V17.065C20.9276 18.4988 21.3392 19.9103 22.1501 21.0937C22.1502 21.0939 22.1504 21.094 22.1505 21.0942ZM27.1527 25.3409C27.1528 25.341 27.153 25.3411 27.1532 25.3412C27.246 25.3702 27.3454 25.3702 27.4382 25.3411C27.7427 25.2469 28.0349 25.1487 28.3148 25.0465C28.6509 24.9239 29.0163 25.1672 29.0163 25.5249V34.4735C29.0163 34.893 28.5308 35.126 28.2035 34.8637L27.6439 34.415C27.5341 34.327 27.4734 34.1935 27.4582 34.0536C27.4299 33.7942 27.3508 33.5429 27.2253 33.3141C27.0997 33.0853 26.9303 32.8836 26.7267 32.7204L26.439 32.4897C26.2823 32.3642 26.2176 32.1575 26.2626 31.9618C26.5316 30.7902 26.4828 29.5657 26.1182 28.416C25.7201 27.1609 24.9632 26.0499 23.9408 25.2202L23.9123 25.1975C22.5245 24.0846 20.7525 23.5664 18.9837 23.7561C17.2149 23.9458 15.5931 24.828 14.4728 26.2099L14.4501 26.2379C13.3374 27.6259 12.8192 29.398 13.009 31.1668C13.1988 32.9357 14.081 34.5575 15.4629 35.6779L15.4914 35.7005C16.5347 36.5362 17.803 37.0427 19.135 37.1556C20.3553 37.2591 21.5785 37.0279 22.6741 36.49C22.8563 36.4006 23.075 36.4177 23.2333 36.5447L23.4928 36.7529C23.6968 36.9164 23.9311 37.038 24.1822 37.1108C24.4334 37.1835 24.6964 37.206 24.9562 37.1768C25.0877 37.1627 25.2224 37.1911 25.3256 37.2738L25.56 37.4617C25.9286 37.7571 25.7197 38.3518 25.2473 38.3518H0.387076C0.33632 38.352 0.286032 38.3421 0.23912 38.3227C0.192208 38.3034 0.149603 38.2749 0.113769 38.2389C0.0775687 38.2026 0.0488877 38.1595 0.0293665 38.1121C0.00984521 38.0646 -0.000132998 38.0138 2.50728e-06 37.9625V0.389741C-0.000181591 0.338443 0.00977422 0.287615 0.0292982 0.240178C0.0488222 0.192741 0.0775292 0.14963 0.113769 0.113323C0.149566 0.0772981 0.192155 0.0487322 0.239069 0.0292801C0.285982 0.00982809 0.336289 -0.000123634 0.387076 1.15928e-06H22.1822C22.4584 1.15928e-06 22.6822 0.223859 22.6822 0.500001V5.19505C22.6834 5.50113 22.8055 5.79434 23.0219 6.01078C23.2384 6.22721 23.5316 6.34932 23.8377 6.35049H28.5158C28.792 6.35049 29.0158 6.57435 29.0158 6.85049V8.53686C29.0158 8.86438 28.7062 9.10346 28.3893 9.02059L27.4253 8.76848C27.3441 8.74646 27.2585 8.74646 27.1774 8.76848L20.4131 10.5359C20.3014 10.5548 20.2 10.6127 20.1268 10.6992C20.0536 10.7858 20.0133 10.8954 20.0132 11.0087V11.3931C20.0132 11.6692 19.7893 11.8931 19.5132 11.8931H13.8929C13.7656 11.8931 13.6435 11.9436 13.5535 12.0336C13.4635 12.1236 13.4129 12.2457 13.4129 12.373C13.4129 12.5003 13.4635 12.6224 13.5535 12.7124C13.6435 12.8024 13.7656 12.853 13.8929 12.853H19.5154C19.7915 12.853 20.0154 13.0768 20.0154 13.353V17.065C20.0145 17.3404 20.0253 17.6156 20.0479 17.8899C20.0729 18.1932 19.8401 18.4626 19.5359 18.4626H13.8906C13.7634 18.4626 13.6413 18.5132 13.5513 18.6032C13.4613 18.6932 13.4107 18.8153 13.4107 18.9426C13.4107 19.0699 13.4613 19.192 13.5513 19.282C13.6413 19.372 13.7634 19.4226 13.8906 19.4226H19.9303C20.1558 19.4226 20.3516 19.5741 20.4227 19.7881C20.6433 20.4517 20.9626 21.0791 21.3704 21.649C21.443 21.7482 21.3729 21.8894 21.25 21.8894H13.8929C13.7656 21.8894 13.6435 21.94 13.5535 22.03C13.4635 22.12 13.4129 22.2421 13.4129 22.3694C13.4129 22.4967 13.4635 22.6187 13.5535 22.7088C13.6435 22.7988 13.7656 22.8493 13.8929 22.8493H22.2592C22.3581 22.8493 22.462 22.8629 22.5379 22.9264C23.8844 24.0527 25.458 24.8763 27.1522 25.3406C27.1524 25.3406 27.1525 25.3407 27.1527 25.3409ZM25.1758 15.6523C25.3657 15.6523 25.5197 15.4983 25.5197 15.3083V14.8746C25.5209 14.4194 25.7022 13.9832 26.0241 13.6613C26.346 13.3395 26.7822 13.1581 27.2373 13.1569H27.3564C27.8118 13.1579 28.2482 13.3391 28.5703 13.661C28.8923 13.9829 29.0738 14.4192 29.0749 14.8746V15.3078C29.0749 15.4981 29.2291 15.6523 29.4194 15.6523C29.7915 15.6531 30.1483 15.8013 30.4114 16.0645C30.6746 16.3277 30.8228 16.6844 30.8237 17.0566V19.3901C30.8228 19.7623 30.6746 20.119 30.4114 20.3822C30.1483 20.6454 29.7915 20.7936 29.4194 20.7944H25.1758C24.8036 20.7936 24.4469 20.6454 24.1837 20.3822C23.9205 20.119 23.7723 19.7623 23.7715 19.3901V17.0566C23.7723 16.6844 23.9205 16.3277 24.1837 16.0645C24.4469 15.8013 24.8036 15.6531 25.1758 15.6523ZM29.4185 16.6122C29.5361 16.6129 29.6487 16.6599 29.7319 16.7431C29.8151 16.8263 29.8622 16.9389 29.8629 17.0566V19.3901C29.8622 19.5078 29.8151 19.6204 29.7319 19.7036C29.6487 19.7868 29.5361 19.8338 29.4185 19.8345H25.1758C25.0581 19.8338 24.9455 19.7868 24.8623 19.7036C24.7791 19.6204 24.7321 19.5078 24.7314 19.3901V17.0566C24.7321 16.9389 24.7791 16.8263 24.8623 16.7431C24.9455 16.6599 25.0581 16.6129 25.1758 16.6122H29.4185ZM28.1141 15.6523H26.9801C26.7039 15.6523 26.4801 15.4284 26.4801 15.1523V14.8746C26.4817 14.6747 26.5618 14.4835 26.7032 14.3421C26.8445 14.2008 27.0357 14.1207 27.2356 14.1191H27.3547C27.5545 14.1207 27.7457 14.2008 27.8871 14.3421C28.0284 14.4835 28.1085 14.6747 28.1101 14.8746V15.6483C28.1101 15.6505 28.1119 15.6523 28.1141 15.6523ZM13.8933 9.42619H22.0027C22.13 9.42619 22.2521 9.37563 22.3421 9.28562C22.4321 9.19561 22.4827 9.07353 22.4827 8.94624C22.4827 8.81895 22.4321 8.69687 22.3421 8.60686C22.2521 8.51685 22.13 8.46629 22.0027 8.46629H13.8929C13.7656 8.46629 13.6435 8.51685 13.5535 8.60686C13.4635 8.69687 13.4129 8.81895 13.4129 8.94624C13.4129 9.07353 13.4635 9.19561 13.5535 9.28562C13.6435 9.37563 13.766 9.42619 13.8933 9.42619Z" fill="#EB5454"/>
</svg>
