<svg width="83" height="70" viewBox="0 0 83 70" fill="none" xmlns="http://www.w3.org/2000/svg">
<rect x="0.5" y="0.5" width="82" height="69" rx="5.5" fill="#1A4EE6" fill-opacity="0.1" stroke="#EFEFEF"/>
<path d="M36.748 32.8291C35.898 32.0164 34.4042 31.9214 33.5709 32.8291C32.7629 33.7094 32.6636 35.1386 33.5709 36.0062C35.3628 37.7195 37.1547 39.4329 38.9465 41.1463C39.7744 41.9379 41.3161 42.0846 42.1236 41.1463C45.464 37.2641 48.8044 33.382 52.1447 29.4999C52.6189 28.9488 53.0931 28.3977 53.5672 27.8467C54.3331 26.9566 54.507 25.5323 53.5672 24.6696C52.7257 23.8971 51.2087 23.7184 50.3902 24.6696C47.0537 28.5473 43.7171 32.4249 40.3806 36.3026C39.1697 35.1448 37.9588 33.9869 36.748 32.8291Z" fill="#1343E3"/>
<path d="M56.1023 32.1055C55.8852 30.948 54.4265 30.1845 53.3388 30.5365C52.1014 30.9369 51.5372 32.0597 51.7698 33.3C51.7642 33.2701 51.8045 33.4982 51.8308 33.6406C51.8426 33.758 51.8857 34.0961 51.8825 34.0599C51.9099 34.3686 51.9262 34.6784 51.9318 34.9882C51.9417 35.5395 51.9921 36.2259 51.8457 36.7647C51.8676 36.6602 51.9189 36.3117 51.8496 36.6984C51.8296 36.8103 51.8121 36.9226 51.7912 37.0344C51.7443 37.2842 51.6898 37.5325 51.6283 37.7791C51.4995 38.2955 51.3315 38.7961 51.1492 39.2955C51.1321 39.3423 51.1195 39.3772 51.1105 39.4028C51.0799 39.4683 51.0477 39.5332 51.0174 39.5977C50.9123 39.822 50.8009 40.0432 50.683 40.2611C50.4354 40.7187 50.1599 41.1611 49.8592 41.5857C49.8016 41.6671 49.742 41.747 49.6828 41.8271C49.6768 41.8341 49.6719 41.8398 49.6653 41.8476C49.5237 42.0136 49.3852 42.1816 49.2388 42.3435C48.8732 42.7476 48.4823 43.1288 48.0692 43.4842C47.9657 43.5732 47.6882 43.7881 47.7277 43.7628C47.5602 43.885 47.3917 44.0055 47.2186 44.1201C46.807 44.3925 46.3799 44.6416 45.9399 44.8653C45.7308 44.9717 45.513 45.0869 45.2926 45.1759C45.1948 45.2094 45.041 45.2631 44.954 45.2941C44.4262 45.482 43.8861 45.6355 43.3383 45.7532C43.1163 45.8009 42.8924 45.837 42.6693 45.8787C42.6652 45.8794 42.6618 45.8801 42.6578 45.8808C42.5477 45.8902 42.438 45.9043 42.3279 45.9138C41.7758 45.9616 41.2209 45.9745 40.6672 45.9524C40.4068 45.9421 40.1468 45.9237 39.8875 45.8978C39.8548 45.8945 39.8108 45.8928 39.7675 45.8921C39.6919 45.8798 39.6138 45.8616 39.5499 45.8505C39.0226 45.7588 38.5012 45.634 37.9894 45.4776C37.7496 45.4043 37.512 45.3243 37.2769 45.2371C37.2213 45.2165 37.1234 45.19 37.045 45.1576C37.0193 45.142 36.9932 45.1272 36.9692 45.1158C36.4966 44.8906 36.0325 44.6567 35.5849 44.3842C35.3745 44.2562 35.168 44.1219 34.9653 43.9822C34.8433 43.8981 34.2565 43.4195 34.6964 43.7971C34.3021 43.4587 33.9078 43.1295 33.542 42.7591C33.25 42.4635 32.9793 42.152 32.714 41.8334C32.8867 42.036 32.4515 41.4773 32.3879 41.3839C32.234 41.1576 32.0872 40.9264 31.9479 40.6908C31.6951 40.2634 31.4767 39.8214 31.2666 39.3721C31.2588 39.3554 31.25 39.3391 31.2411 39.3238C31.2183 39.2597 31.1984 39.1908 31.1795 39.1397C31.0828 38.8784 30.9943 38.6141 30.9146 38.3471C30.7695 37.8612 30.6528 37.3665 30.5661 36.8668C30.555 36.8027 30.5368 36.7246 30.5246 36.649C30.5239 36.6058 30.5222 36.5618 30.5189 36.5291C30.4872 36.2117 30.4669 35.8933 30.4584 35.5745C30.4452 35.0789 30.4601 34.5827 30.5028 34.0888C30.5087 34.0209 30.5104 33.9472 30.5152 33.874C30.5205 33.8458 30.5278 33.8056 30.538 33.7473C30.5867 33.468 30.6367 33.1895 30.7001 32.913C30.8127 32.4219 30.9535 31.9373 31.1225 31.4627C31.1598 31.3581 31.202 31.255 31.2384 31.1502C31.2438 31.1346 31.2487 31.1203 31.2533 31.107C31.365 30.8721 31.4696 30.6349 31.5892 30.4034C31.8157 29.965 32.0671 29.5396 32.3422 29.1299C32.4591 28.9559 32.5815 28.7864 32.7056 28.6177C32.7113 28.6109 32.716 28.6055 32.7223 28.5981C32.8285 28.4735 32.9316 28.3469 33.0399 28.2241C33.4003 27.8155 33.7865 27.4294 34.1951 27.0689C34.2973 26.9788 34.4033 26.8931 34.5061 26.8035C34.537 26.7777 34.5685 26.7526 34.5998 26.7272C34.816 26.5849 35.0206 26.4225 35.2377 26.2807C35.7202 25.9654 36.2238 25.6824 36.744 25.4343C36.8437 25.3868 36.9443 25.3419 37.0446 25.2957C37.0471 25.2945 37.0491 25.2936 37.0515 25.2925C37.0713 25.2855 37.0938 25.2774 37.1212 25.2674C37.3827 25.1719 37.6433 25.0758 37.9092 24.9926C38.4738 24.816 39.0506 24.6786 39.634 24.5811C39.6725 24.5747 39.7229 24.5622 39.7691 24.5492C39.8944 24.5333 40.0286 24.5338 40.146 24.5244C40.436 24.5013 40.7268 24.488 41.0177 24.4839C41.3887 24.4788 41.7602 24.4896 42.1303 24.516C42.2846 24.527 42.4382 24.542 42.592 24.5571C42.6724 24.565 42.7218 24.569 42.7536 24.5708C42.7776 24.5779 42.8225 24.5891 42.9035 24.6068C43.7172 24.7843 44.5041 24.9799 45.2856 25.2748C46.3872 25.6906 47.7966 24.8139 48.049 23.7058C48.3403 22.4271 47.6595 21.3875 46.48 20.9423C41.163 18.9356 35.0796 20.2163 30.8961 24.0008C27.0233 27.5042 25.3877 32.7948 26.2054 37.8928C26.9843 42.7478 30.434 47.1311 34.9287 49.0961C39.6663 51.1674 45.299 50.8491 49.6225 47.9083C51.9205 46.3453 53.863 44.1912 55.0006 41.6398C56.357 38.5974 56.7171 35.3835 56.1023 32.1055Z" fill="#1343E3"/>
</svg>
