<svg width="83" height="70" viewBox="0 0 83 70" fill="none" xmlns="http://www.w3.org/2000/svg">
<rect x="0.5" y="0.5" width="82" height="69" rx="5.5" fill="#eb5454" fill-opacity="0.1" stroke="#EFEFEF"/>
<path d="M41.0007 28.75C39.343 28.75 37.7533 29.4085 36.5812 30.5806C35.4091 31.7527 34.7507 33.3424 34.7507 35C34.7507 36.6576 35.4091 38.2473 36.5812 39.4194C37.7533 40.5915 39.343 41.25 41.0007 41.25C42.6583 41.25 44.248 40.5915 45.4201 39.4194C46.5922 38.2473 47.2507 36.6576 47.2507 35C47.2507 33.3424 46.5922 31.7527 45.4201 30.5806C44.248 29.4085 42.6583 28.75 41.0007 28.75ZM41.0007 45.4167C38.238 45.4167 35.5885 44.3192 33.635 42.3657C31.6815 40.4122 30.584 37.7627 30.584 35C30.584 32.2373 31.6815 29.5878 33.635 27.6343C35.5885 25.6808 38.238 24.5833 41.0007 24.5833C43.7633 24.5833 46.4128 25.6808 48.3663 27.6343C50.3199 29.5878 51.4173 32.2373 51.4173 35C51.4173 37.7627 50.3199 40.4122 48.3663 42.3657C46.4128 44.3192 43.7633 45.4167 41.0007 45.4167ZM41.0007 19.375C30.584 19.375 21.6882 25.8542 18.084 35C21.6882 44.1458 30.584 50.625 41.0007 50.625C51.4173 50.625 60.3131 44.1458 63.9173 35C60.3131 25.8542 51.4173 19.375 41.0007 19.375Z" fill="#eb5454"/>
</svg>
