<svg width="50" height="50" viewBox="0 0 50 50" fill="none" xmlns="http://www.w3.org/2000/svg">
<path d="M43.5318 36.32L28.1318 9.8C26.7318 7.4 23.2518 7.4 21.8918 9.8L6.49183 36.32C5.09183 38.72 6.85183 41.76 9.61183 41.76H40.3718C43.1718 41.76 44.9318 38.76 43.5318 36.32ZM24.9318 15.32C26.0918 15.28 27.0518 16.16 27.1318 17.32C27.1318 17.4 27.1318 17.44 27.1318 17.52L26.6118 28.64C26.5718 29.52 25.8118 30.2 24.9718 30.16C24.1318 30.12 23.4918 29.44 23.4518 28.64L22.9318 17.48C22.8518 16.36 23.7718 15.36 24.9318 15.32ZM25.0118 37.16C23.6918 37.16 22.6118 36.08 22.6118 34.76C22.6118 33.44 23.6918 32.36 25.0118 32.36C26.3318 32.36 27.4118 33.44 27.4118 34.76C27.4118 36.08 26.3318 37.16 25.0118 37.16Z" fill="#FFA903"/>
</svg>
