<svg width="256" height="50" viewBox="0 0 256 50" fill="none" xmlns="http://www.w3.org/2000/svg">
<g opacity="0.2">
<path d="M170.162 43.1846C173.553 43.2589 176.835 41.9573 179.287 39.5654L183.815 44.5404C180.824 47.6762 176.688 49.9987 170.242 49.9987C159.199 49.9987 152.072 42.5244 152.072 32.4095C152.027 30.1425 152.421 27.8888 153.231 25.7773C154.041 23.6659 155.251 21.7382 156.792 20.1045C158.333 18.4708 160.174 17.1632 162.21 16.2564C164.247 15.3497 166.438 14.8617 168.66 14.8203H169.272C180.234 14.8203 186.449 23.332 185.906 35.1445H159.961C160.886 40.0488 164.259 43.1728 170.162 43.1728V43.1846ZM178.063 29.474C177.37 24.8999 174.69 21.5282 169.318 21.5282C167.062 21.3937 164.84 22.1398 163.102 23.6152C161.365 25.0907 160.242 27.1851 159.961 29.474H178.063Z" fill="#797979"/>
<path d="M0.00878906 42.8152L19.9584 22.1373H0.482404V15.6416H29.1996V22.267L9.25006 42.9449H29.4653V49.4289H0.00878906V42.8152Z" fill="#797979"/>
<path d="M51.8661 43.1846C55.2576 43.2589 58.5395 41.9573 60.9919 39.5654L65.5201 44.5404C62.5282 47.6762 58.3928 49.9987 51.947 49.9987C40.9037 49.9987 33.7763 42.5244 33.7763 32.4095C33.7319 30.1444 34.1252 27.8926 34.9337 25.7827C35.7422 23.6728 36.9501 21.7461 38.4884 20.1127C40.0266 18.4793 41.8652 17.1712 43.8989 16.2631C45.9327 15.355 48.1218 14.8648 50.3413 14.8203H50.9535C61.916 14.8203 68.1307 23.332 67.5878 35.1445H41.6661C42.5902 40.0488 45.9633 43.1728 51.8661 43.1728V43.1846ZM59.7674 29.474C59.0743 24.8999 56.3943 21.5282 51.0229 21.5282C48.7664 21.3937 46.5443 22.1398 44.8068 23.6152C43.0694 25.0907 41.9466 27.1851 41.6661 29.474H59.7674Z" fill="#797979"/>
<path d="M110.642 32.4433C110.642 21.6328 118.555 14.8777 127.265 14.8777C129.354 14.8501 131.425 15.2896 133.331 16.1654C135.236 17.0411 136.931 18.3318 138.296 19.947V0H145.343V49.3369H138.296V44.6213C136.957 46.3042 135.264 47.658 133.342 48.5825C131.421 49.5069 129.32 49.9783 127.195 49.9618C125.003 49.9448 122.836 49.4873 120.817 48.6155C118.798 47.7437 116.968 46.4747 115.429 44.8807C113.891 43.2868 112.676 41.3993 111.852 39.326C111.029 37.2526 110.614 35.0341 110.63 32.797C110.63 32.6555 110.63 32.5258 110.63 32.3962L110.642 32.4433ZM138.689 32.3254C138.645 29.4641 137.494 26.7365 135.488 24.7371C133.482 22.7376 130.783 21.6283 127.979 21.6508C125.175 21.6734 122.494 22.826 120.519 24.8575C118.544 26.8889 117.436 29.6347 117.436 32.4964C117.436 35.3581 118.544 38.1038 120.519 40.1353C122.494 42.1668 125.175 43.3193 127.979 43.3419C130.783 43.3645 133.482 42.2551 135.488 40.2557C137.494 38.2562 138.645 35.5286 138.689 32.6673V32.3254Z" fill="#797979"/>
<path d="M190.473 42.1714L196.85 38.788C197.696 40.3217 198.936 41.591 200.436 42.4593C201.936 43.3276 203.639 43.762 205.363 43.7158C209.349 43.7158 211.417 41.6292 211.417 39.2596C211.417 36.5599 207.558 35.9469 203.33 35.0745C197.682 33.8956 191.779 31.9622 191.779 25.0067C191.779 19.6663 196.758 14.7385 204.613 14.7974C210.793 14.7974 215.379 17.2967 217.978 21.3521L212.144 24.6648C211.326 23.4286 210.212 22.4258 208.909 21.7513C207.605 21.0767 206.154 20.7527 204.693 20.8098C200.905 20.8098 198.975 22.7078 198.975 24.8652C198.975 27.2937 202.037 27.9775 206.819 29.0503C212.271 30.2292 218.451 32.0919 218.451 39.1181C218.451 43.8337 214.466 50.0701 205.017 49.9993C198.086 49.9993 193.246 47.1582 190.462 42.1597" fill="#797979"/>
<path d="M237.599 34.3296L232.008 40.5424V49.3369H224.962V0H232.008V32.3018L246.968 15.5379H255.551L242.578 30.003L255.874 49.3369H247.903L237.599 34.3296Z" fill="#797979"/>
<path d="M89.3345 14.8663C80.9596 14.8663 73.9478 20.4071 73.9478 29.6025V49.3373H81.1328V30.4749C81.1328 24.9341 84.2518 21.6214 89.5771 21.6214C94.9023 21.6214 97.5592 24.9341 97.5592 30.4749V49.3373H104.71V29.5907C104.71 20.3953 97.6978 14.8545 89.3229 14.8545" fill="#797979"/>
</g>
</svg>
