<svg width="836" height="668" viewBox="0 0 836 668" fill="none" xmlns="http://www.w3.org/2000/svg">
<path d="M131.211 595.923C306.139 687.317 589.786 687.317 764.753 595.923C939.721 504.529 939.701 356.35 764.753 264.956C589.806 173.562 306.178 173.562 131.211 264.956C-43.7565 356.35 -43.7174 504.607 131.211 595.923Z" fill="#F5F5F5"/>
<path d="M121.276 443.032C146.093 443.032 166.211 433.446 166.211 421.62C166.211 409.795 146.093 400.209 121.276 400.209C96.4592 400.209 76.3413 409.795 76.3413 421.62C76.3413 433.446 96.4592 443.032 121.276 443.032Z" fill="#EBEBEB"/>
<path d="M634.057 471.62C667.179 471.62 694.029 458.821 694.029 443.032C694.029 427.244 667.179 414.445 634.057 414.445C600.936 414.445 574.086 427.244 574.086 443.032C574.086 458.821 600.936 471.62 634.057 471.62Z" fill="#EBEBEB"/>
<path d="M813.343 325.416C813.343 325.416 817.977 311.102 833.053 295.85C839.702 289.124 844.043 284.431 842.654 280.422C841.403 276.883 837.179 275.045 831.137 277.9C822.553 281.967 816.765 289.515 813.343 304.669V325.416Z" fill="#1141E3"/>
<path opacity="0.1" d="M813.343 325.416C813.343 325.416 817.977 311.102 833.053 295.85C839.702 289.124 844.043 284.431 842.654 280.422C841.403 276.883 837.179 275.045 831.137 277.9C822.553 281.967 816.765 289.515 813.343 304.669V325.416Z" fill="black"/>
<path d="M812.388 316.421H812.212C812.023 316.37 811.862 316.247 811.763 316.079C811.665 315.911 811.636 315.71 811.684 315.521C817.061 294.755 830.964 281.889 836.849 278.916C837.027 278.833 837.229 278.821 837.414 278.883C837.6 278.945 837.755 279.076 837.847 279.249C837.929 279.423 837.94 279.622 837.878 279.805C837.816 279.987 837.686 280.138 837.514 280.227C831.824 283.101 818.352 295.615 813.111 315.893C813.064 316.047 812.968 316.183 812.838 316.278C812.707 316.373 812.549 316.423 812.388 316.421Z" fill="white"/>
<path d="M813.343 343.19C813.343 343.19 819.776 330.578 827.539 323.871C835.302 317.164 845.275 310.32 836.827 305.08C828.38 299.84 814.477 310.125 813.363 320.273L813.343 343.19Z" fill="#1141E3"/>
<path d="M812.387 334.215H812.23C812.042 334.168 811.88 334.05 811.778 333.886C811.675 333.722 811.641 333.524 811.683 333.335C815.339 317.692 828.46 308.854 832.82 307.387C833 307.35 833.187 307.38 833.346 307.473C833.504 307.566 833.623 307.714 833.679 307.889C833.735 308.063 833.724 308.253 833.648 308.42C833.573 308.588 833.438 308.721 833.27 308.795C829.359 310.125 816.571 318.826 813.11 333.667C813.067 333.826 812.973 333.965 812.842 334.064C812.711 334.163 812.551 334.216 812.387 334.215Z" fill="white"/>
<path d="M241.476 469.958C241.476 469.958 238.504 463.349 226.087 460.553C214.003 457.835 208 460.553 199.846 459.145C191.692 457.737 193.824 442.505 215.763 444.089C235.845 445.536 241.476 461.335 241.476 461.335V469.958Z" fill="#1141E3"/>
<path d="M242.668 466.321C242.526 466.318 242.388 466.274 242.27 466.194C242.152 466.114 242.059 466.002 242.003 465.872C240.048 461.198 232.813 453.572 222.626 451.245C209.974 448.371 203.248 451.245 203.189 451.245C203.014 451.304 202.824 451.296 202.654 451.222C202.485 451.148 202.349 451.014 202.274 450.846C202.198 450.677 202.188 450.487 202.245 450.311C202.302 450.136 202.423 449.988 202.583 449.896C202.876 449.779 209.837 446.748 222.938 449.74C234.26 452.321 241.475 460.612 243.353 465.246C243.391 465.334 243.411 465.43 243.412 465.526C243.413 465.622 243.395 465.718 243.359 465.807C243.322 465.896 243.268 465.978 243.2 466.046C243.132 466.114 243.051 466.168 242.961 466.204L242.668 466.321Z" fill="white"/>
<path d="M241.474 462.428C238.998 457.996 235.83 453.989 232.088 450.559C220.355 439.179 204.712 435.6 196.891 429.382C188.287 422.675 198.709 414.932 209.777 415.421C216.112 415.714 222.8 419.899 226.476 422.91C239.42 433.489 241.552 450.559 241.552 450.559L241.474 462.428Z" fill="#1141E3"/>
<path opacity="0.5" d="M241.474 462.428C238.998 457.996 235.83 453.989 232.088 450.559C220.355 439.179 204.712 435.6 196.891 429.382C188.287 422.675 198.709 414.932 209.777 415.421C216.112 415.714 222.8 419.899 226.476 422.91C239.42 433.489 241.552 450.559 241.552 450.559L241.474 462.428Z" fill="white"/>
<path d="M242.668 461.275C242.493 461.273 242.325 461.208 242.192 461.094C242.06 460.979 241.972 460.822 241.945 460.649C240.404 452.428 236.675 444.775 231.151 438.495C221.922 427.994 206.142 422.363 205.966 422.304C205.787 422.238 205.641 422.106 205.558 421.935C205.474 421.764 205.459 421.567 205.516 421.385C205.547 421.293 205.596 421.208 205.66 421.135C205.724 421.062 205.802 421.003 205.89 420.961C205.978 420.919 206.073 420.895 206.17 420.891C206.267 420.886 206.364 420.902 206.455 420.936C207.119 421.151 222.763 426.802 232.246 437.517C237.997 443.996 241.859 451.93 243.411 460.454C243.425 460.55 243.419 460.649 243.394 460.743C243.368 460.837 243.324 460.925 243.264 461.002C243.204 461.079 243.128 461.142 243.043 461.189C242.957 461.236 242.863 461.265 242.766 461.275H242.668Z" fill="white"/>
<path d="M509.831 583.955C509.831 583.955 513.155 577.502 525.709 575.371C537.91 573.298 543.757 576.251 551.989 575.371C560.221 574.491 558.892 559.063 536.893 559.474C516.773 559.845 510.3 575.312 510.3 575.312L509.831 583.955Z" fill="#1141E3"/>
<path opacity="0.1" d="M509.831 583.955C509.831 583.955 513.155 577.502 525.709 575.371C537.91 573.298 543.757 576.251 551.989 575.371C560.221 574.491 558.892 559.063 536.893 559.474C516.773 559.845 510.3 575.312 510.3 575.312L509.831 583.955Z" fill="black"/>
<path d="M508.872 580.866C508.719 580.86 508.571 580.813 508.442 580.729C508.363 580.675 508.296 580.605 508.244 580.524C508.192 580.443 508.157 580.353 508.141 580.258C508.125 580.163 508.127 580.066 508.149 579.973C508.17 579.879 508.21 579.791 508.266 579.713C512.939 573.025 521.445 567.98 531.046 566.299C543.385 564.089 550.6 568 550.913 568.254C550.996 568.3 551.07 568.363 551.129 568.437C551.189 568.512 551.233 568.597 551.259 568.689C551.286 568.781 551.294 568.877 551.283 568.972C551.272 569.066 551.243 569.158 551.196 569.242C551.15 569.325 551.088 569.399 551.013 569.458C550.939 569.517 550.853 569.562 550.761 569.588C550.67 569.614 550.574 569.622 550.479 569.611C550.384 569.601 550.292 569.571 550.209 569.525C550.209 569.525 543.111 565.712 531.3 567.824C522.091 569.466 513.917 574.257 509.478 580.632C509.4 580.712 509.305 580.774 509.201 580.815C509.096 580.855 508.984 580.873 508.872 580.866Z" fill="white"/>
<path d="M510.712 574.903C513.551 571.331 516.778 568.084 520.332 565.223C532.71 554.508 548.372 552.768 556.663 546.98C565.619 540.742 555.627 532.451 544.54 532.354C538.205 532.354 531.302 536.127 527.45 538.943C519.242 545.093 513.103 553.599 509.852 563.327L510.712 574.903Z" fill="#1141E3"/>
<path opacity="0.5" d="M510.712 574.903C513.551 571.331 516.778 568.084 520.332 565.223C532.71 554.508 548.372 552.768 556.663 546.98C565.619 540.742 555.627 532.451 544.54 532.354C538.205 532.354 531.302 536.127 527.45 538.943C519.242 545.093 513.103 553.599 509.852 563.327L510.712 574.903Z" fill="white"/>
<path d="M508.872 574.746H508.599C508.42 574.679 508.272 574.548 508.185 574.378C508.098 574.208 508.078 574.011 508.129 573.827C511.186 565.434 516.014 557.797 522.286 551.438C529.09 544.421 537.928 539.722 547.55 538.004C547.644 537.991 547.74 537.996 547.832 538.021C547.923 538.045 548.009 538.088 548.084 538.146C548.159 538.205 548.221 538.278 548.267 538.361C548.313 538.444 548.342 538.536 548.351 538.63C548.365 538.727 548.359 538.825 548.334 538.919C548.308 539.014 548.264 539.102 548.204 539.178C548.144 539.255 548.069 539.319 547.983 539.366C547.898 539.413 547.803 539.442 547.706 539.451C538.442 541.209 529.936 545.753 523.323 552.474C517.248 558.66 512.579 566.083 509.635 574.238C509.583 574.395 509.48 574.531 509.341 574.623C509.203 574.715 509.038 574.759 508.872 574.746Z" fill="white"/>
<path d="M320.883 471.6V323.871H241.476V471.619C241.476 477.485 245.386 483.351 253.208 487.81C268.714 496.765 293.86 496.765 309.366 487.81C317.188 483.332 320.981 477.485 321.001 471.619L320.883 471.6Z" fill="#37474F"/>
<path d="M253.107 341.078C237.581 332.123 237.581 317.614 253.107 308.639C268.633 299.663 293.76 299.683 309.266 308.639C324.772 317.594 324.772 332.103 309.266 341.078C293.76 350.054 268.613 350.014 253.107 341.078Z" fill="#455A64"/>
<path d="M416.208 526.643V419.097H336.781V526.643C336.781 532.509 340.692 538.375 348.513 542.833C364.019 551.789 389.165 551.789 404.671 542.833C412.493 538.375 416.306 532.509 416.306 526.643H416.208Z" fill="#37474F"/>
<path d="M348.413 436.324C332.907 427.368 332.907 412.859 348.413 403.884C363.919 394.909 389.066 394.929 404.572 403.884C420.078 412.84 420.097 427.349 404.572 436.324C389.046 445.299 363.9 445.358 348.413 436.324Z" fill="#455A64"/>
<path d="M511.531 581.668V498.154H432.104V581.688C432.104 587.554 436.014 593.42 443.836 597.898C459.342 606.854 484.488 606.854 499.994 597.898C507.816 593.42 511.609 587.554 511.629 581.688L511.531 581.668Z" fill="#37474F"/>
<path d="M471.817 522.049C493.751 522.049 511.531 511.78 511.531 499.112C511.531 486.445 493.751 476.176 471.817 476.176C449.884 476.176 432.104 486.445 432.104 499.112C432.104 511.78 449.884 522.049 471.817 522.049Z" fill="#455A64"/>
<path d="M236.391 523.692L217.639 512.879L228.022 499.426C229.352 497.705 228.726 496.766 226.634 497.294L201.761 503.708L183.009 492.875C181.434 492.075 179.692 491.658 177.925 491.658C176.158 491.658 174.416 492.075 172.841 492.875L143.295 509.887C140.48 511.51 140.48 514.13 143.295 515.753L196.677 546.57C198.252 547.37 199.994 547.787 201.761 547.787C203.528 547.787 205.27 547.37 206.845 546.57L236.391 529.499C239.187 527.935 239.187 525.315 236.391 523.692Z" fill="#1141E3"/>
<path d="M206.394 517.063C206.7 517.033 207.007 517.033 207.313 517.063C207.617 517.102 207.91 517.201 208.173 517.357L210.852 518.901C211.033 518.989 211.173 519.143 211.243 519.332C211.243 519.488 211.243 519.625 210.97 519.723C210.906 519.74 210.838 519.74 210.774 519.723C210.678 519.745 210.577 519.745 210.481 519.723L173.329 522.656H172.273C171.968 522.61 171.675 522.504 171.412 522.343L168.733 520.798C168.553 520.71 168.413 520.556 168.342 520.368C168.342 520.212 168.342 520.075 168.616 519.977C168.68 519.959 168.748 519.959 168.812 519.977H169.105L206.394 517.063ZM194.427 514.58C193.632 515.111 192.803 515.588 191.944 516.008C191.25 516.36 190.523 516.641 189.773 516.848C188.987 517.047 188.179 517.145 187.368 517.142C185.558 517.146 183.781 516.659 182.225 515.734C181.483 515.37 180.819 514.865 180.27 514.248C179.914 513.841 179.713 513.322 179.703 512.781C179.71 512.271 179.897 511.779 180.231 511.393C180.62 510.888 181.097 510.457 181.639 510.122C182.01 509.854 182.395 509.606 182.793 509.379C183.164 509.164 183.614 508.929 184.103 508.694C184.807 508.34 185.548 508.064 186.312 507.873C187.936 507.469 189.635 507.469 191.259 507.873C192.163 508.118 193.03 508.48 193.84 508.949C194.546 509.317 195.171 509.822 195.678 510.435C196.039 510.84 196.247 511.359 196.265 511.901C196.24 512.408 196.055 512.894 195.737 513.289C195.379 513.793 194.936 514.23 194.427 514.58ZM198.123 529.871C197.365 530.437 196.568 530.946 195.737 531.396C195.039 531.747 194.304 532.023 193.547 532.218C192.764 532.433 191.954 532.539 191.142 532.53C190.276 532.527 189.415 532.409 188.58 532.178C187.675 531.949 186.806 531.593 185.999 531.123C185.302 530.743 184.679 530.239 184.161 529.636C183.801 529.225 183.599 528.698 183.594 528.15C183.61 527.645 183.788 527.158 184.103 526.762C184.501 526.264 184.984 525.84 185.53 525.511C185.893 525.231 186.279 524.983 186.684 524.768C187.105 524.511 187.543 524.283 187.994 524.083C188.691 523.729 189.426 523.453 190.184 523.262C190.972 523.069 191.778 522.964 192.589 522.949C194.392 522.948 196.162 523.435 197.712 524.357C198.458 524.715 199.123 525.22 199.667 525.843C200.013 526.238 200.203 526.746 200.203 527.271C200.203 527.795 200.013 528.302 199.667 528.698C199.223 529.174 198.7 529.57 198.123 529.871ZM185.667 512.273C185.278 512.493 184.96 512.818 184.748 513.211C184.748 513.485 184.748 513.759 185.315 514.033C185.738 514.289 186.23 514.405 186.723 514.365C187.291 514.275 187.84 514.09 188.346 513.817C189.087 513.462 189.799 513.05 190.477 512.586C190.875 512.371 191.202 512.045 191.416 511.647C191.416 511.373 191.318 511.1 190.849 510.826C190.42 510.567 189.919 510.457 189.421 510.513C188.86 510.592 188.317 510.771 187.818 511.041C187.071 511.367 186.352 511.753 185.667 512.194V512.273ZM189.382 527.564C188.984 527.778 188.658 528.104 188.444 528.502C188.444 528.757 188.444 529.03 189.011 529.304C189.434 529.577 189.938 529.695 190.438 529.636C190.997 529.548 191.539 529.37 192.041 529.109C192.791 528.758 193.51 528.346 194.192 527.877C194.586 527.663 194.906 527.336 195.111 526.938C195.111 526.664 195.111 526.391 194.544 526.117C194.122 525.86 193.629 525.744 193.136 525.784C192.574 525.872 192.031 526.057 191.533 526.332C190.786 526.658 190.067 527.044 189.382 527.486V527.564Z" fill="white"/>
<path d="M339.673 583.29L320.882 572.457L331.265 559.024C332.575 557.303 331.949 556.345 329.857 556.892L304.984 563.286L286.232 552.473C284.66 551.673 282.922 551.256 281.158 551.256C279.394 551.256 277.656 551.673 276.084 552.473L246.577 569.524C243.781 571.147 243.781 573.787 246.577 575.39L299.959 606.226C301.537 607.018 303.278 607.43 305.043 607.43C306.808 607.43 308.549 607.018 310.127 606.226L339.673 589.156C342.488 587.533 342.488 584.913 339.673 583.29Z" fill="#1141E3"/>
<path d="M309.679 576.66H310.617C310.921 576.709 311.213 576.815 311.478 576.973L314.137 578.518C314.371 578.655 314.508 578.792 314.528 578.948C314.547 579.105 314.528 579.222 314.274 579.339C314.209 579.354 314.143 579.354 314.078 579.339H313.785L276.633 582.272C276.321 582.303 276.006 582.303 275.694 582.272C275.389 582.229 275.096 582.123 274.834 581.959L272.174 580.434C271.94 580.297 271.803 580.141 271.783 580.004C271.777 579.918 271.798 579.831 271.844 579.757C271.889 579.684 271.957 579.626 272.038 579.593H272.233H272.526L309.679 576.66ZM297.712 574.177C296.926 574.712 296.103 575.189 295.248 575.604C294.549 575.956 293.815 576.231 293.058 576.426C292.274 576.64 291.465 576.746 290.653 576.739C289.787 576.735 288.926 576.617 288.091 576.387C287.186 576.157 286.317 575.802 285.51 575.331C284.807 574.95 284.178 574.447 283.653 573.845C283.298 573.45 283.102 572.938 283.102 572.407C283.102 571.877 283.298 571.365 283.653 570.97C284.048 570.477 284.524 570.054 285.06 569.719C285.43 569.448 285.815 569.2 286.214 568.976C286.645 568.724 287.088 568.495 287.544 568.291C288.241 567.937 288.975 567.662 289.734 567.47C290.999 567.148 292.315 567.079 293.607 567.267C294.899 567.455 296.141 567.896 297.262 568.565C297.969 568.939 298.599 569.443 299.12 570.051C299.479 570.456 299.68 570.977 299.687 571.518C299.671 572.027 299.485 572.516 299.159 572.906C298.758 573.415 298.268 573.845 297.712 574.177ZM301.427 589.468C300.633 590 299.803 590.477 298.944 590.896C298.253 591.25 297.525 591.525 296.773 591.717C295.987 591.915 295.179 592.014 294.368 592.01C292.558 592.014 290.781 591.528 289.225 590.602C288.519 590.234 287.889 589.737 287.368 589.136C287.007 588.724 286.806 588.197 286.801 587.65C286.823 587.142 287.008 586.655 287.329 586.261C287.723 585.761 288.199 585.332 288.736 584.99C289.128 584.717 289.519 584.482 289.89 584.247C290.262 584.013 290.711 583.798 291.2 583.563C291.904 583.208 292.645 582.933 293.41 582.742C294.199 582.562 295.005 582.464 295.815 582.448C296.673 582.446 297.528 582.557 298.357 582.781C299.264 583.014 300.134 583.376 300.938 583.856C301.645 584.23 302.276 584.734 302.796 585.342C303.149 585.734 303.344 586.242 303.344 586.77C303.344 587.297 303.149 587.806 302.796 588.197C302.413 588.694 301.95 589.123 301.427 589.468ZM288.971 571.87C288.573 572.084 288.247 572.41 288.033 572.808C288.033 573.063 288.13 573.336 288.6 573.61C289.022 573.883 289.527 574.001 290.027 573.942C290.586 573.851 291.127 573.673 291.63 573.414C292.384 573.064 293.104 572.646 293.781 572.163C294.172 571.955 294.492 571.635 294.7 571.244C294.7 570.97 294.603 570.697 294.133 570.423C293.715 570.157 293.219 570.04 292.725 570.09C292.157 570.177 291.608 570.362 291.102 570.638C290.362 570.964 289.649 571.35 288.971 571.792V571.87ZM292.667 587.161C292.284 587.38 291.967 587.697 291.748 588.08C291.748 588.354 291.846 588.627 292.315 588.901C292.734 589.167 293.229 589.284 293.723 589.233C294.288 589.145 294.836 588.967 295.346 588.706C296.086 588.341 296.798 587.922 297.477 587.454C297.868 587.24 298.193 586.922 298.416 586.535C298.513 586.261 298.416 585.988 297.849 585.714C297.422 585.449 296.921 585.333 296.421 585.381C295.862 585.473 295.321 585.651 294.818 585.909C294.076 586.253 293.358 586.645 292.667 587.083V587.161Z" fill="white"/>
<path d="M442.876 642.852L424.124 632.038L434.527 618.566C435.837 616.865 435.211 615.907 433.119 616.454L408.247 622.848L389.494 612.035C387.919 611.235 386.177 610.817 384.411 610.817C382.644 610.817 380.902 611.235 379.327 612.035L349.781 629.164C346.985 630.787 346.985 633.427 349.781 635.03L403.163 665.866C404.74 666.658 406.481 667.07 408.247 667.07C410.012 667.07 411.753 666.658 413.331 665.866L442.876 648.718C445.692 647.153 445.692 644.533 442.876 642.852Z" fill="#1141E3"/>
<path d="M412.882 636.282H413.801C414.106 636.328 414.399 636.434 414.662 636.595L417.34 638.139C417.575 638.276 417.712 638.413 417.732 638.569C417.751 638.726 417.732 638.843 417.477 638.961H417.282H416.988L379.836 641.894C379.531 641.924 379.223 641.924 378.917 641.894C378.611 641.854 378.317 641.747 378.057 641.581L375.398 640.056C375.163 639.919 375.026 639.762 375.007 639.625C375 639.539 375.021 639.453 375.067 639.379C375.113 639.305 375.18 639.248 375.261 639.215H375.456C375.553 639.192 375.653 639.192 375.75 639.215L412.882 636.282ZM400.915 633.798C400.126 634.338 399.295 634.815 398.432 635.226C397.742 635.58 397.013 635.856 396.261 636.047C395.478 636.262 394.669 636.367 393.856 636.36C392.984 636.356 392.117 636.237 391.275 636.008C390.376 635.779 389.513 635.424 388.714 634.952C388.011 634.572 387.382 634.068 386.856 633.466C386.495 633.054 386.294 632.527 386.289 631.98C386.311 631.472 386.497 630.986 386.817 630.592C387.217 630.097 387.692 629.668 388.225 629.321C388.616 629.047 389.007 628.812 389.379 628.597C389.75 628.382 390.2 628.147 390.689 627.893C392.127 627.189 393.702 626.808 395.303 626.779C397.106 626.785 398.874 627.271 400.426 628.186C401.134 628.56 401.764 629.065 402.284 629.673C402.638 630.081 402.838 630.599 402.851 631.139C402.826 631.646 402.641 632.132 402.323 632.527C401.934 633.032 401.457 633.463 400.915 633.798ZM404.611 649.089C403.821 649.617 402.998 650.094 402.147 650.517C401.455 650.868 400.728 651.143 399.977 651.338C398.341 651.754 396.626 651.754 394.99 651.338C394.09 651.101 393.228 650.739 392.429 650.263C391.683 649.905 391.018 649.399 390.474 648.777C390.111 648.374 389.909 647.852 389.907 647.31C389.918 646.804 390.096 646.315 390.415 645.922C390.822 645.426 391.303 644.998 391.842 644.651C392.213 644.383 392.598 644.134 392.996 643.908C393.368 643.693 393.817 643.458 394.306 643.223C395.733 642.489 397.316 642.106 398.921 642.109C399.779 642.106 400.634 642.218 401.463 642.441C402.363 642.678 403.225 643.04 404.024 643.517C404.77 643.874 405.435 644.38 405.98 645.003C406.342 645.405 406.544 645.927 406.547 646.469C406.536 646.976 406.357 647.464 406.038 647.858C405.638 648.348 405.155 648.765 404.611 649.089ZM392.155 631.491C391.766 631.711 391.448 632.036 391.236 632.43C391.236 632.684 391.334 632.958 391.803 633.231C392.223 633.494 392.718 633.611 393.211 633.564C393.777 633.476 394.325 633.297 394.834 633.036C395.586 632.681 396.305 632.263 396.985 631.784C397.376 631.576 397.696 631.256 397.904 630.865C398.002 630.592 397.904 630.318 397.337 630.044C396.91 629.78 396.409 629.663 395.91 629.712C395.348 629.802 394.806 629.987 394.306 630.259C393.561 630.589 392.842 630.975 392.155 631.413V631.491ZM395.87 646.782C395.484 647.002 395.16 647.319 394.932 647.701C394.932 647.975 394.932 648.249 395.518 648.522C395.937 648.788 396.433 648.905 396.926 648.855C397.486 648.766 398.027 648.588 398.53 648.327C399.276 647.962 399.995 647.544 400.681 647.075C401.072 646.861 401.397 646.543 401.619 646.156C401.723 645.883 401.528 645.609 401.033 645.335C400.614 645.069 400.118 644.952 399.625 645.003C399.065 645.091 398.524 645.269 398.021 645.531C397.276 645.889 396.557 646.301 395.87 646.763V646.782Z" fill="white"/>
<path d="M710.096 320.273L678.321 301.931V210.205L710.096 228.546V320.273Z" fill="#37474F"/>
<path d="M710.096 320.273L741.871 301.931V210.205L710.096 228.546V320.273Z" fill="#455A64"/>
<path d="M678.321 210.206L710.096 228.547L741.871 210.206L710.096 191.864L678.321 210.206Z" fill="#455A64"/>
<path d="M638.61 278.995L606.835 260.654V77.2197L638.61 95.5612V278.995Z" fill="#37474F"/>
<path d="M638.607 278.996L670.382 260.654V77.2201L638.607 95.5615V278.996Z" fill="#455A64"/>
<path d="M606.835 77.219L638.61 95.5604L670.385 77.219L638.61 58.8776L606.835 77.219Z" fill="#455A64"/>
<path d="M567.12 237.717L535.345 219.375V155.18L567.12 173.522V237.717Z" fill="#37474F"/>
<path d="M567.12 237.717L598.895 219.375V155.18L567.12 173.522V237.717Z" fill="#455A64"/>
<path d="M535.345 155.18L567.12 173.521L598.895 155.18L567.12 136.838L535.345 155.18Z" fill="#455A64"/>
<path d="M781.582 361.551L749.807 343.19V168.947L781.563 187.288L781.582 361.551Z" fill="#37474F"/>
<path d="M781.564 361.551L813.339 343.19V168.947L781.564 187.288V361.551Z" fill="#455A64"/>
<path d="M749.807 168.947L781.563 187.289L813.337 168.947L781.582 150.586L749.807 168.947Z" fill="#455A64"/>
<g opacity="0.3">
<path d="M559.438 348.236L559.105 145.111C559.036 143.936 558.693 142.792 558.102 141.774C557.511 140.755 556.689 139.889 555.703 139.245L316.052 1.48903C314.096 0.41357 312.669 1.29349 312.669 3.44441L313.06 206.491C313.124 207.668 313.466 208.813 314.057 209.832C314.648 210.852 315.473 211.717 316.462 212.357L556.133 350.211C557.952 351.286 559.438 350.407 559.438 348.236Z" fill="white"/>
</g>
<path d="M557.601 351.638C556.91 351.611 556.237 351.409 555.645 351.051L315.975 213.197C314.831 212.477 313.877 211.491 313.197 210.323C312.516 209.155 312.127 207.84 312.064 206.49L311.692 3.44333C311.61 2.84785 311.708 2.24149 311.971 1.70134C312.235 1.16118 312.653 0.711631 313.173 0.409812C313.693 0.107993 314.291 -0.0324622 314.89 0.00631491C315.49 0.045092 316.065 0.26134 316.542 0.627575L556.212 138.364C557.354 139.087 558.305 140.074 558.986 141.241C559.667 142.408 560.057 143.722 560.123 145.071L560.455 348.196C560.502 348.789 560.391 349.383 560.134 349.919C559.876 350.455 559.481 350.913 558.989 351.247C558.569 351.499 558.09 351.634 557.601 351.638ZM314.547 1.91813C314.419 1.88414 314.284 1.88414 314.156 1.91813C313.965 2.08254 313.819 2.2922 313.73 2.52792C313.641 2.76364 313.613 3.01788 313.648 3.26735L313.98 206.392C314.036 207.42 314.336 208.419 314.857 209.307C315.377 210.195 316.102 210.945 316.972 211.496L556.642 349.35C557.229 349.682 557.737 349.78 558.05 349.585C558.363 349.389 558.559 348.92 558.559 348.235L558.226 145.111C558.164 144.109 557.87 143.136 557.367 142.268C556.865 141.399 556.169 140.659 555.332 140.105L315.564 2.25054C315.259 2.0551 314.909 1.9407 314.547 1.91813Z" fill="#1141E3"/>
<path d="M536.679 303.418C530.324 298.901 526.609 294.814 524.086 263.411L523.871 260.732C521.505 231.226 519.96 211.75 506.507 203.713C500.055 199.803 494.893 203.713 489.437 207.957C484.49 211.73 479.406 215.602 473.677 212.337C463.606 206.471 461.944 194.856 458.816 173.659C458.425 171.039 458.034 168.282 457.584 165.388C456.899 160.871 456.313 156.667 455.765 152.717C452.676 130.465 450.799 117.012 439.418 110.149C438.298 109.354 437.007 108.833 435.649 108.626C434.291 108.419 432.903 108.532 431.597 108.956C422.974 111.967 416.228 130.211 409.09 149.549C408.543 150.977 408.015 152.483 407.448 153.988C402.266 168.243 396.4 184.414 388.285 187.406C387.138 187.826 385.91 187.98 384.695 187.859C383.479 187.737 382.307 187.341 381.265 186.702C373.19 182.126 371.743 169.612 370.354 157.488C368.966 145.365 367.617 133.183 359.991 128.588C359.344 128.17 358.605 127.917 357.838 127.852C357.07 127.788 356.299 127.913 355.591 128.216C346.127 131.892 337.739 159.893 337.66 160.167L335.705 159.62C336.057 158.427 344.446 130.426 354.79 126.378C355.777 125.969 356.849 125.804 357.914 125.895C358.979 125.987 360.007 126.334 360.91 126.906C369.338 131.951 370.804 144.798 372.232 157.215C373.659 169.631 374.95 180.875 382.184 184.961C382.973 185.463 383.867 185.774 384.797 185.873C385.726 185.971 386.666 185.853 387.542 185.528C394.797 182.85 400.761 166.463 405.551 153.284C406.118 151.759 406.646 150.273 407.194 148.826C414.82 128.197 421.409 110.383 430.893 107.059C432.465 106.55 434.133 106.41 435.768 106.65C437.403 106.891 438.96 107.506 440.318 108.447C452.48 115.8 454.416 129.585 457.584 152.424C458.131 156.335 458.718 160.558 459.402 165.056C459.852 167.969 460.243 170.726 460.634 173.327C463.626 193.937 465.288 205.278 474.537 210.596C479.132 213.236 483.297 210.049 488.127 206.373C493.602 202.188 499.859 197.476 507.387 201.993C521.681 210.557 523.285 230.443 525.69 260.537L525.905 263.216C528.486 295.245 532.358 297.982 537.637 301.795L536.679 303.418Z" fill="#1141E3"/>
<g opacity="0.4">
<path d="M536.679 303.418C530.324 298.901 526.609 294.814 524.086 263.411L523.871 260.732C521.505 231.226 519.96 211.75 506.507 203.713C500.055 199.803 494.893 203.713 489.437 207.957C484.49 211.73 479.406 215.602 473.677 212.337C463.606 206.471 461.944 194.856 458.816 173.659C458.425 171.039 458.034 168.282 457.584 165.388C456.899 160.871 456.313 156.667 455.765 152.717C452.676 130.465 450.799 117.012 439.418 110.149C438.298 109.354 437.007 108.833 435.649 108.626C434.291 108.419 432.903 108.532 431.597 108.956C422.974 111.967 416.228 130.211 409.09 149.549C408.543 150.977 408.015 152.483 407.448 153.988C402.266 168.243 396.4 184.414 388.285 187.406C387.138 187.826 385.91 187.98 384.695 187.859C383.479 187.737 382.307 187.341 381.265 186.702C373.19 182.126 371.743 169.612 370.354 157.488C368.966 145.365 367.617 133.183 359.991 128.588C359.344 128.17 358.605 127.917 357.838 127.852C357.07 127.788 356.299 127.913 355.591 128.216C346.127 131.892 337.739 159.893 337.66 160.167L335.705 159.62C336.057 158.427 344.446 130.426 354.79 126.378C355.777 125.969 356.849 125.804 357.914 125.895C358.979 125.987 360.007 126.334 360.91 126.906C369.338 131.951 370.804 144.798 372.232 157.215C373.659 169.631 374.95 180.875 382.184 184.961C382.973 185.463 383.867 185.774 384.797 185.873C385.726 185.971 386.666 185.853 387.542 185.528C394.797 182.85 400.761 166.463 405.551 153.284C406.118 151.759 406.646 150.273 407.194 148.826C414.82 128.197 421.409 110.383 430.893 107.059C432.465 106.55 434.133 106.41 435.768 106.65C437.403 106.891 438.96 107.506 440.318 108.447C452.48 115.8 454.416 129.585 457.584 152.424C458.131 156.335 458.718 160.558 459.402 165.056C459.852 167.969 460.243 170.726 460.634 173.327C463.626 193.937 465.288 205.278 474.537 210.596C479.132 213.236 483.297 210.049 488.127 206.373C493.602 202.188 499.859 197.476 507.387 201.993C521.681 210.557 523.285 230.443 525.69 260.537L525.905 263.216C528.486 295.245 532.358 297.982 537.637 301.795L536.679 303.418Z" fill="black"/>
</g>
<path d="M503.612 195.071C505.066 196.023 506.278 197.303 507.15 198.807C508.022 200.311 508.532 201.997 508.637 203.733C508.637 206.92 506.388 208.211 503.631 206.627C502.171 205.681 500.954 204.403 500.081 202.898C499.207 201.392 498.702 199.702 498.606 197.964C498.606 194.855 500.776 193.565 503.612 195.071Z" fill="#1141E3"/>
<g opacity="0.2">
<path d="M503.612 195.071C505.066 196.023 506.278 197.303 507.15 198.807C508.022 200.311 508.532 201.997 508.637 203.733C508.637 206.92 506.388 208.211 503.631 206.627C502.171 205.681 500.954 204.403 500.081 202.898C499.207 201.392 498.702 199.702 498.606 197.964C498.606 194.855 500.776 193.565 503.612 195.071Z" fill="black"/>
</g>
<path d="M439.927 103.54C441.383 104.49 442.595 105.768 443.465 107.273C444.334 108.778 444.837 110.467 444.933 112.202C444.933 115.39 442.704 116.68 439.947 115.096C438.485 114.152 437.268 112.874 436.394 111.369C435.521 109.863 435.016 108.172 434.921 106.434C434.921 103.169 437.151 101.956 439.927 103.54Z" fill="#1141E3"/>
<g opacity="0.5">
<path d="M439.927 103.54C441.383 104.49 442.595 105.768 443.465 107.273C444.334 108.778 444.837 110.467 444.933 112.202C444.933 115.39 442.704 116.68 439.947 115.096C438.485 114.152 437.268 112.874 436.394 111.369C435.521 109.863 435.016 108.172 434.921 106.434C434.921 103.169 437.151 101.956 439.927 103.54Z" fill="white"/>
</g>
<path d="M360.517 122.018C361.978 122.959 363.195 124.233 364.069 125.735C364.943 127.237 365.447 128.926 365.542 130.661C365.542 133.868 363.313 135.158 360.536 133.574C359.081 132.624 357.87 131.345 357.001 129.84C356.131 128.335 355.627 126.647 355.53 124.912C355.511 121.725 357.76 120.415 360.517 122.018Z" fill="#1141E3"/>
<path opacity="0.65" d="M432.082 339.279V136.155C432.017 134.98 431.678 133.838 431.09 132.819C430.502 131.8 429.684 130.933 428.7 130.289L221.019 10.3848C219.064 9.30932 217.636 10.1892 217.636 12.3402V215.465C217.7 216.639 218.039 217.783 218.627 218.802C219.214 219.821 220.034 220.688 221.019 221.331L428.7 341.235C430.577 342.33 432.082 341.45 432.082 339.279Z" fill="white"/>
<path d="M430.225 342.683C429.534 342.656 428.861 342.454 428.27 342.096L220.53 222.192C219.389 221.464 218.439 220.474 217.759 219.304C217.078 218.133 216.688 216.818 216.62 215.466V12.3411C216.542 11.7472 216.643 11.1437 216.908 10.6069C217.174 10.0701 217.592 9.62393 218.111 9.32477C218.63 9.02562 219.226 8.88687 219.823 8.92605C220.421 8.96523 220.994 9.18058 221.469 9.54491L429.149 129.449C430.29 130.172 431.241 131.159 431.921 132.326C432.602 133.493 432.992 134.806 433.06 136.156V339.28C433.107 339.873 432.996 340.468 432.739 341.003C432.481 341.539 432.086 341.997 431.594 342.331C431.176 342.566 430.704 342.687 430.225 342.683ZM219.514 10.9137C219.385 10.8806 219.251 10.8806 219.122 10.9137C218.932 11.0781 218.785 11.2877 218.696 11.5235C218.607 11.7592 218.579 12.0134 218.614 12.2629V215.466C218.675 216.47 218.969 217.446 219.471 218.318C219.973 219.19 220.67 219.934 221.508 220.491L429.189 340.395C429.388 340.551 429.623 340.654 429.872 340.695C430.122 340.736 430.378 340.713 430.616 340.63C430.929 340.454 431.105 339.965 431.105 339.28V136.156C431.045 135.154 430.752 134.179 430.25 133.31C429.748 132.441 429.049 131.702 428.211 131.15L220.53 11.2656C220.231 11.0555 219.879 10.9336 219.514 10.9137Z" fill="#1141E3"/>
<path d="M396.36 293.114V159.444C396.326 158.856 396.155 158.284 395.859 157.775C395.564 157.265 395.153 156.833 394.659 156.511L374.225 144.779C373.287 144.232 372.524 144.662 372.524 145.757V279.348C372.553 279.937 372.722 280.511 373.018 281.021C373.314 281.532 373.728 281.964 374.225 282.281L394.659 294.014C395.597 294.639 396.36 294.19 396.36 293.114Z" fill="#1141E3"/>
<g opacity="0.3">
<path d="M396.36 293.114V159.444C396.326 158.856 396.155 158.284 395.859 157.775C395.564 157.265 395.153 156.833 394.659 156.511L374.225 144.779C373.287 144.232 372.524 144.662 372.524 145.757V279.348C372.553 279.937 372.722 280.511 373.018 281.021C373.314 281.532 373.728 281.964 374.225 282.281L394.659 294.014C395.597 294.639 396.36 294.19 396.36 293.114Z" fill="black"/>
</g>
<path d="M356.646 270.177V200.722C356.613 200.134 356.441 199.562 356.146 199.052C355.85 198.543 355.439 198.11 354.945 197.789L334.492 186.056C333.573 185.528 332.81 186.056 332.81 187.034V256.509C332.844 257.094 333.014 257.664 333.306 258.173C333.598 258.682 334.004 259.116 334.492 259.442L354.945 271.174C355.884 271.702 356.646 271.33 356.646 270.177Z" fill="#1141E3"/>
<g opacity="0.2">
<path d="M356.646 270.177V200.722C356.613 200.134 356.441 199.562 356.146 199.052C355.85 198.543 355.439 198.11 354.945 197.789L334.492 186.056C333.573 185.528 332.81 186.056 332.81 187.034V256.509C332.844 257.094 333.014 257.664 333.306 258.173C333.598 258.682 334.004 259.116 334.492 259.442L354.945 271.174C355.884 271.702 356.646 271.33 356.646 270.177Z" fill="white"/>
</g>
<path d="M316.973 247.259V141.102C316.94 140.514 316.768 139.942 316.473 139.432C316.177 138.923 315.766 138.49 315.272 138.169L294.819 126.437C293.9 125.889 293.137 126.319 293.137 127.414V233.552C293.169 234.138 293.337 234.709 293.629 235.219C293.921 235.728 294.329 236.162 294.819 236.485L315.272 248.217C316.172 248.765 316.973 248.335 316.973 247.259Z" fill="#1141E3"/>
<g opacity="0.2">
<path d="M316.973 247.259V141.102C316.94 140.514 316.768 139.942 316.473 139.432C316.177 138.923 315.766 138.49 315.272 138.169L294.819 126.437C293.9 125.889 293.137 126.319 293.137 127.414V233.552C293.169 234.138 293.337 234.709 293.629 235.219C293.921 235.728 294.329 236.162 294.819 236.485L315.272 248.217C316.172 248.765 316.973 248.335 316.973 247.259Z" fill="black"/>
</g>
<path d="M277.2 224.4V72.3108C277.17 71.7241 277.003 71.1527 276.71 70.6431C276.418 70.1334 276.01 69.6999 275.519 69.3777L255.065 57.6454C254.146 57.0979 253.384 57.6454 253.384 58.6231V210.634C253.418 211.22 253.588 211.789 253.88 212.298C254.172 212.807 254.577 213.242 255.065 213.567L275.519 225.3C276.457 225.847 277.2 225.397 277.2 224.4Z" fill="#1141E3"/>
<path d="M699.503 248.706C699.23 247.239 692.053 230.541 689.101 223.97L674.142 230.971L679.871 244.091L695.358 256.078C696.865 255.619 698.137 254.596 698.909 253.223C699.681 251.85 699.894 250.232 699.503 248.706Z" fill="#FFA8A7"/>
<path d="M669.704 423.615H658.167V440.432H669.704V423.615Z" fill="#FFA8A7"/>
<path d="M629.064 402.846L617.534 403.243L618.112 420.049L629.642 419.653L629.064 402.846Z" fill="#FFA8A7"/>
<path d="M631.943 182.79C627.767 182.887 623.685 184.038 620.074 186.138C616.464 188.237 613.443 191.215 611.294 194.796C604.919 204.279 593.695 220.489 593.695 220.489L614.716 227.157L631.943 182.79Z" fill="#1141E3"/>
<g opacity="0.7">
<path d="M631.943 182.79C627.767 182.887 623.685 184.038 620.074 186.138C616.464 188.237 613.443 191.215 611.294 194.796C604.919 204.279 593.695 220.489 593.695 220.489L614.716 227.157L631.943 182.79Z" fill="white"/>
</g>
<path d="M668.939 259.598C668.939 270.626 670.367 341.939 670.367 341.939C670.64 345.107 673.612 350.953 672.967 363.135C672.087 379.697 670.66 425.707 670.66 425.707C670.66 425.707 665.243 431.085 657.598 425.707C657.598 425.707 647.137 363.233 645.083 346.827C643.265 332.514 640.215 293.641 640.215 293.641L629.519 339.417C629.519 339.417 631.474 350.171 631.807 357.758C632.139 365.345 629.851 409.224 629.851 409.224C627.979 410.393 625.835 411.053 623.63 411.139C621.424 411.225 619.235 410.733 617.278 409.712C617.278 409.712 608.01 345.615 606.817 338.752C605.624 331.888 614.951 259.598 614.951 259.598H668.939Z" fill="#1141E3"/>
<path opacity="0.2" d="M668.939 259.598C668.939 270.626 670.367 341.939 670.367 341.939C670.64 345.107 673.612 350.953 672.967 363.135C672.087 379.697 670.66 425.707 670.66 425.707C670.66 425.707 665.243 431.085 657.598 425.707C657.598 425.707 647.137 363.233 645.083 346.827C643.265 332.514 640.215 293.641 640.215 293.641L629.519 339.417C629.519 339.417 631.474 350.171 631.807 357.758C632.139 365.345 629.851 409.224 629.851 409.224C627.979 410.393 625.835 411.053 623.63 411.139C621.424 411.225 619.235 410.733 617.278 409.712C617.278 409.712 608.01 345.615 606.817 338.752C605.624 331.888 614.951 259.598 614.951 259.598H668.939Z" fill="black"/>
<path d="M651.576 183.143C661.92 185.626 675.041 189.811 679.656 199.353C684.27 208.895 691.388 224.362 691.388 224.362L674.259 234.491L668.94 225.34V259.598C660.845 268.397 632.609 272.503 614.933 259.598V203.205C614.933 194.23 619.938 183.416 633.724 182.615L651.576 183.143Z" fill="#1141E3"/>
<path opacity="0.7" d="M651.576 183.143C661.92 185.626 675.041 189.811 679.656 199.353C684.27 208.895 691.388 224.362 691.388 224.362L674.259 234.491L668.94 225.34V259.598C660.845 268.397 632.609 272.503 614.933 259.598V203.205C614.933 194.23 619.938 183.416 633.724 182.615L651.576 183.143Z" fill="white"/>
<path d="M655.469 137.114C656.397 137.007 657.338 137.113 658.219 137.425C659.1 137.737 659.898 138.246 660.553 138.913C662.743 141.142 662.293 145.287 660.553 154.79L653.787 155.573L655.469 137.114Z" fill="#263238"/>
<path d="M616.144 134.453C614.692 134.471 613.254 134.184 611.92 133.612C609.847 132.419 609.3 134.766 610.434 136.819C611.185 138.283 612.298 139.532 613.666 140.445C615.035 141.359 616.615 141.908 618.255 142.04C618.255 141.746 620.211 136.76 620.211 136.76L616.144 134.453Z" fill="#263238"/>
<path d="M652.299 155.572C653.296 156.179 654.724 154.243 655.956 152.952C656.442 152.397 657.062 151.975 657.757 151.724C658.451 151.474 659.198 151.405 659.927 151.522C660.656 151.639 661.343 151.939 661.924 152.395C662.505 152.85 662.961 153.446 663.249 154.125C665.302 158.447 660.649 164.215 657.911 166.112C657.146 166.773 656.192 167.176 655.184 167.264C654.177 167.352 653.167 167.12 652.299 166.601L651.576 183.143C650.368 185.794 648.52 188.104 646.2 189.865C643.879 191.626 641.157 192.783 638.279 193.233C628.502 194.543 630.555 186.546 633.743 182.615V176.593C631.316 177.119 628.82 177.251 626.351 176.984C625.08 176.651 622.069 173.073 620.114 168.908C617.924 164.313 614.248 156.159 617.533 142.374C621.013 127.571 636.91 127.122 646.414 133.086C655.917 139.049 652.299 155.572 652.299 155.572Z" fill="#FFA8A7"/>
<path d="M652.301 157.254C652.79 157.254 654.725 154.086 655.957 152.952C657.698 151.368 655.468 137.113 655.468 137.113C655.468 137.113 657.209 131.716 653.787 128.119C650.365 124.521 643.756 125.146 638.907 124.97C632.955 125 627.06 123.816 621.582 121.49C614.699 118.498 614.19 118.146 613.33 121.177C612.47 124.208 612.157 131.11 616.263 135.745L619.685 137.016C619.685 137.016 621.523 138.639 627.937 139.421C633.865 139.871 639.823 139.76 645.731 139.088C647.588 138.834 647.979 140.633 648.977 145.561C649.876 149.902 650.6 157.234 652.301 157.254Z" fill="#263238"/>
<path d="M655.449 138.227L661.51 134.961C661.317 134.554 661.044 134.19 660.706 133.892C660.368 133.594 659.973 133.368 659.545 133.227C659.117 133.086 658.665 133.034 658.217 133.073C657.768 133.112 657.332 133.243 656.935 133.456C656.121 133.907 655.512 134.655 655.235 135.543C654.959 136.432 655.035 137.393 655.449 138.227Z" fill="#263238"/>
<path d="M633.742 176.591C637.889 175.81 641.954 174.645 645.885 173.111C647.737 172.153 649.251 170.652 650.226 168.809C649.754 170.652 648.916 172.381 647.762 173.893C645.455 176.826 633.742 178.996 633.742 178.996V176.591Z" fill="#F28F8F"/>
<path d="M635.933 153.322C635.925 153.564 635.966 153.804 636.053 154.029C636.139 154.254 636.271 154.459 636.439 154.633C636.606 154.806 636.807 154.944 637.029 155.038C637.252 155.132 637.491 155.18 637.732 155.18C638.128 155.211 638.524 155.121 638.867 154.922C639.211 154.723 639.486 154.423 639.655 154.064C639.824 153.705 639.88 153.302 639.815 152.91C639.75 152.519 639.567 152.156 639.291 151.87C639.014 151.585 638.658 151.391 638.268 151.313C637.879 151.235 637.475 151.278 637.11 151.436C636.745 151.594 636.437 151.859 636.227 152.196C636.017 152.533 635.914 152.926 635.933 153.322Z" fill="#263238"/>
<path d="M637.83 146.518L641.741 148.65C642.012 148.12 642.07 147.507 641.902 146.936C641.735 146.365 641.355 145.879 640.841 145.58C640.585 145.432 640.3 145.34 640.006 145.307C639.711 145.275 639.414 145.304 639.131 145.392C638.848 145.48 638.587 145.625 638.363 145.819C638.139 146.013 637.958 146.251 637.83 146.518Z" fill="#263238"/>
<path d="M636.071 165.543L631.945 167.088C632.037 167.363 632.183 167.616 632.374 167.833C632.565 168.051 632.797 168.229 633.057 168.356C633.317 168.483 633.6 168.558 633.889 168.575C634.178 168.592 634.468 168.552 634.741 168.457C635.294 168.234 635.739 167.807 635.987 167.265C636.234 166.723 636.264 166.107 636.071 165.543Z" fill="#F28F8F"/>
<path d="M619.861 148.025L623.361 145.307C623.196 145.07 622.985 144.869 622.74 144.716C622.495 144.564 622.222 144.462 621.936 144.419C621.651 144.375 621.36 144.389 621.08 144.461C620.801 144.533 620.539 144.661 620.311 144.837C619.839 145.208 619.529 145.747 619.446 146.341C619.362 146.935 619.511 147.538 619.861 148.025Z" fill="#263238"/>
<path d="M620.936 152.815C620.936 153.052 620.983 153.286 621.073 153.504C621.163 153.722 621.296 153.92 621.463 154.087C621.63 154.254 621.828 154.387 622.047 154.477C622.265 154.568 622.499 154.614 622.735 154.614C622.971 154.614 623.205 154.568 623.424 154.477C623.642 154.387 623.84 154.254 624.007 154.087C624.174 153.92 624.307 153.722 624.397 153.504C624.487 153.286 624.534 153.052 624.534 152.815C624.542 152.574 624.501 152.334 624.414 152.109C624.327 151.884 624.196 151.679 624.028 151.505C623.86 151.332 623.659 151.194 623.437 151.1C623.215 151.006 622.976 150.958 622.735 150.958C622.251 150.968 621.791 151.169 621.454 151.517C621.117 151.865 620.931 152.331 620.936 152.815Z" fill="#263238"/>
<path d="M630.107 151.094L629.521 161.947L623.87 160.011L630.107 151.094Z" fill="#F28F8F"/>
<path d="M583.021 216.403L629.129 228.545L642.738 285.779L598.899 273.05L583.021 216.403Z" fill="#1141E3"/>
<path d="M603.122 254.279C602.31 255.727 601.082 256.899 599.597 257.641C598.112 258.384 596.438 258.664 594.792 258.444L594.127 256.078L603.122 254.279Z" fill="#1141E3"/>
<path d="M613.427 256.078C613.623 257.603 616.771 260.419 622.07 262.178C628.093 264.134 637.342 263.137 637.342 263.137L636.52 260.282L613.427 256.078Z" fill="#1141E3"/>
<path opacity="0.43" d="M596.59 224.694L596.198 222.935C596.003 221.957 598.701 221.918 602.26 222.837L609.045 224.597C612.604 225.535 615.635 227.061 615.85 228.038L616.241 229.798L596.59 224.694Z" fill="#455A64"/>
<path d="M593.306 218.065C593.189 217.459 594.284 217.302 595.77 217.713L598.547 218.534C598.547 218.534 597.745 214.624 603.729 216.051C605.325 216.286 606.834 216.93 608.108 217.921C609.383 218.911 610.38 220.213 611.003 221.702L613.877 222.523C615.461 222.973 616.888 223.814 617.084 224.479L617.416 225.574L593.658 219.316L593.306 218.065Z" fill="#37474F"/>
<path d="M596.591 219.962C598.761 220.489 599.661 220.783 599.993 222.269C600.325 223.755 600.521 225.241 600.521 225.241L611.021 228.018C611.021 228.018 610.513 225.847 610.356 225.006C610.2 224.166 610.552 223.657 612.312 224.087L612.449 223.423L595.965 219.238L596.591 219.962Z" fill="#37474F"/>
<path d="M596.219 224.87L595.848 223.11C595.633 222.132 598.331 222.093 601.89 223.012L608.675 224.772C612.234 225.691 615.284 227.216 615.5 228.194L615.871 229.954L596.219 224.87Z" fill="#37474F"/>
<path d="M695.355 256.079L679.869 244.092C679.869 244.092 647.409 250.193 643.753 250.486C640.096 250.779 637.202 247.162 635.814 243.564C634.426 239.966 631.61 240.416 631.61 240.416C631.61 240.416 632.685 244.992 633.037 246.439C633.389 247.885 624.923 249.078 620.054 247.436C615.185 245.793 608.126 248.179 612.486 254.827C616.847 261.475 625.372 262.218 631.277 262.238C633.749 262.214 636.217 262.044 638.669 261.73C640.624 261.495 642.58 261.299 644.398 261.162C656.482 260.302 689.861 257.799 695.355 256.079Z" fill="#FFA8A7"/>
<path d="M587.694 233.14L589.747 240.434C590.138 241.842 595.496 244.345 598.898 245.322C602.3 246.3 605.996 247.278 604.392 252.108C602.906 256.468 597.334 257.465 594.498 257.348C592.588 257.025 590.805 256.18 589.345 254.907C587.885 253.634 586.806 251.981 586.227 250.133C584.272 244.56 585.328 238.596 584.545 235.33C583.763 232.065 586.012 231.205 587.694 233.14Z" fill="#F28F8F"/>
<path d="M658.166 434.739V433.077C657.071 433.566 654.49 443.362 649.915 447.527C646.278 450.852 641.311 454.704 640.138 458.399C638.964 462.095 647.06 464.383 650.462 463.777C654.373 463.073 661.275 460.296 662.996 457.715C664.717 455.134 665.518 451.321 666.907 449.424C668.295 447.527 671.522 445.513 672.284 443.245C672.511 441.2 672.284 439.13 671.619 437.183C671.091 435.13 670.505 432.901 669.82 433.077C669.82 433.331 669.82 434.348 669.82 434.348C668.143 435.647 666.075 436.336 663.954 436.304C662.253 436.362 658.147 436.03 658.166 434.739Z" fill="#37474F"/>
<path d="M618.101 416.459C617.495 416.459 617.006 417.319 615.696 418.747C613.718 420.746 611.417 422.398 608.892 423.635C604.57 425.806 596.182 429.13 592.369 430.851C589.983 431.926 590.1 434.761 592.564 436.423C595.028 438.086 600.953 439.239 608.07 437.636C611.981 436.775 617.006 433.197 620.194 433.373C623.381 433.549 629.364 433.53 631.73 431.907C634.096 430.284 633.138 426.803 632.473 423.811C631.809 420.82 630.714 415.579 629.638 415.794V416.831C628.25 418.923 621.171 419.783 618.121 418.238L618.101 416.459Z" fill="#37474F"/>
<path d="M118.127 409.438L125.343 419.469C122.053 420.988 118.465 421.75 114.842 421.698C108.39 421.952 106.61 419.743 106.376 419.312C105.281 416.986 106.982 412.762 107.451 409.125L118.127 409.438Z" fill="#37474F"/>
<path d="M106.376 399.35C106.376 399.35 107.471 408.462 107.55 410.417C107.628 412.373 116.447 413.018 118.128 409.44L118.382 398.294L106.376 399.35Z" fill="#F28F8F"/>
<path d="M106.376 219.825C100.354 229.211 94.644 237.423 93.3925 248.022C90.8114 270.293 99.2587 295.752 101.077 312.217C97.658 316.914 95.6808 322.506 95.387 328.309C95.387 335.114 106.376 399.348 106.376 399.348C106.376 399.348 114.354 401.792 118.382 398.292L125.93 280.129L122.019 265.737L106.376 219.825Z" fill="#1141E3"/>
<path opacity="0.5" d="M106.376 219.825C100.354 229.211 94.644 237.423 93.3925 248.022C90.8114 270.293 99.2587 295.752 101.077 312.217C97.658 316.914 95.6808 322.506 95.387 328.309C95.387 335.114 106.376 399.348 106.376 399.348C106.376 399.348 114.354 401.792 118.382 398.292L125.93 280.129L122.019 265.737L106.376 219.825Z" fill="white"/>
<path d="M162.047 175.81L201.761 194.875L177.925 248.472L140.89 227.1L162.047 175.81Z" fill="#1141E3"/>
<path d="M197.087 195.852L176.517 241.529L148.007 225.104L164.178 180.15L197.087 195.852Z" fill="#1141E3"/>
<path d="M164.18 180.15L197.089 195.852L174.876 242.018L143.746 224.244L164.18 180.15Z" fill="white"/>
<path d="M171.335 186.76L172.098 185.118C172.528 184.219 175.246 184.59 178.179 185.978L183.791 188.638C186.724 190.006 188.738 191.884 188.328 192.783L187.546 194.426L171.335 186.76Z" fill="#E0E0E0"/>
<path d="M92.9051 195.071C90.0112 203.323 84.2819 216.424 86.12 219.064C87.958 221.703 98.9864 221.136 105.126 220.902C112.948 220.608 119.44 220.295 119.44 220.295L118.129 206.608H107.023L111.911 192.764L92.9051 195.071Z" fill="#F28F8F"/>
<path d="M104.033 165.739C99.985 172.387 91.8115 195.852 91.8115 195.852C94.0824 198.427 97.0946 200.237 100.435 201.034C103.352 201.929 106.451 202.05 109.429 201.386L118.463 178.899L104.033 165.739Z" fill="#1141E3"/>
<path opacity="0.4" d="M104.033 165.739C99.985 172.387 91.8115 195.852 91.8115 195.852C94.0824 198.427 97.0946 200.237 100.435 201.034C103.352 201.929 106.451 202.05 109.429 201.386L118.463 178.899L104.033 165.739Z" fill="black"/>
<path d="M144.447 169.923C151.545 172.054 155.866 172.426 163.707 184.491C171.548 196.555 188.716 220.489 190.418 223.364C192.784 227.274 193.8 232.124 191.767 235.8C189.733 239.476 184.317 237.755 176.534 230.892C168.752 224.028 154.087 205.628 154.087 205.628C154.087 205.628 138.796 188.401 144.447 169.923Z" fill="#FFA8A7"/>
<path d="M138.778 154.282L136.862 171.235L120.124 173.171L122.548 150.665L138.778 154.282Z" fill="#FFA8A7"/>
<path d="M102.975 129.506C104.363 113.863 112.752 107.391 119.419 105.846C132.657 102.718 144.468 107.528 149.825 116.816C151.233 119.26 153.599 128.411 148.887 133.808C144.174 139.205 102.975 129.506 102.975 129.506Z" fill="#263238"/>
<path d="M151.135 135.021C151.135 135.021 154.615 140.888 154.087 141.552C153.162 142.09 152.149 142.461 151.096 142.647L151.135 135.021Z" fill="#F28F8F"/>
<path d="M140.576 116.152C144.174 118.283 150.353 122.175 151.193 135.862C152.073 149.921 149.394 154.243 147.283 155.963C145.933 157.137 139.011 156.746 135.55 155.475C131.307 153.871 121.863 149.511 117.795 142.041C113.103 133.262 112.692 121.901 118.91 117.814C122.08 115.713 125.735 114.458 129.527 114.167C133.319 113.876 137.122 114.559 140.576 116.152Z" fill="#FFA8A7"/>
<path d="M141.633 116.856C141.633 116.856 144.116 129.781 139.815 137.603C139.815 137.603 137.859 132.499 133.479 133.692C129.099 134.885 129.158 140.633 132.384 143.762C133.201 144.652 134.254 145.293 135.419 145.612C136.585 145.93 137.817 145.912 138.974 145.561C138.366 149.587 136.489 153.313 133.616 156.198C129.056 157.253 124.29 156.998 119.869 155.462C115.447 153.926 111.55 151.171 108.626 147.516C98.8493 135.901 101.411 116.23 116.917 112.007C132.423 107.783 141.633 116.856 141.633 116.856Z" fill="#263238"/>
<path d="M124.934 414.66C124.934 414.66 133.694 414.093 139.737 413.33C145.779 412.568 150.569 415.52 149.142 418.023C147.715 420.526 144.39 422.579 139.209 424.319C134.77 425.825 129.432 426.9 124.817 428.23C120.202 429.56 116.996 431.28 114.317 430.361C111.325 429.325 110.034 428.132 110.289 425.942C110.942 422.827 111.751 419.747 112.713 416.713L124.934 414.66Z" fill="#37474F"/>
<path d="M115.253 404.959L112.105 418.784C112.105 418.784 111.812 420.465 119.008 421.541C126.203 422.616 137.506 417.786 139.441 416.789C141.377 415.792 141.592 413.856 134.514 414.247C127.435 414.638 124.932 414.658 124.932 414.658L127.298 408.518L115.253 404.959Z" fill="#FFA8A7"/>
<path d="M125.929 280.128L122.018 265.737C114.531 263.766 107.308 260.897 100.509 257.192C100.509 257.192 104.576 264.603 116.152 268.65L122.234 287.148L122.761 329.463L125.929 280.128Z" fill="#1141E3"/>
<path d="M106.376 219.825C103.149 225.085 95.4451 234.099 97.0681 242.742C99.0235 253.242 104.714 260.595 121.96 265.737L138.151 324.399C138.151 324.399 129.723 332.22 127.142 339.787C124.561 347.355 115.253 405.019 115.253 405.019C115.253 405.019 118.128 409.712 127.22 408.578C127.22 408.578 158.917 336.229 161.165 331.516C163.848 326.771 164.795 321.24 163.844 315.873C162.847 308.267 152.112 225.222 152.112 225.222L106.376 219.825Z" fill="#1141E3"/>
<path opacity="0.5" d="M106.376 219.825C103.149 225.085 95.4451 234.099 97.0681 242.742C99.0235 253.242 104.714 260.595 121.96 265.737L138.151 324.399C138.151 324.399 129.723 332.22 127.142 339.787C124.561 347.355 115.253 405.019 115.253 405.019C115.253 405.019 118.128 409.712 127.22 408.578C127.22 408.578 158.917 336.229 161.165 331.516C163.848 326.771 164.795 321.24 163.844 315.873C162.847 308.267 152.112 225.222 152.112 225.222L106.376 219.825Z" fill="white"/>
<path d="M103.444 166.952C104.695 163.628 108.684 160.851 112.282 161.829C123.565 164.899 141.105 168.947 144.448 169.924C144.448 169.924 142.962 195.344 155.946 202.931C155.34 207.761 152.035 225.086 152.035 225.086C152.035 225.086 136.392 232.672 123.565 228.996C110.737 225.32 106.377 219.884 106.377 219.884L112.81 209.403C111.441 205.982 106.123 194.425 102.701 183.671C101.442 178.132 101.699 172.357 103.444 166.952Z" fill="#1141E3"/>
<path opacity="0.2" d="M103.444 166.952C104.695 163.628 108.684 160.851 112.282 161.829C123.565 164.899 141.105 168.947 144.448 169.924C144.448 169.924 142.962 195.344 155.946 202.931C155.34 207.761 152.035 225.086 152.035 225.086C152.035 225.086 136.392 232.672 123.565 228.996C110.737 225.32 106.377 219.884 106.377 219.884L112.81 209.403C111.441 205.982 106.123 194.425 102.701 183.671C101.442 178.132 101.699 172.357 103.444 166.952Z" fill="black"/>
<path opacity="0.25" d="M111.05 205.219C116.397 208.435 122.002 211.202 127.807 213.49C122.54 213.388 117.382 211.963 112.81 209.345L111.05 205.219Z" fill="#1141E3"/>
<path d="M114.375 109.327C114.375 109.327 109.018 100.195 95.897 102.561C82.7764 104.927 77.4578 118.85 77.6533 127.668C77.8489 136.487 80.8015 142.647 72.9018 153.088C71.3447 155.148 70.2475 157.517 69.6843 160.036C69.1211 162.556 69.1049 165.166 69.6368 167.693C70.1687 170.219 71.2364 172.601 72.7677 174.68C74.2991 176.758 76.2585 178.484 78.5137 179.74C89.0532 185.606 91.6147 175.399 89.1705 166.678C86.3547 156.686 96.816 154.946 99.6122 147.379C102.408 139.811 96.9138 123.914 100.433 118.517C104.344 112.651 109.624 113.472 112.166 115.467L114.375 109.327Z" fill="#263238"/>
<path d="M144.447 169.923C147.954 170.668 151.379 171.755 154.674 173.169C158.976 175.281 175.753 201.62 175.753 201.62C175.753 201.62 174.56 211.534 160.833 215.464L152.718 205.218C152.718 205.218 140.791 187.404 144.447 169.923Z" fill="#1141E3"/>
<path opacity="0.1" d="M144.447 169.923C147.954 170.668 151.379 171.755 154.674 173.169C158.976 175.281 175.753 201.62 175.753 201.62C175.753 201.62 174.56 211.534 160.833 215.464L152.718 205.218C152.718 205.218 140.791 187.404 144.447 169.923Z" fill="black"/>
<path d="M155.104 208.308C151.499 204.111 148.779 199.229 147.107 193.955C147.107 193.955 147.107 205.336 154.596 211.221L155.104 208.308Z" fill="#1141E3"/>
<path opacity="0.4" d="M155.104 208.308C151.499 204.111 148.779 199.229 147.107 193.955C147.107 193.955 147.107 205.336 154.596 211.221L155.104 208.308Z" fill="black"/>
<path d="M172.762 179.682C173.016 179.115 174.209 179.154 175.421 179.682L177.611 180.757C177.611 180.757 179.312 177.218 184.396 179.35C189.48 181.481 187.916 185.568 187.916 185.568L190.243 186.76C191.533 187.406 192.394 188.403 192.198 188.99L191.807 190.026L172.253 180.64L172.762 179.682Z" fill="#455A64"/>
<path d="M174.757 181.911C176.595 182.732 177.299 183.123 176.712 184.531C176.125 185.939 175.284 187.288 175.284 187.288L183.927 191.433C183.927 191.433 184.846 189.478 185.237 188.617C185.628 187.757 186.332 187.425 187.701 188.09L188.288 187.503L174.6 181.148L174.757 181.911Z" fill="#455A64"/>
<path d="M171.178 186.272L171.96 184.629C172.39 183.71 175.108 184.101 178.041 185.49L183.653 188.149C186.567 189.518 188.6 191.375 188.17 192.294L187.388 193.937L171.178 186.272Z" fill="#455A64"/>
</svg>
