<svg width="43" height="36" viewBox="0 0 43 36" fill="none" xmlns="http://www.w3.org/2000/svg">
<rect x="1" y="1" width="41" height="34" rx="5" fill="#0B3AE1" stroke="#0B3AE1" stroke-width="2"/>
<path d="M22.0075 23.6936C22.2118 23.8979 22.4718 24 22.7875 24C23.1033 24 23.3633 23.8979 23.5676 23.6936L28.6936 18.5676C28.805 18.4561 28.8837 18.3354 28.9298 18.2054C28.9766 18.0754 29 17.9361 29 17.7875C29 17.639 28.9766 17.4997 28.9298 17.3697C28.8837 17.2397 28.805 17.1189 28.6936 17.0075L23.5676 11.8815C23.3633 11.6772 23.1081 11.5706 22.802 11.5617C22.4952 11.5521 22.2304 11.6587 22.0075 11.8815C21.8032 12.0858 21.7011 12.3458 21.7011 12.6616C21.7011 12.9773 21.8032 13.2373 22.0075 13.4416L26.3256 17.7875L22.0075 22.1335C21.8032 22.3378 21.6962 22.5933 21.6866 22.9001C21.6777 23.2062 21.7846 23.4707 22.0075 23.6936ZM15.3214 23.6936C15.5257 23.8979 15.7858 24 16.1015 24C16.4172 24 16.6772 23.8979 16.8815 23.6936L22.0075 18.5676C22.1189 18.4561 22.1981 18.3354 22.2449 18.2054C22.2909 18.0754 22.3139 17.9361 22.3139 17.7875C22.3139 17.639 22.2909 17.4997 22.2449 17.3697C22.1981 17.2397 22.1189 17.1189 22.0075 17.0075L16.8815 11.8815C16.6772 11.6772 16.422 11.5706 16.116 11.5617C15.8092 11.5521 15.5443 11.6587 15.3214 11.8815C15.1171 12.0858 15.015 12.3458 15.015 12.6616C15.015 12.9773 15.1171 13.2373 15.3214 13.4416L19.6395 17.7875L15.3214 22.1335C15.1171 22.3378 15.0102 22.5933 15.0005 22.9001C14.9916 23.2062 15.0986 23.4707 15.3214 23.6936Z" fill="white"/>
</svg>
