<svg width="24" height="25" viewBox="0 0 24 25" fill="none" xmlns="http://www.w3.org/2000/svg">
<path fill-rule="evenodd" clip-rule="evenodd" d="M12.0066 14.1161L12.3607 14.1146C13.7652 14.1025 15.0183 14.0178 15.8124 13.8718C15.8267 13.8718 16.6143 13.7125 16.8764 13.6111C17.2554 13.4518 17.577 13.1638 17.7808 12.8027C17.9262 12.5136 18 12.2103 18 11.8929C17.9884 11.6434 17.8629 11.2318 17.7576 10.9381L17.664 10.694C17.0218 9.07729 14.9234 5.98678 13.6402 4.80316L13.5505 4.7159L13.1302 4.32644C12.8085 4.08099 12.4153 3.95117 11.9923 3.95117C11.6134 3.95117 11.2344 4.06681 10.9282 4.29808C10.829 4.36731 10.7017 4.47884 10.5942 4.5781L10.1974 4.95717C8.87572 6.26163 7.02183 9.08602 6.40756 10.55C6.39435 10.55 6.01432 11.4598 6 11.8929V11.9507C6 12.6151 6.37892 13.2358 6.99137 13.5532C7.1588 13.64 7.48678 13.7231 7.77483 13.7864L8.31871 13.9001C9.19332 14.03 10.535 14.1161 12.0066 14.1161ZM10.4817 20.4479C10.4817 21.2781 11.1613 21.9512 11.9996 21.9512C12.8378 21.9512 13.5175 21.2781 13.5175 20.4479L13.1903 16.7487C13.1903 16.0974 12.6583 15.5694 11.9996 15.5694C11.3419 15.5694 10.8088 16.0974 10.8088 16.7487L10.4817 20.4479Z" fill="#F8F8F8"/>
</svg>
