<svg width="227" height="50" viewBox="0 0 227 50" fill="none" xmlns="http://www.w3.org/2000/svg">
<g opacity="0.2" clip-path="url(#clip0_907_3832)">
<path d="M66.4652 13.7403H75.9727C81.2386 13.7403 83.9727 15.8996 83.9727 19.954V20.1562C84.0476 21.3442 83.6937 22.5197 82.9753 23.469C82.257 24.4182 81.2218 25.0781 80.0581 25.3288C82.959 25.5845 85.1134 28.127 84.8895 31.0301V31.1699C84.8895 35.5973 81.9842 37.9274 76.4072 37.9274H66.4652V13.7403ZM75.0869 23.6668C77.728 23.6668 78.7687 22.7195 78.7687 20.5602V20.4204C78.7687 18.4004 77.6192 17.4841 75.0564 17.4841H71.8094V23.6978L75.0869 23.6668ZM75.5533 34.1217C78.2559 34.1217 79.4833 32.8942 79.4833 30.704V30.5642C79.4833 28.3274 78.2559 27.1934 75.2887 27.1934H71.8094V34.1372L75.5533 34.1217ZM86.3187 33.0031C86.3187 28.8708 90.0931 27.3173 95.5152 27.3173H97.5033V26.6181C97.5033 24.5212 96.8661 23.3717 94.6294 23.3717C94.2673 23.3288 93.9003 23.3604 93.5509 23.4646C93.2016 23.5688 92.8772 23.7435 92.5978 23.9777C92.3185 24.212 92.09 24.501 91.9265 24.8268C91.763 25.1527 91.6679 25.5086 91.6471 25.8726H86.9864C87.2971 21.6783 90.6059 19.8142 94.9404 19.8142C99.2745 19.8142 102.335 21.5699 102.335 26.3699V37.8965H97.5656V35.7681C96.9672 36.6115 96.1602 37.2852 95.2236 37.7236C94.2871 38.162 93.2528 38.3501 92.2218 38.2695C89.0214 38.2695 86.3187 36.7159 86.3187 33.0031ZM97.5033 31.7137V30.1606H95.6081C92.7652 30.1606 91.1187 30.7819 91.1187 32.6615C91.1187 33.9509 91.8953 34.7898 93.682 34.7898C95.8413 34.8518 97.5033 33.6712 97.5033 31.7137ZM104.401 32.3509H108.968C109.17 33.904 109.947 34.8518 112.075 34.8518C113.97 34.8518 114.855 34.1527 114.855 32.9257C114.855 31.6982 113.799 31.2013 111.267 30.8438C106.607 30.1292 104.743 28.7774 104.743 25.3292C104.743 21.8805 108.129 19.8142 111.733 19.8142C115.663 19.8142 118.599 21.2434 119.034 25.2978H114.545C114.281 23.8376 113.457 23.1695 111.779 23.1695C110.102 23.1695 109.278 23.9155 109.278 24.9872C109.278 26.0593 110.117 26.5407 112.681 26.9137C117.108 27.5509 119.547 28.669 119.547 32.4593C119.547 36.25 116.782 38.269 112.106 38.269C107.43 38.269 104.572 36.1721 104.401 32.3509ZM120.805 29.2748V29.0106C120.746 27.7966 120.94 26.5835 121.374 25.4483C121.809 24.3131 122.474 23.2805 123.329 22.4159C124.183 21.5513 125.208 20.8737 126.338 20.4258C127.468 19.9779 128.678 19.7697 129.893 19.8142C134.46 19.8142 138.515 22.4863 138.515 28.8089V30.1602H125.823C125.947 33.0965 127.547 34.8208 130.203 34.8208C132.472 34.8208 133.59 33.842 133.901 32.3509H138.561C137.986 36.1721 134.942 38.3004 130.11 38.3004C124.689 38.2695 120.805 34.9292 120.805 29.2748ZM133.745 27.1465C133.59 24.4748 132.223 23.2628 129.893 23.2628C128.844 23.2578 127.834 23.6596 127.075 24.3838C126.316 25.108 125.867 26.0983 125.823 27.1465H133.745ZM139.804 29.2748V29.0106C139.745 27.7939 139.94 26.5782 140.376 25.4408C140.812 24.3034 141.48 23.2693 142.338 22.4043C143.196 21.5392 144.224 20.8622 145.358 20.4163C146.492 19.9704 147.706 19.7653 148.923 19.8142C153.024 19.8142 156.799 21.6009 157.249 26.6805H152.589C152.558 26.2446 152.44 25.8193 152.241 25.4299C152.042 25.0406 151.768 24.6951 151.433 24.4141C151.098 24.133 150.71 23.9221 150.293 23.7938C149.875 23.6655 149.435 23.6225 149.001 23.6673C146.468 23.6673 144.775 25.5619 144.775 28.9487V29.2128C144.775 32.7704 146.328 34.5876 149.109 34.5876C149.582 34.6148 150.056 34.5477 150.503 34.39C150.95 34.2324 151.361 33.9874 151.712 33.6693C152.064 33.3512 152.348 32.9665 152.549 32.5374C152.751 32.1083 152.864 31.6434 152.884 31.1699H157.311C157.048 35.3646 154.002 38.2695 148.861 38.2695C143.719 38.2695 139.804 35.0535 139.804 29.2748ZM158.446 33.0031C158.446 28.8708 162.22 27.3173 167.626 27.3173H169.631V26.6181C169.631 24.5212 168.978 23.3717 166.756 23.3717C166.392 23.3242 166.022 23.3524 165.669 23.4545C165.315 23.5566 164.987 23.7305 164.704 23.9652C164.422 24.1999 164.19 24.4905 164.025 24.8186C163.859 25.1468 163.764 25.5056 163.743 25.8726H159.082C159.393 21.6783 162.702 19.8142 167.021 19.8142C171.339 19.8142 174.43 21.5699 174.43 26.3699V37.8965H169.661V35.7681C169.063 36.6115 168.256 37.2852 167.319 37.7236C166.383 38.162 165.348 38.3501 164.317 38.2695C161.211 38.2695 158.446 36.7159 158.446 33.0031ZM169.63 31.7137V30.1606H167.766C164.923 30.1606 163.261 30.7819 163.261 32.6615C163.261 33.9509 164.053 34.7898 165.84 34.7898C168.03 34.8518 169.693 33.6712 169.693 31.7137H169.63ZM177.879 20.1562H182.773V22.8593C183.306 21.8989 184.091 21.1022 185.044 20.5547C185.996 20.0073 187.08 19.7298 188.178 19.7522C189.227 19.6684 190.274 19.9256 191.164 20.4856C192.054 21.0455 192.74 21.8781 193.118 22.8593C193.771 21.8848 194.657 21.0897 195.697 20.5468C196.737 20.004 197.896 19.7307 199.068 19.7522C202.346 19.7522 204.878 21.8186 204.878 26.5097V37.8345H200.016V27.115C200.016 24.8469 199.006 23.8372 197.235 23.8372C196.764 23.8167 196.294 23.8981 195.857 24.0758C195.42 24.2535 195.027 24.5233 194.704 24.8669C194.381 25.2105 194.136 25.6197 193.986 26.0667C193.835 26.5136 193.783 26.9877 193.833 27.4566V37.896H188.955V27.1155C188.955 24.8473 187.914 23.8376 186.19 23.8376C185.718 23.8148 185.246 23.8945 184.807 24.0712C184.369 24.2479 183.973 24.5174 183.649 24.8612C183.324 25.2051 183.077 25.6151 182.926 26.0632C182.775 26.5113 182.722 26.9868 182.772 27.4571V37.8965H177.879V20.1562ZM208.234 20.1562H213.143V22.9367C213.728 21.9641 214.554 21.1596 215.543 20.6015C216.531 20.0435 217.647 19.7508 218.782 19.7522C223.116 19.7522 226.549 22.9677 226.549 28.8089V29.0885C226.549 34.9292 223.24 38.2071 218.782 38.2071C217.648 38.2536 216.522 37.9887 215.528 37.441C214.534 36.8934 213.709 36.0839 213.143 35.1004V43.9239H208.234V20.1562ZM221.516 29.1195V28.8398C221.516 25.2668 219.76 23.5115 217.29 23.5115C214.82 23.5115 212.971 25.2978 212.971 28.8398V29.1195C212.971 32.6615 214.665 34.3858 217.337 34.3858C220.009 34.3858 221.516 32.5836 221.516 29.1814V29.1195ZM30.1457 0C40.3422 0 48.3139 7.78982 52.9223 18.6801L53.3515 19.7265C54.2035 21.8857 54.9159 24.0973 55.4842 26.3478L55.7643 27.5C56.4917 30.6438 56.9693 33.8402 57.1926 37.0593C57.2294 37.585 57.1084 38.1098 56.8453 38.5664C52.5621 46.0013 43.0329 49.592 30.8794 49.7221L30.1891 49.7257C25.5886 49.8008 21.0261 48.8818 16.8135 47.0314C12.6009 45.1811 8.83737 42.443 5.78024 39.0044C5.4611 38.6454 5.2456 38.2063 5.15683 37.7342C5.06805 37.2621 5.10933 36.7748 5.27626 36.3243L5.66343 35.3332L5.98777 34.5456C6.04529 34.4084 6.10458 34.269 6.16564 34.127C6.86166 32.5 7.63378 30.8717 8.46608 29.3394C10.6962 25.2332 12.9037 22.5106 15.5342 21.6102C16.0867 21.4184 16.6667 21.3183 17.2515 21.3137C19.5988 21.3137 21.1148 22.3668 23.5462 24.896L24.9378 26.358L25.4183 26.8367L25.7201 27.1053L25.951 27.2947L26.0453 27.1973C26.3771 26.8447 26.7634 26.358 27.1882 25.7584L27.4037 25.4487C27.9099 24.7102 28.4497 23.8447 29.0108 22.8796C29.7627 21.5784 30.4773 20.2559 31.1537 18.9137L31.6555 17.9071L32.0347 17.1217C32.324 16.5046 32.84 16.0229 33.4755 15.7765C34.1109 15.5302 34.8168 15.5383 35.4465 15.7991C36.0761 16.0599 36.581 16.5534 36.8561 17.1769C37.1312 17.8004 37.1554 18.506 36.9236 19.1469L36.7971 19.4416L36.244 20.5792L35.8798 21.3062C35.1573 22.7397 34.3939 24.1523 33.5904 25.542C32.9679 26.6128 32.3603 27.5872 31.7727 28.4447C29.8063 31.3124 28.271 32.8252 26.1528 32.8252C24.559 32.8252 23.6957 32.4845 22.2072 31.0982L21.7404 30.6504L21.228 30.1358L20.3559 29.2288L19.7789 28.6212L19.3094 28.1434C19.2356 28.0699 19.1634 27.9991 19.094 27.9314L18.701 27.5602C18.588 27.4565 18.4729 27.355 18.3559 27.2558L18.0564 27.0142C17.7325 26.7681 17.4975 26.6442 17.3351 26.6168L17.2776 26.6115L17.2502 26.6217C16.6201 26.8376 15.6767 27.8226 14.6307 29.365L14.2072 30.0111C13.9836 30.3648 13.7673 30.7231 13.5586 31.0858L13.121 31.8677C12.5118 32.9967 11.946 34.1485 11.4249 35.3208L10.8466 36.6558L11.0387 36.846C15.959 41.6513 22.567 44.3823 29.513 44.4323L30.1453 44.4292C40.294 44.4292 48.0263 41.8376 51.5931 36.9407L51.8409 36.5858L51.813 36.2518C51.4502 32.2894 50.6692 28.4394 49.5316 24.877L49.1798 23.8173C45.555 13.3084 38.7807 5.55221 30.5528 5.30398L30.1453 5.29779C18.7068 5.29779 11.0165 13.0597 5.87538 26.4084L5.386 27.7181C5.30546 27.9389 5.22582 28.1615 5.14706 28.3854C4.90954 29.0428 4.42181 29.5796 3.79016 29.8789C3.15851 30.1782 2.43417 30.2157 1.775 29.9832C1.11583 29.7507 0.57528 29.2671 0.271167 28.6378C-0.0329461 28.0084 -0.0759665 27.2844 0.151482 26.6235L0.391305 25.9513L0.885111 24.6288C6.73024 9.36726 15.9572 0 30.1457 0Z" fill="#797979"/>
</g>
<defs>
<clipPath id="clip0_907_3832">
<rect width="226.549" height="50" fill="white"/>
</clipPath>
</defs>
</svg>
