<svg width="83" height="70" viewBox="0 0 83 70" fill="none" xmlns="http://www.w3.org/2000/svg">
<rect x="0.5" y="0.5" width="82" height="69" rx="5.5" fill="#F7F9FA" stroke="#EFEFEF"/>
<path d="M42.8589 18.3558C42.3846 17.8814 41.6161 17.8814 41.1418 18.3558L38.7132 20.7844C38.2388 21.2587 38.2388 22.0271 38.7132 22.5015C39.1875 22.9758 39.9559 22.9758 40.4303 22.5015L40.786 22.1457V31.3574H43.2146V22.1457L43.5704 22.5015C43.8076 22.7386 44.1183 22.8572 44.429 22.8572C44.7396 22.8572 45.0503 22.7386 45.2875 22.5015C45.7618 22.0271 45.7618 21.2587 45.2875 20.7844L42.8589 18.3558Z" fill="#EB5454"/>
<path d="M58.6453 24.426L56.2167 21.9974C55.7423 21.523 54.9739 21.523 54.4995 21.9974C54.0252 22.4717 54.0252 23.2401 54.4995 23.7145L54.8553 24.0702H49.2866C48.6154 24.0702 48.0723 24.6133 48.0723 25.2845V31.3561H50.5009V26.4988H54.8553L54.4995 26.8546C54.0252 27.3289 54.0252 28.0973 54.4995 28.5717C54.7367 28.8089 55.0474 28.9274 55.3581 28.9274C55.6688 28.9274 55.9795 28.8089 56.2167 28.5717L58.6453 26.1431C59.1196 25.6687 59.1196 24.9003 58.6453 24.426Z" fill="#EB5454"/>
<path d="M34.7144 24.0702H29.1457L29.5015 23.7145C29.9758 23.2401 29.9758 22.4717 29.5015 21.9974C29.0271 21.523 28.2587 21.523 27.7844 21.9974L25.3558 24.426C24.8814 24.9003 24.8814 25.6687 25.3558 26.1431L27.7844 28.5717C28.0215 28.8089 28.3322 28.9274 28.6429 28.9274C28.9536 28.9274 29.2643 28.8089 29.5015 28.5717C29.9758 28.0973 29.9758 27.3289 29.5015 26.8546L29.1457 26.4988H33.5001V31.3561H35.9288V25.2845C35.9288 24.6133 35.385 24.0702 34.7144 24.0702Z" fill="#EB5454"/>
<path d="M42.0008 45.9283C41.2636 45.9283 40.5408 45.708 39.913 45.2919L26.2148 36.2139V49.5712C26.2148 50.9125 27.2245 51.9998 28.47 51.9998H55.5317C56.7771 51.9998 57.7868 50.9125 57.7868 49.5712V36.2139L44.0887 45.2919C43.4609 45.708 42.7381 45.9283 42.0008 45.9283Z" fill="#EB5454"/>
<path d="M27.6616 32.5723H56.3401C57.1391 32.5723 57.7868 33.2698 57.7868 34.1303C57.7868 34.6713 57.5262 35.1736 57.0983 35.4572L44.0887 44.0789C43.4608 44.495 42.7381 44.7153 42.0008 44.7153C41.2636 44.7153 40.5408 44.495 39.913 44.0789L26.9033 35.4572C26.4755 35.1736 26.2148 34.6713 26.2148 34.1303C26.2148 33.2698 26.8626 32.5723 27.6616 32.5723Z" fill="#EB5454"/>
</svg>
