<svg width="83" height="70" viewBox="0 0 83 70" fill="none" xmlns="http://www.w3.org/2000/svg">
<rect x="0.5" y="0.5" width="82" height="69" rx="5.5" fill="#F7F9FA" stroke="#F5F4F1"/>
<path d="M35.8696 23.3526C38.683 23.3526 40.9658 25.6353 40.9658 28.4509C40.9658 31.2665 38.683 33.547 35.8696 33.547C33.0541 33.547 30.7713 31.2665 30.7713 28.4509C30.7713 25.6353 33.0541 23.3548 35.8674 23.3548H35.8696L35.8696 23.3526ZM48.3291 32.0189C49.0177 32.0189 49.7062 32.2821 50.2325 32.8061L58.1988 40.7747C58.5496 41.1233 58.5496 41.6913 58.1988 42.0421C58.0255 42.2176 57.7953 42.3053 57.5651 42.3053C57.337 42.3053 57.1067 42.2176 56.9313 42.0421L48.965 34.0758C48.7896 33.9004 48.5593 33.8127 48.3291 33.8127C48.1076 33.8127 47.884 33.8938 47.7107 34.0605L36.3341 45.4326C36.1587 45.608 35.9284 45.6957 35.7004 45.6957C35.4701 45.6957 35.2421 45.608 35.0667 45.4326C34.7158 45.0839 34.7158 44.516 35.0667 44.1651L36.8604 42.3736V42.3714L34.8737 40.3869C34.6982 40.2115 34.468 40.1237 34.2378 40.1237C34.0163 40.1237 33.7926 40.2049 33.6194 40.3715L26.8302 47.1562C26.6548 47.3316 26.4267 47.4193 26.1965 47.4193C25.9663 47.4193 25.7382 47.3316 25.5628 47.1562C25.2119 46.8075 25.2119 46.2396 25.5628 45.8887L32.3362 39.1176C32.8603 38.5935 33.5444 38.3325 34.2308 38.3325H34.2352L34.2374 38.3303C34.9259 38.3303 35.6145 38.5935 36.1407 39.1175L38.1275 41.1043L46.4272 32.8068C46.9491 32.2849 47.6332 32.0217 48.3196 32.0217H48.3284L48.3291 32.0189ZM24.6906 18C23.2061 18.0022 22 19.206 22 20.6928V49.3072C22 50.7939 23.2061 51.9978 24.6906 52H59.0719C60.5586 51.9978 61.7625 50.794 61.7625 49.3072V20.6928C61.7625 19.2061 60.5587 18.0022 59.0719 18H24.6906Z" fill="#EB5454"/>
<ellipse cx="35.5" cy="27.5" rx="6.5" ry="7.5" fill="#EB5454"/>
<circle cx="55.5" cy="19.5" r="7.5" fill="#F5F4F1"/>
<path d="M57.6667 17.125V15.75C57.6667 14.2375 56.4667 13 55 13C53.5333 13 52.3333 14.2375 52.3333 15.75V17.125C51.6 17.125 51 17.7438 51 18.5V22.625C51 23.3813 51.6 24 52.3333 24H57.6667C58.4 24 59 23.3813 59 22.625V18.5C59 17.7438 58.4 17.125 57.6667 17.125ZM56.3333 17.125H53.6667V15.75C53.6667 14.9937 54.2667 14.375 55 14.375C55.7333 14.375 56.3333 14.9937 56.3333 15.75V17.125Z" fill="#EB5454"/>
</svg>
