<svg width="50" height="50" viewBox="0 0 50 50" fill="none" xmlns="http://www.w3.org/2000/svg">
<path d="M8.10071 10C7.47704 10 6.89605 10.1915 6.40794 10.5127L6.91414 10.9082L24.9992 23.1585L43.0745 10.9147L43.5725 10.5013C43.0883 10.1876 42.5149 10 41.8993 10H8.10071ZM44.6761 11.7528L44.108 12.2232C44.0871 12.2405 44.0654 12.2568 44.0429 12.272L25.4663 24.8543C25.3284 24.9477 25.1657 24.9975 24.9992 24.9975C24.8327 24.9975 24.67 24.9477 24.532 24.8543L5.95544 12.272C5.93987 12.2611 5.92467 12.2497 5.90987 12.2378L5.31414 11.7724C5.11931 12.177 5 12.6241 5 13.1004V36.8996C5 38.6025 6.39766 40 8.10071 40H41.8993C43.6023 40 45 38.6025 45 36.8996V13.1004C45 12.6163 44.8769 12.1625 44.6761 11.7528ZM31.6694 28.3307H38.3314C40.1667 28.3307 41.6649 29.8287 41.6649 31.6639V33.3321C41.6649 35.1672 40.1667 36.6652 38.3314 36.6652H31.6694C29.8341 36.6652 28.3343 35.1692 28.3343 33.3321V31.6639C28.3343 29.8267 29.8341 28.3307 31.6694 28.3307ZM10.7457 29.9973C10.7744 29.9958 10.8032 29.9958 10.8319 29.9973H14.167C14.278 29.9948 14.3884 30.0146 14.4917 30.0553C14.5949 30.0961 14.689 30.1571 14.7684 30.2347C14.8478 30.3123 14.9108 30.405 14.9539 30.5073C14.9969 30.6097 15.0191 30.7196 15.0191 30.8306C15.0191 30.9416 14.9969 31.0515 14.9539 31.1538C14.9108 31.2561 14.8478 31.3488 14.7684 31.4264C14.689 31.5041 14.5949 31.5651 14.4917 31.6058C14.3884 31.6466 14.278 31.6663 14.167 31.6639H10.8319C10.6138 31.6704 10.4019 31.5912 10.2414 31.4433C10.081 31.2955 9.98482 31.0907 9.97354 30.8728C9.96227 30.6549 10.0368 30.4412 10.1811 30.2776C10.3254 30.114 10.5281 30.0133 10.7457 29.9973ZM31.6694 29.9973C30.7604 29.9973 30.001 30.755 30.001 31.6639V33.3321C30.001 34.2409 30.7604 34.9986 31.6694 34.9986H38.3314C39.2404 34.9986 39.9982 34.2409 39.9982 33.3321V31.6639C39.9982 30.755 39.2404 29.9973 38.3314 29.9973H31.6694ZM10.7489 33.3304C10.7766 33.3296 10.8043 33.3301 10.8319 33.3321H20.8356C20.9466 33.3296 21.057 33.3493 21.1602 33.3901C21.2635 33.4309 21.3576 33.4919 21.4369 33.5695C21.5163 33.6471 21.5794 33.7398 21.6224 33.8421C21.6655 33.9445 21.6877 34.0543 21.6877 34.1654C21.6877 34.2764 21.6655 34.3863 21.6224 34.4886C21.5794 34.5909 21.5163 34.6836 21.4369 34.7612C21.3576 34.8388 21.2635 34.8998 21.1602 34.9406C21.057 34.9814 20.9466 35.0011 20.8356 34.9986H10.8319C10.6138 35.0051 10.4019 34.926 10.2414 34.7781C10.081 34.6302 9.98482 34.4254 9.97354 34.2075C9.96226 33.9897 10.0368 33.776 10.1811 33.6124C10.3254 33.4487 10.5281 33.3481 10.7457 33.3321C10.7468 33.3315 10.7478 33.331 10.7489 33.3304Z" fill="#eb5454"/>
</svg>
