<svg width="83" height="71" viewBox="0 0 83 71" fill="none" xmlns="http://www.w3.org/2000/svg">
<rect x="0.5" y="1.45117" width="82" height="69" rx="5.5" fill="#05992F" fill-opacity="0.1" stroke="#EFEFEF"/>
<g clip-path="url(#clip0_40_3115)">
<path d="M58.6667 21.2844C59.7717 21.2844 60.8316 21.7234 61.613 22.5048C62.3944 23.2862 62.8333 24.346 62.8333 25.4511V50.4511C62.8333 51.5562 62.3944 52.616 61.613 53.3974C60.8316 54.1788 59.7717 54.6178 58.6667 54.6178H25.3333C24.2283 54.6178 23.1685 54.1788 22.3871 53.3974C21.6057 52.616 21.1667 51.5562 21.1667 50.4511V48.3678H25.3333V50.4511H58.6667V28.4157L44.2188 42.8636C43.6327 43.4494 42.838 43.7785 42.0094 43.7785C41.1807 43.7785 40.386 43.4494 39.8 42.8636L25.3333 28.3969V29.6178H21.1667V25.4511C21.1667 24.346 21.6057 23.2862 22.3871 22.5048C23.1685 21.7234 24.2283 21.2844 25.3333 21.2844H58.6667ZM29.5 40.0344C30.031 40.035 30.5417 40.2383 30.9279 40.6029C31.314 40.9674 31.5463 41.4656 31.5775 41.9957C31.6086 42.5257 31.4361 43.0477 31.0953 43.4549C30.7545 43.8621 30.271 44.1238 29.7438 44.1865L29.5 44.2011H19.0833C18.5523 44.2005 18.0416 43.9972 17.6555 43.6327C17.2694 43.2681 17.037 42.7699 17.0059 42.2399C16.9748 41.7098 17.1472 41.1878 17.4881 40.7806C17.8289 40.3734 18.3123 40.1117 18.8396 40.049L19.0833 40.0344H29.5ZM27.4167 33.7844C27.9692 33.7844 28.4991 34.0039 28.8898 34.3946C29.2805 34.7853 29.5 35.3152 29.5 35.8678C29.5 36.4203 29.2805 36.9502 28.8898 37.3409C28.4991 37.7316 27.9692 37.9511 27.4167 37.9511H21.1667C20.6141 37.9511 20.0842 37.7316 19.6935 37.3409C19.3028 36.9502 19.0833 36.4203 19.0833 35.8678C19.0833 35.3152 19.3028 34.7853 19.6935 34.3946C20.0842 34.0039 20.6141 33.7844 21.1667 33.7844H27.4167Z" fill="#05992F"/>
</g>
<defs>
<clipPath id="clip0_40_3115">
<rect width="50" height="50" fill="white" transform="translate(17 12.9512)"/>
</clipPath>
</defs>
</svg>
