<svg width="50" height="50" viewBox="0 0 50 50" fill="none" xmlns="http://www.w3.org/2000/svg">
<path d="M25 35.8571C24.1127 35.8571 23.2428 35.6109 22.4871 35.1459L6 25V41.2857C6 42.7848 7.21523 44 8.71429 44H41.2857C42.7848 44 44 42.7848 44 41.2857V25L27.513 35.1459C26.7573 35.6109 25.8874 35.8571 25 35.8571Z" fill="#eb5454"/>
<path d="M42.2588 20.9286H31.636C29.9221 22.605 27.5812 23.6429 25 23.6429C22.4188 23.6429 20.0779 22.605 18.364 20.9286H7.74124C6.77963 20.9286 6 21.7081 6 22.6698C6 23.2745 6.31369 23.8359 6.82867 24.1528L22.487 33.7887C23.2428 34.2537 24.1127 34.5 25 34.5C25.8873 34.5 26.7572 34.2537 27.513 33.7887L43.1713 24.1528C43.6863 23.8359 44 23.2745 44 22.6698C44 21.7081 43.2204 20.9286 42.2588 20.9286Z" fill="#eb5454"/>
<path d="M23.0551 12.0511L22.316 9.58768C22.2537 9.38225 22.2935 9.1596 22.4207 8.98797C22.5493 8.81567 22.7507 8.71429 22.9654 8.71429H27.0369C27.2516 8.71429 27.453 8.81567 27.5816 8.98797C27.7088 9.1596 27.7486 9.38225 27.6863 9.58768L26.4059 13.8554L32.5569 17.1675C32.9319 16.2317 33.1438 15.2127 33.1438 14.1429C33.1438 9.64566 29.4981 6 25.0009 6C22.2307 6 19.7873 7.38605 18.3164 9.49955L23.0551 12.0511Z" fill="#eb5454"/>
<path d="M25.8641 15.653L25.648 16.3734C25.5618 16.6603 25.2981 16.8571 24.9986 16.8571C24.699 16.8571 24.4353 16.6603 24.3492 16.3734L23.7996 14.5413L17.4423 11.1182C17.0674 12.054 16.8555 13.073 16.8555 14.1429C16.8555 18.64 20.5011 22.2857 24.9983 22.2857C27.7685 22.2857 30.2119 20.8997 31.6828 18.7862L25.8641 15.653ZM24.9983 20.9286C24.2499 20.9286 23.6412 20.3197 23.6412 19.5714C23.6412 18.823 24.2499 18.2143 24.9983 18.2143C25.7467 18.2143 26.3555 18.823 26.3555 19.5714C26.3555 20.3197 25.7467 20.9286 24.9983 20.9286Z" fill="#eb5454"/>
</svg>
