<svg width="83" height="70" viewBox="0 0 83 70" fill="none" xmlns="http://www.w3.org/2000/svg">
<rect x="0.5" y="0.5" width="82" height="69" rx="5.5" fill="#0B3AE1" fill-opacity="0.1" stroke="#EFEFEF"/>
<path d="M56.3908 19.7618H55.9527V47.381C55.951 48.5171 55.4989 49.6062 54.6955 50.4096C53.8922 51.213 52.8031 51.665 51.6669 51.6668H27.8192V52.1429C27.8198 52.9005 28.121 53.6269 28.6567 54.1626C29.1924 54.6983 29.9188 54.9995 30.6764 55.0001H56.3908C57.1478 54.9979 57.8733 54.6961 58.4086 54.1608C58.944 53.6255 59.2457 52.9 59.2479 52.1429V22.619C59.2457 21.8619 58.944 21.1365 58.4086 20.6011C57.8733 20.0658 57.1478 19.7641 56.3908 19.7618Z" fill="#0B3AE1"/>
<path d="M30.9525 21.6668V15.0787C30.3493 15.219 29.8084 15.5523 29.4118 16.0279L25.6618 20.5275C25.3346 20.9225 25.1197 21.3983 25.0396 21.9049H30.7144C30.7773 21.9042 30.8374 21.8789 30.8819 21.8344C30.9264 21.7899 30.9518 21.7298 30.9525 21.6668Z" fill="#0B3AE1"/>
<path d="M42.051 31.8678C42.0254 31.5664 41.9055 31.2807 41.7083 31.0513C41.5112 30.8219 41.2467 30.6604 40.9526 30.5898V33.1465C41.2468 33.0757 41.5112 32.914 41.7083 32.6845C41.9055 32.455 42.0254 32.1692 42.051 31.8678Z" fill="#0B3AE1"/>
<path d="M25 47.3811C25.0008 48.1386 25.3021 48.8649 25.8378 49.4005C26.3734 49.9362 27.0996 50.2374 27.8572 50.2383H51.6668C52.4243 50.2374 53.1506 49.9362 53.6862 49.4005C54.2218 48.8649 54.5231 48.1386 54.5239 47.3811V17.8572C54.5231 17.0996 54.2218 16.3734 53.6862 15.8378C53.1506 15.3021 52.4243 15.0008 51.6668 15H32.381V21.6667C32.3805 22.1086 32.2047 22.5322 31.8922 22.8446C31.5798 23.1571 31.1562 23.3328 30.7143 23.3334H25V47.3811ZM40.2382 20C42.1689 20 44.0563 20.5726 45.6616 21.6452C47.267 22.7179 48.5182 24.2425 49.257 26.0262C49.9959 27.81 50.1892 29.7728 49.8125 31.6664C49.4359 33.5601 48.5061 35.2995 47.1409 36.6647C45.7757 38.03 44.0363 38.9597 42.1426 39.3364C40.249 39.713 38.2862 39.5197 36.5024 38.7808C34.7187 38.042 33.1941 36.7908 32.1214 35.1854C31.0487 33.5801 30.4762 31.6927 30.4762 29.762C30.4791 27.1738 31.5085 24.6925 33.3386 22.8624C35.1687 21.0323 37.65 20.0029 40.2382 20ZM30.7143 41.4287H48.8096C48.9991 41.4287 49.1808 41.504 49.3147 41.6379C49.4487 41.7719 49.5239 41.9535 49.5239 42.143C49.5239 42.3324 49.4487 42.5141 49.3147 42.6481C49.1808 42.782 48.9991 42.8573 48.8096 42.8573H30.7143C30.5249 42.8573 30.3432 42.782 30.2092 42.6481C30.0753 42.5141 30 42.3324 30 42.143C30 41.9535 30.0753 41.7719 30.2092 41.6379C30.3432 41.504 30.5249 41.4287 30.7143 41.4287ZM30.7143 44.762H48.8096C48.9991 44.762 49.1808 44.8373 49.3147 44.9713C49.4487 45.1052 49.5239 45.2869 49.5239 45.4763C49.5239 45.6658 49.4487 45.8475 49.3147 45.9814C49.1808 46.1154 48.9991 46.1906 48.8096 46.1906H30.7143C30.5249 46.1906 30.3432 46.1154 30.2092 45.9814C30.0753 45.8475 30 45.6658 30 45.4763C30 45.2869 30.0753 45.1052 30.2092 44.9713C30.3432 44.8373 30.5249 44.762 30.7143 44.762Z" fill="#0B3AE1"/>
<path d="M39.5237 26.3779C39.2295 26.4488 38.9651 26.6104 38.768 26.8399C38.5708 27.0694 38.4509 27.3552 38.4253 27.6567C38.4509 27.958 38.5708 28.2437 38.768 28.4731C38.9651 28.7025 39.2296 28.864 39.5237 28.9346V26.3779Z" fill="#0B3AE1"/>
<path d="M40.238 38.0951C41.8862 38.0951 43.4973 37.6063 44.8678 36.6907C46.2382 35.775 47.3063 34.4735 47.937 32.9508C48.5677 31.428 48.7328 29.7525 48.4112 28.136C48.0897 26.5194 47.296 25.0346 46.1306 23.8691C44.9651 22.7037 43.4803 21.91 41.8637 21.5885C40.2472 21.2669 38.5717 21.432 37.0489 22.0627C35.5262 22.6934 34.2247 23.7615 33.309 25.1319C32.3934 26.5024 31.9046 28.1135 31.9046 29.7617C31.907 31.9711 32.7858 34.0893 34.3481 35.6516C35.9104 37.2139 38.0286 38.0927 40.238 38.0951ZM36.9967 27.6561C37.0353 26.9766 37.3082 26.3316 37.769 25.8307C38.2297 25.3299 38.8498 25.0043 39.5237 24.9093V24.146C39.5237 23.9565 39.5989 23.7748 39.7329 23.6409C39.8669 23.5069 40.0485 23.4317 40.238 23.4317C40.4274 23.4317 40.6091 23.5069 40.7431 23.6409C40.877 23.7748 40.9523 23.9565 40.9523 24.146V24.9093C41.6261 25.0043 42.2462 25.3299 42.707 25.8307C43.1678 26.3315 43.4407 26.9766 43.4793 27.656C43.4793 27.8454 43.404 28.0271 43.27 28.1611C43.1361 28.295 42.9544 28.3703 42.765 28.3703C42.5755 28.3703 42.3938 28.295 42.2599 28.1611C42.1259 28.0271 42.0507 27.8454 42.0507 27.656C42.025 27.3545 41.9051 27.0688 41.708 26.8393C41.5108 26.6098 41.2464 26.4482 40.9523 26.3773V29.1216C41.6261 29.2163 42.2462 29.5418 42.707 30.0424C43.1677 30.5431 43.4407 31.1881 43.4793 31.8674C43.4407 32.5468 43.1678 33.1919 42.707 33.6927C42.2463 34.1935 41.6261 34.5192 40.9523 34.6141V35.3775C40.9523 35.5669 40.877 35.7486 40.7431 35.8826C40.6091 36.0165 40.4274 36.0918 40.238 36.0918C40.0485 36.0918 39.8669 36.0165 39.7329 35.8826C39.5989 35.7486 39.5237 35.5669 39.5237 35.3775V34.6141C38.8498 34.5192 38.2297 34.1935 37.769 33.6927C37.3082 33.1919 37.0353 32.5469 36.9967 31.8674C36.9967 31.678 37.072 31.4963 37.2059 31.3624C37.3399 31.2284 37.5216 31.1532 37.711 31.1532C37.9004 31.1532 38.0821 31.2284 38.2161 31.3624C38.35 31.4963 38.4253 31.678 38.4253 31.8674C38.4509 32.1689 38.5708 32.4547 38.768 32.6842C38.9651 32.9137 39.2295 33.0753 39.5237 33.1461V30.4018C38.8499 30.3071 38.2298 29.9817 37.769 29.481C37.3082 28.9803 37.0353 28.3354 36.9967 27.6561Z" fill="#0B3AE1"/>
</svg>
