<svg width="25" height="20" viewBox="0 0 25 20" fill="none" xmlns="http://www.w3.org/2000/svg">
<path d="M9.08446 1.76414H15.259V2.85028H17.0232V0.705668C17.0232 0.315908 16.7072 0 16.3175 0H8.02595C7.63625 0 7.32031 0.315908 7.32031 0.705668V2.85028H9.08446V1.76414Z" fill="#EB5454"/>
<path d="M15.4834 8.81445H8.85547V13.133H15.4834V8.81445Z" fill="#EB5454"/>
<path d="M22.571 3.51416H1.77028C0.792567 3.51416 0 4.30673 0 5.28444V10.6413H8.19293V8.81402C8.19293 8.4473 8.49006 8.15017 8.85678 8.15017H15.4845C15.8512 8.15017 16.1484 8.4473 16.1484 8.81402V10.6413H24.3413V5.28444C24.3413 4.30673 23.5487 3.51416 22.571 3.51416Z" fill="#EB5454"/>
<path d="M16.1484 13.1325C16.1484 13.4992 15.8512 13.7964 15.4845 13.7964H8.85678C8.49006 13.7964 8.19293 13.4992 8.19293 13.1325V11.3052H0V18.2296C0 19.2072 0.792567 19.9998 1.77028 19.9998H22.571C23.5487 19.9998 24.3413 19.2072 24.3413 18.2296V11.3052H16.1484V13.1325Z" fill="#EB5454"/>
</svg>
