<svg width="24" height="24" viewBox="0 0 24 24" fill="none" xmlns="http://www.w3.org/2000/svg">
<mask id="mask0_866_3154" style="mask-type:luminance" maskUnits="userSpaceOnUse" x="1" y="1" width="23" height="22">
<path d="M12.0003 22C13.3137 22.0017 14.6146 21.7438 15.8281 21.2412C17.0415 20.7385 18.1437 20.001 19.0713 19.071C20.0012 18.1435 20.7388 17.0413 21.2414 15.8278C21.7441 14.6143 22.002 13.3135 22.0003 12C22.0019 10.6865 21.744 9.3857 21.2414 8.17222C20.7387 6.95875 20.0012 5.85656 19.0713 4.92901C18.1437 3.99902 17.0415 3.26151 15.8281 2.75885C14.6146 2.25619 13.3137 1.99831 12.0003 2.00001C10.6868 1.99833 9.38594 2.25623 8.17247 2.75889C6.95899 3.26154 5.85681 3.99904 4.92925 4.92901C3.99929 5.85656 3.26179 6.95875 2.75913 8.17222C2.25648 9.3857 1.99858 10.6865 2.00025 12C1.99855 13.3135 2.25644 14.6143 2.7591 15.8278C3.26175 17.0413 3.99927 18.1435 4.92925 19.071C5.85681 20.001 6.95899 20.7385 8.17247 21.2411C9.38594 21.7438 10.6868 22.0017 12.0003 22Z" fill="white" stroke="white" stroke-width="2" stroke-linejoin="round"/>
<path d="M8.00024 12L11.0002 15L17.0002 9" stroke="black" stroke-width="2" stroke-linecap="round" stroke-linejoin="round"/>
</mask>
<g mask="url(#mask0_866_3154)">
<path d="M0 0H24V24H0V0Z" fill="#0F2138"/>
</g>
</svg>
