<svg width="83" height="70" viewBox="0 0 83 70" fill="none" xmlns="http://www.w3.org/2000/svg">
<rect x="0.5" y="0.5" width="82" height="69" rx="5.5" fill="#4CAB01" fill-opacity="0.1" stroke="#EFEFEF"/>
<path d="M43.342 17.241H39.589C39.2325 17.241 38.944 16.952 38.944 16.596C38.944 15.716 38.227 15 37.3455 15C36.464 15 35.7495 15.716 35.7495 16.596C35.7495 16.9525 35.4605 17.241 35.1045 17.241H31.349V20.436H43.3425L43.342 17.241ZM37.3555 17.241H37.3355C36.979 17.241 36.6905 16.952 36.6905 16.596C36.6905 16.24 36.9795 15.951 37.3355 15.951H37.3555C37.712 15.951 38.0005 16.24 38.0005 16.596C38.0005 16.952 37.7115 17.241 37.3555 17.241ZM50.6815 19.522H44.6325V18.155H52.126C52.439 18.155 52.6935 18.4095 52.6935 18.7225V35.2575C52.2465 35.181 51.7905 35.1325 51.3265 35.1135V20.167C51.3265 19.8105 51.0375 19.522 50.6815 19.522ZM50.8955 36.3945C46.0615 36.3945 42.0775 40.1 41.6335 44.82C41.6335 44.823 41.6335 44.826 41.6325 44.829C41.606 45.1155 41.5915 45.4055 41.5915 45.6985C41.5915 50.8275 45.765 55 50.8955 55C56.026 55 60.197 50.8275 60.197 45.6985C60.197 40.5695 56.0245 36.3945 50.8955 36.3945ZM57.128 43.917L50.785 50.225C50.4095 50.6 49.9135 50.7885 49.417 50.7885C48.929 50.7885 48.4405 50.6065 48.0665 50.242L44.6765 46.919C44.306 46.5585 44.098 46.075 44.091 45.558C44.084 45.04 44.2795 44.5505 44.641 44.1795C45.001 43.8085 45.485 43.6 46.0025 43.5935C46.011 43.5935 46.02 43.5935 46.0285 43.5935C46.5355 43.5935 47.0145 43.788 47.38 44.1425L49.4055 46.1335L54.3945 41.1695C55.152 40.416 56.381 40.4195 57.135 41.1765C57.8885 41.934 57.8855 43.163 57.128 43.917ZM56.2205 42.0865C56.472 42.3395 56.471 42.75 56.218 43.002L49.874 49.3115C49.6255 49.56 49.219 49.563 48.969 49.3195L45.5795 45.9975C45.5795 45.9975 45.578 45.996 45.5775 45.9955C45.4535 45.875 45.384 45.7135 45.3815 45.541C45.379 45.368 45.4445 45.205 45.566 45.08C45.6865 44.956 45.8475 44.8865 46.02 44.884C46.023 44.884 46.026 44.884 46.0285 44.884C46.198 44.884 46.3585 44.9495 46.4785 45.066L48.9565 47.5015C49.2085 47.7495 49.613 47.748 49.864 47.4985L55.3055 42.0845C55.5585 41.833 55.969 41.834 56.221 42.087L56.2205 42.0865ZM43.8855 53.6325C44.479 54.157 45.131 54.617 45.8315 54.9995H22.5675C22.2545 54.9995 22 54.745 22 54.432V18.7225C22 18.4095 22.2545 18.155 22.5675 18.155H30.0585V19.522H24.012C23.6555 19.522 23.367 19.811 23.367 20.167V52.9875C23.367 53.344 23.656 53.6325 24.012 53.6325H43.8855ZM24.6565 49.756L27.2425 52.3425H24.6565V49.756ZM28.155 51.43L25.569 48.8435H28.155V51.43ZM28.6035 35.513H30.735V37.642H28.6035V35.513ZM30.735 30.883H28.6035V28.7515H30.735V30.883ZM28.6035 42.272H30.735V44.4035H28.6035V42.272ZM30.0575 20.8125H24.656V47.554H28.8C29.1565 47.554 29.445 47.843 29.445 48.199V52.343H42.6505C41.1815 50.5245 40.3 48.213 40.3 45.699C40.3 45.601 40.3015 45.503 40.3045 45.4055H34.513C34.1565 45.4055 33.868 45.1165 33.868 44.7605C33.868 44.4045 34.157 44.1155 34.513 44.1155H40.419C40.499 43.5845 40.618 43.0665 40.774 42.5645H34.513C34.1565 42.5645 33.868 42.2755 33.868 41.9195C33.868 41.5635 34.157 41.2745 34.513 41.2745H41.0575C41.1265 41.2745 41.193 41.2855 41.2555 41.3055C41.702 40.3305 42.292 39.4345 42.9985 38.6445H34.513C34.1565 38.6445 33.868 38.3555 33.868 37.9995C33.868 37.6435 34.157 37.3545 34.513 37.3545H44.3755C45.9625 36.112 47.9115 35.312 50.035 35.1405V20.8135H44.631V21.0825C44.631 21.439 44.342 21.7275 43.986 21.7275H30.7025C30.346 21.7275 30.0575 21.4385 30.0575 21.0825V20.8135V20.8125ZM34.513 27.7505H41.0575C41.414 27.7505 41.7025 28.0395 41.7025 28.3955C41.7025 28.7515 41.4135 29.0405 41.0575 29.0405H34.513C34.1565 29.0405 33.868 28.7515 33.868 28.3955C33.868 28.0395 34.157 27.7505 34.513 27.7505ZM34.513 30.5945H46.733C47.0895 30.5945 47.378 30.8835 47.378 31.2395C47.378 31.5955 47.089 31.8845 46.733 31.8845H34.513C34.1565 31.8845 33.868 31.5955 33.868 31.2395C33.868 30.8835 34.157 30.5945 34.513 30.5945ZM34.513 34.512H41.0575C41.414 34.512 41.7025 34.801 41.7025 35.157C41.7025 35.513 41.4135 35.802 41.0575 35.802H34.513C34.1565 35.802 33.868 35.513 33.868 35.157C33.868 34.801 34.157 34.512 34.513 34.512ZM32.0255 45.049C32.0255 45.4055 31.7365 45.694 31.3805 45.694H27.9585C27.602 45.694 27.3135 45.405 27.3135 45.049V41.6275C27.3135 41.271 27.6025 40.9825 27.9585 40.9825H31.3805C31.737 40.9825 32.0255 41.2715 32.0255 41.6275V45.049ZM32.0255 38.2875C32.0255 38.644 31.7365 38.9325 31.3805 38.9325H27.9585C27.602 38.9325 27.3135 38.6435 27.3135 38.2875V34.868C27.3135 34.5115 27.6025 34.223 27.9585 34.223H31.3805C31.737 34.223 32.0255 34.512 32.0255 34.868V38.2875ZM31.3805 27.4615C31.737 27.4615 32.0255 27.7505 32.0255 28.1065V31.528C32.0255 31.8845 31.7365 32.173 31.3805 32.173H27.9585C27.602 32.173 27.3135 31.884 27.3135 31.528V28.1065C27.3135 27.75 27.6025 27.4615 27.9585 27.4615H31.3805Z" fill="#4CAB01"/>
</svg>
