<svg width="83" height="70" viewBox="0 0 83 70" fill="none" xmlns="http://www.w3.org/2000/svg">
<rect x="0.5" y="0.5" width="82" height="69" rx="5.5" fill="#eb5454" fill-opacity="0.1" stroke="#EFEFEF"/>
<path d="M24 31.9365V49.3117L34.1608 39.7524L24 31.9365Z" fill="#eb5454"/>
<path d="M41.3443 30.8761C43.5045 30.8761 45.2557 29.1278 45.2557 26.9713C45.2557 24.8147 43.5045 23.0664 41.3443 23.0664C39.1841 23.0664 37.4329 24.8147 37.4329 26.9713C37.4329 29.1278 39.1841 30.8761 41.3443 30.8761Z" fill="#eb5454"/>
<path d="M35.2331 28.278C35.3936 29.0202 35.6918 29.7258 36.1122 30.3581C36.1773 30.456 36.2092 30.5724 36.203 30.6898C36.1968 30.8072 36.1529 30.9195 36.0778 31.0101L35.2164 32.0491L36.2699 33.1009L37.3096 32.2397C37.3992 32.1658 37.5099 32.1224 37.6258 32.1156C37.7417 32.1089 37.8568 32.1392 37.9543 32.2022C38.5913 32.6203 39.2989 32.9194 40.0427 33.085C40.1567 33.1107 40.2598 33.1718 40.3371 33.2596C40.4143 33.3473 40.4619 33.4573 40.473 33.5737L40.6038 34.9375H42.1026L42.2334 33.5739C42.2443 33.4568 42.2917 33.3461 42.3687 33.2574C42.4458 33.1686 42.5488 33.1062 42.6631 33.0789C43.4061 32.9198 44.1127 32.6228 44.7461 32.2031C44.844 32.1383 44.9601 32.1068 45.0773 32.1131C45.1945 32.1194 45.3066 32.1633 45.397 32.2382L46.4369 33.1002L47.4909 32.0488L46.6302 31.0098C46.556 30.9198 46.5125 30.8084 46.506 30.6918C46.4996 30.5753 46.5306 30.4598 46.5945 30.3622C47.0127 29.7255 47.3127 29.0186 47.4802 28.2755C47.5065 28.1626 47.5677 28.0607 47.655 27.9844C47.7424 27.908 47.8515 27.861 47.967 27.8499L49.3125 27.7196V26.2241L47.9461 26.0931C47.8293 26.0823 47.7189 26.0353 47.6303 25.9585C47.5417 25.8818 47.4793 25.7792 47.452 25.6652C47.2914 24.923 46.9933 24.2175 46.5728 23.5852C46.5077 23.4872 46.4758 23.3709 46.482 23.2534C46.4882 23.136 46.5321 23.0237 46.6072 22.9331L47.4706 21.8916L46.4341 20.8437L45.3968 21.7031C45.3072 21.7769 45.1964 21.8203 45.0805 21.827C44.9646 21.8337 44.8496 21.8033 44.7521 21.7402C44.1152 21.3219 43.4078 21.0225 42.6641 20.8566C42.5499 20.8306 42.4468 20.7692 42.3695 20.6812C42.2923 20.5932 42.2447 20.483 42.2337 20.3664L42.1026 19H40.6038L40.473 20.3664C40.4622 20.4838 40.415 20.595 40.3379 20.6842C40.2609 20.7735 40.1579 20.8365 40.0433 20.8643C39.3002 21.0234 38.5936 21.3205 37.9601 21.7402C37.8622 21.805 37.7461 21.8366 37.6289 21.8303C37.5116 21.8239 37.3996 21.7801 37.3092 21.7052L36.2695 20.8431L35.2158 21.8945L36.0764 22.9336C36.1507 23.0236 36.1942 23.135 36.2006 23.2515C36.2071 23.368 36.1761 23.4835 36.1122 23.5811C35.6941 24.2177 35.3942 24.9246 35.227 25.6677C35.2008 25.7807 35.1396 25.8826 35.0523 25.959C34.9649 26.0354 34.8558 26.0824 34.7402 26.0934L33.375 26.2241V27.7188L34.7402 27.8498C34.8569 27.8606 34.9672 27.9078 35.0556 27.9846C35.144 28.0614 35.2061 28.1641 35.2331 28.278ZM41.3443 21.9734C42.3327 21.9747 43.2985 22.2689 44.1196 22.819C44.9408 23.369 45.5805 24.1502 45.9578 25.0637C46.3351 25.9772 46.4332 26.9821 46.2396 27.9513C46.0459 28.9205 45.5693 29.8105 44.87 30.509C44.1706 31.2074 43.2799 31.6828 42.3105 31.8751C41.341 32.0675 40.3363 31.9681 39.4233 31.5895C38.5103 31.211 37.73 30.5703 37.181 29.7484C36.632 28.9265 36.339 27.9603 36.3391 26.972C36.3414 25.6458 36.8697 24.3747 37.808 23.4376C38.7464 22.5004 40.0181 21.9737 41.3443 21.973V21.9734Z" fill="#eb5454"/>
<path d="M44.2385 43.2905C43.4566 43.9019 42.4928 44.2345 41.5002 44.2352C40.5076 44.236 39.5433 43.9048 38.7605 43.2945L35.0395 40.4362L24.2891 50.5582C24.5054 50.9801 24.8331 51.3347 25.2368 51.5834C25.6404 51.8322 26.1045 51.9655 26.5786 51.9691H56.1089C56.5837 51.9655 57.0485 51.8318 57.4525 51.5824C57.8565 51.3329 58.1844 50.9774 58.4003 50.5545L47.94 40.3848L44.2385 43.2905Z" fill="#eb5454"/>
<path d="M58.6875 49.2924V31.9492L48.8087 39.7029L58.6875 49.2924Z" fill="#eb5454"/>
<path d="M56.1089 27.5156H50.4062V28.2156C50.4035 28.3527 50.3504 28.484 50.257 28.5843C50.1636 28.6847 50.0366 28.7472 49.9001 28.7599L48.4441 28.9012C48.2758 29.5001 48.0327 30.0753 47.7205 30.6134L48.6502 31.7348C48.7373 31.8397 48.782 31.9734 48.7756 32.1097C48.7692 32.2459 48.7121 32.3748 48.6155 32.4711L46.8568 34.2266C46.7605 34.3228 46.6318 34.3797 46.4959 34.3861C46.3599 34.3926 46.2264 34.348 46.1215 34.2612L45.0018 33.3345C44.4634 33.6498 43.8862 33.8933 43.2847 34.059L43.1434 35.5238C43.1308 35.6605 43.0684 35.7878 42.968 35.8814C42.8676 35.975 42.7362 36.0284 42.599 36.0312H40.1074C39.9702 36.0284 39.8389 35.9751 39.7384 35.8815C39.638 35.7879 39.5756 35.6607 39.563 35.524L39.4219 34.0523C38.8223 33.8845 38.2463 33.6414 37.7077 33.3289L36.5848 34.2598C36.48 34.3466 36.3466 34.3912 36.2106 34.385C36.0746 34.3787 35.9458 34.322 35.8494 34.2259L34.0903 32.4707C33.9936 32.3745 33.9364 32.2457 33.9298 32.1094C33.9232 31.9732 33.9677 31.8394 34.0547 31.7344L34.9811 30.6154C34.6655 30.0781 34.4214 29.5018 34.2551 28.9012L32.7863 28.7598C32.6499 28.7471 32.523 28.6846 32.4299 28.5842C32.3367 28.4838 32.2838 28.3526 32.2812 28.2156V27.5156H26.5786C25.895 27.5163 25.2396 27.7882 24.7562 28.2715C24.2728 28.7548 24.0008 29.4102 24 30.0938V30.5569L39.4297 42.4255C40.0198 42.8873 40.7474 43.1384 41.4967 43.1388C42.246 43.1392 42.9739 42.8888 43.5645 42.4277L58.6875 30.5584V30.0938C58.6867 29.4102 58.4147 28.7548 57.9313 28.2715C57.4479 27.7882 56.7925 27.5163 56.1089 27.5156Z" fill="#eb5454"/>
</svg>
