<svg width="39" height="31" viewBox="0 0 39 31" fill="none" xmlns="http://www.w3.org/2000/svg">
<path d="M18.2034 13.8401L18.9234 11.9201C19.0834 11.5201 18.7634 11.0801 18.3234 11.0801H4.76342C2.60342 11.0801 0.803422 12.7201 0.563422 14.8401L0.00342232 20.0001C-0.0365777 20.5201 0.283422 20.9601 0.803422 21.0801C1.36342 21.2001 2.08342 21.2801 2.88342 21.3601L3.36342 29.5601C3.40342 30.2401 3.96342 30.8001 4.64342 30.8001H8.60342C9.28342 30.8001 9.84342 30.2801 9.88342 29.5601L10.5634 15.4801C10.5634 14.7601 11.1634 14.2001 11.8434 14.2001H17.6034C17.8834 14.2401 18.0834 14.0801 18.2034 13.8401Z" fill="#EB5454"/>
<path d="M6.60345 9.92003C8.98932 9.92003 10.9234 7.9859 10.9234 5.60003C10.9234 3.21416 8.98932 1.28003 6.60345 1.28003C4.21758 1.28003 2.28345 3.21416 2.28345 5.60003C2.28345 7.9859 4.21758 9.92003 6.60345 9.92003Z" fill="#EB5454"/>
<path d="M35.6434 0H17.5234C16.2434 0 15.1634 1.04 15.1634 2.32V9.04H18.2834C19.1634 9.04 19.9634 9.48 20.4834 10.2C21.0034 10.92 21.0834 11.84 20.7634 12.64L20.0434 14.56C19.6434 15.6 18.6434 16.28 17.5634 16.28H15.1234V17.52C15.1234 18.8 16.1634 19.84 17.4834 19.84H25.4034V24.52L21.1634 28.76C20.6834 29.24 20.6834 30 21.1634 30.44C21.6434 30.92 22.4034 30.92 22.8434 30.44L26.6034 26.68L30.3634 30.44C30.6034 30.68 30.8834 30.8 31.2034 30.8C31.5234 30.8 31.8034 30.68 32.0434 30.44C32.5234 29.96 32.5234 29.2 32.0434 28.76L27.8034 24.52V19.84H35.6834C37.0034 19.84 38.0434 18.8 38.0434 17.52V2.32C38.0034 1.04 36.9634 0 35.6434 0ZM32.4834 15.76H24.5234C24.0434 15.76 23.6434 15.36 23.6434 14.88C23.6434 14.4 24.0434 14 24.5234 14H32.4834C32.9634 14 33.3634 14.4 33.3634 14.88C33.3634 15.36 32.9634 15.76 32.4834 15.76ZM32.4834 10.8H24.5234C24.0434 10.8 23.6434 10.4 23.6434 9.92C23.6434 9.44 24.0434 9.04 24.5234 9.04H32.4834C32.9634 9.04 33.3634 9.44 33.3634 9.92C33.3634 10.4 32.9634 10.8 32.4834 10.8ZM32.4834 5.84H20.7234C20.2434 5.84 19.8434 5.44 19.8434 4.96C19.8434 4.48 20.2434 4.08 20.7234 4.08H32.4834C32.9634 4.08 33.3634 4.48 33.3634 4.96C33.3634 5.44 32.9634 5.84 32.4834 5.84Z" fill="#EB5454"/>
</svg>
