<svg width="83" height="70" viewBox="0 0 83 70" fill="none" xmlns="http://www.w3.org/2000/svg">
<rect x="0.5" y="0.5" width="82" height="69" rx="5.5" fill="#F7F9FA" stroke="#F5F4F1"/>
<path d="M41.656 32.1996L34.116 39.7396C33.9519 39.9037 33.8618 40.122 33.8618 40.3534C33.8618 40.5849 33.9519 40.8024 34.116 40.9664C34.4543 41.3034 35.0037 41.3048 35.342 40.9664L42.8816 33.4269C42.6574 33.2494 42.4387 33.0615 42.2312 32.8541C42.0226 32.6455 41.8343 32.4251 41.656 32.1996Z" fill="#EB5454"/>
<path d="M46.4902 22.8575C45.2002 22.8575 43.9403 23.3225 42.9952 24.2675C41.0077 26.2625 41.1352 29.6375 43.2952 31.79C45.4477 33.95 48.8227 34.085 50.8177 32.09C52.8127 30.095 52.6777 26.72 50.5252 24.56C49.3927 23.4276 47.9152 22.8575 46.4902 22.8575ZM48.9578 28.88C48.5902 29.2475 48.1027 29.45 47.5852 29.45C47.0602 29.45 46.5727 29.2475 46.2052 28.88C45.8377 28.5125 45.6352 28.0251 45.6352 27.5C45.6352 26.9825 45.8377 26.495 46.2052 26.1275C46.9403 25.3925 48.2227 25.3925 48.9578 26.1275C49.3252 26.495 49.5277 26.9825 49.5277 27.5C49.5277 28.0251 49.3252 28.5125 48.9578 28.88Z" fill="#EB5454"/>
<path d="M56.69 20.5175C55.1675 20.5175 53.9225 19.28 53.9225 17.75C53.9225 17.3375 53.585 17 53.1725 17H30.275C29.855 17 29.525 17.3375 29.525 17.75C29.525 19.28 28.28 20.5175 26.75 20.5175C26.3375 20.5175 26 20.855 26 21.2675V37.28C26 45.935 40.79 52.655 41.42 52.9325C41.5175 52.9775 41.615 53 41.72 53C41.825 53 41.93 52.9775 42.0275 52.9325C42.6575 52.655 57.44 45.935 57.44 37.28V21.2675C57.44 20.855 57.11 20.5175 56.69 20.5175ZM51.875 33.1475C50.645 34.385 49.0025 35 47.3225 35C46.2575 35 45.1775 34.745 44.18 34.25L36.4025 42.0275C35.9375 42.485 35.3375 42.7175 34.73 42.7175C34.1225 42.7175 33.515 42.485 33.0575 42.0275C32.6075 41.5775 32.36 40.985 32.36 40.355C32.36 39.7175 32.6075 39.125 33.0575 38.6825L33.3725 38.36L32.735 37.715C32.4425 37.4225 32.4425 36.95 32.735 36.6575C33.0275 36.365 33.5 36.365 33.7925 36.6575L34.4375 37.295L35.2475 36.4925L34.6025 35.8475C34.31 35.555 34.31 35.0825 34.6025 34.79C34.895 34.4975 35.375 34.4975 35.6675 34.79L36.305 35.4275L40.835 30.8975C39.5675 28.3325 39.9125 25.235 41.9375 23.21C44.5175 20.63 48.845 20.765 51.5825 23.5025C54.3275 26.24 54.455 30.5675 51.875 33.1475Z" fill="#EB5454"/>
</svg>
