<svg width="83" height="70" viewBox="0 0 83 70" fill="none" xmlns="http://www.w3.org/2000/svg">
<rect x="0.5" y="0.5" width="82" height="69" rx="5.5" fill="#F7F9FA" stroke="#F5F4F1"/>
<path d="M46.1699 32.958C47.4584 32.958 48.5029 31.9135 48.5029 30.625C48.5029 29.3365 47.4584 28.292 46.1699 28.292C44.8814 28.292 43.8369 29.3365 43.8369 30.625C43.8369 31.9135 44.8814 32.958 46.1699 32.958Z" fill="#EB5454"/>
<path d="M57.8164 22.5C52.4414 23.2085 44.0664 20.75 40.9414 16C36.8164 20.75 30.9414 22.5 24.0664 22.5C23.3579 39.375 28.2749 50.875 40.9414 54.25C53.6914 52 58.4414 38.0415 57.8164 22.5ZM45.4004 37.729C44.5604 37.729 43.7609 37.621 43.0334 37.3135L35.0249 45.125H31.9414V41.625H32.9414V39.625H34.9414V37.125H36.9414V35.125H39.9414L40.1579 34.7835C39.6269 33.88 39.3169 32.7065 39.3169 31.583C39.3169 28.2235 42.0404 25.4995 45.4004 25.4995C48.7599 25.4995 51.4834 28.2545 51.4834 31.614C51.4834 34.9735 48.7599 37.729 45.4004 37.729Z" fill="#EB5454"/>
</svg>
