<svg width="28" height="36" viewBox="0 0 28 36" fill="none" xmlns="http://www.w3.org/2000/svg">
<path d="M19.9511 13.4788H8.0168L13.9844 19.0545L19.9511 13.4788Z" fill="#EB5454"/>
<path d="M7.34375 14.072V21.1657L11.1254 17.6055L7.34375 14.072Z" fill="#EB5454"/>
<path d="M14.3047 20.0075C14.2179 20.0887 14.1035 20.1338 13.9846 20.1338C13.8658 20.1338 13.7514 20.0887 13.6646 20.0075L11.78 18.2312L8.01562 21.76H19.9797L16.2646 18.1603L14.3047 20.0075Z" fill="#EB5454"/>
<path d="M20.625 21.142V14.0713L16.9184 17.535L20.625 21.142Z" fill="#EB5454"/>
<path d="M13.9844 28.2131C19.8259 28.2131 24.5781 23.4608 24.5781 17.6194C24.5781 11.778 19.8259 7.02563 13.9844 7.02563C8.14289 7.02563 3.39062 11.7779 3.39062 17.6194C3.39062 23.4609 8.14289 28.2131 13.9844 28.2131ZM6.50523 12.6639C6.54695 12.6147 6.59979 12.5762 6.65938 12.5515C6.68054 12.544 6.70224 12.538 6.7243 12.5338C6.72562 12.5338 6.72688 12.5408 6.7282 12.5405C6.76637 12.5361 6.80493 12.5363 6.84305 12.5412H21.1257C21.1858 12.5361 21.2464 12.5438 21.3033 12.564C21.3634 12.5835 21.418 12.6171 21.4625 12.662C21.5698 12.7769 21.6406 12.9313 21.5625 13.0746V22.26C21.5655 22.3182 21.5562 22.3763 21.5353 22.4307C21.5144 22.4851 21.4823 22.5345 21.4412 22.5757C21.4 22.6169 21.3507 22.649 21.2963 22.67C21.242 22.691 21.1839 22.7004 21.1257 22.6975H6.84305C6.78487 22.7004 6.72674 22.691 6.6724 22.67C6.61807 22.649 6.56873 22.6169 6.52758 22.5757C6.48642 22.5345 6.45436 22.4851 6.43347 22.4307C6.41257 22.3763 6.4033 22.3182 6.40625 22.26V13.0824C6.32812 12.937 6.39602 12.7809 6.50523 12.6639Z" fill="#EB5454"/>
<path d="M0 6.84469V20.0873C0 23.1615 2.07336 27.0727 4.61547 28.806L13.9865 35.1935L23.3543 28.806C25.8964 27.0725 27.9688 23.1615 27.9688 20.0873V6.86445L13.9844 0L0 6.84469ZM25.5156 17.6194C25.5156 23.9778 20.3427 29.1506 13.9844 29.1506C7.62609 29.1506 2.45312 23.9778 2.45312 17.6194C2.45312 11.2609 7.62602 6.08813 13.9844 6.08813C20.3427 6.08813 25.5156 11.2609 25.5156 17.6194Z" fill="#EB5454"/>
</svg>
