<svg width="83" height="70" viewBox="0 0 83 70" fill="none" xmlns="http://www.w3.org/2000/svg">
<rect x="0.5" y="0.5" width="82" height="69" rx="5.5" fill="#F7F9FA" stroke="#F5F4F1"/>
<path d="M47.9511 30.4788H36.0168L41.9844 36.0545L47.9511 30.4788Z" fill="#EB5454"/>
<path d="M35.3438 31.072V38.1657L39.1254 34.6055L35.3438 31.072Z" fill="#EB5454"/>
<path d="M42.3047 37.0075C42.2179 37.0887 42.1035 37.1338 41.9846 37.1338C41.8658 37.1338 41.7514 37.0887 41.6646 37.0075L39.78 35.2312L36.0156 38.76H47.9797L44.2646 35.1603L42.3047 37.0075Z" fill="#EB5454"/>
<path d="M48.625 38.142V31.0713L44.9184 34.535L48.625 38.142Z" fill="#EB5454"/>
<path d="M41.9844 45.2131C47.8259 45.2131 52.5781 40.4608 52.5781 34.6194C52.5781 28.778 47.8259 24.0256 41.9844 24.0256C36.1429 24.0256 31.3906 28.7779 31.3906 34.6194C31.3906 40.4609 36.1429 45.2131 41.9844 45.2131ZM34.5052 29.6639C34.5469 29.6147 34.5998 29.5762 34.6594 29.5515C34.6805 29.544 34.7022 29.538 34.7243 29.5338C34.7256 29.5338 34.7269 29.5408 34.7282 29.5405C34.7664 29.5361 34.8049 29.5363 34.843 29.5412H49.1257C49.1858 29.5361 49.2464 29.5438 49.3033 29.564C49.3634 29.5835 49.418 29.6171 49.4625 29.662C49.5698 29.7769 49.6406 29.9313 49.5625 30.0746V39.26C49.5655 39.3182 49.5562 39.3763 49.5353 39.4307C49.5144 39.4851 49.4823 39.5345 49.4412 39.5757C49.4 39.6169 49.3507 39.649 49.2963 39.67C49.242 39.691 49.1839 39.7004 49.1257 39.6975H34.843C34.7849 39.7004 34.7267 39.691 34.6724 39.67C34.6181 39.649 34.5687 39.6169 34.5276 39.5757C34.4864 39.5345 34.4544 39.4851 34.4335 39.4307C34.4126 39.3763 34.4033 39.3182 34.4062 39.26V30.0824C34.3281 29.937 34.396 29.7809 34.5052 29.6639Z" fill="#EB5454"/>
<path d="M28 23.8447V37.0873C28 40.1615 30.0734 44.0727 32.6155 45.806L41.9865 52.1935L51.3543 45.806C53.8964 44.0725 55.9688 40.1615 55.9688 37.0873V23.8645L41.9844 17L28 23.8447ZM53.5156 34.6194C53.5156 40.9778 48.3427 46.1506 41.9844 46.1506C35.6261 46.1506 30.4531 40.9778 30.4531 34.6194C30.4531 28.2609 35.626 23.0881 41.9844 23.0881C48.3427 23.0881 53.5156 28.2609 53.5156 34.6194Z" fill="#EB5454"/>
</svg>
