<svg width="37" height="32" viewBox="0 0 37 32" fill="none" xmlns="http://www.w3.org/2000/svg">
<path d="M27.3269 18.8341C29.1894 18.8341 31.0101 18.2817 32.5587 17.247C34.1073 16.2122 35.3143 14.7415 36.027 13.0207C36.7398 11.3 36.9262 9.40654 36.5629 7.57982C36.1995 5.7531 35.3026 4.07515 33.9856 2.75816C32.6686 1.44117 30.9907 0.544296 29.1639 0.180944C27.3372 -0.182408 25.4438 0.00408545 23.723 0.716841C22.0023 1.4296 20.5316 2.6366 19.4968 4.18522C18.4621 5.73384 17.9098 7.55453 17.9098 9.41704C17.9126 11.9137 18.9057 14.3074 20.6711 16.0728C22.4365 17.8382 24.8302 18.8313 27.3269 18.8341ZM21.3281 5.19727C21.3299 5.09421 21.3604 4.99369 21.4161 4.90696C21.4718 4.82023 21.5505 4.75071 21.6435 4.70618L27.1562 2.01086C27.231 1.97413 27.3131 1.95503 27.3964 1.95503C27.4796 1.95503 27.5618 1.97413 27.6365 2.01086L33.1373 4.71399C33.2284 4.75937 33.3049 4.8295 33.358 4.91634C33.4111 5.00319 33.4386 5.10323 33.4375 5.205V10.3544C33.4375 11.7606 32.5323 13.4831 31.3698 14.2757L27.8385 16.6881C27.7886 16.7551 27.7238 16.8097 27.6493 16.8475C27.5747 16.8853 27.4924 16.9054 27.4088 16.9061H27.4082C27.3314 16.9055 27.2557 16.8888 27.1858 16.857C27.1159 16.8252 27.0535 16.7791 27.0026 16.7216L23.4114 14.2757C22.2486 13.4831 21.3281 11.7606 21.3281 10.3544V5.19727Z" fill="#EB5454"/>
<path d="M19.5421 22.1175L23.3342 19.1431C21.4076 18.3504 19.7597 17.0037 18.5993 15.2735C17.4389 13.5433 16.8183 11.5076 16.816 9.42434C16.8153 8.6828 16.8942 7.94333 17.0513 7.21864H2.55626C2.21975 7.21773 1.88639 7.28344 1.57541 7.412C1.26442 7.54055 0.981966 7.72941 0.744327 7.96766C0.506689 8.20592 0.31857 8.48886 0.190821 8.80018C0.0630722 9.1115 -0.00177989 9.44502 5.36229e-06 9.78153V10.2446L15.4187 22.1143C16.0065 22.5762 16.7323 22.8274 17.4798 22.828C18.2274 22.8286 18.9535 22.5784 19.5421 22.1175Z" fill="#EB5454"/>
<path d="M24.025 13.3721L26.8552 15.2973L26.8377 3.38037L22.4219 5.53834V10.3544C22.4219 11.4003 23.1599 12.7823 24.025 13.3721Z" fill="#EB5454"/>
<path d="M30.7535 13.3721C31.6187 12.7822 32.3438 11.4003 32.3438 10.3543V5.54558L27.9342 3.37769L27.9509 15.2855L30.7535 13.3721Z" fill="#EB5454"/>
<path d="M25.1024 19.6873L34.6875 28.98V16.9346C32.7344 18.7853 30.1962 19.9278 27.3437 19.9278C26.5902 19.9278 25.8388 19.8471 25.1024 19.6873Z" fill="#EB5454"/>
<path d="M20.2161 22.9764C19.4338 23.5877 18.4695 23.9196 17.4767 23.9192C16.4839 23.9189 15.5198 23.5863 14.738 22.9746L11.0171 20.1084L0.26712 30.2146C0.485227 30.6326 0.814232 30.9823 1.21804 31.2256C1.62185 31.4688 2.08485 31.5962 2.55626 31.5936H32.0866C32.5588 31.5962 33.0226 31.4683 33.4269 31.2243C33.8312 30.9802 34.1603 30.6293 34.378 30.2102L23.917 20.0719L20.2161 22.9764Z" fill="#EB5454"/>
<path d="M0 11.6245V28.9997L10.1607 19.4404L0 11.6245Z" fill="#EB5454"/>
</svg>
