<svg width="50" height="50" viewBox="0 0 50 50" fill="none" xmlns="http://www.w3.org/2000/svg">
<path d="M43.5417 20.5625V12.2917C43.5417 10 41.6667 8.125 39.375 8.125H6.04167C3.75 8.125 1.89583 10 1.89583 12.2917L1.875 37.2917C1.875 39.5833 3.75 41.4583 6.04167 41.4583H31.0417V30.9792C31.0417 25.2292 35.7083 20.5625 41.4583 20.5625H43.5417ZM38.5417 16.9792L24.9167 25.5C23.5625 26.3542 21.8542 26.3542 20.5 25.5L6.875 16.9792C6.6661 16.8619 6.48316 16.7035 6.33727 16.5134C6.19137 16.3234 6.08555 16.1058 6.0262 15.8737C5.96685 15.6416 5.95521 15.3999 5.99199 15.1631C6.02877 14.9264 6.1132 14.6996 6.24017 14.4965C6.36714 14.2933 6.53401 14.118 6.73068 13.9812C6.92735 13.8444 7.14973 13.749 7.38437 13.7006C7.619 13.6523 7.86101 13.652 8.09574 13.6999C8.33047 13.7478 8.55305 13.8428 8.75 13.9792L22.7083 22.7083L36.6667 13.9792C36.9346 13.812 37.2423 13.7195 37.558 13.7112C37.8737 13.703 38.1859 13.7794 38.4621 13.9324C38.7384 14.0854 38.9687 14.3095 39.1292 14.5814C39.2897 14.8534 39.3746 15.1634 39.375 15.4792C39.375 16.0833 39.0625 16.6458 38.5417 16.9792Z" fill="#eb5454"/>
<path d="M45.6237 31.0415V28.9582C45.6237 26.6665 43.7487 24.7915 41.457 24.7915C39.1654 24.7915 37.2904 26.6665 37.2904 28.9582V31.0415C36.1445 31.0415 35.207 31.979 35.207 33.1248V39.3748C35.207 40.5207 36.1445 41.4582 37.2904 41.4582H45.6237C46.7695 41.4582 47.707 40.5207 47.707 39.3748V33.1248C47.707 31.979 46.7695 31.0415 45.6237 31.0415ZM43.5404 31.0415H39.3737V28.9582C39.3737 27.8123 40.3112 26.8748 41.457 26.8748C42.6029 26.8748 43.5404 27.8123 43.5404 28.9582V31.0415Z" fill="#eb5454"/>
</svg>
