<svg width="120" height="100" viewBox="0 0 83 70" fill="none" xmlns="http://www.w3.org/2000/svg">
<!-- <rect x="0.5" y="0.5" width="82" height="69" rx="5.5" fill="#4f93cc" fill-opacity="0.1" stroke="#EFEFEF"/> -->
<path d="M60.5417 30.5625V22.2917C60.5417 20 58.6667 18.125 56.375 18.125H23.0417C20.75 18.125 18.8958 20 18.8958 22.2917L18.875 47.2917C18.875 49.5833 20.75 51.4583 23.0417 51.4583H48.0417V40.9792C48.0417 35.2292 52.7083 30.5625 58.4583 30.5625H60.5417ZM55.5417 26.9792L41.9167 35.5C40.5625 36.3542 38.8542 36.3542 37.5 35.5L23.875 26.9792C23.6661 26.8619 23.4832 26.7035 23.3373 26.5134C23.1914 26.3234 23.0855 26.1058 23.0262 25.8737C22.9669 25.6416 22.9552 25.3999 22.992 25.1631C23.0288 24.9264 23.1132 24.6996 23.2402 24.4965C23.3671 24.2933 23.534 24.118 23.7307 23.9812C23.9274 23.8444 24.1497 23.749 24.3844 23.7006C24.619 23.6523 24.861 23.652 25.0957 23.6999C25.3305 23.7478 25.553 23.8428 25.75 23.9792L39.7083 32.7083L53.6667 23.9792C53.9346 23.812 54.2423 23.7195 54.558 23.7112C54.8737 23.703 55.1859 23.7794 55.4621 23.9324C55.7384 24.0854 55.9687 24.3095 56.1292 24.5814C56.2897 24.8534 56.3746 25.1634 56.375 25.4792C56.375 26.0833 56.0625 26.6458 55.5417 26.9792Z" fill="#eb5454"/>
<path d="M62.6252 41.0416V38.9583C62.6252 36.6666 60.7502 34.7916 58.4585 34.7916C56.1668 34.7916 54.2918 36.6666 54.2918 38.9583V41.0416C53.146 41.0416 52.2085 41.9791 52.2085 43.125V49.375C52.2085 50.5208 53.146 51.4583 54.2918 51.4583H62.6252C63.771 51.4583 64.7085 50.5208 64.7085 49.375V43.125C64.7085 41.9791 63.771 41.0416 62.6252 41.0416ZM60.5418 41.0416H56.3752V38.9583C56.3752 37.8125 57.3127 36.875 58.4585 36.875C59.6043 36.875 60.5418 37.8125 60.5418 38.9583V41.0416Z" fill="#eb5454"/>
</svg>
