<svg width="43" height="34" viewBox="0 0 43 34" fill="none" xmlns="http://www.w3.org/2000/svg">
<path d="M35.3951 18.8602C36.4286 18.6018 37.3587 18.2918 38.2371 17.8267V31.9331C38.2371 32.1398 38.1854 32.3465 38.1337 32.5532L25.4742 21.5988L30.693 17.0517C31.9331 17.8784 33.3283 18.4985 34.8784 18.8602C34.9818 18.8602 35.0334 18.8602 35.1368 18.8602C35.2401 18.8602 35.2918 18.8602 35.3951 18.8602ZM21.1337 25.3191C20.5653 25.8359 19.8419 26.0942 19.1185 26.0942C18.3951 26.0942 17.6717 25.8359 17.1033 25.3191L14.3647 22.9422L1.6535 33.9483C1.80851 34 1.96353 34 2.06687 34H36.1702C36.3252 34 36.4802 34 36.5836 33.9483L23.8723 22.9422L21.1337 25.3191ZM0.103343 10.6444C0.0516716 10.8511 0 11.0578 0 11.2644V31.9331C0 32.1398 0.0516716 32.3465 0.103343 32.5532L12.7629 21.5988L0.103343 10.6444ZM15.9149 21.5988L18.4468 23.769C18.8602 24.1307 19.4286 24.1307 19.7903 23.769L22.3222 21.5988L23.2523 20.8237L29.0912 15.7599C27.2827 14.003 26.0942 11.6778 25.8875 9.19757H2.06687C1.91185 9.19757 1.75684 9.19757 1.6535 9.24924L15.0365 20.8237L15.9149 21.5988ZM35.1368 0C33.4833 1.86018 30.848 3.1003 27.9027 3.30699V8.31915C27.9027 12.2462 30.848 15.7082 35.1368 16.7933C39.4255 15.7082 42.3708 12.2462 42.3708 8.31915V3.30699C39.4255 3.1003 36.7903 1.86018 35.1368 0Z" fill="#EB5454"/>
</svg>
