<svg width="34" height="44" viewBox="0 0 34 44" fill="none" xmlns="http://www.w3.org/2000/svg">
<path d="M29.5 14.6666H27.4166V10.5C27.4166 4.74998 22.75 0.083313 17 0.083313C11.25 0.083313 6.58331 4.74998 6.58331 10.5V14.6666H4.49998C2.20831 14.6666 0.333313 16.5416 0.333313 18.8333V39.6666C0.333313 41.9583 2.20831 43.8333 4.49998 43.8333H29.5C31.7916 43.8333 33.6666 41.9583 33.6666 39.6666V18.8333C33.6666 16.5416 31.7916 14.6666 29.5 14.6666ZM17 33.4166C14.7083 33.4166 12.8333 31.5416 12.8333 29.25C12.8333 26.9583 14.7083 25.0833 17 25.0833C19.2916 25.0833 21.1666 26.9583 21.1666 29.25C21.1666 31.5416 19.2916 33.4166 17 33.4166ZM10.75 14.6666V10.5C10.75 7.04165 13.5416 4.24998 17 4.24998C20.4583 4.24998 23.25 7.04165 23.25 10.5V14.6666H10.75Z" fill="#EB5454"/>
</svg>
