<svg width="70" height="70" viewBox="0 0 70 70" fill="none" xmlns="http://www.w3.org/2000/svg">
<circle cx="35" cy="35" r="35" fill="#EB5454"/>
<g clip-path="url(#clip0_1042_3244)">
<path fill-rule="evenodd" clip-rule="evenodd" d="M46.668 35.4532V42.1041C46.6769 42.8035 46.2548 43.4357 45.6066 43.6953C42.1364 45.1046 38.4435 45.8852 34.7014 46C30.9591 45.8852 27.2665 45.1046 23.7961 43.6953C23.148 43.4357 22.7259 42.8034 22.7347 42.1041V35.4532L33.2462 38.8351C34.191 39.1424 35.2118 39.1424 36.1566 38.8351L46.668 35.4532ZM17.7649 38.2965C17.3163 38.4996 17.0125 38.927 16.9702 39.418C16.9278 39.9071 17.1538 40.3822 17.5618 40.6577C17.1962 40.9138 16.9825 41.3359 16.9878 41.7827V44.7037C16.9878 45.0357 17.2563 45.3059 17.5883 45.3095H19.1442C19.4762 45.3059 19.7464 45.0357 19.7464 44.7037V41.7827C19.7499 41.3377 19.5344 40.9191 19.1707 40.6613C19.5662 40.3787 19.7835 39.9089 19.7411 39.425C19.7005 38.9411 19.4091 38.5137 18.9729 38.3018V32.9932L33.617 37.7136C34.3199 37.9485 35.0829 37.9485 35.7857 37.7136L54.8429 31.5785C55.1538 31.5132 55.3816 31.2483 55.4028 30.9321C55.3816 30.6178 55.152 30.3564 54.8429 30.2946L35.7857 24.1735C35.0811 23.9422 34.3217 23.9422 33.617 24.1735L14.5598 30.3C14.2526 30.3618 14.023 30.6197 14 30.9322C14.023 31.2466 14.2508 31.5079 14.5598 31.5751L17.7652 32.6011L17.7649 38.2965Z" fill="white"/>
</g>
<defs>
<clipPath id="clip0_1042_3244">
<rect width="40" height="40" fill="white" transform="translate(15 15)"/>
</clipPath>
</defs>
</svg>
