<svg width="47" height="34" viewBox="0 0 47 34" fill="none" xmlns="http://www.w3.org/2000/svg">
<path d="M42.5417 12.5625V4.29167C42.5417 2 40.6667 0.125 38.375 0.125H5.04167C2.75 0.125 0.895833 2 0.895833 4.29167L0.875 29.2917C0.875 31.5833 2.75 33.4583 5.04167 33.4583H30.0417V22.9792C30.0417 17.2292 34.7083 12.5625 40.4583 12.5625H42.5417ZM37.5417 8.97917L23.9167 17.5C22.5625 18.3542 20.8542 18.3542 19.5 17.5L5.875 8.97917C5.6661 8.8619 5.48316 8.70346 5.33727 8.51345C5.19137 8.32343 5.08555 8.10579 5.0262 7.87369C4.96685 7.64159 4.95521 7.39986 4.99199 7.16314C5.02877 6.92641 5.1132 6.69961 5.24017 6.49646C5.36714 6.29331 5.53401 6.11803 5.73068 5.98124C5.92735 5.84445 6.14973 5.74898 6.38437 5.70062C6.619 5.65226 6.86101 5.65201 7.09574 5.69989C7.33047 5.74777 7.55305 5.84278 7.75 5.97917L21.7083 14.7083L35.6667 5.97917C35.9346 5.81198 36.2423 5.71947 36.558 5.71125C36.8737 5.70302 37.1859 5.77936 37.4621 5.93237C37.7384 6.08537 37.9687 6.30947 38.1292 6.58145C38.2897 6.85342 38.3746 7.16336 38.375 7.47917C38.375 8.08333 38.0625 8.64583 37.5417 8.97917Z" fill="#EB5454"/>
<path d="M44.625 23.0416V20.9583C44.625 18.6666 42.75 16.7916 40.4583 16.7916C38.1667 16.7916 36.2917 18.6666 36.2917 20.9583V23.0416C35.1458 23.0416 34.2083 23.9791 34.2083 25.125V31.375C34.2083 32.5208 35.1458 33.4583 36.2917 33.4583H44.625C45.7708 33.4583 46.7083 32.5208 46.7083 31.375V25.125C46.7083 23.9791 45.7708 23.0416 44.625 23.0416ZM42.5417 23.0416H38.375V20.9583C38.375 19.8125 39.3125 18.875 40.4583 18.875C41.6042 18.875 42.5417 19.8125 42.5417 20.9583V23.0416Z" fill="#EB5454"/>
</svg>
