<svg width="38" height="38" viewBox="0 0 38 38" fill="none" xmlns="http://www.w3.org/2000/svg">
<path d="M8.10785 3.03382C8.02701 2.79162 7.81826 2.61529 7.56711 2.5767L5.58042 2.27195L4.68581 0.358309C4.46183 -0.119437 3.6812 -0.119437 3.45722 0.358309L2.56261 2.27195L0.575915 2.5767C0.324762 2.61529 0.11602 2.79162 0.0351739 3.03382C-0.0456722 3.27602 0.0152939 3.54284 0.19289 3.72582L1.65011 5.2256L1.30485 7.3515C1.26311 7.609 1.37178 7.86784 1.58384 8.01821C1.79722 8.16859 2.07687 8.18456 2.30284 8.05747L4.07151 7.07603L5.84019 8.05747C5.94224 8.11469 6.05555 8.14264 6.16821 8.14264C6.17749 8.14264 6.1861 8.14264 6.19538 8.14264C6.56979 8.14264 6.87395 7.83789 6.87395 7.46129C6.87395 7.35616 6.8501 7.25701 6.80835 7.16852L6.49292 5.2256L7.95014 3.72582C8.12773 3.54284 8.1887 3.27602 8.10785 3.03382Z" fill="white"/>
<path d="M17.6079 3.03382C17.527 2.79162 17.3183 2.61529 17.0671 2.5767L15.0804 2.27195L14.1858 0.358309C13.9618 -0.119437 13.1812 -0.119437 12.9572 0.358309L12.0626 2.27195L10.0759 2.5767C9.82476 2.61529 9.61602 2.79162 9.53517 3.03382C9.45433 3.27602 9.51529 3.54284 9.69289 3.72582L11.1501 5.2256L10.8049 7.3515C10.7631 7.609 10.8718 7.86784 11.0838 8.01821C11.2972 8.16859 11.5769 8.18456 11.8028 8.05747L13.5715 7.07603L15.3402 8.05747C15.4422 8.11469 15.5556 8.14264 15.6682 8.14264C15.6775 8.14264 15.6861 8.14264 15.6954 8.14264C16.0698 8.14264 16.374 7.83789 16.374 7.46129C16.374 7.35616 16.3501 7.25701 16.3084 7.16852L15.9929 5.2256L17.4501 3.72582C17.6277 3.54284 17.6887 3.27602 17.6079 3.03382Z" fill="white"/>
<path d="M28.4662 3.03382C28.3854 2.79162 28.1767 2.61529 27.9255 2.5767L25.9388 2.27195L25.0442 0.358309C24.8202 -0.119437 24.0396 -0.119437 23.8156 0.358309L22.921 2.27195L20.9343 2.5767C20.6832 2.61529 20.4744 2.79162 20.3936 3.03382C20.3127 3.27602 20.3737 3.54284 20.5513 3.72582L22.0085 5.2256L21.6633 7.3515C21.6215 7.609 21.7302 7.86784 21.9422 8.01821C22.1556 8.16859 22.4353 8.18456 22.6612 8.05747L24.4299 7.07603L26.1986 8.05747C26.3006 8.11469 26.414 8.14264 26.5266 8.14264C26.5359 8.14264 26.5445 8.14264 26.5538 8.14264C26.9282 8.14264 27.2324 7.83789 27.2324 7.46129C27.2324 7.35616 27.2085 7.25701 27.1667 7.16852L26.8513 5.2256L28.3085 3.72582C28.4861 3.54284 28.5471 3.27602 28.4662 3.03382Z" fill="white"/>
<path d="M37.9662 3.03382C37.8854 2.79162 37.6767 2.61529 37.4255 2.5767L35.4388 2.27195L34.5442 0.358309C34.3202 -0.119437 33.5396 -0.119437 33.3156 0.358309L32.421 2.27195L30.4343 2.5767C30.1832 2.61529 29.9744 2.79162 29.8936 3.03382C29.8127 3.27602 29.8737 3.54284 30.0513 3.72582L31.5085 5.2256L31.1633 7.3515C31.1215 7.609 31.2302 7.86784 31.4422 8.01821C31.6556 8.16859 31.9353 8.18456 32.1612 8.05747L33.9299 7.07603L35.6986 8.05747C35.8006 8.11469 35.914 8.14264 36.0266 8.14264C36.0359 8.14264 36.0445 8.14264 36.0538 8.14264C36.4282 8.14264 36.7324 7.83789 36.7324 7.46129C36.7324 7.35616 36.7085 7.25701 36.6667 7.16852L36.3513 5.2256L37.8085 3.72582C37.9861 3.54284 38.0471 3.27602 37.9662 3.03382Z" fill="white"/>
<path d="M19.001 32.5707C17.6103 32.5707 16.2509 32.1777 15.0938 31.4414L4.07227 24.4277V35.285C4.07227 36.784 5.34539 37.9993 6.91583 37.9993H31.0861C32.6565 37.9993 33.9296 36.784 33.9296 35.285V24.4277L22.9081 31.4414C21.7511 32.1777 20.3916 32.5707 19.001 32.5707Z" fill="white"/>
<path d="M4.07227 22.1265C4.07227 22.7176 4.38178 23.2697 4.89708 23.5976L15.0938 30.0864C16.2509 30.8227 17.6103 31.2156 19.001 31.2156C20.3916 31.2156 21.7511 30.8227 22.9081 30.0864L33.1048 23.5976C33.6201 23.2697 33.9296 22.7176 33.9296 22.1265C33.9296 21.15 33.1004 20.3584 32.0774 20.3584H5.92452C4.90155 20.3584 4.07227 21.15 4.07227 22.1265Z" fill="white"/>
<path d="M25.3878 13.9677L19.9592 8.53906C19.4292 8.00912 18.57 8.00912 18.0401 8.53906L12.6115 13.9677C12.2231 14.356 12.1072 14.9392 12.3172 15.4468C12.5273 15.9537 13.0223 16.2844 13.571 16.2844H16.2853V18.9987H21.7139V16.2844H24.4283C24.9769 16.2844 25.472 15.9537 25.682 15.4468C25.8921 14.9392 25.7761 14.356 25.3878 13.9677Z" fill="white"/>
</svg>
