<svg width="83" height="70" viewBox="0 0 83 70" fill="none" xmlns="http://www.w3.org/2000/svg">
<rect x="0.5" y="0.5" width="82" height="69" rx="5.5" fill="#eb5454" fill-opacity="0.1" stroke="#EFEFEF"/>
<path d="M42.8586 18.3558C42.3843 17.8814 41.6159 17.8814 41.1415 18.3558L38.7129 20.7844C38.2386 21.2587 38.2386 22.0271 38.7129 22.5015C39.1872 22.9758 39.9557 22.9758 40.43 22.5015L40.7858 22.1457V31.3574H43.2144V22.1457L43.5701 22.5015C43.8073 22.7386 44.118 22.8572 44.4287 22.8572C44.7394 22.8572 45.0501 22.7386 45.2872 22.5015C45.7616 22.0271 45.7616 21.2587 45.2872 20.7844L42.8586 18.3558Z" fill="#eb5454"/>
<path d="M58.645 24.426L56.2163 21.9974C55.742 21.523 54.9736 21.523 54.4992 21.9974C54.0249 22.4717 54.0249 23.2401 54.4992 23.7145L54.855 24.0702H49.2863C48.6151 24.0702 48.072 24.6133 48.072 25.2845V31.3561H50.5006V26.4988H54.855L54.4992 26.8546C54.0249 27.3289 54.0249 28.0973 54.4992 28.5717C54.7364 28.8089 55.0471 28.9274 55.3578 28.9274C55.6685 28.9274 55.9792 28.8089 56.2163 28.5717L58.645 26.1431C59.1193 25.6687 59.1193 24.9003 58.645 24.426Z" fill="#eb5454"/>
<path d="M34.7144 24.0702H29.1457L29.5015 23.7145C29.9758 23.2401 29.9758 22.4717 29.5015 21.9974C29.0271 21.523 28.2587 21.523 27.7844 21.9974L25.3558 24.426C24.8814 24.9003 24.8814 25.6687 25.3558 26.1431L27.7844 28.5717C28.0215 28.8089 28.3322 28.9274 28.6429 28.9274C28.9536 28.9274 29.2643 28.8089 29.5015 28.5717C29.9758 28.0973 29.9758 27.3289 29.5015 26.8546L29.1457 26.4988H33.5001V31.3561H35.9288V25.2845C35.9288 24.6133 35.385 24.0702 34.7144 24.0702Z" fill="#eb5454"/>
<path d="M42.0006 45.9283C41.2634 45.9283 40.5407 45.708 39.9128 45.2919L26.2147 36.2139V49.5712C26.2147 50.9125 27.2243 51.9998 28.4698 51.9998H55.5315C56.777 51.9998 57.7866 50.9125 57.7866 49.5712V36.2139L44.0885 45.2919C43.4607 45.708 42.7379 45.9283 42.0006 45.9283Z" fill="#eb5454"/>
<path d="M27.6614 32.5723H56.3399C57.1389 32.5723 57.7866 33.2698 57.7866 34.1303C57.7866 34.6713 57.526 35.1736 57.0981 35.4572L44.0885 44.0789C43.4606 44.495 42.7379 44.7153 42.0006 44.7153C41.2634 44.7153 40.5406 44.495 39.9128 44.0789L26.9032 35.4572C26.4753 35.1736 26.2147 34.6713 26.2147 34.1303C26.2147 33.2698 26.8624 32.5723 27.6614 32.5723Z" fill="#eb5454"/>
</svg>
