<svg width="83" height="71" viewBox="0 0 83 71" fill="none" xmlns="http://www.w3.org/2000/svg">
<rect x="0.5" y="1.4375" width="82" height="69" rx="5.5" fill="#F7F9FA" stroke="#EFEFEF"/>
<path d="M42.8589 19.3558C42.3846 18.8814 41.6161 18.8814 41.1418 19.3558L38.7132 21.7844C38.2388 22.2587 38.2388 23.0271 38.7132 23.5015C39.1875 23.9758 39.9559 23.9758 40.4303 23.5015L40.786 23.1457V32.3574H43.2146V23.1457L43.5704 23.5015C43.8076 23.7386 44.1183 23.8572 44.429 23.8572C44.7396 23.8572 45.0503 23.7386 45.2875 23.5015C45.7618 23.0271 45.7618 22.2587 45.2875 21.7844L42.8589 19.3558Z" fill="#EB5454"/>
<path d="M58.6453 25.426L56.2167 22.9974C55.7423 22.523 54.9739 22.523 54.4995 22.9974C54.0252 23.4717 54.0252 24.2401 54.4995 24.7145L54.8553 25.0702H49.2866C48.6154 25.0702 48.0723 25.6133 48.0723 26.2845V32.3561H50.5009V27.4988H54.8553L54.4995 27.8546C54.0252 28.3289 54.0252 29.0973 54.4995 29.5717C54.7367 29.8089 55.0474 29.9274 55.3581 29.9274C55.6688 29.9274 55.9795 29.8089 56.2167 29.5717L58.6453 27.1431C59.1196 26.6687 59.1196 25.9003 58.6453 25.426Z" fill="#EB5454"/>
<path d="M34.7144 25.0702H29.1457L29.5015 24.7145C29.9758 24.2401 29.9758 23.4717 29.5015 22.9974C29.0271 22.523 28.2587 22.523 27.7844 22.9974L25.3558 25.426C24.8814 25.9003 24.8814 26.6687 25.3558 27.1431L27.7844 29.5717C28.0215 29.8089 28.3322 29.9274 28.6429 29.9274C28.9536 29.9274 29.2643 29.8089 29.5015 29.5717C29.9758 29.0973 29.9758 28.3289 29.5015 27.8546L29.1457 27.4988H33.5001V32.3561H35.9288V26.2845C35.9288 25.6133 35.385 25.0702 34.7144 25.0702Z" fill="#EB5454"/>
<path d="M42.0008 46.9283C41.2636 46.9283 40.5408 46.708 39.913 46.2919L26.2148 37.2139V50.5712C26.2148 51.9125 27.2245 52.9998 28.47 52.9998H55.5317C56.7771 52.9998 57.7868 51.9125 57.7868 50.5712V37.2139L44.0887 46.2919C43.4609 46.708 42.7381 46.9283 42.0008 46.9283Z" fill="#EB5454"/>
<path d="M27.6616 33.5723H56.3401C57.1391 33.5723 57.7868 34.2698 57.7868 35.1303C57.7868 35.6713 57.5262 36.1736 57.0983 36.4572L44.0887 45.0789C43.4608 45.495 42.7381 45.7153 42.0008 45.7153C41.2636 45.7153 40.5408 45.495 39.913 45.0789L26.9033 36.4572C26.4755 36.1736 26.2148 35.6713 26.2148 35.1303C26.2148 34.2698 26.8626 33.5723 27.6616 33.5723Z" fill="#EB5454"/>
</svg>
