<svg width="38" height="37" viewBox="0 0 38 37" fill="none" xmlns="http://www.w3.org/2000/svg">
<path fill-rule="evenodd" clip-rule="evenodd" d="M7.71833 29.3879C7.6825 29.3521 7.63333 29.33 7.57833 29.33C7.52375 29.33 7.47417 29.3521 7.43875 29.3879C7.40292 29.4237 7.38083 29.4733 7.38083 29.5279C7.38083 29.5825 7.40292 29.6321 7.43875 29.6675C7.47417 29.7033 7.52375 29.7254 7.57833 29.7254C7.63333 29.7254 7.6825 29.7033 7.71833 29.6675C7.75417 29.6321 7.77625 29.5825 7.77625 29.5279C7.77625 29.4733 7.75417 29.4233 7.71833 29.3879ZM37.56 19.7021H33.5633V21.6179V32.5046H37.56V19.7021ZM35.7017 30.7113C35.7375 30.7467 35.7596 30.7967 35.7596 30.8508C35.7596 30.9054 35.7375 30.955 35.7017 30.9904C35.6658 31.0262 35.6162 31.0483 35.5617 31.0483C35.5071 31.0483 35.4575 31.0262 35.4217 30.9904C35.3858 30.955 35.3638 30.9054 35.3638 30.8508C35.3638 30.7962 35.3858 30.7467 35.4217 30.7113C35.4575 30.6754 35.5071 30.6533 35.5617 30.6533C35.6162 30.6533 35.6658 30.6754 35.7017 30.7113ZM35.5617 29.8708C35.8321 29.8708 36.0771 29.9804 36.2546 30.1579C36.4321 30.3354 36.5417 30.5804 36.5417 30.8508C36.5417 31.1212 36.4317 31.3667 36.2546 31.5442C36.0775 31.7217 35.8321 31.8312 35.5617 31.8312C35.2912 31.8312 35.0462 31.7217 34.8687 31.5442C34.6912 31.3667 34.5817 31.1217 34.5817 30.8508C34.5817 30.58 34.6917 30.3354 34.8687 30.1579C35.0458 29.9804 35.2912 29.8708 35.5617 29.8708ZM28.8221 12.2225C28.6692 12.07 28.6692 11.8221 28.8221 11.6692C28.9746 11.5167 29.2225 11.5167 29.375 11.6692L30.8867 13.1808C31.0396 13.3333 31.0396 13.5813 30.8867 13.7342L29.375 15.2458C29.2225 15.3987 28.9746 15.3987 28.8221 15.2458C28.6692 15.0929 28.6692 14.8454 28.8221 14.6925L29.6654 13.8487H23.4708C23.2546 13.8487 23.0796 13.6733 23.0796 13.4575V5.085L22.2362 5.92833C22.0833 6.08125 21.8358 6.08125 21.6829 5.92833C21.5304 5.77583 21.5304 5.52792 21.6829 5.375L23.1921 3.86542C23.2021 3.85542 23.2129 3.84583 23.2242 3.83667L23.2321 3.83083C23.2371 3.82708 23.2412 3.82375 23.2467 3.82042L23.25 3.81833L23.255 3.815L23.2571 3.81375L23.2633 3.81L23.2658 3.80875L23.2717 3.80542L23.2742 3.80417L23.2804 3.80042L23.2825 3.79958L23.2887 3.79625L23.2912 3.795C23.3454 3.76667 23.4067 3.75083 23.4725 3.75083C23.5375 3.75083 23.5996 3.76708 23.6537 3.795L23.6558 3.79625L23.6621 3.79958L23.6642 3.80042L23.6704 3.80417L23.6729 3.80542L23.6787 3.80875L23.6812 3.81L23.6875 3.81375L23.6896 3.815L23.6946 3.81833L23.6983 3.82042C23.7033 3.82375 23.7075 3.8275 23.7125 3.83083L23.7204 3.83667C23.7317 3.84583 23.7425 3.85542 23.7525 3.86542L25.2617 5.375C25.4146 5.52792 25.4146 5.77542 25.2617 5.92833C25.1092 6.08125 24.8612 6.08125 24.7087 5.92833L23.865 5.085V13.0662H29.6688L28.8221 12.2225ZM13.0529 19.4267L13.1571 18.9979C13.2071 18.7908 13.0813 18.5813 12.8746 18.5287L10.7875 17.9912C10.5425 17.3054 10.3512 16.5946 10.2196 15.8638C10.1021 15.2117 10.0321 14.5387 10.0125 13.8492H12.0908C12.3071 13.8492 12.4817 13.6737 12.4817 13.4579C12.4817 13.2417 12.3067 13.0667 12.0908 13.0667H10.0129C10.1146 9.50458 11.6 6.28833 13.9504 3.9375C16.3012 1.58708 19.5167 0.101667 23.0792 0V2.13833C23.0792 2.35458 23.2546 2.52958 23.4704 2.52958C23.6862 2.52958 23.8612 2.35458 23.8612 2.13833V0C27.4237 0.101667 30.64 1.58708 32.9904 3.9375C35.3413 6.28833 36.8262 9.50417 36.9279 13.0667H34.85C34.6333 13.0667 34.4587 13.2421 34.4587 13.4579C34.4587 13.6737 34.6337 13.8492 34.85 13.8492H36.9279C36.9033 14.7183 36.7975 15.5633 36.6179 16.3767C36.4225 17.26 36.1404 18.1108 35.7812 18.9196H33.1712C32.955 18.9196 32.7804 19.0946 32.7804 19.3108V20.0792C32.7504 20.0625 32.7196 20.0475 32.6879 20.0338C32.5833 19.9879 32.4708 19.9567 32.3521 19.9429C30.4862 19.7262 28.7758 19.1537 27.1571 18.6125C23.7429 17.4704 20.7212 16.4596 17.3604 18.9425C16.8358 19.33 16.4462 19.6246 16.0588 19.9171L16.0004 19.9613C15.5275 19.7971 14.9917 19.6637 14.4358 19.57C13.9829 19.4937 13.5138 19.4442 13.0529 19.4267ZM10.3108 30.6729C10.3637 31.1146 11.4904 31.2804 12.1075 31.3708L12.2437 31.3908C12.4587 31.4233 12.6296 31.4783 12.7908 31.5621C12.9446 31.6412 13.0775 31.7404 13.2283 31.8675C14.5096 32.9479 15.6921 33.8708 16.8233 34.6542C17.9487 35.4333 19.03 36.0783 20.1158 36.6087C20.2446 36.6712 20.3654 36.7096 20.4779 36.7262C20.6858 36.7571 20.8712 36.715 21.0258 36.6196C21.1917 36.5171 21.3304 36.3508 21.4321 36.1437C21.4754 36.055 21.5112 35.9596 21.5396 35.8587L20.3008 34.9863C20.1242 34.8625 20.0821 34.6188 20.2058 34.4421C20.3296 34.2654 20.5737 34.2233 20.75 34.3471L22.1854 35.3583C22.2075 35.3725 22.2279 35.3883 22.2462 35.4062C22.7096 35.7896 23.1662 36.0662 23.5687 36.1937C23.8154 36.2721 24.0308 36.2904 24.1996 36.2358C24.3462 36.1888 24.4696 36.0746 24.56 35.8821C24.645 35.7012 24.7012 35.4596 24.7229 35.1496L22.3354 33.4588C22.1596 33.3346 22.1183 33.0917 22.2421 32.9162C22.3658 32.7408 22.6087 32.6992 22.7846 32.8233L25.3287 34.6246C25.3475 34.6367 25.3658 34.6504 25.3821 34.665L25.3829 34.6646C25.7292 34.9767 26.0862 35.1879 26.4192 35.285C26.6758 35.36 26.9146 35.3658 27.1146 35.2946C27.3012 35.2279 27.4633 35.0863 27.5817 34.8617C27.6908 34.6558 27.7654 34.385 27.7946 34.0442L25.5408 32.095C25.3779 31.9542 25.36 31.7075 25.5008 31.5446C25.6421 31.3817 25.8883 31.3637 26.0508 31.505L28.405 33.5412C28.8737 33.7371 29.3017 33.8304 29.6637 33.8171C29.8979 33.8083 30.1004 33.7533 30.2629 33.6508C30.4187 33.5525 30.5433 33.4054 30.6287 33.2079L30.6275 33.2075C30.7171 32.9996 30.7662 32.7388 30.7675 32.4221C29.5083 31.0254 28.2212 29.4229 26.9329 27.8187C25.3363 25.8308 23.7375 23.84 22.1954 22.2496C21.5021 21.5346 20.7217 22.0904 19.7012 22.8175C18.52 23.6592 17.0704 24.6921 15.0183 24.6058C14.5196 24.5917 13.9642 24.4625 13.5588 24.2146C13.2933 24.0521 13.0837 23.8371 12.975 23.5658C12.8617 23.2842 12.8608 22.9613 13.0221 22.6012C13.2021 22.1992 13.6008 21.7387 14.3062 21.225C14.6275 20.9908 14.9329 20.7646 15.2308 20.5413C14.9375 20.4617 14.6267 20.3937 14.3083 20.3404C13.8308 20.26 13.3383 20.2108 12.8633 20.2008L10.3108 30.6729ZM9.53083 30.5792L9.22708 31.8246L5.14542 30.7733L8.22708 18.1362L10.3829 18.6917C10.3912 18.6938 10.3996 18.6962 10.4079 18.6979L12.3092 19.1875L9.54708 30.5162C9.53917 30.5367 9.53417 30.5571 9.53083 30.5792ZM32.7812 21.6179C32.7812 21.4492 32.7508 21.2762 32.6904 21.125C32.64 20.9983 32.57 20.8883 32.4821 20.8142C32.4508 20.7879 32.4158 20.7658 32.3771 20.7488C32.3438 20.7337 32.3058 20.7238 32.2642 20.7192C30.3229 20.4933 28.5696 19.9067 26.9104 19.3521C23.7004 18.2783 20.8596 17.3279 17.8258 19.5688C17.3937 19.8883 16.9608 20.2154 16.5304 20.5404L16.3129 20.705C16.3062 20.7104 16.2996 20.7154 16.2925 20.7208C15.8529 21.0521 15.3908 21.3988 14.765 21.8546C14.18 22.2804 13.8625 22.6329 13.7342 22.9192C13.6679 23.0667 13.6625 23.1846 13.6992 23.2758C13.7404 23.3779 13.8367 23.4696 13.9658 23.5483C14.2537 23.7246 14.6658 23.8167 15.0429 23.8267H15.0492C16.8354 23.9013 18.1654 22.9537 19.2496 22.1817C20.5787 21.2346 21.5962 20.51 22.7554 21.7054C24.325 23.3242 25.9346 25.3283 27.5417 27.3296C28.8104 28.9096 30.0775 30.4879 31.3188 31.8667C31.6208 31.8254 31.9554 31.6658 32.2337 31.43C32.5363 31.1737 32.7604 30.8337 32.7808 30.4712L32.7812 21.6179ZM7.57833 28.5475C7.84875 28.5475 8.09375 28.6575 8.27167 28.8346C8.44875 29.0117 8.55833 29.2571 8.55833 29.5275C8.55833 29.7979 8.44833 30.0429 8.27167 30.2204C8.09375 30.3979 7.84875 30.5075 7.57833 30.5075C7.30792 30.5075 7.06292 30.3975 6.88542 30.2204C6.70792 30.0433 6.59833 29.7979 6.59833 29.5275C6.59833 29.2571 6.70833 29.0117 6.88542 28.8342C7.06292 28.6571 7.30792 28.5475 7.57833 28.5475ZM11.5204 2.6125H5.33125C5.115 2.6125 4.94 2.7875 4.94 3.00375C4.94 3.22 5.11542 3.395 5.33125 3.395H11.5204C11.7367 3.395 11.9113 3.22 11.9113 3.00375C11.9113 2.7875 11.7367 2.6125 11.5204 2.6125ZM8.14625 14.5596C8.3625 14.5596 8.53708 14.735 8.53708 14.9508C8.53708 15.1671 8.36208 15.3421 8.14625 15.3421H3.65958C3.44333 15.3421 3.26875 15.1667 3.26875 14.9508C3.26875 14.735 3.44375 14.5596 3.65958 14.5596H8.14625ZM5.61208 12.17C5.82833 12.17 6.00333 12.3454 6.00333 12.5612C6.00333 12.7771 5.82792 12.9525 5.61208 12.9525H2.06167C1.84542 12.9525 1.67083 12.7771 1.67083 12.5612C1.67083 12.345 1.84583 12.17 2.06167 12.17H5.61208ZM8.21458 9.78083C8.43083 9.78083 8.60542 9.95583 8.60542 10.1721C8.60542 10.3883 8.43042 10.5633 8.21458 10.5633H0.390833C0.174583 10.5633 0 10.3883 0 10.1721C0 9.95583 0.175 9.78083 0.390833 9.78083H8.21458ZM6.35292 7.39125C6.56917 7.39125 6.74417 7.56625 6.74417 7.7825C6.74417 7.99875 6.56875 8.17375 6.35292 8.17375H2.84083C2.62458 8.17375 2.44958 7.99875 2.44958 7.7825C2.44958 7.56625 2.625 7.39125 2.84083 7.39125H6.35292ZM9.42708 5.00167C9.64375 5.00167 9.81833 5.17667 9.81833 5.39292C9.81833 5.60917 9.64333 5.78417 9.42708 5.78417H2.15208C1.93583 5.78417 1.76125 5.60917 1.76125 5.39292C1.76125 5.17667 1.93625 5.00167 2.15208 5.00167H9.42708Z" fill="#eb5454"/>
</svg>
