<svg width="83" height="70" viewBox="0 0 83 70" fill="none" xmlns="http://www.w3.org/2000/svg">
<rect x="0.5" y="0.5" width="82" height="69" rx="5.5" fill="#F7F9FA" stroke="#EFEFEF"/>
<path fill-rule="evenodd" clip-rule="evenodd" d="M33.1019 33.0463H28.4722C26.5538 33.0463 25 31.4925 25 29.5741V23.787C25 20.5926 27.5926 18 30.787 18H53.9352C55.4702 18 56.9416 18.6105 58.0282 19.6941C59.1132 20.7792 59.7223 22.252 59.7223 23.7871V51.5649C59.7223 51.9671 59.5154 52.3374 59.174 52.5501C58.8325 52.7614 58.4072 52.7787 58.0484 52.5993L54.0191 50.5854L51.1053 52.527C50.7161 52.786 50.2098 52.786 49.8206 52.527L46.9907 50.6404L44.1609 52.527C43.7717 52.786 43.2653 52.786 42.8761 52.527L39.9624 50.5854L35.9331 52.5993C35.5743 52.7787 35.149 52.7599 34.8075 52.5501C34.4661 52.3389 34.2592 51.9671 34.2592 51.5649V23.7871C34.2592 21.8701 32.7039 20.3149 30.787 20.3149C28.87 20.3149 27.3147 21.8701 27.3147 23.7871V29.5741C27.3147 30.2136 27.8327 30.7316 28.4721 30.7316H33.1018L33.1019 33.0463ZM41.2037 43.463H42.3611C43.0006 43.463 43.5185 42.945 43.5185 42.3056C43.5185 41.6661 43.0006 41.1481 42.3611 41.1481H41.2037C40.5642 41.1481 40.0463 41.6661 40.0463 42.3056C40.0463 42.945 40.5642 43.463 41.2037 43.463ZM46.9907 43.463H52.7778C53.4173 43.463 53.9352 42.945 53.9352 42.3056C53.9352 41.6661 53.4173 41.1481 52.7778 41.1481H46.9907C46.3513 41.1481 45.8333 41.6661 45.8333 42.3056C45.8333 42.945 46.3513 43.463 46.9907 43.463ZM41.2037 38.8333H42.3611C43.0006 38.8333 43.5185 38.3154 43.5185 37.6759C43.5185 37.0364 43.0006 36.5185 42.3611 36.5185H41.2037C40.5642 36.5185 40.0463 37.0364 40.0463 37.6759C40.0463 38.3154 40.5642 38.8333 41.2037 38.8333ZM46.9907 38.8333H52.7778C53.4173 38.8333 53.9352 38.3154 53.9352 37.6759C53.9352 37.0364 53.4173 36.5185 52.7778 36.5185H46.9907C46.3513 36.5185 45.8333 37.0364 45.8333 37.6759C45.8333 38.3154 46.3513 38.8333 46.9907 38.8333ZM41.2037 34.2037H42.3611C43.0006 34.2037 43.5185 33.6858 43.5185 33.0463C43.5185 32.4068 43.0006 31.8889 42.3611 31.8889H41.2037C40.5642 31.8889 40.0463 32.4068 40.0463 33.0463C40.0463 33.6858 40.5642 34.2037 41.2037 34.2037ZM46.9907 34.2037H52.7778C53.4173 34.2037 53.9352 33.6858 53.9352 33.0463C53.9352 32.4068 53.4173 31.8889 52.7778 31.8889H46.9907C46.3513 31.8889 45.8333 32.4068 45.8333 33.0463C45.8333 33.6858 46.3513 34.2037 46.9907 34.2037ZM41.2037 29.5741H42.3611C43.0006 29.5741 43.5185 29.0561 43.5185 28.4167C43.5185 27.7772 43.0006 27.2593 42.3611 27.2593H41.2037C40.5642 27.2593 40.0463 27.7772 40.0463 28.4167C40.0463 29.0561 40.5642 29.5741 41.2037 29.5741ZM46.9907 29.5741H52.7778C53.4173 29.5741 53.9352 29.0561 53.9352 28.4167C53.9352 27.7772 53.4173 27.2593 52.7778 27.2593H46.9907C46.3513 27.2593 45.8333 27.7772 45.8333 28.4167C45.8333 29.0561 46.3513 29.5741 46.9907 29.5741Z" fill="#EB5454"/>
</svg>
