<svg width="386" height="469" viewBox="0 0 386 469" fill="none" xmlns="http://www.w3.org/2000/svg">
<path d="M43.9418 2.364C45.2738 2.364 46.4378 2.628 47.4338 3.156C48.4298 3.684 49.1978 4.428 49.7378 5.388C50.2898 6.336 50.5658 7.434 50.5658 8.682C50.5658 9.918 50.2898 11.016 49.7378 11.976C49.1978 12.936 48.4238 13.68 47.4158 14.208C46.4198 14.736 45.2618 15 43.9418 15H39.2078V2.364H43.9418ZM43.7438 12.336C44.9078 12.336 45.8138 12.018 46.4618 11.382C47.1098 10.746 47.4338 9.846 47.4338 8.682C47.4338 7.518 47.1098 6.612 46.4618 5.964C45.8138 5.316 44.9078 4.992 43.7438 4.992H42.2858V12.336H43.7438ZM66.8959 2.364V15H63.8179V7.422L60.9919 15H58.5079L55.6639 7.404V15H52.5859V2.364H56.2219L59.7679 11.112L63.2779 2.364H66.8959ZM77.2754 12.768H72.5594L71.8034 15H68.5814L73.1534 2.364H76.7174L81.2894 15H78.0314L77.2754 12.768ZM76.4834 10.392L74.9174 5.766L73.3694 10.392H76.4834ZM89.4248 15L86.7968 10.23H86.0588V15H82.9808V2.364H88.1468C89.1428 2.364 89.9888 2.538 90.6848 2.886C91.3928 3.234 91.9208 3.714 92.2688 4.326C92.6168 4.926 92.7908 5.598 92.7908 6.342C92.7908 7.182 92.5508 7.932 92.0708 8.592C91.6028 9.252 90.9068 9.72 89.9828 9.996L92.8988 15H89.4248ZM86.0588 8.052H87.9668C88.5308 8.052 88.9508 7.914 89.2268 7.638C89.5148 7.362 89.6588 6.972 89.6588 6.468C89.6588 5.988 89.5148 5.61 89.2268 5.334C88.9508 5.058 88.5308 4.92 87.9668 4.92H86.0588V8.052ZM94.501 8.664C94.501 7.416 94.771 6.306 95.311 5.334C95.851 4.35 96.601 3.588 97.561 3.048C98.533 2.496 99.631 2.22 100.855 2.22C102.355 2.22 103.639 2.616 104.707 3.408C105.775 4.2 106.489 5.28 106.849 6.648H103.465C103.213 6.12 102.853 5.718 102.385 5.442C101.929 5.166 101.407 5.028 100.819 5.028C99.871 5.028 99.103 5.358 98.515 6.018C97.927 6.678 97.633 7.56 97.633 8.664C97.633 9.768 97.927 10.65 98.515 11.31C99.103 11.97 99.871 12.3 100.819 12.3C101.407 12.3 101.929 12.162 102.385 11.886C102.853 11.61 103.213 11.208 103.465 10.68H106.849C106.489 12.048 105.775 13.128 104.707 13.92C103.639 14.7 102.355 15.09 100.855 15.09C99.631 15.09 98.533 14.82 97.561 14.28C96.601 13.728 95.851 12.966 95.311 11.994C94.771 11.022 94.501 9.912 94.501 8.664ZM116.226 6.378C116.526 5.91 116.94 5.532 117.468 5.244C117.996 4.956 118.614 4.812 119.322 4.812C120.15 4.812 120.9 5.022 121.572 5.442C122.244 5.862 122.772 6.462 123.156 7.242C123.552 8.022 123.75 8.928 123.75 9.96C123.75 10.992 123.552 11.904 123.156 12.696C122.772 13.476 122.244 14.082 121.572 14.514C120.9 14.934 120.15 15.144 119.322 15.144C118.626 15.144 118.008 15 117.468 14.712C116.94 14.424 116.526 14.052 116.226 13.596V19.788H113.148V4.956H116.226V6.378ZM120.618 9.96C120.618 9.192 120.402 8.592 119.97 8.16C119.55 7.716 119.028 7.494 118.404 7.494C117.792 7.494 117.27 7.716 116.838 8.16C116.418 8.604 116.208 9.21 116.208 9.978C116.208 10.746 116.418 11.352 116.838 11.796C117.27 12.24 117.792 12.462 118.404 12.462C119.016 12.462 119.538 12.24 119.97 11.796C120.402 11.34 120.618 10.728 120.618 9.96ZM130.237 15.144C129.253 15.144 128.365 14.934 127.573 14.514C126.793 14.094 126.175 13.494 125.719 12.714C125.275 11.934 125.053 11.022 125.053 9.978C125.053 8.946 125.281 8.04 125.737 7.26C126.193 6.468 126.817 5.862 127.609 5.442C128.401 5.022 129.289 4.812 130.273 4.812C131.257 4.812 132.145 5.022 132.937 5.442C133.729 5.862 134.353 6.468 134.809 7.26C135.265 8.04 135.493 8.946 135.493 9.978C135.493 11.01 135.259 11.922 134.791 12.714C134.335 13.494 133.705 14.094 132.901 14.514C132.109 14.934 131.221 15.144 130.237 15.144ZM130.237 12.48C130.825 12.48 131.323 12.264 131.731 11.832C132.151 11.4 132.361 10.782 132.361 9.978C132.361 9.174 132.157 8.556 131.749 8.124C131.353 7.692 130.861 7.476 130.273 7.476C129.673 7.476 129.175 7.692 128.779 8.124C128.383 8.544 128.185 9.162 128.185 9.978C128.185 10.782 128.377 11.4 128.761 11.832C129.157 12.264 129.649 12.48 130.237 12.48ZM140.504 1.68V15H137.426V1.68H140.504ZM144.583 3.912C144.043 3.912 143.599 3.756 143.251 3.444C142.915 3.12 142.747 2.724 142.747 2.256C142.747 1.776 142.915 1.38 143.251 1.068C143.599 0.743999 144.043 0.581999 144.583 0.581999C145.111 0.581999 145.543 0.743999 145.879 1.068C146.227 1.38 146.401 1.776 146.401 2.256C146.401 2.724 146.227 3.12 145.879 3.444C145.543 3.756 145.111 3.912 144.583 3.912ZM146.113 4.956V15H143.035V4.956H146.113ZM148.031 9.978C148.031 8.934 148.241 8.022 148.661 7.242C149.093 6.462 149.687 5.862 150.443 5.442C151.211 5.022 152.087 4.812 153.071 4.812C154.331 4.812 155.381 5.142 156.221 5.802C157.073 6.462 157.631 7.392 157.895 8.592H154.619C154.343 7.824 153.809 7.44 153.017 7.44C152.453 7.44 152.003 7.662 151.667 8.106C151.331 8.538 151.163 9.162 151.163 9.978C151.163 10.794 151.331 11.424 151.667 11.868C152.003 12.3 152.453 12.516 153.017 12.516C153.809 12.516 154.343 12.132 154.619 11.364H157.895C157.631 12.54 157.073 13.464 156.221 14.136C155.369 14.808 154.319 15.144 153.071 15.144C152.087 15.144 151.211 14.934 150.443 14.514C149.687 14.094 149.093 13.494 148.661 12.714C148.241 11.934 148.031 11.022 148.031 9.978ZM161.39 3.912C160.85 3.912 160.406 3.756 160.058 3.444C159.722 3.12 159.554 2.724 159.554 2.256C159.554 1.776 159.722 1.38 160.058 1.068C160.406 0.743999 160.85 0.581999 161.39 0.581999C161.918 0.581999 162.35 0.743999 162.686 1.068C163.034 1.38 163.208 1.776 163.208 2.256C163.208 2.724 163.034 3.12 162.686 3.444C162.35 3.756 161.918 3.912 161.39 3.912ZM162.92 4.956V15H159.842V4.956H162.92ZM174.918 9.816C174.918 10.104 174.9 10.404 174.864 10.716H167.898C167.946 11.34 168.144 11.82 168.492 12.156C168.852 12.48 169.29 12.642 169.806 12.642C170.574 12.642 171.108 12.318 171.408 11.67H174.684C174.516 12.33 174.21 12.924 173.766 13.452C173.334 13.98 172.788 14.394 172.128 14.694C171.468 14.994 170.73 15.144 169.914 15.144C168.93 15.144 168.054 14.934 167.286 14.514C166.518 14.094 165.918 13.494 165.486 12.714C165.054 11.934 164.838 11.022 164.838 9.978C164.838 8.934 165.048 8.022 165.468 7.242C165.9 6.462 166.5 5.862 167.268 5.442C168.036 5.022 168.918 4.812 169.914 4.812C170.886 4.812 171.75 5.016 172.506 5.424C173.262 5.832 173.85 6.414 174.27 7.17C174.702 7.926 174.918 8.808 174.918 9.816ZM171.768 9.006C171.768 8.478 171.588 8.058 171.228 7.746C170.868 7.434 170.418 7.278 169.878 7.278C169.362 7.278 168.924 7.428 168.564 7.728C168.216 8.028 168 8.454 167.916 9.006H171.768ZM180.928 15.144C180.052 15.144 179.272 14.994 178.588 14.694C177.904 14.394 177.364 13.986 176.968 13.47C176.572 12.942 176.35 12.354 176.302 11.706H179.344C179.38 12.054 179.542 12.336 179.83 12.552C180.118 12.768 180.472 12.876 180.892 12.876C181.276 12.876 181.57 12.804 181.774 12.66C181.99 12.504 182.098 12.306 182.098 12.066C182.098 11.778 181.948 11.568 181.648 11.436C181.348 11.292 180.862 11.136 180.19 10.968C179.47 10.8 178.87 10.626 178.39 10.446C177.91 10.254 177.496 9.96 177.148 9.564C176.8 9.156 176.626 8.61 176.626 7.926C176.626 7.35 176.782 6.828 177.094 6.36C177.418 5.88 177.886 5.502 178.498 5.226C179.122 4.95 179.86 4.812 180.712 4.812C181.972 4.812 182.962 5.124 183.682 5.748C184.414 6.372 184.834 7.2 184.942 8.232H182.098C182.05 7.884 181.894 7.608 181.63 7.404C181.378 7.2 181.042 7.098 180.622 7.098C180.262 7.098 179.986 7.17 179.794 7.314C179.602 7.446 179.506 7.632 179.506 7.872C179.506 8.16 179.656 8.376 179.956 8.52C180.268 8.664 180.748 8.808 181.396 8.952C182.14 9.144 182.746 9.336 183.214 9.528C183.682 9.708 184.09 10.008 184.438 10.428C184.798 10.836 184.984 11.388 184.996 12.084C184.996 12.672 184.828 13.2 184.492 13.668C184.168 14.124 183.694 14.484 183.07 14.748C182.458 15.012 181.744 15.144 180.928 15.144ZM192.842 3.912C192.302 3.912 191.858 3.756 191.51 3.444C191.174 3.12 191.006 2.724 191.006 2.256C191.006 1.776 191.174 1.38 191.51 1.068C191.858 0.743999 192.302 0.581999 192.842 0.581999C193.37 0.581999 193.802 0.743999 194.138 1.068C194.486 1.38 194.66 1.776 194.66 2.256C194.66 2.724 194.486 3.12 194.138 3.444C193.802 3.756 193.37 3.912 192.842 3.912ZM194.372 4.956V15H191.294V4.956H194.372ZM203.022 4.848C204.198 4.848 205.134 5.232 205.83 6C206.538 6.756 206.892 7.8 206.892 9.132V15H203.832V9.546C203.832 8.874 203.658 8.352 203.31 7.98C202.962 7.608 202.494 7.422 201.906 7.422C201.318 7.422 200.85 7.608 200.502 7.98C200.154 8.352 199.98 8.874 199.98 9.546V15H196.902V4.956H199.98V6.288C200.292 5.844 200.712 5.496 201.24 5.244C201.768 4.98 202.362 4.848 203.022 4.848ZM217.262 4.812C217.97 4.812 218.588 4.956 219.116 5.244C219.656 5.532 220.07 5.91 220.358 6.378V4.956H223.436V14.982C223.436 15.906 223.25 16.74 222.878 17.484C222.518 18.24 221.96 18.84 221.204 19.284C220.46 19.728 219.53 19.95 218.414 19.95C216.926 19.95 215.72 19.596 214.796 18.888C213.872 18.192 213.344 17.244 213.212 16.044H216.254C216.35 16.428 216.578 16.728 216.938 16.944C217.298 17.172 217.742 17.286 218.27 17.286C218.906 17.286 219.41 17.1 219.782 16.728C220.166 16.368 220.358 15.786 220.358 14.982V13.56C220.058 14.028 219.644 14.412 219.116 14.712C218.588 15 217.97 15.144 217.262 15.144C216.434 15.144 215.684 14.934 215.012 14.514C214.34 14.082 213.806 13.476 213.41 12.696C213.026 11.904 212.834 10.992 212.834 9.96C212.834 8.928 213.026 8.022 213.41 7.242C213.806 6.462 214.34 5.862 215.012 5.442C215.684 5.022 216.434 4.812 217.262 4.812ZM220.358 9.978C220.358 9.21 220.142 8.604 219.71 8.16C219.29 7.716 218.774 7.494 218.162 7.494C217.55 7.494 217.028 7.716 216.596 8.16C216.176 8.592 215.966 9.192 215.966 9.96C215.966 10.728 216.176 11.34 216.596 11.796C217.028 12.24 217.55 12.462 218.162 12.462C218.774 12.462 219.29 12.24 219.71 11.796C220.142 11.352 220.358 10.746 220.358 9.978ZM230.534 15.144C229.55 15.144 228.662 14.934 227.87 14.514C227.09 14.094 226.472 13.494 226.016 12.714C225.572 11.934 225.35 11.022 225.35 9.978C225.35 8.946 225.578 8.04 226.034 7.26C226.49 6.468 227.114 5.862 227.906 5.442C228.698 5.022 229.586 4.812 230.57 4.812C231.554 4.812 232.442 5.022 233.234 5.442C234.026 5.862 234.65 6.468 235.106 7.26C235.562 8.04 235.79 8.946 235.79 9.978C235.79 11.01 235.556 11.922 235.088 12.714C234.632 13.494 234.002 14.094 233.198 14.514C232.406 14.934 231.518 15.144 230.534 15.144ZM230.534 12.48C231.122 12.48 231.62 12.264 232.028 11.832C232.448 11.4 232.658 10.782 232.658 9.978C232.658 9.174 232.454 8.556 232.046 8.124C231.65 7.692 231.158 7.476 230.57 7.476C229.97 7.476 229.472 7.692 229.076 8.124C228.68 8.544 228.482 9.162 228.482 9.978C228.482 10.782 228.674 11.4 229.058 11.832C229.454 12.264 229.946 12.48 230.534 12.48ZM242.241 12.12L244.419 4.956H247.695L244.131 15H240.333L236.769 4.956H240.063L242.241 12.12ZM258.759 9.816C258.759 10.104 258.741 10.404 258.705 10.716H251.739C251.787 11.34 251.985 11.82 252.333 12.156C252.693 12.48 253.131 12.642 253.647 12.642C254.415 12.642 254.949 12.318 255.249 11.67H258.525C258.357 12.33 258.051 12.924 257.607 13.452C257.175 13.98 256.629 14.394 255.969 14.694C255.309 14.994 254.571 15.144 253.755 15.144C252.771 15.144 251.895 14.934 251.127 14.514C250.359 14.094 249.759 13.494 249.327 12.714C248.895 11.934 248.679 11.022 248.679 9.978C248.679 8.934 248.889 8.022 249.309 7.242C249.741 6.462 250.341 5.862 251.109 5.442C251.877 5.022 252.759 4.812 253.755 4.812C254.727 4.812 255.591 5.016 256.347 5.424C257.103 5.832 257.691 6.414 258.111 7.17C258.543 7.926 258.759 8.808 258.759 9.816ZM255.609 9.006C255.609 8.478 255.429 8.058 255.069 7.746C254.709 7.434 254.259 7.278 253.719 7.278C253.203 7.278 252.765 7.428 252.405 7.728C252.057 8.028 251.841 8.454 251.757 9.006H255.609ZM263.761 6.63C264.121 6.078 264.571 5.646 265.111 5.334C265.651 5.01 266.251 4.848 266.911 4.848V8.106H266.065C265.297 8.106 264.721 8.274 264.337 8.61C263.953 8.934 263.761 9.51 263.761 10.338V15H260.683V4.956H263.761V6.63ZM274.802 4.848C275.978 4.848 276.914 5.232 277.61 6C278.318 6.756 278.672 7.8 278.672 9.132V15H275.612V9.546C275.612 8.874 275.438 8.352 275.09 7.98C274.742 7.608 274.274 7.422 273.686 7.422C273.098 7.422 272.63 7.608 272.282 7.98C271.934 8.352 271.76 8.874 271.76 9.546V15H268.682V4.956H271.76V6.288C272.072 5.844 272.492 5.496 273.02 5.244C273.548 4.98 274.142 4.848 274.802 4.848ZM293.927 4.848C295.175 4.848 296.165 5.226 296.897 5.982C297.641 6.738 298.013 7.788 298.013 9.132V15H294.953V9.546C294.953 8.898 294.779 8.4 294.431 8.052C294.095 7.692 293.627 7.512 293.027 7.512C292.427 7.512 291.953 7.692 291.605 8.052C291.269 8.4 291.101 8.898 291.101 9.546V15H288.041V9.546C288.041 8.898 287.867 8.4 287.519 8.052C287.183 7.692 286.715 7.512 286.115 7.512C285.515 7.512 285.041 7.692 284.693 8.052C284.357 8.4 284.189 8.898 284.189 9.546V15H281.111V4.956H284.189V6.216C284.501 5.796 284.909 5.466 285.413 5.226C285.917 4.974 286.487 4.848 287.123 4.848C287.879 4.848 288.551 5.01 289.139 5.334C289.739 5.658 290.207 6.12 290.543 6.72C290.891 6.168 291.365 5.718 291.965 5.37C292.565 5.022 293.219 4.848 293.927 4.848ZM309.934 9.816C309.934 10.104 309.916 10.404 309.88 10.716H302.914C302.962 11.34 303.16 11.82 303.508 12.156C303.868 12.48 304.306 12.642 304.822 12.642C305.59 12.642 306.124 12.318 306.424 11.67H309.7C309.532 12.33 309.226 12.924 308.782 13.452C308.35 13.98 307.804 14.394 307.144 14.694C306.484 14.994 305.746 15.144 304.93 15.144C303.946 15.144 303.07 14.934 302.302 14.514C301.534 14.094 300.934 13.494 300.502 12.714C300.07 11.934 299.854 11.022 299.854 9.978C299.854 8.934 300.064 8.022 300.484 7.242C300.916 6.462 301.516 5.862 302.284 5.442C303.052 5.022 303.934 4.812 304.93 4.812C305.902 4.812 306.766 5.016 307.522 5.424C308.278 5.832 308.866 6.414 309.286 7.17C309.718 7.926 309.934 8.808 309.934 9.816ZM306.784 9.006C306.784 8.478 306.604 8.058 306.244 7.746C305.884 7.434 305.434 7.278 304.894 7.278C304.378 7.278 303.94 7.428 303.58 7.728C303.232 8.028 303.016 8.454 302.932 9.006H306.784ZM317.977 4.848C319.153 4.848 320.089 5.232 320.785 6C321.493 6.756 321.847 7.8 321.847 9.132V15H318.787V9.546C318.787 8.874 318.613 8.352 318.265 7.98C317.917 7.608 317.449 7.422 316.861 7.422C316.273 7.422 315.805 7.608 315.457 7.98C315.109 8.352 314.935 8.874 314.935 9.546V15H311.857V4.956H314.935V6.288C315.247 5.844 315.667 5.496 316.195 5.244C316.723 4.98 317.317 4.848 317.977 4.848ZM329.884 12.39V15H328.318C327.202 15 326.332 14.73 325.708 14.19C325.084 13.638 324.772 12.744 324.772 11.508V7.512H323.548V4.956H324.772V2.508H327.85V4.956H329.866V7.512H327.85V11.544C327.85 11.844 327.922 12.06 328.066 12.192C328.21 12.324 328.45 12.39 328.786 12.39H329.884ZM331.287 9.96C331.287 8.928 331.479 8.022 331.863 7.242C332.259 6.462 332.793 5.862 333.465 5.442C334.137 5.022 334.887 4.812 335.715 4.812C336.423 4.812 337.041 4.956 337.569 5.244C338.109 5.532 338.523 5.91 338.811 6.378V4.956H341.889V15H338.811V13.578C338.511 14.046 338.091 14.424 337.551 14.712C337.023 15 336.405 15.144 335.697 15.144C334.881 15.144 334.137 14.934 333.465 14.514C332.793 14.082 332.259 13.476 331.863 12.696C331.479 11.904 331.287 10.992 331.287 9.96ZM338.811 9.978C338.811 9.21 338.595 8.604 338.163 8.16C337.743 7.716 337.227 7.494 336.615 7.494C336.003 7.494 335.481 7.716 335.049 8.16C334.629 8.592 334.419 9.192 334.419 9.96C334.419 10.728 334.629 11.34 335.049 11.796C335.481 12.24 336.003 12.462 336.615 12.462C337.227 12.462 337.743 12.24 338.163 11.796C338.595 11.352 338.811 10.746 338.811 9.978ZM347.494 1.68V15H344.416V1.68H347.494ZM133.175 42.144C132.191 42.144 131.303 41.934 130.511 41.514C129.731 41.094 129.113 40.494 128.657 39.714C128.213 38.934 127.991 38.022 127.991 36.978C127.991 35.946 128.219 35.04 128.675 34.26C129.131 33.468 129.755 32.862 130.547 32.442C131.339 32.022 132.227 31.812 133.211 31.812C134.195 31.812 135.083 32.022 135.875 32.442C136.667 32.862 137.291 33.468 137.747 34.26C138.203 35.04 138.431 35.946 138.431 36.978C138.431 38.01 138.197 38.922 137.729 39.714C137.273 40.494 136.643 41.094 135.839 41.514C135.047 41.934 134.159 42.144 133.175 42.144ZM133.175 39.48C133.763 39.48 134.261 39.264 134.669 38.832C135.089 38.4 135.299 37.782 135.299 36.978C135.299 36.174 135.095 35.556 134.687 35.124C134.291 34.692 133.799 34.476 133.211 34.476C132.611 34.476 132.113 34.692 131.717 35.124C131.321 35.544 131.123 36.162 131.123 36.978C131.123 37.782 131.315 38.4 131.699 38.832C132.095 39.264 132.587 39.48 133.175 39.48ZM143.442 33.63C143.802 33.078 144.252 32.646 144.792 32.334C145.332 32.01 145.932 31.848 146.592 31.848V35.106H145.746C144.978 35.106 144.402 35.274 144.018 35.61C143.634 35.934 143.442 36.51 143.442 37.338V42H140.364V31.956H143.442V33.63ZM152.179 31.812C152.887 31.812 153.505 31.956 154.033 32.244C154.573 32.532 154.987 32.91 155.275 33.378V31.956H158.353V41.982C158.353 42.906 158.167 43.74 157.795 44.484C157.435 45.24 156.877 45.84 156.121 46.284C155.377 46.728 154.447 46.95 153.331 46.95C151.843 46.95 150.637 46.596 149.713 45.888C148.789 45.192 148.261 44.244 148.129 43.044H151.171C151.267 43.428 151.495 43.728 151.855 43.944C152.215 44.172 152.659 44.286 153.187 44.286C153.823 44.286 154.327 44.1 154.699 43.728C155.083 43.368 155.275 42.786 155.275 41.982V40.56C154.975 41.028 154.561 41.412 154.033 41.712C153.505 42 152.887 42.144 152.179 42.144C151.351 42.144 150.601 41.934 149.929 41.514C149.257 41.082 148.723 40.476 148.327 39.696C147.943 38.904 147.751 37.992 147.751 36.96C147.751 35.928 147.943 35.022 148.327 34.242C148.723 33.462 149.257 32.862 149.929 32.442C150.601 32.022 151.351 31.812 152.179 31.812ZM155.275 36.978C155.275 36.21 155.059 35.604 154.627 35.16C154.207 34.716 153.691 34.494 153.079 34.494C152.467 34.494 151.945 34.716 151.513 35.16C151.093 35.592 150.883 36.192 150.883 36.96C150.883 37.728 151.093 38.34 151.513 38.796C151.945 39.24 152.467 39.462 153.079 39.462C153.691 39.462 154.207 39.24 154.627 38.796C155.059 38.352 155.275 37.746 155.275 36.978ZM160.268 36.96C160.268 35.928 160.46 35.022 160.844 34.242C161.24 33.462 161.774 32.862 162.446 32.442C163.118 32.022 163.868 31.812 164.696 31.812C165.404 31.812 166.022 31.956 166.55 32.244C167.09 32.532 167.504 32.91 167.792 33.378V31.956H170.87V42H167.792V40.578C167.492 41.046 167.072 41.424 166.532 41.712C166.004 42 165.386 42.144 164.678 42.144C163.862 42.144 163.118 41.934 162.446 41.514C161.774 41.082 161.24 40.476 160.844 39.696C160.46 38.904 160.268 37.992 160.268 36.96ZM167.792 36.978C167.792 36.21 167.576 35.604 167.144 35.16C166.724 34.716 166.208 34.494 165.596 34.494C164.984 34.494 164.462 34.716 164.03 35.16C163.61 35.592 163.4 36.192 163.4 36.96C163.4 37.728 163.61 38.34 164.03 38.796C164.462 39.24 164.984 39.462 165.596 39.462C166.208 39.462 166.724 39.24 167.144 38.796C167.576 38.352 167.792 37.746 167.792 36.978ZM179.517 31.848C180.693 31.848 181.629 32.232 182.325 33C183.033 33.756 183.387 34.8 183.387 36.132V42H180.327V36.546C180.327 35.874 180.153 35.352 179.805 34.98C179.457 34.608 178.989 34.422 178.401 34.422C177.813 34.422 177.345 34.608 176.997 34.98C176.649 35.352 176.475 35.874 176.475 36.546V42H173.397V31.956H176.475V33.288C176.787 32.844 177.207 32.496 177.735 32.244C178.263 31.98 178.857 31.848 179.517 31.848ZM187.374 30.912C186.834 30.912 186.39 30.756 186.042 30.444C185.706 30.12 185.538 29.724 185.538 29.256C185.538 28.776 185.706 28.38 186.042 28.068C186.39 27.744 186.834 27.582 187.374 27.582C187.902 27.582 188.334 27.744 188.67 28.068C189.018 28.38 189.192 28.776 189.192 29.256C189.192 29.724 189.018 30.12 188.67 30.444C188.334 30.756 187.902 30.912 187.374 30.912ZM188.904 31.956V42H185.826V31.956H188.904ZM194.314 39.462H198.67V42H190.876V39.552L195.052 34.494H190.912V31.956H198.58V34.404L194.314 39.462ZM200.052 36.96C200.052 35.928 200.244 35.022 200.628 34.242C201.024 33.462 201.558 32.862 202.23 32.442C202.902 32.022 203.652 31.812 204.48 31.812C205.188 31.812 205.806 31.956 206.334 32.244C206.874 32.532 207.288 32.91 207.576 33.378V31.956H210.654V42H207.576V40.578C207.276 41.046 206.856 41.424 206.316 41.712C205.788 42 205.17 42.144 204.462 42.144C203.646 42.144 202.902 41.934 202.23 41.514C201.558 41.082 201.024 40.476 200.628 39.696C200.244 38.904 200.052 37.992 200.052 36.96ZM207.576 36.978C207.576 36.21 207.36 35.604 206.928 35.16C206.508 34.716 205.992 34.494 205.38 34.494C204.768 34.494 204.246 34.716 203.814 35.16C203.394 35.592 203.184 36.192 203.184 36.96C203.184 37.728 203.394 38.34 203.814 38.796C204.246 39.24 204.768 39.462 205.38 39.462C205.992 39.462 206.508 39.24 206.928 38.796C207.36 38.352 207.576 37.746 207.576 36.978ZM218.779 39.39V42H217.213C216.097 42 215.227 41.73 214.603 41.19C213.979 40.638 213.667 39.744 213.667 38.508V34.512H212.443V31.956H213.667V29.508H216.745V31.956H218.761V34.512H216.745V38.544C216.745 38.844 216.817 39.06 216.961 39.192C217.105 39.324 217.345 39.39 217.681 39.39H218.779ZM222.341 30.912C221.801 30.912 221.357 30.756 221.009 30.444C220.673 30.12 220.505 29.724 220.505 29.256C220.505 28.776 220.673 28.38 221.009 28.068C221.357 27.744 221.801 27.582 222.341 27.582C222.869 27.582 223.301 27.744 223.637 28.068C223.985 28.38 224.159 28.776 224.159 29.256C224.159 29.724 223.985 30.12 223.637 30.444C223.301 30.756 222.869 30.912 222.341 30.912ZM223.871 31.956V42H220.793V31.956H223.871ZM230.974 42.144C229.99 42.144 229.102 41.934 228.31 41.514C227.53 41.094 226.912 40.494 226.456 39.714C226.012 38.934 225.79 38.022 225.79 36.978C225.79 35.946 226.018 35.04 226.474 34.26C226.93 33.468 227.554 32.862 228.346 32.442C229.138 32.022 230.026 31.812 231.01 31.812C231.994 31.812 232.882 32.022 233.674 32.442C234.466 32.862 235.09 33.468 235.546 34.26C236.002 35.04 236.23 35.946 236.23 36.978C236.23 38.01 235.996 38.922 235.528 39.714C235.072 40.494 234.442 41.094 233.638 41.514C232.846 41.934 231.958 42.144 230.974 42.144ZM230.974 39.48C231.562 39.48 232.06 39.264 232.468 38.832C232.888 38.4 233.098 37.782 233.098 36.978C233.098 36.174 232.894 35.556 232.486 35.124C232.09 34.692 231.598 34.476 231.01 34.476C230.41 34.476 229.912 34.692 229.516 35.124C229.12 35.544 228.922 36.162 228.922 36.978C228.922 37.782 229.114 38.4 229.498 38.832C229.894 39.264 230.386 39.48 230.974 39.48ZM244.283 31.848C245.459 31.848 246.395 32.232 247.091 33C247.799 33.756 248.153 34.8 248.153 36.132V42H245.093V36.546C245.093 35.874 244.919 35.352 244.571 34.98C244.223 34.608 243.755 34.422 243.167 34.422C242.579 34.422 242.111 34.608 241.763 34.98C241.415 35.352 241.241 35.874 241.241 36.546V42H238.163V31.956H241.241V33.288C241.553 32.844 241.973 32.496 242.501 32.244C243.029 31.98 243.623 31.848 244.283 31.848ZM254.678 42.144C253.802 42.144 253.022 41.994 252.338 41.694C251.654 41.394 251.114 40.986 250.718 40.47C250.322 39.942 250.1 39.354 250.052 38.706H253.094C253.13 39.054 253.292 39.336 253.58 39.552C253.868 39.768 254.222 39.876 254.642 39.876C255.026 39.876 255.32 39.804 255.524 39.66C255.74 39.504 255.848 39.306 255.848 39.066C255.848 38.778 255.698 38.568 255.398 38.436C255.098 38.292 254.612 38.136 253.94 37.968C253.22 37.8 252.62 37.626 252.14 37.446C251.66 37.254 251.246 36.96 250.898 36.564C250.55 36.156 250.376 35.61 250.376 34.926C250.376 34.35 250.532 33.828 250.844 33.36C251.168 32.88 251.636 32.502 252.248 32.226C252.872 31.95 253.61 31.812 254.462 31.812C255.722 31.812 256.712 32.124 257.432 32.748C258.164 33.372 258.584 34.2 258.692 35.232H255.848C255.8 34.884 255.644 34.608 255.38 34.404C255.128 34.2 254.792 34.098 254.372 34.098C254.012 34.098 253.736 34.17 253.544 34.314C253.352 34.446 253.256 34.632 253.256 34.872C253.256 35.16 253.406 35.376 253.706 35.52C254.018 35.664 254.498 35.808 255.146 35.952C255.89 36.144 256.496 36.336 256.964 36.528C257.432 36.708 257.84 37.008 258.188 37.428C258.548 37.836 258.734 38.388 258.746 39.084C258.746 39.672 258.578 40.2 258.242 40.668C257.918 41.124 257.444 41.484 256.82 41.748C256.208 42.012 255.494 42.144 254.678 42.144Z" fill="#4B575E"/>
<circle cx="193.359" cy="210" r="116" fill="#F79421"/>
<path d="M80.6746 182.464C75.5676 203.364 76.3733 225.272 83.0017 245.739C89.6302 266.207 101.82 284.428 118.209 298.366C134.598 312.304 154.541 321.41 175.807 324.665C197.074 327.92 218.827 325.197 238.635 316.8C258.442 308.403 275.525 294.662 287.972 277.115C300.42 259.567 307.742 238.903 309.121 217.433C310.499 195.963 305.88 174.533 295.778 155.537C285.677 136.541 270.492 120.729 251.921 109.868L193.359 210.001L80.6746 182.464Z" fill="#0F2138"/>
<path d="M78.9367 229.067C82.473 250.289 91.8415 270.109 105.995 286.312C120.148 302.516 138.529 314.464 159.083 320.821C179.636 327.178 201.553 327.694 222.383 322.311C243.213 316.928 262.136 305.858 277.036 290.339C291.936 274.819 302.226 255.462 306.757 234.43C311.288 213.398 309.881 191.521 302.693 171.243C295.504 150.965 282.818 133.086 266.053 119.603C249.287 106.121 229.102 97.5669 207.754 94.8971L193.359 210.001L78.9367 229.067Z" fill="#FBB03B"/>
<path d="M162.19 98.2507C181.581 92.8416 202.047 92.5723 221.574 97.4694C241.101 102.366 259.018 112.261 273.562 126.181C288.107 140.101 298.778 157.566 304.527 176.859C310.276 196.153 310.905 216.61 306.351 236.221C301.798 255.831 292.22 273.919 278.558 288.705C264.896 303.492 247.621 314.468 228.431 320.556C209.242 326.643 188.798 327.631 169.111 323.423C149.424 319.215 131.171 309.956 116.146 296.556L193.357 209.985L162.19 98.2507Z" fill="#EB5454"/>
<path d="M228.032 205.847C228.229 205.495 228.308 205.168 228.269 204.866C228.237 204.57 228.063 204.277 227.747 203.986C227.274 203.55 226.746 203.419 226.166 203.595C225.598 203.771 224.916 204.284 224.119 205.136C224.537 205.014 224.973 205.022 225.428 205.162C225.889 205.294 226.305 205.532 226.676 205.873C227.122 206.284 227.429 206.743 227.595 207.252C227.761 207.76 227.77 208.288 227.621 208.836C227.478 209.377 227.17 209.905 226.696 210.42C226.247 210.907 225.746 211.252 225.193 211.453C224.653 211.654 224.096 211.687 223.522 211.552C222.949 211.417 222.401 211.109 221.879 210.629C221.165 209.972 220.747 209.295 220.626 208.6C220.512 207.911 220.631 207.209 220.985 206.495C221.352 205.779 221.917 205.006 222.682 204.175C223.839 202.919 224.928 202.17 225.948 201.93C226.975 201.683 227.955 201.989 228.889 202.849C229.61 203.512 229.99 204.223 230.028 204.981C230.066 205.739 229.847 206.439 229.371 207.079L228.032 205.847ZM225.256 206.754C224.892 206.419 224.488 206.244 224.045 206.229C223.602 206.215 223.194 206.41 222.821 206.815C222.448 207.22 222.268 207.644 222.279 208.086C222.298 208.534 222.516 208.951 222.935 209.337C223.306 209.678 223.702 209.834 224.124 209.803C224.552 209.779 224.943 209.574 225.297 209.19C225.664 208.791 225.848 208.378 225.85 207.948C225.859 207.525 225.661 207.127 225.256 206.754ZM229.374 213.589C229.151 213.942 229.059 214.289 229.1 214.631C229.153 214.972 229.345 215.295 229.675 215.598C230.1 215.99 230.571 216.1 231.085 215.926C231.606 215.746 232.252 215.237 233.024 214.4C232.663 214.474 232.282 214.44 231.88 214.298C231.485 214.163 231.122 213.943 230.793 213.64C230.353 213.235 230.037 212.779 229.844 212.272C229.665 211.764 229.636 211.237 229.759 210.69C229.888 210.137 230.19 209.602 230.664 209.087C231.366 208.325 232.148 207.93 233.013 207.9C233.883 207.864 234.71 208.207 235.492 208.927C236.467 209.825 236.866 210.77 236.689 211.761C236.519 212.759 235.856 213.886 234.699 215.143C233.877 216.035 233.125 216.694 232.442 217.119C231.767 217.549 231.104 217.739 230.455 217.686C229.812 217.64 229.168 217.32 228.523 216.726C228.014 216.258 227.67 215.764 227.49 215.243C227.316 214.715 227.279 214.204 227.377 213.712C227.489 213.218 227.708 212.767 228.035 212.357L229.374 213.589ZM232.172 212.741C232.529 213.069 232.912 213.219 233.32 213.188C233.729 213.158 234.103 212.958 234.445 212.587C234.818 212.182 234.996 211.768 234.978 211.346C234.974 210.924 234.786 210.542 234.415 210.201C234.045 209.859 233.642 209.704 233.207 209.735C232.786 209.766 232.401 209.97 232.054 210.348C231.719 210.712 231.547 211.105 231.538 211.528C231.542 211.951 231.753 212.355 232.172 212.741ZM233.167 221.115C232.906 220.875 232.762 220.597 232.736 220.281C232.723 219.965 232.827 219.686 233.048 219.446C233.269 219.205 233.535 219.082 233.845 219.076C234.169 219.069 234.461 219.186 234.722 219.426C234.976 219.66 235.109 219.935 235.122 220.252C235.142 220.561 235.041 220.836 234.82 221.077C234.598 221.317 234.33 221.444 234.013 221.457C233.703 221.463 233.421 221.349 233.167 221.115ZM236.611 221.45L237.654 220.317L245.459 218.598L247.138 220.143L242.814 224.84L243.721 225.674L242.564 226.931L241.658 226.097L240.311 227.559L238.869 226.232L240.216 224.769L236.611 221.45ZM244.367 220.446L239.354 221.654L241.465 223.598L244.367 220.446ZM253.043 227.425L244.396 231.319L242.933 229.973L251.449 226.262L247.926 223.019L249.064 221.783L254.029 226.354L253.043 227.425ZM253.27 229.023C253.751 228.501 254.278 228.232 254.852 228.215C255.433 228.204 255.963 228.42 256.444 228.862C256.925 229.305 257.18 229.813 257.21 230.386C257.248 230.966 257.026 231.517 256.546 232.039C256.059 232.567 255.525 232.837 254.944 232.848C254.37 232.865 253.843 232.652 253.362 232.21C252.882 231.767 252.623 231.256 252.586 230.676C252.555 230.103 252.783 229.552 253.27 229.023ZM261.305 233.566L250.62 237.049L249.219 235.76L259.894 232.267L261.305 233.566ZM255.637 229.718C255.26 229.37 254.824 229.464 254.331 230C253.832 230.542 253.771 230.987 254.149 231.335C254.334 231.506 254.538 231.573 254.761 231.538C254.991 231.495 255.232 231.337 255.485 231.062C255.978 230.526 256.029 230.078 255.637 229.718ZM254.009 237.296C254.495 236.767 255.022 236.497 255.59 236.487C256.171 236.476 256.702 236.692 257.182 237.135C257.663 237.577 257.915 238.082 257.939 238.649C257.975 239.216 257.75 239.763 257.263 240.292C256.777 240.821 256.246 241.094 255.672 241.111C255.105 241.134 254.581 240.925 254.101 240.482C253.613 240.033 253.354 239.522 253.324 238.949C253.294 238.375 253.522 237.824 254.009 237.296ZM256.376 237.99C255.984 237.63 255.542 237.718 255.049 238.253C254.549 238.796 254.495 239.247 254.887 239.607C255.271 239.961 255.713 239.867 256.213 239.325C256.706 238.789 256.76 238.344 256.376 237.99Z" fill="white"/>
<path d="M128.307 148.223L129.531 146.894L132.013 149.18L125.1 156.688L123.617 155.323L129.306 149.143L128.307 148.223ZM135.826 156.153C136.023 155.801 136.102 155.475 136.063 155.172C136.031 154.876 135.857 154.583 135.541 154.292C135.067 153.856 134.54 153.726 133.959 153.902C133.392 154.077 132.709 154.591 131.912 155.443C132.33 155.32 132.766 155.328 133.221 155.468C133.683 155.601 134.099 155.838 134.469 156.179C134.916 156.59 135.222 157.05 135.388 157.558C135.555 158.067 135.563 158.595 135.414 159.143C135.272 159.683 134.963 160.211 134.489 160.726C134.04 161.214 133.539 161.558 132.986 161.76C132.446 161.96 131.889 161.993 131.316 161.858C130.742 161.723 130.194 161.416 129.672 160.935C128.958 160.278 128.541 159.602 128.419 158.907C128.305 158.218 128.425 157.516 128.778 156.801C129.145 156.086 129.711 155.313 130.476 154.482C131.633 153.225 132.721 152.477 133.742 152.236C134.768 151.989 135.749 152.295 136.683 153.155C137.404 153.819 137.783 154.53 137.821 155.288C137.859 156.046 137.64 156.745 137.165 157.386L135.826 156.153ZM133.049 157.061C132.685 156.726 132.282 156.551 131.839 156.536C131.396 156.521 130.988 156.716 130.615 157.122C130.242 157.527 130.061 157.95 130.073 158.392C130.091 158.841 130.31 159.258 130.729 159.643C131.1 159.985 131.496 160.14 131.917 160.109C132.345 160.085 132.737 159.881 133.091 159.496C133.457 159.098 133.642 158.684 133.644 158.255C133.653 157.832 133.455 157.433 133.049 157.061ZM136.689 164.56L132.82 166.345L131.893 165.491L135.227 163.213L136.689 164.56ZM145.471 165.032C145.668 164.681 145.747 164.354 145.708 164.051C145.676 163.756 145.502 163.462 145.186 163.171C144.712 162.735 144.185 162.605 143.604 162.781C143.037 162.956 142.355 163.47 141.557 164.322C141.975 164.199 142.411 164.208 142.866 164.347C143.328 164.48 143.744 164.717 144.114 165.059C144.561 165.469 144.867 165.929 145.033 166.437C145.2 166.946 145.208 167.474 145.059 168.022C144.917 168.563 144.608 169.091 144.134 169.606C143.685 170.093 143.184 170.437 142.631 170.639C142.091 170.839 141.534 170.872 140.961 170.737C140.387 170.603 139.839 170.295 139.318 169.815C138.603 169.157 138.186 168.481 138.064 167.786C137.95 167.097 138.07 166.395 138.423 165.68C138.79 164.965 139.356 164.192 140.121 163.361C141.278 162.104 142.366 161.356 143.387 161.116C144.414 160.868 145.394 161.175 146.328 162.034C147.049 162.698 147.428 163.409 147.466 164.167C147.504 164.925 147.285 165.624 146.81 166.265L145.471 165.032ZM142.694 165.94C142.331 165.605 141.927 165.43 141.484 165.415C141.041 165.4 140.633 165.596 140.26 166.001C139.887 166.406 139.706 166.829 139.718 167.272C139.736 167.72 139.955 168.137 140.374 168.523C140.745 168.864 141.141 169.019 141.562 168.989C141.991 168.964 142.382 168.76 142.736 168.375C143.102 167.977 143.287 167.563 143.289 167.134C143.298 166.711 143.1 166.313 142.694 165.94ZM148.116 170.532C147.759 169.542 147.924 168.673 148.613 167.925C148.954 167.554 149.357 167.303 149.82 167.172C150.297 167.04 150.807 167.058 151.349 167.227C151.904 167.396 152.456 167.733 153.005 168.239C153.555 168.745 153.933 169.264 154.14 169.797C154.36 170.33 154.421 170.836 154.322 171.315C154.236 171.794 154.022 172.219 153.681 172.59C153.333 172.968 152.934 173.216 152.483 173.333C152.038 173.444 151.589 173.436 151.134 173.31C151.36 173.822 151.434 174.334 151.356 174.846C151.278 175.358 151.04 175.83 150.642 176.263C150.212 176.73 149.716 177.028 149.153 177.157C148.604 177.285 148.038 177.252 147.455 177.058C146.872 176.865 146.323 176.531 145.808 176.057C145.293 175.582 144.915 175.063 144.674 174.498C144.44 173.94 144.36 173.378 144.436 172.814C144.525 172.249 144.784 171.733 145.214 171.266C145.612 170.833 146.063 170.557 146.567 170.437C147.077 170.31 147.593 170.342 148.116 170.532ZM152.09 171.507C152.4 171.17 152.537 170.814 152.502 170.439C152.473 170.071 152.284 169.725 151.934 169.403C151.591 169.087 151.231 168.926 150.854 168.922C150.484 168.924 150.141 169.097 149.825 169.44C149.541 169.749 149.416 170.091 149.451 170.466C149.494 170.848 149.679 171.19 150.009 171.494C150.339 171.797 150.695 171.954 151.079 171.965C151.469 171.968 151.806 171.816 152.09 171.507ZM149.042 172.544C148.65 172.184 148.239 171.99 147.809 171.961C147.385 171.939 147.003 172.113 146.661 172.484C146.345 172.827 146.203 173.216 146.234 173.651C146.278 174.085 146.503 174.489 146.908 174.862C147.314 175.235 147.734 175.419 148.17 175.414C148.605 175.409 148.978 175.238 149.288 174.902C149.623 174.538 149.762 174.146 149.705 173.726C149.654 173.298 149.433 172.905 149.042 172.544ZM155.089 173.83C155.57 173.308 156.097 173.039 156.671 173.021C157.252 173.011 157.783 173.227 158.263 173.669C158.744 174.112 158.999 174.619 159.03 175.193C159.067 175.773 158.845 176.323 158.365 176.845C157.878 177.374 157.344 177.644 156.763 177.655C156.189 177.672 155.662 177.459 155.182 177.017C154.701 176.574 154.442 176.063 154.405 175.483C154.374 174.91 154.603 174.359 155.089 173.83ZM163.124 178.372L152.439 181.856L151.038 180.566L161.713 177.073L163.124 178.372ZM157.456 174.525C157.079 174.177 156.643 174.271 156.15 174.807C155.651 175.349 155.59 175.794 155.968 176.142C156.153 176.313 156.357 176.38 156.58 176.344C156.81 176.302 157.051 176.143 157.304 175.869C157.797 175.333 157.848 174.885 157.456 174.525ZM155.828 182.102C156.314 181.574 156.842 181.304 157.409 181.294C157.99 181.283 158.521 181.499 159.002 181.941C159.482 182.384 159.734 182.889 159.758 183.456C159.794 184.022 159.569 184.57 159.083 185.099C158.596 185.627 158.065 185.9 157.491 185.917C156.924 185.941 156.401 185.731 155.92 185.289C155.432 184.84 155.173 184.329 155.143 183.756C155.113 183.182 155.341 182.631 155.828 182.102ZM158.195 182.797C157.803 182.437 157.361 182.524 156.868 183.06C156.369 183.602 156.315 184.054 156.706 184.414C157.091 184.768 157.533 184.674 158.032 184.131C158.525 183.596 158.579 183.151 158.195 182.797Z" fill="white"/>
<path d="M95.8019 205.983L96.0109 204.457L101.435 198.587L103.696 198.896L102.83 205.221L104.051 205.389L103.819 207.081L102.598 206.914L102.329 208.883L100.387 208.617L100.657 206.648L95.8019 205.983ZM101.594 200.728L98.1697 204.583L101.013 204.973L101.594 200.728ZM107.706 207.542L105.55 211.218L104.301 211.047L105.737 207.273L107.706 207.542ZM116.521 202.023L111.648 210.159L109.679 209.89L114.549 201.979L109.805 201.33L110.033 199.665L116.719 200.581L116.521 202.023ZM123.08 203.995C123.041 203.594 122.919 203.281 122.714 203.055C122.519 202.831 122.209 202.689 121.783 202.631C121.145 202.544 120.638 202.738 120.262 203.214C119.897 203.682 119.63 204.493 119.463 205.648C119.735 205.308 120.098 205.066 120.551 204.921C121.006 204.767 121.483 204.723 121.982 204.792C122.583 204.874 123.097 205.076 123.524 205.399C123.951 205.721 124.26 206.149 124.45 206.684C124.642 207.21 124.69 207.819 124.595 208.513C124.505 209.169 124.291 209.738 123.952 210.219C123.623 210.692 123.185 211.038 122.637 211.255C122.089 211.472 121.464 211.532 120.761 211.436C119.8 211.304 119.071 210.987 118.574 210.486C118.087 209.986 117.784 209.342 117.666 208.553C117.558 207.756 117.581 206.799 117.734 205.68C117.966 203.988 118.432 202.751 119.132 201.971C119.834 201.182 120.814 200.873 122.071 201.045C123.042 201.178 123.76 201.545 124.224 202.146C124.688 202.746 124.908 203.445 124.883 204.242L123.08 203.995ZM121.32 206.326C120.83 206.259 120.399 206.346 120.026 206.587C119.654 206.828 119.431 207.222 119.356 207.767C119.281 208.313 119.375 208.764 119.637 209.12C119.909 209.477 120.326 209.695 120.89 209.772C121.39 209.84 121.804 209.741 122.132 209.476C122.47 209.211 122.674 208.82 122.745 208.302C122.818 207.765 122.733 207.32 122.49 206.967C122.255 206.614 121.865 206.401 121.32 206.326ZM126.79 204.461C126.887 203.758 127.165 203.236 127.627 202.894C128.097 202.554 128.656 202.428 129.304 202.516C129.951 202.605 130.451 202.876 130.803 203.329C131.165 203.784 131.298 204.362 131.201 205.065C131.104 205.777 130.82 206.304 130.349 206.644C129.888 206.986 129.334 207.113 128.686 207.024C128.039 206.935 127.535 206.664 127.173 206.209C126.82 205.756 126.693 205.173 126.79 204.461ZM135.98 203.6L129.2 212.563L127.313 212.305L134.08 203.34L135.98 203.6ZM129.13 203.679C128.622 203.61 128.318 203.936 128.219 204.657C128.119 205.387 128.323 205.787 128.832 205.857C129.082 205.891 129.288 205.83 129.451 205.673C129.615 205.507 129.722 205.239 129.773 204.87C129.871 204.148 129.657 203.752 129.13 203.679ZM132.122 210.829C132.219 210.117 132.498 209.595 132.958 209.262C133.429 208.922 133.988 208.796 134.635 208.884C135.282 208.973 135.777 209.243 136.121 209.695C136.474 210.14 136.602 210.718 136.505 211.43C136.407 212.142 136.128 212.669 135.667 213.011C135.215 213.354 134.665 213.481 134.018 213.392C133.361 213.302 132.857 213.031 132.504 212.577C132.152 212.124 132.024 211.541 132.122 210.829ZM134.461 210.048C133.934 209.975 133.621 210.3 133.523 211.021C133.423 211.752 133.636 212.153 134.163 212.225C134.681 212.296 134.99 211.966 135.09 211.236C135.189 210.515 134.979 210.119 134.461 210.048Z" fill="white"/>
<path d="M111.061 252.339C111.296 252.684 111.579 252.906 111.908 253.004C112.243 253.09 112.615 253.042 113.024 252.86C113.553 252.625 113.84 252.237 113.886 251.696C113.927 251.147 113.717 250.351 113.254 249.311C113.179 249.671 112.997 250.008 112.707 250.32C112.426 250.629 112.08 250.875 111.671 251.057C111.125 251.299 110.581 251.408 110.039 251.384C109.502 251.347 109.007 251.164 108.554 250.834C108.097 250.496 107.726 250.007 107.442 249.367C107.021 248.42 106.969 247.545 107.285 246.74C107.598 245.927 108.24 245.304 109.213 244.872C110.424 244.334 111.449 244.343 112.289 244.899C113.137 245.451 113.908 246.508 114.602 248.068C115.095 249.177 115.4 250.129 115.519 250.924C115.646 251.715 115.556 252.399 115.25 252.974C114.953 253.545 114.403 254.009 113.602 254.366C112.97 254.646 112.38 254.766 111.83 254.724C111.277 254.674 110.794 254.506 110.381 254.22C109.972 253.921 109.645 253.541 109.398 253.078L111.061 252.339ZM111.394 249.433C111.837 249.236 112.126 248.944 112.261 248.558C112.395 248.171 112.36 247.747 112.155 247.287C111.932 246.784 111.623 246.456 111.228 246.305C110.839 246.141 110.414 246.161 109.953 246.366C109.493 246.571 109.19 246.879 109.046 247.29C108.907 247.689 108.942 248.123 109.15 248.592C109.351 249.044 109.644 249.358 110.029 249.534C110.418 249.698 110.873 249.665 111.394 249.433ZM119.763 249.359L119.864 253.619L118.713 254.131L117.946 250.167L119.763 249.359ZM119.832 245.851C119.176 244.375 118.927 243.102 119.084 242.031C119.25 240.956 119.951 240.144 121.188 239.594C122.424 239.045 123.493 239.07 124.393 239.671C125.302 240.268 126.084 241.304 126.74 242.779C127.4 244.263 127.649 245.547 127.487 246.63C127.333 247.71 126.638 248.524 125.402 249.074C124.165 249.624 123.09 249.596 122.178 248.99C121.274 248.381 120.492 247.335 119.832 245.851ZM124.975 243.564C124.694 242.933 124.417 242.423 124.142 242.035C123.872 241.634 123.552 241.352 123.184 241.189C122.823 241.022 122.405 241.045 121.927 241.258C121.449 241.47 121.148 241.767 121.022 242.15C120.904 242.529 120.899 242.955 121.007 243.428C121.12 243.889 121.317 244.435 121.598 245.066C121.886 245.714 122.167 246.243 122.441 246.652C122.711 247.053 123.03 247.335 123.399 247.498C123.764 247.652 124.185 247.623 124.662 247.411C125.14 247.199 125.444 246.905 125.574 246.531C125.7 246.148 125.704 245.722 125.588 245.253C125.467 244.775 125.263 244.212 124.975 243.564ZM131.41 243.293C131.645 243.638 131.928 243.859 132.257 243.958C132.592 244.044 132.964 243.996 133.373 243.814C133.902 243.579 134.189 243.191 134.235 242.65C134.276 242.1 134.066 241.305 133.603 240.265C133.528 240.625 133.346 240.961 133.056 241.274C132.775 241.583 132.429 241.828 132.02 242.01C131.474 242.253 130.93 242.362 130.388 242.338C129.851 242.301 129.356 242.117 128.903 241.788C128.446 241.449 128.075 240.96 127.791 240.321C127.37 239.374 127.318 238.498 127.634 237.694C127.947 236.881 128.589 236.258 129.562 235.826C130.773 235.287 131.798 235.296 132.638 235.853C133.486 236.405 134.257 237.461 134.951 239.022C135.444 240.131 135.749 241.083 135.868 241.878C135.995 242.669 135.905 243.352 135.599 243.928C135.302 244.499 134.752 244.963 133.951 245.319C133.319 245.6 132.729 245.72 132.179 245.678C131.626 245.628 131.143 245.46 130.729 245.173C130.321 244.875 129.994 244.494 129.747 244.032L131.41 243.293ZM131.743 240.387C132.186 240.19 132.475 239.898 132.61 239.511C132.744 239.125 132.709 238.701 132.504 238.241C132.281 237.737 131.972 237.41 131.577 237.258C131.188 237.095 130.763 237.115 130.302 237.32C129.842 237.524 129.539 237.832 129.395 238.244C129.256 238.643 129.291 239.077 129.499 239.546C129.7 239.998 129.993 240.312 130.378 240.488C130.767 240.652 131.222 240.618 131.743 240.387ZM135.453 236.21C135.165 235.561 135.127 234.971 135.339 234.437C135.56 233.9 135.969 233.498 136.566 233.233C137.163 232.967 137.73 232.935 138.269 233.135C138.816 233.331 139.233 233.753 139.521 234.401C139.813 235.058 139.849 235.655 139.628 236.192C139.416 236.726 139.011 237.125 138.414 237.391C137.817 237.656 137.245 237.691 136.698 237.494C136.16 237.295 135.745 236.866 135.453 236.21ZM142.813 230.64L141.766 241.83L140.027 242.603L141.06 231.419L142.813 230.64ZM137.031 234.313C136.562 234.522 136.475 234.959 136.771 235.624C137.07 236.298 137.455 236.53 137.924 236.322C138.154 236.219 138.297 236.059 138.353 235.84C138.405 235.612 138.355 235.328 138.204 234.987C137.908 234.322 137.517 234.097 137.031 234.313ZM143.338 238.817C143.046 238.161 143.008 237.57 143.224 237.045C143.445 236.507 143.854 236.106 144.451 235.841C145.048 235.575 145.611 235.544 146.141 235.748C146.676 235.939 147.089 236.363 147.381 237.02C147.673 237.677 147.713 238.272 147.5 238.805C147.297 239.335 146.896 239.733 146.299 239.998C145.694 240.267 145.122 240.302 144.584 240.102C144.045 239.902 143.63 239.474 143.338 238.817ZM144.916 236.921C144.43 237.137 144.335 237.578 144.63 238.243C144.93 238.917 145.323 239.145 145.809 238.929C146.286 238.717 146.376 238.274 146.076 237.6C145.78 236.935 145.394 236.709 144.916 236.921Z" fill="white"/>
<path d="M64.336 399H62.512L57.024 390.696V399H55.2V387.864H57.024L62.512 396.152V387.864H64.336V399ZM70.5553 399.144C69.7233 399.144 68.9713 398.957 68.2993 398.584C67.6273 398.2 67.0993 397.667 66.7153 396.984C66.3313 396.291 66.1393 395.491 66.1393 394.584C66.1393 393.688 66.3366 392.893 66.7313 392.2C67.1259 391.507 67.6646 390.973 68.3473 390.6C69.0299 390.227 69.7926 390.04 70.6353 390.04C71.4779 390.04 72.2406 390.227 72.9233 390.6C73.6059 390.973 74.1446 391.507 74.5393 392.2C74.9339 392.893 75.1313 393.688 75.1313 394.584C75.1313 395.48 74.9286 396.275 74.5233 396.968C74.1179 397.661 73.5633 398.2 72.8593 398.584C72.1659 398.957 71.3979 399.144 70.5553 399.144ZM70.5553 397.56C71.0246 397.56 71.4619 397.448 71.8673 397.224C72.2833 397 72.6193 396.664 72.8753 396.216C73.1313 395.768 73.2593 395.224 73.2593 394.584C73.2593 393.944 73.1366 393.405 72.8913 392.968C72.6459 392.52 72.3206 392.184 71.9153 391.96C71.5099 391.736 71.0726 391.624 70.6033 391.624C70.1339 391.624 69.6966 391.736 69.2913 391.96C68.8966 392.184 68.5819 392.52 68.3473 392.968C68.1126 393.405 67.9953 393.944 67.9953 394.584C67.9953 395.533 68.2353 396.269 68.7153 396.792C69.2059 397.304 69.8193 397.56 70.5553 397.56ZM84.7226 387.88C85.9066 387.88 86.9413 388.109 87.8266 388.568C88.7226 389.016 89.4106 389.667 89.8906 390.52C90.3813 391.363 90.6266 392.349 90.6266 393.48C90.6266 394.611 90.3813 395.592 89.8906 396.424C89.4106 397.256 88.7226 397.896 87.8266 398.344C86.9413 398.781 85.9066 399 84.7226 399H81.0906V387.88H84.7226ZM84.7226 397.512C86.024 397.512 87.0213 397.16 87.7146 396.456C88.408 395.752 88.7546 394.76 88.7546 393.48C88.7546 392.189 88.408 391.181 87.7146 390.456C87.0213 389.731 86.024 389.368 84.7226 389.368H82.9146V397.512H84.7226ZM104.146 387.88V399H102.322V391.384L98.9304 399H97.6664L94.2584 391.384V399H92.4344V387.88H94.4024L98.3064 396.6L102.194 387.88H104.146ZM113.248 396.728H108.592L107.792 399H105.888L109.872 387.864H111.984L115.968 399H114.048L113.248 396.728ZM112.736 395.24L110.928 390.072L109.104 395.24H112.736ZM123.476 399L120.916 394.552H119.524V399H117.7V387.88H121.54C122.393 387.88 123.113 388.029 123.7 388.328C124.297 388.627 124.74 389.027 125.028 389.528C125.327 390.029 125.476 390.589 125.476 391.208C125.476 391.933 125.263 392.595 124.836 393.192C124.42 393.779 123.775 394.179 122.9 394.392L125.652 399H123.476ZM119.524 393.096H121.54C122.223 393.096 122.735 392.925 123.076 392.584C123.428 392.243 123.604 391.784 123.604 391.208C123.604 390.632 123.433 390.184 123.092 389.864C122.751 389.533 122.233 389.368 121.54 389.368H119.524V393.096ZM127.201 393.416C127.201 392.328 127.452 391.352 127.953 390.488C128.465 389.624 129.153 388.952 130.017 388.472C130.892 387.981 131.847 387.736 132.881 387.736C134.065 387.736 135.116 388.029 136.033 388.616C136.961 389.192 137.633 390.013 138.049 391.08H135.857C135.569 390.493 135.169 390.056 134.657 389.768C134.145 389.48 133.553 389.336 132.881 389.336C132.145 389.336 131.489 389.501 130.913 389.832C130.337 390.163 129.884 390.637 129.553 391.256C129.233 391.875 129.073 392.595 129.073 393.416C129.073 394.237 129.233 394.957 129.553 395.576C129.884 396.195 130.337 396.675 130.913 397.016C131.489 397.347 132.145 397.512 132.881 397.512C133.553 397.512 134.145 397.368 134.657 397.08C135.169 396.792 135.569 396.355 135.857 395.768H138.049C137.633 396.835 136.961 397.656 136.033 398.232C135.116 398.808 134.065 399.096 132.881 399.096C131.836 399.096 130.881 398.856 130.017 398.376C129.153 397.885 128.465 397.208 127.953 396.344C127.452 395.48 127.201 394.504 127.201 393.416Z" fill="#4B575E"/>
<rect y="375" width="40" height="37" rx="4" fill="#EB5454"/>
<path d="M255.024 391.48C255.333 391.075 255.755 390.733 256.288 390.456C256.821 390.179 257.424 390.04 258.096 390.04C258.864 390.04 259.563 390.232 260.192 390.616C260.832 390.989 261.333 391.517 261.696 392.2C262.059 392.883 262.24 393.667 262.24 394.552C262.24 395.437 262.059 396.232 261.696 396.936C261.333 397.629 260.832 398.173 260.192 398.568C259.563 398.952 258.864 399.144 258.096 399.144C257.424 399.144 256.827 399.011 256.304 398.744C255.781 398.467 255.355 398.125 255.024 397.72V403.192H253.2V390.184H255.024V391.48ZM260.384 394.552C260.384 393.944 260.256 393.421 260 392.984C259.755 392.536 259.424 392.2 259.008 391.976C258.603 391.741 258.165 391.624 257.696 391.624C257.237 391.624 256.8 391.741 256.384 391.976C255.979 392.211 255.648 392.552 255.392 393C255.147 393.448 255.024 393.976 255.024 394.584C255.024 395.192 255.147 395.725 255.392 396.184C255.648 396.632 255.979 396.973 256.384 397.208C256.8 397.443 257.237 397.56 257.696 397.56C258.165 397.56 258.603 397.443 259.008 397.208C259.424 396.963 259.755 396.611 260 396.152C260.256 395.693 260.384 395.16 260.384 394.552ZM273.292 390.632V392.168H264.78V390.632H273.292ZM273.292 394.264V395.8H264.78V394.264H273.292ZM275.826 394.552C275.826 393.667 276.008 392.883 276.37 392.2C276.744 391.517 277.245 390.989 277.874 390.616C278.514 390.232 279.224 390.04 280.002 390.04C280.685 390.04 281.288 390.179 281.81 390.456C282.344 390.733 282.754 391.069 283.042 391.464V390.184H284.882V403.192H283.042V397.72C282.754 398.115 282.338 398.451 281.794 398.728C281.25 399.005 280.632 399.144 279.938 399.144C279.181 399.144 278.488 398.952 277.858 398.568C277.24 398.173 276.744 397.629 276.37 396.936C276.008 396.232 275.826 395.437 275.826 394.552ZM283.042 394.584C283.042 393.976 282.914 393.448 282.658 393C282.413 392.552 282.088 392.211 281.682 391.976C281.277 391.741 280.84 391.624 280.37 391.624C279.901 391.624 279.464 391.741 279.058 391.976C278.653 392.2 278.322 392.536 278.066 392.984C277.821 393.421 277.698 393.944 277.698 394.552C277.698 395.16 277.821 395.693 278.066 396.152C278.322 396.611 278.653 396.963 279.058 397.208C279.474 397.443 279.912 397.56 280.37 397.56C280.84 397.56 281.277 397.443 281.682 397.208C282.088 396.973 282.413 396.632 282.658 396.184C282.914 395.725 283.042 395.192 283.042 394.584ZM295.262 390.184V399H293.438V397.96C293.15 398.323 292.771 398.611 292.302 398.824C291.843 399.027 291.353 399.128 290.83 399.128C290.137 399.128 289.513 398.984 288.958 398.696C288.414 398.408 287.982 397.981 287.662 397.416C287.353 396.851 287.198 396.168 287.198 395.368V390.184H289.006V395.096C289.006 395.885 289.203 396.493 289.598 396.92C289.993 397.336 290.531 397.544 291.214 397.544C291.897 397.544 292.435 397.336 292.83 396.92C293.235 396.493 293.438 395.885 293.438 395.096V390.184H295.262ZM297.061 394.552C297.061 393.667 297.242 392.883 297.605 392.2C297.978 391.517 298.479 390.989 299.109 390.616C299.749 390.232 300.453 390.04 301.221 390.04C301.914 390.04 302.517 390.179 303.029 390.456C303.551 390.723 303.967 391.059 304.277 391.464V390.184H306.117V399H304.277V397.688C303.967 398.104 303.546 398.451 303.013 398.728C302.479 399.005 301.871 399.144 301.189 399.144C300.431 399.144 299.738 398.952 299.109 398.568C298.479 398.173 297.978 397.629 297.605 396.936C297.242 396.232 297.061 395.437 297.061 394.552ZM304.277 394.584C304.277 393.976 304.149 393.448 303.893 393C303.647 392.552 303.322 392.211 302.917 391.976C302.511 391.741 302.074 391.624 301.605 391.624C301.135 391.624 300.698 391.741 300.293 391.976C299.887 392.2 299.557 392.536 299.301 392.984C299.055 393.421 298.933 393.944 298.933 394.552C298.933 395.16 299.055 395.693 299.301 396.152C299.557 396.611 299.887 396.963 300.293 397.208C300.709 397.443 301.146 397.56 301.605 397.56C302.074 397.56 302.511 397.443 302.917 397.208C303.322 396.973 303.647 396.632 303.893 396.184C304.149 395.725 304.277 395.192 304.277 394.584ZM310.337 391.464C310.603 391.016 310.955 390.669 311.393 390.424C311.841 390.168 312.369 390.04 312.977 390.04V391.928H312.513C311.798 391.928 311.254 392.109 310.881 392.472C310.518 392.835 310.337 393.464 310.337 394.36V399H308.513V390.184H310.337V391.464ZM314.045 394.552C314.045 393.667 314.226 392.883 314.589 392.2C314.962 391.517 315.464 390.989 316.093 390.616C316.733 390.232 317.437 390.04 318.205 390.04C318.898 390.04 319.501 390.179 320.013 390.456C320.536 390.723 320.952 391.059 321.261 391.464V390.184H323.101V399H321.261V397.688C320.952 398.104 320.53 398.451 319.997 398.728C319.464 399.005 318.856 399.144 318.173 399.144C317.416 399.144 316.722 398.952 316.093 398.568C315.464 398.173 314.962 397.629 314.589 396.936C314.226 396.232 314.045 395.437 314.045 394.552ZM321.261 394.584C321.261 393.976 321.133 393.448 320.877 393C320.632 392.552 320.306 392.211 319.901 391.976C319.496 391.741 319.058 391.624 318.589 391.624C318.12 391.624 317.682 391.741 317.277 391.976C316.872 392.2 316.541 392.536 316.285 392.984C316.04 393.421 315.917 393.944 315.917 394.552C315.917 395.16 316.04 395.693 316.285 396.152C316.541 396.611 316.872 396.963 317.277 397.208C317.693 397.443 318.13 397.56 318.589 397.56C319.058 397.56 319.496 397.443 319.901 397.208C320.306 396.973 320.632 396.632 320.877 396.184C321.133 395.725 321.261 395.192 321.261 394.584ZM329.945 390.04C330.638 390.04 331.257 390.184 331.801 390.472C332.356 390.76 332.788 391.187 333.097 391.752C333.406 392.317 333.561 393 333.561 393.8V399H331.753V394.072C331.753 393.283 331.556 392.68 331.161 392.264C330.766 391.837 330.228 391.624 329.545 391.624C328.862 391.624 328.318 391.837 327.913 392.264C327.518 392.68 327.321 393.283 327.321 394.072V399H325.497V390.184H327.321V391.192C327.62 390.829 327.998 390.547 328.457 390.344C328.926 390.141 329.422 390.04 329.945 390.04ZM338.016 391.672V396.552C338.016 396.883 338.09 397.123 338.24 397.272C338.4 397.411 338.666 397.48 339.04 397.48H340.16V399H338.72C337.898 399 337.269 398.808 336.832 398.424C336.394 398.04 336.176 397.416 336.176 396.552V391.672H335.136V390.184H336.176V387.992H338.016V390.184H340.16V391.672H338.016ZM342.769 389.016C342.438 389.016 342.161 388.904 341.937 388.68C341.713 388.456 341.601 388.179 341.601 387.848C341.601 387.517 341.713 387.24 341.937 387.016C342.161 386.792 342.438 386.68 342.769 386.68C343.089 386.68 343.361 386.792 343.585 387.016C343.809 387.24 343.921 387.517 343.921 387.848C343.921 388.179 343.809 388.456 343.585 388.68C343.361 388.904 343.089 389.016 342.769 389.016ZM343.665 390.184V399H341.841V390.184H343.665ZM350.507 390.04C351.201 390.04 351.819 390.184 352.363 390.472C352.918 390.76 353.35 391.187 353.659 391.752C353.969 392.317 354.123 393 354.123 393.8V399H352.315V394.072C352.315 393.283 352.118 392.68 351.723 392.264C351.329 391.837 350.79 391.624 350.107 391.624C349.425 391.624 348.881 391.837 348.475 392.264C348.081 392.68 347.883 393.283 347.883 394.072V399H346.059V390.184H347.883V391.192C348.182 390.829 348.561 390.547 349.019 390.344C349.489 390.141 349.985 390.04 350.507 390.04ZM364.53 394.376C364.53 394.707 364.509 395.005 364.466 395.272H357.73C357.783 395.976 358.045 396.541 358.514 396.968C358.983 397.395 359.559 397.608 360.242 397.608C361.223 397.608 361.917 397.197 362.322 396.376H364.29C364.023 397.187 363.538 397.853 362.834 398.376C362.141 398.888 361.277 399.144 360.242 399.144C359.399 399.144 358.642 398.957 357.97 398.584C357.309 398.2 356.786 397.667 356.402 396.984C356.029 396.291 355.842 395.491 355.842 394.584C355.842 393.677 356.023 392.883 356.386 392.2C356.759 391.507 357.277 390.973 357.938 390.6C358.61 390.227 359.378 390.04 360.242 390.04C361.074 390.04 361.815 390.221 362.466 390.584C363.117 390.947 363.623 391.459 363.986 392.12C364.349 392.771 364.53 393.523 364.53 394.376ZM362.626 393.8C362.615 393.128 362.375 392.589 361.906 392.184C361.437 391.779 360.855 391.576 360.162 391.576C359.533 391.576 358.994 391.779 358.546 392.184C358.098 392.579 357.831 393.117 357.746 393.8H362.626Z" fill="#4B575E"/>
<rect x="198" y="375" width="40" height="37" rx="4" fill="#0F2138"/>
<path d="M57.024 448.48C57.3333 448.075 57.7547 447.733 58.288 447.456C58.8213 447.179 59.424 447.04 60.096 447.04C60.864 447.04 61.5627 447.232 62.192 447.616C62.832 447.989 63.3333 448.517 63.696 449.2C64.0587 449.883 64.24 450.667 64.24 451.552C64.24 452.437 64.0587 453.232 63.696 453.936C63.3333 454.629 62.832 455.173 62.192 455.568C61.5627 455.952 60.864 456.144 60.096 456.144C59.424 456.144 58.8267 456.011 58.304 455.744C57.7813 455.467 57.3547 455.125 57.024 454.72V460.192H55.2V447.184H57.024V448.48ZM62.384 451.552C62.384 450.944 62.256 450.421 62 449.984C61.7547 449.536 61.424 449.2 61.008 448.976C60.6027 448.741 60.1653 448.624 59.696 448.624C59.2373 448.624 58.8 448.741 58.384 448.976C57.9787 449.211 57.648 449.552 57.392 450C57.1467 450.448 57.024 450.976 57.024 451.584C57.024 452.192 57.1467 452.725 57.392 453.184C57.648 453.632 57.9787 453.973 58.384 454.208C58.8 454.443 59.2373 454.56 59.696 454.56C60.1653 454.56 60.6027 454.443 61.008 454.208C61.424 453.963 61.7547 453.611 62 453.152C62.256 452.693 62.384 452.16 62.384 451.552ZM75.2918 447.632V449.168H66.7798V447.632H75.2918ZM75.2918 451.264V452.8H66.7798V451.264H75.2918ZM82.8824 447.04C83.5757 447.04 84.1944 447.184 84.7384 447.472C85.293 447.76 85.725 448.187 86.0344 448.752C86.3437 449.317 86.4984 450 86.4984 450.8V456H84.6904V451.072C84.6904 450.283 84.493 449.68 84.0984 449.264C83.7037 448.837 83.165 448.624 82.4824 448.624C81.7997 448.624 81.2557 448.837 80.8504 449.264C80.4557 449.68 80.2584 450.283 80.2584 451.072V456H78.4344V447.184H80.2584V448.192C80.557 447.829 80.9357 447.547 81.3944 447.344C81.8637 447.141 82.3597 447.04 82.8824 447.04ZM92.649 456.144C91.817 456.144 91.065 455.957 90.393 455.584C89.721 455.2 89.193 454.667 88.809 453.984C88.425 453.291 88.233 452.491 88.233 451.584C88.233 450.688 88.4303 449.893 88.825 449.2C89.2197 448.507 89.7583 447.973 90.441 447.6C91.1237 447.227 91.8863 447.04 92.729 447.04C93.5717 447.04 94.3343 447.227 95.017 447.6C95.6997 447.973 96.2383 448.507 96.633 449.2C97.0277 449.893 97.225 450.688 97.225 451.584C97.225 452.48 97.0223 453.275 96.617 453.968C96.2117 454.661 95.657 455.2 94.953 455.584C94.2597 455.957 93.4917 456.144 92.649 456.144ZM92.649 454.56C93.1183 454.56 93.5557 454.448 93.961 454.224C94.377 454 94.713 453.664 94.969 453.216C95.225 452.768 95.353 452.224 95.353 451.584C95.353 450.944 95.2303 450.405 94.985 449.968C94.7397 449.52 94.4143 449.184 94.009 448.96C93.6037 448.736 93.1663 448.624 92.697 448.624C92.2277 448.624 91.7903 448.736 91.385 448.96C90.9903 449.184 90.6757 449.52 90.441 449.968C90.2063 450.405 90.089 450.944 90.089 451.584C90.089 452.533 90.329 453.269 90.809 453.792C91.2997 454.304 91.913 454.56 92.649 454.56ZM103.476 447.04C104.169 447.04 104.788 447.184 105.332 447.472C105.887 447.76 106.319 448.187 106.628 448.752C106.937 449.317 107.092 450 107.092 450.8V456H105.284V451.072C105.284 450.283 105.087 449.68 104.692 449.264C104.297 448.837 103.759 448.624 103.076 448.624C102.393 448.624 101.849 448.837 101.444 449.264C101.049 449.68 100.852 450.283 100.852 451.072V456H99.0281V447.184H100.852V448.192C101.151 447.829 101.529 447.547 101.988 447.344C102.457 447.141 102.953 447.04 103.476 447.04ZM117.499 451.376C117.499 451.707 117.477 452.005 117.435 452.272H110.699C110.752 452.976 111.013 453.541 111.483 453.968C111.952 454.395 112.528 454.608 113.211 454.608C114.192 454.608 114.885 454.197 115.291 453.376H117.259C116.992 454.187 116.507 454.853 115.803 455.376C115.109 455.888 114.245 456.144 113.211 456.144C112.368 456.144 111.611 455.957 110.939 455.584C110.277 455.2 109.755 454.667 109.371 453.984C108.997 453.291 108.811 452.491 108.811 451.584C108.811 450.677 108.992 449.883 109.355 449.2C109.728 448.507 110.245 447.973 110.907 447.6C111.579 447.227 112.347 447.04 113.211 447.04C114.043 447.04 114.784 447.221 115.435 447.584C116.085 447.947 116.592 448.459 116.955 449.12C117.317 449.771 117.499 450.523 117.499 451.376ZM115.595 450.8C115.584 450.128 115.344 449.589 114.875 449.184C114.405 448.779 113.824 448.576 113.131 448.576C112.501 448.576 111.963 448.779 111.515 449.184C111.067 449.579 110.8 450.117 110.715 450.8H115.595Z" fill="#4B575E"/>
<rect y="432" width="40" height="37" rx="4" fill="#FBB03B"/>
<path d="M255.024 448.48C255.333 448.075 255.755 447.733 256.288 447.456C256.821 447.179 257.424 447.04 258.096 447.04C258.864 447.04 259.563 447.232 260.192 447.616C260.832 447.989 261.333 448.517 261.696 449.2C262.059 449.883 262.24 450.667 262.24 451.552C262.24 452.437 262.059 453.232 261.696 453.936C261.333 454.629 260.832 455.173 260.192 455.568C259.563 455.952 258.864 456.144 258.096 456.144C257.424 456.144 256.827 456.011 256.304 455.744C255.781 455.467 255.355 455.125 255.024 454.72V460.192H253.2V447.184H255.024V448.48ZM260.384 451.552C260.384 450.944 260.256 450.421 260 449.984C259.755 449.536 259.424 449.2 259.008 448.976C258.603 448.741 258.165 448.624 257.696 448.624C257.237 448.624 256.8 448.741 256.384 448.976C255.979 449.211 255.648 449.552 255.392 450C255.147 450.448 255.024 450.976 255.024 451.584C255.024 452.192 255.147 452.725 255.392 453.184C255.648 453.632 255.979 453.973 256.384 454.208C256.8 454.443 257.237 454.56 257.696 454.56C258.165 454.56 258.603 454.443 259.008 454.208C259.424 453.963 259.755 453.611 260 453.152C260.256 452.693 260.384 452.16 260.384 451.552ZM273.292 447.632V449.168H264.78V447.632H273.292ZM273.292 451.264V452.8H264.78V451.264H273.292ZM278.258 448.464C278.525 448.016 278.877 447.669 279.314 447.424C279.762 447.168 280.29 447.04 280.898 447.04V448.928H280.434C279.72 448.928 279.176 449.109 278.802 449.472C278.44 449.835 278.258 450.464 278.258 451.36V456H276.434V447.184H278.258V448.464ZM290.655 451.376C290.655 451.707 290.634 452.005 290.591 452.272H283.855C283.908 452.976 284.17 453.541 284.639 453.968C285.108 454.395 285.684 454.608 286.367 454.608C287.348 454.608 288.042 454.197 288.447 453.376H290.415C290.148 454.187 289.663 454.853 288.959 455.376C288.266 455.888 287.402 456.144 286.367 456.144C285.524 456.144 284.767 455.957 284.095 455.584C283.434 455.2 282.911 454.667 282.527 453.984C282.154 453.291 281.967 452.491 281.967 451.584C281.967 450.677 282.148 449.883 282.511 449.2C282.884 448.507 283.402 447.973 284.063 447.6C284.735 447.227 285.503 447.04 286.367 447.04C287.199 447.04 287.94 447.221 288.591 447.584C289.242 447.947 289.748 448.459 290.111 449.12C290.474 449.771 290.655 450.523 290.655 451.376ZM288.751 450.8C288.74 450.128 288.5 449.589 288.031 449.184C287.562 448.779 286.98 448.576 286.287 448.576C285.658 448.576 285.119 448.779 284.671 449.184C284.223 449.579 283.956 450.117 283.871 450.8H288.751ZM293.378 446.016C293.047 446.016 292.77 445.904 292.546 445.68C292.322 445.456 292.21 445.179 292.21 444.848C292.21 444.517 292.322 444.24 292.546 444.016C292.77 443.792 293.047 443.68 293.378 443.68C293.698 443.68 293.97 443.792 294.194 444.016C294.418 444.24 294.53 444.517 294.53 444.848C294.53 445.179 294.418 445.456 294.194 445.68C293.97 445.904 293.698 446.016 293.378 446.016ZM294.274 457.728C294.274 458.592 294.055 459.216 293.618 459.6C293.191 459.995 292.567 460.192 291.746 460.192H290.802V458.656H291.426C291.799 458.656 292.061 458.581 292.21 458.432C292.37 458.293 292.45 458.059 292.45 457.728V447.184H294.274V457.728ZM304.749 451.376C304.749 451.707 304.727 452.005 304.685 452.272H297.949C298.002 452.976 298.263 453.541 298.733 453.968C299.202 454.395 299.778 454.608 300.461 454.608C301.442 454.608 302.135 454.197 302.541 453.376H304.509C304.242 454.187 303.757 454.853 303.053 455.376C302.359 455.888 301.495 456.144 300.461 456.144C299.618 456.144 298.861 455.957 298.189 455.584C297.527 455.2 297.005 454.667 296.621 453.984C296.247 453.291 296.061 452.491 296.061 451.584C296.061 450.677 296.242 449.883 296.605 449.2C296.978 448.507 297.495 447.973 298.157 447.6C298.829 447.227 299.597 447.04 300.461 447.04C301.293 447.04 302.034 447.221 302.685 447.584C303.335 447.947 303.842 448.459 304.205 449.12C304.567 449.771 304.749 450.523 304.749 451.376ZM302.845 450.8C302.834 450.128 302.594 449.589 302.125 449.184C301.655 448.779 301.074 448.576 300.381 448.576C299.751 448.576 299.213 448.779 298.765 449.184C298.317 449.579 298.05 450.117 297.965 450.8H302.845ZM305.936 451.584C305.936 450.677 306.117 449.883 306.48 449.2C306.853 448.507 307.365 447.973 308.016 447.6C308.666 447.227 309.413 447.04 310.256 447.04C311.322 447.04 312.202 447.296 312.896 447.808C313.6 448.309 314.074 449.029 314.32 449.968H312.352C312.192 449.531 311.936 449.189 311.584 448.944C311.232 448.699 310.789 448.576 310.256 448.576C309.509 448.576 308.912 448.843 308.464 449.376C308.026 449.899 307.808 450.635 307.808 451.584C307.808 452.533 308.026 453.275 308.464 453.808C308.912 454.341 309.509 454.608 310.256 454.608C311.312 454.608 312.01 454.144 312.352 453.216H314.32C314.064 454.112 313.584 454.827 312.88 455.36C312.176 455.883 311.301 456.144 310.256 456.144C309.413 456.144 308.666 455.957 308.016 455.584C307.365 455.2 306.853 454.667 306.48 453.984C306.117 453.291 305.936 452.491 305.936 451.584ZM318.266 448.672V453.552C318.266 453.883 318.34 454.123 318.49 454.272C318.65 454.411 318.916 454.48 319.29 454.48H320.41V456H318.97C318.148 456 317.519 455.808 317.082 455.424C316.644 455.04 316.426 454.416 316.426 453.552V448.672H315.386V447.184H316.426V444.992H318.266V447.184H320.41V448.672H318.266Z" fill="#4B575E"/>
<rect x="198" y="432" width="40" height="37" rx="4" fill="#F79421"/>
</svg>
