<svg width="114" height="114" viewBox="0 0 114 114" fill="none" xmlns="http://www.w3.org/2000/svg">
<circle cx="56.373" cy="56.4805" r="47" fill="white"/>
<circle cx="56.373" cy="56.4805" r="42" stroke="#787878" stroke-opacity="0.2" stroke-width="10" stroke-linejoin="round"/>
<mask id="path-3-inside-1_422_1239" fill="white">
<path d="M16.1201 66.9501C13.5389 67.6032 11.9522 70.2371 12.868 72.7372C15.3621 79.5464 19.4176 85.7027 24.735 90.6981C31.2275 96.7974 39.3302 100.911 48.0857 102.553C56.8412 104.195 65.8837 103.296 74.1449 99.9635C82.4061 96.6309 89.5409 91.0033 94.7063 83.7457C99.8716 76.4881 102.852 67.9036 103.295 59.0065C103.738 50.1094 101.625 41.2715 97.2056 33.5367C92.7865 25.802 86.2459 19.4937 78.3564 15.3571C71.895 11.9692 64.7499 10.154 57.4994 10.0277C54.8372 9.98134 52.8684 12.3432 53.0968 14.996C53.3252 17.6487 55.6671 19.5811 58.3271 19.6991C63.7368 19.939 69.0487 21.3639 73.879 23.8966C80.1383 27.1785 85.3275 32.1833 88.8336 38.3199C92.3396 44.4565 94.0159 51.4684 93.6645 58.5272C93.3132 65.5859 90.9488 72.3967 86.8507 78.1547C82.7525 83.9128 77.092 88.3776 70.5377 91.0216C63.9834 93.6657 56.8092 94.3785 49.8628 93.0759C42.9163 91.7733 36.4879 88.5097 31.3368 83.6706C27.3617 79.9363 24.2755 75.3841 22.2769 70.3514C21.2942 67.8768 18.7013 66.2971 16.1201 66.9501Z"/>
</mask>
<path d="M16.1201 66.9501C13.5389 67.6032 11.9522 70.2371 12.868 72.7372C15.3621 79.5464 19.4176 85.7027 24.735 90.6981C31.2275 96.7974 39.3302 100.911 48.0857 102.553C56.8412 104.195 65.8837 103.296 74.1449 99.9635C82.4061 96.6309 89.5409 91.0033 94.7063 83.7457C99.8716 76.4881 102.852 67.9036 103.295 59.0065C103.738 50.1094 101.625 41.2715 97.2056 33.5367C92.7865 25.802 86.2459 19.4937 78.3564 15.3571C71.895 11.9692 64.7499 10.154 57.4994 10.0277C54.8372 9.98134 52.8684 12.3432 53.0968 14.996C53.3252 17.6487 55.6671 19.5811 58.3271 19.6991C63.7368 19.939 69.0487 21.3639 73.879 23.8966C80.1383 27.1785 85.3275 32.1833 88.8336 38.3199C92.3396 44.4565 94.0159 51.4684 93.6645 58.5272C93.3132 65.5859 90.9488 72.3967 86.8507 78.1547C82.7525 83.9128 77.092 88.3776 70.5377 91.0216C63.9834 93.6657 56.8092 94.3785 49.8628 93.0759C42.9163 91.7733 36.4879 88.5097 31.3368 83.6706C27.3617 79.9363 24.2755 75.3841 22.2769 70.3514C21.2942 67.8768 18.7013 66.2971 16.1201 66.9501Z" fill="#0B3AE1" stroke="#787878" stroke-opacity="0.2" stroke-width="20" stroke-linejoin="round" mask="url(#path-3-inside-1_422_1239)"/>
<path d="M37.7088 56.9925C36.9248 56.5725 36.3928 55.8725 36.3928 54.7945C36.3928 53.3385 37.5268 52.0505 39.9348 52.0505C42.3428 52.0505 43.4628 53.3385 43.4628 54.7945C43.4628 55.8445 42.9168 56.5865 42.1468 56.9925C43.1408 57.4685 43.7148 58.3225 43.7148 59.4845C43.7148 61.5285 42.0208 62.6765 39.9348 62.6765C37.8488 62.6765 36.1548 61.5285 36.1548 59.4845C36.1548 58.3225 36.7288 57.4545 37.7088 56.9925ZM39.9348 56.3485C40.6208 56.3485 41.1388 55.9005 41.1388 55.1585C41.1388 54.3885 40.6488 53.9545 39.9348 53.9545C39.2208 53.9545 38.7308 54.3885 38.7308 55.1725C38.7308 55.9145 39.2488 56.3485 39.9348 56.3485ZM39.9348 58.0285C39.0808 58.0285 38.4648 58.5045 38.4648 59.3725C38.4648 60.1425 39.0108 60.7165 39.9348 60.7165C40.8448 60.7165 41.3768 60.1285 41.3768 59.3725C41.3768 58.5325 40.7888 58.0285 39.9348 58.0285ZM55.9557 58.5745C55.9557 61.0525 54.1637 62.5925 51.8677 62.5925C49.5717 62.5925 47.8357 61.0525 47.8357 58.5745C47.8357 56.0965 49.6137 54.5565 51.8957 54.5565C54.1917 54.5565 55.9557 56.0965 55.9557 58.5745ZM50.2717 58.5745C50.2717 59.8905 50.9997 60.5205 51.8677 60.5205C52.7217 60.5205 53.5197 59.8905 53.5197 58.5745C53.5197 57.2445 52.7357 56.6285 51.8957 56.6285C51.0277 56.6285 50.2717 57.2445 50.2717 58.5745ZM57.4637 62.4805V56.6565H56.5957V54.6685H57.4637V54.4445C57.4637 52.4005 58.7237 51.3925 61.1037 51.5185V53.5485C60.1797 53.4925 59.8577 53.7725 59.8577 54.5985V54.6685H61.1457V56.6565H59.8577V62.4805H57.4637ZM66.1335 62.4805V54.4865H64.7475V52.2605H68.6255V62.4805H66.1335ZM70.2631 57.2305C70.2631 54.2345 71.2851 52.0505 74.1971 52.0505C77.1091 52.0505 78.1311 54.2345 78.1311 57.2305C78.1311 60.2545 77.1091 62.4385 74.1971 62.4385C71.2851 62.4385 70.2631 60.2545 70.2631 57.2305ZM75.7791 57.2305C75.7791 55.6625 75.6111 54.2905 74.1971 54.2905C72.7831 54.2905 72.6151 55.6625 72.6151 57.2305C72.6151 58.8545 72.7831 60.1985 74.1971 60.1985C75.6111 60.1985 75.7791 58.8545 75.7791 57.2305Z" fill="black"/>
</svg>
