<svg width="18" height="18" viewBox="0 0 18 18" fill="none" xmlns="http://www.w3.org/2000/svg">
<mask id="mask0_2494_1447" style="mask-type:luminance" maskUnits="userSpaceOnUse" x="0" y="0" width="18" height="18">
<path d="M8.99993 16.1998C9.94562 16.201 10.8822 16.0153 11.7559 15.6534C12.6296 15.2915 13.4232 14.7605 14.091 14.0909C14.7606 13.4231 15.2916 12.6295 15.6536 11.7558C16.0155 10.8821 16.2011 9.9455 16.1999 8.9998C16.2011 8.05411 16.0154 7.1175 15.6535 6.2438C15.2916 5.3701 14.7606 4.57653 14.091 3.90869C13.4232 3.2391 12.6296 2.70809 11.7559 2.34618C10.8822 1.98426 9.94562 1.79859 8.99993 1.79981C8.05423 1.79861 7.11762 1.98429 6.24392 2.3462C5.37022 2.70812 4.57665 3.23912 3.90881 3.90869C3.23924 4.57653 2.70824 5.3701 2.34633 6.2438C1.98442 7.1175 1.79873 8.05411 1.79993 8.9998C1.79871 9.9455 1.98439 10.8821 2.3463 11.7558C2.70821 12.6295 3.23922 13.4231 3.90881 14.0909C4.57665 14.7605 5.37022 15.2915 6.24392 15.6534C7.11762 16.0153 8.05423 16.201 8.99993 16.1998Z" fill="white" stroke="white" stroke-width="2" stroke-linejoin="round"/>
<path d="M6.11981 8.99935L8.27981 11.1594L12.5998 6.83936" stroke="black" stroke-width="2" stroke-linecap="round" stroke-linejoin="round"/>
</mask>
<g mask="url(#mask0_2494_1447)">
<path d="M0.359985 0.359863H17.64V17.6398H0.359985V0.359863Z" fill="#078E25"/>
</g>
</svg>
