<svg width="83" height="70" viewBox="0 0 83 70" fill="none" xmlns="http://www.w3.org/2000/svg">
<rect x="0.5" y="0.5" width="82" height="69" rx="5.5" fill="#F7F9FA" stroke="#EFEFEF"/>
<path d="M24.0017 45.7997V35.972C24.0017 35.378 24.3072 34.8026 24.8117 34.4786L26.6122 33.2721C27.8002 32.4807 29.4016 33.3261 29.4016 34.7654V45.7997C29.4016 46.7902 28.5916 47.6002 27.601 47.6002H25.8005C24.81 47.6002 24 46.7902 24 45.7997H24.0017ZM58.2181 49.399H25.8022C24.8117 49.399 24.0017 50.2089 24.0017 51.1995C24.0017 52.19 24.8117 53 25.8022 53H58.2198C59.2103 53 60.0203 52.19 60.0203 51.1995C60.0203 50.2089 59.2103 49.399 58.2198 49.399H58.2181ZM58.2181 17H52.8182C51.8277 17 51.0177 17.81 51.0177 18.8005C51.0177 19.7911 51.8277 20.601 52.8182 20.601H52.9617L43.7465 27.7642C42.8286 28.4848 41.3892 28.4476 40.5252 27.6748L37.5907 25.0643C35.5574 23.2469 32.4069 23.0478 30.1035 24.5783L24.8117 28.1068C23.9832 28.6653 23.7672 29.7807 24.3072 30.6093C24.8657 31.4378 25.9811 31.6538 26.8097 31.1138L32.1015 27.5854C33.038 26.9728 34.388 27.0454 35.198 27.7659L38.1324 30.3764C39.2664 31.3838 40.7244 31.8884 42.1823 31.8884C43.5137 31.8884 44.8637 31.475 45.9622 30.611L56.4024 22.4927V24.202C56.4024 25.1926 57.2124 26.0026 58.2029 26.0026C59.1935 26.0026 60.0035 25.1926 60.0035 24.202V18.8022C60.0035 17.8117 59.1935 17.0017 58.2029 17.0017L58.2181 17ZM34.8182 47.5984C35.8088 47.5984 36.6188 46.7885 36.6188 45.7979V34.1697C36.6188 33.5757 36.3133 33.0003 35.8088 32.6763L34.0083 31.4698C32.8203 30.6784 31.2189 31.5238 31.2189 32.9632V45.7962C31.2189 46.7867 32.0289 47.5967 33.0194 47.5967H34.82L34.8182 47.5984ZM43.8174 47.5984C44.8079 47.5984 45.6179 46.7885 45.6179 45.7979V34.9983C45.6179 34.0077 44.8079 33.1978 43.8174 33.1978H40.2181C39.2275 33.1978 38.4175 34.0077 38.4175 34.9983V45.7979C38.4175 46.7885 39.2275 47.5984 40.2181 47.5984H43.8174ZM52.8165 32.9649C52.8165 31.5255 51.2151 30.6616 50.0272 31.4715L48.2267 32.6781C47.7221 33.0206 47.4167 33.5775 47.4167 34.1715V45.7997C47.4167 46.7902 48.2267 47.6002 49.2172 47.6002H51.0177C52.0083 47.6002 52.8182 46.7902 52.8182 45.7997V32.9666L52.8165 32.9649ZM58.2163 27.7997H56.4158C55.4253 27.7997 54.6153 28.6096 54.6153 29.6002V45.7997C54.6153 46.7902 55.4253 47.6002 56.4158 47.6002H58.2163C59.2069 47.6002 60.0168 46.7902 60.0168 45.7997V29.6002C60.0168 28.6096 59.2069 27.7997 58.2163 27.7997Z" fill="#eb5454"/>
</svg>
