<svg width="83" height="70" viewBox="0 0 83 70" fill="none" xmlns="http://www.w3.org/2000/svg">
<rect x="0.5" y="0.5" width="82" height="69" rx="5.5" fill="#F7F9FA" stroke="#EFEFEF"/>
<path d="M53.27 27.3449H52.2063V23.3459H53.27C55.906 23.3459 55.906 27.3449 53.27 27.3449ZM36.2484 22.3927C38.2894 22.3927 39.9448 20.7374 39.9448 18.6963C39.9448 16.6553 38.2894 15 36.2484 15C34.2074 15 32.5521 16.6553 32.5521 18.6963C32.5521 20.7374 34.2074 22.3927 36.2484 22.3927ZM57.3176 47.281L48.0016 49.5383L45.1788 37.8838L49.1864 34.0664L49.5964 34.1875V27.3467H48.8906V23.3477H51.2569V27.3467H50.5511V34.4678L49.5981 34.1876V36.284C49.5981 36.5469 49.8108 36.7596 50.0737 36.7596C50.3366 36.7596 50.5494 36.5469 50.5494 36.284V34.4678L54.4965 35.6284L57.3194 47.2828L57.3176 47.281ZM48.811 42.2371L53.258 41.1612C53.5123 41.099 53.6697 40.843 53.6074 40.5887C53.5452 40.3344 53.2892 40.177 53.0349 40.2393L48.5879 41.3169C48.3336 41.3792 48.1762 41.6352 48.2385 41.8894C48.3008 42.1437 48.5567 42.3011 48.811 42.2388V42.2371ZM52.8879 45.9853C52.8256 45.731 52.5696 45.5736 52.3153 45.6359L49.7831 46.2482C49.5288 46.3105 49.3714 46.5665 49.4337 46.8207C49.4959 47.075 49.7519 47.2324 50.0062 47.1701L52.5385 46.5578C52.7927 46.4956 52.9501 46.2396 52.8879 45.9853ZM54.2059 43.0552C54.1436 42.801 53.8876 42.6436 53.6334 42.7058L49.1863 43.7834C48.9321 43.8457 48.7747 44.1017 48.8369 44.356C48.8992 44.6102 49.1552 44.7676 49.4095 44.7054L53.8565 43.6278C54.1108 43.5655 54.2682 43.3095 54.2059 43.0552ZM47.9376 23.3454L30.5804 23.3437C28.612 23.3437 27 24.9557 27 26.9241V37.1758C27 38.7446 28.7401 39.6959 30.0477 38.8743V28.7851C30.0477 28.3942 30.2604 28.0759 30.5233 28.0759C30.7862 28.0759 30.999 28.3925 30.999 28.7851V52.3761C30.999 53.8203 32.1804 55 33.6229 55C34.5085 55 35.2955 54.5555 35.7712 53.8792V39.63C35.7712 39.367 35.984 39.1543 36.2469 39.1543C36.5098 39.1543 36.7225 39.3671 36.7225 39.63V53.8792C37.1982 54.5555 37.9852 55 38.8708 55C40.3151 55 41.4947 53.8186 41.4947 52.3761V29.4006C41.4947 28.266 42.4201 27.3406 43.5547 27.3406H47.936V23.3416L47.9376 23.3454Z" fill="#EB5454"/>
</svg>
