<svg width="584" height="430" viewBox="0 0 584 430" fill="none" xmlns="http://www.w3.org/2000/svg">
<g clip-path="url(#clip0_867_4087)">
<path d="M524.615 400.592H485.995V400.883H524.615V400.592Z" fill="#eb5454"/>
<path d="M386.226 403.764H376.093V404.055H386.226V403.764Z" fill="#eb5454"/>
<path d="M484.829 389.771H462.452V390.062H484.829V389.771Z" fill="#eb5454"/>
<path d="M111.535 391.729H61.1721V392.021H111.535V391.729Z" fill="#eb5454"/>
<path d="M129.306 391.729H121.924V392.021H129.306V391.729Z" fill="#eb5454"/>
<path d="M262.541 396.65H153.303V396.942H262.541V396.65Z" fill="#eb5454"/>
<path d="M276.37 329.823H51.2137C47.5406 329.823 44.5554 326.838 44.5554 323.165V6.65826C44.5554 2.98514 47.5406 0 51.2137 0H276.37C280.043 0 283.028 2.98514 283.028 6.65826V323.165C283.028 326.838 280.043 329.823 276.37 329.823ZM51.2137 0.291517C47.7038 0.291517 44.8469 3.14839 44.8469 6.65826V323.165C44.8469 326.674 47.7038 329.531 51.2137 329.531H276.37C279.88 329.531 282.737 326.674 282.737 323.165V6.65826C282.737 3.14839 279.88 0.291517 276.37 0.291517H51.2137Z" fill="#eb5454"/>
<path d="M528.591 329.823H303.423C299.75 329.823 296.765 326.838 296.765 323.165V6.65826C296.765 2.98514 299.75 0 303.423 0H528.591C532.264 0 535.25 2.98514 535.25 6.65826V323.165C535.25 326.838 532.264 329.823 528.591 329.823ZM303.423 0.291517C299.913 0.291517 297.056 3.14839 297.056 6.65826V323.165C297.056 326.674 299.913 329.531 303.423 329.531H528.591C532.101 329.531 534.958 326.674 534.958 323.165V6.65826C534.958 3.14839 532.101 0.291517 528.591 0.291517H303.423Z" fill="#eb5454"/>
<path d="M583.035 381.83H0V382.122H583.035V381.83Z" fill="#eb5454"/>
<path d="M100.119 146.703V124H98.3697V146.703C97.2386 147.077 96.4224 148.114 96.4224 149.374V156.568C96.4224 158.119 97.6817 159.39 99.2443 159.39C100.795 159.39 102.066 158.131 102.066 156.568V149.374C102.066 148.126 101.25 147.077 100.119 146.703Z" fill="#E0E0E0"/>
<path d="M108.643 124H105.156V379.673H108.643V124Z" fill="#eb5454"/>
<path d="M129.644 380.722H84.167C84.167 378.367 86.0677 376.466 88.4231 376.466H125.388C127.743 376.466 129.644 378.367 129.644 380.722Z" fill="#E0E0E0"/>
<path d="M105.156 142.074L108.643 140.931V124H105.156V142.074Z" fill="#E0E0E0"/>
<path d="M127.778 70.9551H86.0326L73.2058 126.343H140.605L127.778 70.9551Z" fill="#F0F0F0"/>
<path d="M310.944 86.557V76.6104C309.72 76.6104 309.72 74.7097 310.944 74.7097C314.734 74.7097 318.524 74.6864 322.325 74.6631V88.4694H310.944C309.72 88.4694 309.72 86.5687 310.944 86.5687V86.557Z" fill="#eb5454"/>
<path d="M319.783 76.6221H310.944V86.557H319.783V76.6221Z" fill="#F5F5F5"/>
<path d="M317.929 87.5133H348.562C350.672 87.5133 352.375 84.8663 352.375 81.5897C352.375 78.313 350.672 75.666 348.562 75.666H317.929V87.5133Z" fill="#FAFAFA"/>
<path d="M317.929 74.7099C327.957 74.7099 338.009 74.5233 348.037 74.7099C354.905 74.8381 355.278 88.0031 348.538 88.4578C343.839 88.7843 339.012 88.4578 334.301 88.4578H317.929C316.705 88.4578 316.705 86.5571 317.929 86.5571H346.451C348.655 86.5571 350.229 86.5338 351.08 83.9335C351.815 81.683 351.582 77.1003 348.573 76.6106C348.247 76.5523 347.862 76.6106 347.547 76.6106H317.941C316.716 76.6106 316.716 74.7099 317.941 74.7099H317.929Z" fill="#E6E6E6"/>
<path d="M310.839 73.1358V64.297C309.755 64.297 309.743 62.6062 310.839 62.6062C314.209 62.6062 317.579 62.5829 320.949 62.5596V74.8266H310.839C309.755 74.8266 309.743 73.1358 310.839 73.1358Z" fill="#eb5454"/>
<path d="M318.687 64.2969H310.839V73.124H318.687V64.2969Z" fill="#F5F5F5"/>
<path d="M317.043 73.9749H344.27C346.148 73.9749 347.664 71.6195 347.664 68.7043C347.664 65.7891 346.148 63.4453 344.27 63.4453H317.043V73.9749Z" fill="#FAFAFA"/>
<path d="M317.043 62.6058C325.951 62.6058 334.884 62.4425 343.792 62.6058C349.903 62.7107 350.229 74.418 344.235 74.8262C340.061 75.1177 335.77 74.8262 331.584 74.8262H317.031C315.947 74.8262 315.935 73.1354 317.031 73.1354H342.37C344.329 73.1354 345.728 73.1121 346.474 70.8032C347.127 68.8093 346.917 64.7397 344.247 64.2966C343.956 64.2499 343.617 64.2966 343.326 64.2966H317.019C315.935 64.2966 315.923 62.6058 317.019 62.6058H317.043Z" fill="#E6E6E6"/>
<path d="M310.944 100.072V90.1251C309.72 90.1251 309.72 88.2244 310.944 88.2244C314.734 88.2244 318.524 88.2011 322.325 88.1777V101.984H310.944C309.72 101.984 309.72 100.083 310.944 100.083V100.072Z" fill="#eb5454"/>
<path d="M319.783 90.1367H310.944V100.072H319.783V90.1367Z" fill="#F5F5F5"/>
<path d="M317.929 101.028H348.562C350.672 101.028 352.375 98.3809 352.375 95.1043C352.375 91.8276 350.672 89.1807 348.562 89.1807H317.929V101.028Z" fill="#FAFAFA"/>
<path d="M317.929 88.2245C327.957 88.2245 338.009 88.038 348.037 88.2245C354.905 88.3528 355.278 101.518 348.538 101.972C343.839 102.299 339.012 101.972 334.301 101.972H317.929C316.705 101.972 316.705 100.072 317.929 100.072H346.451C348.655 100.072 350.229 100.048 351.08 97.4481C351.815 95.1976 351.582 90.615 348.573 90.1252C348.247 90.0669 347.862 90.1252 347.547 90.1252H317.941C316.716 90.1252 316.716 88.2245 317.941 88.2245H317.929Z" fill="#E6E6E6"/>
<path d="M386.202 100.445H388.336H450.22V108.654H388.336H386.202H179.866V100.445H386.202Z" fill="#F5F5F5"/>
<path d="M434.921 128.629V108.654H444.902L434.921 128.629Z" fill="#E0E0E0"/>
<path d="M439.911 128.629L449.905 108.654H444.902L434.921 128.629H439.911Z" fill="#F5F5F5"/>
<path d="M194.838 128.629V108.654H184.857L194.838 128.629Z" fill="#E0E0E0"/>
<path d="M189.848 128.629L179.866 108.654H184.857L194.839 128.629H189.848Z" fill="#F5F5F5"/>
<path d="M370.111 80.435C370.111 92.4338 379.836 102.159 391.834 102.159C403.833 102.159 413.558 92.4338 413.558 80.435V79.677C413.558 67.6782 403.833 57.9531 391.834 57.9531C379.836 57.9531 370.111 67.6782 370.111 79.677V80.435Z" fill="#E6E6E6"/>
<path d="M370.111 77.31C370.111 89.3088 379.836 99.0338 391.834 99.0338C403.833 99.0338 413.558 89.3088 413.558 77.31V76.552C413.558 64.5532 403.833 54.8281 391.834 54.8281C379.836 54.8281 370.111 64.5532 370.111 76.552V77.31Z" fill="#F0F0F0"/>
<path d="M374.868 76.5522C374.868 85.9274 382.471 93.5302 391.846 93.5302C401.221 93.5302 408.824 85.9274 408.824 76.5522C408.824 67.177 401.221 59.5742 391.846 59.5742C382.471 59.5742 374.868 67.177 374.868 76.5522Z" fill="#FAFAFA"/>
<path d="M391.834 62.2679C382.914 62.2679 375.614 69.1594 374.926 77.9049C374.891 77.4618 374.856 77.0187 374.856 76.5639C374.856 67.1887 382.459 59.5859 391.834 59.5859C401.21 59.5859 408.812 67.1887 408.812 76.5639C408.812 77.0187 408.777 77.4618 408.742 77.9049C408.054 69.1594 400.755 62.2679 391.834 62.2679Z" fill="#E6E6E6"/>
<path d="M381.118 76.5521H390.039V67.6317C390.039 66.6405 390.843 65.8359 391.834 65.8359C392.826 65.8359 393.63 66.6405 393.63 67.6317V78.3479C393.63 79.339 392.826 80.1436 391.834 80.1436H381.118C380.127 80.1436 379.323 79.339 379.323 78.3479C379.323 77.3567 380.127 76.5521 381.118 76.5521Z" fill="#E0E0E0"/>
<path d="M381.118 78.3474C380.127 78.3474 379.323 77.5428 379.323 76.5516C379.323 75.5604 380.127 74.7559 381.118 74.7559H391.834C392.826 74.7559 393.63 75.5604 393.63 76.5516C393.63 77.5428 392.826 78.3474 391.834 78.3474H381.118Z" fill="#F5F5F5"/>
<path d="M390.039 65.8358C390.039 64.8446 390.843 64.04 391.835 64.04C392.826 64.04 393.63 64.8446 393.63 65.8358V76.552C393.63 77.5431 392.826 78.3477 391.835 78.3477C390.843 78.3477 390.039 77.5431 390.039 76.552V65.8358Z" fill="#eb5454"/>
<path d="M255.323 100.725H268.418V46.3391H255.323V100.725Z" fill="#E0E0E0"/>
<path d="M261.865 93.1328C264.086 93.1328 265.887 91.3317 265.887 89.1099C265.887 86.888 264.086 85.0869 261.865 85.0869C259.643 85.0869 257.842 86.888 257.842 89.1099C257.842 91.3317 259.643 93.1328 261.865 93.1328Z" fill="#FAFAFA"/>
<path opacity="0.6" d="M257.841 77.7881H265.899V51.5982H257.841V77.7881Z" fill="#F0F0F0"/>
<path opacity="0.6" d="M257.841 55.2939H265.899V51.5975H257.841V55.2939Z" fill="#FAFAFA"/>
<path d="M245.493 100.725H256.069V56.7988H245.493V100.725Z" fill="#E6E6E6"/>
<path d="M247.533 91.3383C247.533 93.134 248.991 94.5916 250.787 94.5916C252.582 94.5916 254.04 93.134 254.04 91.3383C254.04 89.5425 252.582 88.085 250.787 88.085C248.991 88.085 247.533 89.5425 247.533 91.3383Z" fill="#FAFAFA"/>
<path opacity="0.6" d="M247.522 82.1846H254.028V61.0321H247.522V82.1846Z" fill="#F0F0F0"/>
<path opacity="0.6" d="M247.522 64.0166H254.028V61.0315H247.522V64.0166Z" fill="#FAFAFA"/>
<path d="M276.872 100.725H289.967V46.3391H276.872V100.725Z" fill="#eb5454"/>
<path d="M283.413 93.1328C285.635 93.1328 287.436 91.3317 287.436 89.1099C287.436 86.888 285.635 85.0869 283.413 85.0869C281.192 85.0869 279.39 86.888 279.39 89.1099C279.39 91.3317 281.192 93.1328 283.413 93.1328Z" fill="#E0E0E0"/>
<path opacity="0.6" d="M279.39 77.7881H287.448V51.5982H279.39V77.7881Z" fill="#FAFAFA"/>
<path opacity="0.6" d="M279.39 55.2939H287.448V51.5975H279.39V55.2939Z" fill="#FAFAFA"/>
<path d="M233.331 100.725H246.426V46.3391H233.331V100.725Z" fill="#E0E0E0"/>
<path d="M239.884 93.1328C242.106 93.1328 243.907 91.3317 243.907 89.1099C243.907 86.888 242.106 85.0869 239.884 85.0869C237.662 85.0869 235.861 86.888 235.861 89.1099C235.861 91.3317 237.662 93.1328 239.884 93.1328Z" fill="#FAFAFA"/>
<path opacity="0.6" d="M235.861 77.7881H243.918V51.5982H235.861V77.7881Z" fill="#F0F0F0"/>
<path opacity="0.6" d="M235.861 55.2939H243.918V51.5975H235.861V55.2939Z" fill="#FAFAFA"/>
<path d="M214.657 99.8968L227.68 101.266L233.365 47.178L220.342 45.8092L214.657 99.8968Z" fill="#eb5454"/>
<path d="M218.37 88.5974C218.137 90.813 219.746 92.7953 221.95 93.0285C224.165 93.2617 226.148 91.6525 226.381 89.4486C226.614 87.2331 225.005 85.2508 222.801 85.0176C220.585 84.7844 218.603 86.3935 218.37 88.5974Z" fill="#E0E0E0"/>
<path opacity="0.6" d="M219.565 77.3316L227.579 78.1738L230.316 52.1274L222.303 51.2851L219.565 77.3316Z" fill="#F5F5F5"/>
<path opacity="0.6" d="M221.91 54.9605L229.924 55.8027L230.31 52.1265L222.297 51.2843L221.91 54.9605Z" fill="#FAFAFA"/>
<path d="M267.473 100.725H278.049V56.7988H267.473V100.725Z" fill="#E6E6E6"/>
<path d="M269.514 91.3383C269.514 93.134 270.971 94.5916 272.767 94.5916C274.563 94.5916 276.02 93.134 276.02 91.3383C276.02 89.5425 274.563 88.085 272.767 88.085C270.971 88.085 269.514 89.5425 269.514 91.3383Z" fill="#FAFAFA"/>
<path opacity="0.6" d="M269.514 82.1846H276.021V61.0321H269.514V82.1846Z" fill="#F0F0F0"/>
<path opacity="0.6" d="M269.514 64.0166H276.021V61.0315H269.514V64.0166Z" fill="#FAFAFA"/>
<path d="M285.897 430C410.763 430 511.986 424.091 511.986 416.801C511.986 409.51 410.763 403.601 285.897 403.601C161.031 403.601 59.8076 409.51 59.8076 416.801C59.8076 424.091 161.031 430 285.897 430Z" fill="#F5F5F5"/>
<path d="M290.853 256.361H269.001L279.495 223.128H301.348L290.853 256.361Z" fill="#eb5454"/>
<path opacity="0.2" d="M276.429 232.83H298.281L301.348 223.128H279.495L276.429 232.83Z" fill="black"/>
<path d="M308.146 254.25H266.331V259.299H308.146V254.25Z" fill="#eb5454"/>
<path opacity="0.5" d="M308.146 254.25H266.331V259.299H308.146V254.25Z" fill="white"/>
<path opacity="0.6" d="M287.238 254.25H266.331V259.299H287.238V254.25Z" fill="white"/>
<path d="M470.171 215.91L462.557 128.874L343.373 139.392H223.267L102.241 128.874L99.9089 131.206L107.523 218.242L228.55 228.76H348.655L467.839 218.242L470.171 215.91Z" fill="#eb5454"/>
<path opacity="0.2" d="M470.171 215.909L462.557 128.874L343.373 139.392H223.267L102.241 128.874L109.855 215.909L230.882 226.427H350.987L470.171 215.909Z" fill="white"/>
<path opacity="0.8" d="M459.39 132.72L347.142 142.54L354.144 222.577L466.392 212.756L459.39 132.72Z" fill="white"/>
<path opacity="0.5" d="M368.21 150.644C367.522 150.702 366.927 150.201 366.869 149.513C366.811 148.825 367.312 148.219 368 148.16L396.231 145.676C396.919 145.618 397.513 146.12 397.572 146.808C397.63 147.496 397.129 148.102 396.441 148.16L368.21 150.644Z" fill="#263238"/>
<g opacity="0.5">
<path opacity="0.5" d="M368.21 150.644C367.522 150.702 366.927 150.201 366.869 149.513C366.811 148.825 367.312 148.219 368 148.16L396.231 145.676C396.919 145.618 397.513 146.12 397.572 146.808C397.63 147.496 397.129 148.102 396.441 148.16L368.21 150.644Z" fill="white"/>
</g>
<path opacity="0.5" d="M414.141 146.586C413.453 146.645 412.859 146.143 412.801 145.455C412.742 144.767 413.244 144.161 413.932 144.103L442.162 141.619C442.85 141.561 443.445 142.062 443.503 142.75C443.561 143.438 443.06 144.044 442.372 144.103L414.141 146.586Z" fill="#263238"/>
<g opacity="0.5">
<path opacity="0.5" d="M414.141 146.586C413.453 146.645 412.859 146.143 412.801 145.455C412.742 144.767 413.244 144.161 413.932 144.103L442.162 141.619C442.85 141.561 443.445 142.062 443.503 142.75C443.561 143.438 443.06 144.044 442.372 144.103L414.141 146.586Z" fill="white"/>
</g>
<path d="M398.178 165.827C398.878 173.791 393.036 180.811 385.13 181.511C377.224 182.21 370.251 176.322 369.563 168.357C368.863 160.393 374.705 153.373 382.611 152.674C390.517 151.974 397.49 157.863 398.178 165.827Z" fill="#eb5454"/>
<g opacity="0.9">
<path d="M377.655 174.573L376.023 174.713C375.603 174.748 375.23 174.433 375.195 174.013L374.519 166.294C374.484 165.874 374.798 165.489 375.218 165.454L376.851 165.314C377.27 165.279 377.644 165.594 377.679 166.014L378.355 173.733C378.39 174.153 378.075 174.538 377.655 174.573Z" fill="white"/>
<path d="M379.789 164.743C380.839 163.693 383.474 160.767 383.462 157.607C383.462 156.056 385.596 155.403 386.378 156.732C386.961 157.735 387.1 159.659 386.051 163.262L390.086 162.912C391.158 162.819 392.196 163.379 392.709 164.335C393.012 164.894 393.106 165.536 392.989 166.166L391.811 172.252C391.555 173.605 390.33 174.55 388.955 174.456L381.247 173.908C380.605 173.862 380.092 173.36 380.034 172.719L379.428 165.781C379.393 165.396 379.521 165.011 379.801 164.743H379.789Z" fill="white"/>
</g>
<path opacity="0.9" d="M444.11 161.78C443.41 153.816 436.437 147.927 428.543 148.627C420.637 149.326 414.795 156.346 415.494 164.31C416.194 172.275 423.167 178.163 431.061 177.464C438.967 176.764 444.809 169.744 444.11 161.78Z" fill="white"/>
<path d="M422.374 156.755L420.742 156.895C420.322 156.93 420.007 157.303 420.042 157.734L420.718 165.453C420.753 165.873 421.126 166.188 421.546 166.153L423.179 166.013C423.598 165.978 423.913 165.605 423.878 165.174L423.202 157.454C423.167 157.034 422.794 156.72 422.374 156.755Z" fill="#eb5454"/>
<path d="M426.187 166.06C427.4 166.899 430.502 169.336 431.038 172.45C431.306 173.977 433.522 174.257 434.058 172.799C434.455 171.703 434.256 169.791 432.601 166.433L436.635 166.083C437.708 165.99 438.629 165.255 438.967 164.229C439.166 163.622 439.154 162.969 438.921 162.375L436.705 156.579C436.215 155.285 434.839 154.574 433.51 154.912L426.012 156.801C425.394 156.953 424.974 157.547 425.033 158.189L425.639 165.127C425.674 165.511 425.872 165.861 426.187 166.083V166.06Z" fill="#eb5454"/>
<path d="M380.164 203.42L371.65 204.171L372.519 214.021L381.033 213.27L380.164 203.42Z" fill="#eb5454"/>
<path opacity="0.9" d="M388.871 204.826L380.357 205.577L381.036 213.278L389.55 212.527L388.871 204.826Z" fill="white"/>
<path opacity="0.9" d="M405.018 193.316L396.504 194.067L398.065 211.77L406.579 211.019L405.018 193.316Z" fill="white"/>
<path opacity="0.9" d="M421.858 189.708L413.343 190.459L415.091 210.275L423.605 209.524L421.858 189.708Z" fill="white"/>
<path opacity="0.9" d="M439.282 192.614L430.768 193.365L432.126 208.768L440.64 208.017L439.282 192.614Z" fill="white"/>
<path d="M396.639 195.658L388.125 196.409L389.546 212.52L398.06 211.769L396.639 195.658Z" fill="#eb5454"/>
<path d="M413.164 188.335L404.65 189.086L406.584 211.016L415.098 210.265L413.164 188.335Z" fill="#eb5454"/>
<path d="M430.56 191.057L422.046 191.808L423.607 209.51L432.122 208.759L430.56 191.057Z" fill="#eb5454"/>
<path d="M446.724 179.755L438.21 180.506L440.636 208.012L449.15 207.261L446.724 179.755Z" fill="#eb5454"/>
<path opacity="0.8" d="M106.066 132.688L113.074 212.727L227.045 222.615L220.049 142.576L106.066 132.688Z" fill="white"/>
<path d="M187.469 169.745L126.297 164.439C123.72 164.218 121.446 161.955 121.225 159.402L120.455 150.586C120.234 148.033 122.134 146.132 124.711 146.365L185.883 151.671C188.46 151.892 190.734 154.154 190.956 156.708L191.725 165.524C191.947 168.077 190.046 169.978 187.469 169.745Z" fill="white"/>
<path d="M136.418 156.334C136.687 159.389 134.401 161.652 131.323 161.383C128.244 161.115 125.527 158.422 125.259 155.355C124.991 152.3 127.276 150.038 130.355 150.306C133.433 150.574 136.15 153.268 136.418 156.334Z" fill="#eb5454"/>
<path d="M143.555 153.851C142.89 153.793 142.296 153.21 142.237 152.545C142.179 151.88 142.68 151.391 143.345 151.449L180.834 154.702C181.499 154.761 182.094 155.344 182.152 156.008C182.21 156.673 181.709 157.163 181.044 157.104L143.555 153.851Z" fill="#263238"/>
<path d="M144.313 162.527C143.648 162.469 143.054 161.886 142.995 161.221C142.937 160.556 143.438 160.067 144.103 160.125L166.06 162.026C166.725 162.084 167.32 162.667 167.378 163.332C167.436 163.996 166.935 164.486 166.27 164.428L144.313 162.527Z" fill="#263238"/>
<path d="M143.94 158.189C143.275 158.131 142.68 157.548 142.622 156.883C142.564 156.218 143.065 155.729 143.73 155.787L175.529 158.551C176.193 158.609 176.788 159.192 176.846 159.857C176.905 160.521 176.403 161.011 175.738 160.953L143.94 158.189Z" fill="#263238"/>
<g opacity="0.5">
<path d="M143.555 153.851C142.89 153.793 142.296 153.21 142.237 152.545C142.179 151.88 142.68 151.391 143.345 151.449L180.834 154.702C181.499 154.761 182.094 155.344 182.152 156.008C182.21 156.673 181.709 157.163 181.044 157.104L143.555 153.851Z" fill="white"/>
<path d="M144.313 162.527C143.648 162.469 143.054 161.886 142.995 161.221C142.937 160.556 143.438 160.067 144.103 160.125L166.06 162.026C166.725 162.084 167.32 162.667 167.378 163.332C167.436 163.996 166.935 164.486 166.27 164.428L144.313 162.527Z" fill="white"/>
<path d="M143.94 158.189C143.275 158.131 142.68 157.548 142.622 156.883C142.564 156.218 143.065 155.729 143.73 155.787L175.529 158.551C176.193 158.609 176.788 159.192 176.846 159.857C176.905 160.521 176.403 161.011 175.738 160.953L143.94 158.189Z" fill="white"/>
</g>
<path d="M190.664 143.31L183.516 142.762C182.537 142.692 181.814 143.415 181.907 144.394L182.49 150.341C182.583 151.32 183.458 152.172 184.437 152.242L186.501 152.405L187.516 153.851C187.866 154.341 188.554 154.387 188.799 153.944L189.521 152.603L191.574 152.766C192.565 152.848 193.276 152.113 193.183 151.134L192.6 145.199C192.507 144.219 191.632 143.368 190.641 143.298L190.664 143.31Z" fill="#eb5454"/>
<g opacity="0.9">
<path d="M185.16 148.137C184.542 147.531 184.251 146.913 184.193 146.365C184.111 145.444 184.682 144.872 185.627 144.954C186.501 145.036 186.84 145.455 187.411 146.085C187.877 145.549 188.134 145.164 189.02 145.246C189.965 145.327 190.641 146.003 190.723 146.925C190.769 147.461 190.571 148.056 190.058 148.557L187.831 150.761L185.184 148.137H185.16Z" fill="white"/>
</g>
<path d="M204.191 192.379L143.019 187.073C140.441 186.851 138.168 184.589 137.946 182.036L137.176 173.22C136.955 170.666 138.856 168.766 141.433 168.999L202.605 174.304C205.182 174.526 207.456 176.788 207.677 179.342L208.447 188.157C208.668 190.711 206.768 192.612 204.191 192.379Z" fill="white"/>
<path d="M153.128 178.98C153.397 182.035 151.111 184.297 148.033 184.029C144.954 183.761 142.237 181.067 141.969 178C141.701 174.945 143.986 172.683 147.065 172.951C150.143 173.219 152.86 175.913 153.128 178.98Z" fill="#eb5454"/>
<path d="M160.276 176.497C159.612 176.438 159.017 175.855 158.959 175.191C158.9 174.526 159.402 174.036 160.066 174.095L197.556 177.348C198.22 177.406 198.815 177.989 198.873 178.654C198.932 179.319 198.43 179.808 197.766 179.75L160.276 176.497Z" fill="#263238"/>
<path d="M161.034 185.161C160.37 185.102 159.775 184.519 159.717 183.855C159.658 183.19 160.16 182.7 160.825 182.759L182.782 184.659C183.446 184.718 184.041 185.301 184.099 185.965C184.158 186.63 183.656 187.12 182.992 187.061L161.034 185.161Z" fill="#263238"/>
<path d="M160.661 180.835C159.996 180.776 159.402 180.193 159.343 179.529C159.285 178.864 159.787 178.374 160.451 178.432L192.25 181.196C192.915 181.254 193.509 181.837 193.568 182.502C193.626 183.167 193.125 183.656 192.46 183.598L160.661 180.835Z" fill="#263238"/>
<g opacity="0.5">
<path d="M160.276 176.497C159.612 176.438 159.017 175.855 158.959 175.191C158.9 174.526 159.402 174.036 160.066 174.095L197.556 177.348C198.22 177.406 198.815 177.989 198.873 178.654C198.932 179.319 198.43 179.808 197.766 179.75L160.276 176.497Z" fill="white"/>
<path d="M161.034 185.161C160.37 185.102 159.775 184.519 159.717 183.855C159.658 183.19 160.16 182.7 160.825 182.759L182.782 184.659C183.446 184.718 184.041 185.301 184.099 185.965C184.158 186.63 183.656 187.12 182.992 187.061L161.034 185.161Z" fill="white"/>
<path d="M160.661 180.835C159.996 180.776 159.402 180.193 159.343 179.529C159.285 178.864 159.787 178.374 160.451 178.432L192.25 181.196C192.915 181.254 193.509 181.837 193.568 182.502C193.626 183.167 193.125 183.656 192.46 183.598L160.661 180.835Z" fill="white"/>
</g>
<path d="M207.386 165.943L200.238 165.395C199.258 165.325 198.535 166.048 198.628 167.028L199.211 172.975C199.305 173.954 200.179 174.805 201.159 174.875L203.223 175.039L204.237 176.485C204.587 176.974 205.275 177.021 205.52 176.578L206.243 175.237L208.295 175.4C209.286 175.482 209.998 174.747 209.904 173.768L209.321 167.832C209.228 166.853 208.353 166.002 207.362 165.932L207.386 165.943Z" fill="#eb5454"/>
<g opacity="0.9">
<path d="M201.882 170.783C201.264 170.177 200.961 169.559 200.914 169.01C200.832 168.089 201.404 167.518 202.348 167.6C203.223 167.681 203.561 168.101 204.132 168.731C204.599 168.194 204.855 167.809 205.742 167.891C206.686 167.973 207.362 168.649 207.444 169.57C207.491 170.107 207.292 170.701 206.779 171.203L204.552 173.407L201.905 170.783H201.882Z" fill="white"/>
</g>
<path d="M196.203 214.312L135.031 209.007C132.454 208.785 130.18 206.523 129.959 203.969L129.189 195.154C128.967 192.6 130.868 190.699 133.445 190.932L194.617 196.238C197.194 196.46 199.468 198.722 199.69 201.275L200.459 210.091C200.681 212.645 198.78 214.545 196.203 214.312Z" fill="white"/>
<path d="M145.141 200.913C145.409 203.969 143.124 206.231 140.045 205.963C136.967 205.694 134.25 203.001 133.982 199.934C133.713 196.879 135.999 194.617 139.077 194.885C142.156 195.153 144.873 197.847 145.141 200.913Z" fill="#eb5454"/>
<path d="M152.289 198.43C151.624 198.372 151.029 197.789 150.971 197.124C150.913 196.46 151.414 195.97 152.079 196.028L189.568 199.281C190.233 199.34 190.827 199.923 190.886 200.587C190.944 201.252 190.443 201.742 189.778 201.684L152.289 198.43Z" fill="#263238"/>
<path d="M153.047 207.094C152.382 207.036 151.788 206.453 151.729 205.788C151.671 205.124 152.172 204.634 152.837 204.692L183.015 207.316C183.68 207.374 184.274 207.957 184.333 208.622C184.391 209.287 183.889 209.776 183.225 209.718L153.047 207.094Z" fill="#263238"/>
<path d="M152.662 202.768C151.997 202.71 151.403 202.127 151.344 201.462C151.286 200.797 151.787 200.308 152.452 200.366L179.551 202.722C180.216 202.78 180.811 203.363 180.869 204.027C180.927 204.692 180.426 205.182 179.761 205.124L152.662 202.768Z" fill="#263238"/>
<g opacity="0.5">
<path d="M152.289 198.43C151.624 198.372 151.029 197.789 150.971 197.124C150.913 196.46 151.414 195.97 152.079 196.028L189.568 199.281C190.233 199.34 190.827 199.923 190.886 200.587C190.944 201.252 190.443 201.742 189.778 201.684L152.289 198.43Z" fill="white"/>
<path d="M153.047 207.094C152.382 207.036 151.788 206.453 151.729 205.788C151.671 205.124 152.172 204.634 152.837 204.692L183.015 207.316C183.68 207.374 184.274 207.957 184.333 208.622C184.391 209.287 183.889 209.776 183.225 209.718L153.047 207.094Z" fill="white"/>
<path d="M152.662 202.768C151.997 202.71 151.403 202.127 151.344 201.462C151.286 200.797 151.787 200.308 152.452 200.366L179.551 202.722C180.216 202.78 180.811 203.363 180.869 204.027C180.927 204.692 180.426 205.182 179.761 205.124L152.662 202.768Z" fill="white"/>
</g>
<path d="M199.596 190.232L192.448 189.684C191.469 189.614 190.746 190.337 190.839 191.317L191.422 197.264C191.515 198.243 192.39 199.095 193.37 199.165L195.433 199.328L196.448 200.774C196.798 201.263 197.486 201.31 197.731 200.867L198.454 199.526L200.506 199.689C201.497 199.771 202.208 199.036 202.115 198.057L201.532 192.121C201.439 191.142 200.564 190.291 199.573 190.221L199.596 190.232Z" fill="#eb5454"/>
<path opacity="0.9" d="M194.139 196.903C193.848 196.879 193.591 196.623 193.568 196.331L193.393 194.326C193.37 194.034 193.579 193.824 193.871 193.847C194.162 193.871 194.419 194.127 194.442 194.419L194.617 196.424C194.641 196.716 194.431 196.926 194.139 196.903Z" fill="white"/>
<path opacity="0.9" d="M195.13 193.859C195.48 193.579 196.366 192.774 196.366 191.748C196.366 191.247 197.078 191.153 197.346 191.632C197.544 191.993 197.591 192.623 197.229 193.73L198.582 193.847C198.943 193.882 199.293 194.115 199.456 194.465C199.561 194.663 199.585 194.885 199.55 195.071L199.153 196.984C199.06 197.404 198.652 197.648 198.197 197.532L195.62 196.914C195.41 196.867 195.235 196.669 195.212 196.459L195.014 194.174C195.014 194.045 195.049 193.929 195.142 193.859H195.13Z" fill="white"/>
<path opacity="0.8" d="M227.069 142.891L234.065 222.93H347.186L340.178 142.891H227.069Z" fill="white"/>
<g opacity="0.2">
<path d="M230.544 222.556C230.066 222.556 229.634 222.16 229.588 221.682L227.384 196.483C227.337 196.005 227.699 195.608 228.177 195.608C228.655 195.608 229.086 196.005 229.133 196.483L231.337 221.682C231.383 222.16 231.022 222.556 230.544 222.556Z" fill="black"/>
</g>
<g opacity="0.2">
<path d="M227.932 192.681C227.454 192.681 227.022 192.285 226.976 191.807L223.851 156.043C223.804 155.565 224.166 155.169 224.644 155.169C225.122 155.169 225.553 155.565 225.6 156.043L228.725 191.807C228.772 192.285 228.41 192.681 227.932 192.681Z" fill="black"/>
</g>
<g opacity="0.2">
<path d="M224.41 152.452C223.932 152.452 223.501 152.056 223.454 151.578L222.801 144.127C222.755 143.648 223.116 143.252 223.594 143.252C224.072 143.252 224.504 143.648 224.55 144.127L225.203 151.578C225.25 152.056 224.888 152.452 224.41 152.452Z" fill="black"/>
</g>
<g opacity="0.2">
<path d="M350.649 222.557C350.171 222.557 349.74 222.16 349.693 221.682L346.486 185.009C346.44 184.531 346.801 184.135 347.279 184.135C347.757 184.135 348.189 184.531 348.235 185.009L351.442 221.682C351.489 222.16 351.127 222.557 350.649 222.557Z" fill="black"/>
</g>
<g opacity="0.2">
<path d="M347.069 181.604C346.591 181.604 346.16 181.207 346.113 180.729L343.618 152.161C343.571 151.683 343.932 151.286 344.41 151.286C344.889 151.286 345.32 151.683 345.367 152.161L347.862 180.729C347.909 181.207 347.547 181.604 347.069 181.604Z" fill="black"/>
</g>
<g opacity="0.2">
<path d="M344.107 147.858C343.629 147.858 343.198 147.462 343.151 146.983L342.906 144.138C342.86 143.66 343.221 143.264 343.699 143.264C344.177 143.264 344.609 143.66 344.656 144.138L344.9 146.983C344.947 147.462 344.586 147.858 344.107 147.858Z" fill="black"/>
</g>
<path d="M326.99 178.117C326.931 177.452 327.421 176.916 328.086 176.916C328.75 176.916 329.333 177.452 329.392 178.117L330.779 193.929C330.838 194.594 330.348 195.13 329.683 195.13C329.019 195.13 328.435 194.594 328.377 193.929L326.99 178.117Z" fill="#eb5454"/>
<path d="M235.581 149.618C234.917 149.618 234.334 149.082 234.275 148.417C234.217 147.752 234.707 147.216 235.371 147.216H262.844C263.509 147.216 264.092 147.752 264.15 148.417C264.208 149.082 263.718 149.618 263.054 149.618H235.581Z" fill="#263238"/>
<path d="M236.339 158.294C235.675 158.294 235.092 157.757 235.033 157.093C234.975 156.428 235.465 155.892 236.129 155.892H258.938C259.602 155.892 260.185 156.428 260.244 157.093C260.302 157.757 259.812 158.294 259.148 158.294H236.339Z" fill="#263238"/>
<path d="M235.954 153.956C235.29 153.956 234.707 153.419 234.648 152.755C234.59 152.09 235.08 151.554 235.744 151.554H253.888C254.553 151.554 255.136 152.09 255.194 152.755C255.253 153.419 254.763 153.956 254.098 153.956H235.954Z" fill="#263238"/>
<g opacity="0.5">
<path d="M235.581 149.618C234.917 149.618 234.334 149.082 234.275 148.417C234.217 147.752 234.707 147.216 235.371 147.216H262.844C263.509 147.216 264.092 147.752 264.15 148.417C264.208 149.082 263.718 149.618 263.054 149.618H235.581Z" fill="white"/>
<path d="M236.339 158.294C235.675 158.294 235.092 157.757 235.033 157.093C234.975 156.428 235.465 155.892 236.129 155.892H258.938C259.602 155.892 260.185 156.428 260.244 157.093C260.302 157.757 259.812 158.294 259.148 158.294H236.339Z" fill="white"/>
<path d="M235.954 153.956C235.29 153.956 234.707 153.419 234.648 152.755C234.59 152.09 235.08 151.554 235.744 151.554H253.888C254.553 151.554 255.136 152.09 255.194 152.755C255.253 153.419 254.763 153.956 254.098 153.956H235.954Z" fill="white"/>
</g>
<path d="M333.554 168.264C333.858 171.704 331.316 174.491 327.876 174.491C324.436 174.491 321.404 171.704 321.112 168.264C320.809 164.824 323.351 162.037 326.791 162.037C330.231 162.037 333.263 164.824 333.554 168.264Z" fill="#eb5454"/>
<path d="M324.272 171.237C323.888 171.237 323.561 170.934 323.526 170.549L323.293 167.925C323.258 167.54 323.538 167.237 323.923 167.237C324.307 167.237 324.634 167.54 324.669 167.925L324.902 170.549C324.937 170.934 324.657 171.237 324.272 171.237Z" fill="white"/>
<path d="M325.555 167.109C326.01 166.701 327.153 165.547 327.153 164.194C327.153 163.529 328.086 163.331 328.424 163.938C328.68 164.392 328.739 165.22 328.284 166.725H330.033C330.499 166.725 330.954 167.004 331.176 167.436C331.304 167.692 331.351 167.972 331.292 168.229L330.779 170.794C330.663 171.365 330.138 171.727 329.543 171.634L326.185 171.109C325.905 171.062 325.683 170.829 325.66 170.549L325.404 167.552C325.392 167.389 325.45 167.226 325.567 167.121L325.555 167.109Z" fill="white"/>
<path d="M336.656 203.794C336.353 200.354 333.321 197.567 329.893 197.567C326.465 197.567 323.911 200.354 324.214 203.794C324.517 207.234 327.549 210.021 330.977 210.021C334.406 210.021 336.959 207.234 336.656 203.794Z" fill="#eb5454"/>
<path d="M326.861 200.82C326.476 200.82 326.196 201.123 326.231 201.508L326.465 204.132C326.5 204.517 326.838 204.82 327.211 204.82C327.596 204.82 327.876 204.517 327.841 204.132L327.607 201.508C327.572 201.123 327.234 200.82 326.861 200.82Z" fill="white"/>
<path d="M328.867 204.948C329.392 205.356 330.744 206.511 330.977 207.863C331.094 208.528 332.062 208.726 332.295 208.12C332.47 207.665 332.388 206.837 331.665 205.333H333.415C333.881 205.333 334.277 205.053 334.429 204.622C334.511 204.365 334.511 204.085 334.406 203.829L333.438 201.263C333.228 200.692 332.633 200.331 332.05 200.424L328.785 200.949C328.517 200.995 328.33 201.228 328.354 201.508L328.61 204.505C328.622 204.668 328.704 204.832 328.844 204.936L328.867 204.948Z" fill="white"/>
<path d="M311.476 209.344C323.233 197.063 321.895 176.702 308.488 163.868C295.081 151.033 274.681 150.585 262.924 162.866C251.168 175.147 252.505 195.508 265.913 208.343C279.32 221.177 299.719 221.626 311.476 209.344Z" fill="#eb5454"/>
<path opacity="0.6" d="M307.948 163.343C301.616 157.524 293.267 153.921 284.381 153.921C266.622 153.921 253.48 168.322 255.031 186.081H287.191L307.948 163.343Z" fill="white"/>
<path opacity="0.2" d="M262.459 163.343L287.191 186.081L284.381 153.921C275.496 153.921 267.776 157.524 262.459 163.343Z" fill="black"/>
<path d="M262.459 163.343L287.191 186.081L284.381 153.921C275.496 153.921 267.776 157.524 262.459 163.343Z" fill="#eb5454"/>
<path opacity="0.3" d="M262.459 163.343L287.191 186.081L284.381 153.921C275.496 153.921 267.776 157.524 262.459 163.343Z" fill="black"/>
<path opacity="0.3" d="M290.013 218.241C307.773 218.241 320.914 203.84 319.363 186.081H287.203L266.447 208.819C272.779 214.638 281.128 218.241 290.013 218.241Z" fill="white"/>
<path d="M311.061 212.749C311.434 217.064 308.239 220.562 303.925 220.562C299.61 220.562 295.797 217.064 295.424 212.749C295.051 208.435 298.246 204.937 302.56 204.937C306.875 204.937 310.688 208.435 311.061 212.749Z" fill="#263238"/>
<path d="M300.52 214.044C299.808 213.402 299.458 212.691 299.4 212.061C299.307 210.977 299.96 210.266 301.056 210.266C302.07 210.266 302.467 210.732 303.12 211.42C303.656 210.732 303.96 210.266 304.974 210.266C306.07 210.266 306.851 210.989 306.945 212.061C307.003 212.691 306.781 213.402 306.175 214.044L303.598 216.854L300.52 214.044Z" fill="#eb5454"/>
<path d="M266.948 173.57C267.321 177.884 264.126 181.382 259.812 181.382C255.498 181.382 251.685 177.884 251.311 173.57C250.938 169.255 254.133 165.757 258.448 165.757C262.762 165.757 266.575 169.255 266.948 173.57Z" fill="#263238"/>
<path d="M264.057 173.569C264.29 176.286 262.284 178.49 259.567 178.49C256.85 178.49 254.448 176.286 254.215 173.569C253.982 170.852 255.987 168.648 258.704 168.648C261.421 168.648 263.823 170.852 264.057 173.569Z" fill="#eb5454"/>
<path opacity="0.5" d="M264.057 173.569C264.29 176.286 262.284 178.49 259.567 178.49C256.85 178.49 254.448 176.286 254.215 173.569C253.982 170.852 255.987 168.648 258.704 168.648C261.421 168.648 263.823 170.852 264.057 173.569Z" fill="white"/>
<path d="M260.932 174.618C260.01 175.54 258.588 175.54 257.503 174.618C257.072 174.245 256.524 174.852 256.955 175.213C258.413 176.449 260.337 176.449 261.573 175.213C261.946 174.84 261.293 174.245 260.92 174.618H260.932Z" fill="#eb5454"/>
<path d="M257.818 171.972C257.865 172.508 257.713 172.94 257.48 172.94C257.247 172.94 257.025 172.508 256.979 171.972C256.932 171.435 257.084 171.004 257.317 171.004C257.55 171.004 257.772 171.435 257.818 171.972Z" fill="#eb5454"/>
<path d="M261.002 171.972C261.048 172.508 260.897 172.94 260.663 172.94C260.43 172.94 260.209 172.508 260.162 171.972C260.115 171.435 260.267 171.004 260.5 171.004C260.733 171.004 260.955 171.435 261.002 171.972Z" fill="#eb5454"/>
<path d="M314.687 166.468C315.061 170.782 311.865 174.281 307.551 174.281C303.237 174.281 299.424 170.782 299.05 166.468C298.677 162.153 301.872 158.655 306.187 158.655C310.501 158.655 314.314 162.153 314.687 166.468Z" fill="#263238"/>
<path d="M311.796 166.468C312.029 169.185 310.023 171.389 307.306 171.389C304.589 171.389 302.187 169.185 301.954 166.468C301.721 163.751 303.726 161.547 306.443 161.547C309.16 161.547 311.562 163.751 311.796 166.468Z" fill="#eb5454"/>
<path opacity="0.5" d="M311.796 166.468C312.029 169.185 310.023 171.389 307.306 171.389C304.589 171.389 302.187 169.185 301.954 166.468C301.721 163.751 303.726 161.547 306.443 161.547C309.16 161.547 311.562 163.751 311.796 166.468Z" fill="white"/>
<path d="M305.37 168.916C306.292 167.995 307.714 167.995 308.799 168.916C309.23 169.289 309.778 168.683 309.347 168.322C307.889 167.086 305.965 167.086 304.729 168.322C304.356 168.695 305.009 169.289 305.382 168.916H305.37Z" fill="#eb5454"/>
<path d="M305.557 164.858C305.604 165.395 305.452 165.826 305.219 165.826C304.986 165.826 304.764 165.395 304.717 164.858C304.671 164.322 304.822 163.891 305.056 163.891C305.289 163.891 305.51 164.322 305.557 164.858Z" fill="#eb5454"/>
<path d="M308.74 164.858C308.787 165.395 308.635 165.826 308.402 165.826C308.169 165.826 307.947 165.395 307.901 164.858C307.854 164.322 308.006 163.891 308.239 163.891C308.472 163.891 308.694 164.322 308.74 164.858Z" fill="#eb5454"/>
<path d="M267.601 197.568C267.975 201.882 264.78 205.38 260.465 205.38C256.151 205.38 252.338 201.882 251.964 197.568C251.591 193.253 254.786 189.755 259.101 189.755C263.415 189.755 267.228 193.253 267.601 197.568Z" fill="#263238"/>
<path d="M264.71 197.567C264.943 200.284 262.937 202.488 260.22 202.488C257.503 202.488 255.101 200.284 254.868 197.567C254.635 194.85 256.64 192.646 259.357 192.646C262.074 192.646 264.476 194.85 264.71 197.567Z" fill="#eb5454"/>
<path opacity="0.5" d="M264.71 197.567C264.943 200.284 262.937 202.488 260.22 202.488C257.503 202.488 255.101 200.284 254.868 197.567C254.635 194.85 256.64 192.646 259.357 192.646C262.074 192.646 264.476 194.85 264.71 197.567Z" fill="white"/>
<path d="M257.48 199.13C258.949 200.482 261.142 200.482 262.366 199.13L262.296 198.302H257.41L257.48 199.13Z" fill="#eb5454"/>
<path d="M259.136 196.087C258.425 195.515 257.608 195.515 256.99 196.087C256.699 196.355 257.189 196.798 257.48 196.53C257.842 196.192 258.308 196.192 258.728 196.53C259.066 196.798 259.474 196.343 259.136 196.087Z" fill="#eb5454"/>
<path d="M262.319 196.087C261.608 195.515 260.792 195.515 260.174 196.087C259.882 196.355 260.372 196.798 260.663 196.53C261.025 196.192 261.491 196.192 261.911 196.53C262.249 196.798 262.657 196.343 262.319 196.087Z" fill="#eb5454"/>
<path d="M348.515 253.422H312.355V259.299H384.687V256.885L348.515 253.422Z" fill="#eb5454"/>
<path opacity="0.6" d="M348.515 253.422H312.355V259.299H384.687V256.885L348.515 253.422Z" fill="white"/>
<path opacity="0.6" d="M348.515 259.299H312.355V253.422L348.515 256.885V259.299Z" fill="white"/>
<g opacity="0.5">
<path d="M464.364 189.545L459.397 132.688L452.657 133.282L423.82 216.481L456.015 213.636L464.364 189.545Z" fill="white"/>
</g>
<g opacity="0.5">
<path d="M311.236 222.93L338.988 142.891H307.772L280.02 222.93H311.236Z" fill="white"/>
</g>
<path opacity="0.5" d="M198.313 220.119L221.087 154.446L220.049 142.575L194.745 140.383L168.007 217.495L198.313 220.119Z" fill="white"/>
<path d="M175.19 263.835H407.541V268.791C407.541 269.899 406.643 270.796 405.536 270.796H177.196C176.088 270.796 175.19 269.899 175.19 268.791V263.835Z" fill="#eb5454"/>
<path opacity="0.2" d="M175.19 263.835H407.541V268.791C407.541 269.899 406.643 270.796 405.536 270.796H177.196C176.088 270.796 175.19 269.899 175.19 268.791V263.835Z" fill="black"/>
<path opacity="0.3" d="M175.19 263.835H280.37V270.796H177.196C176.088 270.796 175.19 269.899 175.19 268.791V263.835Z" fill="white"/>
<path d="M412.276 259.299H170.456C169.149 259.299 168.089 260.359 168.089 261.666V262.762C168.089 264.069 169.149 265.129 170.456 265.129H412.276C413.583 265.129 414.643 264.069 414.643 262.762V261.666C414.643 260.359 413.583 259.299 412.276 259.299Z" fill="#eb5454"/>
<path opacity="0.4" d="M170.456 259.299H280.37V265.129H170.456C169.15 265.129 168.089 264.068 168.089 262.762V261.666C168.089 260.36 169.15 259.299 170.456 259.299Z" fill="white"/>
<path d="M268.103 410.993H187.457C182.618 410.993 178.688 407.063 178.688 402.224V279.588C178.688 274.749 182.618 270.819 187.457 270.819H268.103C272.942 270.819 276.872 274.749 276.872 279.588V402.224C276.872 407.063 272.942 410.993 268.103 410.993ZM187.457 275.484C185.195 275.484 183.353 277.326 183.353 279.588V402.224C183.353 404.486 185.195 406.328 187.457 406.328H268.103C270.365 406.328 272.207 404.486 272.207 402.224V279.588C272.207 277.326 270.365 275.484 268.103 275.484H187.457Z" fill="#263238"/>
<g opacity="0.4">
<path opacity="0.2" d="M268.103 410.993H187.457C182.618 410.993 178.688 407.063 178.688 402.224V279.588C178.688 274.749 182.618 270.819 187.457 270.819H268.103C272.942 270.819 276.872 274.749 276.872 279.588V402.224C276.872 407.063 272.942 410.993 268.103 410.993ZM187.457 275.484C185.195 275.484 183.353 277.326 183.353 279.588V402.224C183.353 404.486 185.195 406.328 187.457 406.328H268.103C270.365 406.328 272.207 404.486 272.207 402.224V279.588C272.207 277.326 270.365 275.484 268.103 275.484H187.457Z" fill="white"/>
</g>
<path opacity="0.2" d="M268.103 270.808H187.457C182.921 270.808 179.178 274.271 178.735 278.69H183.458C183.866 276.848 185.498 275.472 187.457 275.472H268.103C270.062 275.472 271.694 276.848 272.102 278.69H276.825C276.382 274.271 272.639 270.808 268.103 270.808Z" fill="black"/>
<path d="M393.642 410.993H312.996C308.157 410.993 304.228 407.063 304.228 402.224V279.588C304.228 274.749 308.157 270.819 312.996 270.819H393.642C398.481 270.819 402.411 274.749 402.411 279.588V402.224C402.411 407.063 398.481 410.993 393.642 410.993ZM312.996 275.484C310.734 275.484 308.892 277.326 308.892 279.588V402.224C308.892 404.486 310.734 406.328 312.996 406.328H393.642C395.904 406.328 397.746 404.486 397.746 402.224V279.588C397.746 277.326 395.904 275.484 393.642 275.484H312.996Z" fill="#263238"/>
<path opacity="0.1" d="M393.642 410.993H312.996C308.157 410.993 304.228 407.063 304.228 402.224V279.588C304.228 274.749 308.157 270.819 312.996 270.819H393.642C398.481 270.819 402.411 274.749 402.411 279.588V402.224C402.411 407.063 398.481 410.993 393.642 410.993ZM312.996 275.484C310.734 275.484 308.892 277.326 308.892 279.588V402.224C308.892 404.486 310.734 406.328 312.996 406.328H393.642C395.904 406.328 397.746 404.486 397.746 402.224V279.588C397.746 277.326 395.904 275.484 393.642 275.484H312.996Z" fill="white"/>
<path opacity="0.2" d="M393.642 270.808H312.996C308.46 270.808 304.717 274.271 304.274 278.69H308.997C309.405 276.848 311.037 275.472 312.996 275.472H393.642C395.601 275.472 397.233 276.848 397.641 278.69H402.364C401.921 274.271 398.178 270.808 393.642 270.808Z" fill="black"/>
<path d="M248.618 299.634H158.422C153 299.634 148.604 304.03 148.604 309.452V401.63C148.604 407.052 153 411.448 158.422 411.448H248.618C254.04 411.448 258.436 407.052 258.436 401.63V309.452C258.436 304.03 254.04 299.634 248.618 299.634Z" fill="#eb5454"/>
<path opacity="0.4" d="M248.618 299.634H158.422C153 299.634 148.604 304.03 148.604 309.452V401.63C148.604 407.052 153 411.448 158.422 411.448H248.618C254.04 411.448 258.436 407.052 258.436 401.63V309.452C258.436 304.03 254.04 299.634 248.618 299.634Z" fill="white"/>
<path opacity="0.1" d="M148.604 401.537V401.619C148.604 407.041 153 411.437 158.422 411.437H248.618C254.04 411.437 258.436 407.041 258.436 401.619V401.537H148.604Z" fill="black"/>
<path d="M248.618 299.634H223.606C218.183 299.634 213.787 304.03 213.787 309.452V401.63C213.787 407.052 218.183 411.448 223.606 411.448H248.618C254.04 411.448 258.436 407.052 258.436 401.63V309.452C258.436 304.03 254.04 299.634 248.618 299.634Z" fill="#eb5454"/>
<path opacity="0.3" d="M248.618 304.881H223.606C221.081 304.881 219.035 306.927 219.035 309.452V401.63C219.035 404.154 221.081 406.201 223.606 406.201H248.618C251.142 406.201 253.189 404.154 253.189 401.63V309.452C253.189 306.927 251.142 304.881 248.618 304.881Z" fill="white"/>
<path opacity="0.7" d="M249.819 312.169H222.416V319.457H249.819V312.169Z" fill="white"/>
<path opacity="0.7" d="M249.819 320.914H222.416V328.202H249.819V320.914Z" fill="white"/>
<path d="M236.118 361.237C239.267 361.237 241.82 358.684 241.82 355.535C241.82 352.386 239.267 349.833 236.118 349.833C232.968 349.833 230.416 352.386 230.416 355.535C230.416 358.684 232.968 361.237 236.118 361.237Z" fill="#eb5454"/>
<g opacity="0.9">
<path d="M237.435 354.404C238.531 355.594 237.797 357.599 236.106 357.611C234.415 357.611 233.692 355.582 234.777 354.404C235.325 353.81 234.439 352.924 233.89 353.518C232.071 355.489 233.296 358.859 236.106 358.859C238.916 358.859 240.129 355.489 238.322 353.518C237.774 352.924 236.899 353.81 237.435 354.404Z" fill="white"/>
<path d="M235.488 352.212V355.057C235.488 355.862 236.736 355.862 236.736 355.057V352.212C236.736 351.407 235.488 351.407 235.488 352.212Z" fill="white"/>
</g>
<path d="M225.308 374.157C226.274 374.157 227.057 373.374 227.057 372.408C227.057 371.442 226.274 370.659 225.308 370.659C224.342 370.659 223.559 371.442 223.559 372.408C223.559 373.374 224.342 374.157 225.308 374.157Z" fill="#eb5454"/>
<path d="M232.514 374.157C233.48 374.157 234.264 373.374 234.264 372.408C234.264 371.442 233.48 370.659 232.514 370.659C231.548 370.659 230.765 371.442 230.765 372.408C230.765 373.374 231.548 374.157 232.514 374.157Z" fill="#eb5454"/>
<path d="M239.721 374.157C240.687 374.157 241.47 373.374 241.47 372.408C241.47 371.442 240.687 370.659 239.721 370.659C238.755 370.659 237.972 371.442 237.972 372.408C237.972 373.374 238.755 374.157 239.721 374.157Z" fill="#eb5454"/>
<path d="M246.927 374.157C247.893 374.157 248.676 373.374 248.676 372.408C248.676 371.442 247.893 370.659 246.927 370.659C245.961 370.659 245.178 371.442 245.178 372.408C245.178 373.374 245.961 374.157 246.927 374.157Z" fill="#eb5454"/>
<path d="M228.911 380.384C229.877 380.384 230.661 379.601 230.661 378.635C230.661 377.669 229.877 376.886 228.911 376.886C227.945 376.886 227.162 377.669 227.162 378.635C227.162 379.601 227.945 380.384 228.911 380.384Z" fill="#eb5454"/>
<path d="M236.118 380.384C237.084 380.384 237.867 379.601 237.867 378.635C237.867 377.669 237.084 376.886 236.118 376.886C235.152 376.886 234.369 377.669 234.369 378.635C234.369 379.601 235.152 380.384 236.118 380.384Z" fill="#eb5454"/>
<path d="M243.324 380.384C244.29 380.384 245.073 379.601 245.073 378.635C245.073 377.669 244.29 376.886 243.324 376.886C242.358 376.886 241.575 377.669 241.575 378.635C241.575 379.601 242.358 380.384 243.324 380.384Z" fill="#eb5454"/>
<path d="M225.308 387.264C226.274 387.264 227.057 386.481 227.057 385.515C227.057 384.549 226.274 383.766 225.308 383.766C224.342 383.766 223.559 384.549 223.559 385.515C223.559 386.481 224.342 387.264 225.308 387.264Z" fill="#eb5454"/>
<path d="M232.514 387.264C233.48 387.264 234.264 386.481 234.264 385.515C234.264 384.549 233.48 383.766 232.514 383.766C231.548 383.766 230.765 384.549 230.765 385.515C230.765 386.481 231.548 387.264 232.514 387.264Z" fill="#eb5454"/>
<path d="M239.721 387.264C240.687 387.264 241.47 386.481 241.47 385.515C241.47 384.549 240.687 383.766 239.721 383.766C238.755 383.766 237.972 384.549 237.972 385.515C237.972 386.481 238.755 387.264 239.721 387.264Z" fill="#eb5454"/>
<path d="M246.927 387.264C247.893 387.264 248.676 386.481 248.676 385.515C248.676 384.549 247.893 383.766 246.927 383.766C245.961 383.766 245.178 384.549 245.178 385.515C245.178 386.481 245.961 387.264 246.927 387.264Z" fill="#eb5454"/>
<path d="M228.911 393.49C229.877 393.49 230.661 392.707 230.661 391.741C230.661 390.775 229.877 389.992 228.911 389.992C227.945 389.992 227.162 390.775 227.162 391.741C227.162 392.707 227.945 393.49 228.911 393.49Z" fill="#eb5454"/>
<path d="M236.118 393.49C237.084 393.49 237.867 392.707 237.867 391.741C237.867 390.775 237.084 389.992 236.118 389.992C235.152 389.992 234.369 390.775 234.369 391.741C234.369 392.707 235.152 393.49 236.118 393.49Z" fill="#eb5454"/>
<path d="M243.324 393.49C244.29 393.49 245.073 392.707 245.073 391.741C245.073 390.775 244.29 389.992 243.324 389.992C242.358 389.992 241.575 390.775 241.575 391.741C241.575 392.707 242.358 393.49 243.324 393.49Z" fill="#eb5454"/>
<path d="M225.308 400.37C226.274 400.37 227.057 399.587 227.057 398.621C227.057 397.655 226.274 396.872 225.308 396.872C224.342 396.872 223.559 397.655 223.559 398.621C223.559 399.587 224.342 400.37 225.308 400.37Z" fill="#eb5454"/>
<path d="M232.514 400.37C233.48 400.37 234.264 399.587 234.264 398.621C234.264 397.655 233.48 396.872 232.514 396.872C231.548 396.872 230.765 397.655 230.765 398.621C230.765 399.587 231.548 400.37 232.514 400.37Z" fill="#eb5454"/>
<path d="M239.721 400.37C240.687 400.37 241.47 399.587 241.47 398.621C241.47 397.655 240.687 396.872 239.721 396.872C238.755 396.872 237.972 397.655 237.972 398.621C237.972 399.587 238.755 400.37 239.721 400.37Z" fill="#eb5454"/>
<path d="M246.927 400.37C247.893 400.37 248.676 399.587 248.676 398.621C248.676 397.655 247.893 396.872 246.927 396.872C245.961 396.872 245.178 397.655 245.178 398.621C245.178 399.587 245.961 400.37 246.927 400.37Z" fill="#eb5454"/>
<path d="M384.955 248L377.912 244.828L368.035 248.944V253.865C368.035 253.865 383.369 253.352 383.357 253.375C383.357 253.375 400.65 259.136 407.04 258.249C413.43 257.363 433.766 229.016 433.766 229.016L423.552 220.072L404.101 247.79L384.966 248H384.955Z" fill="#FCC1BB"/>
<path opacity="0.1" d="M384.955 248L377.912 244.828L368.035 248.944V253.865C368.035 253.865 383.369 253.352 383.357 253.375C383.357 253.375 383.789 253.515 384.546 253.76L389.491 247.953L384.955 248Z" fill="black"/>
<path d="M416.672 228.13C416.672 228.13 423.75 215.548 428.262 211.572C431.003 209.158 434.827 208.4 437.416 208.178C439.037 208.038 440.424 209.333 440.436 210.954C440.471 215.921 439.177 226.742 428.95 237.866L416.672 228.118V228.13Z" fill="#263238"/>
<path d="M416.672 225.763C416.672 225.763 425.289 229.821 430.326 237.785L427.574 239.907C427.574 239.907 421.966 232.829 414.946 228.771L416.66 225.763H416.672Z" fill="#eb5454"/>
<path d="M399.379 180.355L395.893 185.836C395.893 185.836 397.712 187.177 400.254 186.267L399.379 180.355Z" fill="#EB827E"/>
<path d="M398.784 183.819C396.639 183.819 394.901 181.953 394.901 179.668C394.901 177.382 396.639 175.517 398.784 175.517C400.93 175.517 402.667 177.382 402.667 179.668C402.667 181.953 400.93 183.819 398.784 183.819ZM398.784 176.379C397.129 176.379 395.776 177.849 395.776 179.656C395.776 181.464 397.129 182.933 398.784 182.933C400.44 182.933 401.793 181.464 401.793 179.656C401.793 177.849 400.44 176.379 398.784 176.379Z" fill="#eb5454"/>
<path d="M397.28 179.586C397.28 180.298 397.63 180.869 398.097 180.881C398.563 180.881 398.971 180.286 398.959 179.598C398.959 178.91 398.61 178.315 398.143 178.315C397.677 178.315 397.292 178.887 397.28 179.586Z" fill="#1A2E35"/>
<path d="M424.59 175.167C424.904 184.577 425.243 188.554 420.963 193.813C414.212 199.386 402.901 200.039 399.787 190.909C396.977 182.688 396.942 168.719 405.746 164.078C412.031 160.766 419.797 163.18 423.109 169.465C424.042 171.226 424.543 173.185 424.59 175.179V175.167Z" fill="#FCC1BB"/>
<path opacity="0.2" d="M411.378 197.812L411.308 197.345C411.156 196.331 410.154 195.666 409.162 195.946L405.338 196.996C407.18 197.765 409.256 198.01 411.378 197.812Z" fill="#1A2E35"/>
<path d="M399.822 176.38C399.694 176.391 399.577 176.345 399.496 176.251C398.913 175.517 398.015 175.109 397.07 175.155C396.872 175.179 396.686 175.039 396.662 174.841C396.639 174.642 396.779 174.456 396.989 174.421C398.178 174.339 399.321 174.841 400.067 175.762C400.195 175.913 400.184 176.147 400.02 176.286C400.02 176.286 399.892 176.368 399.822 176.368V176.38Z" fill="#1A2E35"/>
<path d="M411.028 195.433L413.092 209.414L424.764 207L421.021 192.692L411.028 195.433Z" fill="#FCC1BB"/>
<path d="M399.332 167.54C403.297 175.097 406.061 168.182 405.326 174.28C404.591 180.379 406.784 182.35 406.784 182.35L414.783 194.278C415.203 194.908 416.019 195.118 416.719 194.815C418.794 193.905 420.135 194.104 420.881 194.407C421.406 194.617 421.989 194.558 422.409 194.185C424.216 192.588 428.496 188.005 429.814 179.609C432.391 163.156 419.75 160.649 419.75 160.649C412.731 159.191 414.526 151.74 410.352 151.74C407.168 151.74 408.101 156.976 408.101 156.976C408.101 156.976 404.696 154.422 402.714 155.297C400.16 156.416 402.423 161.663 402.423 161.663C402.423 161.663 395.449 160.136 399.344 167.552L399.332 167.54Z" fill="#1A2E35"/>
<path d="M407.553 177.918H395.893L396.452 176.752H407.553V177.918Z" fill="#eb5454"/>
<path d="M405.163 179.364C404.825 181.253 405.256 183.212 406.364 184.787C407.845 186.862 410.2 185.941 411.145 183.714C411.996 181.708 412.241 178.222 410.095 176.916C407.95 175.621 405.606 177.056 405.163 179.364Z" fill="#FFC3BD"/>
<path d="M407.88 204.307C407.88 204.307 415.377 197.229 423.237 197.8C428.577 198.185 430.233 204.89 430.233 204.89L407.88 204.307Z" fill="#263238"/>
<path opacity="0.2" d="M407.88 204.307C407.88 204.307 415.377 197.229 423.237 197.8C428.577 198.185 430.233 204.89 430.233 204.89L407.88 204.307Z" fill="white"/>
<path d="M412.941 290.012L396.522 209.833C395.869 206.627 398.038 203.677 401.256 203.408C411.553 202.546 432.332 201.718 439.27 208.096C455.455 222.952 456.738 291.179 456.738 291.179L412.941 290.012Z" fill="#263238"/>
<path opacity="0.5" d="M401.175 208.574C401.175 208.574 398.563 209.577 396.825 211.314L402.224 237.691C407.052 226.882 406.713 208.586 406.713 208.586H401.175V208.574Z" fill="black"/>
<path d="M352.223 246.997L345.262 243.51L335.49 248.035V253.422C335.49 253.422 350.649 252.862 350.649 252.885C350.649 252.885 367.755 259.206 374.064 258.226C380.384 257.258 400.498 226.159 400.498 226.159L390.389 216.341L371.148 246.752L352.223 246.985V246.997Z" fill="#FCC1BB"/>
<path d="M383.59 225.191C383.59 225.191 390.587 211.396 395.053 207.024C399.519 202.651 406.9 203.234 406.9 203.234C406.9 203.234 409.524 219.232 395.741 235.884L383.59 225.191Z" fill="#263238"/>
<path d="M383.59 222.591C383.59 222.591 392.103 227.034 397.094 235.779L394.377 238.111C394.377 238.111 388.826 230.345 381.888 225.891L383.59 222.591Z" fill="#263238"/>
<path opacity="0.2" d="M383.59 222.591C383.59 222.591 392.103 227.034 397.094 235.779L394.377 238.111C394.377 238.111 388.826 230.345 381.888 225.891L383.59 222.591Z" fill="white"/>
<path d="M408.218 377.538L412.217 396.895L420.1 395.728L418.199 376.885L408.218 377.538Z" fill="#FCC1BB"/>
<path opacity="0.2" d="M419.447 389.303L418.199 376.885L408.218 377.538L410.713 389.642L419.447 389.303Z" fill="black"/>
<path d="M454.989 289.43C454.989 289.43 458.988 310.419 445.287 310.419C431.586 310.419 413.36 314.897 413.36 314.897C413.36 314.897 418.607 319.876 419.774 383.392L408.404 383.87C408.404 383.87 389.526 312.18 393.245 304.309C398.493 293.208 425.662 289.418 425.662 289.418H454.977L454.989 289.43Z" fill="#eb5454"/>
<path opacity="0.2" d="M454.989 289.43C454.989 289.43 458.988 310.419 445.287 310.419C431.586 310.419 413.36 314.897 413.36 314.897C413.36 314.897 418.607 319.876 419.774 383.392L408.404 383.87C408.404 383.87 389.526 312.18 393.245 304.309C398.493 293.208 425.662 289.418 425.662 289.418H454.977L454.989 289.43Z" fill="black"/>
<path d="M406.002 380.477L421.464 380.092L420.975 386.505L407.996 387.053L406.002 380.477Z" fill="#eb5454"/>
<path opacity="0.5" d="M406.002 380.477L421.464 380.092L420.975 386.505L407.996 387.053L406.002 380.477Z" fill="white"/>
<path d="M408.673 398.119C407.646 398.248 406.574 398.178 406.189 397.781C405.979 397.548 405.944 397.21 406.107 396.93C406.212 396.685 406.422 396.499 406.667 396.405C407.996 395.869 411.051 397.152 411.191 397.21C411.273 397.245 411.32 397.315 411.308 397.396C411.308 397.478 411.25 397.548 411.168 397.571C410.352 397.816 409.524 398.003 408.684 398.108L408.673 398.119ZM407.18 396.673C407.052 396.685 406.935 396.72 406.818 396.767C406.655 396.813 406.527 396.93 406.469 397.082C406.352 397.338 406.422 397.455 406.48 397.513C406.923 398.003 408.999 397.77 410.503 397.396C409.454 396.953 408.323 396.708 407.18 396.673Z" fill="#eb5454"/>
<path d="M411.121 397.583C411.121 397.583 411.063 397.594 411.04 397.583C410.002 397.268 407.821 395.717 407.88 394.772C407.88 394.551 408.008 394.259 408.533 394.143C408.917 394.049 409.325 394.131 409.652 394.341C410.806 395.076 411.284 397.268 411.308 397.361C411.319 397.431 411.296 397.501 411.238 397.548C411.203 397.571 411.156 397.583 411.11 397.571L411.121 397.583ZM408.719 394.504H408.603C408.253 394.574 408.253 394.726 408.241 394.772C408.253 395.332 409.722 396.568 410.806 397.046C410.596 396.125 410.107 395.297 409.419 394.656C409.209 394.516 408.964 394.458 408.719 394.493V394.504Z" fill="#eb5454"/>
<path d="M411.856 396.335L420.823 395.262C421.161 395.227 421.476 395.425 421.593 395.74L424.088 402.841C424.31 403.471 423.983 404.159 423.365 404.392C423.283 404.415 423.202 404.439 423.12 404.45C419.878 404.777 416.987 404.952 412.964 405.442C408.218 406.013 409.489 406.433 403.915 407.191C400.557 407.634 399.484 403.891 400.883 403.529C407.308 401.92 407.751 399.868 409.99 397.232C410.48 396.719 411.145 396.405 411.856 396.346V396.335Z" fill="#eb5454"/>
<path d="M385.153 382.727L392.592 400.777L399.834 399.332L394.843 380.01L385.153 382.727Z" fill="#FCC1BB"/>
<path opacity="0.2" d="M398.166 392.895L394.843 380.01L385.153 382.727L389.992 394.457L398.166 392.895Z" fill="black"/>
<path d="M454.989 289.43C454.989 289.43 463.455 311.317 435.469 310.419C424.753 310.069 378.343 320.914 378.343 320.914C378.343 320.914 386.715 325.286 397.21 383.881L385.328 386.575C385.328 386.575 351.652 320.039 355.383 312.168C360.63 301.067 415.856 289.43 415.856 289.43H454.989Z" fill="#eb5454"/>
<path d="M383.882 385.817L397.968 382.809L399.426 388.639L385.922 391.752L383.882 385.817Z" fill="#eb5454"/>
<path opacity="0.5" d="M383.882 385.817L397.968 382.809L399.426 388.639L385.922 391.752L383.882 385.817Z" fill="white"/>
<path d="M388.115 401.594C387.089 401.722 386.016 401.652 385.631 401.256C385.421 401.023 385.386 400.684 385.549 400.405C385.654 400.16 385.864 399.973 386.109 399.88C387.438 399.343 390.493 400.626 390.633 400.684C390.715 400.719 390.762 400.789 390.75 400.871C390.75 400.953 390.692 401.023 390.61 401.046C389.794 401.291 388.966 401.477 388.126 401.582L388.115 401.594ZM386.622 400.148C386.494 400.16 386.377 400.195 386.261 400.241C386.097 400.288 385.969 400.405 385.911 400.556C385.794 400.813 385.864 400.929 385.922 400.988C386.366 401.477 388.441 401.244 389.945 400.871C388.896 400.428 387.765 400.183 386.622 400.148Z" fill="#eb5454"/>
<path d="M390.563 401.069C390.563 401.069 390.505 401.081 390.482 401.069C389.444 400.754 387.263 399.203 387.322 398.259C387.322 398.037 387.45 397.746 387.975 397.629C388.36 397.536 388.768 397.617 389.094 397.827C390.249 398.562 390.727 400.754 390.75 400.847C390.762 400.917 390.738 400.987 390.68 401.034C390.645 401.057 390.598 401.069 390.552 401.057L390.563 401.069ZM388.161 397.991H388.045C387.695 398.061 387.695 398.212 387.683 398.259C387.695 398.818 389.164 400.054 390.249 400.544C390.039 399.623 389.549 398.795 388.861 398.154C388.651 398.014 388.406 397.956 388.161 397.991Z" fill="#eb5454"/>
<path d="M391.298 399.809L400.265 398.736C400.603 398.701 400.918 398.9 401.035 399.214L403.53 406.316C403.752 406.946 403.425 407.634 402.807 407.867C402.726 407.89 402.644 407.913 402.562 407.925C399.321 408.252 396.429 408.426 392.406 408.916C387.66 409.488 388.931 409.907 383.357 410.665C379.999 411.108 378.926 407.365 380.325 407.004C386.75 405.395 387.194 403.342 389.432 400.707C389.922 400.194 390.587 399.879 391.298 399.821V399.809Z" fill="#eb5454"/>
<path d="M480.607 388.511C473.483 387.345 462.906 385.678 458.207 385.34C457.169 385.258 455.875 385.211 454.452 385.165V348.608H445.497V385.165C444.074 385.2 442.768 385.258 441.742 385.34C437.031 385.689 426.467 387.345 419.342 388.511C415.237 389.188 412.229 392.732 412.229 396.895V398.738H420.916L422.082 396.137C422.082 396.137 438.396 393.316 443.899 392.907C446.931 392.686 453.041 392.686 456.073 392.907C461.577 393.316 477.89 396.137 477.89 396.137L479.056 398.738H487.744V396.895C487.744 392.732 484.735 389.188 480.631 388.511H480.607Z" fill="#263238"/>
<path opacity="0.1" d="M480.607 388.511C473.483 387.345 462.906 385.678 458.207 385.34C457.169 385.258 455.875 385.211 454.452 385.165V348.608H445.497V385.165C444.074 385.2 442.768 385.258 441.742 385.34C437.031 385.689 426.467 387.345 419.342 388.511C415.237 389.188 412.229 392.732 412.229 396.895V398.738H420.916L422.082 396.137C422.082 396.137 438.396 393.316 443.899 392.907C446.931 392.686 453.041 392.686 456.073 392.907C461.577 393.316 477.89 396.137 477.89 396.137L479.056 398.738H487.744V396.895C487.744 392.732 484.735 389.188 480.631 388.511H480.607Z" fill="white"/>
<path d="M442.78 318.792H457.158V349.693C457.158 351.99 455.292 353.856 452.995 353.856H446.943C444.646 353.856 442.78 351.99 442.78 349.693V318.792Z" fill="#263238"/>
<path opacity="0.2" d="M457.158 318.792H442.78V327.328H457.158V318.792Z" fill="black"/>
<path d="M484.082 410.993C487.463 410.993 490.204 408.252 490.204 404.871C490.204 401.49 487.463 398.749 484.082 398.749C480.701 398.749 477.96 401.49 477.96 404.871C477.96 408.252 480.701 410.993 484.082 410.993Z" fill="#263238"/>
<path d="M415.856 410.993C419.237 410.993 421.977 408.252 421.977 404.871C421.977 401.49 419.237 398.749 415.856 398.749C412.474 398.749 409.734 401.49 409.734 404.871C409.734 408.252 412.474 410.993 415.856 410.993Z" fill="#263238"/>
<path d="M498.565 311.516C489.994 309.323 481.179 308.122 472.34 307.901C463.233 307.667 429.149 307.866 421.056 307.866C411.203 307.866 401.349 309.078 391.788 311.516C385.782 313.043 387.636 321.719 393.059 321.824C393.537 321.824 496.571 321.8 496.956 321.824C502.634 322.08 504.71 313.09 498.565 311.527V311.516Z" fill="#eb5454"/>
<path opacity="0.3" d="M498.565 311.516C489.994 309.323 481.179 308.122 472.34 307.901C463.233 307.667 429.149 307.866 421.056 307.866C411.203 307.866 401.349 309.078 391.788 311.516C385.782 313.043 387.636 321.719 393.059 321.824C393.537 321.824 496.571 321.8 496.956 321.824C502.634 322.08 504.71 313.09 498.565 311.527V311.516Z" fill="black"/>
<path d="M394.575 321.636C411.879 317.217 430.222 317.217 447.526 321.636C454.068 323.304 456.866 313.182 450.313 311.515C431.201 306.641 410.9 306.641 391.788 311.515C385.246 313.182 388.021 323.304 394.575 321.636Z" fill="#eb5454"/>
<g opacity="0.4">
<path d="M394.575 321.636C411.879 317.217 430.222 317.217 447.526 321.636C454.068 323.304 456.866 313.182 450.313 311.515C431.201 306.641 410.9 306.641 391.788 311.515C385.246 313.182 388.021 323.304 394.575 321.636Z" fill="white"/>
</g>
<path d="M470.999 236.421C469.915 236.398 468.83 236.887 468.096 238.088C454.219 261.177 449.287 288.917 454.068 315.399C454.371 317.055 455.502 317.836 456.761 317.918C458.86 318.057 496.268 317.918 497.632 317.918C499.673 317.918 501.912 316.18 501.434 313.533C496.979 288.929 501.888 263.019 514.75 241.61C516.348 238.951 513.992 236.456 511.602 236.409C510.517 236.386 473.366 236.456 470.987 236.409L470.999 236.421Z" fill="#eb5454"/>
<path opacity="0.2" d="M470.999 236.421C469.915 236.398 468.83 236.887 468.096 238.088C454.219 261.177 449.287 288.917 454.068 315.399C454.371 317.055 455.502 317.836 456.761 317.918C458.86 318.057 496.268 317.918 497.632 317.918C499.673 317.918 501.912 316.18 501.434 313.533C496.979 288.929 501.888 263.019 514.75 241.61C516.348 238.951 513.992 236.456 511.602 236.409C510.517 236.386 473.366 236.456 470.987 236.409L470.999 236.421Z" fill="black"/>
<path d="M460.831 313.545C456.377 288.941 461.286 263.03 474.148 241.621C476.468 237.75 470.428 234.229 468.107 238.088C454.231 261.176 449.299 288.917 454.079 315.399C454.884 319.818 461.624 317.952 460.831 313.545Z" fill="#eb5454"/>
<g opacity="0.4">
<path d="M460.831 313.545C456.377 288.941 461.286 263.03 474.148 241.621C476.468 237.75 470.428 234.229 468.107 238.088C454.231 261.176 449.299 288.917 454.079 315.399C454.884 319.818 461.624 317.952 460.831 313.545Z" fill="white"/>
</g>
<path d="M415.016 283.122C427.027 294.106 439.049 305.102 451.059 316.087C453.543 318.36 457.263 314.664 454.767 312.378C442.757 301.394 430.735 290.398 418.724 279.414C416.24 277.14 412.521 280.836 415.016 283.122Z" fill="#263238"/>
<g opacity="0.5">
<path d="M415.016 283.122C427.027 294.106 439.049 305.102 451.059 316.087C453.543 318.36 457.263 314.664 454.767 312.378C442.757 301.394 430.735 290.398 418.724 279.414C416.24 277.14 412.521 280.836 415.016 283.122Z" fill="white"/>
</g>
<path opacity="0.2" d="M418.724 279.402C416.24 277.128 412.521 280.824 415.016 283.11C417.313 285.209 419.61 287.32 421.907 289.418H429.673C426.024 286.083 422.374 282.737 418.724 279.402Z" fill="black"/>
<path d="M396.219 284.766H445.684C450.185 284.766 450.196 277.77 445.684 277.77H396.219C391.718 277.77 391.706 284.766 396.219 284.766Z" fill="#eb5454"/>
<g opacity="0.3">
<path d="M396.219 284.766H445.684C450.185 284.766 450.196 277.77 445.684 277.77H396.219C391.718 277.77 391.706 284.766 396.219 284.766Z" fill="white"/>
</g>
</g>
<defs>
<clipPath id="clip0_867_4087">
<rect width="583.035" height="430" fill="white"/>
</clipPath>
</defs>
</svg>
