<svg width="83" height="70" viewBox="0 0 83 70" fill="none" xmlns="http://www.w3.org/2000/svg">
<rect x="0.5" y="0.5" width="82" height="69" rx="5.5" fill="#F7F9FA" stroke="#EFEFEF"/>
<path fill-rule="evenodd" clip-rule="evenodd" d="M39.5458 34.3151C39.7435 34.5128 39.7435 34.8329 39.5458 35.0306C39.3481 35.2283 39.0279 35.2283 38.8302 35.0306L36.4356 32.636C36.2379 32.4382 36.2379 32.1181 36.4356 31.9204L38.8302 29.5258C39.028 29.3281 39.3481 29.3281 39.5458 29.5258C39.7435 29.7235 39.7435 30.0436 39.5458 30.2413L37.5089 32.2782L39.5458 34.3151ZM46.1505 35.0306C45.9528 35.2283 45.6327 35.2283 45.435 35.0306C45.2373 34.8329 45.2373 34.5127 45.435 34.3151L47.4719 32.2782L45.435 30.2413C45.2373 30.0436 45.2373 29.7235 45.435 29.5258C45.6327 29.3281 45.9529 29.3281 46.1505 29.5258L48.5452 31.9204C48.7429 32.1181 48.7429 32.4383 48.5452 32.636L46.1505 35.0306ZM43.1565 27.8405C43.2286 27.5706 43.5048 27.4106 43.7747 27.4828C44.0447 27.5549 44.2047 27.8311 44.1325 28.1011L41.8242 36.7144C41.752 36.9843 41.4758 37.1444 41.2059 37.0722C40.936 37 40.7759 36.7238 40.8481 36.4539L43.1565 27.8405ZM52.9393 50.9522H31.4924C31.4061 50.9522 31.3276 50.9883 31.2695 51.0447C31.2115 51.1028 31.177 51.1813 31.177 51.2676V52.6846C31.177 52.7709 31.2131 52.8494 31.2695 52.9074C31.3276 52.9639 31.4061 53 31.4924 53H52.9376C53.0239 53 53.1024 52.9639 53.1605 52.9074C53.217 52.8494 53.2531 52.7709 53.2531 52.6846V51.2676C53.2531 51.1813 53.217 51.1028 53.1605 51.0447C53.1024 50.9867 53.024 50.9522 52.9376 50.9522H52.9393ZM28.2802 43.787C28.0009 43.787 27.7733 43.561 27.7733 43.2801C27.7733 43.0008 27.9993 42.7733 28.2802 42.7733H28.3037C28.5831 42.7733 28.8106 42.9993 28.8106 43.2801C28.8106 43.5595 28.5846 43.787 28.3037 43.787H28.2802ZM58.9808 41.9133H26V44.4084C26 44.4727 26.0282 44.5324 26.0753 44.5763C26.1287 44.6265 26.204 44.6579 26.2887 44.6579H58.6902C58.775 44.6579 58.8503 44.6265 58.9037 44.5763C58.9507 44.5324 58.979 44.4727 58.979 44.4084V41.9133H58.9808ZM46.5791 49.9398V45.6698H37.8557V49.9398H46.5791ZM56.7319 19.8984V40.9026H58.9791V20.1479C58.9791 20.0835 58.9509 20.0239 58.9038 19.98C58.8504 19.9298 58.7751 19.8984 58.6904 19.8984L56.7319 19.8984ZM28.2472 40.901V19.8984H26.2888C26.2041 19.8984 26.1288 19.9298 26.0754 19.98C26.0283 20.0239 26.0001 20.0836 26.0001 20.1479V40.9026H28.2473L28.2472 40.901ZM55.72 22.4939H29.2596V40.9026H55.72V22.4939ZM55.72 17.0016L29.2596 17V19.3915V19.3931V21.4802H55.72V19.3915V19.3899V17V17.0016ZM32.2175 19.8984C31.9382 19.8984 31.7106 19.6724 31.7106 19.3915C31.7106 19.1122 31.9366 18.8847 32.2175 18.8847H32.23C32.5094 18.8847 32.7369 19.1106 32.7369 19.3915C32.7369 19.6708 32.5109 19.8984 32.23 19.8984H32.2175ZM34.5149 19.8984C34.2356 19.8984 34.008 19.6724 34.008 19.3915C34.008 19.1122 34.234 18.8847 34.5149 18.8847H34.5274C34.8068 18.8847 35.0343 19.1106 35.0343 19.3915C35.0343 19.6708 34.8083 19.8984 34.5274 19.8984H34.5149ZM36.8123 19.8984C36.5329 19.8984 36.3054 19.6724 36.3054 19.3915C36.3054 19.1122 36.5314 18.8847 36.8123 18.8847H36.8248C37.1041 18.8847 37.3317 19.1106 37.3317 19.3915C37.3317 19.6708 37.1057 19.8984 36.8248 19.8984H36.8123ZM39.9256 19.8984C39.6463 19.8984 39.4188 19.6724 39.4188 19.3915C39.4188 19.1122 39.6447 18.8847 39.9256 18.8847H52.0212C52.3005 18.8847 52.528 19.1106 52.528 19.3915C52.528 19.6708 52.302 19.8984 52.0212 19.8984H39.9256Z" fill="#EB5454"/>
</svg>
