<svg width="83" height="70" viewBox="0 0 83 70" fill="none" xmlns="http://www.w3.org/2000/svg">
<rect x="0.5" y="0.5" width="82" height="69" rx="5.5" fill="#F7F9FA" stroke="#EFEFEF"/>
<path d="M37.3926 47.6074H46.9193V48.4663H37.3926V47.6074Z" fill="#EB5454"/>
<path d="M52.0215 45.4375H54.6595V46.9328H52.0215V45.4375Z" fill="#EB5454"/>
<path d="M61.3134 47.6074H47.6009V48.7502C47.6009 48.9671 47.4219 49.1407 47.2104 49.1407H37.1032C36.8916 49.1407 36.718 48.9671 36.718 48.7502V47.6074H23V49.9995H61.3116L61.3134 47.6074Z" fill="#EB5454"/>
<path d="M29.6504 45.4375H32.292V46.9328H29.6504V45.4375Z" fill="#EB5454"/>
<path d="M24.4171 44.7635H59.8937C60.6748 44.7635 61.3112 44.127 61.3112 43.3459L61.313 21.4175C61.313 20.6364 60.6766 20 59.8955 20H24.4175C23.6364 20 23 20.6364 23 21.4175V43.3459C23 44.127 23.636 44.7635 24.4171 44.7635ZM24.4135 22.6902C24.4135 21.9869 24.9867 21.4119 25.6954 21.4119H58.6169C59.3257 21.4119 59.8989 21.9851 59.8989 22.6902V42.0636C59.8989 42.7723 59.3257 43.3455 58.6169 43.3455H25.6954C24.9867 43.3455 24.4135 42.7723 24.4135 42.0636V22.6902Z" fill="#EB5454"/>
<path d="M40.9414 35.1875H43.3805V36.0988H40.9414V35.1875Z" fill="#EB5454"/>
<path d="M39.1708 33.1927C39.1075 32.9323 39.0497 32.6575 39.0027 32.3772C38.9972 32.3284 38.9882 32.2814 38.9792 32.2326C38.9358 31.9523 38.8978 31.663 38.8689 31.3701L37.1855 32.3736L37.7695 36.0097H38.0209L37.8708 34.2685C37.8563 34.1474 37.9142 34.028 38.0209 33.9593L39.1708 33.1927Z" fill="#EB5454"/>
<path d="M46.5535 36.0068L47.1375 32.3707L45.4541 31.3672C45.4397 31.5353 45.4108 31.6999 45.3872 31.868C45.3728 31.9783 45.3637 32.0904 45.3439 32.1953C45.2914 32.537 45.2281 32.8697 45.1504 33.1879L46.3021 33.9545C46.4088 34.0214 46.4667 34.1425 46.4522 34.2637L46.3021 36.0049L46.5535 36.0068Z" fill="#EB5454"/>
<path d="M42.1614 23.5098C41.8522 23.7213 41.1688 24.2764 40.5703 25.3088H43.7525C43.1486 24.2764 42.4688 23.7231 42.1614 23.5098Z" fill="#EB5454"/>
<path d="M39.4707 29.8789C39.4707 30.2604 39.4852 30.6364 39.5141 31.0071C39.5376 31.3163 39.572 31.62 39.6154 31.9184C39.6298 31.9907 39.6389 32.0685 39.6533 32.1408C39.7021 32.4391 39.7546 32.7338 39.8269 33.0177C39.9571 33.5619 40.1252 34.0682 40.3241 34.513H43.9981C44.1663 34.1369 44.3109 33.7174 44.4375 33.2545C44.4574 33.1822 44.4719 33.1153 44.4899 33.052C44.6545 32.3867 44.7648 31.6688 44.8136 30.9203L44.8226 30.7811C44.8425 30.4827 44.8516 30.1826 44.8516 29.8788C44.8516 28.2209 44.5243 26.948 44.094 25.9824H40.2265C39.798 26.9479 39.4707 28.2208 39.4707 29.8789ZM42.1611 26.3784C43.1972 26.3784 44.047 27.2228 44.047 28.2588C44.047 29.3003 43.199 30.1446 42.1611 30.1446C41.1197 30.1446 40.2753 29.3003 40.2753 28.2588C40.2753 27.2228 41.1197 26.3784 42.1611 26.3784Z" fill="#EB5454"/>
<path d="M42.1627 29.4684C42.8281 29.4684 43.3724 28.9277 43.3724 28.2587C43.3724 27.5934 42.8281 27.0527 42.1627 27.0527C41.4974 27.0527 40.9531 27.5934 40.9531 28.2587C40.9513 28.9295 41.4974 29.4684 42.1627 29.4684Z" fill="#EB5454"/>
<path d="M47.3197 40.7909C46.9816 40.7909 46.6489 40.9067 46.365 41.1236C46.2837 41.1869 46.1679 41.2104 46.0667 41.1761C45.96 41.1471 45.8787 41.0658 45.8443 40.9645C45.5351 40.0912 44.4611 39.6338 43.5968 40.1401C43.4612 40.2214 43.2877 40.1979 43.1828 40.0822C43.1159 40.0153 43.0436 39.952 42.9712 39.8887C42.8935 39.8255 42.8411 39.7242 42.8411 39.6229V36.7734H41.5013V39.1221C41.5013 39.2867 41.3856 39.4205 41.2265 39.4548C40.628 39.5705 40.1072 39.9321 39.789 40.4583C39.7167 40.5831 39.5721 40.6464 39.4328 40.6174C38.9211 40.5071 38.4583 40.6662 38.1021 40.9845C37.9918 41.0857 37.8273 41.1002 37.6971 41.0188C37.4566 40.8687 37.1854 40.7928 36.916 40.7928C36.1114 40.7928 35.4551 41.4492 35.4551 42.2592C35.4551 42.4038 35.475 42.543 35.5129 42.6732L48.8584 42.6714C48.8783 42.5702 48.8873 42.4689 48.8873 42.3622C48.8873 41.4944 48.1822 40.7909 47.3197 40.7909Z" fill="#EB5454"/>
<path d="M25.6952 42.6711H34.8225C34.799 42.5355 34.7791 42.3963 34.7791 42.257C34.7791 41.0764 35.7392 40.1163 36.9144 40.1163C37.2326 40.1163 37.5455 40.1886 37.8402 40.3278C38.2687 40.0186 38.7803 39.8595 39.3355 39.9174C39.7025 39.4111 40.2269 39.0351 40.8253 38.856V36.7731H40.6029C40.4149 36.7731 40.2648 36.6194 40.2648 36.435V35.1856H40.1057C39.9755 35.1856 39.8598 35.1133 39.802 34.9976C39.6338 34.6559 39.4892 34.2798 39.3626 33.8748L38.558 34.4099L38.7225 36.3139C38.728 36.4097 38.699 36.5019 38.6357 36.5688C38.5688 36.6411 38.4821 36.6791 38.3844 36.6791H37.4822C37.314 36.6791 37.173 36.5579 37.1495 36.3952L36.4787 32.2493C36.4588 32.1137 36.5221 31.9745 36.6433 31.9076L38.8075 30.6112C38.7985 30.3707 38.7931 30.1248 38.7931 29.8789C38.7931 24.643 41.865 22.8873 41.9952 22.8146C42.0965 22.7568 42.2212 22.7568 42.3225 22.8146C42.4038 22.858 43.6586 23.5812 44.5735 25.4183C44.6169 25.4671 44.6404 25.5285 44.6513 25.5973C45.1485 26.6532 45.5246 28.0472 45.5246 29.8788C45.5246 30.1247 45.5155 30.3706 45.5011 30.611L47.6762 31.9075C47.7973 31.9744 47.8588 32.1154 47.8353 32.2492L47.1699 36.3951C47.1464 36.5596 47.0054 36.679 46.8372 36.679H45.935C45.8392 36.679 45.7524 36.641 45.6837 36.5687C45.6204 36.5018 45.5879 36.4096 45.5969 36.3137L45.7614 34.4098L44.9478 33.871C44.823 34.276 44.682 34.6611 44.5193 34.9992C44.4614 35.1149 44.3457 35.1873 44.2155 35.1873H44.0564V36.4366C44.0564 36.6193 43.9027 36.7748 43.7183 36.7748H43.5158V39.4272C43.7906 39.3115 44.0799 39.2482 44.3747 39.2482C45.1793 39.2482 45.9133 39.6822 46.3075 40.362C46.6203 40.2029 46.9675 40.1161 47.32 40.1161C48.555 40.1161 49.5621 41.1232 49.5621 42.3635C49.5621 42.4702 49.5476 42.5715 49.5331 42.6727H58.6169C58.9496 42.6727 59.2244 42.3979 59.2244 42.0652V22.69C59.2244 22.3573 58.9496 22.0879 58.6169 22.0879H25.6954C25.3627 22.0879 25.0879 22.3573 25.0879 22.69V42.0634C25.0879 42.396 25.3625 42.6711 25.6952 42.6711Z" fill="#EB5454"/>
</svg>
