<svg width="39" height="26" viewBox="0 0 39 26" fill="none" xmlns="http://www.w3.org/2000/svg">
<path d="M37.5894 9.96768e-05C37.5254 0.00100922 37.4624 0.00825089 37.3965 0.022409L27.5548 2.06656C26.7814 2.22706 26.4964 3.18296 27.0538 3.74268L28.9427 5.63163L22.2737 12.2984L16.6601 6.68475C16.2732 6.29493 15.6442 6.29111 15.2544 6.67831L0.289126 21.6436C-0.0979134 22.0334 -0.0963016 22.6624 0.293554 23.0493L2.95184 25.7053C3.3387 26.0951 3.96774 26.099 4.35747 25.7122L16.0326 14.037L21.6507 19.6573C22.0405 20.0444 22.6717 20.0406 23.0586 19.6509L33.0089 9.69841L34.8535 11.543C35.1114 11.8006 35.4883 11.8951 35.8379 11.7913C36.0103 11.7413 36.1656 11.6456 36.2879 11.5142C36.4103 11.3827 36.4967 11.2199 36.534 11.0442L38.5737 1.19954C38.7081 0.5625 38.2074 -0.00866974 37.5894 9.96768e-05Z" fill="#eb5454"/>
</svg>
