<svg width="25" height="26" viewBox="0 0 25 26" fill="none" xmlns="http://www.w3.org/2000/svg">
<path fill-rule="evenodd" clip-rule="evenodd" d="M20.3726 10.4367C20.0777 10.8851 19.8128 11.29 19.6169 11.5908C18.8754 10.4538 18.1304 9.31968 17.3705 8.19456C16.3926 6.74645 15.3469 5.18955 16.0082 3.37877C16.556 1.88075 18.0216 0.853333 19.6169 0.853333C21.7341 0.853333 23.4569 2.57579 23.4569 4.69333C23.4569 5.46133 23.0934 6.42816 22.7423 6.91925C22.159 7.73461 21.1542 9.248 20.3726 10.4367ZM24.3103 4.69333C24.3103 2.1056 22.2047 0 19.6169 0C17.2238 0 15.247 1.80139 14.9624 4.11819C14.1667 3.82123 13.3471 3.61557 12.5078 3.50763C13.6957 4.40533 14.6672 6.40811 15.2342 9.04832C15.7407 8.96427 16.2313 8.85931 16.7122 8.74496C16.8769 8.98901 17.0467 9.24245 17.2182 9.50016C16.6298 9.64949 16.0231 9.78091 15.3963 9.88629C15.6199 11.1723 15.7513 12.5854 15.7727 14.08H22.1663C22.1189 12.8226 21.8569 11.6002 21.3957 10.4341C22.1134 9.34699 22.9347 8.11733 23.4365 7.41589C23.8708 6.80875 24.3103 5.67893 24.3103 4.69333Z" fill="#EB5454"/>
<path fill-rule="evenodd" clip-rule="evenodd" d="M19.6177 2.56006C18.4414 2.56006 17.4844 3.51707 17.4844 4.69339C17.4844 5.86971 18.4414 6.82673 19.6177 6.82673C20.794 6.82673 21.751 5.86971 21.751 4.69339C21.751 3.51707 20.794 2.56006 19.6177 2.56006Z" fill="#EB5454"/>
<path fill-rule="evenodd" clip-rule="evenodd" d="M11.5078 3.91699V9.38003C12.487 9.36424 13.4568 9.29513 14.3968 9.17267C13.7636 6.22312 12.6415 4.30825 11.5078 3.91699Z" fill="#EB5454"/>
<path fill-rule="evenodd" clip-rule="evenodd" d="M7.77344 9.14323C8.71808 9.28147 9.68746 9.35742 10.6556 9.37577V3.91699C9.52576 4.30697 8.40789 6.21075 7.77344 9.14323Z" fill="#EB5454"/>
<path fill-rule="evenodd" clip-rule="evenodd" d="M7.24609 14.0796H10.6552V10.2289C9.63415 10.2101 8.60972 10.1295 7.61047 9.98145C7.39799 11.206 7.267 12.5816 7.24609 14.0796Z" fill="#EB5454"/>
<path fill-rule="evenodd" clip-rule="evenodd" d="M6.77888 9.83674C5.18059 9.53892 3.66848 9.08666 2.37184 8.49444L1.91616 8.2666C0.776533 9.93572 0.08192 11.9304 0 14.0799H6.3936C6.41493 12.5661 6.54976 11.1359 6.77888 9.83674Z" fill="#EB5454"/>
<path fill-rule="evenodd" clip-rule="evenodd" d="M15.3867 19.1768C16.985 19.4746 18.4971 19.9269 19.7933 20.5191L20.2328 20.7695C21.3822 19.0962 22.0833 17.093 22.1652 14.9336H15.772C15.7507 16.4474 15.6158 17.8776 15.3867 19.1768Z" fill="#EB5454"/>
<path fill-rule="evenodd" clip-rule="evenodd" d="M14.5576 10.0117C13.5652 10.1436 12.5412 10.2169 11.5078 10.2336V14.08H14.9169C14.896 12.5948 14.7671 11.229 14.5576 10.0117Z" fill="#EB5454"/>
<path fill-rule="evenodd" clip-rule="evenodd" d="M7.61047 19.0317C8.60929 18.8832 9.63372 18.803 10.6552 18.7843V14.9336H7.24609C7.267 16.4312 7.39799 17.8072 7.61047 19.0317Z" fill="#EB5454"/>
<path fill-rule="evenodd" clip-rule="evenodd" d="M6.39317 14.9336H0C0.0814933 17.0746 0.770133 19.0624 1.90208 20.7273L2.37568 20.517C3.66976 19.926 5.18101 19.4746 6.77845 19.1768C6.54976 17.8772 6.41451 16.4474 6.39317 14.9336Z" fill="#EB5454"/>
<path fill-rule="evenodd" clip-rule="evenodd" d="M6.94028 20.0127C5.40897 20.2973 3.96257 20.7291 2.72481 21.2944L2.42188 21.4288C4.1759 23.6185 6.73974 25.1293 9.65601 25.5052C8.47585 24.6122 7.50859 22.6294 6.94028 20.0127Z" fill="#EB5454"/>
<path fill-rule="evenodd" clip-rule="evenodd" d="M6.94175 9.00072C7.51007 6.38355 8.47733 4.40083 9.65791 3.50781C6.74677 3.88285 4.18677 5.38899 2.43359 7.57139L2.73994 7.72499C3.97002 8.28648 5.41258 8.71656 6.94175 9.00072Z" fill="#EB5454"/>
<path fill-rule="evenodd" clip-rule="evenodd" d="M15.224 20.0117C14.6557 22.6293 13.6884 24.6125 12.5078 25.5055C15.4117 25.1313 17.967 23.6316 19.7202 21.4577L19.4049 21.2772C18.1863 20.7217 16.7502 20.2942 15.224 20.0117Z" fill="#EB5454"/>
<path fill-rule="evenodd" clip-rule="evenodd" d="M10.6556 25.0965V19.6377C9.68789 19.656 8.7185 19.732 7.77344 19.8707C8.40789 22.8027 9.52618 24.7065 10.6556 25.0965Z" fill="#EB5454"/>
<path fill-rule="evenodd" clip-rule="evenodd" d="M11.5078 19.6377V25.0965C12.6376 24.7065 13.7559 22.8023 14.3899 19.8698C13.4457 19.7316 12.4763 19.656 11.5078 19.6377Z" fill="#EB5454"/>
<path fill-rule="evenodd" clip-rule="evenodd" d="M14.9169 14.9336H11.5078V18.7843C12.5288 18.803 13.5533 18.8837 14.5525 19.0317C14.765 17.8072 14.896 16.4316 14.9169 14.9336Z" fill="#EB5454"/>
</svg>
