<svg width="45" height="30" viewBox="0 0 45 30" fill="none" xmlns="http://www.w3.org/2000/svg">
<path d="M4.0375 30C2.8875 30 1.9275 29.615 1.1575 28.845C0.385833 28.0733 0 27.1125 0 25.9625V4.0375C0 2.8875 0.385833 1.9275 1.1575 1.1575C1.9275 0.385833 2.8875 0 4.0375 0H40.9625C42.1125 0 43.0725 0.385833 43.8425 1.1575C44.6142 1.9275 45 2.8875 45 4.0375V25.9625C45 27.1125 44.615 28.0725 43.845 28.8425C43.0733 29.6142 42.1125 30 40.9625 30H4.0375ZM13.0775 24.425H31.9225V20.575H13.0775V24.425ZM5.5775 16.925H9.4225V13.075H5.5775V16.925ZM13.0775 16.925H16.9225V13.075H13.0775V16.925ZM20.5775 16.925H24.4225V13.075H20.5775V16.925ZM28.0775 16.925H31.9225V13.075H28.0775V16.925ZM35.5775 16.925H39.4225V13.075H35.5775V16.925ZM5.5775 9.425H9.4225V5.575H5.5775V9.425ZM13.0775 9.425H16.9225V5.575H13.0775V9.425ZM20.5775 9.425H24.4225V5.575H20.5775V9.425ZM28.0775 9.425H31.9225V5.575H28.0775V9.425ZM35.5775 9.425H39.4225V5.575H35.5775V9.425Z" fill="#EB5454"/>
</svg>
