<svg width="30" height="30" viewBox="0 0 30 30" fill="none" xmlns="http://www.w3.org/2000/svg">
<path d="M12.1416 4.54974C12.8679 3.93099 13.2316 3.62099 13.6116 3.43974C14.0453 3.23254 14.5198 3.125 15.0004 3.125C15.481 3.125 15.9555 3.23254 16.3891 3.43974C16.7691 3.62099 17.1329 3.93099 17.8591 4.54974C18.6079 5.18724 19.3679 5.50974 20.3679 5.58849C21.3191 5.66474 21.7954 5.70349 22.1929 5.84349C23.1104 6.16849 23.8329 6.88974 24.1566 7.80849C24.2966 8.20474 24.3354 8.68098 24.4116 9.63348C24.4904 10.6335 24.8116 11.3922 25.4491 12.141C26.0691 12.8672 26.3791 13.231 26.5604 13.611C26.9804 14.4897 26.9804 15.511 26.5604 16.3885C26.3791 16.7685 26.0691 17.1322 25.4504 17.8585C24.8314 18.5539 24.4654 19.4379 24.4116 20.3672C24.3354 21.3185 24.2966 21.7947 24.1566 22.1922C23.9964 22.6454 23.7367 23.057 23.3967 23.3968C23.0567 23.7366 22.6449 23.996 22.1916 24.156C21.7954 24.296 21.3191 24.3347 20.3666 24.411C19.3666 24.4897 18.6079 24.811 17.8591 25.4485C17.1329 26.0685 16.7691 26.3785 16.3891 26.5597C15.9555 26.7669 15.481 26.8745 15.0004 26.8745C14.5198 26.8745 14.0453 26.7669 13.6116 26.5597C13.2316 26.3785 12.8679 26.0685 12.1416 25.4497C11.4462 24.8308 10.5622 24.4648 9.63286 24.411C8.68161 24.3347 8.20536 24.296 7.80786 24.156C7.35466 23.9957 6.94307 23.7361 6.60327 23.3961C6.26347 23.056 6.00408 22.6443 5.84411 22.191C5.70411 21.7947 5.66536 21.3185 5.58911 20.366C5.53549 19.4372 5.16992 18.5537 4.55161 17.8585C3.93161 17.1322 3.62161 16.7685 3.43911 16.3885C3.23211 15.9548 3.12478 15.4802 3.125 14.9996C3.12522 14.519 3.23297 14.0445 3.44036 13.611C3.62161 13.231 3.93161 12.8672 4.55036 12.141C5.20036 11.3772 5.51161 10.6122 5.58911 9.63224C5.66536 8.68099 5.70411 8.20474 5.84411 7.80724C6.00437 7.35403 6.26402 6.94244 6.60404 6.60265C6.94405 6.26285 7.35581 6.00345 7.80911 5.84349C8.20536 5.70349 8.68161 5.66474 9.63411 5.58849C10.5629 5.53486 11.4464 5.16805 12.1416 4.54974Z" fill="white" stroke="white" stroke-width="1.5" stroke-linecap="round" stroke-linejoin="round"/>
<path d="M15 20V13.75H14.375M14.375 20H15.625M15 10.625V10" stroke="#EB5454" stroke-width="1.5" stroke-linecap="round" stroke-linejoin="round"/>
</svg>
