<svg width="50" height="50" viewBox="0 0 50 50" fill="none" xmlns="http://www.w3.org/2000/svg">
<path d="M25 5C13.9773 5 5 13.9773 5 25C5 36.0227 13.9773 45 25 45C36.0227 45 45 36.0227 45 25C45 13.9773 36.0227 5 25 5ZM25 38.3333C23.7552 38.3333 22.7778 37.3559 22.7778 36.1111V22.7778C22.7778 21.533 23.7552 20.5556 25 20.5556C26.2448 20.5556 27.2222 21.533 27.2222 22.7778V36.1111C27.2222 37.3559 26.2448 38.3333 25 38.3333ZM25 17.8889C23.533 17.8889 22.3333 16.6892 22.3333 15.2222C22.3333 13.7552 23.533 12.5556 25 12.5556C26.467 12.5556 27.6667 13.7552 27.6667 15.2222C27.6667 16.6892 26.467 17.8889 25 17.8889Z" fill="#059324"/>
</svg>
