<svg width="14" height="15" viewBox="0 0 14 15" fill="none" xmlns="http://www.w3.org/2000/svg">
<path d="M7.60092 1.18822C8.0266 1.18658 8.45228 1.19086 8.87783 1.20105L8.991 1.20513C9.12167 1.2098 9.25058 1.21563 9.40633 1.22263C10.027 1.2518 10.4505 1.3498 10.8221 1.49388C11.2071 1.64205 11.5314 1.84272 11.8558 2.16705C12.1523 2.45849 12.3818 2.81102 12.5283 3.20013C12.6724 3.57172 12.7704 3.9958 12.7996 4.61647C12.8066 4.77163 12.8124 4.90113 12.8171 5.0318L12.8206 5.14497C12.8309 5.57033 12.8354 5.99581 12.834 6.4213L12.8346 6.85647V7.62063C12.836 8.04631 12.8316 8.47199 12.8212 8.89755L12.8177 9.01072C12.813 9.14138 12.8072 9.2703 12.8002 9.42605C12.771 10.0467 12.6718 10.4702 12.5283 10.8418C12.3823 11.2313 12.1527 11.5841 11.8558 11.8755C11.5641 12.172 11.2113 12.4015 10.8221 12.548C10.4505 12.6921 10.027 12.7901 9.40633 12.8193C9.25058 12.8263 9.12167 12.8321 8.991 12.8368L8.87783 12.8403C8.45228 12.8507 8.0266 12.8551 7.60092 12.8537L7.16575 12.8543H6.40217C5.97649 12.8557 5.55081 12.8513 5.12525 12.8409L5.01208 12.8374C4.87361 12.8324 4.73516 12.8265 4.59675 12.8199C3.97608 12.7907 3.55258 12.6916 3.18042 12.548C2.79115 12.4018 2.43856 12.1723 2.14733 11.8755C1.85044 11.584 1.62071 11.2312 1.47417 10.8418C1.33008 10.4702 1.23208 10.0467 1.20292 9.42605C1.19642 9.28763 1.19059 9.14919 1.18542 9.01072L1.1825 8.89755C1.17175 8.472 1.16688 8.04632 1.16792 7.62063V6.4213C1.16629 5.99582 1.17057 5.57033 1.18075 5.14497L1.18483 5.0318C1.1895 4.90113 1.19533 4.77163 1.20233 4.61647C1.2315 3.99522 1.3295 3.5723 1.47358 3.20013C1.62022 2.81083 1.8504 2.45839 2.14792 2.16763C2.43894 1.87057 2.79131 1.64064 3.18042 1.49388C3.55258 1.3498 3.9755 1.2518 4.59675 1.22263L5.01208 1.20513L5.12525 1.20222C5.55061 1.19147 5.97609 1.18661 6.40158 1.18763L7.60092 1.18822ZM7.00125 4.10488C6.6148 4.09942 6.23111 4.17081 5.87249 4.31492C5.51386 4.45903 5.18746 4.67298 4.91224 4.94433C4.63703 5.21568 4.41848 5.53903 4.26932 5.89558C4.12015 6.25213 4.04334 6.63477 4.04334 7.02126C4.04334 7.40775 4.12015 7.79039 4.26932 8.14694C4.41848 8.50349 4.63703 8.82683 4.91224 9.09819C5.18746 9.36954 5.51386 9.58349 5.87249 9.72759C6.23111 9.8717 6.6148 9.9431 7.00125 9.93763C7.7748 9.93763 8.51666 9.63034 9.06365 9.08336C9.61063 8.53638 9.91792 7.79452 9.91792 7.02097C9.91792 6.24742 9.61063 5.50555 9.06365 4.95857C8.51666 4.41159 7.7748 4.10488 7.00125 4.10488ZM7.00125 5.27155C7.23371 5.26727 7.4647 5.30935 7.68072 5.39534C7.89673 5.48133 8.09345 5.6095 8.25937 5.77237C8.4253 5.93524 8.5571 6.12954 8.64709 6.34392C8.73708 6.5583 8.78345 6.78846 8.78349 7.02096C8.78353 7.25346 8.73724 7.48364 8.64732 7.69805C8.5574 7.91246 8.42566 8.10681 8.25979 8.26973C8.09392 8.43265 7.89724 8.56089 7.68126 8.64695C7.46527 8.73301 7.2343 8.77517 7.00183 8.77097C6.5377 8.77097 6.09259 8.58659 5.7644 8.2584C5.43621 7.93022 5.25183 7.4851 5.25183 7.02097C5.25183 6.55684 5.43621 6.11172 5.7644 5.78353C6.09259 5.45534 6.5377 5.27097 7.00183 5.27097L7.00125 5.27155ZM10.0638 3.22988C9.87556 3.23742 9.69759 3.31747 9.5671 3.45328C9.43662 3.5891 9.36374 3.77013 9.36374 3.95847C9.36374 4.14681 9.43662 4.32784 9.5671 4.46365C9.69759 4.59946 9.87556 4.67952 10.0638 4.68705C10.2571 4.68705 10.4426 4.61023 10.5794 4.47348C10.7161 4.33674 10.7929 4.15127 10.7929 3.95788C10.7929 3.7645 10.7161 3.57903 10.5794 3.44229C10.4426 3.30554 10.2571 3.22872 10.0638 3.22872V3.22988Z" fill="white"/>
</svg>
