<svg width="566" height="580" viewBox="0 0 566 580" fill="none" xmlns="http://www.w3.org/2000/svg">
<path d="M81.1023 307.085C-27.0341 369.516 -27.0341 470.747 81.1023 533.177C189.239 595.608 364.571 595.608 472.708 533.177C580.844 470.747 580.844 369.516 472.708 307.085C364.571 244.655 189.239 244.655 81.1023 307.085Z" fill="#FAFAFA"/>
<path d="M256.439 377.895L27.132 510.286C25.1056 511.449 21.5782 511.311 19.2516 509.96L4.17877 501.254C1.83967 499.903 1.5895 497.865 3.61589 496.701L232.91 364.311C234.937 363.147 238.464 363.285 240.791 364.636L255.863 373.342C258.202 374.693 258.453 376.732 256.426 377.895H256.439Z" fill="#E0E0E0"/>
<path d="M411.009 527.602C461.025 527.602 501.571 504.193 501.571 475.316C501.571 446.439 461.025 423.03 411.009 423.03C360.993 423.03 320.447 446.439 320.447 475.316C320.447 504.193 360.993 527.602 411.009 527.602Z" fill="#E0E0E0"/>
<path d="M192.772 539.731L366.979 439.112C369.255 437.798 369.255 435.659 366.979 434.346L278.493 383.311C276.217 381.998 272.527 381.998 270.25 383.311L96.0434 483.93C93.7668 485.243 93.7668 487.382 96.0434 488.696L184.529 539.731C186.805 541.044 190.495 541.044 192.772 539.731Z" fill="#E0E0E0"/>
<path d="M460.654 439.324L480.618 450.857C480.355 443.727 479.73 433.132 480.718 425.99C486.747 382.347 503.746 367.95 511.839 346.71C520.357 324.345 509.963 317.14 496.478 321.168C484.445 324.758 467.046 342.558 461.567 375.13C457.927 396.795 458.565 420.336 460.654 439.336V439.324Z" fill="#EB5454"/>
<path opacity="0.65" d="M460.654 439.324L480.618 450.857C480.355 443.727 479.73 433.132 480.718 425.99C486.747 382.347 503.746 367.95 511.839 346.71C520.357 324.345 509.963 317.14 496.478 321.168C484.445 324.758 467.046 342.558 461.567 375.13C457.927 396.795 458.565 420.336 460.654 439.336V439.324Z" fill="white"/>
<path d="M471.229 445.442L473.23 446.593C466.088 395.708 483.487 351.578 500.661 333.353C500.987 333.003 500.974 332.452 500.624 332.115C500.261 331.79 499.711 331.802 499.386 332.152C482.224 350.39 464.837 394.82 471.229 445.442Z" fill="white"/>
<path d="M475.013 447.615L486.245 454.107C492.224 436.52 498.353 429.465 505.971 417.907C512.913 407.375 520.981 400.858 525.272 393.453C529.074 386.898 531.926 378.668 526.285 373.689C517.304 365.759 505.583 374.152 497.515 383.221C490.548 391.064 476.539 411.928 475 447.627L475.013 447.615Z" fill="#EB5454"/>
<path opacity="0.3" d="M475.013 447.615L486.245 454.107C492.224 436.52 498.353 429.465 505.971 417.907C512.913 407.375 520.981 400.858 525.272 393.453C529.074 386.898 531.926 378.668 526.285 373.689C517.304 365.759 505.583 374.152 497.515 383.221C490.548 391.064 476.539 411.928 475 447.627L475.013 447.615Z" fill="white"/>
<path d="M479.621 450.278L481.26 451.229C485.975 423.41 504.876 391.212 516.621 383.62C517.034 383.357 517.159 382.794 516.884 382.381C516.621 381.956 516.071 381.844 515.646 382.119C503.487 389.999 484.637 422.034 479.621 450.29V450.278Z" fill="white"/>
<path d="M230.117 0.948325L19.573 122.356C17.3965 123.607 15.6328 126.659 15.6328 129.173V494.598C15.6328 497.112 17.3965 500.152 19.573 501.403L20.3736 501.853C22.55 503.104 26.0775 503.092 28.2539 501.841L238.798 380.27C240.974 379.019 242.738 375.955 242.738 373.453V8.19077C242.738 5.67656 240.974 2.63698 238.798 1.38612L237.997 0.935817C235.821 -0.315038 232.293 -0.30253 230.117 0.948325Z" fill="#EB5454"/>
<path opacity="0.45" d="M230.117 0.948325L19.573 122.356C17.3965 123.607 15.6328 126.659 15.6328 129.173V494.598C15.6328 497.112 17.3965 500.152 19.573 501.403L20.3736 501.853C22.55 503.104 26.0775 503.092 28.2539 501.841L238.798 380.27C240.974 379.019 242.738 375.955 242.738 373.453V8.19077C242.738 5.67656 240.974 2.63698 238.798 1.38612L237.997 0.935817C235.821 -0.315038 232.293 -0.30253 230.117 0.948325Z" fill="black"/>
<path d="M242.756 373.743C242.756 377.208 240.33 379.41 237.315 381.136L29.7732 500.955C26.7837 502.681 24.332 501.293 24.332 497.815V135.855C24.332 131.99 26.3959 128.413 29.7482 126.474L237.303 6.60458C239.717 5.20362 242.744 6.95482 242.744 9.74422V373.743H242.756Z" fill="#EB5454"/>
<path opacity="0.3" d="M242.756 373.743C242.756 377.208 240.33 379.41 237.315 381.136L29.7732 500.955C26.7837 502.681 24.332 501.293 24.332 497.815V135.855C24.332 131.99 26.3959 128.413 29.7482 126.474L237.303 6.60458C239.717 5.20362 242.744 6.95482 242.744 9.74422V373.743H242.756Z" fill="black"/>
<path d="M242.755 8.19154V9.74261C242.755 6.9532 239.727 5.21451 237.301 6.60296L29.7464 126.472C28.0577 127.423 26.7193 128.812 25.7937 130.425C25.7687 130.475 25.7437 130.5 25.7311 130.55L16.75 125.359C17.4755 124.096 18.4637 122.995 19.5894 122.357L230.121 0.949092C232.297 -0.314271 235.837 -0.314272 238.001 0.936584L238.802 1.3994C240.978 2.63775 242.755 5.68984 242.755 8.20405V8.19154Z" fill="#EB5454"/>
<path opacity="0.2" d="M242.755 8.19154V9.74261C242.755 6.9532 239.727 5.21451 237.301 6.60296L29.7464 126.472C28.0577 127.423 26.7193 128.812 25.7937 130.425C25.7687 130.475 25.7437 130.5 25.7311 130.55L16.75 125.359C17.4755 124.096 18.4637 122.995 19.5894 122.357L230.121 0.949092C232.297 -0.314271 235.837 -0.314272 238.001 0.936584L238.802 1.3994C240.978 2.63775 242.755 5.68984 242.755 8.20405V8.19154Z" fill="black"/>
<path opacity="0.25" d="M237.611 357.794C237.611 361.358 235.109 363.635 232.007 365.411L35.848 478.664C32.7584 480.452 30.2441 479.001 30.2441 475.424V155.931C30.2441 151.94 32.3706 148.263 35.823 146.261L232.007 32.9589C234.496 31.5205 237.611 33.3217 237.611 36.1987V357.794Z" fill="black"/>
<path d="M35.2738 150.514L230.707 37.6739C231.633 37.136 233.134 37.136 234.06 37.6739L235.949 38.7622C236.874 39.3 237.625 40.5884 237.625 41.6641V362.734C237.625 363.797 236.874 365.098 235.949 365.636L40.5024 478.463C39.5767 479.001 38.0757 479.001 37.1626 478.463L35.2738 477.375C34.3482 476.837 33.5977 475.548 33.5977 474.473V153.403C33.5977 152.34 34.3482 151.039 35.2738 150.501V150.514Z" fill="#F5F5F5"/>
<path d="M40.0994 478.647C39.9117 478.722 39.6991 478.772 39.4864 478.809C39.3864 478.822 39.2613 478.834 39.1612 478.847C38.8235 478.872 38.4732 478.859 38.148 478.809C37.9229 478.772 37.7227 478.722 37.5351 478.647C37.41 478.597 37.2724 478.534 37.1599 478.472L35.2836 477.396C34.3579 476.858 33.6074 475.57 33.6074 474.494V153.412C33.6074 152.874 33.7825 152.274 34.0953 151.761L39.3238 154.775C39.0236 155.301 38.836 155.901 38.836 156.426V477.496C38.836 478.409 39.3739 478.859 40.1119 478.647H40.0994Z" fill="#E0E0E0"/>
<path d="M235.937 38.7622L234.048 37.6739C233.122 37.136 231.621 37.136 230.708 37.6739L35.2621 150.514C34.3365 151.051 33.5859 152.34 33.5859 153.416V196.733L38.8145 199.772L237.6 84.9938V41.6516C237.6 40.5884 236.85 39.2875 235.924 38.7496L235.937 38.7622Z" fill="#EB5454"/>
<path opacity="0.4" d="M235.937 38.7622L234.048 37.6739C233.122 37.136 231.621 37.136 230.708 37.6739L35.2621 150.514C34.3365 151.051 33.5859 152.34 33.5859 153.416V196.733L38.8145 199.772L237.6 84.9938V41.6516C237.6 40.5884 236.85 39.2875 235.924 38.7496L235.937 38.7622Z" fill="white"/>
<path d="M237.542 41.1513C237.342 40.4633 236.692 40.2507 235.929 40.6885L40.495 153.528C40.0322 153.803 39.6069 154.254 39.3067 154.779L34.0781 151.764C34.3783 151.239 34.8036 150.776 35.2664 150.514L230.713 37.6739C231.626 37.136 233.139 37.136 234.052 37.6739L235.941 38.7622C236.729 39.225 237.38 40.2131 237.555 41.1513H237.542Z" fill="#EB5454"/>
<path opacity="0.6" d="M237.542 41.1513C237.342 40.4633 236.692 40.2507 235.929 40.6885L40.495 153.528C40.0322 153.803 39.6069 154.254 39.3067 154.779L34.0781 151.764C34.3783 151.239 34.8036 150.776 35.2664 150.514L230.713 37.6739C231.626 37.136 233.139 37.136 234.052 37.6739L235.941 38.7622C236.729 39.225 237.38 40.2131 237.555 41.1513H237.542Z" fill="white"/>
<path d="M33.5859 153.414V196.743L38.8145 199.758V156.416C38.8145 155.89 39.0021 155.29 39.3023 154.765L34.0738 151.75C33.7611 152.263 33.5859 152.863 33.5859 153.401V153.414Z" fill="#EB5454"/>
<path d="M78.4788 212.856L198.198 143.546C198.724 143.246 199.149 143.484 199.149 144.097V145.335C199.149 145.948 198.724 146.686 198.198 146.986L78.4663 216.296C77.9409 216.596 77.5156 216.359 77.5156 215.746V214.507C77.5156 213.895 77.9409 213.157 78.4663 212.856H78.4788Z" fill="#EB5454"/>
<path d="M83.3359 264.252V266.004C83.3359 266.954 83.9989 267.329 84.8245 266.867L163.728 221.373C164.554 220.898 165.217 219.747 165.217 218.796V217.045C165.217 216.094 164.554 215.719 163.728 216.182L84.8245 261.688C83.9989 262.163 83.3359 263.314 83.3359 264.265V264.252Z" fill="#E0E0E0"/>
<path d="M83.3359 275.272V277.023C83.3359 277.974 83.9989 278.349 84.8245 277.886L220.342 199.683C221.168 199.207 221.831 198.056 221.831 197.106V195.355C221.831 194.404 221.168 194.029 220.342 194.492L84.8245 272.695C83.9989 273.17 83.3359 274.321 83.3359 275.272Z" fill="#E0E0E0"/>
<path d="M83.3359 285.753V287.504C83.3359 288.455 83.9989 288.83 84.8245 288.368L220.342 210.164C221.168 209.689 221.831 208.538 221.831 207.587V205.836C221.831 204.885 221.168 204.51 220.342 204.973L84.8245 283.176C83.9989 283.652 83.3359 284.803 83.3359 285.753Z" fill="#E0E0E0"/>
<path d="M52.5841 307.658C52.4465 307.658 52.3214 307.621 52.1964 307.558C51.9587 307.421 51.8086 307.17 51.8086 306.895V281.59C51.8086 281.315 51.9587 281.065 52.1964 280.927L73.9612 268.369C74.1989 268.231 74.4866 268.231 74.7243 268.369C74.9619 268.506 75.112 268.757 75.112 269.032V294.337C75.112 294.612 74.9619 294.862 74.7243 295L52.9719 307.558C52.8593 307.633 52.7217 307.658 52.5841 307.658ZM53.3471 282.028V305.569L73.5735 293.886V270.345L53.3471 282.028Z" fill="#455A64"/>
<path d="M63.1968 295.824L58.1309 290.958L59.8195 287.368L62.709 290.145L75.18 263.739L77.3565 265.841L63.1968 295.824Z" fill="#EB5454"/>
<path d="M83.3359 303.863V305.614C83.3359 306.565 83.9989 306.94 84.8245 306.477L163.728 260.983C164.554 260.508 165.217 259.357 165.217 258.407V256.655C165.217 255.705 164.554 255.33 163.728 255.792L84.8245 301.298C83.9989 301.774 83.3359 302.925 83.3359 303.875V303.863Z" fill="#E0E0E0"/>
<path d="M83.3359 314.882V316.633C83.3359 317.584 83.9989 317.959 84.8245 317.496L220.342 239.293C221.168 238.818 221.831 237.667 221.831 236.716V234.965C221.831 234.014 221.168 233.639 220.342 234.102L84.8245 312.305C83.9989 312.781 83.3359 313.931 83.3359 314.882Z" fill="#E0E0E0"/>
<path d="M83.3359 325.374V327.126C83.3359 328.076 83.9989 328.451 84.8245 327.989L220.342 249.785C221.168 249.31 221.831 248.159 221.831 247.208V245.457C221.831 244.507 221.168 244.131 220.342 244.594L84.8245 322.798C83.9989 323.273 83.3359 324.424 83.3359 325.374Z" fill="#E0E0E0"/>
<path d="M52.5841 347.271C52.4465 347.271 52.3214 347.234 52.1964 347.171C51.9587 347.034 51.8086 346.784 51.8086 346.508V321.204C51.8086 320.928 51.9587 320.678 52.1964 320.541L73.9612 307.982C74.1989 307.845 74.4866 307.845 74.7243 307.982C74.9619 308.12 75.112 308.37 75.112 308.645V333.95C75.112 334.225 74.9619 334.475 74.7243 334.613L52.9719 347.171C52.8593 347.246 52.7217 347.271 52.5841 347.271ZM53.3471 321.641V345.183L73.5735 333.5V309.958L53.3471 321.641Z" fill="#455A64"/>
<path d="M63.1968 335.435L58.1309 330.569L59.8195 326.979L62.709 329.756L75.18 303.363L77.3565 305.452L63.1968 335.435Z" fill="#EB5454"/>
<path d="M83.3359 343.494V345.245C83.3359 346.195 83.9989 346.571 84.8245 346.108L163.728 300.614C164.554 300.139 165.217 298.988 165.217 298.037V296.286C165.217 295.336 164.554 294.96 163.728 295.423L84.8245 340.929C83.9989 341.405 83.3359 342.555 83.3359 343.506V343.494Z" fill="#E0E0E0"/>
<path d="M83.3359 354.502V356.253C83.3359 357.204 83.9989 357.579 84.8245 357.117L220.342 278.913C221.168 278.438 221.831 277.287 221.831 276.336V274.585C221.831 273.634 221.168 273.259 220.342 273.722L84.8245 351.925C83.9989 352.401 83.3359 353.552 83.3359 354.502Z" fill="#E0E0E0"/>
<path d="M83.3359 364.994V366.746C83.3359 367.696 83.9989 368.072 84.8245 367.609L220.342 289.405C221.168 288.93 221.831 287.779 221.831 286.828V285.077C221.831 284.127 221.168 283.751 220.342 284.214L84.8245 362.418C83.9989 362.893 83.3359 364.044 83.3359 364.994Z" fill="#E0E0E0"/>
<path d="M52.5841 386.893C52.4465 386.893 52.3214 386.855 52.1964 386.792C51.9587 386.655 51.8086 386.405 51.8086 386.13V360.825C51.8086 360.55 51.9587 360.299 52.1964 360.162L73.9612 347.603C74.1989 347.466 74.4866 347.466 74.7243 347.603C74.9619 347.741 75.112 347.991 75.112 348.266V373.571C75.112 373.846 74.9619 374.096 74.7243 374.234L52.9719 386.792C52.8593 386.855 52.7217 386.893 52.5841 386.893ZM53.3471 361.263V384.804L73.5735 373.121V349.58L53.3471 361.263Z" fill="#455A64"/>
<path d="M63.1968 375.069L58.1309 370.19L59.8195 366.613L62.709 369.377L75.18 342.984L77.3565 345.086L63.1968 375.069Z" fill="#EB5454"/>
<path d="M83.3359 383.104V384.855C83.3359 385.806 83.9989 386.181 84.8245 385.718L163.728 340.225C164.554 339.749 165.217 338.598 165.217 337.648V335.897C165.217 334.946 164.554 334.571 163.728 335.034L84.8245 380.54C83.9989 381.015 83.3359 382.166 83.3359 383.116V383.104Z" fill="#E0E0E0"/>
<path d="M83.3359 394.123V395.875C83.3359 396.825 83.9989 397.2 84.8245 396.738L220.342 318.534C221.168 318.059 221.831 316.908 221.831 315.957V314.206C221.831 313.256 221.168 312.88 220.342 313.343L84.8245 391.547C83.9989 392.022 83.3359 393.173 83.3359 394.123Z" fill="#E0E0E0"/>
<path d="M83.3359 404.605V406.356C83.3359 407.307 83.9989 407.682 84.8245 407.219L220.342 329.016C221.168 328.54 221.831 327.39 221.831 326.439V324.688C221.831 323.737 221.168 323.362 220.342 323.825L84.8245 402.028C83.9989 402.503 83.3359 403.654 83.3359 404.605Z" fill="#E0E0E0"/>
<path d="M52.5841 426.509C52.4465 426.509 52.3214 426.471 52.1964 426.409C51.9587 426.271 51.8086 426.021 51.8086 425.746V400.441C51.8086 400.166 51.9587 399.916 52.1964 399.778L73.9612 387.219C74.1989 387.082 74.4866 387.082 74.7243 387.219C74.9619 387.357 75.112 387.607 75.112 387.882V413.187C75.112 413.462 74.9619 413.712 74.7243 413.85L52.9719 426.409C52.8593 426.484 52.7217 426.509 52.5841 426.509ZM53.3471 400.879V424.42L73.5735 412.737V389.196L53.3471 400.879Z" fill="#455A64"/>
<path d="M63.1968 414.674L58.1309 409.808L59.8195 406.219L62.709 408.995L75.18 382.59L77.3565 384.691L63.1968 414.674Z" fill="#EB5454"/>
<path d="M51.8211 244.44V246.191C51.8211 247.141 52.4841 247.517 53.3096 247.054L220.349 150.588C221.174 150.113 221.837 148.962 221.837 148.011V146.26C221.837 145.309 221.174 144.934 220.349 145.397L53.2971 241.875C52.4716 242.351 51.8086 243.501 51.8086 244.452L51.8211 244.44Z" fill="#E0E0E0"/>
<path d="M51.8211 255.576V257.327C51.8211 258.278 52.4841 258.653 53.3096 258.191L220.349 161.725C221.174 161.249 221.837 160.098 221.837 159.148V157.397C221.837 156.446 221.174 156.071 220.349 156.534L53.2971 253C52.4716 253.475 51.8086 254.626 51.8086 255.576H51.8211Z" fill="#E0E0E0"/>
<path d="M51.8211 266.704V268.455C51.8211 269.406 52.4841 269.781 53.3096 269.318L220.349 172.853C221.174 172.377 221.837 171.226 221.837 170.276V168.525C221.837 167.574 221.174 167.199 220.349 167.661L53.2971 264.127C52.4716 264.603 51.8086 265.754 51.8086 266.704H51.8211Z" fill="#E0E0E0"/>
<path d="M51.8211 441.298V443.049C51.8211 444 52.4841 444.375 53.3096 443.912L220.349 347.446C221.174 346.971 221.837 345.82 221.837 344.87V343.118C221.837 342.168 221.174 341.792 220.349 342.255L53.2971 438.721C52.4716 439.197 51.8086 440.347 51.8086 441.298H51.8211Z" fill="#E0E0E0"/>
<path d="M51.8211 452.415V454.166C51.8211 455.117 52.4841 455.492 53.3096 455.029L220.349 358.563C221.174 358.088 221.837 356.937 221.837 355.987V354.236C221.837 353.285 221.174 352.91 220.349 353.372L53.2971 449.838C52.4716 450.314 51.8086 451.464 51.8086 452.415H51.8211Z" fill="#E0E0E0"/>
<path d="M53.5973 168.421L122.032 128.881C123.02 128.306 123.82 128.769 123.82 129.907V130.432C123.82 131.571 123.02 132.959 122.032 133.522L53.5973 173.062C52.6091 173.637 51.8086 173.174 51.8086 172.036V171.51C51.8086 170.372 52.6091 168.984 53.5973 168.421Z" fill="#FAFAFA"/>
<path d="M53.5973 177.778L94.3127 154.275C95.3008 153.699 96.1014 154.162 96.1014 155.301V155.826C96.1014 156.964 95.3008 158.353 94.3127 158.916L53.5973 182.419C52.6091 182.994 51.8086 182.532 51.8086 181.393V180.868C51.8086 179.73 52.6091 178.341 53.5973 177.778Z" fill="#FAFAFA"/>
<path d="M190.494 88.777L220.927 71.19C221.415 70.9023 221.815 71.14 221.815 71.7029V72.8662C221.815 73.429 221.415 74.1295 220.927 74.4047L190.494 91.9917C190.006 92.2794 189.605 92.0418 189.605 91.4789V90.3156C189.605 89.7527 190.006 89.0522 190.494 88.777Z" fill="#EB5454"/>
<path d="M190.494 102.814L220.927 85.2271C221.415 84.9394 221.815 85.1771 221.815 85.74V86.9033C221.815 87.4662 221.415 88.1666 220.927 88.4418L190.494 106.029C190.006 106.317 189.605 106.079 189.605 105.516V104.353C189.605 103.79 190.006 103.089 190.494 102.814Z" fill="#EB5454"/>
<path d="M196.765 92.1253L220.919 78.1783C221.407 77.8906 221.807 78.1283 221.807 78.6911V79.8544C221.807 80.4173 221.407 81.1178 220.919 81.393L196.765 95.34C196.277 95.6277 195.877 95.3901 195.877 94.8272V93.6639C195.877 93.101 196.277 92.4005 196.765 92.1253Z" fill="#EB5454"/>
<path d="M80.7996 207.297C80.6495 207.385 80.5244 207.372 80.4243 207.272C80.3118 207.172 80.2617 207.009 80.2617 206.772V186.758C80.2617 186.533 80.3118 186.308 80.4243 186.083C80.5369 185.857 80.662 185.695 80.7996 185.62L82.4257 184.682C82.5758 184.594 82.7009 184.607 82.8135 184.707C82.926 184.807 82.9761 184.969 82.9761 185.207V205.221C82.9761 205.446 82.926 205.671 82.8135 205.909C82.7009 206.134 82.5758 206.296 82.4257 206.371L80.7996 207.31V207.297Z" fill="#455A64"/>
<path d="M95.2543 198.953C95.0291 199.091 94.854 199.091 94.7289 198.978C94.6038 198.866 94.5163 198.766 94.4662 198.691L88.8374 189.059V201.818C88.8374 202.043 88.7874 202.268 88.6748 202.506C88.5747 202.731 88.4371 202.894 88.2995 202.969L86.6734 203.907C86.5233 203.994 86.3982 203.982 86.2857 203.882C86.1856 203.782 86.123 203.619 86.123 203.381V183.368C86.123 183.143 86.1731 182.917 86.2857 182.692C86.3982 182.467 86.5233 182.305 86.6734 182.229L88.0869 181.416C88.312 181.279 88.4872 181.279 88.6122 181.391C88.7373 181.504 88.8249 181.604 88.8749 181.679L94.5038 191.311V178.552C94.5038 178.327 94.5538 178.102 94.6664 177.877C94.779 177.651 94.904 177.489 95.0416 177.414L96.6678 176.476C96.8179 176.388 96.9429 176.4 97.0555 176.501C97.1681 176.601 97.2181 176.763 97.2181 177.001V197.015C97.2181 197.24 97.1681 197.465 97.0555 197.703C96.9429 197.928 96.8179 198.09 96.6678 198.165L95.2543 198.978V198.953Z" fill="#455A64"/>
<path d="M105.173 171.238C106.074 170.725 106.862 170.45 107.55 170.425C108.238 170.4 108.8 170.537 109.263 170.838C109.726 171.138 110.064 171.551 110.301 172.076C110.539 172.614 110.664 173.177 110.689 173.752C110.702 173.99 110.652 174.227 110.539 174.44C110.427 174.665 110.289 174.815 110.151 174.903L108.738 175.716C108.513 175.853 108.338 175.878 108.225 175.816C108.112 175.753 108.012 175.628 107.912 175.453C107.712 175.053 107.399 174.778 106.999 174.64C106.586 174.49 105.986 174.653 105.185 175.115C104.835 175.316 104.51 175.566 104.185 175.866C103.872 176.166 103.597 176.479 103.359 176.842C103.122 177.192 102.934 177.567 102.809 177.955C102.671 178.343 102.609 178.73 102.609 179.131C102.609 179.606 102.671 179.956 102.796 180.181C102.921 180.407 103.134 180.544 103.447 180.582C103.747 180.619 104.147 180.594 104.648 180.494C105.148 180.394 105.761 180.256 106.499 180.081C107.299 179.881 108 179.794 108.575 179.819C109.163 179.844 109.639 180.006 110.001 180.294C110.364 180.582 110.652 181.007 110.827 181.57C111.002 182.12 111.102 182.833 111.102 183.671C111.102 184.597 110.964 185.535 110.702 186.486C110.427 187.436 110.051 188.337 109.551 189.188C109.051 190.038 108.438 190.851 107.725 191.589C106.999 192.34 106.186 192.978 105.286 193.491C104.535 193.928 103.822 194.204 103.134 194.316C102.446 194.429 101.846 194.379 101.308 194.153C100.782 193.928 100.357 193.541 100.032 192.99C99.7067 192.44 99.5316 191.714 99.4941 190.826C99.4816 190.589 99.5316 190.351 99.6442 190.138C99.7567 189.913 99.8943 189.763 100.044 189.675L101.445 188.862C101.671 188.725 101.846 188.687 101.971 188.75C102.096 188.8 102.196 188.925 102.271 189.138C102.359 189.35 102.484 189.55 102.609 189.75C102.746 189.938 102.921 190.076 103.147 190.151C103.372 190.226 103.659 190.226 103.997 190.163C104.335 190.101 104.76 189.926 105.273 189.625C105.673 189.388 106.061 189.125 106.436 188.812C106.812 188.5 107.137 188.162 107.424 187.774C107.712 187.399 107.937 186.999 108.112 186.573C108.288 186.148 108.375 185.71 108.375 185.235C108.375 184.76 108.275 184.459 108.1 184.284C107.912 184.109 107.625 184.022 107.249 184.034C106.862 184.047 106.399 184.122 105.836 184.259C105.273 184.397 104.623 184.534 103.885 184.672C103.209 184.81 102.634 184.86 102.121 184.81C101.621 184.76 101.208 184.584 100.87 184.272C100.545 183.972 100.295 183.521 100.132 182.946C99.9694 182.37 99.8943 181.62 99.8943 180.682C99.8943 179.744 100.032 178.818 100.295 177.88C100.57 176.942 100.933 176.054 101.395 175.228C101.871 174.402 102.421 173.639 103.072 172.939C103.722 172.238 104.422 171.676 105.173 171.25V171.238Z" fill="#455A64"/>
<path d="M124.246 160.52C124.396 160.433 124.521 160.445 124.634 160.545C124.734 160.646 124.797 160.808 124.797 161.046V173.742C124.797 175.018 124.671 176.244 124.434 177.42C124.196 178.595 123.833 179.684 123.346 180.709C122.858 181.735 122.257 182.648 121.532 183.474C120.806 184.299 119.968 184.987 119.018 185.525C118.054 186.088 117.204 186.363 116.491 186.376C115.778 186.376 115.177 186.163 114.69 185.7C114.214 185.237 113.852 184.549 113.614 183.661C113.376 182.761 113.264 181.672 113.264 180.397V167.7C113.264 167.475 113.314 167.25 113.426 167.025C113.526 166.8 113.664 166.637 113.814 166.562L115.44 165.624C115.59 165.536 115.715 165.549 115.828 165.649C115.928 165.749 115.991 165.912 115.991 166.149V178.695C115.991 179.546 116.066 180.221 116.216 180.734C116.366 181.247 116.566 181.622 116.841 181.848C117.116 182.073 117.429 182.173 117.804 182.123C118.18 182.085 118.592 181.935 119.03 181.672C119.468 181.422 119.881 181.097 120.268 180.697C120.656 180.296 120.981 179.834 121.244 179.296C121.507 178.758 121.719 178.145 121.882 177.457C122.032 176.769 122.12 176.006 122.12 175.155V162.609C122.12 162.384 122.17 162.159 122.282 161.934C122.382 161.709 122.52 161.546 122.658 161.471L124.271 160.545L124.246 160.52Z" fill="#455A64"/>
<path d="M133.575 155.141C135.252 154.177 136.527 154.04 137.403 154.728C138.279 155.428 138.716 156.829 138.716 158.956C138.716 160.469 138.491 161.883 138.041 163.196C137.591 164.522 136.928 165.685 136.065 166.711L138.842 172.765C138.879 172.865 138.904 172.965 138.904 173.065C138.904 173.253 138.854 173.441 138.779 173.616C138.691 173.803 138.591 173.928 138.466 174.004L136.753 174.992C136.49 175.142 136.29 175.167 136.152 175.042C136.027 174.917 135.94 174.792 135.877 174.654L133.238 168.963L130.561 170.501V177.719C130.561 177.944 130.511 178.169 130.398 178.407C130.298 178.632 130.161 178.794 130.01 178.869L128.384 179.807C128.234 179.895 128.109 179.883 127.997 179.782C127.897 179.682 127.834 179.52 127.834 179.282V159.268C127.834 159.043 127.884 158.818 127.997 158.593C128.109 158.368 128.234 158.205 128.384 158.13L133.575 155.128V155.141ZM130.561 166.636L133.475 164.947C134.238 164.51 134.851 163.947 135.302 163.271C135.764 162.596 135.99 161.683 135.99 160.519C135.99 159.356 135.764 158.718 135.302 158.593C134.851 158.468 134.238 158.618 133.475 159.056L130.561 160.744V166.636Z" fill="#455A64"/>
<path d="M147.927 146.848C148.139 146.723 148.302 146.723 148.414 146.836C148.527 146.948 148.614 147.161 148.702 147.461L153.63 164.198C153.63 164.198 153.655 164.323 153.655 164.398C153.655 164.623 153.605 164.848 153.493 165.086C153.38 165.311 153.255 165.474 153.105 165.549L151.654 166.387C151.391 166.537 151.204 166.562 151.091 166.449C150.979 166.337 150.916 166.212 150.866 166.062L150.003 163.122L143.649 166.787L142.786 170.727C142.748 170.915 142.673 171.127 142.56 171.365C142.448 171.603 142.26 171.803 141.997 171.953L140.546 172.791C140.396 172.879 140.271 172.866 140.159 172.766C140.046 172.666 139.996 172.503 139.996 172.266C139.996 172.178 139.996 172.103 140.021 172.041L144.949 149.613C145.025 149.212 145.125 148.9 145.225 148.662C145.337 148.424 145.5 148.249 145.713 148.124L147.927 146.848ZM149.027 159.807L146.813 152.252L144.599 162.359L149.027 159.807Z" fill="#455A64"/>
<path d="M164.62 158.902C164.394 159.039 164.219 159.039 164.094 158.927C163.969 158.814 163.882 158.714 163.831 158.639L158.203 149.007V161.766C158.203 161.991 158.153 162.216 158.04 162.454C157.94 162.679 157.802 162.842 157.665 162.917L156.039 163.855C155.889 163.943 155.763 163.93 155.651 163.83C155.551 163.73 155.488 163.567 155.488 163.33V143.316C155.488 143.091 155.538 142.866 155.651 142.641C155.763 142.415 155.889 142.253 156.039 142.178L157.452 141.365C157.677 141.227 157.852 141.227 157.977 141.34C158.103 141.452 158.19 141.552 158.24 141.627L163.869 151.259V138.5C163.869 138.275 163.919 138.05 164.032 137.825C164.144 137.6 164.269 137.437 164.419 137.362L166.046 136.424C166.196 136.336 166.321 136.349 166.433 136.449C166.546 136.549 166.596 136.711 166.596 136.949V156.963C166.596 157.188 166.546 157.413 166.433 157.651C166.321 157.888 166.196 158.039 166.046 158.114L164.632 158.927L164.62 158.902Z" fill="#455A64"/>
<path d="M178.36 144.093C178.385 143.805 178.46 143.568 178.572 143.368C178.685 143.167 178.81 143.03 178.948 142.955L180.574 142.017C180.724 141.929 180.849 141.929 180.962 142.017C181.074 142.104 181.124 142.279 181.112 142.529C181.074 143.405 180.937 144.331 180.699 145.306C180.461 146.295 180.098 147.258 179.623 148.221C179.135 149.184 178.535 150.097 177.797 150.948C177.059 151.811 176.171 152.536 175.12 153.149C174.194 153.687 173.381 153.937 172.668 153.937C171.955 153.925 171.355 153.687 170.855 153.212C170.354 152.749 169.967 152.061 169.691 151.173C169.416 150.272 169.254 149.222 169.204 148.021C169.179 147.258 169.166 146.395 169.166 145.444C169.166 144.493 169.179 143.618 169.204 142.817C169.254 141.541 169.416 140.303 169.691 139.09C169.967 137.876 170.354 136.751 170.855 135.712C171.355 134.674 171.955 133.736 172.668 132.898C173.381 132.06 174.194 131.384 175.12 130.846C176.171 130.246 177.059 129.946 177.797 129.958C178.535 129.958 179.148 130.171 179.623 130.571C180.111 130.972 180.461 131.534 180.699 132.26C180.937 132.985 181.074 133.748 181.112 134.549C181.124 134.787 181.074 135.024 180.962 135.237C180.849 135.462 180.711 135.612 180.574 135.7L178.948 136.638C178.81 136.713 178.685 136.726 178.56 136.663C178.435 136.6 178.372 136.438 178.335 136.188C178.297 135.8 178.197 135.45 178.06 135.137C177.909 134.824 177.709 134.599 177.459 134.436C177.209 134.274 176.884 134.211 176.496 134.236C176.108 134.261 175.645 134.424 175.133 134.737C174.607 135.037 174.157 135.425 173.769 135.9C173.381 136.375 173.056 136.888 172.793 137.451C172.531 138.014 172.331 138.627 172.193 139.29C172.055 139.953 171.968 140.603 171.943 141.266C171.918 142.067 171.905 142.942 171.905 143.893C171.905 144.844 171.918 145.707 171.943 146.47C171.968 147.12 172.055 147.683 172.193 148.171C172.331 148.659 172.531 149.034 172.793 149.297C173.056 149.559 173.381 149.697 173.769 149.722C174.157 149.747 174.62 149.609 175.133 149.309C175.658 149.009 176.108 148.646 176.496 148.221C176.884 147.796 177.209 147.358 177.472 146.895C177.734 146.432 177.934 145.969 178.085 145.481C178.235 145.006 178.322 144.543 178.36 144.106V144.093Z" fill="#455A64"/>
<path d="M192.84 138.744C192.991 138.656 193.116 138.668 193.216 138.769C193.328 138.869 193.378 139.031 193.378 139.269V141.47C193.378 141.696 193.328 141.921 193.216 142.158C193.116 142.383 192.978 142.546 192.84 142.621L184.009 147.725C183.859 147.812 183.734 147.8 183.622 147.7C183.509 147.6 183.459 147.437 183.459 147.199V127.186C183.459 126.96 183.509 126.735 183.622 126.51C183.734 126.285 183.859 126.122 184.009 126.047L192.678 121.044C192.828 120.956 192.953 120.969 193.066 121.069C193.166 121.169 193.228 121.332 193.228 121.569V123.771C193.228 123.996 193.178 124.221 193.066 124.459C192.953 124.684 192.828 124.847 192.678 124.922L186.173 128.674V133.602L192.227 130.1C192.378 130.013 192.503 130.025 192.615 130.125C192.728 130.225 192.778 130.388 192.778 130.625V132.827C192.778 133.052 192.728 133.277 192.615 133.502C192.515 133.728 192.378 133.89 192.227 133.978L186.173 137.48V142.621L192.828 138.781L192.84 138.744Z" fill="#455A64"/>
<g opacity="0.25">
<path d="M192.404 51.7951V68.5941C192.404 72.847 189.502 77.8755 185.812 80.0019L153.29 98.7773C151.676 99.7029 150.763 101.554 149.8 103.506C149.087 104.944 148.349 106.407 147.286 107.608C144.759 110.473 139.255 113.462 135.365 114.701C134.052 115.126 132.751 115.426 131.462 115.601C130.975 115.689 130.424 115.751 129.861 115.814C126.309 116.289 121.893 116.89 119.304 118.391L81.2406 140.356C80.0898 141.019 78.964 141.356 77.9258 141.356C77.1253 141.356 76.3748 141.169 75.6993 140.781C74.1482 139.88 73.2852 138.092 73.2852 135.778V118.979C73.2852 114.726 76.1746 109.697 79.8772 107.571L92.6609 100.191C92.6609 100.191 92.7735 100.141 92.836 100.128C93.4489 99.853 94.1744 100.103 94.5247 100.704C94.8624 101.291 94.6998 102.055 94.1744 102.442C94.1369 102.492 94.0744 102.542 94.0243 102.567L81.2406 109.947C78.4137 111.586 76.012 115.726 76.012 118.991V135.79C76.012 137.091 76.3998 138.042 77.0627 138.429C77.7257 138.83 78.7514 138.667 79.8772 138.017L117.941 116.039C120.993 114.275 125.721 113.637 129.499 113.137C130.061 113.075 130.587 112.987 131.087 112.924C132.2 112.762 133.376 112.499 134.552 112.124C138.004 111.036 143.133 108.234 145.247 105.832C146.085 104.906 146.698 103.631 147.361 102.317C148.462 100.078 149.612 97.7766 151.926 96.4382L184.449 77.6628C187.276 76.0242 189.677 71.8839 189.677 68.6191V51.8202C189.677 50.5318 189.289 49.5686 188.627 49.1934C187.964 48.7931 186.925 48.9557 185.812 49.6062L174.73 55.998C174.367 55.1599 173.879 54.3594 173.341 53.6464L184.449 47.2295C186.45 46.0537 188.426 45.9161 189.99 46.8042C191.541 47.7048 192.404 49.4936 192.404 51.8077V51.7951Z" fill="black"/>
</g>
<path d="M168.666 52.1079C169.542 51.5951 170.755 51.6576 172.093 52.4331C174.758 53.9717 176.922 57.7242 176.922 60.8013C176.922 62.3524 176.371 63.4407 175.483 63.941L98.318 108.496L91.4883 96.6509L168.654 52.0954L168.666 52.1079Z" fill="#37474F"/>
<path d="M94.9381 102.617L175.531 56.085C174.655 54.559 173.442 53.2206 172.103 52.4451C171.941 52.3575 171.791 52.3075 171.641 52.2324L92.2988 98.0387L94.9381 102.617Z" fill="#455A64"/>
<path d="M94.9435 97.003C92.2792 95.4644 90.1152 96.7153 90.1152 99.7924C90.1152 102.869 92.2792 106.622 94.9435 108.161C97.6079 109.699 99.7718 108.448 99.7718 105.371C99.7718 102.294 97.6079 98.5415 94.9435 97.003Z" fill="#263238"/>
<path d="M193.777 52.9979V69.7969C193.777 74.0498 190.875 79.0782 187.185 81.2047L154.663 99.98C153.049 100.906 152.136 102.757 151.173 104.708C150.46 106.147 149.722 107.61 148.659 108.811C146.132 111.676 140.628 114.665 136.738 115.903C135.425 116.329 134.124 116.629 132.835 116.804C132.348 116.892 131.797 116.954 131.234 117.017C127.682 117.492 123.266 118.092 120.677 119.593L82.6136 141.558C81.4629 142.221 80.3371 142.559 79.2989 142.559C78.4983 142.559 77.7478 142.372 77.0724 141.984C75.5213 141.083 74.6582 139.294 74.6582 136.98V120.181C74.6582 115.928 77.5477 110.9 81.2502 108.774L94.034 101.393C94.034 101.393 94.1465 101.343 94.2091 101.331C94.822 101.056 95.5475 101.306 95.8977 101.906C96.2355 102.494 96.0729 103.257 95.5475 103.633C95.51 103.683 95.4474 103.733 95.3974 103.758L82.6136 111.138C79.7867 112.776 77.3851 116.917 77.3851 120.181V136.98C77.3851 138.281 77.7728 139.232 78.4358 139.607C79.0987 140.007 80.1244 139.845 81.2502 139.194L119.314 117.217C122.366 115.453 127.094 114.815 130.872 114.315C131.435 114.252 131.96 114.165 132.448 114.102C133.561 113.94 134.737 113.677 135.913 113.302C139.365 112.213 144.493 109.411 146.607 107.01C147.445 106.084 148.058 104.808 148.721 103.495C149.822 101.256 150.973 98.9543 153.287 97.6159L185.809 78.8406C188.636 77.2019 191.038 73.0616 191.038 69.7969V52.9979C191.038 51.7095 190.65 50.7464 189.987 50.3711C189.324 49.9708 188.286 50.1334 187.173 50.7839L176.09 57.1758C175.727 56.3377 175.239 55.5371 174.702 54.8241L185.809 48.4073C187.811 47.2315 189.787 47.0939 191.351 47.982C192.902 48.8826 193.765 50.6713 193.765 52.9854L193.777 52.9979Z" fill="#455A64"/>
<path d="M109.734 463.371L273.609 369.044L355.553 416.201L191.665 510.528L109.734 463.371Z" fill="#EB5454"/>
<path opacity="0.7" d="M109.734 463.371L273.609 369.044L355.553 416.201L191.665 510.528L109.734 463.371Z" fill="white"/>
<path d="M273.608 373.993L118.352 463.354L191.664 505.558L346.92 416.197L273.608 373.993ZM191.664 503.069L122.667 463.354L273.608 376.47L342.605 416.184L191.664 503.069Z" fill="#EB5454"/>
<path d="M202.089 457.793C194.759 453.577 190.719 447.798 190.719 441.544C190.719 434.714 195.647 427.96 204.253 423.019C221.102 413.325 247.545 412.762 263.206 421.781C270.536 425.996 274.576 431.775 274.576 438.029C274.576 444.859 269.648 451.613 261.042 456.554C252.211 461.633 240.753 464.21 229.583 464.21C219.438 464.21 209.544 462.083 202.089 457.793ZM204.978 424.282C196.848 428.96 192.182 435.252 192.182 441.544C192.182 447.261 195.96 452.577 202.827 456.529C218.075 465.31 243.868 464.747 260.316 455.291C268.447 450.613 273.113 444.321 273.113 438.029C273.113 432.313 269.335 426.997 262.468 423.044C255.213 418.866 245.581 416.802 235.712 416.802C224.817 416.802 213.609 419.316 204.991 424.282H204.978Z" fill="#EB5454"/>
<g opacity="0.5">
<path d="M204.74 453.216C199.111 449.976 196.021 445.836 196.021 441.545C196.021 436.667 199.987 431.576 206.904 427.598C214.597 423.17 225.091 420.631 235.711 420.631C245.318 420.631 254.136 422.67 260.553 426.36C266.182 429.599 269.272 433.74 269.272 438.03C269.272 442.909 265.306 448 258.389 451.977C250.696 456.405 240.202 458.945 229.594 458.945C219.988 458.945 211.157 456.906 204.752 453.216H204.74Z" fill="#EB5454"/>
</g>
<path opacity="0.5" d="M195.628 491.651C193.451 490.401 189.899 490.413 187.722 491.651L183.044 494.341L138.113 468.648L143.529 465.534C144.443 465.008 144.955 464.345 144.955 463.682C144.955 463.019 144.455 462.369 143.529 461.843L138.126 458.729L187.46 430.172L186.496 432.273C185.283 434.9 184.67 437.614 184.67 440.329C184.67 448.334 192.713 456.54 200.681 461.131C207.798 465.221 220.244 469.361 232.027 469.361C235.28 469.361 238.544 469.149 241.747 468.736L245.362 468.273L200.318 494.353L195.64 491.651H195.628Z" fill="#EB5454"/>
<g opacity="0.4">
<path d="M173.863 474.576C171.987 473.5 170.961 471.999 170.961 470.348C170.961 468.572 172.199 466.833 174.363 465.595C178.391 463.268 184.733 463.143 188.498 465.307C190.362 466.383 191.4 467.884 191.4 469.535C191.4 471.311 190.162 473.05 187.998 474.288C185.884 475.502 183.144 476.115 180.48 476.115C178.041 476.115 175.664 475.602 173.875 474.576H173.863Z" fill="white"/>
</g>
<path opacity="0.5" d="M278.663 447.277C279.852 444.676 280.552 440.248 280.552 437.458C280.552 430.804 275.298 424.399 264.916 418.42C256.611 413.642 243.865 410.427 233.195 410.427C229.93 410.427 226.653 410.64 223.463 411.04L219.811 411.516L264.854 385.673L269.532 388.375C271.671 389.601 275.286 389.601 277.425 388.375L282.103 385.673L326.959 411.14L321.543 414.267C320.63 414.793 320.129 415.443 320.129 416.106C320.129 416.769 320.63 417.432 321.543 417.957L326.959 421.072L277.725 449.341L278.676 447.265L278.663 447.277Z" fill="#EB5454"/>
<g opacity="0.4">
<path d="M276.984 415.457C275.108 414.381 274.082 412.88 274.082 411.229C274.082 409.453 275.32 407.714 277.484 406.476C281.512 404.149 287.854 404.024 291.619 406.188C293.495 407.264 294.521 408.765 294.521 410.416C294.521 412.192 293.283 413.931 291.119 415.169C289.005 416.383 286.265 416.996 283.601 416.996C281.162 416.996 278.785 416.483 276.997 415.457H276.984Z" fill="white"/>
</g>
<path d="M109.734 463.377V483.228L191.665 530.398V510.534L109.734 463.377Z" fill="#EB5454"/>
<g opacity="0.2">
<path d="M109.734 463.377V483.228L191.665 530.398V510.534L109.734 463.377Z" fill="white"/>
</g>
<g opacity="0.1">
<path d="M191.667 514.964L165.799 500.616L191.667 516.164V514.964Z" fill="black"/>
<path d="M109.734 472.809L118.353 478.275L109.734 473.809V472.809Z" fill="black"/>
<path d="M109.734 477.532L152.851 503.087L109.734 478.996V477.532Z" fill="black"/>
<path d="M191.672 519.688L148.555 495.646L191.672 521.251V519.688Z" fill="black"/>
</g>
<path d="M191.682 530.396L355.569 436.069V416.205L191.682 510.532V530.396Z" fill="#EB5454"/>
<g opacity="0.2">
<path d="M191.682 530.396L355.569 436.069V416.205L191.682 510.532V530.396Z" fill="black"/>
</g>
<g opacity="0.3">
<path d="M191.682 514.966L200.325 510.538L191.682 516.167V514.966Z" fill="black"/>
</g>
<g opacity="0.3">
<path d="M191.682 519.695L235.049 495.528L191.682 521.258V519.695Z" fill="black"/>
</g>
<g opacity="0.3">
<path d="M355.565 425.559L325.369 443.521L355.565 426.734V425.559Z" fill="black"/>
</g>
<g opacity="0.3">
<path d="M355.562 430.56L338.312 441.042L355.562 431.673V430.56Z" fill="black"/>
</g>
<path d="M177.41 421.138L262.206 469.946L288.073 455.061L203.29 406.24L177.41 421.138Z" fill="#FAFAFA"/>
<path d="M288.083 455.062V476.664L262.215 491.561V469.947L288.083 455.062Z" fill="#E0E0E0"/>
<path d="M262.203 491.558L260.689 490.682L262.203 489.807V491.558Z" fill="#E0E0E0"/>
<path d="M177.41 421.138V424.427L180.275 422.776L177.41 421.138Z" fill="#E0E0E0"/>
<g opacity="0.3">
<path d="M260.688 490.675V470.824L262.201 469.948V489.799L260.688 490.675Z" fill="black"/>
</g>
<g style="mix-blend-mode:multiply" opacity="0.2">
<path d="M260.693 470.822L178.762 423.652L180.275 422.776L262.206 469.946L260.693 470.822Z" fill="black"/>
</g>
<path d="M180.207 419.526L265.015 468.334L267.154 467.096L182.371 418.3L180.207 419.526Z" fill="#455A64"/>
<path d="M198.332 409.108L283.128 457.916L285.279 456.678L200.484 407.869L198.332 409.108Z" fill="#455A64"/>
<path d="M265.002 468.33V489.945L267.141 488.707V467.092L265.002 468.33Z" fill="#263238"/>
<path d="M283.117 457.91V479.512L285.281 478.274L285.269 456.672L283.117 457.91Z" fill="#263238"/>
<path opacity="0.2" d="M183.371 505.76L347.258 411.433L273.632 369.054L109.758 463.381L183.371 505.76Z" fill="black"/>
<path opacity="0.2" d="M109.758 475.085L183.371 517.464V505.743L109.758 463.377V475.085Z" fill="black"/>
<path d="M95.8906 437.884L259.778 343.557L341.709 390.714L177.834 485.041L95.8906 437.884Z" fill="#EB5454"/>
<path opacity="0.7" d="M95.8906 437.884L259.778 343.557L341.709 390.714L177.834 485.041L95.8906 437.884Z" fill="white"/>
<path d="M259.774 348.525L104.518 437.886L177.83 480.09L333.086 390.729L259.774 348.525ZM177.83 477.601L108.833 437.886L259.774 351.002L328.771 390.717L177.83 477.601Z" fill="#EB5454"/>
<path d="M188.251 432.318C180.921 428.103 176.881 422.324 176.881 416.07C176.881 409.24 181.809 402.485 190.415 397.544C207.264 387.85 233.707 387.287 249.368 396.306C256.698 400.521 260.738 406.3 260.738 412.555C260.738 419.384 255.81 426.139 247.204 431.08C238.373 436.158 226.915 438.735 215.745 438.735C205.601 438.735 195.706 436.609 188.251 432.318ZM191.141 398.808C183.01 403.486 178.344 409.778 178.344 416.07C178.344 421.786 182.122 427.102 188.989 431.055C204.237 439.836 230.03 439.273 246.478 429.816C254.609 425.138 259.275 418.846 259.275 412.555C259.275 406.838 255.497 401.522 248.63 397.569C241.375 393.391 231.743 391.328 221.874 391.328C210.979 391.328 199.772 393.842 191.153 398.808H191.141Z" fill="#EB5454"/>
<g opacity="0.5">
<path d="M190.908 427.731C185.279 424.492 182.189 420.351 182.189 416.061C182.189 411.182 186.155 406.091 193.072 402.114C200.765 397.686 211.259 395.146 221.879 395.146C231.486 395.146 240.304 397.185 246.721 400.875C252.35 404.115 255.44 408.255 255.44 412.546C255.44 417.424 251.474 422.515 244.557 426.493C236.864 430.921 226.37 433.46 215.762 433.46C206.156 433.46 197.325 431.421 190.92 427.731H190.908Z" fill="#EB5454"/>
</g>
<path opacity="0.5" d="M181.796 466.163C179.619 464.912 176.067 464.925 173.89 466.163L169.212 468.852L124.281 443.16L129.697 440.045C130.611 439.52 131.123 438.857 131.123 438.194C131.123 437.531 130.623 436.881 129.697 436.355L124.294 433.241L173.627 404.684L172.664 406.785C171.451 409.412 170.838 412.126 170.838 414.841C170.838 422.846 178.881 431.052 186.849 435.642C193.966 439.733 206.412 443.873 218.195 443.873C221.448 443.873 224.712 443.66 227.915 443.247L231.53 442.785L186.486 468.865L181.808 466.163H181.796Z" fill="#EB5454"/>
<g opacity="0.4">
<path d="M160.033 449.089C158.157 448.013 157.131 446.512 157.131 444.861C157.131 443.085 158.369 441.346 160.533 440.108C164.561 437.781 170.903 437.656 174.668 439.82C176.532 440.896 177.57 442.397 177.57 444.048C177.57 445.824 176.332 447.563 174.168 448.801C172.054 450.015 169.314 450.627 166.65 450.627C164.211 450.627 161.834 450.115 160.045 449.089H160.033Z" fill="white"/>
</g>
<path opacity="0.5" d="M264.835 421.79C266.023 419.188 266.724 414.76 266.724 411.971C266.724 405.316 261.47 398.912 251.088 392.933C242.783 388.155 230.036 384.94 219.367 384.94C216.102 384.94 212.825 385.153 209.635 385.553L205.982 386.028L251.026 360.186L255.704 362.887C257.843 364.113 261.458 364.113 263.597 362.887L268.275 360.186L313.131 385.653L307.714 388.78C306.801 389.305 306.301 389.956 306.301 390.619C306.301 391.282 306.801 391.945 307.714 392.47L313.131 395.585L263.897 423.854L264.848 421.778L264.835 421.79Z" fill="#EB5454"/>
<g opacity="0.4">
<path d="M263.166 389.979C261.289 388.904 260.264 387.403 260.264 385.752C260.264 383.975 261.502 382.237 263.666 380.998C267.694 378.672 274.036 378.547 277.801 380.711C279.677 381.786 280.703 383.287 280.703 384.939C280.703 386.715 279.464 388.453 277.3 389.692C275.186 390.905 272.447 391.518 269.783 391.518C267.344 391.518 264.967 391.005 263.178 389.979H263.166Z" fill="white"/>
</g>
<path d="M95.8906 437.887V457.75L177.834 504.908V485.044L95.8906 437.887Z" fill="#EB5454"/>
<g opacity="0.2">
<path d="M95.8906 437.887V457.75L177.834 504.908V485.044L95.8906 437.887Z" fill="white"/>
</g>
<g opacity="0.1">
<path d="M177.835 489.477L151.955 475.13L177.835 490.691V489.477Z" fill="black"/>
<path d="M95.8906 447.322L104.522 452.788L95.9031 448.323L95.8906 447.322Z" fill="black"/>
<path d="M95.8906 452.046L139.008 477.601L95.8906 453.509V452.046Z" fill="black"/>
<path d="M177.84 494.202L134.711 470.16L177.84 495.765V494.202Z" fill="black"/>
</g>
<path d="M177.838 504.906L341.712 410.579V390.716L177.838 485.043V504.906Z" fill="#EB5454"/>
<g opacity="0.2">
<path d="M177.818 504.906L341.693 410.579V390.716L177.818 485.043V504.906Z" fill="black"/>
</g>
<g opacity="0.3">
<path d="M177.818 489.473L186.449 485.045L177.818 490.686V489.473Z" fill="black"/>
</g>
<g opacity="0.3">
<path d="M177.818 494.204L221.186 470.05L177.818 495.767V494.204Z" fill="black"/>
</g>
<g opacity="0.3">
<path d="M341.691 400.08L311.508 418.042L341.691 401.243V400.08Z" fill="black"/>
</g>
<g opacity="0.3">
<path d="M341.708 405.067L324.459 415.55L341.708 406.181V405.067Z" fill="black"/>
</g>
<path d="M163.559 395.649L248.342 444.457L274.222 429.572L189.426 380.751L163.559 395.649Z" fill="#FAFAFA"/>
<path d="M274.214 429.572V451.187L248.334 466.072V444.457L274.214 429.572Z" fill="#E0E0E0"/>
<path d="M248.34 466.068L246.826 465.192L248.34 464.316V466.068Z" fill="#E0E0E0"/>
<path d="M163.559 395.648V398.938L166.411 397.287L163.559 395.648Z" fill="#E0E0E0"/>
<g opacity="0.3">
<path d="M246.828 465.185V445.346L248.342 444.458V464.322L246.828 465.185Z" fill="black"/>
</g>
<g style="mix-blend-mode:multiply" opacity="0.2">
<path d="M246.812 445.346L164.881 398.164L166.394 397.288L248.325 444.458L246.812 445.346Z" fill="black"/>
</g>
<path d="M166.324 394.049L251.132 442.857L253.284 441.606L168.488 392.811L166.324 394.049Z" fill="#455A64"/>
<path d="M184.471 383.618L269.279 432.427L271.43 431.188L186.635 382.38L184.471 383.618Z" fill="#455A64"/>
<path d="M251.141 442.852V464.455L253.292 463.216V441.602L251.141 442.852Z" fill="#263238"/>
<path d="M269.266 432.42V454.022L271.43 452.784L271.417 431.182L269.266 432.42Z" fill="#263238"/>
<path d="M289.235 201.22C289.298 199.557 288.897 198.518 288.159 198.118C288.159 198.106 288.172 198.106 288.172 198.106L288.072 198.043C287.284 197.693 282.055 194.578 281.305 194.178C281.305 194.165 281.317 194.165 281.317 194.165L281.217 194.103C280.429 193.753 279.266 194.09 277.865 195.154C263.905 205.836 244.705 208.438 230.095 202.008C228.081 200.52 226.217 198.819 224.553 196.88C224.466 196.78 224.391 196.68 224.303 196.592H224.291C223.815 196.067 223.352 195.679 222.877 195.429C222.877 195.429 216.498 191.726 216.035 191.476L215.797 191.339C214.234 190.601 212.795 191.351 211.857 193.678C198.611 226.6 170.379 259.96 151.541 268.304C150.14 268.929 148.839 269.892 147.838 271.068C146.512 272.607 145.687 274.495 145.749 276.459C145.749 318.788 168.94 386.422 212.87 409.025C215.472 410.726 218.161 412.265 220.926 413.616C281.367 351.273 289.248 251.405 289.248 201.245L289.235 201.22Z" fill="#EB5454"/>
<path opacity="0.4" d="M288.072 198.032C287.284 197.682 286.12 198.02 284.719 199.083C268.471 211.516 245.092 213.017 230.145 202.01C244.755 208.414 263.943 205.825 277.877 195.13C279.278 194.067 280.441 193.729 281.229 194.079L281.33 194.142C281.33 194.142 281.317 194.142 281.317 194.154C282.055 194.555 287.284 197.657 288.072 198.02V198.032Z" fill="white"/>
<path d="M222.624 195.269C221.061 194.531 219.622 195.282 218.684 197.608C205.438 230.543 177.206 263.891 158.368 272.234C156.967 272.86 155.666 273.823 154.665 274.999C154.115 275.662 153.64 276.362 153.277 277.125L146.447 273.185C146.798 272.422 147.26 271.697 147.811 271.059C148.824 269.883 150.125 268.92 151.513 268.294C170.339 259.951 198.57 226.591 211.829 193.668C212.768 191.342 214.206 190.579 215.77 191.329L216.007 191.467C216.232 191.579 217.571 192.355 219.047 193.205C220.498 194.043 222.049 194.957 222.624 195.282V195.269Z" fill="#EB5454"/>
<path opacity="0.4" d="M222.624 195.269C221.061 194.531 219.622 195.282 218.684 197.608C205.438 230.543 177.206 263.891 158.368 272.234C156.967 272.86 155.666 273.823 154.665 274.999C154.115 275.662 153.64 276.362 153.277 277.125L146.447 273.185C146.798 272.422 147.26 271.697 147.811 271.059C148.824 269.883 150.125 268.92 151.513 268.294C170.339 259.951 198.57 226.591 211.829 193.668C212.768 191.342 214.206 190.579 215.77 191.329L216.007 191.467C216.232 191.579 217.571 192.355 219.047 193.205C220.498 194.043 222.049 194.957 222.624 195.282V195.269Z" fill="white"/>
<path opacity="0.3" d="M212.773 408.942C168.893 386.326 145.74 318.73 145.74 276.439C145.702 275.288 145.99 274.2 146.465 273.174L153.295 277.114C152.807 278.14 152.557 279.24 152.582 280.379C152.582 320.444 173.308 383.161 212.773 408.942Z" fill="black"/>
<path d="M289.237 201.228C289.237 251.387 281.357 351.268 220.916 413.598C176.185 391.645 152.581 323.111 152.581 280.394C152.519 278.418 153.344 276.529 154.67 275.003C155.684 273.827 156.984 272.864 158.373 272.239C177.198 263.895 205.43 230.535 218.689 197.613C219.627 195.286 221.066 194.523 222.629 195.273L222.867 195.411C223.342 195.661 223.805 196.049 224.28 196.574H224.293C224.381 196.662 224.456 196.762 224.543 196.862C238.603 213.223 266.247 213.211 284.697 199.089C286.098 198.025 287.261 197.688 288.049 198.038L288.149 198.1C288.149 198.1 288.137 198.1 288.137 198.113C288.875 198.513 289.287 199.551 289.212 201.215L289.237 201.228Z" fill="#EB5454"/>
<path opacity="0.1" d="M289.237 201.228C289.237 251.387 281.357 351.268 220.916 413.598C176.185 391.645 152.581 323.111 152.581 280.394C152.519 278.418 153.344 276.529 154.67 275.003C155.684 273.827 156.984 272.864 158.373 272.239C177.198 263.895 205.43 230.535 218.689 197.613C219.627 195.286 221.066 194.523 222.629 195.273L222.867 195.411C223.342 195.661 223.805 196.049 224.28 196.574H224.293C224.381 196.662 224.456 196.762 224.543 196.862C238.603 213.223 266.247 213.211 284.697 199.089C286.098 198.025 287.261 197.688 288.049 198.038L288.149 198.1C288.149 198.1 288.137 198.1 288.137 198.113C288.875 198.513 289.287 199.551 289.212 201.215L289.237 201.228Z" fill="white"/>
<path d="M222.641 195.273C221.077 194.535 219.639 195.286 218.701 197.612C205.454 230.535 177.223 263.895 158.385 272.238C156.984 272.864 155.683 273.827 154.682 275.003C153.356 276.541 152.531 278.43 152.593 280.394C152.593 323.111 176.197 391.645 220.927 413.597C250.985 297.393 222.654 195.273 222.654 195.273H222.641Z" fill="#EB5454"/>
<path opacity="0.05" d="M222.641 195.273C221.077 194.535 219.639 195.286 218.701 197.612C205.454 230.535 177.223 263.895 158.385 272.238C156.984 272.864 155.683 273.827 154.682 275.003C153.356 276.541 152.531 278.43 152.593 280.394C152.593 323.111 176.197 391.645 220.927 413.597C250.985 297.393 222.654 195.273 222.654 195.273H222.641Z" fill="black"/>
<path opacity="0.4" d="M245.449 217.85C260.535 221.703 273.906 215.086 281.549 211.146C281.549 211.146 283.325 299.669 252.842 356.92C264.862 312.202 267.815 299.406 268.678 266.258C269.516 233.673 256.882 225.968 245.449 217.838V217.85Z" fill="white"/>
<path d="M225.045 342.759L194.674 322.995L203.743 309.048L219.015 318.993L250.975 260.09L265.597 268.02L225.045 342.759Z" fill="white"/>
<path d="M234.601 290.276L219.015 318.996L203.743 309.052L194.674 322.986L225.045 342.762L234.101 326.063C234.739 313.517 234.851 301.534 234.601 290.264V290.276Z" fill="#F0F0F0"/>
<path d="M391.683 470.498L387.018 468.272L391.608 466.971L391.683 470.498Z" fill="#263238"/>
<path d="M345.576 479.283C345.576 479.283 400.351 454.429 401.064 458.081C401.214 458.882 401.202 459.62 401.051 460.283C401.101 460.22 401.152 460.158 401.202 460.083L400.238 466.912C400.238 466.912 396.336 470.252 391.708 470.502C391.708 470.177 391.658 468.138 391.633 466.987C390.144 467.613 388.618 468.363 386.804 469.564C383.302 471.891 381.063 475.931 377.348 480.634C374.646 484.062 369.805 485.688 362.613 486.738C354.882 487.877 348.04 486.451 346.101 484.412C344.563 482.786 345.301 479.771 345.576 479.296V479.283Z" fill="#263238"/>
<path d="M347.084 478.005C347.61 477.455 349.549 475.303 352.188 472.964C354.489 470.913 357.179 468.336 360.068 466.235C361.219 465.396 362.995 464.058 363.983 462.995C364.934 461.969 365.847 460.918 366.698 459.805C369.325 456.353 371.451 452.575 373.252 448.647C374.103 446.784 375.166 444.82 375.529 442.793C375.917 440.654 376.129 438.491 376.142 436.314C376.142 426.52 375.917 424.969 375.829 417.514L399.057 418.114C398.319 422.254 397.206 427.896 396.831 432.599C396.268 439.741 396.08 441.33 398.957 448.435C399.808 450.524 401.059 452.538 401.171 454.777C401.371 458.429 398.482 461.606 395.255 463.408C392.578 464.909 389.476 465.559 386.874 467.16C384.135 468.836 382.021 471.35 380.082 473.84C378.243 476.191 376.78 478.956 374.203 480.619C371.338 482.458 368.599 483.046 365.272 483.734C361.444 484.522 356.528 484.647 353.251 484.409C347.547 484.009 343.282 481.983 347.097 477.98L347.084 478.005Z" fill="#FFBDA7"/>
<path d="M368.448 466.687C364.433 464.636 360.818 465.511 359.917 465.974C355.889 469.164 352.55 472.003 350.198 473.992C347.346 476.406 344.844 478.595 344.969 481.334C345.169 485.625 362.056 486.801 371.45 482.673C376.353 480.947 378.079 476.869 378.079 476.869C378.079 476.869 376.641 470.877 368.448 466.687ZM400.42 451.051C398.956 448.299 398.406 446.898 398.406 446.898C395.141 448.675 389.5 456.805 392.164 464.923C395.141 464.135 398.043 462.984 400.395 459.319C402.171 456.543 401.883 453.803 400.42 451.051Z" fill="#37474F"/>
<path d="M443.097 454.234C441.571 456.698 443.497 465.93 443.122 472.522C442.784 478.501 441.158 488.933 442.959 494.837C445.086 501.829 449.439 509.947 457.619 503.343C462.685 499.253 465.612 493.986 466.338 485.368C466.838 479.376 464.511 471.108 462.51 463.778C460.171 455.21 459.295 450.632 459.295 450.632L443.109 454.222L443.097 454.234Z" fill="#263238"/>
<path d="M459.498 409.956C460.098 423.916 458.447 433.722 458.347 442.666C458.447 446.831 458.722 450.346 459.648 454.737C460.836 460.441 462.875 468.371 463.726 472.074C464.914 477.24 465.815 480.492 464.001 486.296C463.863 486.746 463.651 487.184 463.401 487.609C460.861 492.387 454.407 495.99 452.33 495.415C451.755 496.353 450.292 496.928 448.69 496.665C448.465 496.628 448.228 496.578 448.003 496.503C447.777 496.428 447.54 496.34 447.315 496.228C445.939 495.565 444.638 494.201 443.875 491.837C443.75 491.449 443.637 491.024 443.537 490.574C442.036 483.381 442.824 478.565 442.862 475.739C442.912 471.861 442.824 468.108 442.536 462.867C442.249 457.626 441.385 441.603 439.534 433.735C438.158 428.244 436.445 421.364 434.631 414.021L459.485 409.956H459.498Z" fill="#FFBDA7"/>
<path d="M464.983 478.804C459.892 476.603 445.12 476.29 442.768 483.345C442.705 489.987 442.668 494.49 446.946 500.269C452.625 507.949 460.03 499.806 462.882 494.64C465.721 489.474 465.684 482.382 464.996 478.804H464.983Z" fill="#37474F"/>
<path d="M440.254 227.597C447.447 240.256 453.251 250.926 455.127 284.374C457.241 322.112 456.928 336.484 457.116 341.038C457.303 345.591 460.293 353.946 462.832 376.374C465.371 398.802 462.695 453.177 462.695 453.177C462.695 453.177 460.893 456.842 452.162 457.667C444.107 458.43 439.366 455.653 439.366 455.653C439.366 455.653 426.557 384.255 423.393 370.758C420.228 357.261 411.009 312.868 411.009 312.868L407.982 355.235C407.982 355.235 410.534 367.606 408.22 387.307C405.906 407.008 399.964 444.246 399.964 444.246C399.964 444.246 396.537 447.648 386.005 447.448C374.797 447.235 372.458 444.171 372.458 444.171C372.458 444.171 369.944 364.091 369.781 341.776C369.619 319.46 368.293 261.533 375.197 228.448L440.254 227.585V227.597Z" fill="#455A64"/>
<path d="M379.778 260.456C383.268 269.65 395.789 276.005 401.281 277.255L407.973 312.417V355.246L411.012 312.88L403.495 270.025C403.495 270.025 388.284 269.062 379.778 260.456ZM431.726 255.591C432.652 259.206 433.49 262.846 434.391 266.473C435.266 270.113 436.142 273.753 437.093 277.418C437.155 273.628 436.78 269.863 436.255 266.135C435.729 262.395 434.991 258.693 434.091 255.028C433.152 251.375 432.077 247.735 430.726 244.195C429.375 240.655 427.799 237.178 425.71 233.988C426.886 237.591 427.936 241.168 428.925 244.758C429.9 248.361 430.851 251.963 431.739 255.591H431.726ZM438.131 248.573C439.382 250.75 440.57 252.951 441.771 255.153L445.323 261.882C445.086 259.318 444.398 256.816 443.509 254.402C442.634 251.976 441.496 249.662 440.257 247.422C438.969 245.196 437.568 243.032 435.979 241.006C434.403 238.967 432.69 237.04 430.738 235.314C431.889 237.628 433.152 239.83 434.403 242.019C435.642 244.22 436.917 246.384 438.131 248.573ZM433.177 350.493C430.901 338.948 429.25 327.277 427.624 315.594C426.035 303.911 424.459 292.203 422.72 280.52C423.533 292.303 424.484 304.074 425.76 315.819C427.011 327.565 428.562 339.298 430.801 350.943C433.202 362.551 435.617 374.072 438.168 385.617C440.695 397.15 443.372 408.658 446.211 420.141C444.298 408.483 442.246 396.85 440.02 385.242C437.843 373.646 435.504 362.026 433.177 350.493ZM380.667 312.342L382.405 281.558C380.867 291.74 379.691 301.972 378.79 312.217C377.927 322.486 377.114 332.706 377.152 343.113C377.577 353.457 377.865 394.398 379.165 404.605C380.066 393.172 379.778 363.014 379.778 363.014C379.478 357.898 379.716 348.129 379.578 343.05C379.453 337.984 379.728 332.843 379.929 327.727C380.129 322.599 380.429 317.47 380.679 312.342H380.667Z" fill="#37474F"/>
<path d="M335.486 57.14C347.294 60.3047 358.002 71.2747 363.53 82.4573C388.072 83.0327 418.105 93.6149 445.637 110.201L473.343 28.2077C427.274 15.9493 381.305 20.3148 335.499 57.14H335.486Z" fill="#EB5454"/>
<path d="M565.386 134.804C554.078 130.163 538.905 132.39 527.735 137.931C507.871 123.509 477.576 113.702 445.629 110.187L473.323 28.1934C517.378 46.3808 551.301 77.7397 565.373 134.804H565.386Z" fill="#EB5454"/>
<path opacity="0.25" d="M565.386 134.804C554.078 130.163 538.905 132.39 527.735 137.931C507.871 123.509 477.576 113.702 445.629 110.187L473.323 28.1934C517.378 46.3808 551.301 77.7397 565.373 134.804H565.386Z" fill="black"/>
<path d="M363.531 82.4591C388.061 83.0345 418.119 93.6167 445.637 110.203L473.331 28.222C441.197 24.2067 393.852 44.1454 363.531 82.4716V82.4591Z" fill="#EB5454"/>
<path opacity="0.15" d="M363.531 82.4591C388.061 83.0345 418.119 93.6167 445.637 110.203L473.331 28.222C441.197 24.2067 393.852 44.1454 363.531 82.4716V82.4591Z" fill="black"/>
<path opacity="0.15" d="M565.39 134.812C551.306 77.7475 517.395 46.4011 473.34 28.2012C501.321 44.4998 526.876 89.0678 527.752 137.939C538.922 132.397 554.095 130.171 565.403 134.812H565.39Z" fill="black"/>
<path d="M422.546 145.671C420.87 147.447 420.345 149.311 417.643 148.448C415.329 147.71 413.628 145.934 411.751 144.47C409.3 142.569 406.898 140.618 404.534 138.604C399.893 134.639 395.428 130.448 391.187 126.058C388.761 123.544 385.871 120.742 384.395 117.527C382.969 114.4 382.006 110.922 382.319 107.458C382.969 100.328 387.385 91.0588 400.494 88.407C411.414 86.193 432.278 88.5821 434.942 102.754C435.08 103.492 436.706 104.493 437.169 105.156C437.982 106.319 438.657 107.583 439.183 108.909C440.246 111.548 440.721 114.425 440.521 117.264C440.071 123.806 436.293 129.61 432.19 134.739C429.151 138.541 425.874 142.144 422.546 145.684V145.671Z" fill="#263238"/>
<path d="M366.002 171.851C355.958 183.347 347.039 192.553 347.039 192.553C347.064 192.515 344.1 190.076 343.937 189.926C340.635 187.099 337.37 184.222 334.243 181.208C330.666 177.768 327.389 174.128 326.188 169.112C325.925 168.024 325.812 166.898 325.712 165.785C325.4 162.57 325.087 159.368 324.787 156.153C324.637 154.614 324.261 152.938 324.336 151.4C324.386 150.424 324.899 149.248 324.712 148.26C324.499 147.084 322.998 146.671 320.922 148.66C319.633 149.899 319.12 151.913 318.758 153.238C318.345 154.702 318.182 156.603 317.669 156.691C317.157 156.778 315.455 155.027 313.567 153.839C311.665 152.651 310.152 151.15 307.638 151.049C305.123 150.962 304.523 153.126 304.56 153.989C304.598 154.89 305.311 155.79 305.311 155.79C305.311 155.79 304.173 155.19 302.884 155.715C301.596 156.253 300.845 158.542 301.471 159.693C301.471 159.693 300.02 159.168 299.182 160.669C298.481 161.932 298.169 163.333 299.344 164.321C299.344 164.321 298.144 164.208 297.843 164.834C297.556 165.459 296.705 167.411 297.568 168.549C298.431 169.687 301.121 170.775 301.121 170.775C301.121 170.775 301.158 171.326 302.221 172.439C302.597 172.827 303.76 175.404 305.261 177.005C307.312 179.206 309.326 179.819 311.74 181.208C315.668 183.472 319.921 190.489 324.349 197.419C329.628 205.674 334.031 213.117 339.534 218.421C346.389 225.038 350.88 224.387 359.561 215.744C370.105 205.236 381.613 190.727 381.613 190.727L385.766 157.929C377.923 158.855 374.07 162.607 366.015 171.826L366.002 171.851Z" fill="#FFBDA7"/>
<path d="M306.173 168.512C306.148 168.737 306.036 168.874 305.948 169.062C305.848 169.287 305.711 169.475 305.548 169.662C305.31 169.925 305.06 170.188 304.747 170.363C304.56 170.475 304.347 170.538 304.135 170.6C303.497 170.776 302.884 170.788 302.233 170.788C301.858 170.788 301.495 170.801 301.12 170.813C301.595 171.001 302.083 171.126 302.596 171.188C303.196 171.251 303.847 171.176 304.435 171.026C304.572 170.988 304.71 170.951 304.848 170.888C305.21 170.726 305.523 170.463 305.761 170.138C305.998 169.812 306.248 169.35 306.286 168.937C306.286 168.899 306.311 168.524 306.261 168.524C306.686 168.562 307.087 168.524 307.487 168.486C308.087 168.386 308.763 168.399 309.351 167.949C309.626 167.711 309.788 167.461 309.963 167.161C310.014 167.073 310.051 166.96 310.064 166.86L310.689 166.398C310.689 166.398 310.501 167.899 311.515 170.3C312.528 172.702 314.504 174.14 314.504 174.14C314.504 174.14 313.041 172.877 312.24 169.762C311.552 167.086 312.916 164.033 314.066 162.632C314.104 162.632 314.141 162.632 314.179 162.632C314.454 162.557 314.642 162.395 314.792 162.245C315.13 161.894 315.267 161.419 315.28 160.994C315.28 160.556 315.205 160.143 315.067 159.756C314.529 158.179 313.278 157.041 311.952 156.203C311.915 155.828 311.802 155.503 311.677 155.19C311.527 154.852 311.339 154.539 311.127 154.239C311.302 154.564 311.44 154.902 311.565 155.24C311.677 155.578 311.765 155.94 311.752 156.278V156.341L311.802 156.378C313.053 157.291 314.179 158.467 314.629 159.918C314.854 160.606 314.904 161.457 314.442 161.907C314.154 162.17 314.004 162.22 313.666 162.045C313.341 161.894 312.991 161.669 312.628 161.494C311.902 161.119 311.164 160.856 310.464 160.519C309.776 160.181 309.138 159.756 308.538 159.255C307.95 158.755 307.412 158.179 306.849 157.617C306.299 157.054 305.748 156.491 305.285 155.853C306.098 157.216 307.149 158.417 308.275 159.543C308.85 160.093 309.513 160.594 310.239 160.944C310.952 161.307 311.702 161.594 312.378 161.957C312.515 162.032 312.653 162.107 312.79 162.182C312.978 162.507 313.053 162.87 312.978 163.22C312.865 163.858 312.328 164.296 311.702 164.434C311.052 164.609 310.401 164.771 309.763 164.809C309.113 164.809 308.412 164.834 307.85 164.621C306.674 164.171 305.698 163.133 304.647 162.295C303.597 161.432 302.546 160.569 301.445 159.768C302.396 160.756 303.371 161.682 304.372 162.62C304.86 163.083 305.373 163.533 305.898 163.983C306.424 164.421 306.986 164.872 307.687 165.122C308.125 165.234 308.55 165.284 308.988 165.297C309.351 165.559 309.651 165.885 309.776 166.285C309.863 166.548 309.826 166.823 309.688 167.048C309.538 167.273 309.326 167.536 309.125 167.673C308.688 167.949 308.05 167.986 307.462 168.049C306.861 168.099 306.248 168.124 305.761 167.924C305.248 167.736 304.847 167.286 304.322 166.898C303.809 166.523 303.259 166.21 302.709 165.947C301.608 165.384 300.495 164.872 299.344 164.409C300.394 165.059 301.458 165.672 302.508 166.31C303.021 166.635 303.559 166.935 304.022 167.298C304.485 167.648 304.898 168.161 305.548 168.436C305.761 168.512 305.961 168.549 306.173 168.574V168.512ZM313.041 162.307C313.041 162.307 313.041 162.282 313.028 162.27C313.028 162.27 313.028 162.295 313.041 162.307Z" fill="#F0997A"/>
<path d="M347.049 192.548C350.163 194.925 354.016 198.415 354.379 204.181C355.304 197.664 351.702 192.561 348.5 190.685L347.049 192.548Z" fill="#F28F8F"/>
<path d="M386.897 157.292C376.853 158.38 373.188 162.908 364.845 172.315C357.527 180.57 347.045 191.64 347.045 191.64L331.81 178.769C331.81 178.769 332.71 181.946 328.345 187.012C324.705 191.228 319.451 190.352 319.451 190.352C319.451 190.352 325.518 200.597 333.361 212.155C341.304 223.875 347.708 225.038 353.349 221.949C358.991 218.859 385.196 191.065 385.196 191.065L386.897 157.304V157.292Z" fill="#37474F"/>
<path d="M347.051 191.637C352.142 195.903 355.094 204.271 355.707 208.999C356.57 198.104 349.415 189.136 349.415 189.136L347.051 191.637Z" fill="#263238"/>
<path d="M447.373 244.875C451.576 241.461 448.311 235.331 445.985 218.082C445.272 212.766 448.686 199.594 448.686 199.594C448.686 199.594 438.83 184.734 442.019 158.929L426.721 156.065L401.817 155.689L387.495 158.091C384.192 161.006 380.94 166.147 376.124 173.114C369.195 183.171 367.944 196.743 375.424 204.748C375.536 206.324 375.762 217.081 375.086 223.298C374.148 231.917 369.345 240.297 374.348 244.55C388.971 256.971 427.522 257.834 447.361 244.863L447.373 244.875Z" fill="#EB5454"/>
<path opacity="0.2" d="M447.373 244.875C451.576 241.461 448.311 235.331 445.985 218.082C445.272 212.766 448.686 199.594 448.686 199.594C448.686 199.594 438.83 184.734 442.019 158.929L426.721 156.065L401.817 155.689L387.495 158.091C384.192 161.006 380.94 166.147 376.124 173.114C369.195 183.171 367.944 196.743 375.424 204.748C375.536 206.324 375.762 217.081 375.086 223.298C374.148 231.917 369.345 240.297 374.348 244.55C388.971 256.971 427.522 257.834 447.361 244.863L447.373 244.875Z" fill="white"/>
<path d="M429.792 137.483C432.669 138.009 435.396 136.62 437.134 134.744C441.012 130.566 441.375 126.313 439.573 123.474C438.097 121.147 434.445 119.659 431.881 121.222C429.141 122.898 429.054 124.274 428.015 126.188C426.952 128.139 424.325 126.601 425.226 118.958C423.662 118.233 422.599 116.894 421.849 115.381C421.674 115.03 420.273 110.727 420.31 110.74C417.108 110.089 414.231 108.013 412.605 105.186C412.542 106.587 412.855 108.013 413.506 109.264C411.216 109.126 408.89 108.976 406.701 108.301C404.512 107.625 402.41 106.362 401.172 104.436C401.009 106.562 401.347 108.726 402.148 110.702C397.257 109.852 393.154 105.574 392.504 100.646C390.64 103.66 388.664 106.387 387.813 109.864C387 113.229 386.587 116.694 386.262 120.134C384.974 133.981 386.187 141.111 390.34 144.876C392.579 146.902 396.256 149.091 402.023 149.279L401.835 155.721C401.835 155.721 387.663 169.18 405.938 167.854C419.635 166.866 426.652 156.334 426.652 156.334L426.777 135.332C426.777 135.332 427.077 137.008 429.804 137.508L429.792 137.483Z" fill="#FFBDA7"/>
<path d="M399.772 135.025C400.21 137.189 402.362 138.602 404.563 138.177C406.777 137.752 408.203 135.638 407.765 133.474L399.76 135.037L399.772 135.025Z" fill="#B16668"/>
<path d="M407.806 134.772C407.581 136.423 406.33 137.824 404.579 138.174C404.091 138.274 403.603 138.262 403.141 138.187C403.478 135.985 405.567 134.459 407.819 134.772H407.806Z" fill="#F28F8F"/>
<path d="M408.908 113.33L414.162 116.081C415 114.668 414.5 112.917 413.049 112.154C411.598 111.391 409.746 111.916 408.908 113.33Z" fill="#263238"/>
<path d="M394.707 112.715L389.453 115.467C388.615 114.054 389.116 112.303 390.566 111.54C392.017 110.777 393.869 111.302 394.707 112.715Z" fill="#263238"/>
<path d="M411.844 119.809C411.844 121.009 410.868 121.972 409.68 121.972C408.491 121.972 407.516 120.997 407.516 119.809C407.516 118.62 408.491 117.645 409.68 117.645C410.868 117.645 411.844 118.62 411.844 119.809Z" fill="#263238"/>
<path d="M395.152 119.142C395.152 120.343 394.176 121.306 392.988 121.306C391.8 121.306 390.824 120.331 390.824 119.142C390.824 117.954 391.8 116.979 392.988 116.979C394.176 116.979 395.152 117.954 395.152 119.142Z" fill="#263238"/>
<path d="M393.715 125.714L401.107 129.604L403.497 114.581L393.715 125.714Z" fill="#F0997A"/>
<path d="M402.012 149.256C409.167 148.993 420.474 145.991 423.739 138.123C421.825 146.454 414.845 149.381 410.83 150.494C405.939 151.845 402.062 151.983 402.062 151.983L402.012 149.268V149.256Z" fill="#F0997A"/>
<path d="M401.784 153.901L401.822 155.703C401.822 155.703 391.727 163.27 384.26 175.579C376.792 187.887 379.044 203.298 378.668 219.171C378.293 235.044 379.131 268.717 379.131 268.717C379.131 268.717 372.089 267.291 368.486 261.9C368.486 253.057 371.001 222.911 371.163 213.467C371.301 205.837 370.813 202.009 369.575 195.017C368.336 188.025 369.424 174.14 386.899 157.304L401.784 153.901Z" fill="#263238"/>
<path d="M426.635 154.339C426.635 154.339 419.842 169.512 419.617 184.985C419.392 200.445 425.734 275.534 425.734 275.534C425.734 275.534 449.388 277.423 460.683 267.479C458.206 255.295 452.627 237.483 450.638 229.815C448.65 222.135 447.549 215.906 449.388 207.9C451.226 199.908 452.865 194.654 452.865 194.654L443.796 158.229L426.635 154.351V154.339Z" fill="#263238"/>
<path d="M468.062 43.8559L468.675 43.956C468.862 43.981 469.113 44.0185 469.388 44.0685C469.588 44.081 469.851 44.1061 470.013 44.0936C470.951 44.1311 470.726 43.6432 470.951 43.1929C471.264 42.2548 471.702 40.9039 472.227 39.2903C473.265 36.0631 474.579 31.7226 475.755 27.3446C476.355 25.1556 476.905 22.9541 477.381 20.8777C477.618 19.8395 477.881 18.8388 478.069 17.8881C478.269 16.925 478.456 16.0244 478.644 15.1863C478.832 14.3482 478.957 13.5727 479.082 12.8847C479.207 12.1967 479.32 11.5963 479.395 11.1085C479.557 10.1203 479.632 9.54492 479.632 9.54492C479.632 9.54492 479.345 10.0453 478.882 10.9334C478.644 11.3712 478.356 11.909 478.056 12.5345C477.743 13.1599 477.368 13.8479 477.018 14.6234C476.655 15.3989 476.255 16.237 475.83 17.1126C475.404 17.9882 475.004 18.9388 474.566 19.9145C473.691 21.8533 472.79 23.9423 471.94 26.0437C470.226 30.2466 468.637 34.487 467.499 37.6892C466.936 39.2903 466.473 40.6287 466.148 41.5668C466.06 42.0547 465.585 42.3048 466.361 42.8552C466.486 42.9678 466.711 43.1054 466.874 43.218C467.124 43.3555 467.336 43.4681 467.511 43.5682C467.862 43.7558 468.049 43.8559 468.049 43.8559H468.062Z" fill="#263238"/>
<path d="M414.264 196.305L462.234 53.7577C462.609 52.6569 463.798 52.069 464.898 52.4443C465.999 52.8195 466.587 54.0079 466.212 55.1086L418.241 197.656C417.128 198.432 414.476 197.481 414.264 196.318V196.305Z" fill="#E0E0E0"/>
<path d="M412.602 195.674L406.91 210.346C403.896 218.577 398.955 219.565 394.252 217.739C389.373 215.85 389.786 208.082 391.025 204.93C392.263 201.778 387.385 198.388 384.983 202.616C382.581 206.844 380.28 219.79 391.975 224.368C398.617 226.97 405.384 224.468 408.837 221.341C410.4 219.915 411.864 218.339 413.315 214.624L419.607 198.375L412.589 195.661L412.602 195.674Z" fill="#455A64"/>
<path d="M414.051 194.744C415.714 194.406 417.979 195.157 419.104 196.42C420.23 197.684 419.805 198.997 418.141 199.335C416.477 199.672 414.213 198.922 413.088 197.658C411.962 196.395 412.387 195.082 414.051 194.744Z" fill="#455A64"/>
<path d="M457.968 73.679C483.586 77.5817 506.164 88.3015 525.702 105.838C546.504 111.067 558.825 121.262 565.379 134.808C553.333 76.9312 515.87 42.5828 473.329 28.1979C430.774 13.8256 380.152 18.4162 335.484 57.1302C348.919 50.338 364.892 49.7001 384.605 58.1559C410.773 56.0545 435.24 61.233 457.968 73.6665V73.679Z" fill="#EB5454"/>
<g opacity="0.2">
<path d="M457.968 73.679C483.586 77.5817 506.164 88.3015 525.702 105.838C546.504 111.067 558.825 121.262 565.379 134.808C553.333 76.9312 515.87 42.5828 473.329 28.1979C430.774 13.8256 380.152 18.4162 335.484 57.1302C348.919 50.338 364.892 49.7001 384.605 58.1559C410.773 56.0545 435.24 61.233 457.968 73.6665V73.679Z" fill="white"/>
</g>
<path d="M384.616 58.1741C410.796 56.0727 435.251 61.2512 457.979 73.6847L473.339 28.2161C424.731 11.7924 384.604 58.1741 384.604 58.1741H384.616Z" fill="#EB5454"/>
<path opacity="0.1" d="M384.616 58.1741C410.796 56.0727 435.251 61.2512 457.979 73.6847L473.339 28.2161C424.731 11.7924 384.604 58.1741 384.604 58.1741H384.616Z" fill="white"/>
<path d="M525.719 105.843C506.181 88.2934 483.59 77.5861 457.973 73.6834L473.333 28.2148C521.941 44.6386 525.719 105.843 525.719 105.843Z" fill="#EB5454"/>
<path d="M565.392 134.814C553.347 76.9374 515.883 42.5889 473.342 28.2041C521.95 44.6278 525.715 105.845 525.715 105.845C546.517 111.073 558.838 121.268 565.392 134.814Z" fill="#EB5454"/>
<path opacity="0.15" d="M565.392 134.814C553.347 76.9374 515.883 42.5889 473.342 28.2041C521.95 44.6278 525.715 105.845 525.715 105.845C546.517 111.073 558.838 121.268 565.392 134.814Z" fill="black"/>
<path d="M478.51 234.633C466.076 236.597 444.786 229.492 429.989 228.329C426.036 228.029 422.659 228.379 421.245 228.404C415.917 228.479 413.077 223.601 409.5 220.736C409.312 220.599 409.137 220.461 408.949 220.323C408.186 219.773 407.348 219.298 406.423 218.947C404.234 217.784 403.671 217.521 403.02 216.621C400.369 218.897 397.667 218.647 396.103 218.297C395.153 216.833 394.527 215.257 394.99 214.369C395.328 213.744 395.878 213.556 395.878 213.556C395.878 213.556 395.678 213.218 395.478 211.492C395.153 208.891 397.517 208.365 399.03 207.79C399.03 207.79 398.567 206.339 399.631 205.251C400.681 204.162 401.87 203.362 407.561 201.035C408.412 200.685 409.25 200.285 410.4 200.297C410.538 200.297 410.663 200.297 410.813 200.31C411.926 200.372 413.34 200.797 415.316 201.911C415.842 202.211 416.555 202.636 417.38 203.137C417.48 203.199 417.593 203.262 417.705 203.324C421.958 205.863 429.238 209.666 431.965 210.567C435.305 211.667 457.758 209.766 457.758 209.766L447.738 189.152C447.738 189.152 439.796 171.878 443.536 159.957C453.28 160.045 458.433 161.371 464.863 169.226C471.267 177.044 485.827 212.956 487.228 219.373C488.792 226.578 490.655 232.707 478.51 234.633Z" fill="#FFBDA7"/>
<path d="M456.652 207.457L457.766 209.784C463.52 209.821 471.6 215.275 473.614 217.864C471.475 213.499 466.809 207.62 456.652 207.457Z" fill="#F0997A"/>
<path d="M399.032 207.79L405.712 204.676L398.945 206.802C398.92 207.152 398.945 207.478 399.032 207.79Z" fill="#F0997A"/>
<path d="M395.882 213.561L403.7 210.547L395.645 212.636C395.682 212.936 395.77 213.236 395.882 213.549V213.561Z" fill="#F0997A"/>
<path d="M443.811 158.23C453.455 158.506 461.736 160.932 468.328 172.39C474.907 183.848 480.674 197.908 485.064 210.316C489.455 222.725 490.405 228.816 486.84 232.068C483.275 235.321 477.059 236.559 466.952 235.433C456.845 234.307 441.872 230.492 441.872 230.492C441.872 230.492 444.424 226.027 444.011 219.06C443.598 212.092 441.672 210.716 441.672 210.716L456.72 209.415C456.72 209.415 450.841 197.457 446.863 189.189C442.885 180.908 440.183 162.784 443.798 158.23H443.811Z" fill="#37474F"/>
<path d="M456.725 209.414C463.042 208.938 470.885 210.677 474.475 215.43C470.873 207.1 459.903 206.249 455.412 206.712L456.738 209.401L456.725 209.414Z" fill="#263238"/>
<path d="M340.879 122.206L335.137 113.975C341.529 99.8655 337.014 82.7413 323.742 73.8102C308.945 63.8534 288.806 67.7936 278.849 82.5787C268.905 97.3763 272.832 117.503 287.63 127.459C300.902 136.39 318.464 134.126 329.121 122.894L338.928 125.108C340.604 125.483 341.867 123.607 340.879 122.206ZM330.409 117.277C326.306 123.382 320.327 127.459 313.748 129.311L310.421 130.049C303.203 131.212 295.56 129.761 289.031 125.37C275.397 116.189 271.769 97.6265 280.95 83.9921C285.341 77.4627 291.883 73.2473 299 71.6087L302.365 71.0333C309.145 70.2578 316.225 71.7963 322.329 75.9116C335.963 85.0929 339.59 103.643 330.422 117.277H330.409Z" fill="#455A64"/>
<path d="M322.324 75.9144C316.22 71.7991 309.14 70.273 302.361 71.0361L298.996 71.6115C291.879 73.2501 285.337 77.478 280.946 83.9949C271.765 97.6293 275.392 116.192 289.027 125.373C295.556 129.764 303.199 131.202 310.416 130.051L313.744 129.313C320.323 127.475 326.302 123.384 330.405 117.28C339.586 103.646 335.946 85.0832 322.312 75.9144H322.324Z" fill="white"/>
<path d="M302.003 115.924C300.865 115.924 299.777 115.449 298.989 114.623L289.645 104.642C288.094 102.978 288.169 100.364 289.833 98.8125C291.496 97.249 294.111 97.3365 295.662 99.0002L301.728 105.48L316.101 87.2797C317.514 85.4909 320.103 85.1907 321.892 86.5917C323.681 88.0052 323.981 90.5944 322.58 92.3831L305.243 114.348C304.505 115.286 303.379 115.862 302.179 115.912C302.116 115.912 302.066 115.912 302.003 115.912V115.924Z" fill="#EB5454"/>
</svg>
