<svg width="15" height="15" viewBox="0 0 15 15" fill="none" xmlns="http://www.w3.org/2000/svg">
<g clip-path="url(#clip0_40_4159)">
<path d="M3.32467 14.0215V4.57571H0.185081V14.0215H3.32467ZM1.75528 3.28528C2.85011 3.28528 3.53159 2.55995 3.53159 1.65353C3.51119 0.726678 2.85015 0.0214844 1.77606 0.0214844C0.70213 0.0214844 -0.000152588 0.726692 -0.000152588 1.65353C-0.000152588 2.55999 0.681157 3.28528 1.73478 3.28528H1.75518H1.75528ZM5.06242 14.0215H8.202V8.74651C8.202 8.4642 8.2224 8.18218 8.30531 7.98037C8.53228 7.41633 9.04886 6.83213 9.91615 6.83213C11.0522 6.83213 11.5067 7.69834 11.5067 8.96814V14.0214H14.6461V8.6053C14.6461 5.70393 13.0972 4.35395 11.0316 4.35395C9.33788 4.35395 8.59424 5.30066 8.18111 5.94546H8.20207V4.57552H5.06249C5.10369 5.46186 5.06249 14.0213 5.06249 14.0213L5.06242 14.0215Z" fill="white"/>
</g>
<defs>
<clipPath id="clip0_40_4159">
<rect width="14.6462" height="14" fill="white" transform="translate(0 0.0214844)"/>
</clipPath>
</defs>
</svg>
