<svg width="83" height="70" viewBox="0 0 83 70" fill="none" xmlns="http://www.w3.org/2000/svg">
<rect x="0.5" y="0.5" width="82" height="69" rx="5.5" fill="#F7F9FA" stroke="#EFEFEF"/>
<path d="M55.9343 46.3501H52.572C51.6996 46.3501 50.9893 45.6398 50.9893 44.7674V40.1204C52.6241 38.7792 60.0359 32.3326 60.0359 25.8104C60.0359 20.4011 55.6233 16 50.1981 16C44.7741 16 40.3604 20.4011 40.3604 25.8104C40.3604 32.15 47.7922 38.7544 49.407 40.1144V44.7685C49.407 46.5133 50.8277 47.934 52.5726 47.934H55.9348C56.9056 47.934 57.6955 48.724 57.6955 49.6947C57.6955 50.6655 56.9056 51.4554 55.9348 51.4554L33.6881 51.454C36.0536 49.2433 40.1467 44.7655 40.1467 40.2358C40.1467 35.5121 36.3011 31.6696 31.5733 31.6696C26.8452 31.6696 23 35.5121 23 40.2358C23 46.2877 30.7474 52.597 31.0774 52.8618C31.2221 52.979 31.3986 53.0368 31.5736 53.0368H55.9355C57.7787 53.0368 59.2789 51.5365 59.2789 49.6934C59.2789 47.8502 57.7801 46.3499 55.9355 46.3499L55.9343 46.3501ZM50.198 30.9553C47.3609 30.9553 45.0531 28.6477 45.0531 25.8105C45.0531 22.9734 47.3607 20.6657 50.198 20.6657C53.0352 20.6657 55.3428 22.9733 55.3428 25.8105C55.3428 28.6476 53.0352 30.9553 50.198 30.9553ZM27.6154 40.2364C27.6154 38.0547 29.3906 36.2794 31.5724 36.2794C33.7541 36.2794 35.5294 38.0546 35.5294 40.2364C35.5294 42.4183 33.7543 44.1935 31.5724 44.1935C29.3907 44.1935 27.6154 42.4183 27.6154 40.2364Z" fill="#eb5454"/>
</svg>
