<?xml version="1.0" encoding="utf-8"?>
<!-- Generator: Adobe Illustrator 24.0.1, SVG Export Plug-In . SVG Version: 6.00 Build 0)  -->
<svg version="1.1" id="Layer_1" xmlns="http://www.w3.org/2000/svg" xmlns:xlink="http://www.w3.org/1999/xlink" x="0px" y="0px"
	 viewBox="0 0 1440 1667" style="enable-background:new 0 0 1440 1667;" xml:space="preserve">
<style type="text/css">
	.st0{clip-path:url(#SVGID_2_);}
	.st1{fill:#FFFFFF;}
	.st2{fill:#021864;}
	.st3{fill:#0051BD;}
	.st4{fill-rule:evenodd;clip-rule:evenodd;fill:#0051BD;}
	.st5{fill:#4B575E;}
	.st6{fill-rule:evenodd;clip-rule:evenodd;fill:#FFFFFF;}
	.st7{fill:none;stroke:#021864;}
</style>
<g>
	<defs>
		<rect id="SVGID_1_" x="0.21" y="0.25" width="1440" height="1667"/>
	</defs>
	<clipPath id="SVGID_2_">
		<use xlink:href="#SVGID_1_"  style="overflow:visible;"/>
	</clipPath>
	<g class="st0">
		<rect x="810" y="658" class="st1" width="1440" height="1667"/>
		<path class="st2" d="M418.39,418.76l59.06,18.16c-1.6,11.17-8.38,20.55-8.38,20.55s0.86-3.26,1-4.59
			c-19.63,2.23-18.42,17.56-15.36,24.94c-0.86-1.6-2.63-4.79-2.79-4.79c-3.39-5.39-11.57,3.19-11.37,3.19
			c-0.8,2.99-2.39,4.46-3.19,5.19h-16.76c-6.07-0.48-9.31-6.85-10.18-9.98c-0.4-14.3,0-43.7,0-48.88
			C410.41,417.66,416.13,418.02,418.39,418.76z"/>
		<path class="st2" d="M551.68,417.36l-64.25,19.75c1.8,15.76,10.18,25.54,10.38,25.54c-4.79-7.78,1-5.99,1.2-5.79
			c9.74,3.03,12.84,13.1,13.17,17.76c1.6-3.19,0.67-7.85,0-9.78c-2.59-3.59,1.2-2.79,1.4-3.19c12.13-0.16,18.49,11.11,20.15,16.76
			c0.48,3.03,2.33,3.13,3.19,2.79h12.17c6.07-0.96,9.31-7.58,10.18-10.77v-49.08C557.99,416.08,553.68,416.49,551.68,417.36z"/>
		<path class="st2" d="M410.61,468.78v-3.47l3.28-1.95h6.36l5.13-2.38l10.46,7.8l4.71,7.17c0,3.29-2.59,5.39-3.19,5.39
			c-5.4-0.22-16.28-0.61-16.28-0.43C413.19,479.69,410.81,472.32,410.61,468.78z"/>
		<path class="st3" d="M478.06,350.52c-15.56,5.99-20.22,28.33-21.75,39.71h52.48c-3.39-29.53-15.96-37.31-16.16-37.51
			C485.24,346.53,478.06,350.52,478.06,350.52z"/>
		<path class="st4" d="M427.24,390.22c-9.4,0-17.02,7.62-17.02,17.02c0,0.3,0.12,0.58,0.32,0.78c-0.09,0.18-0.11,0.39-0.01,0.61
			c0.77,1.81,2.87,4.16,5.59,4.47c0.07,0.01,0.14,0.02,0.2,0.04l62.09,19.33c0.1,0.03,0.2,0.05,0.3,0.05h8.09
			c0.1,0,0.2-0.02,0.29-0.04l68.79-20.94c0.94-0.23,2.71-1.25,3.11-3.55c0.01-0.05,0.01-0.1,0.01-0.15c0.05-0.12,0.07-0.26,0.07-0.4
			c0-9.5-7.7-17.21-17.21-17.21H427.24z"/>
		<path class="st1" d="M482.64,426.54L482.64,426.54c2.31,0,4.19,1.88,4.19,4.19v15.16c0,2.31-1.88,4.19-4.19,4.19l0,0
			c-2.31,0-4.19-1.88-4.19-4.19v-15.16C478.45,428.41,480.33,426.54,482.64,426.54z"/>
		<path class="st1" d="M465.58,405.59c0.07-12.5,3.43-39.15,16.36-45.69c0.2,0.2,3.19-1.4,6.19,1.4c0.2,0.2,12.17,11.17,13.17,43.1
			c-0.4-0.2-2.39-3.59-10.77-2.99c0,0.2,20.55,2.79,19.75,21.55c-0.2,0-3.99-4.19-18.76-4.39c0.2,0-1.6,4.19-3.39,4.79
			c0-0.32-6.52-0.13-9.78,0c-0.93-0.73-2.91-2.63-3.39-4.39c0.2-0.4,4.16-1.39,7.74-0.41c-0.59-0.21-7.2-3.36-26.9,3.2
			C455.81,421.95,454.41,411.17,465.58,405.59z"/>
		<path class="st3" d="M483.39,372.01c-2.69,0-4.88,2.19-4.88,4.88s2.19,4.88,4.88,4.88c2.69,0,4.88-2.19,4.88-4.88
			C488.27,374.2,486.08,372.01,483.39,372.01z"/>
		<path class="st3" d="M483.39,386.64c-1.79,0-3.25,1.46-3.25,3.25c0,1.79,1.46,3.25,3.25,3.25c1.79,0,3.25-1.46,3.25-3.25
			C486.64,388.1,485.19,386.64,483.39,386.64z"/>
		<path class="st2" d="M617.39,393.91l-15.55,30.08v14.85H590.9v-14.85l-15.55-30.08h12.42l8.7,18.82l8.64-18.82H617.39z
			 M644.97,439.28c-4.22,0-8.11-0.98-11.65-2.94c-3.5-1.96-6.29-4.69-8.38-8.19c-2.05-3.54-3.07-7.51-3.07-11.9
			c0-4.39,1.02-8.34,3.07-11.84c2.09-3.5,4.89-6.23,8.38-8.19c3.54-1.96,7.42-2.94,11.65-2.94s8.09,0.98,11.58,2.94
			c3.54,1.96,6.32,4.69,8.32,8.19c2.05,3.5,3.07,7.45,3.07,11.84c0,4.39-1.02,8.36-3.07,11.9c-2.05,3.5-4.82,6.23-8.32,8.19
			C653.06,438.3,649.19,439.28,644.97,439.28z M644.97,429.3c3.58,0,6.44-1.19,8.58-3.58c2.18-2.39,3.26-5.55,3.26-9.47
			c0-3.97-1.09-7.12-3.26-9.47c-2.13-2.39-4.99-3.58-8.58-3.58c-3.63,0-6.53,1.17-8.7,3.52c-2.13,2.35-3.2,5.53-3.2,9.54
			c0,3.97,1.07,7.15,3.2,9.54C638.44,428.13,641.34,429.3,644.97,429.3z M686.71,393.91v26.88c0,2.69,0.66,4.76,1.98,6.21
			c1.32,1.45,3.26,2.18,5.82,2.18s4.52-0.72,5.89-2.18c1.36-1.45,2.05-3.52,2.05-6.21v-26.88h10.94v26.82
			c0,4.01-0.85,7.4-2.56,10.18c-1.71,2.77-4.01,4.86-6.91,6.27c-2.86,1.41-6.06,2.11-9.6,2.11c-3.54,0-6.72-0.68-9.54-2.05
			c-2.77-1.41-4.97-3.5-6.59-6.27c-1.62-2.82-2.43-6.23-2.43-10.24v-26.82H686.71z M745.91,438.83l-9.34-16.96h-2.62v16.96H723
			v-44.93h18.37c3.54,0,6.55,0.62,9.02,1.86c2.52,1.24,4.39,2.94,5.63,5.12c1.24,2.13,1.86,4.52,1.86,7.17c0,2.99-0.85,5.65-2.56,8
			c-1.66,2.35-4.14,4.01-7.42,4.99l10.37,17.79H745.91z M733.94,414.13h6.78c2.01,0,3.5-0.49,4.48-1.47
			c1.02-0.98,1.54-2.37,1.54-4.16c0-1.71-0.51-3.05-1.54-4.03c-0.98-0.98-2.48-1.47-4.48-1.47h-6.78V414.13z M798.98,393.91
			c4.74,0,8.88,0.94,12.42,2.82c3.54,1.88,6.27,4.52,8.19,7.94c1.96,3.37,2.94,7.27,2.94,11.71c0,4.39-0.98,8.3-2.94,11.71
			c-1.92,3.41-4.67,6.06-8.26,7.94c-3.54,1.88-7.66,2.82-12.35,2.82h-16.83v-44.93H798.98z M798.28,429.36
			c4.14,0,7.36-1.13,9.66-3.39c2.3-2.26,3.46-5.46,3.46-9.6c0-4.14-1.15-7.36-3.46-9.66c-2.3-2.3-5.52-3.46-9.66-3.46h-5.18v26.11
			H798.28z M881.45,393.91v44.93h-10.94v-26.94l-10.05,26.94h-8.83l-10.11-27.01v27.01h-10.94v-44.93h12.93l12.61,31.1l12.48-31.1
			H881.45z M919.21,430.9h-16.77l-2.69,7.94H888.3l16.26-44.93h12.67l16.26,44.93H921.9L919.21,430.9z M916.39,422.45L910.83,406
			l-5.5,16.45H916.39z M963.26,438.83l-9.34-16.96h-2.62v16.96h-10.94v-44.93h18.37c3.54,0,6.55,0.62,9.02,1.86
			c2.52,1.24,4.39,2.94,5.63,5.12c1.24,2.13,1.86,4.52,1.86,7.17c0,2.99-0.85,5.65-2.56,8c-1.66,2.35-4.14,4.01-7.42,4.99
			l10.37,17.79H963.26z M951.29,414.13h6.78c2.01,0,3.5-0.49,4.48-1.47c1.02-0.98,1.54-2.37,1.54-4.16c0-1.71-0.51-3.05-1.54-4.03
			c-0.98-0.98-2.47-1.47-4.48-1.47h-6.78V414.13z M982.16,416.31c0-4.44,0.96-8.38,2.88-11.84c1.92-3.5,4.59-6.21,8-8.13
			c3.46-1.96,7.36-2.94,11.71-2.94c5.34,0,9.9,1.41,13.7,4.22c3.8,2.82,6.33,6.66,7.61,11.52h-12.03c-0.89-1.88-2.17-3.31-3.84-4.29
			c-1.62-0.98-3.48-1.47-5.57-1.47c-3.37,0-6.1,1.17-8.19,3.52c-2.09,2.35-3.14,5.48-3.14,9.41c0,3.93,1.04,7.06,3.14,9.41
			c2.09,2.35,4.82,3.52,8.19,3.52c2.09,0,3.95-0.49,5.57-1.47c1.67-0.98,2.95-2.41,3.84-4.29h12.03c-1.28,4.86-3.81,8.7-7.61,11.52
			c-3.8,2.77-8.36,4.16-13.7,4.16c-4.35,0-8.25-0.96-11.71-2.88c-3.41-1.96-6.08-4.67-8-8.13
			C983.12,424.69,982.16,420.74,982.16,416.31z"/>
		<path class="st5" d="M591.83,462.71v14.6h-2.39v-10l-4.45,10h-1.66l-4.47-10v10h-2.39v-14.6h2.58l5.12,11.45l5.1-11.45H591.83z
			 M593.76,471.46c0-1.16,0.24-2.19,0.71-3.09c0.49-0.9,1.15-1.59,1.97-2.08c0.84-0.5,1.76-0.76,2.77-0.76
			c0.91,0,1.7,0.18,2.37,0.55c0.69,0.35,1.23,0.79,1.64,1.32v-1.68h2.41v11.57h-2.41v-1.72c-0.41,0.55-0.96,1-1.66,1.37
			c-0.7,0.36-1.5,0.55-2.39,0.55c-0.99,0-1.9-0.25-2.73-0.76c-0.83-0.52-1.48-1.23-1.97-2.14
			C594,473.67,593.76,472.63,593.76,471.46z M603.23,471.51c0-0.8-0.17-1.49-0.5-2.08c-0.32-0.59-0.75-1.04-1.28-1.34
			c-0.53-0.31-1.11-0.46-1.72-0.46s-1.19,0.15-1.72,0.46c-0.53,0.29-0.97,0.73-1.3,1.32c-0.32,0.57-0.48,1.26-0.48,2.06
			s0.16,1.5,0.48,2.1c0.34,0.6,0.77,1.06,1.3,1.39c0.55,0.31,1.12,0.46,1.72,0.46c0.62,0,1.19-0.15,1.72-0.46
			c0.53-0.31,0.96-0.76,1.28-1.34C603.07,473.01,603.23,472.3,603.23,471.51z M612.95,471.53l5.33,5.77h-3.23l-4.28-4.98v4.98h-2.39
			v-15.54h2.39v9.03l4.2-5.06h3.32L612.95,471.53z M630.19,471.23c0,0.43-0.03,0.83-0.08,1.18h-8.84c0.07,0.92,0.41,1.67,1.03,2.23
			c0.62,0.56,1.37,0.84,2.27,0.84c1.29,0,2.2-0.54,2.73-1.62h2.58c-0.35,1.06-0.99,1.94-1.91,2.62c-0.91,0.67-2.04,1.01-3.4,1.01
			c-1.11,0-2.1-0.24-2.98-0.74c-0.87-0.5-1.55-1.2-2.06-2.1c-0.49-0.91-0.74-1.96-0.74-3.15s0.24-2.23,0.71-3.13
			c0.49-0.91,1.17-1.61,2.04-2.1c0.88-0.49,1.89-0.74,3.02-0.74c1.09,0,2.07,0.24,2.92,0.71c0.85,0.48,1.52,1.15,1.99,2.02
			C629.95,469.13,630.19,470.11,630.19,471.23z M627.69,470.48c-0.01-0.88-0.33-1.59-0.95-2.12c-0.62-0.53-1.38-0.8-2.29-0.8
			c-0.83,0-1.53,0.27-2.12,0.8c-0.59,0.52-0.94,1.23-1.05,2.12H627.69z M639.95,467.68v6.4c0,0.43,0.1,0.75,0.29,0.95
			c0.21,0.18,0.56,0.27,1.05,0.27h1.47v1.99h-1.89c-1.08,0-1.9-0.25-2.48-0.76c-0.57-0.5-0.86-1.32-0.86-2.46v-6.4h-1.36v-1.95h1.36
			v-2.88h2.42v2.88h2.81v1.95H639.95z M650.54,465.54c0.88,0,1.67,0.19,2.35,0.57c0.7,0.38,1.25,0.94,1.64,1.68
			c0.41,0.74,0.61,1.64,0.61,2.69v6.83h-2.37v-6.47c0-1.04-0.26-1.83-0.78-2.37c-0.52-0.56-1.22-0.84-2.12-0.84
			s-1.61,0.28-2.14,0.84c-0.52,0.55-0.78,1.34-0.78,2.37v6.47h-2.39v-15.54h2.39v5.31c0.41-0.49,0.92-0.87,1.53-1.13
			C649.11,465.68,649.79,465.54,650.54,465.54z M668.37,471.23c0,0.43-0.03,0.83-0.08,1.18h-8.84c0.07,0.92,0.41,1.67,1.03,2.23
			c0.62,0.56,1.37,0.84,2.27,0.84c1.29,0,2.2-0.54,2.73-1.62h2.58c-0.35,1.06-0.99,1.94-1.91,2.62c-0.91,0.67-2.04,1.01-3.4,1.01
			c-1.11,0-2.1-0.24-2.98-0.74c-0.87-0.5-1.55-1.2-2.06-2.1c-0.49-0.91-0.73-1.96-0.73-3.15s0.24-2.23,0.71-3.13
			c0.49-0.91,1.17-1.61,2.04-2.1c0.88-0.49,1.89-0.74,3.02-0.74c1.09,0,2.07,0.24,2.92,0.71c0.85,0.48,1.52,1.15,1.99,2.02
			C668.14,469.13,668.37,470.11,668.37,471.23z M665.88,470.48c-0.01-0.88-0.33-1.59-0.95-2.12c-0.62-0.53-1.38-0.8-2.29-0.8
			c-0.83,0-1.53,0.27-2.12,0.8c-0.59,0.52-0.94,1.23-1.05,2.12H665.88z M685.95,471.23c0,0.43-0.03,0.83-0.08,1.18h-8.84
			c0.07,0.92,0.41,1.67,1.03,2.23c0.62,0.56,1.37,0.84,2.27,0.84c1.29,0,2.2-0.54,2.73-1.62h2.58c-0.35,1.06-0.99,1.94-1.91,2.62
			c-0.91,0.67-2.04,1.01-3.4,1.01c-1.11,0-2.1-0.24-2.98-0.74c-0.87-0.5-1.55-1.2-2.06-2.1c-0.49-0.91-0.73-1.96-0.73-3.15
			s0.24-2.23,0.71-3.13c0.49-0.91,1.17-1.61,2.04-2.1c0.88-0.49,1.89-0.74,3.02-0.74c1.09,0,2.07,0.24,2.92,0.71
			c0.85,0.48,1.52,1.15,1.99,2.02C685.71,469.13,685.95,470.11,685.95,471.23z M683.45,470.48c-0.01-0.88-0.33-1.59-0.95-2.12
			c-0.62-0.53-1.38-0.8-2.29-0.8c-0.83,0-1.53,0.27-2.12,0.8c-0.59,0.52-0.94,1.23-1.05,2.12H683.45z M701.89,465.54
			c0.91,0,1.72,0.19,2.44,0.57c0.73,0.38,1.29,0.94,1.7,1.68c0.42,0.74,0.63,1.64,0.63,2.69v6.83h-2.37v-6.47
			c0-1.04-0.26-1.83-0.78-2.37c-0.52-0.56-1.22-0.84-2.12-0.84s-1.61,0.28-2.14,0.84c-0.52,0.55-0.78,1.34-0.78,2.37v6.47h-2.37
			v-6.47c0-1.04-0.26-1.83-0.78-2.37c-0.52-0.56-1.22-0.84-2.12-0.84s-1.61,0.28-2.14,0.84c-0.52,0.55-0.78,1.34-0.78,2.37v6.47
			h-2.39v-11.57h2.39v1.32c0.39-0.48,0.89-0.85,1.49-1.11c0.6-0.27,1.25-0.4,1.93-0.4c0.92,0,1.75,0.2,2.48,0.59
			c0.73,0.39,1.29,0.96,1.68,1.7c0.35-0.7,0.9-1.25,1.64-1.66C700.24,465.75,701.04,465.54,701.89,465.54z M708.49,471.46
			c0-1.16,0.24-2.19,0.71-3.09c0.49-0.9,1.15-1.59,1.97-2.08c0.84-0.5,1.76-0.76,2.77-0.76c0.91,0,1.7,0.18,2.37,0.55
			c0.69,0.35,1.23,0.79,1.64,1.32v-1.68h2.41v11.57h-2.41v-1.72c-0.41,0.55-0.96,1-1.66,1.37c-0.7,0.36-1.5,0.55-2.39,0.55
			c-0.99,0-1.9-0.25-2.73-0.76c-0.83-0.52-1.48-1.23-1.97-2.14C708.73,473.67,708.49,472.63,708.49,471.46z M717.96,471.51
			c0-0.8-0.17-1.49-0.5-2.08c-0.32-0.59-0.75-1.04-1.28-1.34c-0.53-0.31-1.11-0.46-1.72-0.46c-0.62,0-1.19,0.15-1.72,0.46
			c-0.53,0.29-0.97,0.73-1.3,1.32c-0.32,0.57-0.48,1.26-0.48,2.06s0.16,1.5,0.48,2.1c0.34,0.6,0.77,1.06,1.3,1.39
			c0.55,0.31,1.12,0.46,1.72,0.46c0.62,0,1.19-0.15,1.72-0.46c0.53-0.31,0.96-0.76,1.28-1.34
			C717.79,473.01,717.96,472.3,717.96,471.51z M724.32,464.2c-0.43,0-0.8-0.15-1.09-0.44s-0.44-0.66-0.44-1.09
			c0-0.43,0.15-0.8,0.44-1.09s0.66-0.44,1.09-0.44c0.42,0,0.78,0.15,1.07,0.44c0.29,0.29,0.44,0.66,0.44,1.09
			c0,0.43-0.15,0.8-0.44,1.09C725.09,464.05,724.74,464.2,724.32,464.2z M725.49,465.73v11.57h-2.39v-11.57H725.49z M730.61,461.76
			v15.54h-2.39v-15.54H730.61z M737.57,471.51c0-1.19,0.24-2.23,0.71-3.13c0.49-0.91,1.16-1.61,2.02-2.1
			c0.85-0.49,1.83-0.74,2.94-0.74c1.4,0,2.55,0.34,3.47,1.01c0.92,0.66,1.55,1.6,1.87,2.83h-2.58c-0.21-0.57-0.55-1.02-1.01-1.34
			c-0.46-0.32-1.04-0.48-1.74-0.48c-0.98,0-1.76,0.35-2.35,1.05c-0.57,0.69-0.86,1.65-0.86,2.9s0.29,2.22,0.86,2.92
			c0.59,0.7,1.37,1.05,2.35,1.05c1.39,0,2.3-0.61,2.75-1.83h2.58c-0.34,1.18-0.97,2.11-1.89,2.81c-0.92,0.69-2.07,1.03-3.44,1.03
			c-1.11,0-2.09-0.24-2.94-0.74c-0.85-0.5-1.53-1.2-2.02-2.1C737.81,473.75,737.57,472.7,737.57,471.51z M755.56,477.49
			c-1.09,0-2.08-0.24-2.96-0.74c-0.88-0.5-1.58-1.2-2.08-2.1c-0.5-0.91-0.76-1.96-0.76-3.15c0-1.18,0.26-2.22,0.78-3.13
			s1.22-1.61,2.12-2.1c0.9-0.49,1.9-0.74,3-0.74c1.11,0,2.11,0.24,3,0.74c0.9,0.49,1.6,1.19,2.12,2.1s0.78,1.95,0.78,3.13
			c0,1.18-0.27,2.22-0.8,3.13c-0.53,0.91-1.26,1.62-2.18,2.12C757.67,477.25,756.66,477.49,755.56,477.49z M755.56,475.41
			c0.62,0,1.19-0.15,1.72-0.44c0.55-0.29,0.99-0.73,1.32-1.32c0.34-0.59,0.5-1.3,0.5-2.14s-0.16-1.55-0.48-2.12
			c-0.32-0.59-0.75-1.03-1.28-1.32c-0.53-0.29-1.11-0.44-1.72-0.44c-0.62,0-1.19,0.15-1.72,0.44c-0.52,0.29-0.93,0.74-1.24,1.32
			c-0.31,0.57-0.46,1.28-0.46,2.12c0,1.25,0.32,2.21,0.95,2.9C753.79,475.08,754.59,475.41,755.56,475.41z M777.52,465.54
			c0.91,0,1.72,0.19,2.44,0.57c0.73,0.38,1.29,0.94,1.7,1.68c0.42,0.74,0.63,1.64,0.63,2.69v6.83h-2.37v-6.47
			c0-1.04-0.26-1.83-0.78-2.37c-0.52-0.56-1.23-0.84-2.12-0.84s-1.61,0.28-2.14,0.84c-0.52,0.55-0.78,1.34-0.78,2.37v6.47h-2.37
			v-6.47c0-1.04-0.26-1.83-0.78-2.37c-0.52-0.56-1.23-0.84-2.12-0.84s-1.61,0.28-2.14,0.84c-0.52,0.55-0.78,1.34-0.78,2.37v6.47
			h-2.39v-11.57h2.39v1.32c0.39-0.48,0.89-0.85,1.49-1.11c0.6-0.27,1.25-0.4,1.93-0.4c0.92,0,1.75,0.2,2.48,0.59
			c0.73,0.39,1.29,0.96,1.68,1.7c0.35-0.7,0.9-1.25,1.64-1.66C775.87,465.75,776.66,465.54,777.52,465.54z M787.31,467.43
			c0.41-0.53,0.96-0.98,1.66-1.34c0.7-0.36,1.49-0.55,2.37-0.55c1.01,0,1.92,0.25,2.75,0.76c0.84,0.49,1.5,1.18,1.97,2.08
			c0.48,0.9,0.71,1.93,0.71,3.09c0,1.16-0.24,2.21-0.71,3.13c-0.48,0.91-1.13,1.62-1.97,2.14c-0.83,0.5-1.74,0.76-2.75,0.76
			c-0.88,0-1.67-0.18-2.35-0.52c-0.69-0.36-1.25-0.81-1.68-1.34v7.18h-2.39v-17.07h2.39V467.43z M794.34,471.46
			c0-0.8-0.17-1.48-0.5-2.06c-0.32-0.59-0.76-1.03-1.3-1.32c-0.53-0.31-1.11-0.46-1.72-0.46c-0.6,0-1.18,0.15-1.72,0.46
			c-0.53,0.31-0.97,0.76-1.3,1.34c-0.32,0.59-0.48,1.28-0.48,2.08c0,0.8,0.16,1.5,0.48,2.1c0.34,0.59,0.77,1.04,1.3,1.34
			c0.55,0.31,1.12,0.46,1.72,0.46c0.62,0,1.19-0.15,1.72-0.46c0.55-0.32,0.98-0.78,1.3-1.39
			C794.17,472.96,794.34,472.26,794.34,471.46z M801.12,461.76v15.54h-2.39v-15.54H801.12z M805.06,464.2
			c-0.43,0-0.8-0.15-1.09-0.44s-0.44-0.66-0.44-1.09c0-0.43,0.15-0.8,0.44-1.09s0.66-0.44,1.09-0.44c0.42,0,0.78,0.15,1.07,0.44
			s0.44,0.66,0.44,1.09c0,0.43-0.15,0.8-0.44,1.09S805.48,464.2,805.06,464.2z M806.24,465.73v11.57h-2.39v-11.57H806.24z
			 M808.16,471.46c0-1.16,0.24-2.19,0.71-3.09c0.49-0.9,1.15-1.59,1.97-2.08c0.84-0.5,1.76-0.76,2.77-0.76
			c0.91,0,1.7,0.18,2.37,0.55c0.69,0.35,1.23,0.79,1.64,1.32v-1.68h2.41v11.57h-2.41v-1.72c-0.41,0.55-0.96,1-1.66,1.37
			c-0.7,0.36-1.5,0.55-2.39,0.55c-0.99,0-1.9-0.25-2.73-0.76c-0.83-0.52-1.48-1.23-1.97-2.14
			C808.4,473.67,808.16,472.63,808.16,471.46z M817.63,471.51c0-0.8-0.17-1.49-0.5-2.08c-0.32-0.59-0.75-1.04-1.28-1.34
			c-0.53-0.31-1.11-0.46-1.72-0.46c-0.62,0-1.19,0.15-1.72,0.46c-0.53,0.29-0.97,0.73-1.3,1.32c-0.32,0.57-0.48,1.26-0.48,2.06
			s0.16,1.5,0.48,2.1c0.34,0.6,0.77,1.06,1.3,1.39c0.55,0.31,1.12,0.46,1.72,0.46c0.62,0,1.19-0.15,1.72-0.46
			c0.53-0.31,0.96-0.76,1.28-1.34C817.46,473.01,817.63,472.3,817.63,471.51z M828.61,465.54c0.91,0,1.72,0.19,2.44,0.57
			c0.73,0.38,1.29,0.94,1.7,1.68s0.61,1.64,0.61,2.69v6.83h-2.37v-6.47c0-1.04-0.26-1.83-0.78-2.37c-0.52-0.56-1.22-0.84-2.12-0.84
			s-1.61,0.28-2.14,0.84c-0.52,0.55-0.78,1.34-0.78,2.37v6.47h-2.39v-11.57h2.39v1.32c0.39-0.48,0.89-0.85,1.49-1.11
			C827.27,465.68,827.92,465.54,828.61,465.54z M838.78,467.68v6.4c0,0.43,0.1,0.75,0.29,0.95c0.21,0.18,0.56,0.27,1.05,0.27h1.47
			v1.99h-1.89c-1.08,0-1.9-0.25-2.48-0.76s-0.86-1.32-0.86-2.46v-6.4H835v-1.95h1.36v-2.88h2.42v2.88h2.81v1.95H838.78z
			 M863.96,465.73l-3.59,11.57h-2.52l-2.33-8.55l-2.33,8.55h-2.52l-3.61-11.57h2.44l2.42,9.3l2.46-9.3h2.5l2.35,9.26l2.39-9.26
			H863.96z M866.54,464.2c-0.43,0-0.8-0.15-1.09-0.44s-0.44-0.66-0.44-1.09c0-0.43,0.15-0.8,0.44-1.09s0.66-0.44,1.09-0.44
			c0.42,0,0.78,0.15,1.07,0.44s0.44,0.66,0.44,1.09c0,0.43-0.15,0.8-0.44,1.09S866.96,464.2,866.54,464.2z M867.72,465.73v11.57
			h-2.39v-11.57H867.72z M873.24,467.68v6.4c0,0.43,0.1,0.75,0.29,0.95c0.21,0.18,0.56,0.27,1.05,0.27h1.47v1.99h-1.89
			c-1.08,0-1.9-0.25-2.48-0.76c-0.57-0.5-0.86-1.32-0.86-2.46v-6.4h-1.36v-1.95h1.36v-2.88h2.41v2.88h2.81v1.95H873.24z
			 M883.82,465.54c0.88,0,1.67,0.19,2.35,0.57c0.7,0.38,1.25,0.94,1.64,1.68c0.41,0.74,0.61,1.64,0.61,2.69v6.83h-2.37v-6.47
			c0-1.04-0.26-1.83-0.78-2.37c-0.52-0.56-1.23-0.84-2.12-0.84s-1.61,0.28-2.14,0.84c-0.52,0.55-0.78,1.34-0.78,2.37v6.47h-2.39
			v-15.54h2.39v5.31c0.41-0.49,0.92-0.87,1.53-1.13C882.39,465.68,883.08,465.54,883.82,465.54z M906.51,465.73l-7.1,17.01h-2.48
			l2.35-5.63l-4.56-11.38h2.67l3.26,8.82l3.38-8.82H906.51z M912.91,477.49c-1.09,0-2.08-0.24-2.96-0.74
			c-0.88-0.5-1.58-1.2-2.08-2.1c-0.5-0.91-0.76-1.96-0.76-3.15c0-1.18,0.26-2.22,0.78-3.13s1.23-1.61,2.12-2.1
			c0.9-0.49,1.9-0.74,3-0.74s2.11,0.24,3,0.74c0.9,0.49,1.6,1.19,2.12,2.1c0.52,0.91,0.78,1.95,0.78,3.13c0,1.18-0.27,2.22-0.8,3.13
			c-0.53,0.91-1.26,1.62-2.18,2.12C915.03,477.25,914.02,477.49,912.91,477.49z M912.91,475.41c0.62,0,1.19-0.15,1.72-0.44
			c0.55-0.29,0.99-0.73,1.32-1.32c0.34-0.59,0.5-1.3,0.5-2.14s-0.16-1.55-0.48-2.12c-0.32-0.59-0.75-1.03-1.28-1.32
			c-0.53-0.29-1.11-0.44-1.72-0.44c-0.62,0-1.19,0.15-1.72,0.44c-0.52,0.29-0.93,0.74-1.24,1.32c-0.31,0.57-0.46,1.28-0.46,2.12
			c0,1.25,0.32,2.21,0.95,2.9C911.14,475.08,911.95,475.41,912.91,475.41z M931.34,465.73v11.57h-2.39v-1.37
			c-0.38,0.48-0.88,0.85-1.49,1.13c-0.6,0.27-1.25,0.4-1.93,0.4c-0.91,0-1.73-0.19-2.46-0.57c-0.71-0.38-1.28-0.94-1.7-1.68
			c-0.41-0.74-0.61-1.64-0.61-2.69v-6.8h2.37v6.45c0,1.04,0.26,1.83,0.78,2.39c0.52,0.55,1.23,0.82,2.12,0.82s1.6-0.27,2.12-0.82
			c0.53-0.56,0.8-1.36,0.8-2.39v-6.45H931.34z M936.48,467.41c0.35-0.59,0.81-1.04,1.39-1.36c0.59-0.34,1.28-0.5,2.08-0.5v2.48
			h-0.61c-0.94,0-1.65,0.24-2.14,0.71c-0.48,0.48-0.71,1.3-0.71,2.48v6.09h-2.39v-11.57h2.39V467.41z M951.52,462.71
			c1.55,0,2.91,0.3,4.07,0.9c1.18,0.59,2.08,1.44,2.71,2.56c0.64,1.11,0.97,2.4,0.97,3.89c0,1.48-0.32,2.77-0.97,3.86
			c-0.63,1.09-1.53,1.93-2.71,2.52c-1.16,0.57-2.52,0.86-4.07,0.86h-4.77v-14.6H951.52z M951.52,475.35c1.71,0,3.02-0.46,3.93-1.39
			c0.91-0.92,1.36-2.23,1.36-3.91c0-1.69-0.46-3.02-1.36-3.97c-0.91-0.95-2.22-1.43-3.93-1.43h-2.37v10.69H951.52z M976.6,462.71
			v14.6h-2.39v-10l-4.45,10h-1.66l-4.47-10v10h-2.39v-14.6h2.58l5.12,11.45l5.1-11.45H976.6z M988.12,474.32h-6.11l-1.05,2.98h-2.5
			l5.23-14.62h2.77l5.23,14.62h-2.52L988.12,474.32z M987.45,472.37l-2.37-6.78l-2.39,6.78H987.45z M1001.12,477.3l-3.36-5.84h-1.83
			v5.84h-2.39v-14.6h5.04c1.12,0,2.07,0.2,2.84,0.59c0.78,0.39,1.36,0.92,1.74,1.58c0.39,0.66,0.59,1.39,0.59,2.2
			c0,0.95-0.28,1.82-0.84,2.6c-0.55,0.77-1.4,1.3-2.54,1.58l3.61,6.05H1001.12z M995.94,469.55h2.65c0.9,0,1.57-0.22,2.02-0.67
			c0.46-0.45,0.69-1.05,0.69-1.81c0-0.76-0.22-1.34-0.67-1.76c-0.45-0.43-1.13-0.65-2.04-0.65h-2.65V469.55z M1005.59,469.97
			c0-1.43,0.33-2.71,0.99-3.84c0.67-1.13,1.57-2.02,2.71-2.65c1.15-0.64,2.4-0.97,3.76-0.97c1.55,0,2.93,0.38,4.13,1.15
			c1.22,0.76,2.1,1.83,2.65,3.23h-2.88c-0.38-0.77-0.9-1.34-1.57-1.72c-0.67-0.38-1.45-0.57-2.33-0.57c-0.97,0-1.83,0.22-2.59,0.65
			c-0.75,0.43-1.35,1.06-1.78,1.87c-0.42,0.81-0.63,1.76-0.63,2.83s0.21,2.02,0.63,2.83c0.43,0.81,1.03,1.44,1.78,1.89
			c0.76,0.43,1.62,0.65,2.59,0.65c0.88,0,1.66-0.19,2.33-0.57c0.67-0.38,1.19-0.95,1.57-1.72h2.88c-0.55,1.4-1.43,2.48-2.65,3.23
			c-1.2,0.76-2.58,1.13-4.13,1.13c-1.38,0-2.63-0.31-3.76-0.94c-1.14-0.64-2.04-1.53-2.71-2.67
			C1005.92,472.68,1005.59,471.4,1005.59,469.97z M1025.22,462.71l-0.28,10.18h-1.99l-0.28-10.18H1025.22z M1024.02,477.45
			c-0.44,0-0.8-0.15-1.09-0.44c-0.3-0.29-0.44-0.66-0.44-1.09c0-0.43,0.14-0.8,0.44-1.09c0.29-0.29,0.65-0.44,1.09-0.44
			c0.42,0,0.78,0.15,1.07,0.44c0.29,0.29,0.44,0.66,0.44,1.09c0,0.43-0.15,0.8-0.44,1.09S1024.44,477.45,1024.02,477.45z"/>
		<rect x="0.21" y="838.25" class="st2" width="1440" height="835"/>
		<path class="st1" d="M418.39,1255.76l59.06,18.15c-1.6,11.18-8.38,20.55-8.38,20.55s0.86-3.25,1-4.59
			c-19.63,2.24-18.42,17.56-15.36,24.95c-0.86-1.6-2.63-4.79-2.79-4.79c-3.39-5.39-11.57,3.19-11.37,3.19
			c-0.8,2.99-2.39,4.46-3.19,5.19h-16.76c-6.07-0.48-9.31-6.85-10.18-9.98c-0.4-14.3,0-43.7,0-48.88
			C410.41,1254.66,416.13,1255.02,418.39,1255.76z"/>
		<path class="st1" d="M551.68,1254.36l-64.25,19.75c1.8,15.77,10.18,25.54,10.38,25.54c-4.79-7.78,1-5.98,1.2-5.78
			c9.74,3.03,12.84,13.1,13.17,17.75c1.6-3.19,0.67-7.84,0-9.77c-2.59-3.59,1.2-2.8,1.4-3.2c12.13-0.16,18.49,11.11,20.15,16.76
			c0.48,3.04,2.33,3.13,3.19,2.8h12.17c6.07-0.96,9.31-7.58,10.18-10.78v-49.08C557.99,1253.08,553.68,1253.49,551.68,1254.36z"/>
		<path class="st1" d="M410.61,1305.78v-3.46l3.28-1.95h6.36l5.13-2.38l10.46,7.79l4.71,7.17c0,3.29-2.59,5.39-3.19,5.39
			c-5.4-0.22-16.28-0.61-16.28-0.43C413.19,1316.69,410.81,1309.32,410.61,1305.78z"/>
		<path class="st1" d="M478.06,1187.52c-15.56,5.98-20.22,28.33-21.75,39.7h52.48c-3.39-29.53-15.96-37.31-16.16-37.51
			C485.24,1183.53,478.06,1187.52,478.06,1187.52z"/>
		<path class="st6" d="M427.24,1227.22c-9.4,0-17.02,7.63-17.02,17.03c0,0.3,0.12,0.58,0.32,0.78c-0.09,0.18-0.11,0.39-0.01,0.61
			c0.77,1.82,2.87,4.16,5.59,4.47c0.07,0.01,0.14,0.02,0.2,0.04l62.09,19.33c0.1,0.03,0.2,0.04,0.3,0.04h8.09
			c0.1,0,0.2-0.01,0.29-0.04l68.79-20.94c0.94-0.24,2.71-1.26,3.11-3.56c0.01-0.05,0.01-0.1,0.01-0.15c0.05-0.12,0.07-0.26,0.07-0.4
			c0-9.5-7.7-17.21-17.21-17.21H427.24z"/>
		<path class="st2" d="M482.64,1263.54L482.64,1263.54c2.31,0,4.19,1.88,4.19,4.19v15.16c0,2.31-1.88,4.19-4.19,4.19l0,0
			c-2.31,0-4.19-1.88-4.19-4.19v-15.16C478.45,1265.42,480.33,1263.54,482.64,1263.54z"/>
		<path class="st2" d="M465.58,1242.59c0.07-12.51,3.43-39.15,16.36-45.7c0.2,0.2,3.19-1.39,6.19,1.4
			c0.2,0.2,12.17,11.17,13.17,43.1c-0.4-0.2-2.39-3.59-10.77-2.99c0,0.2,20.55,2.79,19.75,21.55c-0.2,0-3.99-4.19-18.76-4.39
			c0.2,0-1.6,4.19-3.39,4.78c0-0.31-6.52-0.13-9.78,0c-0.93-0.73-2.91-2.63-3.39-4.39c0.2-0.39,4.16-1.38,7.74-0.4
			c-0.59-0.21-7.2-3.37-26.9,3.2C455.81,1258.95,454.41,1248.17,465.58,1242.59z"/>
		<path class="st7" d="M465.58,1242.59c0.07-12.51,3.43-39.15,16.36-45.7c0.2,0.2,3.19-1.39,6.19,1.4
			c0.2,0.2,12.17,11.17,13.17,43.1c-0.4-0.2-2.39-3.59-10.77-2.99c0,0.2,20.55,2.79,19.75,21.55c-0.2,0-3.99-4.19-18.76-4.39
			c0.2,0-1.6,4.19-3.39,4.78c0-0.31-6.52-0.13-9.78,0c-0.93-0.73-2.91-2.63-3.39-4.39c0.2-0.39,4.19-1.39,7.78-0.39
			c-0.2,0-6.58-3.6-26.94,3.19C455.81,1258.95,454.41,1248.17,465.58,1242.59z"/>
		<path class="st1" d="M483.39,1209.01c-2.69,0-4.88,2.19-4.88,4.88c0,2.69,2.19,4.87,4.88,4.87c2.69,0,4.88-2.18,4.88-4.87
			C488.27,1211.2,486.08,1209.01,483.39,1209.01z"/>
		<path class="st1" d="M483.39,1223.64c-1.79,0-3.25,1.46-3.25,3.25c0,1.8,1.46,3.25,3.25,3.25c1.79,0,3.25-1.45,3.25-3.25
			C486.64,1225.1,485.19,1223.64,483.39,1223.64z"/>
		<path class="st1" d="M617.39,1230.91l-15.55,30.08v14.85H590.9v-14.85l-15.55-30.08h12.42l8.7,18.81l8.64-18.81H617.39z
			 M644.97,1276.28c-4.22,0-8.11-0.98-11.65-2.94c-3.5-1.96-6.29-4.69-8.38-8.19c-2.05-3.54-3.07-7.51-3.07-11.91
			c0-4.39,1.02-8.34,3.07-11.84c2.09-3.5,4.89-6.23,8.38-8.19c3.54-1.96,7.42-2.94,11.65-2.94s8.09,0.98,11.58,2.94
			c3.54,1.96,6.32,4.69,8.32,8.19c2.05,3.5,3.07,7.45,3.07,11.84c0,4.4-1.02,8.37-3.07,11.91c-2.05,3.5-4.82,6.23-8.32,8.19
			C653.06,1275.3,649.19,1276.28,644.97,1276.28z M644.97,1266.3c3.58,0,6.44-1.2,8.58-3.58c2.18-2.39,3.26-5.55,3.26-9.48
			c0-3.96-1.09-7.12-3.26-9.47c-2.13-2.39-4.99-3.58-8.58-3.58c-3.63,0-6.53,1.17-8.7,3.52c-2.13,2.34-3.2,5.52-3.2,9.53
			c0,3.97,1.07,7.15,3.2,9.54C638.44,1265.13,641.34,1266.3,644.97,1266.3z M686.71,1230.91v26.88c0,2.69,0.66,4.75,1.98,6.21
			c1.32,1.45,3.26,2.17,5.82,2.17s4.52-0.72,5.89-2.17c1.36-1.46,2.05-3.52,2.05-6.21v-26.88h10.94v26.81
			c0,4.01-0.85,7.41-2.56,10.18c-1.71,2.77-4.01,4.86-6.91,6.27c-2.86,1.41-6.06,2.11-9.6,2.11c-3.54,0-6.72-0.68-9.54-2.04
			c-2.77-1.41-4.97-3.5-6.59-6.28c-1.62-2.81-2.43-6.23-2.43-10.24v-26.81H686.71z M745.91,1275.84l-9.34-16.96h-2.62v16.96H723
			v-44.93h18.37c3.54,0,6.55,0.62,9.02,1.85c2.52,1.24,4.39,2.95,5.63,5.12c1.24,2.14,1.86,4.53,1.86,7.17c0,2.99-0.85,5.65-2.56,8
			c-1.66,2.35-4.14,4.01-7.42,4.99l10.37,17.8H745.91z M733.94,1251.13h6.78c2.01,0,3.5-0.49,4.48-1.47
			c1.02-0.98,1.54-2.37,1.54-4.16c0-1.71-0.51-3.05-1.54-4.03c-0.98-0.98-2.48-1.47-4.48-1.47h-6.78V1251.13z M798.98,1230.91
			c4.74,0,8.88,0.94,12.42,2.81c3.54,1.88,6.27,4.53,8.19,7.94c1.96,3.37,2.94,7.27,2.94,11.71c0,4.4-0.98,8.3-2.94,11.71
			c-1.92,3.42-4.67,6.06-8.26,7.94c-3.54,1.88-7.66,2.82-12.35,2.82h-16.83v-44.93H798.98z M798.28,1266.36
			c4.14,0,7.36-1.13,9.66-3.39c2.3-2.26,3.46-5.46,3.46-9.6s-1.15-7.36-3.46-9.66c-2.3-2.31-5.52-3.46-9.66-3.46h-5.18v26.11H798.28
			z M881.45,1230.91v44.93h-10.94v-26.95l-10.05,26.95h-8.83l-10.11-27.01v27.01h-10.94v-44.93h12.93l12.61,31.1l12.48-31.1H881.45z
			 M919.21,1267.9h-16.77l-2.69,7.94H888.3l16.26-44.93h12.67l16.26,44.93H921.9L919.21,1267.9z M916.39,1259.45l-5.57-16.45
			l-5.5,16.45H916.39z M963.26,1275.84l-9.34-16.96h-2.62v16.96h-10.94v-44.93h18.37c3.54,0,6.55,0.62,9.02,1.85
			c2.52,1.24,4.39,2.95,5.63,5.12c1.24,2.14,1.86,4.53,1.86,7.17c0,2.99-0.85,5.65-2.56,8c-1.66,2.35-4.14,4.01-7.42,4.99
			l10.37,17.8H963.26z M951.29,1251.13h6.78c2.01,0,3.5-0.49,4.48-1.47c1.02-0.98,1.54-2.37,1.54-4.16c0-1.71-0.51-3.05-1.54-4.03
			c-0.98-0.98-2.47-1.47-4.48-1.47h-6.78V1251.13z M982.16,1253.31c0-4.44,0.96-8.39,2.88-11.84c1.92-3.5,4.59-6.21,8-8.13
			c3.46-1.96,7.36-2.94,11.71-2.94c5.34,0,9.9,1.4,13.7,4.22s6.33,6.66,7.61,11.52h-12.03c-0.89-1.88-2.17-3.31-3.84-4.29
			c-1.62-0.98-3.48-1.47-5.57-1.47c-3.37,0-6.1,1.17-8.19,3.52c-2.09,2.35-3.14,5.48-3.14,9.41c0,3.92,1.04,7.06,3.14,9.41
			c2.09,2.34,4.82,3.52,8.19,3.52c2.09,0,3.95-0.5,5.57-1.48c1.67-0.98,2.95-2.41,3.84-4.28h12.03c-1.28,4.86-3.81,8.7-7.61,11.52
			c-3.8,2.77-8.36,4.16-13.7,4.16c-4.35,0-8.25-0.96-11.71-2.88c-3.41-1.97-6.08-4.68-8-8.13
			C983.12,1261.69,982.16,1257.74,982.16,1253.31z"/>
		<path class="st1" d="M591.83,1299.71v14.59h-2.39v-9.99l-4.45,9.99h-1.66l-4.47-9.99v9.99h-2.39v-14.59h2.58l5.12,11.44l5.1-11.44
			H591.83z M593.76,1308.47c0-1.17,0.24-2.2,0.71-3.09c0.49-0.9,1.15-1.59,1.97-2.08c0.84-0.5,1.76-0.76,2.77-0.76
			c0.91,0,1.7,0.19,2.37,0.55c0.69,0.35,1.23,0.79,1.64,1.32v-1.68h2.41v11.57h-2.41v-1.72c-0.41,0.55-0.96,1-1.66,1.37
			c-0.7,0.36-1.5,0.54-2.39,0.54c-0.99,0-1.9-0.25-2.73-0.75c-0.83-0.52-1.48-1.24-1.97-2.15
			C594,1310.67,593.76,1309.63,593.76,1308.47z M603.23,1308.51c0-0.8-0.17-1.49-0.5-2.08c-0.32-0.59-0.75-1.04-1.28-1.35
			c-0.53-0.3-1.11-0.46-1.72-0.46s-1.19,0.16-1.72,0.46c-0.53,0.3-0.97,0.74-1.3,1.33c-0.32,0.57-0.48,1.26-0.48,2.06
			c0,0.79,0.16,1.49,0.48,2.1c0.34,0.6,0.77,1.06,1.3,1.38c0.55,0.31,1.12,0.46,1.72,0.46c0.62,0,1.19-0.15,1.72-0.46
			c0.53-0.31,0.96-0.75,1.28-1.34C603.07,1310.01,603.23,1309.31,603.23,1308.51z M612.95,1308.53l5.33,5.77h-3.23l-4.28-4.97v4.97
			h-2.39v-15.54h2.39v9.03l4.2-5.06h3.32L612.95,1308.53z M630.19,1308.23c0,0.44-0.03,0.83-0.08,1.18h-8.84
			c0.07,0.92,0.41,1.67,1.03,2.23c0.62,0.56,1.37,0.84,2.27,0.84c1.29,0,2.2-0.54,2.73-1.62h2.58c-0.35,1.06-0.99,1.94-1.91,2.62
			c-0.91,0.68-2.04,1.01-3.4,1.01c-1.11,0-2.1-0.24-2.98-0.73c-0.87-0.51-1.55-1.21-2.06-2.1c-0.49-0.91-0.74-1.96-0.74-3.15
			c0-1.19,0.24-2.24,0.71-3.13c0.49-0.91,1.17-1.61,2.04-2.1c0.88-0.49,1.89-0.74,3.02-0.74c1.09,0,2.07,0.24,2.92,0.72
			c0.85,0.47,1.52,1.15,1.99,2.01S630.19,1307.11,630.19,1308.23z M627.69,1307.48c-0.01-0.88-0.33-1.59-0.95-2.12
			c-0.62-0.53-1.38-0.8-2.29-0.8c-0.83,0-1.53,0.27-2.12,0.8c-0.59,0.52-0.94,1.22-1.05,2.12H627.69z M639.95,1304.69v6.4
			c0,0.43,0.1,0.75,0.29,0.95c0.21,0.18,0.56,0.27,1.05,0.27h1.47v1.99h-1.89c-1.08,0-1.9-0.25-2.48-0.75
			c-0.57-0.51-0.86-1.33-0.86-2.46v-6.4h-1.36v-1.96h1.36v-2.87h2.42v2.87h2.81v1.96H639.95z M650.54,1302.54
			c0.88,0,1.67,0.19,2.35,0.57c0.7,0.38,1.25,0.94,1.64,1.68c0.41,0.74,0.61,1.64,0.61,2.69v6.82h-2.37v-6.46
			c0-1.04-0.26-1.83-0.78-2.38c-0.52-0.56-1.22-0.84-2.12-0.84s-1.61,0.28-2.14,0.84c-0.52,0.55-0.78,1.34-0.78,2.38v6.46h-2.39
			v-15.54h2.39v5.32c0.41-0.49,0.92-0.87,1.53-1.14C649.11,1302.68,649.79,1302.54,650.54,1302.54z M668.37,1308.23
			c0,0.44-0.03,0.83-0.08,1.18h-8.84c0.07,0.92,0.41,1.67,1.03,2.23c0.62,0.56,1.37,0.84,2.27,0.84c1.29,0,2.2-0.54,2.73-1.62h2.58
			c-0.35,1.06-0.99,1.94-1.91,2.62c-0.91,0.68-2.04,1.01-3.4,1.01c-1.11,0-2.1-0.24-2.98-0.73c-0.87-0.51-1.55-1.21-2.06-2.1
			c-0.49-0.91-0.73-1.96-0.73-3.15c0-1.19,0.24-2.24,0.71-3.13c0.49-0.91,1.17-1.61,2.04-2.1c0.88-0.49,1.89-0.74,3.02-0.74
			c1.09,0,2.07,0.24,2.92,0.72c0.85,0.47,1.52,1.15,1.99,2.01S668.37,1307.11,668.37,1308.23z M665.88,1307.48
			c-0.01-0.88-0.33-1.59-0.95-2.12c-0.62-0.53-1.38-0.8-2.29-0.8c-0.83,0-1.53,0.27-2.12,0.8c-0.59,0.52-0.94,1.22-1.05,2.12H665.88
			z M685.95,1308.23c0,0.44-0.03,0.83-0.08,1.18h-8.84c0.07,0.92,0.41,1.67,1.03,2.23c0.62,0.56,1.37,0.84,2.27,0.84
			c1.29,0,2.2-0.54,2.73-1.62h2.58c-0.35,1.06-0.99,1.94-1.91,2.62c-0.91,0.68-2.04,1.01-3.4,1.01c-1.11,0-2.1-0.24-2.98-0.73
			c-0.87-0.51-1.55-1.21-2.06-2.1c-0.49-0.91-0.73-1.96-0.73-3.15c0-1.19,0.24-2.24,0.71-3.13c0.49-0.91,1.17-1.61,2.04-2.1
			c0.88-0.49,1.89-0.74,3.02-0.74c1.09,0,2.07,0.24,2.92,0.72c0.85,0.47,1.52,1.15,1.99,2.01
			C685.71,1306.13,685.95,1307.11,685.95,1308.23z M683.45,1307.48c-0.01-0.88-0.33-1.59-0.95-2.12c-0.62-0.53-1.38-0.8-2.29-0.8
			c-0.83,0-1.53,0.27-2.12,0.8c-0.59,0.52-0.94,1.22-1.05,2.12H683.45z M701.89,1302.54c0.91,0,1.72,0.19,2.44,0.57
			c0.73,0.38,1.29,0.94,1.7,1.68c0.42,0.74,0.63,1.64,0.63,2.69v6.82h-2.37v-6.46c0-1.04-0.26-1.83-0.78-2.38
			c-0.52-0.56-1.22-0.84-2.12-0.84s-1.61,0.28-2.14,0.84c-0.52,0.55-0.78,1.34-0.78,2.38v6.46h-2.37v-6.46
			c0-1.04-0.26-1.83-0.78-2.38c-0.52-0.56-1.22-0.84-2.12-0.84s-1.61,0.28-2.14,0.84c-0.52,0.55-0.78,1.34-0.78,2.38v6.46h-2.39
			v-11.57h2.39v1.33c0.39-0.48,0.89-0.85,1.49-1.12c0.6-0.26,1.25-0.4,1.93-0.4c0.92,0,1.75,0.2,2.48,0.59
			c0.73,0.39,1.29,0.96,1.68,1.7c0.35-0.7,0.9-1.25,1.64-1.66C700.24,1302.75,701.04,1302.54,701.89,1302.54z M708.49,1308.47
			c0-1.17,0.24-2.2,0.71-3.09c0.49-0.9,1.15-1.59,1.97-2.08c0.84-0.5,1.76-0.76,2.77-0.76c0.91,0,1.7,0.19,2.37,0.55
			c0.69,0.35,1.23,0.79,1.64,1.32v-1.68h2.41v11.57h-2.41v-1.72c-0.41,0.55-0.96,1-1.66,1.37c-0.7,0.36-1.5,0.54-2.39,0.54
			c-0.99,0-1.9-0.25-2.73-0.75c-0.83-0.52-1.48-1.24-1.97-2.15C708.73,1310.67,708.49,1309.63,708.49,1308.47z M717.96,1308.51
			c0-0.8-0.17-1.49-0.5-2.08c-0.32-0.59-0.75-1.04-1.28-1.35c-0.53-0.3-1.11-0.46-1.72-0.46c-0.62,0-1.19,0.16-1.72,0.46
			c-0.53,0.3-0.97,0.74-1.3,1.33c-0.32,0.57-0.48,1.26-0.48,2.06c0,0.79,0.16,1.49,0.48,2.1c0.34,0.6,0.77,1.06,1.3,1.38
			c0.55,0.31,1.12,0.46,1.72,0.46c0.62,0,1.19-0.15,1.72-0.46c0.53-0.31,0.96-0.75,1.28-1.34
			C717.79,1310.01,717.96,1309.31,717.96,1308.51z M724.32,1301.2c-0.43,0-0.8-0.15-1.09-0.44c-0.29-0.3-0.44-0.66-0.44-1.09
			c0-0.44,0.15-0.8,0.44-1.1c0.29-0.29,0.66-0.44,1.09-0.44c0.42,0,0.78,0.15,1.07,0.44c0.29,0.3,0.44,0.66,0.44,1.1
			c0,0.43-0.15,0.79-0.44,1.09C725.09,1301.05,724.74,1301.2,724.32,1301.2z M725.49,1302.73v11.57h-2.39v-11.57H725.49z
			 M730.61,1298.76v15.54h-2.39v-15.54H730.61z M737.57,1308.51c0-1.19,0.24-2.24,0.71-3.13c0.49-0.91,1.16-1.61,2.02-2.1
			s1.83-0.74,2.94-0.74c1.4,0,2.55,0.34,3.47,1.01c0.92,0.66,1.55,1.6,1.87,2.84h-2.58c-0.21-0.58-0.55-1.03-1.01-1.35
			c-0.46-0.32-1.04-0.48-1.74-0.48c-0.98,0-1.76,0.35-2.35,1.05c-0.57,0.69-0.86,1.65-0.86,2.9c0,1.24,0.29,2.22,0.86,2.92
			c0.59,0.7,1.37,1.05,2.35,1.05c1.39,0,2.3-0.61,2.75-1.83h2.58c-0.34,1.18-0.97,2.11-1.89,2.81c-0.92,0.69-2.07,1.03-3.44,1.03
			c-1.11,0-2.09-0.24-2.94-0.73c-0.85-0.51-1.53-1.21-2.02-2.1C737.81,1310.75,737.57,1309.7,737.57,1308.51z M755.56,1314.49
			c-1.09,0-2.08-0.24-2.96-0.73c-0.88-0.51-1.58-1.21-2.08-2.1c-0.5-0.91-0.76-1.96-0.76-3.15c0-1.18,0.26-2.22,0.78-3.13
			s1.22-1.61,2.12-2.1s1.9-0.74,3-0.74c1.11,0,2.11,0.25,3,0.74s1.6,1.19,2.12,2.1s0.78,1.95,0.78,3.13c0,1.17-0.27,2.22-0.8,3.13
			s-1.26,1.61-2.18,2.12C757.67,1314.25,756.66,1314.49,755.56,1314.49z M755.56,1312.41c0.62,0,1.19-0.14,1.72-0.44
			c0.55-0.29,0.99-0.73,1.32-1.32s0.5-1.3,0.5-2.14s-0.16-1.55-0.48-2.12c-0.32-0.59-0.75-1.03-1.28-1.33
			c-0.53-0.29-1.11-0.44-1.72-0.44c-0.62,0-1.19,0.15-1.72,0.44c-0.52,0.3-0.93,0.74-1.24,1.33c-0.31,0.57-0.46,1.28-0.46,2.12
			c0,1.24,0.32,2.21,0.95,2.9C753.79,1312.08,754.59,1312.41,755.56,1312.41z M777.52,1302.54c0.91,0,1.72,0.19,2.44,0.57
			c0.73,0.38,1.29,0.94,1.7,1.68c0.42,0.74,0.63,1.64,0.63,2.69v6.82h-2.37v-6.46c0-1.04-0.26-1.83-0.78-2.38
			c-0.52-0.56-1.23-0.84-2.12-0.84s-1.61,0.28-2.14,0.84c-0.52,0.55-0.78,1.34-0.78,2.38v6.46h-2.37v-6.46
			c0-1.04-0.26-1.83-0.78-2.38c-0.52-0.56-1.23-0.84-2.12-0.84s-1.61,0.28-2.14,0.84c-0.52,0.55-0.78,1.34-0.78,2.38v6.46h-2.39
			v-11.57h2.39v1.33c0.39-0.48,0.89-0.85,1.49-1.12c0.6-0.26,1.25-0.4,1.93-0.4c0.92,0,1.75,0.2,2.48,0.59
			c0.73,0.39,1.29,0.96,1.68,1.7c0.35-0.7,0.9-1.25,1.64-1.66C775.87,1302.75,776.66,1302.54,777.52,1302.54z M787.31,1304.43
			c0.41-0.53,0.96-0.98,1.66-1.34s1.49-0.55,2.37-0.55c1.01,0,1.92,0.26,2.75,0.76c0.84,0.49,1.5,1.18,1.97,2.08
			c0.48,0.89,0.71,1.92,0.71,3.09c0,1.16-0.24,2.2-0.71,3.12c-0.48,0.91-1.13,1.63-1.97,2.15c-0.83,0.5-1.74,0.75-2.75,0.75
			c-0.88,0-1.67-0.17-2.35-0.52c-0.69-0.37-1.25-0.81-1.68-1.35v7.19h-2.39v-17.08h2.39V1304.43z M794.34,1308.47
			c0-0.8-0.17-1.49-0.5-2.06c-0.32-0.59-0.76-1.03-1.3-1.33c-0.53-0.3-1.11-0.46-1.72-0.46c-0.6,0-1.18,0.16-1.72,0.46
			c-0.53,0.31-0.97,0.76-1.3,1.35c-0.32,0.59-0.48,1.28-0.48,2.08s0.16,1.5,0.48,2.1c0.34,0.59,0.77,1.03,1.3,1.34
			c0.55,0.31,1.12,0.46,1.72,0.46c0.62,0,1.19-0.15,1.72-0.46c0.55-0.32,0.98-0.78,1.3-1.38
			C794.17,1309.96,794.34,1309.26,794.34,1308.47z M801.12,1298.76v15.54h-2.39v-15.54H801.12z M805.06,1301.2
			c-0.43,0-0.8-0.15-1.09-0.44c-0.29-0.3-0.44-0.66-0.44-1.09c0-0.44,0.15-0.8,0.44-1.1c0.29-0.29,0.66-0.44,1.09-0.44
			c0.42,0,0.78,0.15,1.07,0.44c0.29,0.3,0.44,0.66,0.44,1.1c0,0.43-0.15,0.79-0.44,1.09C805.84,1301.05,805.48,1301.2,805.06,1301.2
			z M806.24,1302.73v11.57h-2.39v-11.57H806.24z M808.16,1308.47c0-1.17,0.24-2.2,0.71-3.09c0.49-0.9,1.15-1.59,1.97-2.08
			c0.84-0.5,1.76-0.76,2.77-0.76c0.91,0,1.7,0.19,2.37,0.55c0.69,0.35,1.23,0.79,1.64,1.32v-1.68h2.41v11.57h-2.41v-1.72
			c-0.41,0.55-0.96,1-1.66,1.37c-0.7,0.36-1.5,0.54-2.39,0.54c-0.99,0-1.9-0.25-2.73-0.75c-0.83-0.52-1.48-1.24-1.97-2.15
			C808.4,1310.67,808.16,1309.63,808.16,1308.47z M817.63,1308.51c0-0.8-0.17-1.49-0.5-2.08c-0.32-0.59-0.75-1.04-1.28-1.35
			c-0.53-0.3-1.11-0.46-1.72-0.46c-0.62,0-1.19,0.16-1.72,0.46c-0.53,0.3-0.97,0.74-1.3,1.33c-0.32,0.57-0.48,1.26-0.48,2.06
			c0,0.79,0.16,1.49,0.48,2.1c0.34,0.6,0.77,1.06,1.3,1.38c0.55,0.31,1.12,0.46,1.72,0.46c0.62,0,1.19-0.15,1.72-0.46
			c0.53-0.31,0.96-0.75,1.28-1.34C817.46,1310.01,817.63,1309.31,817.63,1308.51z M828.61,1302.54c0.91,0,1.72,0.19,2.44,0.57
			c0.73,0.38,1.29,0.94,1.7,1.68s0.61,1.64,0.61,2.69v6.82h-2.37v-6.46c0-1.04-0.26-1.83-0.78-2.38c-0.52-0.56-1.22-0.84-2.12-0.84
			s-1.61,0.28-2.14,0.84c-0.52,0.55-0.78,1.34-0.78,2.38v6.46h-2.39v-11.57h2.39v1.33c0.39-0.48,0.89-0.85,1.49-1.12
			C827.27,1302.68,827.92,1302.54,828.61,1302.54z M838.78,1304.69v6.4c0,0.43,0.1,0.75,0.29,0.95c0.21,0.18,0.56,0.27,1.05,0.27
			h1.47v1.99h-1.89c-1.08,0-1.9-0.25-2.48-0.75c-0.57-0.51-0.86-1.33-0.86-2.46v-6.4H835v-1.96h1.36v-2.87h2.42v2.87h2.81v1.96
			H838.78z M863.96,1302.73l-3.59,11.57h-2.52l-2.33-8.54l-2.33,8.54h-2.52l-3.61-11.57h2.44l2.42,9.31l2.46-9.31h2.5l2.35,9.26
			l2.39-9.26H863.96z M866.54,1301.2c-0.43,0-0.8-0.15-1.09-0.44c-0.29-0.3-0.44-0.66-0.44-1.09c0-0.44,0.15-0.8,0.44-1.1
			c0.29-0.29,0.66-0.44,1.09-0.44c0.42,0,0.78,0.15,1.07,0.44c0.29,0.3,0.44,0.66,0.44,1.1c0,0.43-0.15,0.79-0.44,1.09
			C867.32,1301.05,866.96,1301.2,866.54,1301.2z M867.72,1302.73v11.57h-2.39v-11.57H867.72z M873.24,1304.69v6.4
			c0,0.43,0.1,0.75,0.29,0.95c0.21,0.18,0.56,0.27,1.05,0.27h1.47v1.99h-1.89c-1.08,0-1.9-0.25-2.48-0.75
			c-0.57-0.51-0.86-1.33-0.86-2.46v-6.4h-1.36v-1.96h1.36v-2.87h2.41v2.87h2.81v1.96H873.24z M883.82,1302.54
			c0.88,0,1.67,0.19,2.35,0.57c0.7,0.38,1.25,0.94,1.64,1.68c0.41,0.74,0.61,1.64,0.61,2.69v6.82h-2.37v-6.46
			c0-1.04-0.26-1.83-0.78-2.38c-0.52-0.56-1.23-0.84-2.12-0.84s-1.61,0.28-2.14,0.84c-0.52,0.55-0.78,1.34-0.78,2.38v6.46h-2.39
			v-15.54h2.39v5.32c0.41-0.49,0.92-0.87,1.53-1.14C882.39,1302.68,883.08,1302.54,883.82,1302.54z M906.51,1302.73l-7.1,17.01
			h-2.48l2.35-5.63l-4.56-11.38h2.67l3.26,8.82l3.38-8.82H906.51z M912.91,1314.49c-1.09,0-2.08-0.24-2.96-0.73
			c-0.88-0.51-1.58-1.21-2.08-2.1c-0.5-0.91-0.76-1.96-0.76-3.15c0-1.18,0.26-2.22,0.78-3.13s1.23-1.61,2.12-2.1s1.9-0.74,3-0.74
			s2.11,0.25,3,0.74s1.6,1.19,2.12,2.1c0.52,0.91,0.78,1.95,0.78,3.13c0,1.17-0.27,2.22-0.8,3.13c-0.53,0.91-1.26,1.61-2.18,2.12
			C915.03,1314.25,914.02,1314.49,912.91,1314.49z M912.91,1312.41c0.62,0,1.19-0.14,1.72-0.44c0.55-0.29,0.99-0.73,1.32-1.32
			s0.5-1.3,0.5-2.14s-0.16-1.55-0.48-2.12c-0.32-0.59-0.75-1.03-1.28-1.33c-0.53-0.29-1.11-0.44-1.72-0.44
			c-0.62,0-1.19,0.15-1.72,0.44c-0.52,0.3-0.93,0.74-1.24,1.33c-0.31,0.57-0.46,1.28-0.46,2.12c0,1.24,0.32,2.21,0.95,2.9
			C911.14,1312.08,911.95,1312.41,912.91,1312.41z M931.34,1302.73v11.57h-2.39v-1.36c-0.38,0.47-0.88,0.85-1.49,1.13
			c-0.6,0.27-1.25,0.4-1.93,0.4c-0.91,0-1.73-0.19-2.46-0.57c-0.71-0.37-1.28-0.93-1.7-1.68c-0.41-0.74-0.61-1.63-0.61-2.68v-6.81
			h2.37v6.45c0,1.04,0.26,1.83,0.78,2.39c0.52,0.55,1.23,0.82,2.12,0.82s1.6-0.27,2.12-0.82c0.53-0.56,0.8-1.35,0.8-2.39v-6.45
			H931.34z M936.48,1304.41c0.35-0.59,0.81-1.04,1.39-1.36c0.59-0.34,1.28-0.51,2.08-0.51v2.48h-0.61c-0.94,0-1.65,0.24-2.14,0.72
			c-0.48,0.47-0.71,1.3-0.71,2.47v6.09h-2.39v-11.57h2.39V1304.41z M951.52,1299.71c1.55,0,2.91,0.3,4.07,0.9
			c1.18,0.59,2.08,1.44,2.71,2.56c0.64,1.11,0.97,2.4,0.97,3.89c0,1.48-0.32,2.77-0.97,3.86c-0.63,1.09-1.53,1.93-2.71,2.52
			c-1.16,0.58-2.52,0.86-4.07,0.86h-4.77v-14.59H951.52z M951.52,1312.35c1.71,0,3.02-0.46,3.93-1.39c0.91-0.92,1.36-2.22,1.36-3.9
			c0-1.7-0.46-3.02-1.36-3.97c-0.91-0.95-2.22-1.43-3.93-1.43h-2.37v10.69H951.52z M976.6,1299.71v14.59h-2.39v-9.99l-4.45,9.99
			h-1.66l-4.47-9.99v9.99h-2.39v-14.59h2.58l5.12,11.44l5.1-11.44H976.6z M988.12,1311.32h-6.11l-1.05,2.98h-2.5l5.23-14.61h2.77
			l5.23,14.61h-2.52L988.12,1311.32z M987.45,1309.37l-2.37-6.78l-2.39,6.78H987.45z M1001.12,1314.3l-3.36-5.83h-1.83v5.83h-2.39
			v-14.59h5.04c1.12,0,2.07,0.19,2.84,0.59c0.78,0.39,1.36,0.91,1.74,1.57c0.39,0.66,0.59,1.39,0.59,2.21c0,0.95-0.28,1.82-0.84,2.6
			c-0.55,0.77-1.4,1.3-2.54,1.58l3.61,6.04H1001.12z M995.94,1306.55h2.65c0.9,0,1.57-0.22,2.02-0.67c0.46-0.45,0.69-1.05,0.69-1.8
			c0-0.76-0.22-1.35-0.67-1.77c-0.45-0.43-1.13-0.65-2.04-0.65h-2.65V1306.55z M1005.59,1306.97c0-1.42,0.33-2.7,0.99-3.84
			c0.67-1.13,1.57-2.01,2.71-2.64c1.15-0.65,2.4-0.97,3.76-0.97c1.55,0,2.93,0.38,4.13,1.15c1.22,0.76,2.1,1.84,2.65,3.24h-2.88
			c-0.38-0.77-0.9-1.35-1.57-1.72c-0.67-0.38-1.45-0.57-2.33-0.57c-0.97,0-1.83,0.22-2.59,0.65c-0.75,0.43-1.35,1.06-1.78,1.87
			c-0.42,0.81-0.63,1.76-0.63,2.83c0,1.08,0.21,2.03,0.63,2.84c0.43,0.81,1.03,1.44,1.78,1.89c0.76,0.43,1.62,0.65,2.59,0.65
			c0.88,0,1.66-0.19,2.33-0.57c0.67-0.37,1.19-0.95,1.57-1.72h2.88c-0.55,1.4-1.43,2.48-2.65,3.24c-1.2,0.75-2.58,1.13-4.13,1.13
			c-1.38,0-2.63-0.32-3.76-0.95c-1.14-0.64-2.04-1.53-2.71-2.66C1005.92,1309.68,1005.59,1308.4,1005.59,1306.97z M1025.22,1299.71
			l-0.28,10.18h-1.99l-0.28-10.18H1025.22z M1024.02,1314.45c-0.44,0-0.8-0.15-1.09-0.44c-0.3-0.29-0.44-0.66-0.44-1.09
			c0-0.44,0.14-0.8,0.44-1.09c0.29-0.3,0.65-0.45,1.09-0.45c0.42,0,0.78,0.15,1.07,0.45c0.29,0.29,0.44,0.65,0.44,1.09
			c0,0.43-0.15,0.8-0.44,1.09S1024.44,1314.45,1024.02,1314.45z"/>
	</g>
</g>
</svg>