<svg width="26" height="20" viewBox="0 0 26 20" fill="none" xmlns="http://www.w3.org/2000/svg">
<path fill-rule="evenodd" clip-rule="evenodd" d="M19.0674 1.45693C19.7559 1.61309 20.4121 1.88791 21.0063 2.26817L21.7415 1.53299C21.8642 1.4113 22.0579 1.3971 22.1958 1.50054C22.7515 1.91733 23.2453 2.40914 23.6641 2.96382C23.7696 3.10174 23.7564 3.29642 23.6317 3.41812L22.8985 4.15331H22.8995C23.2788 4.74756 23.5536 5.40263 23.7108 6.08914H24.7461C24.9206 6.08813 25.0676 6.21692 25.0899 6.38929C25.1873 7.0819 25.1873 7.78464 25.0899 8.47725C25.0717 8.65268 24.9226 8.78654 24.7461 8.78553H23.6996C23.5425 9.47305 23.2677 10.1292 22.8884 10.7244L23.6216 11.4596C23.7483 11.5783 23.7676 11.774 23.6642 11.9139C23.2433 12.4726 22.7464 12.9695 22.1877 13.3904C22.0498 13.4958 21.8551 13.4827 21.7334 13.3579L20.9982 12.6227C20.4039 13.004 19.7479 13.2778 19.0593 13.434V14.4724C19.0613 14.6458 18.9335 14.7928 18.7622 14.8162L18.6517 14.8324L18.6506 11.117C19.8401 10.8138 20.8096 9.95284 21.2497 8.80697C21.6909 7.66208 21.5489 6.37322 20.8695 5.35118C20.1901 4.33002 19.0563 3.70028 17.8293 3.66378C16.6023 3.62728 15.4341 4.18804 14.6949 5.16764V5.12708C14.6909 3.77332 13.8958 2.5463 12.6617 1.9906C12.8483 1.81719 13.043 1.65493 13.2458 1.50081C13.3837 1.39738 13.5774 1.41157 13.7001 1.53326L14.4353 2.26845C15.0296 1.88819 15.6856 1.61337 16.3742 1.4572V0.416774C16.3722 0.243369 16.5 0.0963245 16.6713 0.0730124C17.3649 -0.0243375 18.0687 -0.0243375 18.7623 0.0730124C18.9357 0.0932936 19.0676 0.241347 19.0676 0.416774V1.45821L19.0674 1.45693ZM7.81246 11.5468H9.99471C10.2066 11.5468 10.379 11.7182 10.379 11.9301V14.1124C10.3801 14.2148 10.3395 14.3131 10.2675 14.3862C10.1955 14.4582 10.0971 14.4997 9.99471 14.4997H7.81246C7.60458 14.4916 7.43929 14.3213 7.43929 14.1124V11.9301C7.44132 11.7192 7.61168 11.5478 7.82363 11.5468H7.81246ZM0.992777 6.05677C0.444165 6.0588 1.56399e-05 6.50398 1.56399e-05 7.05257V10.6189C-0.00302661 11.2233 0.43809 11.7375 1.03639 11.8247L6.59052 12.6714V11.9301C6.59154 11.2557 7.13812 10.7092 7.81246 10.7082H9.99471C10.3202 10.7072 10.6325 10.8349 10.8638 11.0641C11.095 11.2933 11.2248 11.6046 11.2258 11.9301V12.6714L16.7799 11.8247C17.3772 11.7375 17.8193 11.2233 17.8153 10.6189V7.05257C17.8153 6.78791 17.7108 6.5354 17.5242 6.34882C17.3377 6.16225 17.0841 6.05677 16.8205 6.05677H13.8463V5.12689C13.8402 3.69301 12.6781 2.53291 11.2443 2.52777H6.5554C5.12153 2.53082 3.96042 3.69293 3.95733 5.12689V6.0649L0.992777 6.05677ZM4.79461 6.05677H13.0156V5.12689C13.0116 4.15541 12.2236 3.36953 11.2522 3.36649H6.55496C5.58349 3.3675 4.79659 4.15544 4.79456 5.12689V6.0649L4.79461 6.05677ZM17.8102 12.276V12.277C17.5435 12.4748 17.2321 12.6046 16.9046 12.6553L11.2259 13.5101V14.1054V14.1044C11.2259 14.7807 10.6772 15.3294 10.0009 15.3294H7.81251C7.13714 15.3283 6.59058 14.7797 6.59058 14.1044V13.5101L0.911834 12.6472C0.582272 12.5985 0.270934 12.4687 0.00323468 12.2709V18.9941C0.000192435 19.2587 0.103627 19.5133 0.28921 19.7029C0.474782 19.8915 0.728297 19.998 0.992958 20H16.8153C17.3649 20 17.8101 19.5538 17.8101 19.0042L17.8102 12.276Z" fill="#EB5454"/>
</svg>
