<svg width="50" height="50" viewBox="0 0 50 50" fill="none" xmlns="http://www.w3.org/2000/svg">
<path d="M24.9948 5C16.5729 8.29687 7 9.30208 7 9.30208V22.4687C7 35.7083 18.224 42.6406 24.9948 45C31.7656 42.6406 42.9896 35.7083 42.9896 22.4687V9.30208C42.9896 9.30208 33.4167 8.29687 24.9948 5ZM38.1667 23.0208C38.1667 32.7031 29.9635 37.6979 24.9948 39.4219C20.026 37.6979 11.8229 32.7031 11.8229 23.0208V13.1979C11.8229 13.1979 18.8333 12.7969 24.9948 10.3854C31.1562 12.7969 38.1667 13.1979 38.1667 13.1979V23.0208Z" fill="#eb5454"/>
<path d="M24.9944 23.349C24.6704 23.3406 24.3533 23.4435 24.096 23.6407C23.8387 23.8378 23.6569 24.1172 23.5807 24.4322C23.5045 24.7472 23.5387 25.0789 23.6775 25.3718C23.8163 25.6647 24.0513 25.9011 24.3433 26.0417L23.8746 28.125H26.036L25.5725 26.0417C25.8589 25.9038 26.0906 25.6737 26.2304 25.3882C26.3702 25.1027 26.4099 24.7785 26.3432 24.4678C26.2765 24.157 26.1072 23.8777 25.8625 23.6748C25.6179 23.4718 25.3121 23.3571 24.9944 23.349Z" fill="#eb5454"/>
<path d="M24.9941 18.4323C24.4669 18.435 23.9622 18.6464 23.5903 19.0202C23.2185 19.394 23.0098 19.8998 23.0098 20.4271V21.3542H26.9837V20.4271C26.9837 19.8989 26.7743 19.3923 26.4013 19.0184C26.0283 18.6444 25.5223 18.4337 24.9941 18.4323Z" fill="#eb5454"/>
<path d="M24.9954 12.4167C21.3311 13.7441 17.502 14.5625 13.6152 14.8489V23.4375C13.6152 31.8021 20.6986 36.0781 24.9954 37.5677C29.2923 36.0885 36.3756 31.8125 36.3756 23.4375V14.8489C32.4889 14.5625 28.6598 13.7441 24.9954 12.4167ZM30.1517 28.0781C30.1517 28.6188 29.9384 29.1376 29.558 29.5218C29.1777 29.9061 28.6611 30.1247 28.1204 30.1302H21.8704C21.5983 30.1343 21.3281 30.0843 21.0755 29.9831C20.823 29.8818 20.593 29.7313 20.3992 29.5403C20.2053 29.3494 20.0513 29.1217 19.9462 28.8707C19.8412 28.6197 19.7871 28.3502 19.7871 28.0781V23.3906C19.7863 22.9213 19.9468 22.4661 20.2417 22.101C20.5366 21.736 20.948 21.4833 21.4069 21.3854V20.4271C21.3885 19.944 21.4678 19.4621 21.6399 19.0104C21.8121 18.5586 22.0737 18.1463 22.409 17.798C22.7443 17.4497 23.1464 17.1726 23.5912 16.9833C24.0361 16.7941 24.5146 16.6965 24.998 16.6965C25.4815 16.6965 25.96 16.7941 26.4049 16.9833C26.8497 17.1726 27.2518 17.4497 27.5871 17.798C27.9224 18.1463 28.184 18.5586 28.3561 19.0104C28.5283 19.4621 28.6076 19.944 28.5892 20.4271V21.3906C29.0358 21.4994 29.4328 21.7553 29.7162 22.1172C29.9997 22.479 30.1531 22.9258 30.1517 23.3854V28.0781Z" fill="#eb5454"/>
</svg>
