<svg width="34" height="18" viewBox="0 0 34 18" fill="none" xmlns="http://www.w3.org/2000/svg">
<path d="M11.4683 10.8073C11.4683 10.5199 11.3554 10.2344 11.1325 10.0173C10.9246 9.8144 10.6522 9.7041 10.3641 9.7041C10.3524 9.7041 10.3416 9.70502 10.3298 9.70502C10.0284 9.71423 9.75114 9.84203 9.54802 10.0642L7.84839 11.9267C7.44496 12.3693 7.46499 13.0433 7.89445 13.461C8.11067 13.6714 8.39552 13.7817 8.69693 13.7735C8.99766 13.7642 9.2756 13.6364 9.47871 13.4142L9.87133 12.9841L11.1776 11.5518C11.3722 11.3383 11.4683 11.0728 11.4683 10.8073Z" fill="#EB5454"/>
<path d="M13.2261 13.1163C13.5927 12.702 13.5701 12.0782 13.1718 11.6906C12.9772 11.5011 12.7225 11.3984 12.4519 11.3984H12.4202C12.1378 11.4067 11.8772 11.5272 11.6869 11.7351L11.5626 11.8721L10.2404 13.3212C9.86203 13.7364 9.88114 14.3678 10.2839 14.7594C10.4861 14.9566 10.7525 15.0609 11.0355 15.0517C11.3178 15.0434 11.5785 14.9239 11.7687 14.715L11.8072 14.6733L13.2254 13.1174L13.2261 13.1163Z" fill="#EB5454"/>
<path d="M15.482 14.1785C15.482 13.8988 15.3726 13.6206 15.1554 13.4094C14.9533 13.2123 14.6894 13.1055 14.4087 13.1055H14.3753C14.0831 13.1147 13.8123 13.2383 13.6151 13.4555L12.1962 15.0105C11.8036 15.4407 11.8229 16.0962 12.2404 16.5022C12.4509 16.7069 12.7281 16.8154 13.0206 16.8062C13.3137 16.797 13.5836 16.6733 13.7814 16.4562L14.1162 16.0896L15.2028 14.8977C15.3901 14.692 15.482 14.4348 15.482 14.1785Z" fill="#EB5454"/>
<path d="M17.0907 14.9999L17.0865 14.9957C16.9104 14.8263 16.6806 14.7344 16.4367 14.7344H16.4075C16.1512 14.742 15.9147 14.8514 15.7418 15.0409L15.5615 15.238L14.4773 16.4264C14.4757 16.4289 14.4732 16.4305 14.4716 16.4331C14.1333 16.8105 14.1534 17.3793 14.5167 17.7334C14.7005 17.9121 14.9418 18.0082 15.1999 17.9989C15.4565 17.9913 15.6927 17.8829 15.8657 17.6931L16.3257 17.1886C16.3273 17.1861 16.3299 17.1845 16.3315 17.1819L17.1298 16.3067C17.4741 15.9292 17.4564 15.3556 17.0907 14.9999Z" fill="#EB5454"/>
<path d="M18.4435 16.0917L18.4378 16.0859L17.8798 15.6357C17.889 15.9931 17.7638 16.3549 17.5024 16.642L16.8945 17.3084L17.4658 17.7061C17.8884 18.0009 18.473 17.8965 18.7687 17.4747C18.8806 17.316 18.9391 17.1297 18.9391 16.9361C18.9391 16.7157 18.8606 16.5009 18.7194 16.333L18.4435 16.0917Z" fill="#EB5454"/>
<path d="M4.48404 0L0 7.76658L2.87054 9.42453L3.30737 8.66856L7.35459 1.65831L4.48404 0Z" fill="#EB5454"/>
<path d="M25.2051 11.302L25.2042 11.3011C23.3084 9.24407 20.9764 7.53018 18.2723 6.20659C17.7252 5.93763 17.0906 5.85589 16.4843 5.97517L11.5106 6.95313C11.4388 6.9681 11.3628 6.9757 11.2868 6.9757C10.8166 6.9757 10.3966 6.69431 10.2161 6.25817C9.97635 5.67351 10.2412 5.0154 10.8182 4.75979L15.5378 2.66939C14.7109 2.4131 13.835 2.37373 12.9772 2.55656L10.181 3.15548C9.96798 3.20062 9.75176 3.22318 9.53531 3.22318C9.06925 3.22318 8.60503 3.11887 8.18313 2.91508L7.41726 2.54503L3.85938 8.70701L7.91833 11.1074L9.17767 9.72689C9.47334 9.4029 9.87746 9.21754 10.3152 9.20418C10.7546 9.19151 11.1679 9.35293 11.482 9.65758C11.8511 10.0168 12.0123 10.5052 11.9614 10.9773C12.1035 10.9296 12.2529 10.9029 12.4065 10.8978C12.8266 10.8861 13.2226 11.0399 13.5231 11.3321C13.8931 11.692 14.0442 12.189 13.9724 12.6608C14.0919 12.6283 14.2162 12.609 14.3431 12.6058C14.7723 12.5931 15.1792 12.751 15.4873 13.0499C15.8398 13.3933 15.9992 13.8575 15.96 14.3112C16.0945 14.2651 16.2366 14.2393 16.3835 14.2352C16.7743 14.2227 17.1427 14.3655 17.4241 14.6352L18.7387 15.6983L18.7571 15.7133L18.9559 15.8736C18.96 15.877 18.9642 15.8802 18.9683 15.8844C19.0017 15.9161 19.0344 15.9486 19.0643 15.9829L19.258 16.1533C19.6665 16.5326 20.3053 16.5149 20.6887 16.1199C21.0778 15.7174 21.0679 15.0734 20.6677 14.6826C20.6668 14.6817 20.6652 14.68 20.6643 14.6794L18.9188 12.9896C18.8194 12.8927 18.8168 12.734 18.9131 12.6348C19.0091 12.5353 19.1678 12.533 19.2672 12.6297L21.0136 14.3192C21.0212 14.3268 21.0279 14.3335 21.0346 14.3409L21.28 14.578C21.4972 14.7876 21.782 14.8953 22.0828 14.8838C22.3842 14.8714 22.6591 14.7401 22.8578 14.5138C23.2403 14.0779 23.2145 13.423 22.8009 13.017C22.7993 13.0145 22.7975 13.0129 22.7952 13.0103L21.0463 11.3224C20.9461 11.2264 20.9436 11.0677 21.0396 10.9683C21.1356 10.8688 21.2943 10.8663 21.3938 10.9625L23.1436 12.6504L23.1512 12.658L23.2974 12.7992C23.7769 13.2611 24.5252 13.2595 25.0012 12.795C25.4037 12.4033 25.4882 11.7911 25.2066 11.305L25.2051 11.302Z" fill="#EB5454"/>
<path d="M24.0911 3.24666C23.4739 3.55914 22.7688 3.62177 22.1059 3.42374L19.1895 2.55099C18.3651 2.30552 17.479 2.36148 16.694 2.70896L16.3341 2.86853C16.3242 2.8736 16.3141 2.87844 16.3033 2.88281L11.0358 5.21638C10.7084 5.36076 10.5589 5.73426 10.6943 6.06584C10.7961 6.31223 11.0351 6.4725 11.3016 6.4725C11.3442 6.4725 11.3868 6.46835 11.4268 6.46006L16.4021 5.48121C17.1152 5.34097 17.8629 5.43769 18.5077 5.75431C21.2136 7.07973 23.5573 8.78949 25.4743 10.838L29.2319 8.82934L25.5745 2.49759L24.0911 3.24666Z" fill="#EB5454"/>
<path d="M28.5277 0L25.6562 1.65772L25.8676 2.02431L25.8861 2.05609L29.7806 8.80048C29.7831 8.80394 29.7857 8.80716 29.7873 8.81131C29.7882 8.81292 29.7889 8.81545 29.7898 8.81706L30.1405 9.4243L33.0111 7.76658L28.5277 0Z" fill="#EB5454"/>
</svg>
