<svg width="40" height="40" viewBox="0 0 40 40" fill="none" xmlns="http://www.w3.org/2000/svg">
<path d="M22.872 17.1277C25.119 17.1277 26.9826 15.4601 27.2942 13.2972H22.872C22.5196 13.2972 22.2342 13.0119 22.2342 12.6595V8.2373C20.0715 8.5475 18.4038 10.4124 18.4038 12.6595C18.4038 15.1237 20.4077 17.1274 22.8717 17.1274L22.872 17.1277Z" fill="white"/>
<path d="M8.19063 14.875L5.41748 17.1494L8.19063 19.0837V14.875Z" fill="white"/>
<path d="M19.5977 22.4406C19.8322 22.2495 20.1685 22.2495 20.403 22.4406L23.4479 24.9135L30.5328 19.9739L30.5316 13.5267V5H9.46826V19.9726L16.5532 24.9122L19.5977 22.4406ZM22.8723 6.91467C26.04 6.91467 28.6171 9.49177 28.6171 12.6595C28.6171 15.8272 26.04 18.4043 22.8723 18.4043C19.7046 18.4043 17.1274 15.8272 17.1274 12.6595C17.1274 9.49177 19.7046 6.91467 22.8723 6.91467ZM15.213 17.1274H12.0217C11.6693 17.1274 11.3839 16.842 11.3839 16.4897C11.3839 16.1373 11.6693 15.8519 12.0217 15.8519H15.213C15.5654 15.8519 15.8508 16.1373 15.8508 16.4897C15.8508 16.842 15.5654 17.1274 15.213 17.1274ZM15.213 14.5739H12.0217C11.6693 14.5739 11.3839 14.2885 11.3839 13.9361C11.3839 13.5837 11.6693 13.2984 12.0217 13.2984H15.213C15.5654 13.2984 15.8508 13.5837 15.8508 13.9361C15.8508 14.2885 15.5654 14.5739 15.213 14.5739ZM15.213 12.0216H12.0217C11.6693 12.0216 11.3839 11.7362 11.3839 11.3838C11.3839 11.0315 11.6693 10.7461 12.0217 10.7461H15.213C15.5654 10.7461 15.8508 11.0315 15.8508 11.3838C15.8508 11.735 15.5654 12.0216 15.213 12.0216ZM15.213 9.46805H12.0217C11.6693 9.46805 11.3839 9.18267 11.3839 8.83029C11.3839 8.4779 11.6693 8.19253 12.0217 8.19253H15.213C15.5654 8.19253 15.8508 8.47791 15.8508 8.83029C15.8508 9.18268 15.5654 9.46805 15.213 9.46805Z" fill="white"/>
<path d="M31.8081 14.875V19.0837L34.5813 17.1494L31.8081 14.875Z" fill="white"/>
<path d="M23.5103 8.23828V12.0214H27.2946C27.013 10.0672 25.4645 8.51876 23.5103 8.23828Z" fill="white"/>
<path d="M22.9257 26.1349L19.9999 23.7588L17.0766 26.1324C17.0258 26.1932 16.9637 26.2416 16.898 26.2776L6.16016 35.0003H33.8396L23.1005 26.2776C23.036 26.2416 22.9765 26.1944 22.9257 26.1349Z" fill="white"/>
<path d="M24.4775 25.7509L34.9994 34.2973V18.4141L24.4775 25.7509Z" fill="white"/>
<path d="M5 18.4141V34.2973L15.5218 25.7509L5 18.4141Z" fill="white"/>
</svg>
