<svg width="652" height="622" viewBox="0 0 652 622" fill="none" xmlns="http://www.w3.org/2000/svg">
<path opacity="0.025" d="M44.2232 548.602L46.8327 553.426L47.5578 552.957C62.1091 576.225 82.9686 594.895 107.723 606.806C132.477 618.718 160.114 623.384 187.436 620.266C214.758 617.147 240.649 606.371 262.112 589.185C283.575 571.998 299.734 549.103 308.719 523.149C317.703 497.195 319.147 469.243 312.882 442.526C306.616 415.81 292.899 391.421 273.316 372.182C253.734 352.943 229.086 339.641 202.226 333.813C175.366 327.986 147.391 329.871 121.537 339.253C114.751 341.712 108.614 345.105 102.474 348.395C102.02 340.591 101.584 332.643 102.72 324.949C102.799 314.341 105.277 304.272 107.703 294.153C109.004 283.686 114.778 274.827 117.88 265.149C121.333 255.585 127.899 247.675 132.29 239.18C136.46 230.455 143.794 224.19 148.92 217.248C154.516 210.651 159.045 203.961 164.847 199.453L178.805 186.768L191.061 175.559L154.995 122.031L138.414 132.987C133.13 136.551 126.657 140.821 119.331 145.778C111.635 150.285 104.348 157.632 95.9261 164.979C87.8539 172.816 77.6711 179.771 69.7846 190.495C61.7162 200.908 51.639 210.812 44.2023 223.537C37.1994 236.414 27.6263 248.849 22.6407 263.778C16.5388 278.286 10.7569 293.297 7.76841 309.081C3.34271 324.699 2.21751 340.495 0.702512 356.261C-0.20384 371.806 0.12562 387.246 1.16409 401.983C3.65858 431.374 9.655 457.984 16.2977 480.204C23.1644 502.377 30.3427 520.281 36.3747 532.933C38.7877 538.255 41.4058 543.482 44.2232 548.602ZM378.937 427.275L381.547 432.1L382.272 431.631C396.823 454.899 417.683 473.568 442.437 485.48C467.191 497.391 494.828 502.058 522.15 498.939C549.472 495.821 575.363 485.045 596.826 467.858C618.29 450.672 634.448 427.777 643.433 401.823C652.418 375.869 653.861 347.916 647.596 321.2C641.331 294.483 627.613 270.095 608.031 250.856C588.448 231.617 563.801 218.314 536.94 212.487C510.08 206.659 482.105 208.545 456.251 217.926C449.466 220.386 443.328 223.778 437.188 227.069C436.734 219.264 436.298 211.316 437.434 203.623C437.513 193.015 439.991 182.946 442.417 172.827C443.718 162.36 449.492 153.5 452.594 143.823C456.047 134.259 462.613 126.349 467.004 117.853C471.174 109.129 478.508 102.864 483.635 95.9217C489.23 89.3251 493.759 82.6342 499.562 78.1267L513.52 65.442C521.325 58.3878 525.766 54.3048 525.766 54.3048L489.701 0.776381L473.12 11.7328C467.836 15.2967 461.363 19.5668 454.036 24.5237C446.341 29.0307 439.054 36.3775 430.632 43.724C422.56 51.5618 412.377 58.5159 404.49 69.2403C396.422 79.6529 386.345 89.557 378.908 102.282C371.905 115.16 362.332 127.595 357.346 142.523C351.245 157.031 345.463 172.042 342.474 187.826C338.048 203.445 336.923 219.241 335.408 235.006C334.502 250.551 334.831 265.991 335.87 280.728C338.364 310.119 344.361 336.729 351.003 358.949C357.87 381.122 365.048 399.026 371.08 411.678C373.512 416.969 376.133 422.172 378.937 427.275Z" fill="url(#paint0_linear_122_7022)"/>
<defs>
<linearGradient id="paint0_linear_122_7022" x1="387.073" y1="552.136" x2="222.323" y2="97.6262" gradientUnits="userSpaceOnUse">
<stop stop-color="#2C45C4"/>
<stop offset="1" stop-color="#2C45C4"/>
</linearGradient>
</defs>
</svg>
