<svg width="99" height="50" viewBox="0 0 99 50" fill="none" xmlns="http://www.w3.org/2000/svg">
<g opacity="0.2">
<path d="M40.4612 50.0003L129.158 41.9033H32.7734L40.4612 50.0003Z" fill="#797979"/>
<path d="M100.434 27.5307C100.381 28.7923 100.57 30.0522 100.989 31.2353C101.409 32.4183 102.05 33.5003 102.875 34.4165C103.7 35.3328 104.692 36.0646 105.792 36.5683C106.891 37.072 108.076 37.3373 109.275 37.3483C111.3 37.2736 113.279 36.6832 115.041 35.6277L111.197 30.1622C110.607 30.6057 109.904 30.8525 109.179 30.8707C108.783 30.8589 108.393 30.7613 108.035 30.5839C107.676 30.4066 107.356 30.1533 107.095 29.8399C106.833 29.5265 106.636 29.1597 106.515 28.7624C106.394 28.3651 106.352 27.9458 106.392 27.5307V15.6888H111.485V9.10999H106.392V2.22754H100.434V9.10999H97.2627V15.6888H100.434V27.5307Z" fill="#797979"/>
<path d="M84.1853 37.3477C86.0049 37.3029 87.7736 36.7054 89.2784 35.6271V36.6392H95.2364V9.10938H89.2784V25.3034C89.3204 26.0084 89.2247 26.7151 88.9974 27.3797C88.7701 28.0443 88.4159 28.6528 87.9567 29.1677C87.4975 29.6826 86.943 30.093 86.3274 30.3735C85.7118 30.654 85.0482 30.7987 84.3775 30.7987C83.7068 30.7987 83.0432 30.654 82.4276 30.3735C81.812 30.093 81.2575 29.6826 80.7983 29.1677C80.3391 28.6528 79.9849 28.0443 79.7576 27.3797C79.5303 26.7151 79.4346 26.0084 79.4766 25.3034V9.10938H73.5186V25.3034C73.5186 31.9834 77.8429 37.3477 84.1853 37.3477Z" fill="#797979"/>
<path d="M57.0932 25.4044L65.9341 36.7402H74.1984L62.3785 22.0643L72.5647 9.10913H64.3004L57.0932 18.7243V0H51.0391V36.7402H57.0932V25.4044Z" fill="#797979"/>
<path d="M41.7162 35.4271V36.6416H47.6742V9.11181H41.7162V10.3264C40.0925 9.09231 38.1448 8.4203 36.1426 8.40332C29.4158 8.40332 24.2266 14.8809 24.2266 22.8767C24.2266 30.8725 29.3197 37.3501 36.1426 37.3501C38.1472 37.3489 40.0994 36.6753 41.7162 35.4271ZM30.2807 22.9779C30.2807 18.6258 32.6831 15.1846 36.0465 15.1846C39.4098 15.1846 41.7162 18.6258 41.7162 22.9779C41.7162 27.3301 39.4098 30.7713 36.0465 30.7713C32.6831 30.7713 30.2807 27.3301 30.2807 22.9779Z" fill="#797979"/>
<path d="M22.3026 14.0694C22.3001 10.9296 21.1147 7.9191 19.0067 5.6989C16.8987 3.4787 14.0404 2.23022 11.0593 2.22754H0.873047V36.6398H7.11934V26.0125H11.4437L19.0353 36.6398H26.8192L17.5939 23.7858C19.0661 22.6878 20.2636 21.2303 21.0837 19.538C21.9038 17.8457 22.322 15.9693 22.3026 14.0694ZM11.1554 19.5349H7.11934V8.80636H11.1554C12.5062 8.80636 13.8016 9.37152 14.7568 10.3775C15.7119 11.3835 16.2485 12.7479 16.2485 14.1706C16.2485 15.5933 15.7119 16.9577 14.7568 17.9637C13.8016 18.9697 12.5062 19.5349 11.1554 19.5349Z" fill="#797979"/>
</g>
</svg>
