<svg width="83" height="70" viewBox="0 0 83 70" fill="none" xmlns="http://www.w3.org/2000/svg">
<rect x="0.5" y="0.5" width="82" height="69" rx="5.5" fill="#F7F9FA" stroke="#EFEFEF"/>
<path fill-rule="evenodd" clip-rule="evenodd" d="M41.9474 27.5318C42.1311 27.5317 42.3108 27.5861 42.4636 27.6882C42.6164 27.7902 42.7355 27.9352 42.8058 28.105C42.8762 28.2747 42.8946 28.4615 42.8588 28.6417C42.823 28.822 42.7345 28.9875 42.6046 29.1174C42.4747 29.2473 42.3091 29.3358 42.1289 29.3716C41.9487 29.4075 41.7619 29.389 41.5921 29.3187C41.4224 29.2483 41.2773 29.1292 41.1753 28.9764C41.0733 28.8236 41.0189 28.644 41.0189 28.4602C41.0192 28.214 41.1171 27.978 41.2911 27.804C41.4652 27.6299 41.7012 27.532 41.9474 27.5318ZM41.3158 30.5587V32.0804C41.3158 32.2479 41.3823 32.4086 41.5008 32.527C41.6192 32.6455 41.7799 32.712 41.9474 32.712C42.1149 32.712 42.2755 32.6455 42.394 32.527C42.5124 32.4086 42.5789 32.2479 42.5789 32.0804V30.5587C43.082 30.4072 43.5138 30.0798 43.7955 29.6363C44.0772 29.1929 44.19 28.6629 44.1135 28.1431C44.0369 27.6234 43.7759 27.1485 43.3783 26.8051C42.9806 26.4618 42.4727 26.2729 41.9474 26.2729C41.422 26.2729 40.9141 26.4618 40.5165 26.8051C40.1188 27.1485 39.8579 27.6234 39.7813 28.1431C39.7047 28.6629 39.8176 29.1929 40.0993 29.6363C40.381 30.0798 40.8127 30.4072 41.3158 30.5587ZM42.5789 44.7305C42.5789 44.563 42.5124 44.4024 42.394 44.2839C42.2755 44.1655 42.1149 44.0989 41.9474 44.0989C41.8225 44.0989 41.7003 44.136 41.5965 44.2054C41.4926 44.2748 41.4117 44.3734 41.3639 44.4888C41.3161 44.6042 41.3036 44.7312 41.3279 44.8537C41.3523 44.9763 41.4124 45.0888 41.5008 45.1771C41.5891 45.2654 41.7016 45.3256 41.8242 45.35C41.9467 45.3743 42.0737 45.3618 42.1891 45.314C42.3045 45.2662 42.4031 45.1853 42.4725 45.0814C42.5419 44.9775 42.5789 44.8554 42.5789 44.7305ZM59.9474 46.2413H23.9474C23.6961 46.241 23.4552 46.1411 23.2776 45.9634C23.0999 45.7857 23.0001 45.5447 23 45.2935V43.2185H60.8947V45.2935C60.8945 45.5447 60.7946 45.7856 60.617 45.9633C60.4394 46.141 60.1986 46.2409 59.9474 46.2413ZM43.4185 49.952H40.4758V47.5044H43.4185V49.952ZM47.4493 52.1309V52.8147H36.4446V52.1309C36.4449 51.8886 36.5412 51.6563 36.7124 51.4848C36.8837 51.3134 37.116 51.2169 37.3583 51.2164H46.5368C46.7792 51.2168 47.0115 51.3132 47.1828 51.4847C47.3541 51.6562 47.4504 51.8886 47.4505 52.1309H47.4493ZM23.9474 19.6859H37.0299C36.9506 20.0428 36.9106 20.4074 36.9107 20.7731V22.8135H35.9238C35.4493 22.8141 34.9945 23.0029 34.659 23.3385C34.3236 23.674 34.1349 24.1289 34.1343 24.6034V30.0198H33.4973C33.4407 29.6834 33.2668 29.3779 33.0064 29.1575C32.7461 28.937 32.4161 28.8159 32.0749 28.8156H30.2029C29.8619 28.8161 29.532 28.9373 29.2716 29.1577C29.0113 29.3781 28.8374 29.6835 28.7806 30.0198H28.3537C28.297 29.6834 28.123 29.3779 27.8626 29.1574C27.6022 28.937 27.2721 28.8159 26.9309 28.8156H25.0598C24.7185 28.816 24.3884 28.9371 24.1279 29.1575C23.8673 29.3779 23.6932 29.6833 23.6362 30.0198H23V20.6337C23.0001 20.3824 23.0999 20.1415 23.2776 19.9638C23.4552 19.7861 23.6961 19.6861 23.9474 19.6859ZM41.9474 17C42.9478 17.0009 43.907 17.3987 44.6145 18.1061C45.3219 18.8134 45.7198 19.7726 45.7208 20.7731V22.8135H38.1731V20.7731C38.1743 19.7725 38.5724 18.8134 39.28 18.106C39.9875 17.3987 40.9468 17.0009 41.9474 17ZM56.7823 31.0438V30.2598C56.7829 30.2119 56.8022 30.1661 56.8361 30.1322C56.87 30.0984 56.9159 30.0792 56.9638 30.0787H58.8349C58.8827 30.0795 58.9283 30.0988 58.9621 30.1326C58.9959 30.1664 59.0152 30.212 59.016 30.2598V31.0438C59.0152 31.0916 58.9959 31.1372 58.9621 31.171C58.9283 31.2048 58.8827 31.2241 58.8349 31.2248H56.9638C56.9159 31.2244 56.87 31.2052 56.8361 31.1714C56.8022 31.1375 56.7829 31.0917 56.7823 31.0438ZM51.6375 31.0438V30.2598C51.6383 30.2118 51.6579 30.1661 51.6919 30.1323C51.726 30.0985 51.7718 30.0793 51.8198 30.0787H53.6914C53.7392 30.0794 53.7849 30.0987 53.8188 30.1325C53.8527 30.1663 53.8721 30.2119 53.8728 30.2598V31.0438C53.872 31.0916 53.8526 31.1372 53.8187 31.171C53.7848 31.2048 53.7392 31.2241 53.6914 31.2248H51.8198C51.7718 31.2243 51.726 31.2051 51.6919 31.1713C51.6579 31.1375 51.6383 31.0918 51.6375 31.0438ZM47.9684 24.0766H35.9238C35.7843 24.0771 35.6507 24.1327 35.5521 24.2315C35.4536 24.3302 35.3981 24.4639 35.3979 24.6034V34.1297C35.3981 34.2691 35.4536 34.4028 35.5521 34.5014C35.6507 34.6001 35.7843 34.6557 35.9238 34.656H47.9684C48.1081 34.656 48.242 34.6006 48.3409 34.5019C48.4397 34.4032 48.4954 34.2693 48.4956 34.1297V24.6034C48.4952 24.4637 48.4396 24.3299 48.3408 24.2311C48.242 24.1324 48.1081 24.0769 47.9684 24.0766ZM30.0223 31.0438V30.2598C30.023 30.212 30.0422 30.1664 30.0759 30.1326C30.1096 30.0988 30.1552 30.0795 30.2029 30.0787H32.0749C32.1228 30.0795 32.1685 30.0988 32.2024 30.1326C32.2364 30.1663 32.2559 30.2119 32.2568 30.2598V31.0438C32.2558 31.0916 32.2362 31.1372 32.2023 31.1709C32.1684 31.2047 32.1228 31.224 32.0749 31.2248H30.2029C30.1552 31.2241 30.1096 31.2047 30.0759 31.1709C30.0422 31.1371 30.023 31.0915 30.0223 31.0438ZM24.8775 31.0438V30.2598C24.8783 30.2118 24.8979 30.1661 24.9319 30.1323C24.966 30.0985 25.0118 30.0793 25.0598 30.0787H26.9309C26.9788 30.0793 27.0245 30.0985 27.0584 30.1324C27.0922 30.1662 27.1115 30.2119 27.112 30.2598V31.0438C27.1113 31.0916 27.0921 31.1373 27.0582 31.1711C27.0244 31.2049 26.9788 31.2242 26.9309 31.2248H25.0598C25.0119 31.2242 24.966 31.205 24.932 31.1712C24.898 31.1374 24.8785 31.0917 24.8775 31.0438ZM23.6362 31.2834C23.6932 31.6199 23.8673 31.9254 24.1278 32.1459C24.3884 32.3663 24.7185 32.4875 25.0598 32.488H26.9309C27.2722 32.4876 27.6022 32.3664 27.8626 32.1459C28.123 31.9254 28.297 31.6198 28.3537 31.2834H28.7806C28.8374 31.6197 29.0113 31.9252 29.2716 32.1456C29.5319 32.3661 29.8618 32.4874 30.2029 32.488H32.0749C32.4161 32.4876 32.7461 32.3663 33.0065 32.1458C33.2668 31.9254 33.4407 31.6198 33.4973 31.2834H34.1343V34.1297C34.1349 34.6041 34.3236 35.059 34.659 35.3946C34.9945 35.7301 35.4493 35.9189 35.9238 35.9196H47.9684C48.443 35.9191 48.8981 35.7304 49.2337 35.3949C49.5694 35.0593 49.7582 34.6043 49.7587 34.1297V31.2834H50.3949C50.452 31.6198 50.6261 31.9253 50.8867 32.1458C51.1472 32.3662 51.4773 32.4874 51.8185 32.488H53.6901C54.0312 32.4875 54.3611 32.3662 54.6213 32.1457C54.8816 31.9252 55.0554 31.6197 55.112 31.2834H55.5389C55.596 31.6198 55.7701 31.9253 56.0307 32.1458C56.2912 32.3662 56.6213 32.4874 56.9625 32.488H58.8337C59.1749 32.4874 59.5048 32.3661 59.7652 32.1457C60.0256 31.9252 60.1996 31.6198 60.2564 31.2834H60.8947V41.9549H23V31.2834H23.6362ZM59.9474 19.6859C60.1986 19.6862 60.4394 19.7862 60.617 19.9639C60.7946 20.1416 60.8945 20.3825 60.8947 20.6337V30.0198H60.2577C60.2008 29.6834 60.0268 29.378 59.7664 29.1576C59.506 28.9372 59.1761 28.8161 58.8349 28.8156H56.9638C56.6226 28.816 56.2925 28.9372 56.032 29.1576C55.7714 29.3779 55.5972 29.6834 55.5402 30.0198H55.1133C55.0567 29.6835 54.8828 29.378 54.6226 29.1576C54.3623 28.9372 54.0324 28.816 53.6914 28.8156H51.8198C51.4786 28.816 51.1485 28.9372 50.888 29.1576C50.6274 29.3779 50.4532 29.6834 50.3962 30.0198H49.76V24.6034C49.7594 24.1285 49.5705 23.6733 49.2345 23.3377C48.8986 23.0021 48.4433 22.8136 47.9684 22.8135H46.9836V20.7731C46.9837 20.4074 46.9437 20.0428 46.8644 19.6859H59.9474Z" fill="#EB5454"/>
</svg>
