<svg width="213" height="37" viewBox="0 0 213 37" fill="none" xmlns="http://www.w3.org/2000/svg">
<path d="M18.8149 31.0899L9.69465 36.584C9.29175 36.8404 8.87053 36.9503 8.431 36.9137C7.99147 36.8771 7.60687 36.7306 7.27723 36.4742C6.94758 36.2178 6.69118 35.8976 6.50804 35.5138C6.32491 35.1285 6.28828 34.6977 6.39816 34.2216L8.81559 23.8376L0.739183 16.86C0.372906 16.5304 0.144349 16.1546 0.0535124 15.7326C-0.0387894 15.3122 -0.011685 14.9005 0.134826 14.4976C0.281337 14.0946 0.501103 13.765 0.794124 13.5086C1.08715 13.2522 1.49005 13.0874 2.00284 13.0141L12.6615 12.0801L16.7821 2.30053C16.9653 1.861 17.2495 1.53135 17.6348 1.31158C18.0187 1.09182 18.412 0.981934 18.8149 0.981934C19.2179 0.981934 19.612 1.09182 19.9973 1.31158C20.3811 1.53135 20.6646 1.861 20.8478 2.30053L24.9684 12.0801L35.6271 13.0141C36.1398 13.0874 36.5428 13.2522 36.8358 13.5086C37.1288 13.765 37.3486 14.0946 37.4951 14.4976C37.6416 14.9005 37.6694 15.3122 37.5786 15.7326C37.4863 16.1546 37.257 16.5304 36.8907 16.86L28.8143 23.8376L31.2317 34.2216C31.3416 34.6977 31.305 35.1285 31.1219 35.5138C30.9387 35.8976 30.6823 36.2178 30.3527 36.4742C30.023 36.7306 29.6384 36.8771 29.1989 36.9137C28.7594 36.9503 28.3381 36.8404 27.9352 36.584L18.8149 31.0899Z" fill="#FFA800"/>
<path d="M62.4354 31.0899L53.3151 36.584C52.9122 36.8404 52.491 36.9503 52.0515 36.9137C51.6119 36.8771 51.2274 36.7306 50.8977 36.4742C50.5681 36.2178 50.3117 35.8976 50.1285 35.5138C49.9454 35.1285 49.9088 34.6977 50.0186 34.2216L52.4361 23.8376L44.3597 16.86C43.9934 16.5304 43.7648 16.1546 43.674 15.7326C43.5817 15.3122 43.6088 14.9005 43.7553 14.4976C43.9018 14.0946 44.1216 13.765 44.4146 13.5086C44.7076 13.2522 45.1105 13.0874 45.6233 13.0141L56.282 12.0801L60.4026 2.30053C60.5857 1.861 60.87 1.53135 61.2553 1.31158C61.6391 1.09182 62.0325 0.981934 62.4354 0.981934C62.8383 0.981934 63.2325 1.09182 63.6178 1.31158C64.0016 1.53135 64.2851 1.861 64.4683 2.30053L68.5889 12.0801L79.2475 13.0141C79.7603 13.0874 80.1632 13.2522 80.4563 13.5086C80.7493 13.765 80.969 14.0946 81.1156 14.4976C81.2621 14.9005 81.2899 15.3122 81.1991 15.7326C81.1068 16.1546 80.8775 16.5304 80.5112 16.86L72.4348 23.8376L74.8522 34.2216C74.9621 34.6977 74.9255 35.1285 74.7423 35.5138C74.5592 35.8976 74.3028 36.2178 73.9732 36.4742C73.6435 36.7306 73.2589 36.8771 72.8194 36.9137C72.3799 36.9503 71.9586 36.8404 71.5557 36.584L62.4354 31.0899Z" fill="#FFA800"/>
<path d="M106.056 31.0899L96.9356 36.584C96.5327 36.8404 96.1115 36.9503 95.672 36.9137C95.2324 36.8771 94.8478 36.7306 94.5182 36.4742C94.1885 36.2178 93.9321 35.8976 93.749 35.5138C93.5659 35.1285 93.5292 34.6977 93.6391 34.2216L96.0566 23.8376L87.9801 16.86C87.6139 16.5304 87.3853 16.1546 87.2945 15.7326C87.2022 15.3122 87.2293 14.9005 87.3758 14.4976C87.5223 14.0946 87.7421 13.765 88.0351 13.5086C88.3281 13.2522 88.731 13.0874 89.2438 13.0141L99.9025 12.0801L104.023 2.30053C104.206 1.861 104.49 1.53135 104.876 1.31158C105.26 1.09182 105.653 0.981934 106.056 0.981934C106.459 0.981934 106.853 1.09182 107.238 1.31158C107.622 1.53135 107.906 1.861 108.089 2.30053L112.209 12.0801L122.868 13.0141C123.381 13.0874 123.784 13.2522 124.077 13.5086C124.37 13.765 124.59 14.0946 124.736 14.4976C124.883 14.9005 124.91 15.3122 124.82 15.7326C124.727 16.1546 124.498 16.5304 124.132 16.86L116.055 23.8376L118.473 34.2216C118.583 34.6977 118.546 35.1285 118.363 35.5138C118.18 35.8976 117.923 36.2178 117.594 36.4742C117.264 36.7306 116.879 36.8771 116.44 36.9137C116 36.9503 115.579 36.8404 115.176 36.584L106.056 31.0899Z" fill="#FFA800"/>
<path d="M149.676 31.0899L140.556 36.584C140.153 36.8404 139.732 36.9503 139.292 36.9137C138.853 36.8771 138.468 36.7306 138.139 36.4742C137.809 36.2178 137.553 35.8976 137.369 35.5138C137.186 35.1285 137.15 34.6977 137.26 34.2216L139.677 23.8376L131.601 16.86C131.234 16.5304 131.006 16.1546 130.915 15.7326C130.823 15.3122 130.85 14.9005 130.996 14.4976C131.143 14.0946 131.363 13.765 131.656 13.5086C131.949 13.2522 132.352 13.0874 132.864 13.0141L143.523 12.0801L147.644 2.30053C147.827 1.861 148.111 1.53135 148.496 1.31158C148.88 1.09182 149.273 0.981934 149.676 0.981934C150.079 0.981934 150.473 1.09182 150.859 1.31158C151.243 1.53135 151.526 1.861 151.709 2.30053L155.83 12.0801L166.489 13.0141C167.001 13.0874 167.404 13.2522 167.697 13.5086C167.99 13.765 168.21 14.0946 168.357 14.4976C168.503 14.9005 168.531 15.3122 168.44 15.7326C168.348 16.1546 168.118 16.5304 167.752 16.86L159.676 23.8376L162.093 34.2216C162.203 34.6977 162.166 35.1285 161.983 35.5138C161.8 35.8976 161.544 36.2178 161.214 36.4742C160.884 36.7306 160.5 36.8771 160.06 36.9137C159.621 36.9503 159.2 36.8404 158.797 36.584L149.676 31.0899Z" fill="#FFA800"/>
<path d="M193.297 31.0899L184.177 36.584C183.774 36.8404 183.352 36.9503 182.913 36.9137C182.473 36.8771 182.089 36.7306 181.759 36.4742C181.43 36.2178 181.173 35.8976 180.99 35.5138C180.807 35.1285 180.77 34.6977 180.88 34.2216L183.298 23.8376L175.221 16.86C174.855 16.5304 174.626 16.1546 174.535 15.7326C174.443 15.3122 174.47 14.9005 174.617 14.4976C174.763 14.0946 174.983 13.765 175.276 13.5086C175.569 13.2522 175.972 13.0874 176.485 13.0141L187.143 12.0801L191.264 2.30053C191.447 1.861 191.731 1.53135 192.117 1.31158C192.501 1.09182 192.894 0.981934 193.297 0.981934C193.7 0.981934 194.094 1.09182 194.479 1.31158C194.863 1.53135 195.147 1.861 195.33 2.30053L199.45 12.0801L210.109 13.0141C210.622 13.0874 211.025 13.2522 211.318 13.5086C211.611 13.765 211.83 14.0946 211.977 14.4976C212.124 14.9005 212.151 15.3122 212.061 15.7326C211.968 16.1546 211.739 16.5304 211.373 16.86L203.296 23.8376L205.714 34.2216C205.824 34.6977 205.787 35.1285 205.604 35.5138C205.421 35.8976 205.164 36.2178 204.835 36.4742C204.505 36.7306 204.12 36.8771 203.681 36.9137C203.241 36.9503 202.82 36.8404 202.417 36.584L193.297 31.0899Z" fill="#C8C7C7"/>
</svg>
