<svg width="40" height="40" viewBox="0 0 40 40" fill="none" xmlns="http://www.w3.org/2000/svg">
<path d="M24.4025 20.5128L24.9011 20.5861L24.5405 20.9381C24.3364 21.1379 24.2445 21.4238 24.2919 21.7054L24.3795 22.2039L23.9313 21.9697C23.6798 21.8347 23.3781 21.8347 23.1267 21.9697L22.6899 22.1996L22.7746 21.7011C22.8221 21.4209 22.7287 21.1335 22.5246 20.9353L22.164 20.5832L22.6626 20.51C22.9442 20.4683 23.187 20.2916 23.3149 20.0387L23.5376 19.5861L23.7603 20.0387H23.7588C23.8838 20.2916 24.1238 20.4683 24.4025 20.5128ZM17.6251 20.0416L17.3995 19.589L17.1768 20.0416C17.049 20.2959 16.8062 20.4726 16.5246 20.5128L16.026 20.5861L16.3866 20.9381C16.5906 21.1379 16.684 21.4238 16.6366 21.7054L16.559 22.1996L17.003 21.9654H17.0044C17.1222 21.9022 17.253 21.8677 17.3866 21.8663C17.5274 21.8663 17.6654 21.9008 17.7889 21.9654L18.2372 22.1996L18.1496 21.7011C18.1022 21.4209 18.1956 21.1335 18.3982 20.9353L18.7588 20.5833L18.2602 20.51C17.9858 20.4654 17.7487 20.2916 17.6251 20.0416ZM30.2689 20.0416L30.0461 19.589L29.8234 20.0416C29.697 20.2959 29.4542 20.4726 29.1726 20.5128L28.674 20.5861L29.0346 20.9381C29.2387 21.1379 29.3321 21.4238 29.2832 21.7054L29.2028 22.1996L29.6467 21.9654H29.6481C29.8996 21.8318 30.2013 21.8318 30.4527 21.9654L30.901 22.1996L30.8134 21.7011H30.812C30.7645 21.4209 30.8579 21.1335 31.062 20.9353L31.4226 20.5833L30.924 20.51C30.641 20.4712 30.3938 20.2973 30.2645 20.0416H30.2689ZM8.86922 24.138H12.4784V10.5703H8.86922V24.138ZM35.7817 9.39512V25.3106C35.7817 26.6324 34.7098 27.7057 33.3866 27.7057H7.39512C6.07182 27.7057 5 26.6324 5 25.3106V9.39512C5.00144 8.07326 6.07329 7.00143 7.39512 7H33.3866C34.7084 7.00144 35.7803 8.07329 35.7817 9.39512ZM15.4094 11.954C15.4094 12.0805 15.4597 12.2026 15.5502 12.2931C15.6393 12.3822 15.7614 12.4325 15.8893 12.4325H19.9467C20.211 12.4325 20.4251 12.2184 20.4251 11.954C20.4251 11.6896 20.211 11.4756 19.9467 11.4756H15.8779C15.6178 11.4813 15.4094 11.694 15.4094 11.954ZM15.4094 13.8693C15.4094 13.9971 15.4597 14.1193 15.5502 14.2083C15.6393 14.2989 15.7614 14.3491 15.8893 14.3491H31.8231C32.0875 14.3491 32.303 14.1336 32.303 13.8692C32.303 13.6049 32.0875 13.3908 31.8231 13.3908H15.8775C15.6174 13.3965 15.4094 13.6092 15.4094 13.8693ZM15.4094 16.1681C15.4094 16.296 15.4597 16.4181 15.5502 16.5072C15.6393 16.5977 15.7614 16.648 15.8893 16.648H31.8231C32.0875 16.648 32.303 16.4325 32.303 16.1681C32.303 15.9037 32.0875 15.6897 31.8231 15.6897H15.8775C15.6174 15.6954 15.4094 15.908 15.4094 16.1681ZM13.4367 10.0918C13.4381 9.96389 13.3878 9.84176 13.2973 9.75268C13.2068 9.66217 13.0847 9.61188 12.9582 9.61331H8.39066C8.12629 9.61331 7.9122 9.82739 7.9122 10.0918V24.6162C7.9122 24.744 7.96249 24.8662 8.05157 24.9552C8.14209 25.0458 8.26421 25.096 8.39065 25.096H12.9582C13.0847 25.096 13.2068 25.0458 13.2973 24.9567C13.3878 24.8662 13.4381 24.744 13.4367 24.6162L13.4367 10.0918ZM19.7973 20.2527C19.6968 19.9395 19.4252 19.711 19.0991 19.6665L18.4755 19.5702L18.1882 18.9912V18.9927C18.0402 18.7053 17.7442 18.5257 17.4209 18.5257C17.0991 18.5257 16.8031 18.7053 16.6551 18.9927L16.3678 19.5717L15.7284 19.6679V19.6665C15.3907 19.6967 15.102 19.9222 14.9913 20.2426C14.8821 20.5631 14.9698 20.9179 15.2183 21.1492L15.6824 21.6047L15.5747 22.2441V22.2455C15.5157 22.5688 15.6494 22.8964 15.9152 23.0875C16.181 23.2815 16.533 23.3073 16.8232 23.1536L17.398 22.8504L17.9727 23.1536C18.2672 23.3231 18.6336 23.303 18.908 23.1033C19.181 22.9036 19.3132 22.5616 19.2414 22.2297L19.1336 21.5904L19.579 21.1493C19.8189 20.918 19.9051 20.5688 19.7973 20.2527ZM25.9267 20.2527C25.8275 19.9395 25.556 19.711 25.2299 19.6665L24.6049 19.5702L24.3175 18.9912V18.9927C24.1695 18.7053 23.875 18.5257 23.5517 18.5257C23.2284 18.5257 22.9339 18.7053 22.7859 18.9927L22.4986 19.5717L21.8549 19.6679V19.6665C21.5187 19.701 21.2356 19.9266 21.1264 20.2455C21.0172 20.5645 21.1049 20.9179 21.3491 21.1492L21.8132 21.6047L21.7054 22.2441V22.2455C21.6465 22.5688 21.7787 22.8964 22.0445 23.0904C22.3118 23.2829 22.6638 23.3073 22.954 23.1536L23.5287 22.8504L24.1034 23.1536C24.398 23.3001 24.7514 23.2657 25.0115 23.0645C25.2788 22.8734 25.4109 22.5458 25.352 22.2225L25.2443 21.5832L25.7083 21.1492C25.9497 20.9179 26.0344 20.5688 25.9267 20.2527ZM32.4411 20.2527C32.3405 19.9395 32.0689 19.711 31.7428 19.6665L31.1192 19.5702L30.8319 18.9912V18.9927C30.6839 18.7053 30.3879 18.5257 30.0647 18.5257C29.7428 18.5257 29.4468 18.7053 29.2989 18.9927L29.0115 19.5717L28.3678 19.6679V19.6665C28.033 19.701 27.7486 19.9266 27.6394 20.2455C27.5316 20.5645 27.6178 20.9179 27.8621 21.1492L28.3261 21.6047L28.2184 22.2441V22.2455C28.1609 22.5688 28.2931 22.8964 28.5589 23.0904C28.8247 23.2829 29.1767 23.3073 29.467 23.1536L30.0417 22.8504L30.6164 23.1536C30.9109 23.3001 31.2644 23.2657 31.5245 23.0645C31.7917 22.8734 31.9239 22.5458 31.8664 22.2225L31.7587 21.5832L32.2227 21.1492C32.4627 20.9179 32.5488 20.5688 32.4411 20.2527ZM28.9928 32.0417H24.092V28.6623H16.6896V32.0417H11.5788C11.3145 32.0417 11.0989 32.2572 11.0989 32.5215C11.0989 32.7859 11.3145 33 11.5788 33H28.9928C29.2571 33 29.4712 32.7859 29.4712 32.5215C29.4712 32.2572 29.2572 32.0417 28.9928 32.0417Z" fill="white"/>
</svg>
