<svg width="70" height="70" viewBox="0 0 70 70" fill="none" xmlns="http://www.w3.org/2000/svg">
<circle cx="35" cy="35" r="35" fill="#EB5454"/>
<path d="M42.3959 27.7015L42.0894 27.0801L41.7825 27.7015C41.744 27.7794 41.6872 27.8468 41.6169 27.8978C41.5467 27.9489 41.465 27.9821 41.3791 27.9945L40.6934 28.0942L41.1894 28.5763C41.2517 28.6369 41.2982 28.7117 41.3251 28.7943C41.352 28.8769 41.3584 28.9648 41.3437 29.0504L41.2264 29.734L41.8403 29.4126C41.9172 29.3721 42.0028 29.351 42.0897 29.351C42.1766 29.351 42.2622 29.3721 42.3391 29.4126L42.9519 29.734L42.8351 29.0542C42.8204 28.9686 42.8267 28.8807 42.8535 28.7982C42.8803 28.7156 42.9268 28.6407 42.9889 28.5801L43.4855 28.0979L42.7992 27.9983C42.7129 27.9854 42.631 27.9517 42.5607 27.8999C42.4904 27.8482 42.4338 27.7801 42.3959 27.7015Z" fill="white"/>
<path d="M43.034 38.2148V40.3577H46.784V34.4648H36.6055V35.6327C36.9478 35.5075 37.3228 35.5041 37.6672 35.6231C38.0117 35.7422 38.3046 35.9764 38.4965 36.2863C38.7357 36.1469 39.0073 36.073 39.284 36.072C39.555 36.0718 39.8216 36.1406 40.0587 36.2718C40.2957 36.403 40.4956 36.5923 40.6394 36.822C40.8785 36.6826 41.1501 36.6087 41.4269 36.6077C41.8527 36.609 42.2608 36.7787 42.5619 37.0798C42.863 37.3809 43.0327 37.789 43.034 38.2148Z" fill="white"/>
<path d="M49.9998 43.0351V24.2852H20V43.0351C20 43.1771 20.0564 43.3134 20.1569 43.4139C20.2574 43.5143 20.3936 43.5708 20.5357 43.5708H31.8339L30.4089 41.4279H22.6786C22.5365 41.4279 22.4002 41.3715 22.2998 41.271C22.1993 41.1706 22.1428 41.0343 22.1428 40.8922V33.928C22.1428 33.7859 22.1993 33.6496 22.2998 33.5492C22.4002 33.4487 22.5365 33.3923 22.6786 33.3923H33.3928C33.3928 32.966 33.5621 32.5572 33.8635 32.2558C34.1649 31.9544 34.5737 31.7851 34.9999 31.7851C35.4262 31.7851 35.8349 31.9544 36.1363 32.2558C36.4377 32.5572 36.6071 32.966 36.6071 33.3923H47.3213C47.4634 33.3923 47.5996 33.4487 47.7001 33.5492C47.8006 33.6496 47.857 33.7859 47.857 33.928V40.8922C47.857 41.0343 47.8006 41.1706 47.7001 41.271C47.5996 41.3715 47.4634 41.4279 47.3213 41.4279H43.0356V43.5708H49.4641C49.6062 43.5708 49.7425 43.5143 49.8429 43.4139C49.9434 43.3134 49.9998 43.1771 49.9998 43.0351ZM30.8262 28.1026L29.7548 29.1478L30.0082 30.6232C30.025 30.7217 30.014 30.823 29.9764 30.9155C29.9387 31.0081 29.8759 31.0883 29.795 31.1471C29.7141 31.2058 29.6184 31.2408 29.5187 31.248C29.419 31.2552 29.3193 31.2343 29.2308 31.1878L27.9055 30.4914L26.5807 31.1878C26.4922 31.2343 26.3925 31.2552 26.2928 31.248C26.1931 31.2408 26.0974 31.2058 26.0165 31.1471C25.9357 31.0883 25.8728 31.0081 25.8352 30.9155C25.7975 30.823 25.7865 30.7217 25.8034 30.6232L26.0568 29.1478L24.9853 28.1026C24.9137 28.0329 24.863 27.9445 24.839 27.8474C24.8151 27.7503 24.8187 27.6485 24.8496 27.5534C24.8805 27.4583 24.9373 27.3738 25.0138 27.3093C25.0902 27.2449 25.1832 27.2031 25.2821 27.1887L26.7639 26.9744L27.426 25.6325C27.4753 25.5489 27.5456 25.4797 27.6298 25.4316C27.714 25.3835 27.8093 25.3583 27.9063 25.3583C28.0033 25.3583 28.0986 25.3835 28.1828 25.4316C28.267 25.4797 28.3373 25.5489 28.3866 25.6325L29.0498 26.975L30.531 27.1892C30.63 27.2035 30.723 27.2452 30.7995 27.3097C30.876 27.3741 30.933 27.4586 30.9639 27.5537C30.9949 27.6488 30.9986 27.7507 30.9746 27.8478C30.9506 27.9449 30.9 28.0334 30.8283 28.1032L30.8262 28.1026ZM37.9212 28.1026L36.8497 29.1483L37.1026 30.6237C37.1195 30.7222 37.1085 30.8235 37.0708 30.9161C37.0331 31.0087 36.9703 31.0889 36.8894 31.1476C36.8085 31.2063 36.7129 31.2413 36.6132 31.2485C36.5135 31.2557 36.4137 31.2349 36.3253 31.1883L34.9999 30.4914L33.6751 31.1878C33.5866 31.2343 33.4869 31.2552 33.3872 31.248C33.2875 31.2408 33.1918 31.2058 33.111 31.1471C33.0301 31.0883 32.9673 31.0081 32.9296 30.9155C32.8919 30.823 32.8809 30.7217 32.8978 30.6232L33.1506 29.1478L32.0792 28.1021C32.0085 28.0322 31.9587 27.944 31.9353 27.8473C31.9119 27.7507 31.9158 27.6495 31.9467 27.5549C31.9775 27.4604 32.0341 27.3763 32.11 27.3121C32.1859 27.2479 32.2782 27.2061 32.3765 27.1914L33.8573 26.9771L34.5178 25.6309C34.5671 25.5475 34.6373 25.4784 34.7215 25.4304C34.8057 25.3823 34.9009 25.3571 34.9978 25.3571C35.0947 25.3571 35.1899 25.3823 35.2741 25.4304C35.3582 25.4784 35.4284 25.5475 35.4778 25.6309L36.141 26.9734L37.6217 27.1876C37.72 27.2024 37.8123 27.2442 37.8883 27.3084C37.9642 27.3726 38.0207 27.4567 38.0516 27.5512C38.0824 27.6457 38.0864 27.747 38.063 27.8436C38.0396 27.9402 37.9897 28.0284 37.919 28.0984L37.9212 28.1026ZM45.0167 28.1026L43.9452 29.1478L44.1986 30.6232C44.2155 30.7217 44.2045 30.823 44.1668 30.9155C44.1291 31.0081 44.0663 31.0883 43.9855 31.1471C43.9046 31.2058 43.8089 31.2408 43.7092 31.248C43.6095 31.2552 43.5098 31.2343 43.4213 31.1878L42.0965 30.4914L40.7711 31.1878C40.6827 31.2343 40.583 31.2552 40.4833 31.248C40.3836 31.2408 40.2879 31.2058 40.207 31.1471C40.1261 31.0883 40.0633 31.0081 40.0256 30.9155C39.988 30.823 39.9769 30.7217 39.9938 30.6232L40.2472 29.1478L39.1758 28.1026C39.1042 28.0328 39.0535 27.9444 39.0295 27.8473C39.0056 27.7502 39.0093 27.6483 39.0402 27.5532C39.0711 27.4581 39.1281 27.3735 39.2046 27.3091C39.2811 27.2447 39.3741 27.203 39.4731 27.1887L40.9544 26.9744L41.6176 25.6319C41.6618 25.5424 41.7303 25.467 41.8151 25.4142C41.9 25.3615 41.9979 25.3336 42.0978 25.3336C42.1977 25.3336 42.2957 25.3615 42.3805 25.4142C42.4654 25.467 42.5338 25.5424 42.5781 25.6319L43.2402 26.9739L44.722 27.1882C44.821 27.2025 44.9139 27.2443 44.9904 27.3088C45.0668 27.3732 45.1237 27.4578 45.1546 27.5529C45.1854 27.648 45.1891 27.7498 45.1651 27.8469C45.1411 27.9439 45.0904 28.0323 45.0188 28.1021L45.0167 28.1026Z" fill="white"/>
<path d="M35.3065 27.702L34.9996 27.0801L34.6926 27.702C34.6542 27.7799 34.5974 27.8473 34.5271 27.8983C34.4568 27.9494 34.3752 27.9826 34.2892 27.9951L33.6035 28.0947L34.0996 28.5769C34.1616 28.6375 34.208 28.7122 34.2348 28.7947C34.2616 28.8772 34.268 28.9649 34.2533 29.0504L34.1371 29.734L34.7499 29.4126C34.8269 29.372 34.9126 29.3508 34.9996 29.3508C35.0866 29.3508 35.1723 29.372 35.2492 29.4126L35.8621 29.734L35.7458 29.0547C35.7312 28.9692 35.7376 28.8815 35.7643 28.799C35.7911 28.7165 35.8375 28.6417 35.8996 28.5811L36.3956 28.099L35.7099 27.9994C35.6236 27.9864 35.5416 27.9526 35.4713 27.9008C35.401 27.849 35.3445 27.7807 35.3065 27.702Z" fill="white"/>
<path d="M20 23.2143H49.9998V20.5357C49.9998 20.3936 49.9434 20.2574 49.8429 20.1569C49.7425 20.0564 49.6062 20 49.4641 20H20.5357C20.3936 20 20.2574 20.0564 20.1569 20.1569C20.0564 20.2574 20 20.3936 20 20.5357V23.2143ZM26.9643 21.0714H27.5C27.642 21.0714 27.7783 21.1279 27.8788 21.2283C27.9792 21.3288 28.0357 21.4651 28.0357 21.6071C28.0357 21.7492 27.9792 21.8855 27.8788 21.9859C27.7783 22.0864 27.642 22.1428 27.5 22.1428H26.9643C26.8222 22.1428 26.6859 22.0864 26.5854 21.9859C26.485 21.8855 26.4285 21.7492 26.4285 21.6071C26.4285 21.4651 26.485 21.3288 26.5854 21.2283C26.6859 21.1279 26.8222 21.0714 26.9643 21.0714ZM24.2857 21.0714H24.8214C24.9635 21.0714 25.0997 21.1279 25.2002 21.2283C25.3007 21.3288 25.3571 21.4651 25.3571 21.6071C25.3571 21.7492 25.3007 21.8855 25.2002 21.9859C25.0997 22.0864 24.9635 22.1428 24.8214 22.1428H24.2857C24.1436 22.1428 24.0074 22.0864 23.9069 21.9859C23.8064 21.8855 23.75 21.7492 23.75 21.6071C23.75 21.4651 23.8064 21.3288 23.9069 21.2283C24.0074 21.1279 24.1436 21.0714 24.2857 21.0714ZM21.6071 21.0714H22.1428C22.2849 21.0714 22.4212 21.1279 22.5217 21.2283C22.6221 21.3288 22.6786 21.4651 22.6786 21.6071C22.6786 21.7492 22.6221 21.8855 22.5217 21.9859C22.4212 22.0864 22.2849 22.1428 22.1428 22.1428H21.6071C21.4651 22.1428 21.3288 22.0864 21.2283 21.9859C21.1279 21.8855 21.0714 21.7492 21.0714 21.6071C21.0714 21.4651 21.1279 21.3288 21.2283 21.2283C21.3288 21.1279 21.4651 21.0714 21.6071 21.0714Z" fill="white"/>
<path d="M29.5255 38.6755C29.7449 38.4519 30.0106 38.279 30.3039 38.1689C30.5972 38.0588 30.9111 38.0141 31.2234 38.0381C31.5358 38.0621 31.8391 38.1541 32.1122 38.3077C32.3852 38.4613 32.6214 38.6728 32.8041 38.9273L33.3934 39.7577V34.4648H23.2148V40.3577H29.697L29.2041 39.613C29.136 39.5115 29.1047 39.3896 29.1155 39.2678C29.1262 39.146 29.1783 39.0315 29.263 38.9434L29.5255 38.6755Z" fill="white"/>
<path d="M41.964 47.8574H33.3926V50.0003H41.964V47.8574Z" fill="white"/>
<path d="M33.3554 43.9199L34.1965 45.1788C34.3723 45.4439 34.4656 45.7553 34.4643 46.0734V46.7859H40.8929V46.1538C40.8927 45.9415 40.9348 45.7312 41.0166 45.5353C41.0985 45.3395 41.2185 45.1618 41.3696 45.0127L41.8089 44.5788C41.9067 44.4761 41.9622 44.3403 41.9643 44.1984V38.2145C41.9643 38.0725 41.9078 37.9362 41.8074 37.8357C41.7069 37.7353 41.5707 37.6788 41.4286 37.6788C41.2865 37.6788 41.1502 37.7353 41.0498 37.8357C40.9493 37.9362 40.8929 38.0725 40.8929 38.2145V39.286C40.8929 39.428 40.8364 39.5643 40.736 39.6648C40.6355 39.7652 40.4992 39.8217 40.3571 39.8217C40.2151 39.8217 40.0788 39.7652 39.9783 39.6648C39.8779 39.5643 39.8214 39.428 39.8214 39.286V37.6788C39.8214 37.5367 39.765 37.4005 39.6645 37.3C39.5641 37.1996 39.4278 37.1431 39.2857 37.1431C39.1436 37.1431 39.0074 37.1996 38.9069 37.3C38.8065 37.4005 38.75 37.5367 38.75 37.6788V39.286C38.75 39.428 38.6936 39.5643 38.5931 39.6648C38.4926 39.7652 38.3564 39.8217 38.2143 39.8217C38.0722 39.8217 37.936 39.7652 37.8355 39.6648C37.735 39.5643 37.6786 39.428 37.6786 39.286V37.1431C37.6786 37.001 37.6221 36.8648 37.5217 36.7643C37.4212 36.6638 37.285 36.6074 37.1429 36.6074C37.0008 36.6074 36.8645 36.6638 36.7641 36.7643C36.6636 36.8648 36.6072 37.001 36.6072 37.1431V39.286C36.6072 39.428 36.5507 39.5643 36.4503 39.6648C36.3498 39.7652 36.2135 39.8217 36.0715 39.8217C35.9294 39.8217 35.7931 39.7652 35.6926 39.6648C35.5922 39.5643 35.5357 39.428 35.5357 39.286V33.3931C35.5357 33.2511 35.4793 33.1148 35.3788 33.0143C35.2784 32.9139 35.1421 32.8574 35 32.8574C34.858 32.8574 34.7217 32.9139 34.6212 33.0143C34.5208 33.1148 34.4643 33.2511 34.4643 33.3931V41.4288C34.4636 41.5417 34.4272 41.6515 34.3604 41.7425C34.2935 41.8335 34.1996 41.9011 34.0921 41.9355C33.9846 41.97 33.8689 41.9696 33.7616 41.9344C33.6543 41.8992 33.5609 41.831 33.4947 41.7395L31.9304 39.5538C31.8419 39.4309 31.7285 39.328 31.5975 39.2518C31.4666 39.1757 31.3211 39.128 31.1705 39.1118C31.0198 39.0956 30.8675 39.1114 30.7234 39.158C30.5793 39.2046 30.4466 39.2811 30.334 39.3824L33.2215 43.7163C33.2799 43.774 33.3255 43.8434 33.3554 43.9199Z" fill="white"/>
<path d="M28.2108 27.7015L27.9039 27.0801L27.5975 27.7015C27.559 27.7794 27.5022 27.8468 27.4319 27.8978C27.3616 27.9489 27.28 27.9821 27.1941 27.9945L26.5078 28.0942L27.0044 28.5763C27.0665 28.637 27.113 28.7118 27.1398 28.7944C27.1666 28.877 27.1729 28.9649 27.1582 29.0504L27.0414 29.734L27.6542 29.4126C27.7311 29.3721 27.8167 29.351 27.9036 29.351C27.9905 29.351 28.0761 29.3721 28.153 29.4126L28.7669 29.734L28.6496 29.0542C28.6349 28.9686 28.6413 28.8807 28.6682 28.7981C28.6951 28.7155 28.7416 28.6407 28.8039 28.5801L29.2999 28.0979L28.6142 27.9983C28.5279 27.9854 28.446 27.9517 28.3757 27.8999C28.3054 27.8482 28.2488 27.7801 28.2108 27.7015Z" fill="white"/>
</svg>
