<svg width="24" height="16" viewBox="0 0 24 16" fill="none" xmlns="http://www.w3.org/2000/svg">
<path fill-rule="evenodd" clip-rule="evenodd" d="M22.2857 0.285645C22.7404 0.285645 23.1764 0.466256 23.4979 0.787747C23.8194 1.10924 24 1.54527 24 1.99993V13.9999C24 14.4546 23.8194 14.8906 23.4979 15.2121C23.1764 15.5336 22.7404 15.7142 22.2857 15.7142C21.8311 15.7142 21.395 15.5336 21.0735 15.2121C20.752 14.8906 20.5714 14.4546 20.5714 13.9999V1.99993C20.5714 1.54527 20.752 1.10924 21.0735 0.787747C21.395 0.466256 21.8311 0.285645 22.2857 0.285645ZM10.2857 10.1428H2.14286C1.57454 10.1428 1.02949 9.91703 0.627628 9.51516C0.225765 9.1133 0 8.56825 0 7.99993C0 7.43161 0.225765 6.88657 0.627628 6.4847C1.02949 6.08284 1.57454 5.85707 2.14286 5.85707H10.2857V2.35479C10.2858 2.18518 10.3361 2.0194 10.4304 1.87843C10.5247 1.73745 10.6587 1.62762 10.8154 1.56283C10.9722 1.49804 11.1446 1.48121 11.3109 1.51446C11.4772 1.54772 11.6299 1.62957 11.7497 1.74965L17.3931 7.39307C17.473 7.4727 17.5363 7.56728 17.5795 7.67142C17.6227 7.77555 17.645 7.88719 17.645 7.99993C17.645 8.11268 17.6227 8.22431 17.5795 8.32845C17.5363 8.43258 17.473 8.52717 17.3931 8.60679L11.7497 14.2502C11.6299 14.3703 11.4772 14.4521 11.3109 14.4854C11.1446 14.5187 10.9722 14.5018 10.8154 14.437C10.6587 14.3722 10.5247 14.2624 10.4304 14.1214C10.3361 13.9805 10.2858 13.8147 10.2857 13.6451V10.1428Z" fill="#EB5454"/>
</svg>
