<svg width="70" height="70" viewBox="0 0 70 70" fill="none" xmlns="http://www.w3.org/2000/svg">
<circle cx="35" cy="35" r="35" fill="#EB5454"/>
<path d="M36.9939 47.6954C35.9883 46.2733 35.4995 44.316 35.4995 41.7117C35.4999 41.4927 35.6395 41.2943 35.8468 41.2173C37.4193 40.6386 38.7914 39.8844 40.0429 38.911C40.1144 38.8563 40.1964 38.8206 40.2827 38.8058L40.2896 38.8047C40.4333 38.7824 40.5845 38.8206 40.6997 38.9078L40.7039 38.911C40.827 39.0068 40.9517 39.0998 41.0772 39.1914V23.9965H25V44.8817V44.9826V49.4746H31.511V44.9826H34.566V49.4746H38.8202C38.1689 49.0096 37.5373 48.464 36.9939 47.6954ZM36.3861 25.4579H39.4409V28.8638H36.3861V25.4579ZM36.3861 29.9095H39.4409V33.3154H36.3861V29.9095ZM36.3861 34.5044H39.4409V37.9103H36.3861V34.5044ZM29.7788 42.9393H26.7239V39.5334H29.7788V42.9393ZM29.7788 37.9103H26.7239V34.5044H29.7788V37.9103ZM29.7788 33.3154H26.7239V29.9095H29.7788V33.3154ZM29.7788 28.8638H26.7239V25.4579H29.7788V28.8638ZM34.566 42.9393H31.511V39.5334H34.566V42.9393ZM34.566 37.9103H31.511V34.5044H34.566V37.9103ZM34.566 33.3154H31.511V29.9095H34.566V33.3154ZM34.566 28.8638H31.511V25.4579H34.566V28.8638ZM41.077 23.2757H25V21.3138H28.1636V20H37.9134V21.3138H41.077V23.2757ZM44.8278 41.6036C43.3251 41.0506 41.8797 40.2924 40.5213 39.236C40.4947 39.2158 40.4613 39.2073 40.4284 39.2124C40.4087 39.2157 40.3902 39.2238 40.3742 39.236C39.0159 40.2924 37.5705 41.0506 36.0678 41.6036C36.019 41.6217 35.9865 41.6686 35.9865 41.7212C35.9865 44.5435 36.5623 46.2801 37.4078 47.4759C38.2532 48.6717 39.3599 49.3185 40.382 49.9809C40.4222 50.0064 40.4733 50.0064 40.5136 49.9809C41.5357 49.3185 42.6423 48.6717 43.4879 47.4759C44.3333 46.2801 44.9091 44.5435 44.9091 41.7212C44.909 41.6686 44.8765 41.6217 44.8278 41.6036Z" fill="white"/>
</svg>
