<svg width="83" height="70" viewBox="0 0 83 70" fill="none" xmlns="http://www.w3.org/2000/svg">
<rect x="0.5" y="0.5" width="82" height="69" rx="5.5" fill="#1A4EE6" fill-opacity="0.1" stroke="#EFEFEF"/>
<path d="M26 44C26 44.5521 26.4479 45 27 45H56.3333C56.8854 45 57.3333 44.5521 57.3333 44V41H26V44Z" fill="#0F3FE2"/>
<path d="M49 48.3334H47.3333V47H36V48.3334H34.3333C33.7867 48.3334 33.3333 48.7867 33.3333 49.3334C33.3333 49.88 33.7867 50.3334 34.3333 50.3334H49C49.5466 50.3334 50 49.88 50 49.3334C50 48.7867 49.5466 48.3334 49 48.3334Z" fill="#0F3FE2"/>
<path d="M56.3333 19H27C26.4479 19 26 19.4479 26 20V39H57.3333V20C57.3333 19.4479 56.8854 19 56.3333 19ZM45.6666 22H48.3333C48.8854 22 49.3333 22.4479 49.3333 23C49.3333 23.5521 48.8854 24 48.3333 24H45.6666C45.1145 24 44.6666 23.5521 44.6666 23C44.6666 22.4479 45.1145 22 45.6666 22ZM36.3333 35.3334C32.8411 35.3334 30 32.4922 30 29C30 25.5078 32.8411 22.6667 36.3333 22.6667C39.8255 22.6667 42.6666 25.5078 42.6666 29C42.6666 32.4922 39.8255 35.3334 36.3333 35.3334ZM52.3333 36H45.6666C45.1145 36 44.6666 35.5521 44.6666 35C44.6666 34.4479 45.1145 34 45.6666 34H52.3333C52.8854 34 53.3333 34.4479 53.3333 35C53.3333 35.5521 52.8854 36 52.3333 36ZM52.3333 32H45.6666C45.1145 32 44.6666 31.5521 44.6666 31C44.6666 30.4479 45.1145 30 45.6666 30H52.3333C52.8854 30 53.3333 30.4479 53.3333 31C53.3333 31.5521 52.8854 32 52.3333 32ZM52.3333 28H45.6666C45.1145 28 44.6666 27.5521 44.6666 27C44.6666 26.4479 45.1145 26 45.6666 26H52.3333C52.8854 26 53.3333 26.4479 53.3333 27C53.3333 27.5521 52.8854 28 52.3333 28Z" fill="#0F3FE2"/>
<path d="M36.3333 24.6667C33.944 24.6667 32 26.6107 32 29C32 31.3893 33.944 33.3334 36.3333 33.3334C38.7226 33.3334 40.6666 31.3893 40.6666 29C40.6666 26.6107 38.7226 24.6667 36.3333 24.6667ZM39.0403 28.3737L36.3737 31.0404C35.9984 31.4156 35.3516 31.4323 34.9596 31.0404L33.6263 29.707C33.2356 29.3164 33.2356 28.6836 33.6263 28.293C34.0169 27.9024 34.6497 27.9024 35.0403 28.293L35.6666 28.9193L37.6263 26.9596C38.0169 26.569 38.6497 26.569 39.0403 26.9596C39.431 27.3503 39.4309 27.9831 39.0403 28.3737Z" fill="#0F3FE2"/>
</svg>
