<svg width="112" height="92" viewBox="0 0 112 92" fill="none" xmlns="http://www.w3.org/2000/svg">
<g opacity="0.4" clip-path="url(#clip0_40_3250)">
<g style="mix-blend-mode:overlay">
<path d="M110.986 19.324C107.243 21.5793 103.114 14.7269 99.3628 16.9873C95.6111 19.2477 99.7482 26.0949 95.9966 28.3553C92.2449 30.6157 88.1249 23.7582 84.3732 26.0186C80.6215 28.2789 84.7587 35.1262 81.007 37.3865C77.2553 39.6469 73.1353 32.7894 69.3837 35.0498C65.632 37.3102 69.7691 44.1574 66.0175 46.4178C62.2658 48.6782 58.1372 41.8258 54.3941 44.0811C50.651 46.3363 54.7796 53.1887 51.0279 55.449C47.2762 57.7094 43.1562 50.8519 39.4046 53.1123C35.6529 55.3727 39.79 62.2199 36.0384 64.4803C32.2867 66.7407 28.1667 59.8832 24.415 62.1436C20.6634 64.404 24.7919 71.2563 21.0488 73.5116C17.3057 75.7668 13.1686 68.9196 9.42548 71.1748C5.68237 73.43 9.80238 80.2876 6.05928 82.5428C2.31617 84.798 -1.82096 77.9508 -5.57263 80.2112C-9.3243 82.4716 -5.19574 89.324 -8.9474 91.5844" stroke="white" stroke-width="0.91" stroke-miterlimit="10"/>
</g>
<g style="mix-blend-mode:overlay">
<path d="M104.277 8.18903C100.534 10.4443 96.4055 3.5919 92.6538 5.8523C88.9022 8.11269 93.0393 14.9599 89.2876 17.2203C85.536 19.4807 81.4159 12.6232 77.6728 14.8784C73.9297 17.1336 78.0583 23.986 74.3066 26.2464C70.555 28.5068 66.4264 21.6544 62.6833 23.9096C58.9402 26.1649 63.0688 33.0172 59.3171 35.2776C55.5654 37.538 51.4454 30.6805 47.6938 32.9409C43.9421 35.2013 48.0792 42.0485 44.3276 44.3089C40.5759 46.5693 36.4559 39.7117 32.7042 41.9721C28.9525 44.2325 33.0897 51.0797 29.338 53.3401C25.5863 55.6005 21.4663 48.743 17.7232 50.9982C13.9801 53.2535 18.1001 60.111 14.357 62.3662C10.6139 64.6215 6.47678 57.7742 2.72512 60.0346C-1.02655 62.295 3.10202 69.1474 -0.641086 71.4026C-4.38419 73.6579 -8.51277 66.8055 -12.2644 69.0659C-16.0161 71.3263 -11.8875 78.1787 -15.6392 80.439" stroke="white" stroke-width="0.91" stroke-miterlimit="10"/>
</g>
</g>
<defs>
<clipPath id="clip0_40_3250">
<rect width="21.91" height="140" fill="white" transform="translate(99.9164 0.951172) rotate(58.9309)"/>
</clipPath>
</defs>
</svg>
