<svg width="73" height="15" viewBox="0 0 73 15" fill="none" xmlns="http://www.w3.org/2000/svg">
<g clip-path="url(#clip0_40_3121)">
<g style="mix-blend-mode:overlay">
<path d="M70.84 4.47117C71.812 4.47117 72.6 3.68319 72.6 2.71117C72.6 1.73915 71.812 0.951172 70.84 0.951172C69.8679 0.951172 69.08 1.73915 69.08 2.71117C69.08 3.68319 69.8679 4.47117 70.84 4.47117Z" fill="white"/>
<path d="M70.84 14.6111C71.812 14.6111 72.6 13.8231 72.6 12.8511C72.6 11.879 71.812 11.0911 70.84 11.0911C69.8679 11.0911 69.08 11.879 69.08 12.8511C69.08 13.8231 69.8679 14.6111 70.84 14.6111Z" fill="white"/>
<path d="M59.3299 4.47117C60.302 4.47117 61.0899 3.68319 61.0899 2.71117C61.0899 1.73915 60.302 0.951172 59.3299 0.951172C58.3579 0.951172 57.5699 1.73915 57.5699 2.71117C57.5699 3.68319 58.3579 4.47117 59.3299 4.47117Z" fill="white"/>
<path d="M59.3299 14.6111C60.302 14.6111 61.0899 13.8231 61.0899 12.8511C61.0899 11.879 60.302 11.0911 59.3299 11.0911C58.3579 11.0911 57.5699 11.879 57.5699 12.8511C57.5699 13.8231 58.3579 14.6111 59.3299 14.6111Z" fill="white"/>
<path d="M47.8101 4.47117C48.7821 4.47117 49.57 3.68319 49.57 2.71117C49.57 1.73915 48.7821 0.951172 47.8101 0.951172C46.838 0.951172 46.05 1.73915 46.05 2.71117C46.05 3.68319 46.838 4.47117 47.8101 4.47117Z" fill="white"/>
<path d="M47.8101 14.6111C48.7821 14.6111 49.57 13.8231 49.57 12.8511C49.57 11.879 48.7821 11.0911 47.8101 11.0911C46.838 11.0911 46.05 11.879 46.05 12.8511C46.05 13.8231 46.838 14.6111 47.8101 14.6111Z" fill="white"/>
<path d="M38.0399 2.99606C38.1948 2.03647 37.5425 1.13298 36.5829 0.978074C35.6233 0.823169 34.7198 1.4755 34.5649 2.4351C34.41 3.3947 35.0623 4.29818 36.0219 4.45309C36.9815 4.60799 37.885 3.95566 38.0399 2.99606Z" fill="white"/>
<path d="M38.0404 13.1321C38.1953 12.1725 37.543 11.269 36.5834 11.1141C35.6238 10.9592 34.7203 11.6115 34.5654 12.5711C34.4105 13.5307 35.0628 14.4342 36.0224 14.5891C36.982 14.744 37.8855 14.0916 38.0404 13.1321Z" fill="white"/>
<path d="M24.79 4.47117C25.7621 4.47117 26.55 3.68319 26.55 2.71117C26.55 1.73915 25.7621 0.951172 24.79 0.951172C23.818 0.951172 23.03 1.73915 23.03 2.71117C23.03 3.68319 23.818 4.47117 24.79 4.47117Z" fill="white"/>
<path d="M24.79 14.6111C25.7621 14.6111 26.55 13.8231 26.55 12.8511C26.55 11.879 25.7621 11.0911 24.79 11.0911C23.818 11.0911 23.03 11.879 23.03 12.8511C23.03 13.8231 23.818 14.6111 24.79 14.6111Z" fill="white"/>
<path d="M13.27 4.47117C12.3 4.47117 11.51 3.68117 11.51 2.71117C11.51 1.74117 12.3 0.951172 13.27 0.951172C14.24 0.951172 15.03 1.74117 15.03 2.71117C15.03 3.68117 14.24 4.47117 13.27 4.47117Z" fill="white"/>
<path d="M13.27 14.6111C12.3 14.6111 11.51 13.8211 11.51 12.8511C11.51 11.8811 12.3 11.0911 13.27 11.0911C14.24 11.0911 15.03 11.8811 15.03 12.8511C15.03 13.8211 14.24 14.6111 13.27 14.6111Z" fill="white"/>
<path d="M1.76 4.47117C2.73202 4.47117 3.52 3.68319 3.52 2.71117C3.52 1.73915 2.73202 0.951172 1.76 0.951172C0.787979 0.951172 0 1.73915 0 2.71117C0 3.68319 0.787979 4.47117 1.76 4.47117Z" fill="white"/>
<path d="M1.76 14.6111C2.73202 14.6111 3.52 13.8231 3.52 12.8511C3.52 11.879 2.73202 11.0911 1.76 11.0911C0.787979 11.0911 0 11.879 0 12.8511C0 13.8231 0.787979 14.6111 1.76 14.6111Z" fill="white"/>
</g>
</g>
<defs>
<clipPath id="clip0_40_3121">
<rect width="72.6" height="13.66" fill="white" transform="translate(0 0.951172)"/>
</clipPath>
</defs>
</svg>
