<svg width="595" height="380" viewBox="0 0 595 380" fill="none" xmlns="http://www.w3.org/2000/svg">
<path d="M177.338 108.201H61.2637V28.7988H177.338V108.201ZM62.1802 107.285H176.422V29.7154H62.1802V107.285Z" fill="#eb5454"/>
<path d="M70.3378 33.9133C70.3378 34.3701 70.2023 34.8167 69.9485 35.1965C69.6947 35.5763 69.334 35.8724 68.9119 36.0472C68.4899 36.222 68.0255 36.2678 67.5774 36.1786C67.1294 36.0895 66.7178 35.8695 66.3948 35.5465C66.0717 35.2235 65.8518 34.8119 65.7626 34.3639C65.6735 33.9158 65.7193 33.4514 65.8941 33.0294C66.0689 32.6073 66.3649 32.2466 66.7448 31.9928C67.1246 31.739 67.5712 31.6035 68.028 31.6035C68.6406 31.6035 69.2281 31.8469 69.6613 32.28C70.0944 32.7132 70.3378 33.3007 70.3378 33.9133Z" fill="#A6A6A6"/>
<path d="M79.7692 33.9133C79.7692 34.3701 79.6337 34.8167 79.3799 35.1965C79.1261 35.5763 78.7654 35.8724 78.3433 36.0472C77.9213 36.222 77.4569 36.2678 77.0088 36.1786C76.5608 36.0895 76.1492 35.8695 75.8262 35.5465C75.5031 35.2235 75.2832 34.8119 75.194 34.3639C75.1049 33.9158 75.1507 33.4514 75.3255 33.0294C75.5003 32.6073 75.7963 32.2466 76.1762 31.9928C76.556 31.739 77.0026 31.6035 77.4594 31.6035C78.072 31.6035 78.6595 31.8469 79.0927 32.28C79.5258 32.7132 79.7692 33.3007 79.7692 33.9133Z" fill="#eb5454"/>
<path d="M89.2098 33.9133C89.2117 34.3727 89.077 34.8223 88.8229 35.205C88.5688 35.5878 88.2067 35.8864 87.7826 36.0631C87.3585 36.2397 86.8915 36.2864 86.4408 36.1972C85.9901 36.1081 85.5761 35.887 85.2512 35.5622C84.9264 35.2373 84.7053 34.8233 84.6161 34.3726C84.5269 33.9219 84.5737 33.4549 84.7503 33.0308C84.9269 32.6067 85.2256 32.2446 85.6083 31.9905C85.9911 31.7364 86.4407 31.6017 86.9001 31.6035C87.5127 31.6035 88.1002 31.8469 88.5333 32.28C88.9665 32.7132 89.2098 33.3007 89.2098 33.9133Z" fill="#eb5454"/>
<path d="M176.88 37.9736H61.7219V38.8902H176.88V37.9736Z" fill="#eb5454"/>
<path d="M557.082 316.18H556.166V200.857L580.665 167.42V104.929H581.582V167.714L557.082 201.159V316.18Z" fill="#eb5454"/>
<path d="M581.124 105.424C580.601 105.424 580.09 105.269 579.656 104.978C579.222 104.688 578.883 104.275 578.684 103.792C578.484 103.309 578.433 102.778 578.535 102.266C578.638 101.754 578.89 101.283 579.26 100.914C579.63 100.546 580.102 100.295 580.614 100.194C581.127 100.093 581.658 100.147 582.14 100.348C582.622 100.549 583.034 100.889 583.323 101.324C583.612 101.76 583.765 102.271 583.763 102.793C583.763 103.14 583.695 103.482 583.562 103.802C583.429 104.122 583.235 104.412 582.99 104.657C582.744 104.901 582.453 105.095 582.133 105.226C581.813 105.358 581.47 105.425 581.124 105.424ZM581.124 101.07C580.783 101.07 580.45 101.171 580.166 101.361C579.883 101.55 579.662 101.819 579.532 102.134C579.401 102.449 579.367 102.795 579.434 103.13C579.5 103.464 579.664 103.771 579.905 104.012C580.146 104.253 580.453 104.417 580.787 104.483C581.122 104.55 581.468 104.516 581.783 104.385C582.098 104.255 582.367 104.034 582.556 103.751C582.746 103.467 582.847 103.134 582.847 102.793C582.847 102.336 582.665 101.898 582.342 101.575C582.019 101.252 581.581 101.07 581.124 101.07Z" fill="#eb5454"/>
<path d="M563.397 316.179H562.48V204.899L562.563 204.77L586.98 171.453V127.843H587.897V171.756L563.397 205.192V316.179Z" fill="#eb5454"/>
<path d="M587.439 128.338C586.916 128.34 586.404 128.186 585.969 127.897C585.533 127.608 585.194 127.195 584.993 126.713C584.792 126.23 584.739 125.698 584.84 125.186C584.942 124.673 585.193 124.201 585.563 123.832C585.933 123.462 586.404 123.21 586.917 123.109C587.43 123.007 587.961 123.06 588.444 123.261C588.927 123.462 589.339 123.802 589.628 124.237C589.918 124.673 590.071 125.185 590.069 125.707C590.067 126.404 589.789 127.072 589.296 127.565C588.804 128.058 588.136 128.336 587.439 128.338ZM587.439 123.984C587.098 123.983 586.764 124.082 586.479 124.27C586.195 124.458 585.972 124.727 585.84 125.042C585.709 125.356 585.673 125.703 585.739 126.038C585.804 126.373 585.967 126.681 586.208 126.923C586.449 127.165 586.756 127.33 587.09 127.397C587.425 127.464 587.772 127.43 588.087 127.3C588.402 127.17 588.672 126.949 588.862 126.666C589.052 126.382 589.153 126.049 589.153 125.707C589.153 125.252 588.973 124.815 588.651 124.492C588.33 124.169 587.894 123.987 587.439 123.984Z" fill="#eb5454"/>
<path d="M551.005 163.653H550.089V316.18H551.005V163.653Z" fill="#eb5454"/>
<path d="M550.547 164.112C550.024 164.114 549.512 163.961 549.077 163.671C548.641 163.382 548.302 162.97 548.101 162.487C547.9 162.004 547.847 161.473 547.948 160.96C548.05 160.447 548.301 159.976 548.671 159.606C549.041 159.236 549.512 158.985 550.025 158.883C550.538 158.782 551.069 158.835 551.552 159.036C552.035 159.237 552.447 159.576 552.736 160.012C553.026 160.447 553.179 160.959 553.177 161.482C553.175 162.179 552.897 162.846 552.404 163.339C551.911 163.832 551.244 164.11 550.547 164.112ZM550.547 159.759C550.206 159.757 549.872 159.856 549.587 160.045C549.302 160.233 549.08 160.501 548.948 160.816C548.816 161.131 548.781 161.478 548.846 161.812C548.912 162.147 549.075 162.455 549.316 162.697C549.557 162.939 549.864 163.104 550.198 163.171C550.533 163.238 550.88 163.205 551.195 163.075C551.51 162.945 551.78 162.724 551.97 162.44C552.159 162.157 552.261 161.823 552.261 161.482C552.261 161.026 552.081 160.59 551.759 160.267C551.438 159.944 551.002 159.761 550.547 159.759Z" fill="#eb5454"/>
<path d="M545.148 316.18H544.232V238.776L527.605 207.401V151.051H528.522V207.181L545.148 238.556V316.18Z" fill="#eb5454"/>
<path d="M528.054 151.509C527.532 151.509 527.022 151.354 526.588 151.064C526.154 150.774 525.815 150.362 525.615 149.879C525.416 149.397 525.363 148.866 525.465 148.354C525.567 147.842 525.819 147.372 526.188 147.003C526.557 146.633 527.027 146.382 527.539 146.28C528.051 146.178 528.582 146.231 529.064 146.43C529.547 146.63 529.959 146.969 530.249 147.403C530.539 147.837 530.694 148.347 530.694 148.869C530.694 149.569 530.416 150.241 529.921 150.736C529.426 151.231 528.754 151.509 528.054 151.509ZM528.054 147.155C527.713 147.155 527.38 147.257 527.096 147.446C526.812 147.636 526.592 147.906 526.461 148.221C526.331 148.536 526.298 148.883 526.365 149.218C526.432 149.552 526.597 149.859 526.839 150.1C527.081 150.341 527.389 150.504 527.724 150.57C528.059 150.635 528.405 150.6 528.72 150.468C529.035 150.336 529.303 150.114 529.491 149.829C529.68 149.544 529.779 149.21 529.777 148.869C529.777 148.643 529.733 148.42 529.646 148.211C529.559 148.003 529.432 147.813 529.272 147.654C529.112 147.495 528.922 147.369 528.713 147.283C528.504 147.197 528.28 147.154 528.054 147.155Z" fill="#eb5454"/>
<path d="M539.328 316.18H538.412V242.14L518.806 207.457V170.29H519.723V207.209L539.328 241.902V316.18Z" fill="#eb5454"/>
<path d="M519.265 170.748C518.742 170.75 518.23 170.596 517.795 170.307C517.359 170.018 517.019 169.606 516.818 169.123C516.618 168.64 516.564 168.109 516.666 167.596C516.768 167.083 517.019 166.612 517.389 166.242C517.759 165.872 518.23 165.621 518.743 165.519C519.256 165.417 519.787 165.471 520.27 165.671C520.753 165.872 521.165 166.212 521.454 166.648C521.743 167.083 521.897 167.595 521.895 168.118C521.893 168.815 521.615 169.482 521.122 169.975C520.629 170.468 519.962 170.746 519.265 170.748ZM519.265 166.394C518.923 166.393 518.589 166.492 518.305 166.68C518.02 166.869 517.798 167.137 517.666 167.452C517.534 167.767 517.499 168.113 517.564 168.448C517.63 168.783 517.793 169.091 518.034 169.333C518.274 169.575 518.581 169.74 518.916 169.807C519.25 169.874 519.597 169.841 519.913 169.71C520.228 169.58 520.498 169.359 520.688 169.076C520.877 168.792 520.979 168.459 520.979 168.118C520.979 167.662 520.798 167.225 520.477 166.902C520.156 166.58 519.72 166.397 519.265 166.394Z" fill="#eb5454"/>
<path d="M41.594 316.18H40.6774V256.144L16.1775 222.708V187.42H17.0941V222.405L41.594 255.851V316.18Z" fill="#eb5454"/>
<path d="M16.6359 187.915C16.1131 187.917 15.6014 187.763 15.1659 187.474C14.7304 187.185 14.3907 186.773 14.1898 186.29C13.9888 185.807 13.9358 185.276 14.0373 184.763C14.1389 184.25 14.3905 183.779 14.7602 183.409C15.1299 183.039 15.6011 182.788 16.114 182.686C16.627 182.584 17.1585 182.638 17.6412 182.838C18.1239 183.039 18.5361 183.379 18.8254 183.815C19.1148 184.25 19.2683 184.762 19.2665 185.285C19.2665 185.982 18.9893 186.651 18.496 187.145C18.0027 187.638 17.3336 187.915 16.6359 187.915ZM16.6359 183.561C16.2947 183.56 15.9607 183.659 15.6761 183.847C15.3915 184.036 15.1693 184.304 15.0374 184.619C14.9056 184.934 14.8702 185.28 14.9356 185.615C15.0011 185.95 15.1645 186.258 15.4051 186.5C15.6457 186.742 15.9527 186.907 16.2872 186.974C16.6217 187.041 16.9687 187.008 17.2841 186.877C17.5995 186.747 17.8691 186.526 18.0589 186.243C18.2486 185.959 18.3499 185.626 18.3499 185.285C18.3499 184.829 18.1696 184.392 17.8485 184.069C17.5273 183.746 17.0914 183.564 16.6359 183.561Z" fill="#eb5454"/>
<path d="M35.2788 316.18H34.3622V260.187L9.8623 226.751V210.335H10.7789V226.448L35.2788 259.894V316.18Z" fill="#eb5454"/>
<path d="M10.3389 210.829C9.81645 210.829 9.30572 210.674 8.87143 210.384C8.43713 210.093 8.0988 209.68 7.89928 209.198C7.69976 208.715 7.64802 208.183 7.75062 207.671C7.85322 207.159 8.10554 206.689 8.47563 206.32C8.84572 205.951 9.31692 205.7 9.82958 205.599C10.3422 205.499 10.8733 205.552 11.3555 205.753C11.8377 205.955 12.2493 206.294 12.5382 206.73C12.8272 207.165 12.9805 207.676 12.9786 208.199C12.9762 208.897 12.697 209.566 12.2023 210.059C11.7075 210.552 11.0374 210.829 10.3389 210.829ZM10.3389 206.476C9.99812 206.476 9.66497 206.577 9.3816 206.766C9.09822 206.955 8.87736 207.224 8.74694 207.539C8.61652 207.854 8.5824 208.201 8.64889 208.535C8.71537 208.869 8.87949 209.176 9.12047 209.417C9.36146 209.658 9.6685 209.822 10.0028 209.889C10.337 209.955 10.6835 209.921 10.9983 209.791C11.3132 209.66 11.5823 209.439 11.7717 209.156C11.961 208.873 12.0621 208.539 12.0621 208.199C12.0621 207.742 11.8805 207.303 11.5574 206.98C11.2342 206.657 10.7959 206.476 10.3389 206.476Z" fill="#eb5454"/>
<path d="M47.671 218.647H46.7544V316.18H47.671V218.647Z" fill="#eb5454"/>
<path d="M47.2127 219.107C46.6902 219.107 46.1795 218.952 45.7452 218.661C45.3109 218.371 44.9726 217.958 44.7731 217.475C44.5735 216.992 44.5218 216.461 44.6244 215.949C44.727 215.436 44.9793 214.966 45.3494 214.597C45.7195 214.228 46.1907 213.978 46.7034 213.877C47.216 213.776 47.7471 213.83 48.2292 214.031C48.7114 214.232 49.1231 214.572 49.412 215.007C49.701 215.442 49.8542 215.954 49.8524 216.476C49.85 217.175 49.5708 217.844 49.076 218.337C48.5813 218.83 47.9112 219.107 47.2127 219.107ZM47.2127 214.753C46.8719 214.753 46.5387 214.854 46.2554 215.043C45.972 215.233 45.7511 215.502 45.6207 215.817C45.4903 216.131 45.4562 216.478 45.5227 216.812C45.5892 217.146 45.7533 217.454 45.9943 217.694C46.2352 217.935 46.5423 218.1 46.8765 218.166C47.2108 218.233 47.5573 218.198 47.8721 218.068C48.187 217.938 48.4561 217.717 48.6455 217.433C48.8348 217.15 48.9359 216.817 48.9359 216.476C48.9359 216.019 48.7543 215.581 48.4312 215.258C48.108 214.934 47.6697 214.753 47.2127 214.753Z" fill="#eb5454"/>
<path d="M53.5279 316.18H52.6113V266.053L52.6572 265.943L69.2379 234.679V178.548H70.1545V234.899L70.1086 234.999L53.5279 266.273V316.18Z" fill="#eb5454"/>
<path d="M69.6961 179.006C69.174 179.006 68.6637 178.851 68.2296 178.561C67.7955 178.271 67.4571 177.859 67.2573 177.376C67.0575 176.894 67.0053 176.363 67.1071 175.851C67.209 175.339 67.4604 174.869 67.8296 174.5C68.1987 174.131 68.6691 173.879 69.1811 173.777C69.6932 173.675 70.2239 173.728 70.7063 173.928C71.1886 174.127 71.6009 174.466 71.891 174.9C72.181 175.334 72.3358 175.844 72.3358 176.366C72.3358 177.066 72.0577 177.738 71.5627 178.233C71.0676 178.728 70.3962 179.006 69.6961 179.006ZM69.6961 174.652C69.3549 174.652 69.0214 174.754 68.7378 174.943C68.4543 175.133 68.2334 175.403 68.1033 175.718C67.9731 176.034 67.9395 176.38 68.0068 176.715C68.074 177.05 68.239 177.357 68.4809 177.597C68.7228 177.838 69.0307 178.001 69.3656 178.067C69.7005 178.132 70.0472 178.097 70.3619 177.965C70.6766 177.833 70.9451 177.611 71.1333 177.326C71.3216 177.042 71.4211 176.707 71.4193 176.366C71.4193 176.14 71.3746 175.917 71.2879 175.708C71.2012 175.5 71.0741 175.31 70.914 175.151C70.7539 174.992 70.5639 174.866 70.3548 174.78C70.1458 174.695 69.922 174.651 69.6961 174.652Z" fill="#eb5454"/>
<path d="M59.348 316.18H58.4314V269.399L58.4864 269.289L78.0368 234.707V197.787H78.9534V234.954L78.8892 235.055L59.348 269.637V316.18Z" fill="#eb5454"/>
<path d="M78.4951 198.245C77.9722 198.247 77.4606 198.094 77.0251 197.804C76.5896 197.515 76.2498 197.103 76.0489 196.62C75.848 196.137 75.7949 195.606 75.8965 195.093C75.998 194.58 76.2496 194.109 76.6193 193.739C76.9891 193.369 77.4603 193.118 77.9732 193.016C78.4861 192.915 79.0176 192.968 79.5003 193.169C79.983 193.369 80.3952 193.709 80.6846 194.145C80.9739 194.58 81.1274 195.092 81.1256 195.615C81.1232 196.312 80.8453 196.979 80.3525 197.472C79.8597 197.965 79.192 198.243 78.4951 198.245ZM78.4951 193.892C78.1539 193.89 77.8198 193.989 77.5352 194.177C77.2507 194.366 77.0284 194.634 76.8966 194.949C76.7647 195.264 76.7293 195.61 76.7947 195.945C76.8602 196.28 77.0236 196.588 77.2642 196.83C77.5048 197.072 77.8118 197.237 78.1463 197.304C78.4808 197.371 78.8278 197.338 79.1432 197.208C79.4586 197.077 79.7282 196.857 79.918 196.573C80.1078 196.289 80.209 195.956 80.209 195.615C80.209 195.159 80.0288 194.722 79.7076 194.399C79.3864 194.077 78.9505 193.894 78.4951 193.892Z" fill="#eb5454"/>
<path d="M582.278 89.3657L588.694 79.0543L585.541 77.102C585.082 76.8166 584.712 76.4069 584.475 75.9204C584.239 75.4338 584.144 74.8902 584.203 74.3523C584.252 73.7413 584.27 73.1302 584.258 72.5192C584.242 71.9872 584.374 71.4611 584.639 70.9998C584.905 70.5385 585.293 70.1601 585.761 69.907L589.033 68.1472L583.195 57.515L579.923 59.2748C579.451 59.523 578.919 59.6356 578.386 59.6C577.854 59.5644 577.342 59.3821 576.907 59.0731C576.412 58.734 575.899 58.4132 575.367 58.1566C574.896 57.9059 574.503 57.5286 574.235 57.0671C573.966 56.6056 573.831 56.0782 573.846 55.5443L573.965 51.8231L561.839 51.4473L561.72 55.1777C561.699 55.7116 561.531 56.2293 561.233 56.6729C560.935 57.1164 560.52 57.4683 560.033 57.6891C559.758 57.8174 559.492 57.9457 559.236 58.0924C558.979 58.239 558.713 58.3765 558.457 58.5323C558.003 58.8112 557.481 58.9589 556.949 58.9589C556.417 58.9589 555.895 58.8112 555.441 58.5323L552.261 56.5617L545.845 66.8731L549.007 68.8438C549.467 69.1284 549.837 69.538 550.074 70.0247C550.311 70.5115 550.405 71.0555 550.345 71.5935C550.294 72.2031 550.275 72.815 550.29 73.4266C550.304 73.9605 550.17 74.4879 549.903 74.9505C549.637 75.4131 549.247 75.793 548.778 76.048L545.561 77.6795L551.298 88.3758L554.57 86.6252C555.042 86.3756 555.573 86.2615 556.105 86.2955C556.638 86.3294 557.15 86.5102 557.586 86.8177C558.082 87.1508 558.596 87.4567 559.126 87.7342C559.597 87.9849 559.99 88.3622 560.259 88.8237C560.527 89.2852 560.662 89.8126 560.647 90.3465L560.537 94.0677L572.664 94.4435L572.783 90.7223C572.803 90.1894 572.971 89.6728 573.269 89.2306C573.567 88.7884 573.983 88.4384 574.469 88.22L575.267 87.8167L576.046 87.3676C576.501 87.0889 577.024 86.9414 577.558 86.9414C578.092 86.9414 578.615 87.0889 579.07 87.3676L582.278 89.3657ZM572.013 81.7124C570.279 82.641 568.309 83.0347 566.351 82.8437C564.394 82.6527 562.537 81.8856 561.016 80.6393C559.494 79.393 558.376 77.7236 557.803 75.842C557.231 73.9605 557.229 71.9514 557.798 70.0687C558.367 68.1861 559.481 66.5144 561 65.2651C562.519 64.0158 564.375 63.245 566.332 63.0501C568.289 62.8552 570.26 63.245 571.995 64.1702C573.731 65.0954 575.153 66.5145 576.082 68.248C576.698 69.402 577.079 70.666 577.205 71.9677C577.332 73.2694 577.2 74.5832 576.817 75.8338C576.435 77.0845 575.81 78.2475 574.978 79.2562C574.145 80.2649 573.122 81.0996 571.967 81.7124H572.013Z" fill="#eb5454"/>
<path d="M24.2526 181.032L31.5851 176.779L30.2836 174.524C30.0971 174.199 30.0052 173.829 30.0182 173.455C30.0311 173.081 30.1485 172.718 30.3569 172.407C30.5891 172.052 30.7999 171.686 30.9893 171.307C31.1594 170.967 31.4214 170.683 31.7455 170.485C32.0697 170.287 32.4428 170.184 32.8225 170.189H35.4255V161.683H32.8225C32.4428 161.687 32.0697 161.584 31.7455 161.387C31.4214 161.189 31.1594 160.904 30.9893 160.565C30.7999 160.186 30.5891 159.819 30.3569 159.465C30.1485 159.154 30.0311 158.791 30.0182 158.417C30.0052 158.042 30.0971 157.672 30.2836 157.347L31.5851 155.093L24.2526 150.84L22.951 153.104C22.7669 153.422 22.498 153.683 22.1744 153.858C21.8508 154.033 21.4851 154.114 21.1179 154.094H19.8255C19.4595 154.113 19.0952 154.032 18.7721 153.859C18.4489 153.686 18.1793 153.428 17.9924 153.113L16.6817 150.84L9.34912 155.093L10.6507 157.357C10.8371 157.681 10.929 158.052 10.9161 158.426C10.9031 158.8 10.7858 159.163 10.5773 159.474C10.347 159.826 10.1359 160.19 9.9449 160.565C9.77484 160.904 9.51281 161.189 9.18869 161.387C8.86456 161.584 8.4914 161.687 8.11176 161.683H5.4812V170.189H8.08426C8.4639 170.184 8.83707 170.287 9.16119 170.485C9.48531 170.683 9.74735 170.967 9.9174 171.307C10.1084 171.682 10.3195 172.046 10.5498 172.398C10.7581 172.71 10.8752 173.075 10.8882 173.45C10.9011 173.826 10.8094 174.198 10.6232 174.524L9.32163 176.779L16.6542 181.032L17.9649 178.768C18.1514 178.451 18.4207 178.192 18.7437 178.018C19.0668 177.843 19.4313 177.76 19.798 177.778C19.9997 177.778 20.2105 177.778 20.4213 177.778C20.6321 177.778 20.8429 177.778 21.0537 177.778C21.4203 177.761 21.7844 177.845 22.1073 178.019C22.4302 178.193 22.6996 178.452 22.8869 178.768L24.2526 181.032ZM20.4213 172.902C19.044 172.9 17.6981 172.49 16.5537 171.723C15.4094 170.957 14.518 169.868 13.9921 168.595C13.4663 167.322 13.3297 165.922 13.5995 164.571C13.8693 163.22 14.5335 161.98 15.508 161.007C16.4826 160.034 17.7238 159.371 19.0748 159.103C20.4258 158.835 21.826 158.973 23.0983 159.501C24.3706 160.028 25.458 160.921 26.223 162.067C26.9881 163.212 27.3964 164.558 27.3964 165.936C27.3976 166.852 27.2179 167.759 26.8677 168.605C26.5175 169.451 26.0036 170.22 25.3556 170.867C24.7075 171.515 23.938 172.027 23.0913 172.377C22.2445 172.726 21.3372 172.904 20.4213 172.902Z" fill="#eb5454"/>
<path d="M544.773 96.8265L540.529 89.4939L538.283 90.7679C537.957 90.9541 537.585 91.0459 537.21 91.0329C536.834 91.02 536.47 90.9029 536.157 90.6946C535.803 90.4623 535.436 90.2511 535.057 90.0622C534.718 89.8921 534.433 89.6301 534.235 89.306C534.037 88.9818 533.935 88.6087 533.939 88.229V85.626H525.451V88.229C525.456 88.6087 525.353 88.9818 525.155 89.306C524.958 89.6301 524.673 89.8921 524.333 90.0622C523.953 90.253 523.582 90.4641 523.224 90.6946C522.913 90.9031 522.55 91.0204 522.176 91.0333C521.802 91.0463 521.432 90.9544 521.107 90.7679L518.852 89.4664L514.608 96.799L516.872 98.1005C517.194 98.2929 517.456 98.5699 517.63 98.9013C517.805 99.2327 517.885 99.6056 517.862 99.9795C517.862 100.19 517.862 100.401 517.862 100.603C517.862 100.804 517.862 101.024 517.862 101.235C517.881 101.602 517.798 101.967 517.624 102.29C517.449 102.613 517.189 102.883 516.872 103.068L514.608 104.379L518.852 111.712L521.116 110.41C521.441 110.224 521.811 110.132 522.185 110.145C522.559 110.158 522.922 110.275 523.233 110.483C523.594 110.716 523.961 110.926 524.333 111.116C524.673 111.286 524.958 111.548 525.155 111.872C525.353 112.196 525.456 112.569 525.451 112.949V115.552H533.948V112.949C533.944 112.569 534.047 112.196 534.244 111.872C534.442 111.548 534.727 111.286 535.066 111.116C535.445 110.92 535.812 110.709 536.166 110.483C536.477 110.275 536.84 110.158 537.214 110.145C537.588 110.132 537.959 110.224 538.283 110.41L540.547 111.712L544.791 104.379L542.527 103.077C542.213 102.89 541.955 102.62 541.782 102.297C541.61 101.974 541.528 101.61 541.546 101.244C541.546 101.034 541.546 100.823 541.546 100.612C541.546 100.401 541.546 100.199 541.546 99.9886C541.522 99.6146 541.602 99.2413 541.777 98.9097C541.951 98.5782 542.214 98.3013 542.536 98.1096L544.773 96.8265ZM536.643 100.594C536.643 101.972 536.234 103.319 535.468 104.465C534.702 105.61 533.614 106.503 532.34 107.03C531.067 107.557 529.666 107.694 528.314 107.425C526.963 107.155 525.722 106.491 524.748 105.516C523.774 104.541 523.111 103.299 522.844 101.947C522.576 100.595 522.715 99.1942 523.244 97.9215C523.772 96.6488 524.667 95.5615 525.813 94.7971C526.96 94.0328 528.308 93.6258 529.686 93.6276C530.6 93.6276 531.506 93.8079 532.35 94.1581C533.195 94.5082 533.962 95.0215 534.608 95.6685C535.255 96.3154 535.767 97.0834 536.116 97.9285C536.465 98.7736 536.644 99.6792 536.643 100.594Z" fill="#eb5454"/>
<path d="M43.7938 246.391C37.9369 234.357 27.6897 228.179 16.1409 231.598C4.59211 235.017 2.8048 251.112 11.4206 255.181C20.0363 259.251 28.6704 247.372 33.2532 244.934C37.8361 242.496 43.7938 246.391 43.7938 246.391Z" fill="#eb5454"/>
<path d="M49.4581 278.407C49.4581 276.959 49.3756 275.502 49.3207 274.054C49.2229 271.157 49.119 268.261 49.009 265.365C48.8349 260.076 48.2483 254.888 46.0852 249.994C44.1474 245.566 40.9092 241.833 36.8003 239.288C35.2673 238.352 33.6105 237.637 31.8783 237.162C30.324 235.584 28.3425 234.494 26.1773 234.027C23.5032 233.484 20.7542 233.415 18.0565 233.826C18.0403 233.831 18.0262 233.842 18.0163 233.856C18.0064 233.87 18.0011 233.886 18.0011 233.903C18.0011 233.921 18.0064 233.937 18.0163 233.951C18.0262 233.965 18.0403 233.976 18.0565 233.981C20.6272 233.647 23.2389 233.831 25.7373 234.522C26.8085 234.819 27.8465 235.224 28.8353 235.732C29.4739 236.064 30.0867 236.444 30.6685 236.869C27.4867 236.164 24.1645 236.469 21.1636 237.739C20.5317 237.603 19.8848 237.547 19.2388 237.574C18.3942 237.601 17.555 237.721 16.7366 237.932C15.0659 238.404 13.4682 239.104 11.9888 240.012C11.9063 240.058 11.9888 240.187 12.0713 240.141C13.5257 239.346 15.0835 238.757 16.6999 238.39C17.4846 238.215 18.2811 238.099 19.083 238.042C19.5294 238.031 19.9761 238.043 20.4212 238.078C17.1336 239.601 14.4906 242.237 12.9603 245.521C12.9603 245.613 13.052 245.686 13.0886 245.594C13.9998 243.69 15.3283 242.016 16.9754 240.696C18.6225 239.375 20.5458 238.443 22.6026 237.968C22.8593 237.904 23.1159 237.868 23.3817 237.822C23.2884 238.208 23.218 238.6 23.1709 238.995C23.0976 239.582 22.9968 240.159 22.8776 240.736C22.6453 241.931 22.3392 243.109 21.961 244.265C21.5681 245.431 21.0996 246.57 20.5587 247.675C20.0414 248.848 19.386 249.956 18.6064 250.975C18.5331 251.057 18.6706 251.158 18.7255 251.066C19.4221 249.975 20.2287 248.976 20.8612 247.849C21.4761 246.774 22.0063 245.652 22.4468 244.494C22.8889 243.324 23.2323 242.12 23.4734 240.892C23.6017 240.242 23.7025 239.591 23.7759 238.931C23.855 238.539 23.8797 238.138 23.8492 237.739C25.2081 237.53 26.5885 237.499 27.9554 237.648C27.4421 240.526 26.8922 243.514 25.279 246.007C25.224 246.089 25.3707 246.172 25.4165 246.08C26.168 244.757 26.8294 243.386 27.3963 241.974C27.9304 240.605 28.2638 239.167 28.3862 237.703C30.7718 238.019 33.0744 238.791 35.1688 239.976C39.113 242.27 42.2628 245.714 44.197 249.847C46.2284 254.3 47.3651 259.108 47.5425 263.999C47.9275 270.158 48.01 276.345 48.6241 282.477C48.6241 282.88 49.2932 283.018 49.3756 282.56C49.534 281.181 49.5616 279.791 49.4581 278.407Z" fill="#263238"/>
<path d="M35.9295 238.335C35.5401 237.868 35.09 237.455 34.5913 237.107C34.1147 236.713 33.6198 236.328 33.1065 235.979C32.0942 235.272 30.9692 234.742 29.7793 234.412C29.6877 234.412 29.651 234.54 29.7793 234.559C30.9686 234.884 32.0748 235.459 33.024 236.245C33.519 236.603 33.9406 236.988 34.4447 237.391C34.8504 237.818 35.3023 238.2 35.792 238.527C35.8176 238.546 35.8493 238.553 35.8802 238.548C35.9112 238.543 35.9388 238.526 35.957 238.5C35.9753 238.474 35.9826 238.443 35.9775 238.412C35.9723 238.381 35.9551 238.353 35.9295 238.335Z" fill="#263238"/>
<path d="M17.2408 242.661C16.2705 243.788 15.3735 244.976 14.5553 246.217C13.7502 247.462 13.0804 248.79 12.5571 250.177C12.5571 250.223 12.5571 250.241 12.6213 250.177C13.9606 247.556 15.5441 245.067 17.3508 242.744C17.415 242.734 17.2958 242.661 17.2408 242.661Z" fill="#263238"/>
<path d="M29.8343 241.506C29.711 242.259 29.4892 242.993 29.1744 243.688C28.8518 244.357 28.478 245.001 28.0562 245.612C28.0562 245.612 28.0562 245.695 28.1295 245.667C29.1341 244.504 29.7719 243.069 29.9626 241.543C29.9993 241.451 29.8526 241.415 29.8343 241.506Z" fill="#263238"/>
<path d="M48.6423 246.694C48.6423 246.694 56.8915 236.272 72.9406 239.966C88.1465 243.477 95.1674 271.368 79.7965 274.704C64.4257 278.04 67.1387 252.23 61.5385 247.849C57.4231 244.641 51.5112 245.328 48.6423 246.694Z" fill="#eb5454"/>
<path d="M85.2959 255.199C84.2554 254.281 83.1529 253.436 81.9963 252.67C80.9142 251.924 79.7324 251.335 78.4858 250.919C77.8627 249.969 77.1639 249.071 76.396 248.233C74.9882 246.715 73.3599 245.417 71.5657 244.384H72.0423C72.888 244.338 73.7355 244.338 74.5812 244.384C76.2887 244.491 77.9626 244.907 79.5215 245.612C79.6132 245.612 79.6773 245.511 79.5857 245.475C78.0038 244.794 76.3494 244.296 74.6545 243.99C73.8286 243.843 72.9912 243.769 72.1523 243.77C71.7032 243.77 71.2357 243.77 70.8141 243.852H70.5575C69.0988 243.116 67.5614 242.547 65.9746 242.157L66.4237 242.037C67.2076 241.865 68 241.733 68.7977 241.643C70.3904 241.475 71.9979 241.509 73.5822 241.744C73.683 241.744 73.7105 241.607 73.5822 241.597C71.9766 241.405 70.3584 241.341 68.7427 241.405C67.3869 241.438 66.0383 241.613 64.7189 241.927C63.7559 241.75 62.7822 241.637 61.8042 241.588C56.2223 241.359 50.1363 243.421 46.6992 248.004C43.262 252.587 42.5929 258.719 41.988 264.264C41.0506 271.979 40.845 279.764 41.3739 287.518C41.3739 287.976 42.0522 287.893 42.0705 287.463C42.2813 280.882 42.5104 274.31 43.1429 267.756C43.427 264.713 43.757 261.67 44.2611 258.664C44.6274 256.077 45.3685 253.558 46.4609 251.185C47.6465 248.754 49.529 246.731 51.8686 245.374C54.2122 244.035 56.8224 243.231 59.5128 243.018C61.9294 242.82 64.3619 243.049 66.6987 243.696C66.6258 244.164 66.6258 244.64 66.6987 245.108C66.7545 245.702 66.8713 246.288 67.047 246.859C67.2243 247.393 67.4482 247.912 67.7161 248.408C68.0186 248.957 68.3852 249.452 68.7243 249.975C68.7243 250.057 68.9076 249.975 68.8435 249.883C68.1866 248.945 67.7625 247.865 67.6061 246.73C67.5048 246.191 67.4405 245.646 67.4136 245.099C67.4136 244.686 67.4136 244.274 67.4136 243.861C69.9537 244.635 72.326 245.879 74.4071 247.528C74.792 247.839 75.1678 248.169 75.5345 248.508C75.005 248.993 74.5481 249.552 74.1779 250.167C73.5948 250.977 73.0885 251.839 72.6656 252.743C71.9247 254.523 71.4253 256.394 71.1807 258.306C71.1864 258.323 71.1969 258.337 71.2109 258.347C71.2248 258.357 71.2415 258.362 71.2586 258.362C71.2758 258.362 71.2925 258.357 71.3064 258.347C71.3204 258.337 71.3309 258.323 71.3366 258.306C71.6372 256.457 72.2575 254.673 73.1697 253.036C73.5951 252.226 74.0695 251.442 74.5904 250.69C74.8654 250.305 75.1403 249.92 75.4336 249.553C75.5894 249.361 75.7636 249.159 75.9102 248.939C77.7922 250.791 79.3287 252.964 80.4473 255.355C79.6878 256.153 79.0542 257.061 78.5683 258.05C77.9929 259.081 77.4936 260.154 77.0743 261.258C76.2975 263.387 75.6576 265.564 75.1587 267.775C75.1643 267.791 75.1748 267.805 75.1888 267.815C75.2027 267.825 75.2194 267.83 75.2366 267.83C75.2537 267.83 75.2704 267.825 75.2844 267.815C75.2983 267.805 75.3088 267.791 75.3145 267.775C75.8032 265.551 76.5636 263.396 77.5784 261.359C78.055 260.36 78.5683 259.37 79.0999 258.398C79.6512 257.494 80.153 256.561 80.6031 255.603C81.6708 257.935 82.2926 260.447 82.4362 263.008C82.4362 263.109 82.592 263.1 82.592 263.008C82.2966 258.989 81.0663 255.094 78.9991 251.634C79.9707 252.046 80.9514 252.45 81.8955 252.954C83.0961 253.593 84.2136 254.378 85.2226 255.291C85.2684 255.383 85.3692 255.263 85.2959 255.199Z" fill="#263238"/>
<path d="M83.6646 251.872C83.0343 251.264 82.3178 250.751 81.5381 250.351C80.7479 249.996 79.9292 249.708 79.0909 249.489C78.9992 249.489 78.9625 249.618 79.0909 249.636C79.9157 249.854 80.7079 250.18 81.4465 250.607C82.2059 250.999 82.935 251.446 83.6279 251.946C83.6646 251.982 83.747 251.909 83.6646 251.872Z" fill="#263238"/>
<path d="M56.5249 232.772C56.5249 232.772 58.0556 214.055 71.9691 208.024C83.5912 202.956 90.2455 216.017 82.0514 224.009C75.4154 230.444 64.7282 227.52 56.5249 232.772Z" fill="#eb5454"/>
<path d="M79.4574 211.608C77.3398 212.464 75.274 213.444 73.2705 214.541C71.6007 215.501 69.9935 216.567 68.4585 217.73C68.6877 217.263 68.8893 216.759 69.1276 216.301C69.4857 215.575 69.8804 214.869 70.31 214.183C71.1629 212.767 72.1915 211.464 73.3713 210.306C73.4447 210.233 73.3713 210.132 73.2613 210.196C72.0888 211.362 71.01 212.619 70.035 213.954C69.5534 214.633 69.1127 215.34 68.7152 216.071C68.3078 216.742 67.9991 217.467 67.7986 218.225C67.7436 218.271 67.6886 218.299 67.6428 218.345C65.2136 220.28 62.9872 222.458 60.9976 224.843C60.9976 224.66 61.071 224.476 61.1168 224.311C61.3826 223.395 61.6667 222.478 61.96 221.562C62.5553 219.626 63.4028 217.777 64.4806 216.062C64.5356 215.98 64.3981 215.906 64.3431 215.989C63.2486 217.694 62.2746 219.473 61.4284 221.314C61.0602 222.209 60.7539 223.127 60.5119 224.064C60.314 224.678 60.1639 225.306 60.0627 225.943C59.4578 226.713 58.862 227.492 58.2938 228.289C52.3269 236.795 49.3205 247.079 48.6056 257.372C48.3933 260.444 48.3413 263.525 48.4498 266.602C48.469 269.702 48.7419 272.795 49.2656 275.85C49.2656 276.043 49.6047 275.988 49.6047 275.795C49.5314 273.091 49.2564 270.397 49.2014 267.693C49.1464 264.989 49.2014 262.267 49.458 259.563C49.8973 254.159 50.9175 248.818 52.501 243.633C54.1186 238.326 56.5024 233.283 59.577 228.665C60.1636 228.546 60.741 228.39 61.3184 228.234C61.8959 228.079 62.7116 227.877 63.3991 227.684C64.7369 227.346 66.0361 226.869 67.2762 226.264C67.2846 226.259 67.292 226.252 67.2979 226.245C67.3039 226.237 67.3082 226.228 67.3108 226.219C67.3133 226.21 67.314 226.2 67.3128 226.19C67.3116 226.181 67.3085 226.171 67.3036 226.163C67.2988 226.154 67.2924 226.147 67.2847 226.141C67.2771 226.135 67.2683 226.131 67.2589 226.128C67.2496 226.126 67.2398 226.125 67.2302 226.126C67.2205 226.127 67.2113 226.131 67.2028 226.135C65.9725 226.801 64.6409 227.259 63.2616 227.492C62.18 227.712 61.0435 227.849 59.9528 228.097C60.961 226.63 62.0334 225.21 63.1883 223.844C65.8423 224.086 68.518 223.887 71.1074 223.257C72.4836 222.923 73.8369 222.501 75.1587 221.992C76.5518 221.461 77.9084 220.764 79.2465 220.159C79.3565 220.114 79.2465 219.958 79.1916 220.013C76.6988 221.374 73.9773 222.265 71.1624 222.643C68.6792 223.038 66.17 223.246 63.6557 223.267C64.6456 222.13 65.663 221.021 66.7537 219.985C70.42 216.502 74.7462 213.303 79.5857 211.635C79.5949 211.727 79.549 211.571 79.4574 211.608Z" fill="#263238"/>
<path d="M68.1286 211.672C67.5012 212.461 66.9315 213.294 66.4238 214.165C65.9059 215.084 65.4939 216.058 65.1956 217.07H65.2506C65.718 216.154 66.1121 215.237 66.5796 214.321C67.0417 213.421 67.5978 212.573 68.2386 211.791C68.3027 211.699 68.1927 211.589 68.1286 211.672Z" fill="#263238"/>
<path d="M45.7002 229.408C45.6177 230.214 43.6013 222.607 31.8325 215.861C21.1453 209.729 8.38666 193.771 18.8631 183.698C27.323 175.568 49.6048 193.295 45.7002 229.408Z" fill="#eb5454"/>
<path d="M53.8026 273.009C53.6408 265.092 53.0288 257.191 51.9694 249.343C51.0416 242.134 49.3769 235.04 47.0016 228.17C46.0851 225.696 45.1685 223.258 44.0411 220.838C44.1147 219.904 44.1147 218.967 44.0411 218.033C43.977 216.832 43.867 215.641 43.757 214.449C43.647 213.258 43.5278 212.057 43.3904 210.866C43.2529 209.674 42.9871 208.482 42.9412 207.291C42.9412 207.19 42.7671 207.208 42.7946 207.291C43.027 208.541 43.1679 209.806 43.2162 211.076C43.3079 212.231 43.372 213.386 43.4087 214.55C43.4453 215.714 43.4087 216.86 43.4087 218.024C43.4087 218.436 43.4087 218.886 43.4087 219.325C42.2996 216.988 41.1173 214.688 39.8341 212.442C40.6315 207.566 39.5958 202.47 38.5967 197.694C38.5967 197.603 38.4317 197.649 38.45 197.74C38.9387 200.232 39.1995 202.763 39.2291 205.302C39.2291 207.309 39.1741 209.307 39.1741 211.315C38.89 210.829 38.6059 210.352 38.3126 209.876C36.791 207.383 35.1626 204.938 33.4272 202.543C33.5695 201.386 33.5324 200.215 33.3173 199.069C33.1213 197.786 32.8364 196.518 32.4648 195.275C32.0926 194.032 31.6582 192.808 31.1633 191.608C30.65 190.371 29.9718 189.198 29.4768 187.942C29.4768 187.841 29.2843 187.942 29.3393 188.006C29.9668 189.169 30.4618 190.399 30.815 191.673C31.2036 192.876 31.5249 194.1 31.7774 195.339C32.0249 196.585 32.2265 197.823 32.4007 199.078C32.5198 199.903 32.5932 200.765 32.7306 201.599C30.2107 198.213 27.4541 195.009 24.4815 192.012C24.4174 191.938 24.3165 192.012 24.3807 192.122C28.8476 197.164 32.8366 202.611 36.2961 208.391C36.4244 208.611 36.5527 208.831 36.6719 209.051C36.0303 208.647 35.2879 208.317 34.6738 207.978C33.5372 207.346 32.3915 206.723 31.2458 206.145L27.9095 204.312C27.3412 203.991 26.7729 203.661 26.1955 203.396C25.4888 203.098 24.8082 202.743 24.1607 202.332C24.0782 202.268 23.9774 202.406 24.0691 202.461C25.2056 203.084 26.2047 204.01 27.3046 204.706C28.4044 205.403 29.5226 206.081 30.6592 206.713C32.749 207.887 35.0221 208.721 37.0752 209.931C38.505 212.433 39.8249 214.999 41.0348 217.612C39.7882 216.805 38.505 216.053 37.2127 215.32C36.3786 214.853 35.5445 214.404 34.7013 213.954C33.8607 213.563 33.0673 213.077 32.3365 212.506C32.2632 212.442 32.1624 212.506 32.2265 212.616C33.5984 213.852 35.1195 214.911 36.7544 215.769C38.2667 216.686 39.7882 217.502 41.3372 218.271C42.596 221.027 43.7295 223.835 44.7377 226.695C49.6964 240.718 51.5112 255.603 52.3819 270.397C52.6477 274.805 52.776 279.205 52.831 283.623C52.886 288.041 52.6569 292.44 52.666 296.84C52.666 296.977 52.8769 297.005 52.8952 296.84C53.4268 292.935 53.5185 288.957 53.6926 285.016C53.8667 281.075 53.8942 277.014 53.8026 273.009Z" fill="#263238"/>
<path d="M32.4191 209.518C30.2723 208.566 28.1849 207.486 26.1681 206.283C24.1236 205.132 22.1411 203.875 20.2287 202.516C20.2287 202.516 20.1646 202.516 20.2287 202.571C22.0336 204.027 23.9352 205.359 25.9206 206.558C27.9915 207.728 30.1344 208.766 32.3366 209.665C32.4374 209.665 32.5107 209.555 32.4191 209.518Z" fill="#263238"/>
<path d="M35.8287 193.661C35.6546 192.974 35.4438 192.305 35.2146 191.636C35.2211 191.625 35.2245 191.612 35.2245 191.599C35.2245 191.586 35.2211 191.573 35.2146 191.562C35.068 191.177 34.9122 190.802 34.7563 190.426L34.7014 190.288C34.7014 190.215 34.6372 190.151 34.6097 190.078C34.5639 190.078 34.5822 190.004 34.6097 190.078C34.6555 190.078 34.683 190.334 34.7289 190.472C34.743 190.543 34.7614 190.613 34.7838 190.682C35.5607 193.297 36.1428 195.965 36.5253 198.666C36.5253 198.748 36.6628 198.748 36.6628 198.666C36.545 196.975 36.2657 195.299 35.8287 193.661Z" fill="#263238"/>
<path d="M66.2404 275.851L65.3971 285.805L62.8307 316.161H35.2878L32.7214 285.805L31.8782 275.851H66.2404Z" fill="#37474F"/>
<path d="M66.2404 275.851L65.3971 285.805H32.7214L31.8782 275.851H66.2404Z" fill="#263238"/>
<path d="M68.9444 271.863H29.1836V281.414H68.9444V271.863Z" fill="#37474F"/>
<path d="M0 316.16L74.3063 315.94L148.613 315.858L297.225 315.702L445.838 315.858L520.144 315.94L594.451 316.16L520.144 316.39L445.838 316.463L297.225 316.619L148.613 316.463L74.3063 316.38L0 316.16Z" fill="#263238"/>
<path d="M512.574 49.3379H80.3284V338.479H512.574V49.3379Z" fill="#eb5454"/>
<path d="M509.43 52.8672H83.4722V334.951H509.43V52.8672Z" fill="#263238"/>
<path d="M568.869 360.156H24.0327V380H568.869V360.156Z" fill="#DBDBDB"/>
<path d="M24.0327 360.155L80.3376 338.479H512.574L568.879 360.155H24.0327Z" fill="#eb5454"/>
<path d="M85.3604 352.465L121.693 338.479H471.218L507.551 352.465H85.3604Z" fill="#263238"/>
<path d="M485.37 74.2959H107.551V313.521H485.37V74.2959Z" fill="white"/>
<path d="M485.37 74.2959H107.23V83.4983H485.37V74.2959Z" fill="#455A64"/>
<path d="M114.544 78.8975C114.544 79.3489 114.41 79.7901 114.159 80.1655C113.909 80.5408 113.552 80.8333 113.135 81.006C112.718 81.1788 112.259 81.224 111.817 81.1359C111.374 81.0478 110.967 80.8305 110.648 80.5113C110.329 80.1921 110.111 79.7855 110.023 79.3427C109.935 78.9 109.98 78.4411 110.153 78.0241C110.326 77.6071 110.618 77.2506 110.994 76.9999C111.369 76.7491 111.81 76.6152 112.262 76.6152C112.867 76.6152 113.448 76.8557 113.876 77.2837C114.304 77.7117 114.544 78.2922 114.544 78.8975Z" fill="#C7C7C7"/>
<path d="M123.866 78.8975C123.866 79.3489 123.732 79.7902 123.481 80.1655C123.23 80.5408 122.874 80.8333 122.457 81.006C122.04 81.1788 121.581 81.224 121.138 81.1359C120.695 81.0479 120.289 80.8305 119.969 80.5113C119.65 80.1921 119.433 79.7855 119.345 79.3428C119.257 78.9 119.302 78.4412 119.475 78.0241C119.647 77.6071 119.94 77.2507 120.315 76.9999C120.691 76.7491 121.132 76.6153 121.583 76.6153C121.883 76.614 122.181 76.6723 122.458 76.7865C122.736 76.9008 122.988 77.0688 123.2 77.281C123.412 77.4932 123.58 77.7453 123.694 78.0227C123.809 78.3001 123.867 78.5975 123.866 78.8975Z" fill="white"/>
<path d="M133.159 78.8975C133.159 79.3489 133.026 79.7902 132.775 80.1655C132.524 80.5408 132.168 80.8333 131.751 81.006C131.334 81.1788 130.875 81.224 130.432 81.1359C129.989 81.0479 129.583 80.8305 129.263 80.5113C128.944 80.1921 128.727 79.7855 128.639 79.3428C128.551 78.9 128.596 78.4412 128.769 78.0241C128.941 77.6071 129.234 77.2507 129.609 76.9999C129.985 76.7491 130.426 76.6153 130.877 76.6153C131.177 76.614 131.475 76.6723 131.752 76.7865C132.029 76.9008 132.282 77.0688 132.494 77.281C132.706 77.4932 132.874 77.7453 132.988 78.0227C133.103 78.3001 133.161 78.5975 133.159 78.8975Z" fill="#eb5454"/>
<path d="M485.37 83.498H478.661V313.511H485.37V83.498Z" fill="#DBDBDB"/>
<path d="M482.006 163.24C481.547 163.24 481.106 163.057 480.781 162.733C480.456 162.408 480.274 161.967 480.274 161.508V86.578C480.274 86.1186 480.456 85.678 480.781 85.3531C481.106 85.0282 481.547 84.8457 482.006 84.8457C482.466 84.8457 482.906 85.0282 483.231 85.3531C483.556 85.678 483.739 86.1186 483.739 86.578V161.508C483.739 161.967 483.556 162.408 483.231 162.733C482.906 163.057 482.466 163.24 482.006 163.24Z" fill="#A6A6A6"/>
<path d="M432.493 143.158H161.958V184.166H432.493V143.158Z" fill="white"/>
<path d="M432.951 184.615H161.5V142.7H432.951V184.615ZM162.416 183.698H432.034V143.617H162.416V183.698Z" fill="#DBDBDB"/>
<path d="M185.844 154.268C186.37 155.788 186.73 157.362 186.916 158.96C187.313 162.079 187.313 165.236 186.916 168.355C186.725 169.954 186.363 171.527 185.835 173.048C185.302 171.529 184.939 169.955 184.753 168.355C184.362 165.236 184.362 162.08 184.753 158.96C184.95 157.362 185.316 155.789 185.844 154.268Z" fill="#37474F"/>
<path d="M195.229 163.653C193.711 164.194 192.137 164.563 190.537 164.753C188.98 164.951 187.413 165.049 185.844 165.047C184.275 165.054 182.707 164.956 181.151 164.753C179.548 164.568 177.971 164.205 176.449 163.672C177.974 163.147 179.55 162.784 181.151 162.59C182.707 162.392 184.275 162.294 185.844 162.297C187.413 162.302 188.98 162.403 190.537 162.599C192.135 162.779 193.708 163.132 195.229 163.653Z" fill="#37474F"/>
<path d="M192.48 157.017C191.776 158.464 190.919 159.832 189.922 161.095C188.965 162.339 187.927 163.517 186.815 164.624C185.707 165.737 184.528 166.778 183.286 167.74C182.019 168.737 180.649 169.594 179.198 170.298C179.902 168.847 180.759 167.477 181.756 166.21C182.718 164.968 183.759 163.79 184.872 162.681C185.983 161.573 187.162 160.536 188.401 159.574C189.666 158.579 191.033 157.722 192.48 157.017Z" fill="#37474F"/>
<path d="M192.48 170.298C191.033 169.593 189.666 168.736 188.401 167.741C187.159 166.779 185.981 165.738 184.872 164.625C183.75 163.516 182.703 162.334 181.737 161.087C180.741 159.82 179.883 158.449 179.18 156.999C180.632 157.699 182.003 158.557 183.268 159.556C185.755 161.478 187.986 163.712 189.904 166.201C190.908 167.47 191.772 168.844 192.48 170.298Z" fill="#37474F"/>
<path d="M222.451 154.268C222.978 155.788 223.337 157.362 223.524 158.96C223.72 160.517 223.821 162.084 223.826 163.653C223.829 165.225 223.731 166.796 223.533 168.355C223.338 169.953 222.975 171.526 222.451 173.048C221.919 171.529 221.556 169.955 221.37 168.355C221.167 166.796 221.069 165.225 221.077 163.653C221.074 162.084 221.172 160.517 221.37 158.96C221.56 157.362 221.922 155.788 222.451 154.268Z" fill="#37474F"/>
<path d="M231.837 163.653C230.318 164.187 228.744 164.549 227.144 164.735C225.588 164.933 224.02 165.031 222.451 165.028C220.879 165.035 219.309 164.937 217.749 164.735C216.15 164.548 214.576 164.186 213.057 163.653C214.579 163.129 216.152 162.767 217.749 162.572C219.309 162.374 220.879 162.276 222.451 162.278C224.02 162.283 225.588 162.384 227.144 162.581C228.743 162.767 230.316 163.127 231.837 163.653Z" fill="#37474F"/>
<path d="M229.087 157.017C228.384 158.464 227.527 159.832 226.53 161.095C225.573 162.339 224.535 163.517 223.423 164.624C222.315 165.737 221.136 166.778 219.894 167.74C218.627 168.737 217.257 169.594 215.806 170.298C216.51 168.847 217.367 167.477 218.364 166.21C219.326 164.968 220.367 163.79 221.48 162.681C222.587 161.569 223.766 160.531 225.009 159.574C226.272 158.577 227.64 157.72 229.087 157.017Z" fill="#37474F"/>
<path d="M229.087 170.298C227.64 169.595 226.272 168.738 225.009 167.741C223.763 166.783 222.584 165.742 221.48 164.625C220.377 163.514 219.348 162.333 218.4 161.087C217.404 159.82 216.546 158.449 215.843 156.999C217.295 157.699 218.666 158.557 219.931 159.556C222.418 161.478 224.648 163.712 226.567 166.201C227.552 167.473 228.397 168.846 229.087 170.298Z" fill="#37474F"/>
<path d="M259.05 154.268C259.584 155.787 259.946 157.361 260.132 158.96C260.329 160.517 260.427 162.084 260.425 163.653C260.432 165.225 260.334 166.796 260.132 168.355C259.945 169.955 259.583 171.529 259.05 173.048C258.525 171.527 258.165 169.954 257.978 168.355C257.777 166.796 257.676 165.225 257.675 163.653C257.68 162.084 257.781 160.517 257.978 158.96C258.164 157.362 258.524 155.788 259.05 154.268Z" fill="#37474F"/>
<path d="M268.445 163.653C266.925 164.186 265.352 164.548 263.752 164.735C262.193 164.933 260.622 165.031 259.05 165.028C257.481 165.035 255.913 164.937 254.357 164.735C252.758 164.549 251.184 164.187 249.665 163.653C251.186 163.128 252.759 162.766 254.357 162.572C255.914 162.374 257.481 162.276 259.05 162.278C260.622 162.283 262.193 162.384 263.752 162.581C265.351 162.768 266.924 163.128 268.445 163.653Z" fill="#37474F"/>
<path d="M265.695 157.017C264.992 158.464 264.134 159.832 263.138 161.095C262.181 162.339 261.143 163.517 260.031 164.624C258.922 165.737 257.744 166.778 256.502 167.74C255.235 168.737 253.864 169.594 252.414 170.298C253.114 168.845 253.972 167.475 254.971 166.21C255.933 164.971 256.971 163.792 258.078 162.681C259.191 161.571 260.372 160.533 261.616 159.574C262.88 158.577 264.248 157.72 265.695 157.017Z" fill="#37474F"/>
<path d="M265.695 170.298C264.248 169.595 262.88 168.738 261.616 167.741C260.37 166.781 259.188 165.74 258.078 164.625C256.968 163.513 255.93 162.331 254.971 161.087C253.972 159.822 253.114 158.451 252.414 156.999C253.866 157.699 255.237 158.557 256.502 159.556C258.989 161.478 261.219 163.712 263.138 166.201C264.136 167.471 264.993 168.845 265.695 170.298Z" fill="#37474F"/>
<path d="M295.658 154.268C296.187 155.788 296.55 157.362 296.739 158.96C297.13 162.08 297.13 165.236 296.739 168.355C296.553 169.955 296.19 171.529 295.658 173.048C295.13 171.527 294.767 169.954 294.576 168.355C294.378 166.796 294.28 165.225 294.283 163.653C294.288 162.084 294.389 160.517 294.585 158.96C294.772 157.362 295.132 155.788 295.658 154.268Z" fill="#37474F"/>
<path d="M305.053 163.653C303.533 164.186 301.959 164.548 300.36 164.735C298.8 164.933 297.23 165.031 295.658 165.028C294.089 165.035 292.521 164.937 290.965 164.735C289.366 164.549 287.792 164.187 286.272 163.653C287.794 163.128 289.367 162.766 290.965 162.572C292.521 162.374 294.089 162.276 295.658 162.278C297.23 162.283 298.8 162.384 300.36 162.581C301.958 162.768 303.532 163.128 305.053 163.653Z" fill="#37474F"/>
<path d="M302.303 157.017C301.6 158.464 300.742 159.832 299.746 161.095C298.785 162.339 297.744 163.517 296.63 164.624C295.525 165.742 294.346 166.783 293.101 167.74C291.837 168.737 290.469 169.594 289.022 170.298C289.718 168.843 290.576 167.472 291.579 166.21C292.538 164.968 293.576 163.79 294.686 162.681C295.797 161.573 296.976 160.536 298.215 159.574C299.484 158.579 300.854 157.722 302.303 157.017Z" fill="#37474F"/>
<path d="M302.303 170.298C300.854 169.592 299.484 168.735 298.215 167.74C296.974 166.778 295.795 165.737 294.686 164.624C293.574 163.521 292.536 162.345 291.579 161.105C290.576 159.842 289.718 158.471 289.022 157.017C290.471 157.717 291.839 158.574 293.101 159.574C294.346 160.528 295.525 161.567 296.63 162.681C297.742 163.793 298.783 164.975 299.746 166.219C300.742 167.483 301.6 168.85 302.303 170.298Z" fill="#37474F"/>
<path d="M332.266 154.268C332.791 155.789 333.153 157.362 333.347 158.96C333.738 162.08 333.738 165.236 333.347 168.355C333.161 169.955 332.798 171.529 332.266 173.048C331.737 171.527 331.375 169.954 331.184 168.355C330.787 165.236 330.787 162.079 331.184 158.96C331.374 157.362 331.736 155.788 332.266 154.268Z" fill="#37474F"/>
<path d="M341.661 163.653C340.138 164.187 338.561 164.55 336.959 164.735C335.402 164.933 333.835 165.031 332.266 165.028C330.697 165.035 329.129 164.937 327.573 164.735C325.976 164.55 324.405 164.187 322.889 163.653C324.411 163.127 325.984 162.765 327.582 162.572C329.138 162.374 330.706 162.276 332.275 162.278C333.844 162.283 335.411 162.384 336.968 162.581C338.566 162.768 340.139 163.128 341.661 163.653Z" fill="#37474F"/>
<path d="M338.911 157.017C338.208 158.466 337.347 159.834 336.344 161.095C334.419 163.579 332.19 165.812 329.708 167.74C328.445 168.737 327.077 169.594 325.63 170.298C326.326 168.843 327.184 167.472 328.187 166.21C329.146 164.968 330.184 163.79 331.294 162.681C332.405 161.573 333.584 160.536 334.823 159.574C336.09 158.577 337.46 157.72 338.911 157.017Z" fill="#37474F"/>
<path d="M338.911 170.298C337.46 169.594 336.09 168.737 334.823 167.74C333.581 166.778 332.403 165.737 331.294 164.624C330.182 163.521 329.144 162.345 328.187 161.105C327.184 159.842 326.326 158.471 325.63 157.017C327.079 157.717 328.447 158.574 329.708 159.574C330.954 160.528 332.133 161.567 333.237 162.681C334.35 163.791 335.388 164.973 336.344 166.219C337.347 167.48 338.208 168.848 338.911 170.298Z" fill="#37474F"/>
<path d="M368.874 154.268C369.4 155.788 369.759 157.362 369.946 158.96C370.343 162.079 370.343 165.236 369.946 168.355C369.755 169.954 369.393 171.527 368.864 173.048C368.332 171.529 367.969 169.955 367.783 168.355C367.392 165.236 367.392 162.08 367.783 158.96C367.98 157.362 368.346 155.789 368.874 154.268Z" fill="#37474F"/>
<path d="M378.259 163.653C376.74 164.188 375.166 164.551 373.566 164.735C372.01 164.933 370.443 165.031 368.874 165.028C367.305 165.036 365.737 164.938 364.181 164.735C362.578 164.55 361.001 164.187 359.479 163.653C361.004 163.128 362.58 162.766 364.181 162.572C365.737 162.373 367.305 162.275 368.874 162.278C370.443 162.283 372.01 162.384 373.566 162.581C375.165 162.766 376.739 163.126 378.259 163.653Z" fill="#37474F"/>
<path d="M375.509 157.017C374.813 158.468 373.955 159.836 372.952 161.095C371.998 162.341 370.96 163.52 369.845 164.624C368.737 165.737 367.558 166.778 366.316 167.74C365.051 168.735 363.684 169.592 362.238 170.298C362.934 168.846 363.789 167.475 364.786 166.21C366.714 163.728 368.947 161.499 371.431 159.574C372.696 158.579 374.063 157.722 375.509 157.017Z" fill="#37474F"/>
<path d="M375.509 170.298C374.063 169.592 372.696 168.735 371.431 167.74C368.952 165.809 366.721 163.58 364.786 161.105C363.789 159.84 362.934 158.469 362.238 157.017C363.686 157.719 365.053 158.576 366.316 159.574C367.558 160.533 368.736 161.571 369.845 162.681C370.957 163.791 371.995 164.973 372.952 166.219C373.955 167.478 374.813 168.846 375.509 170.298Z" fill="#37474F"/>
<path d="M343.485 155.367V205.283H329.379V155.367C329.379 136.384 314.961 120.949 297.225 120.949C279.49 120.949 265.072 136.384 265.072 155.367V205.283H250.966V155.367C250.966 128.181 271.717 106.092 297.225 106.092C322.733 106.092 343.485 128.181 343.485 155.367Z" fill="#455A64"/>
<path d="M250.966 168.346L265.072 168.914V205.283H250.966V168.346Z" fill="#263238"/>
<path d="M343.485 172.113V205.283H329.379V171.535L343.485 172.113Z" fill="#263238"/>
<path d="M361.569 176.86H232.891V293.604H361.569V176.86Z" fill="#eb5454"/>
<path opacity="0.1" d="M361.559 176.86H297.225V293.604H361.559V176.86Z" fill="black"/>
<path d="M302.67 239.508L308.05 265.053H285.191L290.58 239.508C288.473 238.195 286.85 236.231 285.958 233.913C285.066 231.596 284.953 229.051 285.636 226.664C286.319 224.277 287.761 222.177 289.744 220.682C291.726 219.187 294.142 218.378 296.625 218.378C299.108 218.378 301.524 219.187 303.506 220.682C305.489 222.177 306.931 224.277 307.614 226.664C308.297 229.051 308.184 231.596 307.292 233.913C306.4 236.231 304.777 238.195 302.67 239.508Z" fill="#263238"/>
<path d="M259.848 239.462C259.848 239.462 253.12 293.319 242.066 305.455C228.795 319.992 219.152 317.865 213.799 325.363C208.447 317.856 198.814 319.992 185.523 305.446C174.469 293.319 167.751 239.453 167.751 239.453C196.88 225.319 213.818 209.472 213.818 209.472C214.322 209.967 231.168 225.548 259.848 239.462Z" fill="#eb5454"/>
<path d="M213.818 209.481V325.354C208.465 317.847 198.832 319.982 185.542 305.436C174.488 293.31 167.769 239.443 167.769 239.443C196.88 225.319 213.818 209.472 213.818 209.472V209.481Z" fill="#DBDBDB"/>
<path d="M252.708 243.806C252.708 243.806 247.025 289.295 237.685 299.543C226.457 311.843 218.318 310.037 213.79 316.371C209.262 310.037 201.123 311.843 189.905 299.543C180.565 289.295 174.891 243.806 174.891 243.806C199.501 231.891 213.79 218.463 213.79 218.463C213.79 218.463 228.098 231.854 252.708 243.806Z" fill="#DBDBDB"/>
<path d="M174.9 243.806C174.9 243.806 180.583 289.296 189.923 299.543C201.132 311.834 209.235 310.038 213.818 316.353V218.481C213.369 218.885 199.153 232.038 174.9 243.806Z" fill="#C7C7C7"/>
<path d="M226.554 280.173C233.598 273.129 233.598 261.707 226.554 254.663C219.51 247.619 208.088 247.619 201.044 254.663C194 261.707 194 273.129 201.044 280.173C208.088 287.217 219.51 287.217 226.554 280.173Z" fill="#eb5454"/>
<path d="M211.746 279.14L203.708 270.781L206.687 267.912L211.114 272.523L220.665 257.876L224.129 260.131L211.746 279.14Z" fill="white"/>
<path d="M151.57 329.69L153.71 318.734L281.702 343.729C282.871 343.957 283.901 344.64 284.566 345.628C285.232 346.616 285.477 347.828 285.249 348.997L284.831 351.138C284.602 352.307 283.919 353.338 282.931 354.003C281.943 354.668 280.731 354.914 279.562 354.685L151.57 329.69Z" fill="#eb5454"/>
<path opacity="0.1" d="M153.7 318.722L151.559 329.688L167.014 332.706L169.155 321.74L153.7 318.722Z" fill="black"/>
<path d="M104.745 304.749L100.978 324.236C100.341 327.502 100.353 330.863 101.015 334.124C101.676 337.386 102.973 340.486 104.832 343.247C106.692 346.007 109.077 348.375 111.851 350.214C114.625 352.053 117.734 353.327 121.001 353.964C124.267 354.602 127.628 354.589 130.89 353.928C134.152 353.267 137.251 351.97 140.012 350.11C142.773 348.251 145.14 345.866 146.979 343.092C148.818 340.318 150.092 337.209 150.73 333.942L154.524 314.502C155.818 307.9 154.436 301.056 150.682 295.474C146.929 289.892 141.112 286.029 134.511 284.736C127.91 283.443 121.065 284.825 115.483 288.578C109.901 292.331 106.039 298.148 104.745 304.749ZM146.532 309.616C145.404 315.4 140.354 319.57 134.112 320.569C139.52 323.86 142.636 329.607 141.5 335.39C139.997 343.126 131.463 347.984 122.454 346.224C113.444 344.464 107.385 336.756 108.897 329.029C110.025 323.246 115.075 319.075 121.326 318.03C115.909 314.758 112.802 308.993 113.929 303.209C115.442 295.464 123.957 290.625 132.957 292.385C141.958 294.145 148.081 301.88 146.568 309.616H146.532Z" fill="#eb5454"/>
<path d="M154.662 313.783L150.591 334.626C150.372 335.749 151.105 336.837 152.227 337.056L153.217 337.249C154.34 337.469 155.428 336.736 155.647 335.613L159.717 314.77C159.937 313.647 159.204 312.559 158.081 312.34L157.092 312.147C155.969 311.928 154.881 312.66 154.662 313.783Z" fill="#eb5454"/>
<path d="M159.718 314.772L155.647 335.615C155.428 336.738 156.16 337.826 157.283 338.045L158.273 338.239C159.396 338.458 160.484 337.726 160.703 336.603L164.773 315.76C164.993 314.637 164.26 313.549 163.137 313.329L162.148 313.136C161.025 312.917 159.937 313.649 159.718 314.772Z" fill="#eb5454"/>
<path d="M251.112 333.053L254.925 333.795L257.079 322.723L260.342 323.355L259.215 329.13L263.019 329.872L264.146 324.098L267.033 324.657L265.246 333.786L269.059 334.537L270.846 325.408L274.934 326.206L272.56 338.396L276.373 339.139L278.756 326.948L282.624 327.709L279.581 343.291L245.521 336.636L248.555 321.055L253.266 321.971L251.112 333.053Z" fill="#eb5454"/>
<path d="M382.466 275.979L357.49 296.143C352.696 299.974 348.562 303.421 346.592 305.41C346.083 305.828 345.673 306.354 345.391 306.949C345.391 306.949 345.391 306.949 345.391 307.004C345.565 309.195 375.079 348.397 376.554 349.414C378.03 350.431 381.073 346.27 381.137 343.841C381.201 341.412 376.619 321.34 376.619 321.34L401.366 300.937L382.466 275.979Z" fill="#C95F50"/>
<path d="M362.586 292.027L357.462 296.161C352.669 299.992 348.535 303.439 346.564 305.428C346.104 305.892 345.701 306.408 345.364 306.967C345.364 306.967 345.364 306.967 345.364 307.022C345.538 309.213 375.051 348.415 376.527 349.432C378.003 350.449 381.046 346.288 381.11 343.859C381.174 341.43 376.591 321.358 376.591 321.358L381.852 317.224L362.586 292.027Z" fill="#eb5454"/>
<path d="M376.499 349.46C375.005 348.442 345.501 309.25 345.336 307.041C345.253 306.207 350.716 301.541 357.471 296.17L357.691 295.996L376.967 321.073L376.536 321.385C376.536 321.385 381.119 341.44 381.055 343.887C380.99 346.334 377.984 350.486 376.499 349.46Z" fill="#eb5454"/>
<path d="M377.682 347.874C372.87 341.147 352.834 314.465 347.563 308.178C347.49 308.178 347.563 308.123 347.563 308.178C352.146 314.951 372.439 341.477 377.618 347.929C377.691 348.067 377.792 348.067 377.682 347.874Z" fill="#263238"/>
<path d="M378.085 323.566C376.609 320.606 373.823 317.719 370.468 317.15C370.34 317.15 370.312 317.306 370.404 317.38C373.071 319.249 375.529 321.4 377.737 323.796C377.77 323.833 377.816 323.857 377.866 323.864C377.916 323.87 377.967 323.859 378.009 323.831C378.052 323.803 378.082 323.761 378.096 323.713C378.11 323.664 378.106 323.612 378.085 323.566Z" fill="#263238"/>
<path d="M378.369 326.298C376.894 323.328 374.098 320.45 370.753 319.882C370.624 319.882 370.597 320.047 370.679 320.111C373.346 321.981 375.804 324.132 378.012 326.527C378.027 326.55 378.046 326.571 378.069 326.587C378.092 326.603 378.118 326.614 378.145 326.62C378.172 326.626 378.201 326.626 378.228 326.621C378.255 326.616 378.282 326.606 378.305 326.591C378.329 326.576 378.349 326.557 378.365 326.534C378.381 326.511 378.392 326.485 378.398 326.458C378.404 326.431 378.404 326.402 378.399 326.375C378.395 326.347 378.384 326.321 378.369 326.298Z" fill="#263238"/>
<path d="M378.644 329.02C377.178 326.06 374.382 323.182 371.037 322.604C370.908 322.604 370.872 322.769 370.963 322.834C373.628 324.706 376.086 326.857 378.296 329.25C378.311 329.272 378.33 329.292 378.353 329.308C378.376 329.323 378.401 329.334 378.428 329.339C378.455 329.345 378.482 329.345 378.509 329.34C378.536 329.335 378.562 329.324 378.585 329.309C378.607 329.294 378.627 329.275 378.642 329.252C378.658 329.229 378.669 329.204 378.674 329.177C378.68 329.15 378.68 329.123 378.675 329.096C378.67 329.069 378.659 329.043 378.644 329.02Z" fill="#263238"/>
<path d="M395.94 251.946C394.171 260.681 357.939 295.52 357.939 295.52L383.199 324.676C383.199 324.676 434.637 273.348 431.952 254.036C429.614 237.254 404.455 169.767 404.455 169.767H375.509C375.509 169.767 397.672 243.358 395.94 251.946Z" fill="#37474F"/>
<path d="M395.94 251.946C394.171 260.681 357.939 295.52 357.939 295.52L383.199 324.676C383.199 324.676 434.637 273.348 431.952 254.036C429.614 237.254 404.455 169.767 404.455 169.767H375.509C375.509 169.767 397.672 243.358 395.94 251.946Z" fill="#37474F"/>
<path d="M386.068 317.747C382.714 313.567 383.74 314.722 380.34 310.579C378.672 308.554 367.719 295.254 365.831 293.632C365.831 293.632 365.721 293.632 365.748 293.705C367.013 295.841 378.195 308.948 379.9 310.946C383.383 315.015 382.43 313.815 385.949 317.848C386.023 317.921 386.133 317.82 386.068 317.747Z" fill="#263238"/>
<path d="M399.542 247.693C399.12 245.511 398.625 243.339 398.195 241.167C397.247 236.731 396.248 232.31 395.197 227.904C393.108 219.16 390.837 210.465 388.387 201.819C385.922 193.148 383.309 184.486 380.294 175.98C379.927 174.926 379.542 173.882 379.157 172.837C379.157 172.82 379.151 172.803 379.139 172.791C379.127 172.779 379.11 172.772 379.093 172.772C379.076 172.772 379.06 172.779 379.048 172.791C379.036 172.803 379.029 172.82 379.029 172.837C381.641 181.361 384.327 189.857 386.765 198.418C389.203 206.979 391.449 215.54 393.575 224.155C394.638 228.482 395.628 232.826 396.6 237.171C397.076 239.306 397.516 241.451 397.993 243.587C398.559 245.76 398.966 247.972 399.212 250.204C399.278 252.319 398.682 254.402 397.507 256.162C396.416 257.94 395.142 259.608 393.905 261.286C391.43 264.64 367.838 290.937 367.077 291.652C367.013 291.707 367.077 291.789 367.169 291.734C370.331 288.893 390.349 267.225 392.888 263.87C394.152 262.211 395.371 260.534 396.554 258.829C397.758 257.291 398.727 255.583 399.432 253.761C399.989 251.781 400.027 249.691 399.542 247.693Z" fill="#263238"/>
<path d="M399.478 169.767L394.217 238.83C389.194 215.192 375.51 169.767 375.51 169.767H399.478Z" fill="#263238"/>
<path d="M387.049 311.963C387.049 311.963 393.309 342.43 393.309 342.457C393.392 348.589 393.575 353.969 393.923 356.746C393.932 357.405 394.095 358.051 394.4 358.635C396.233 359.844 445.297 360.605 447.02 360.055C448.743 359.505 447.314 354.556 445.425 353.016C443.537 351.476 424.894 342.778 424.894 342.778L418.332 312.33L387.049 311.963Z" fill="#C95F50"/>
<path d="M447.066 360.137C445.352 360.687 396.288 359.927 394.446 358.717C394.147 358.131 393.984 357.486 393.969 356.829C393.965 356.811 393.965 356.792 393.969 356.774C393.612 354.024 393.438 348.634 393.346 342.493L392.264 337.187H423.712L424.94 342.888C424.94 342.888 443.592 351.586 445.49 353.135C447.387 354.684 448.798 359.597 447.066 360.137Z" fill="#eb5454"/>
<path d="M447.066 360.138C445.343 360.688 396.288 359.927 394.446 358.718C393.731 358.268 393.428 351.11 393.309 342.458V342.183L424.958 342.32V342.861C424.958 342.861 443.602 351.55 445.49 353.099C447.378 354.648 448.789 359.597 447.066 360.138Z" fill="#eb5454"/>
<path d="M446.544 358.231C438.294 357.901 404.904 357.314 396.71 357.644C396.646 357.644 396.646 357.69 396.71 357.699C404.895 358.203 438.267 358.488 446.544 358.368C446.718 358.359 446.718 358.24 446.544 358.231Z" fill="#263238"/>
<path d="M427.598 342.998C424.354 342.338 420.366 342.778 417.837 345.06C417.745 345.143 417.837 345.28 417.974 345.253C421.101 344.299 424.321 343.684 427.58 343.42C427.607 343.421 427.635 343.417 427.661 343.407C427.687 343.398 427.711 343.383 427.732 343.365C427.752 343.346 427.769 343.323 427.78 343.298C427.792 343.273 427.799 343.246 427.8 343.218C427.801 343.191 427.797 343.163 427.787 343.137C427.778 343.111 427.763 343.087 427.745 343.066C427.726 343.046 427.703 343.029 427.678 343.018C427.653 343.006 427.626 342.999 427.598 342.998Z" fill="#263238"/>
<path d="M429.917 344.446C426.682 343.787 422.685 344.226 420.165 346.509C420.073 346.6 420.165 346.738 420.302 346.701C423.426 345.748 426.643 345.133 429.899 344.868C429.955 344.871 430.009 344.851 430.051 344.813C430.092 344.775 430.116 344.722 430.119 344.666C430.121 344.611 430.101 344.556 430.063 344.515C430.026 344.473 429.973 344.449 429.917 344.446Z" fill="#263238"/>
<path d="M432.245 345.904C429 345.244 425.013 345.684 422.493 347.957C422.392 348.048 422.493 348.186 422.63 348.158C425.755 347.209 428.972 346.595 432.227 346.325C432.254 346.326 432.282 346.322 432.308 346.313C432.334 346.303 432.358 346.289 432.379 346.27C432.399 346.251 432.415 346.229 432.427 346.204C432.439 346.179 432.446 346.151 432.447 346.124C432.448 346.096 432.444 346.068 432.434 346.042C432.425 346.016 432.41 345.992 432.391 345.972C432.373 345.951 432.35 345.935 432.325 345.923C432.3 345.912 432.273 345.905 432.245 345.904Z" fill="#263238"/>
<path d="M401.714 169.766C400.586 174.531 399.753 179.361 399.221 184.229C398.625 190.297 397.865 195.668 397.058 196.337C396.251 197.006 391.558 200.004 390.019 200.92C390.019 200.92 404.299 244.219 407.983 258.664C413.327 279.58 426.122 342.356 426.122 342.356H392.026C392.026 342.356 381.66 282.605 377.123 262.679C373.236 245.603 358.351 194.376 358.351 194.376C356.781 190.426 356.075 186.186 356.282 181.941C356.49 177.695 357.604 173.544 359.552 169.766C359.552 169.766 401.714 169.748 401.714 169.766Z" fill="#37474F"/>
<path d="M424.876 335.757C419.514 335.757 421.054 335.665 415.71 335.693C413.089 335.693 395.857 335.821 393.419 336.27C393.405 336.27 393.391 336.276 393.38 336.286C393.37 336.297 393.364 336.31 393.364 336.325C393.364 336.34 393.37 336.354 393.38 336.364C393.391 336.374 393.405 336.38 393.419 336.38C395.876 336.747 413.098 336.325 415.719 336.261C421.081 336.123 419.542 336.105 424.885 335.913C424.901 335.906 424.914 335.895 424.924 335.88C424.933 335.866 424.937 335.849 424.936 335.831C424.935 335.814 424.929 335.798 424.918 335.784C424.907 335.771 424.893 335.761 424.876 335.757Z" fill="#263238"/>
<path d="M399.45 194.624C396.139 196.446 392.993 198.553 390.046 200.921C390.028 200.94 390.018 200.965 390.015 200.992C390.013 201.018 390.02 201.045 390.035 201.067C390.05 201.089 390.072 201.106 390.097 201.114C390.122 201.122 390.15 201.122 390.175 201.113C393.364 199.115 396.591 197.172 399.698 195C399.736 194.962 399.76 194.913 399.766 194.86C399.771 194.807 399.758 194.754 399.729 194.71C399.7 194.665 399.656 194.632 399.605 194.617C399.554 194.601 399.5 194.603 399.45 194.624Z" fill="#263238"/>
<path d="M396.847 171.068C396.847 170.949 396.609 170.958 396.627 171.068C397.221 174.88 397.622 178.719 397.828 182.571C397.947 184.349 398.039 194.294 394.877 194.056C394.345 194.056 393.96 193.561 393.804 192.8C393.662 191.792 393.643 190.77 393.749 189.757C393.749 187.667 393.749 185.587 393.584 183.497C393.341 179.638 392.702 175.814 391.678 172.086C391.678 172.059 391.667 172.033 391.648 172.014C391.629 171.996 391.604 171.985 391.577 171.985C391.55 171.985 391.525 171.996 391.506 172.014C391.487 172.033 391.476 172.059 391.476 172.086C392.391 177.38 392.906 182.736 393.016 188.107C393.016 190.701 392.347 194.707 395.051 194.679C397.755 194.652 398.561 188.007 398.616 186.219C398.685 181.114 398.09 176.021 396.847 171.068Z" fill="#263238"/>
<path d="M394.996 194.33C394.828 195.027 394.705 195.734 394.629 196.447C394.528 197.011 394.528 197.588 394.629 198.152C394.638 198.174 394.653 198.193 394.673 198.206C394.692 198.219 394.715 198.226 394.739 198.226C394.763 198.226 394.785 198.219 394.805 198.206C394.825 198.193 394.84 198.174 394.849 198.152C395.094 197.607 395.249 197.025 395.307 196.429C395.445 195.769 395.591 195.118 395.711 194.449C395.726 194.354 395.704 194.257 395.648 194.179C395.592 194.101 395.507 194.048 395.413 194.032C395.318 194.016 395.221 194.039 395.142 194.095C395.064 194.151 395.011 194.235 394.996 194.33Z" fill="#263238"/>
<path d="M363.218 194.156C366.155 193.993 369.058 193.444 371.852 192.525C375.025 191.511 377.901 189.736 380.23 187.355C381.548 186.047 382.636 184.525 383.447 182.855C383.447 182.791 383.575 182.855 383.557 182.91C383.059 184.528 382.29 186.049 381.284 187.41C380.242 188.758 379.007 189.944 377.618 190.93C374.868 192.946 371.632 194.195 368.241 194.55C366.569 194.81 364.864 194.785 363.2 194.477C362.934 194.44 363.008 194.175 363.218 194.156Z" fill="#263238"/>
<path d="M388.039 316.967C387.956 316.179 387.846 315.391 387.736 314.602C387.526 313.099 387.269 311.587 387.031 310.084C386.572 307.05 386.05 304.025 385.509 301.01C384.446 294.988 383.209 288.984 381.907 283.008C381.165 279.635 380.312 276.299 379.405 272.926C379.35 272.688 379.02 272.807 379.057 273.027C379.606 276.088 380.138 279.14 380.761 282.192C381.385 285.245 382.008 288.251 382.595 291.285C383.786 297.279 384.895 303.301 386.087 309.295C386.417 310.991 386.728 312.687 387.058 314.382C387.223 315.226 387.388 316.078 387.571 316.912C387.755 317.746 388.011 318.58 388.149 319.423C388.149 319.506 388.286 319.469 388.277 319.423C388.149 318.608 388.14 317.819 388.039 316.967Z" fill="#263238"/>
<path d="M411.558 271.661C410.421 266.006 408.891 260.424 407.351 254.86C404.253 243.678 400.605 232.652 396.966 221.625C395.915 218.454 394.864 215.28 393.813 212.102C393.291 210.517 390.724 201.947 390.404 201.103C390.398 201.089 390.389 201.077 390.377 201.069C390.364 201.06 390.35 201.056 390.335 201.056C390.32 201.056 390.305 201.06 390.293 201.069C390.281 201.077 390.271 201.089 390.266 201.103C391.009 204.018 392.017 208.271 392.869 211.186C393.722 214.1 394.629 216.878 395.518 219.71C397.26 225.292 399.029 230.874 400.715 236.465C404.06 247.528 407.378 258.591 410.092 269.828C410.852 272.981 411.613 276.125 412.3 279.287C412.988 282.449 413.593 285.62 414.253 288.783C414.253 288.874 414.418 288.847 414.409 288.783C413.84 283.045 412.713 277.344 411.558 271.661Z" fill="#263238"/>
<path d="M390.358 301.257C388.479 290.469 386.233 279.736 383.74 269.067C381.247 258.398 378.452 247.693 375.381 237.125C372.311 226.557 368.91 216.044 365.299 205.687C363.46 200.8 361.914 195.808 360.67 190.737C359.543 185.696 358.975 180.243 360.148 175.156C360.434 173.865 360.823 172.599 361.312 171.37C361.312 171.288 361.22 171.214 361.183 171.297C357.086 180.857 359.744 191.306 362.87 200.728C364.575 205.888 366.399 211.012 368.094 216.181C369.79 221.351 371.477 226.813 373.071 232.166C376.215 242.771 379.139 253.44 381.751 264.182C384.364 274.924 386.701 285.74 388.754 296.61C390.807 307.481 392.539 318.47 394.299 329.423C394.528 330.853 394.702 332.283 394.895 333.713C394.895 333.795 395.023 333.795 395.014 333.713C393.658 322.852 392.228 312.036 390.358 301.257Z" fill="#263238"/>
<path d="M389.661 124.497C393.676 139.162 405.243 156.852 410.742 159.326C415.527 161.453 437.726 153.24 446.104 147.906C448.487 146.384 438.634 132.663 435.765 133.616C426.388 136.742 416.187 141.361 415.399 141.096C413.804 140.555 403.85 128.346 396.6 120.134C388.47 110.904 388.066 118.658 389.661 124.497Z" fill="#C95F50"/>
<path d="M461.933 135.468C463.821 134.68 478.348 134.222 478.348 131.069C478.348 127.916 459.852 128.796 459.852 128.796L461.933 135.468Z" fill="#C95F50"/>
<path d="M434.069 135.835C436.608 132.682 438.844 129.281 441.053 128.658C442.575 128.227 459.027 128.933 461.594 128.777C464.16 128.621 473.335 128.86 473.509 131.114C473.812 134.295 462.959 134.267 461.805 135.899C457.799 141.517 442.557 149.831 442.557 149.831L434.069 135.835Z" fill="#C95F50"/>
<path d="M473.793 131.161C473.625 130.575 473.251 130.071 472.739 129.74C471.538 129.083 470.185 128.751 468.816 128.778C466.81 128.597 464.793 128.582 462.785 128.732C462.785 128.732 462.785 128.796 462.785 128.805C464.297 128.805 465.791 128.805 467.295 128.97C468.674 129.021 470.042 129.231 471.373 129.593C471.971 129.747 472.514 130.065 472.941 130.51C473.088 130.677 473.19 130.88 473.237 131.098C473.283 131.317 473.273 131.543 473.207 131.756C472.776 133.14 470.035 133.59 468.77 133.837C467.121 134.204 465.407 134.524 463.748 134.864C463.674 134.864 463.748 134.992 463.748 134.974C465.471 134.634 467.286 134.506 469.018 134.195C470.464 134.053 471.851 133.549 473.051 132.728C473.312 132.565 473.52 132.331 473.652 132.053C473.784 131.775 473.833 131.466 473.793 131.161Z" fill="#263238"/>
<path d="M433.437 133.892L446.452 152.948C446.452 152.948 426.288 163.03 418.57 162.874C411.237 162.7 408.57 161.618 406.251 159.428C404.812 158.071 396.646 146.532 389.982 127.348C384.391 111.271 392.668 113.599 400.064 122.545C403.731 126.981 415.5 140.207 416.086 140.162C416.673 140.116 433.437 133.892 433.437 133.892Z" fill="#eb5454"/>
<path d="M429.431 136.99C431.384 139.813 433.253 142.691 435.096 145.587C436.012 146.999 439.385 152.773 440.366 154.414C440.366 154.478 440.229 154.588 440.183 154.524C439.165 153.076 435.49 147.31 434.601 145.881C432.768 142.957 431.035 140.024 429.349 137.045C429.345 137.039 429.343 137.033 429.342 137.027C429.34 137.021 429.34 137.014 429.342 137.008C429.343 137.001 429.345 136.995 429.349 136.99C429.353 136.984 429.357 136.98 429.363 136.976C429.368 136.972 429.374 136.97 429.381 136.969C429.387 136.967 429.393 136.967 429.4 136.969C429.406 136.97 429.412 136.973 429.418 136.976C429.423 136.98 429.428 136.984 429.431 136.99Z" fill="#263238"/>
<path opacity="0.1" d="M422.475 162.388C421.197 162.703 419.886 162.866 418.57 162.874C411.237 162.7 408.57 161.618 406.251 159.428C404.821 158.071 396.646 146.541 389.991 127.348C388.946 124.691 388.327 121.885 388.158 119.035C388.158 118.86 388.158 118.677 388.158 118.512C388.149 118.35 388.149 118.188 388.158 118.026C388.173 117.894 388.194 117.762 388.222 117.632C388.316 117.034 388.599 116.481 389.029 116.056C393.584 122.16 414.94 151.004 422.475 162.388Z" fill="black"/>
<path d="M470.255 126.073H420.907V128.722H470.255V126.073Z" fill="#C7C7C7"/>
<path d="M470.255 126.073V128.722H440.283L442.309 126.073H470.255Z" fill="#A6A6A6"/>
<path d="M444.49 128.723H477.496L494.673 99.5576H461.667L444.49 128.723Z" fill="#C7C7C7"/>
<path d="M468.349 114.121C467.735 115.469 468.184 116.871 469.357 117.293C470.014 117.444 470.703 117.355 471.299 117.04C471.895 116.725 472.357 116.207 472.602 115.579C473.216 114.231 472.767 112.829 471.594 112.407C470.937 112.258 470.249 112.348 469.654 112.663C469.058 112.977 468.595 113.495 468.349 114.121Z" fill="white"/>
<path d="M356.371 179.811C356.491 179.94 408.039 179.573 408.506 179.042C409.148 178.29 396.939 122.563 391.577 115.716C390.431 114.249 386.692 113.883 383.52 114.304C382.694 114.407 381.878 114.582 381.082 114.827H381C380.356 115.028 379.751 115.338 379.212 115.743C370.459 122.883 363.282 147.594 361.623 155.009C358.874 167.236 355.941 179.326 356.371 179.811Z" fill="#eb5454"/>
<path d="M380.45 114.955C380.45 114.955 383.813 137.869 384.611 143.845C385.408 149.821 384.611 181.196 384.611 181.196L352.265 183.945C352.265 183.945 359.048 163.084 359.112 161.764C359.112 161.764 364.474 136.696 370.01 126.348C372.483 121.737 376.072 117.82 380.45 114.955Z" fill="#eb5454"/>
<path d="M391.219 115.358C391.219 115.358 395.592 138.566 395.976 140.482C396.361 142.397 401.962 180.114 401.962 180.114L410.055 180.288L405.665 163.057C405.665 163.057 396.27 118.924 391.219 115.358Z" fill="#eb5454"/>
<path d="M389.396 122.773C386.939 123.058 382.283 119.639 380.981 116.018C380.899 115.762 381.632 113.406 382.384 110.519C382.833 108.75 383.3 106.779 383.585 104.946C383.64 104.57 394.638 109.529 394.638 109.529C393.618 111.714 392.87 114.017 392.411 116.385C392.389 116.641 392.389 116.899 392.411 117.155V117.283C392.374 118.759 392.035 122.48 389.396 122.773Z" fill="#C95F50"/>
<path d="M392.375 117.174C392.379 117.217 392.379 117.26 392.375 117.302C391.978 117.288 391.583 117.245 391.192 117.174C384.455 115.955 384.006 107.202 383.997 105.002C385.995 105.616 394.648 109.585 394.648 109.585C393.627 111.774 392.879 114.079 392.42 116.45C392.389 116.69 392.374 116.932 392.375 117.174Z" fill="#263238"/>
<path d="M383.713 90.3272C381.944 94.2684 382.622 106.367 385.198 109.364C388.937 113.718 395.802 114.955 399.689 110.281C403.456 105.762 402.301 90.0064 399.349 87.2017C395.005 83.0771 386.316 84.5161 383.713 90.3272Z" fill="#C95F50"/>
<path d="M392.622 98.8975C392.622 98.8975 392.558 98.8975 392.567 98.9708C392.631 99.7865 392.567 100.721 391.852 101.033C391.852 101.033 391.852 101.088 391.852 101.079C392.75 100.905 392.814 99.6765 392.622 98.8975Z" fill="#263238"/>
<path d="M391.852 98.0811C390.541 98.0811 390.569 100.684 391.788 100.712C393.007 100.739 392.952 98.1086 391.852 98.0811Z" fill="#263238"/>
<path d="M397.645 98.8516C397.645 98.8516 397.709 98.8974 397.709 98.9249C397.709 99.7406 397.81 100.685 398.552 100.941C398.552 100.941 398.552 100.996 398.552 100.987C397.645 100.877 397.498 99.6765 397.645 98.8516Z" fill="#263238"/>
<path d="M398.36 97.999C399.67 97.8799 399.808 100.51 398.589 100.62C397.37 100.73 397.26 98.0907 398.36 97.999Z" fill="#263238"/>
<path d="M390.798 96.9265C391.155 96.8256 391.467 96.679 391.815 96.5507C392.192 96.4716 392.531 96.2683 392.778 95.9732C392.837 95.867 392.861 95.7441 392.844 95.6233C392.828 95.5025 392.772 95.3904 392.686 95.3041C392.485 95.1601 392.249 95.0723 392.002 95.0497C391.756 95.0272 391.508 95.0707 391.284 95.1758C390.798 95.3262 390.386 95.6532 390.129 96.0924C390.081 96.1932 390.064 96.3052 390.077 96.4158C390.09 96.5263 390.134 96.6309 390.204 96.7177C390.273 96.8046 390.366 96.8701 390.471 96.907C390.576 96.9439 390.689 96.9507 390.798 96.9265Z" fill="#263238"/>
<path d="M399.368 95.7809C399.012 95.7138 398.66 95.6281 398.314 95.5243C397.933 95.4821 397.576 95.3181 397.296 95.0568C397.221 94.958 397.181 94.8372 397.181 94.7131C397.181 94.589 397.221 94.4682 397.296 94.3694C397.481 94.2069 397.706 94.096 397.947 94.0477C398.188 93.9995 398.438 94.0156 398.671 94.0944C399.166 94.1867 399.61 94.4574 399.918 94.8552C399.981 94.9487 400.016 95.0583 400.019 95.171C400.022 95.2837 399.993 95.395 399.936 95.492C399.878 95.589 399.794 95.6676 399.694 95.7187C399.593 95.7699 399.48 95.7914 399.368 95.7809Z" fill="#263238"/>
<path d="M392.356 106.44C392.548 106.633 392.75 106.889 393.043 106.917C393.361 106.912 393.674 106.837 393.96 106.697C393.96 106.697 394.006 106.697 393.96 106.743C393.843 106.904 393.686 107.03 393.504 107.109C393.321 107.188 393.121 107.217 392.924 107.192C392.758 107.152 392.607 107.064 392.491 106.938C392.376 106.812 392.3 106.655 392.273 106.486C392.264 106.431 392.319 106.413 392.356 106.44Z" fill="#263238"/>
<path d="M393.181 103.993C393.387 104.31 393.656 104.581 393.971 104.789C394.287 104.997 394.642 105.138 395.014 105.203C395.345 105.253 395.682 105.253 396.013 105.203C396.077 105.213 396.142 105.213 396.206 105.203H396.38C396.424 105.195 396.464 105.173 396.494 105.14C396.523 105.106 396.541 105.064 396.545 105.02C396.549 104.993 396.549 104.965 396.545 104.937V104.864C396.545 104.232 396.481 103.278 396.481 103.278C396.71 103.388 397.892 103.902 397.865 103.572C397.757 100.741 397.364 97.9279 396.691 95.1759C396.691 95.1564 396.684 95.1378 396.67 95.124C396.656 95.1103 396.638 95.1025 396.618 95.1025C396.599 95.1025 396.58 95.1103 396.566 95.124C396.552 95.1378 396.545 95.1564 396.545 95.1759C396.627 97.7881 397.168 100.373 397.296 103.003C396.876 102.814 396.432 102.685 395.976 102.618C395.885 102.618 396.151 104.452 396.123 104.745C395.609 104.804 395.089 104.759 394.593 104.613C394.097 104.466 393.635 104.221 393.236 103.892C393.199 103.874 393.135 103.929 393.181 103.993Z" fill="#263238"/>
<path d="M395.674 104.928C395.334 105.377 394.886 105.733 394.373 105.964C394.081 106.079 393.761 106.102 393.456 106.028C392.805 105.863 392.787 105.267 392.897 104.754C392.96 104.481 393.055 104.216 393.181 103.966C393.888 104.544 394.762 104.881 395.674 104.928Z" fill="#263238"/>
<path d="M394.382 105.964C394.09 106.079 393.77 106.102 393.465 106.028C392.814 105.863 392.796 105.267 392.906 104.754C393.252 104.762 393.585 104.885 393.852 105.105C394.12 105.324 394.306 105.626 394.382 105.964Z" fill="#FF9BBC"/>
<path d="M382.705 100.785C382.705 100.785 379.781 93.5262 380.78 89.7866C381.229 88.091 383.768 87.3119 383.768 87.3119C383.699 86.5827 383.834 85.8489 384.158 85.192C384.482 84.535 384.981 83.9807 385.601 83.5906C387.957 81.9958 392.833 83.2331 392.833 83.2331C392.833 83.2331 396.792 79.1269 401.027 81.7025C405.261 84.278 401.467 88.9342 401.467 88.9342C401.467 88.9342 402.75 91.5647 398.378 92.7471C394.006 93.9295 386.334 90.8132 386.334 90.8132C386.253 93.6582 385.75 96.4754 384.84 99.1723C384.665 99.6099 384.373 99.9913 383.997 100.276C383.62 100.56 383.174 100.736 382.705 100.785Z" fill="#263238"/>
<path d="M393.639 83.4071C392.692 82.8331 391.638 82.4559 390.541 82.298C389.567 82.1376 388.573 82.1376 387.599 82.298C386.73 82.4007 385.904 82.7369 385.21 83.2711C384.516 83.8053 383.98 84.5174 383.658 85.3319C383.519 85.7604 383.468 86.2125 383.507 86.6612C383.547 87.1099 383.676 87.5462 383.887 87.9441C383.887 87.9441 383.951 87.9441 383.933 87.9441C383.099 86.4684 383.933 84.5436 385.234 83.6362C386.751 82.7003 388.556 82.3484 390.312 82.6463C391.439 82.8175 392.541 83.1253 393.594 83.5629C393.604 83.5659 393.615 83.5669 393.625 83.5657C393.636 83.5646 393.646 83.5614 393.655 83.5563C393.665 83.5512 393.673 83.5443 393.68 83.536C393.686 83.5277 393.691 83.5181 393.694 83.5079C393.697 83.4977 393.698 83.4869 393.697 83.4763C393.696 83.4657 393.693 83.4555 393.688 83.4461C393.683 83.4367 393.676 83.4285 393.667 83.4218C393.659 83.4151 393.65 83.4101 393.639 83.4071Z" fill="#263238"/>
<path d="M403.942 84.3969C403.832 83.7613 403.566 83.1629 403.168 82.6556C402.769 82.1484 402.251 81.7483 401.659 81.4914C400.323 80.8274 398.802 80.6336 397.342 80.9415C395.875 81.2548 394.517 81.954 393.41 82.9671C393.41 83.0313 393.41 82.9671 393.41 82.9671C394.403 82.0769 395.617 81.4708 396.925 81.2128C398.234 80.9547 399.587 81.0541 400.844 81.5006C401.429 81.6579 401.966 81.9577 402.406 82.3732C402.847 82.7887 403.178 83.307 403.37 83.8818C403.561 84.4565 403.608 85.0697 403.504 85.6667C403.401 86.2636 403.151 86.8256 402.778 87.3025C401.9 88.4208 400.724 89.269 399.386 89.7497C399.386 89.7497 399.386 89.8139 399.386 89.7955C400.639 89.4166 401.776 88.7296 402.695 87.7974C403.132 87.3515 403.469 86.8177 403.684 86.2314C403.899 85.6451 403.987 85.0198 403.942 84.3969Z" fill="#263238"/>
<path d="M385.473 100.474C385.473 100.474 383.199 96.3581 381.357 97.1372C379.515 97.9163 380.945 103.672 382.906 104.653C383.15 104.795 383.42 104.886 383.699 104.921C383.979 104.956 384.263 104.934 384.534 104.857C384.805 104.78 385.058 104.65 385.278 104.473C385.497 104.296 385.679 104.077 385.812 103.828L385.473 100.474Z" fill="#C95F50"/>
<path d="M381.806 98.7598C381.806 98.7598 381.806 98.7598 381.806 98.8148C382.429 99.2094 382.961 99.7309 383.369 100.345C383.776 100.96 384.05 101.653 384.171 102.38C384.102 102.229 384.002 102.094 383.877 101.985C383.752 101.876 383.605 101.796 383.446 101.749C383.286 101.702 383.119 101.69 382.955 101.713C382.79 101.737 382.633 101.795 382.494 101.885C382.494 101.885 382.494 101.977 382.494 101.968C382.755 101.914 383.026 101.942 383.271 102.049C383.515 102.156 383.721 102.335 383.859 102.564C384.079 102.949 384.264 103.354 384.409 103.773C384.464 103.911 384.703 103.865 384.666 103.709C384.895 101.876 383.749 99.1722 381.806 98.7598Z" fill="#263238"/>
<path d="M373.951 120.235C360.973 134.808 351.211 155.33 351.303 160.17C351.431 165.486 358.195 184.211 364.639 193.01C365.473 194.138 370.496 193.661 374.721 191.324C379.203 188.858 382.879 184.459 381.999 183.148C378.69 178.226 370.853 159.162 370.927 156.183C370.991 153.433 377.416 136.55 379.863 126.788C382.255 117.393 379.992 113.425 373.951 120.235Z" fill="#C95F50"/>
<path d="M356.802 191.553L380.972 179.748C380.972 179.748 371.467 158.539 371.467 156.247C371.467 153.956 377.718 136.028 380.074 127.742C382.429 119.456 381.522 110.144 371.201 122.673C360.881 135.203 351.862 153.837 350.835 158.786C349.809 163.735 356.802 191.553 356.802 191.553Z" fill="#eb5454"/>
<path d="M372.677 150.161C373.172 148.591 373.686 147.024 374.217 145.459C374.813 143.709 375.427 141.967 376.05 140.235C376.674 138.503 377.379 136.889 378.058 135.221C378.058 135.102 378.314 135.221 378.278 135.304C377.471 137.531 376.719 139.786 375.968 142.041C376.536 141.014 377.104 139.997 377.709 138.988C377.722 138.977 377.738 138.969 377.755 138.967C377.772 138.965 377.789 138.968 377.804 138.976C377.819 138.984 377.831 138.997 377.839 139.012C377.847 139.027 377.849 139.045 377.847 139.062C377.169 140.308 376.454 141.527 375.73 142.728C375.555 143.269 375.372 143.819 375.189 144.359C374.171 147.384 373.2 150.427 372.329 153.525C372.113 154.211 371.968 154.917 371.898 155.633C371.861 156.449 371.983 157.265 372.256 158.035C372.696 159.455 373.172 160.858 373.686 162.251C374.694 165.065 375.794 167.833 376.939 170.582C378.25 173.717 379.744 176.806 381.229 179.858C381.229 179.858 380.312 180.096 380.312 180.115C380.312 180.133 380.239 180.115 380.257 180.069C380.276 180.023 380.826 179.766 380.844 179.766C379.332 177.127 377.893 174.533 376.619 171.756C375.345 168.978 374.236 166.256 373.218 163.378C372.696 161.912 372.192 160.445 371.733 158.96C371.213 157.584 371.071 156.093 371.321 154.643C371.66 153.122 372.21 151.637 372.677 150.161Z" fill="#263238"/>
<path d="M356.39 184.743C357.246 184.28 358.128 183.864 359.03 183.496C359.818 183.13 360.597 182.754 361.394 182.397C363.118 181.617 364.841 180.829 366.573 180.059C368.305 179.289 370.029 178.51 371.761 177.759C373.493 177.007 375.198 176.201 376.958 175.55C377.022 175.55 377.068 175.623 377.013 175.66C375.409 176.65 373.695 177.493 372.008 178.309C370.322 179.124 368.663 179.913 366.967 180.673C365.272 181.434 363.493 182.177 361.743 182.882C360.899 183.221 360.047 183.533 359.185 183.854C358.291 184.24 357.373 184.568 356.436 184.835C356.425 184.836 356.414 184.833 356.404 184.828C356.394 184.823 356.387 184.814 356.382 184.804C356.377 184.795 356.375 184.783 356.376 184.772C356.378 184.761 356.383 184.751 356.39 184.743Z" fill="#263238"/>
</svg>
