<svg width="50" height="50" viewBox="0 0 50 50" fill="none" xmlns="http://www.w3.org/2000/svg">
<path fill-rule="evenodd" clip-rule="evenodd" d="M9.86697 11.1313C9.35017 11.3036 9.00183 11.7874 9.00056 12.3334C8.9993 17.0822 9.00056 17.0822 9.00056 25.0002C9.00056 33.0866 16.042 41.0996 25.0861 43.9421C25.3331 44.0193 25.5978 44.0193 25.8448 43.9421C34.9522 41.0908 41.9316 34.4344 41.9316 25.0002C41.9316 17.0822 41.9354 17.0822 41.9316 12.3321C41.9304 11.7874 41.582 11.3036 41.0652 11.1313L25.8664 6.0646C25.6067 5.97847 25.3255 5.97847 25.0658 6.0646L9.86697 11.1313ZM14.2091 14.1169C13.6923 14.2904 13.344 14.7743 13.344 15.3189C13.3427 18.7111 13.344 19.3444 13.344 25.0002C13.344 30.9155 18.4715 36.7967 25.0861 38.8753C25.3331 38.9526 25.5978 38.9526 25.8448 38.8753C32.5063 36.7904 37.5895 31.901 37.5895 25.0002C37.5895 19.3444 37.592 18.7111 37.5895 15.3177C37.5882 14.773 37.2399 14.2891 36.7231 14.1169L25.8664 10.498C25.6067 10.4118 25.3255 10.4118 25.0658 10.498L14.2091 14.1169ZM15.8774 16.2322L25.4661 13.0351L35.0561 16.2322C35.0574 18.8821 35.0561 19.8916 35.0561 25.0002C35.0561 30.6331 30.8533 34.5332 25.4699 36.3344C20.1169 34.5028 15.8774 29.8287 15.8774 25.0002C15.8774 19.8916 15.8761 18.8808 15.8761 16.2322H15.8774Z" fill="#eb5454"/>
</svg>
