<svg width="37" height="36" viewBox="0 0 37 36" fill="none" xmlns="http://www.w3.org/2000/svg">
<path d="M25.5257 29.3813L36.3821 20.8312H14.6694L25.5257 29.3813Z" fill="#EB5454"/>
<path d="M25.7073 29.9842C25.654 30.0263 25.5899 30.0472 25.5258 30.0472C25.4617 30.0472 25.3975 30.0263 25.3443 29.9842L14.1164 21.1416C14.1164 24.0958 14.1164 27.7665 14.1164 30.6125V35.9999H36.9323V21.1439L25.7073 29.9842ZM16.167 30.5298H20.3628C20.5248 30.5298 20.6559 30.6609 20.6559 30.8229C20.6559 30.9849 20.5248 31.116 20.3628 31.116H16.167C16.005 31.116 15.8739 30.9849 15.8739 30.8229C15.8739 30.6609 16.005 30.5298 16.167 30.5298ZM16.167 32.0913H21.5353C21.6973 32.0913 21.8284 32.2224 21.8284 32.3844C21.8284 32.5464 21.6973 32.6775 21.5353 32.6775H16.167C16.005 32.6775 15.8739 32.5464 15.8739 32.3844C15.8739 32.2224 16.005 32.0913 16.167 32.0913ZM22.7077 34.2387H16.167C16.005 34.2387 15.8739 34.1076 15.8739 33.9456C15.8739 33.7836 16.005 33.6525 16.167 33.6525H22.7077C22.8697 33.6525 23.0008 33.7836 23.0008 33.9456C23.0008 34.1076 22.8697 34.2387 22.7077 34.2387ZM34.8814 34.2387H28.3407C28.1787 34.2387 28.0476 34.1076 28.0476 33.9456C28.0476 33.7836 28.1787 33.6525 28.3407 33.6525H34.8814C35.0434 33.6525 35.1745 33.7836 35.1745 33.9456C35.1745 34.1076 35.0434 34.2387 34.8814 34.2387ZM34.8814 32.6775H29.5132C29.3511 32.6775 29.22 32.5464 29.22 32.3844C29.22 32.2224 29.3511 32.0913 29.5132 32.0913H34.8814C35.0434 32.0913 35.1745 32.2224 35.1745 32.3844C35.1745 32.5464 35.0434 32.6775 34.8814 32.6775ZM34.8814 31.116H30.6856C30.5236 31.116 30.3925 30.985 30.3925 30.8229C30.3925 30.6609 30.5236 30.5298 30.6856 30.5298H34.8814C35.0434 30.5298 35.1745 30.6609 35.1745 30.8229C35.1745 30.985 35.0434 31.116 34.8814 31.116Z" fill="#EB5454"/>
<path d="M23.5312 0.996416C23.5312 0.447114 23.0815 0 22.5288 0H1.00243C0.449688 0 0 0.447114 0 0.996416V30.0264H13.5302V27.6451H1.76612V22.4758H13.5302C13.5302 22.2574 13.5302 20.159 13.5302 20.2423C15.8627 20.2423 20.8667 20.2423 23.5312 20.2423L23.5312 0.996416ZM19.7969 0.972081C20.682 0.972081 21.4021 1.68912 21.4021 2.57075C21.4021 3.45238 20.682 4.16942 19.7969 4.16942C18.9153 4.16942 18.1982 3.45239 18.1982 2.57075C18.1982 1.68912 18.9153 0.972081 19.7969 0.972081ZM21.7634 19.1428H1.76612V13.9736H21.7634V19.1428ZM21.7634 10.9711H1.76612V5.80188H21.7634V10.9711Z" fill="#EB5454"/>
<path d="M21.1771 14.5597H2.35229V18.5565H21.1771V14.5597Z" fill="#EB5454"/>
<path d="M13.5301 23.0621H2.35229V27.059H13.5301V23.0621Z" fill="#EB5454"/>
<path d="M19.7969 3.58324C20.3588 3.58324 20.816 3.12897 20.816 2.57079C20.816 2.01262 20.3588 1.55835 19.7969 1.55835C19.2388 1.55835 18.7845 2.01262 18.7845 2.57079C18.7845 3.12897 19.2388 3.58324 19.7969 3.58324Z" fill="#EB5454"/>
<path d="M21.1771 6.38806H2.35229V10.3849H21.1771V6.38806Z" fill="#EB5454"/>
</svg>
