<svg width="35" height="35" viewBox="0 0 35 35" fill="none" xmlns="http://www.w3.org/2000/svg">
<path d="M17.5 0V6.25H23.75L17.5 0Z" fill="#EB5454"/>
<path d="M4.375 28.75C4.02985 28.75 3.75 28.4702 3.75 28.125C3.75 27.7798 4.02985 27.5 4.375 27.5H11.25V25H4.375C4.02985 25 3.75 24.7202 3.75 24.375C3.75 24.0298 4.02985 23.75 4.375 23.75H11.25V22.5C11.25 22.0596 11.3403 21.6429 11.4803 21.25H4.375C4.02985 21.25 3.75 20.9702 3.75 20.625C3.75 20.2798 4.02985 20 4.375 20H12.2253C12.9122 19.2384 13.896 18.75 15 18.75H23.75V7.5H17.5C16.8097 7.5 16.25 6.94031 16.25 6.25V0H1.25C0.559692 0 0 0.559616 0 1.25V31.25C0 31.9403 0.559692 32.5 1.25 32.5H11.25V28.75H4.375ZM4.375 12.5H19.375C19.7202 12.5 20 12.7798 20 13.125C20 13.4702 19.7202 13.75 19.375 13.75H4.375C4.02985 13.75 3.75 13.4702 3.75 13.125C3.75 12.7798 4.02985 12.5 4.375 12.5ZM4.375 16.25H19.375C19.7202 16.25 20 16.5298 20 16.875C20 17.2202 19.7202 17.5 19.375 17.5H4.375C4.02985 17.5 3.75 17.2202 3.75 16.875C3.75 16.5298 4.02985 16.25 4.375 16.25Z" fill="#EB5454"/>
<path d="M32.5 20H15C13.6193 20 12.5 21.1192 12.5 22.5V32.5C12.5 33.8807 13.6193 35 15 35H32.5C33.8807 35 35 33.8807 35 32.5V22.5C35 21.1192 33.8807 20 32.5 20ZM33.5669 33.5669C33.4448 33.689 33.2849 33.75 33.125 33.75C32.9651 33.75 32.8052 33.689 32.6831 33.5669L26.8288 27.7126L24.1405 29.8632C24.0264 29.9541 23.8879 29.9999 23.7499 29.9999C23.612 29.9999 23.4734 29.9541 23.3593 29.8632L20.6712 27.7126L14.8169 33.5669C14.6948 33.689 14.5349 33.75 14.375 33.75C14.2151 33.75 14.0552 33.689 13.9331 33.5669C13.689 33.3228 13.689 32.9272 13.9331 32.6831L19.6891 26.9271L13.9843 22.3632C13.7151 22.1471 13.6712 21.7541 13.8866 21.4843C14.1039 21.2164 14.4964 21.1712 14.7655 21.3866L23.7499 28.5748L32.7343 21.3866C33.0053 21.1706 33.3971 21.2164 33.6132 21.4843C33.8287 21.7541 33.7847 22.1471 33.5155 22.3632L27.8108 26.927L33.5669 32.6831C33.811 32.9272 33.811 33.3228 33.5669 33.5669Z" fill="#EB5454"/>
</svg>
