<svg width="83" height="71" viewBox="0 0 83 71" fill="none" xmlns="http://www.w3.org/2000/svg">
<rect x="0.5" y="1.45117" width="82" height="69" rx="5.5" fill="#903BFC" fill-opacity="0.1" stroke="#EFEFEF"/>
<path d="M42 31.7012C40.3424 31.7012 38.7527 32.3597 37.5806 33.5318C36.4085 34.7039 35.75 36.2936 35.75 37.9512C35.75 39.6088 36.4085 41.1985 37.5806 42.3706C38.7527 43.5427 40.3424 44.2012 42 44.2012C43.6576 44.2012 45.2473 43.5427 46.4194 42.3706C47.5915 41.1985 48.25 39.6088 48.25 37.9512C48.25 36.2936 47.5915 34.7039 46.4194 33.5318C45.2473 32.3597 43.6576 31.7012 42 31.7012ZM42 48.3678C39.2373 48.3678 36.5878 47.2704 34.6343 45.3169C32.6808 43.3634 31.5833 40.7138 31.5833 37.9512C31.5833 35.1885 32.6808 32.539 34.6343 30.5855C36.5878 28.632 39.2373 27.5345 42 27.5345C44.7627 27.5345 47.4122 28.632 49.3657 30.5855C51.3192 32.539 52.4167 35.1885 52.4167 37.9512C52.4167 40.7138 51.3192 43.3634 49.3657 45.3169C47.4122 47.2704 44.7627 48.3678 42 48.3678ZM42 22.3262C31.5833 22.3262 22.6875 28.8053 19.0833 37.9512C22.6875 47.097 31.5833 53.5762 42 53.5762C52.4167 53.5762 61.3125 47.097 64.9167 37.9512C61.3125 28.8053 52.4167 22.3262 42 22.3262Z" fill="#903BFC"/>
</svg>
