<svg width="83" height="70" viewBox="0 0 83 70" fill="none" xmlns="http://www.w3.org/2000/svg">
<rect x="0.5" y="0.5" width="82" height="69" rx="5.5" fill="#F7F9FA" stroke="#F5F4F1"/>
<path d="M48.5257 46.3813L59.3821 37.8312H37.6694L48.5257 46.3813Z" fill="#EB5454"/>
<path d="M48.7073 46.9842C48.654 47.0263 48.5899 47.0472 48.5258 47.0472C48.4617 47.0472 48.3975 47.0263 48.3443 46.9842L37.1164 38.1416C37.1164 41.0958 37.1164 44.7665 37.1164 47.6125V52.9999H59.9323V38.1439L48.7073 46.9842ZM39.167 47.5298H43.3628C43.5248 47.5298 43.6559 47.6609 43.6559 47.8229C43.6559 47.9849 43.5248 48.116 43.3628 48.116H39.167C39.005 48.116 38.8739 47.9849 38.8739 47.8229C38.8739 47.6609 39.005 47.5298 39.167 47.5298ZM39.167 49.0913H44.5353C44.6973 49.0913 44.8284 49.2224 44.8284 49.3844C44.8284 49.5464 44.6973 49.6775 44.5353 49.6775H39.167C39.005 49.6775 38.8739 49.5464 38.8739 49.3844C38.8739 49.2224 39.005 49.0913 39.167 49.0913ZM45.7077 51.2387H39.167C39.005 51.2387 38.8739 51.1076 38.8739 50.9456C38.8739 50.7836 39.005 50.6525 39.167 50.6525H45.7077C45.8697 50.6525 46.0008 50.7836 46.0008 50.9456C46.0008 51.1076 45.8697 51.2387 45.7077 51.2387ZM57.8814 51.2387H51.3407C51.1787 51.2387 51.0476 51.1076 51.0476 50.9456C51.0476 50.7836 51.1787 50.6525 51.3407 50.6525H57.8814C58.0434 50.6525 58.1745 50.7836 58.1745 50.9456C58.1745 51.1076 58.0434 51.2387 57.8814 51.2387ZM57.8814 49.6775H52.5132C52.3511 49.6775 52.22 49.5464 52.22 49.3844C52.22 49.2224 52.3511 49.0913 52.5132 49.0913H57.8814C58.0434 49.0913 58.1745 49.2224 58.1745 49.3844C58.1745 49.5464 58.0434 49.6775 57.8814 49.6775ZM57.8814 48.116H53.6856C53.5236 48.116 53.3925 47.985 53.3925 47.8229C53.3925 47.6609 53.5236 47.5298 53.6856 47.5298H57.8814C58.0434 47.5298 58.1745 47.6609 58.1745 47.8229C58.1745 47.985 58.0434 48.116 57.8814 48.116Z" fill="#EB5454"/>
<path d="M46.5312 17.9964C46.5312 17.4471 46.0815 17 45.5288 17H24.0024C23.4497 17 23 17.4471 23 17.9964V47.0264H36.5302V44.6451H24.7661V39.4758H36.5302C36.5302 39.2574 36.5302 37.159 36.5302 37.2423C38.8627 37.2423 43.8667 37.2423 46.5312 37.2423L46.5312 17.9964ZM42.7969 17.9721C43.682 17.9721 44.4021 18.6891 44.4021 19.5707C44.4021 20.4524 43.682 21.1694 42.7969 21.1694C41.9153 21.1694 41.1982 20.4524 41.1982 19.5708C41.1982 18.6891 41.9153 17.9721 42.7969 17.9721ZM44.7634 36.1428H24.7661V30.9736H44.7634V36.1428ZM44.7634 27.9711H24.7661V22.8019H44.7634V27.9711Z" fill="#EB5454"/>
<path d="M44.1771 31.5597H25.3523V35.5565H44.1771V31.5597Z" fill="#EB5454"/>
<path d="M36.5301 40.0621H25.3523V44.059H36.5301V40.0621Z" fill="#EB5454"/>
<path d="M42.7969 20.5832C43.3588 20.5832 43.816 20.129 43.816 19.5708C43.816 19.0126 43.3588 18.5583 42.7969 18.5583C42.2388 18.5583 41.7845 19.0126 41.7845 19.5708C41.7845 20.129 42.2388 20.5832 42.7969 20.5832Z" fill="#EB5454"/>
<path d="M44.1771 23.3881H25.3523V27.3849H44.1771V23.3881Z" fill="#EB5454"/>
</svg>
