<svg width="755" height="570" viewBox="0 0 755 570" fill="none" xmlns="http://www.w3.org/2000/svg">
<path d="M677.515 531.013H626.313V531.399H677.515V531.013Z" fill="#EBEBEB"/>
<path d="M494.043 535.216H480.608V535.602H494.043V535.216Z" fill="#EBEBEB"/>
<path d="M624.767 516.666H595.101V517.052H624.767V516.666Z" fill="#EBEBEB"/>
<path d="M129.869 519.262H63.1001V519.648H129.869V519.262Z" fill="#EBEBEB"/>
<path d="M153.429 519.262H143.643V519.648H153.429V519.262Z" fill="#EBEBEB"/>
<path d="M330.067 525.786H185.245V526.173H330.067V525.786Z" fill="#EBEBEB"/>
<path d="M373.155 437H107.845C105.765 437 103.769 436.07 102.298 434.416C100.827 432.761 100 430.517 100 428.177V8.74618C100.018 6.41947 100.853 4.195 102.322 2.55695C103.791 0.918909 105.776 -8.92017e-05 107.845 6.49404e-09H373.155C374.185 6.49405e-09 375.205 0.228223 376.157 0.671643C377.109 1.11506 377.974 1.76499 378.702 2.58433C379.431 3.40366 380.009 4.37635 380.403 5.44686C380.797 6.51737 381 7.66473 381 8.82344V428.177C381 429.335 380.797 430.483 380.403 431.553C380.009 432.624 379.431 433.596 378.702 434.416C377.974 435.235 377.109 435.885 376.157 436.328C375.205 436.772 374.185 437 373.155 437ZM107.845 0.309054C105.857 0.313138 103.951 1.20336 102.545 2.78474C101.139 4.36613 100.347 6.50977 100.343 8.74618V428.177C100.347 430.413 101.139 432.557 102.545 434.138C103.951 435.719 105.857 436.61 107.845 436.614H373.155C375.143 436.61 377.049 435.719 378.455 434.138C379.861 432.557 380.653 430.413 380.656 428.177V8.74618C380.653 6.50977 379.861 4.36613 378.455 2.78474C377.049 1.20336 375.143 0.313138 373.155 0.309054H107.845Z" fill="#EBEBEB"/>
<path d="M670.155 437H404.845C402.765 437 400.769 436.07 399.298 434.416C397.827 432.761 397 430.517 397 428.177V8.74618C397.018 6.41947 397.853 4.195 399.322 2.55695C400.791 0.918909 402.776 -8.92017e-05 404.845 6.49404e-09H670.155C672.235 6.49406e-09 674.231 0.929611 675.702 2.58433C677.173 4.23904 678 6.48332 678 8.82344V428.177C678 430.517 677.173 432.761 675.702 434.416C674.231 436.07 672.235 437 670.155 437ZM404.845 0.309054C402.857 0.313138 400.951 1.20336 399.545 2.78474C398.139 4.36613 397.347 6.50977 397.344 8.74618V428.177C397.347 430.413 398.139 432.557 399.545 434.138C400.951 435.719 402.857 436.61 404.845 436.614H670.155C672.143 436.61 674.049 435.719 675.455 434.138C676.861 432.557 677.653 430.413 677.656 428.177V8.74618C677.653 6.50977 676.861 4.36613 675.455 2.78474C674.049 1.20336 672.143 0.313138 670.155 0.309054H404.845Z" fill="#EBEBEB"/>
<path d="M754.965 506.139H-18V506.525H754.965V506.139Z" fill="#EBEBEB"/>
<path d="M607.19 56.1641H565.62C552.437 56.1641 541.75 66.8506 541.75 80.0332V121.603C541.75 134.786 552.437 145.472 565.62 145.472H607.19C620.372 145.472 631.059 134.786 631.059 121.603V80.0332C631.059 66.8506 620.372 56.1641 607.19 56.1641Z" fill="#F0F0F0"/>
<path d="M597.512 88.1961C597.512 95.8021 593.648 101.955 586.042 101.955C578.436 101.955 574.571 95.7712 574.571 88.1961C574.571 80.6211 578.436 74.4219 586.042 74.4219C593.648 74.4219 597.512 80.5901 597.512 88.1961Z" fill="#FAFAFA"/>
<path d="M586.041 127.202H607.267V114.587C607.267 107.615 597.759 101.957 586.041 101.957C574.323 101.957 564.815 107.615 564.815 114.587V127.202H586.041Z" fill="#FAFAFA"/>
<path d="M216.193 86.1084H187.161C177.957 86.1084 170.496 93.5696 170.496 102.774V131.806C170.496 141.01 177.957 148.471 187.161 148.471H216.193C225.397 148.471 232.858 141.01 232.858 131.806V102.774C232.858 93.5696 225.397 86.1084 216.193 86.1084Z" fill="#E6E6E6"/>
<path d="M200.409 120.658C201.346 119.357 202.43 118.169 203.64 117.118C204.466 116.388 205.231 115.592 205.928 114.737C206.405 114.105 206.66 113.334 206.655 112.542C206.672 112.001 206.553 111.465 206.31 110.982C206.067 110.499 205.707 110.084 205.263 109.775C204.169 109.057 202.875 108.706 201.569 108.77C200.199 108.738 198.843 109.051 197.626 109.682C196.474 110.303 195.479 111.181 194.72 112.248L189.016 108.909C190.343 106.905 192.193 105.301 194.365 104.271C196.87 103.109 199.611 102.543 202.372 102.617C205.441 102.472 208.48 103.277 211.076 104.921C212.117 105.622 212.963 106.575 213.536 107.691C214.109 108.808 214.39 110.051 214.353 111.305C214.379 112.472 214.158 113.631 213.704 114.706C213.329 115.611 212.806 116.446 212.158 117.18C211.54 117.86 210.751 118.633 209.777 119.514C208.845 120.307 207.991 121.187 207.227 122.142C206.678 122.883 206.394 123.787 206.423 124.709H199.296C199.239 123.276 199.628 121.861 200.409 120.658ZM199.652 135.298C199.227 134.905 198.891 134.426 198.667 133.893C198.443 133.36 198.336 132.785 198.353 132.206C198.341 131.646 198.449 131.09 198.67 130.575C198.892 130.06 199.221 129.599 199.636 129.223C200.542 128.445 201.696 128.017 202.89 128.017C204.084 128.017 205.239 128.445 206.145 129.223C206.557 129.6 206.883 130.062 207.102 130.577C207.321 131.092 207.426 131.647 207.412 132.206C207.429 132.785 207.322 133.36 207.098 133.893C206.874 134.426 206.538 134.905 206.114 135.298C205.231 136.104 204.078 136.551 202.883 136.551C201.687 136.551 200.535 136.104 199.652 135.298Z" fill="#FAFAFA"/>
<path d="M602.907 299.585H625.369C628.793 299.585 632.076 300.945 634.497 303.366C636.918 305.787 638.278 309.07 638.278 312.494V334.956C638.278 338.375 636.919 341.655 634.501 344.073C632.083 346.491 628.804 347.849 625.385 347.849H602.907C599.487 347.849 596.208 346.491 593.79 344.073C591.372 341.655 590.014 338.375 590.014 334.956V312.494C590.014 309.074 591.372 305.795 593.79 303.377C596.208 300.959 599.487 299.6 602.907 299.6V299.585Z" fill="#EBEBEB"/>
<path d="M613.142 326.331C613.868 325.326 614.709 324.408 615.646 323.595C616.29 323.027 616.884 322.407 617.424 321.74C617.793 321.256 617.989 320.663 617.981 320.055C617.997 319.636 617.906 319.221 617.717 318.848C617.527 318.474 617.246 318.155 616.898 317.921C616.055 317.358 615.052 317.081 614.039 317.133C613.002 317.102 611.975 317.333 611.051 317.803C610.128 318.273 609.337 318.967 608.751 319.823L604.33 317.241C605.352 315.677 606.785 314.425 608.473 313.624C610.409 312.728 612.525 312.289 614.657 312.341C617.035 312.225 619.391 312.852 621.397 314.134C622.206 314.678 622.863 315.419 623.306 316.287C623.75 317.156 623.965 318.122 623.932 319.096C623.95 319.997 623.782 320.892 623.438 321.724C623.147 322.427 622.739 323.075 622.232 323.641C621.653 324.278 621.039 324.882 620.392 325.45C619.676 326.067 619.014 326.745 618.414 327.475C617.999 328.056 617.782 328.756 617.795 329.47H612.292C612.244 328.361 612.541 327.264 613.142 326.331ZM612.554 337.663C612.232 337.364 611.977 337 611.806 336.595C611.636 336.19 611.553 335.753 611.565 335.313C611.556 334.88 611.638 334.45 611.806 334.05C611.973 333.651 612.223 333.291 612.539 332.994C613.241 332.394 614.135 332.065 615.059 332.065C615.983 332.065 616.876 332.394 617.579 332.994C617.897 333.29 618.15 333.649 618.32 334.048C618.491 334.448 618.575 334.879 618.568 335.313C618.578 335.754 618.493 336.191 618.32 336.597C618.147 337.002 617.889 337.366 617.563 337.663C617.233 337.985 616.841 338.238 616.41 338.405C615.98 338.573 615.52 338.651 615.059 338.637C614.598 338.648 614.139 338.567 613.709 338.4C613.279 338.233 612.887 337.983 612.554 337.663Z" fill="#FAFAFA"/>
<path d="M163.044 179.636H134.011C124.807 179.636 117.346 187.097 117.346 196.301V225.333C117.346 234.537 124.807 241.999 134.011 241.999H163.044C172.248 241.999 179.709 234.537 179.709 225.333V196.301C179.709 187.097 172.248 179.636 163.044 179.636Z" fill="#EBEBEB"/>
<path d="M148.529 193.242C146.676 193.242 144.841 193.607 143.13 194.317C141.418 195.026 139.863 196.066 138.554 197.377C137.244 198.688 136.206 200.244 135.498 201.956C134.791 203.669 134.428 205.504 134.43 207.357C134.43 215.086 140.737 233.823 148.529 233.823C156.32 233.823 162.627 215.133 162.627 207.357C162.629 205.504 162.266 203.669 161.559 201.956C160.851 200.244 159.813 198.688 158.503 197.377C157.194 196.066 155.639 195.026 153.928 194.317C152.216 193.607 150.381 193.242 148.529 193.242ZM148.529 211.608C147.688 211.608 146.866 211.358 146.167 210.891C145.468 210.424 144.923 209.76 144.601 208.983C144.279 208.207 144.195 207.352 144.359 206.527C144.523 205.702 144.928 204.945 145.522 204.35C146.117 203.756 146.875 203.351 147.699 203.187C148.524 203.023 149.379 203.107 150.155 203.429C150.932 203.751 151.596 204.296 152.063 204.995C152.531 205.694 152.78 206.516 152.78 207.357C152.764 208.473 152.309 209.539 151.513 210.323C150.718 211.107 149.645 211.546 148.529 211.546V211.608Z" fill="#FAFAFA"/>
<path d="M154.759 295.952C155.212 293.09 155.212 290.173 154.759 287.311L150.415 286.739C150.064 285.142 149.546 283.588 148.869 282.101L152.053 279.086C150.729 276.508 149.013 274.151 146.967 272.099L143.102 274.201C141.908 273.118 140.602 272.165 139.207 271.357L140.01 267.043C137.443 265.722 134.683 264.815 131.832 264.354L129.962 268.296C129.173 268.218 128.416 268.172 127.55 268.172C126.684 268.172 125.912 268.172 125.123 268.296L123.253 264.354C120.387 264.805 117.611 265.708 115.028 267.028L115.832 271.341C114.437 272.149 113.131 273.103 111.936 274.186L108.071 272.083C106.025 274.136 104.309 276.493 102.985 279.071L106.17 282.085C105.493 283.572 104.975 285.127 104.624 286.723L100.295 287.295C99.8214 290.156 99.8214 293.076 100.295 295.937L104.624 296.509C104.975 298.105 105.493 299.66 106.17 301.147L102.985 304.161C104.306 306.741 106.023 309.099 108.071 311.149L111.936 309.046C113.131 310.129 114.437 311.083 115.832 311.891L115.028 316.204C117.611 317.524 120.387 318.427 123.253 318.878L125.123 314.936C125.912 315.014 126.669 315.06 127.55 315.06C128.431 315.06 129.096 315.06 129.962 314.936L131.832 318.878C134.698 318.427 137.474 317.524 140.057 316.204L139.253 311.891C140.648 311.083 141.954 310.129 143.149 309.046L147.013 311.149C149.06 309.096 150.775 306.739 152.1 304.161L148.961 301.116C149.637 299.628 150.155 298.073 150.507 296.478L154.759 295.952ZM127.55 301.255C125.644 301.258 123.78 300.695 122.194 299.638C120.607 298.581 119.371 297.077 118.64 295.317C117.909 293.556 117.717 291.618 118.088 289.749C118.459 287.879 119.377 286.161 120.725 284.813C122.072 283.466 123.79 282.548 125.66 282.177C127.529 281.806 129.467 281.998 131.228 282.729C132.988 283.46 134.492 284.696 135.549 286.283C136.606 287.869 137.169 289.733 137.166 291.639C137.162 294.188 136.147 296.632 134.345 298.434C132.543 300.236 130.099 301.251 127.55 301.255Z" fill="#EBEBEB"/>
<path d="M168.701 327.056C168.812 326.34 168.869 325.616 168.871 324.892C168.87 324.167 168.813 323.443 168.701 322.727L166.521 322.449C166.356 321.657 166.107 320.885 165.779 320.146L167.325 318.6C166.664 317.304 165.803 316.12 164.775 315.09L162.842 316.142C162.242 315.604 161.589 315.127 160.894 314.719L161.296 312.571C160.006 311.907 158.617 311.453 157.184 311.226L156.256 313.204C155.855 313.204 155.453 313.204 155.051 313.204C154.649 313.204 154.231 313.204 153.829 313.204L152.902 311.226C151.468 311.453 150.08 311.907 148.79 312.571L149.192 314.719C148.497 315.127 147.844 315.604 147.244 316.142L145.311 315.09C144.283 316.12 143.422 317.304 142.761 318.6L144.306 320.146C143.978 320.885 143.73 321.657 143.564 322.449L141.4 322.727C141.28 323.442 141.223 324.167 141.23 324.892C141.225 325.617 141.281 326.341 141.4 327.056L143.564 327.334C143.73 328.121 143.979 328.888 144.306 329.622L142.761 331.168C143.423 332.459 144.284 333.637 145.311 334.662L147.244 333.611C147.836 334.158 148.49 334.635 149.192 335.033L148.79 337.182C150.08 337.846 151.468 338.3 152.902 338.527L153.829 336.548C154.636 336.63 155.45 336.63 156.256 336.548L157.184 338.527C158.617 338.3 160.006 337.846 161.296 337.182L160.894 335.033C161.596 334.635 162.25 334.158 162.842 333.611L164.775 334.662C165.802 333.637 166.662 332.459 167.325 331.168L165.779 329.622C166.107 328.888 166.356 328.121 166.521 327.334L168.701 327.056ZM155.097 329.699C154.146 329.699 153.217 329.417 152.426 328.889C151.635 328.361 151.019 327.61 150.655 326.732C150.291 325.853 150.196 324.886 150.382 323.954C150.567 323.021 151.025 322.164 151.697 321.492C152.37 320.82 153.226 320.362 154.159 320.176C155.092 319.991 156.058 320.086 156.937 320.45C157.815 320.814 158.566 321.43 159.095 322.221C159.623 323.011 159.905 323.941 159.905 324.892C159.901 326.158 159.399 327.371 158.509 328.271C157.618 329.17 156.409 329.683 155.143 329.699H155.097Z" fill="#E0E0E0"/>
<path d="M646.349 295.861C646.932 295.431 647.485 294.961 648.003 294.455C648.514 293.94 648.984 293.387 649.409 292.8L648.08 291.069C648.519 290.395 648.882 289.674 649.162 288.92H651.357C651.807 287.543 652.037 286.103 652.038 284.653L649.92 284.035C649.888 283.23 649.764 282.431 649.549 281.654L651.357 280.418C650.92 279.035 650.256 277.734 649.394 276.568L647.338 277.295C647.086 276.982 646.818 276.682 646.534 276.398C646.24 276.104 645.947 275.842 645.637 275.579L646.364 273.523C645.189 272.675 643.891 272.013 642.515 271.559L641.278 273.368C640.493 273.168 639.69 273.044 638.882 272.997L638.263 270.895C636.814 270.89 635.373 271.12 633.997 271.575V273.755C633.244 274.046 632.524 274.413 631.848 274.852L630.101 273.523C628.917 274.388 627.874 275.431 627.009 276.615L628.338 278.346C627.903 279.03 627.535 279.755 627.241 280.51H625.061C624.614 281.888 624.384 283.328 624.381 284.777L626.483 285.395C626.529 286.199 626.653 286.997 626.854 287.776L625.046 289.028C625.499 290.404 626.161 291.703 627.009 292.878L629.065 292.136C629.328 292.445 629.591 292.754 629.884 293.048C630.178 293.342 630.472 293.604 630.781 293.852L630.054 295.908C631.22 296.77 632.521 297.434 633.904 297.871L635.141 296.062C635.917 296.277 636.716 296.402 637.521 296.433L638.14 298.551C639.594 298.55 641.039 298.32 642.422 297.871V295.676C643.174 295.39 643.894 295.028 644.571 294.594L646.349 295.861ZM634.862 288.132C634.19 287.459 633.733 286.603 633.548 285.67C633.362 284.737 633.458 283.771 633.822 282.893C634.186 282.014 634.802 281.264 635.593 280.736C636.383 280.207 637.313 279.926 638.263 279.926C639.214 279.926 640.143 280.207 640.934 280.736C641.725 281.264 642.341 282.014 642.705 282.893C643.069 283.771 643.164 284.737 642.979 285.67C642.794 286.603 642.336 287.459 641.664 288.132C641.218 288.579 640.687 288.934 640.103 289.176C639.519 289.418 638.892 289.541 638.26 289.54C637.628 289.539 637.002 289.412 636.419 289.168C635.836 288.923 635.307 288.566 634.862 288.116V288.132Z" fill="#F0F0F0"/>
<path d="M368.483 570C534.025 570 668.223 562.165 668.223 552.5C668.223 542.835 534.025 535 368.483 535C202.941 535 68.7422 542.835 68.7422 552.5C68.7422 562.165 202.941 570 368.483 570Z" fill="#EB5454" fill-opacity="0.1"/>
<path d="M423.456 90.8372V66.7516L435.298 65.082V89.1676L423.456 90.8372Z" fill="#263238"/>
<path d="M384.083 104.251L375.209 90.1217L382.769 84.7109L391.627 98.8253L384.083 104.251Z" fill="#263238"/>
<path d="M467.115 88.2078L475.988 71.6045L483.533 74.8973L474.674 91.5161L467.115 88.2078Z" fill="#263238"/>
<g opacity="0.5">
<path d="M423.458 90.8382V66.7526L435.299 65.083V89.1686L423.458 90.8382Z" fill="white"/>
<path d="M384.083 104.258L375.209 90.1285L382.769 84.7178L391.627 98.8321L384.083 104.258Z" fill="white"/>
<path d="M467.114 88.2088L475.988 71.6055L483.532 74.8983L474.674 91.517L467.114 88.2088Z" fill="white"/>
</g>
<path d="M436.983 68.9596L421.771 71.1085C421.219 71.2105 420.651 71.1873 420.109 71.0408C419.567 70.8943 419.064 70.628 418.639 70.2617C418.213 69.8953 417.875 69.4382 417.649 68.9239C417.423 68.4097 417.316 67.8513 417.335 67.29C417.37 66.0626 417.832 64.8858 418.642 63.9629C419.452 63.04 420.559 62.4288 421.771 62.2348L436.983 60.1014C437.534 59.9998 438.101 60.0226 438.642 60.1683C439.183 60.314 439.684 60.5788 440.11 60.9434C440.535 61.3081 440.874 61.7632 441.1 62.2755C441.327 62.7879 441.436 63.3444 441.42 63.9044C441.382 65.131 440.919 66.3062 440.109 67.2285C439.3 68.1509 438.195 68.7629 436.983 68.9596Z" fill="#263238"/>
<path d="M385.226 84.3282L373.956 92.4289C373.722 92.6248 373.45 92.7704 373.157 92.8567C372.864 92.9429 372.557 92.968 372.254 92.9303C371.951 92.8926 371.659 92.7929 371.396 92.6375C371.133 92.4821 370.905 92.2743 370.725 92.027C370.428 91.46 370.352 90.8028 370.512 90.1829C370.672 89.563 371.057 89.0246 371.591 88.6723L382.877 80.5871C383.109 80.3893 383.379 80.242 383.671 80.1547C383.963 80.0673 384.27 80.0416 384.573 80.0795C384.875 80.1173 385.167 80.2177 385.428 80.3743C385.69 80.5309 385.916 80.7402 386.092 80.989C386.388 81.5537 386.464 82.2085 386.304 82.8258C386.144 83.4431 385.76 83.9787 385.226 84.3282Z" fill="#263238"/>
<path d="M484.8 76.8457L473.515 71.9296C473.245 71.7929 473.008 71.6019 472.816 71.3685C472.625 71.1351 472.484 70.8645 472.403 70.5739C472.321 70.2832 472.301 69.9788 472.343 69.6799C472.386 69.3811 472.49 69.0943 472.649 68.8378C472.931 68.2592 473.417 67.8051 474.013 67.5626C474.609 67.3201 475.274 67.3063 475.88 67.5237L487.15 72.4552C487.422 72.5883 487.663 72.7775 487.858 73.0105C488.052 73.2434 488.194 73.5149 488.276 73.8069C488.358 74.099 488.377 74.405 488.332 74.7049C488.287 75.0049 488.179 75.2919 488.015 75.5471C487.734 76.1217 487.25 76.572 486.656 76.8117C486.063 77.0513 485.402 77.0634 484.8 76.8457Z" fill="#263238"/>
<path opacity="0.7" d="M436.983 68.9596L421.771 71.1085C421.219 71.2105 420.651 71.1873 420.109 71.0408C419.567 70.8943 419.064 70.628 418.639 70.2617C418.213 69.8953 417.875 69.4382 417.649 68.9239C417.423 68.4097 417.316 67.8513 417.335 67.29C417.37 66.0626 417.832 64.8858 418.642 63.9629C419.452 63.04 420.559 62.4288 421.771 62.2348L436.983 60.1014C437.534 59.9998 438.101 60.0226 438.642 60.1683C439.183 60.314 439.684 60.5788 440.11 60.9434C440.535 61.3081 440.874 61.7632 441.1 62.2755C441.327 62.7879 441.436 63.3444 441.42 63.9044C441.382 65.131 440.919 66.3062 440.109 67.2285C439.3 68.1509 438.195 68.7629 436.983 68.9596Z" fill="white"/>
<path opacity="0.7" d="M385.226 84.3282L373.956 92.4289C373.722 92.6248 373.45 92.7704 373.157 92.8567C372.864 92.9429 372.557 92.968 372.254 92.9303C371.951 92.8926 371.659 92.7929 371.396 92.6375C371.133 92.4821 370.905 92.2743 370.725 92.027C370.428 91.46 370.352 90.8028 370.512 90.1829C370.672 89.563 371.057 89.0246 371.591 88.6723L382.877 80.5871C383.109 80.3893 383.379 80.242 383.671 80.1547C383.963 80.0673 384.27 80.0416 384.573 80.0795C384.875 80.1173 385.167 80.2177 385.428 80.3743C385.69 80.5309 385.916 80.7402 386.092 80.989C386.388 81.5537 386.464 82.2085 386.304 82.8258C386.144 83.4431 385.76 83.9787 385.226 84.3282Z" fill="white"/>
<path opacity="0.7" d="M484.8 76.8457L473.515 71.9296C473.245 71.7929 473.008 71.6019 472.816 71.3685C472.625 71.1351 472.484 70.8645 472.403 70.5739C472.321 70.2832 472.301 69.9788 472.343 69.6799C472.386 69.3811 472.49 69.0943 472.649 68.8378C472.931 68.2592 473.417 67.8051 474.013 67.5626C474.609 67.3201 475.274 67.3063 475.88 67.5237L487.15 72.4552C487.422 72.5883 487.663 72.7775 487.858 73.0105C488.052 73.2434 488.194 73.5149 488.276 73.8069C488.358 74.099 488.377 74.405 488.332 74.7049C488.287 75.0049 488.179 75.2919 488.015 75.5471C487.734 76.1217 487.25 76.572 486.656 76.8117C486.063 77.0513 485.402 77.0634 484.8 76.8457Z" fill="white"/>
<path d="M429.378 241.625C388.21 247.407 354.833 218.73 354.833 177.562C354.833 136.394 388.21 98.3176 429.378 92.5359C470.546 86.7541 503.922 115.431 503.922 156.599L514.095 155.177C514.095 108.382 476.157 75.7934 429.378 82.3636C382.598 88.9338 344.661 132.204 344.661 178.984C344.661 225.764 382.582 258.368 429.378 251.798V241.625Z" fill="#EB5454"/>
<path d="M399.759 219.885L394.196 230.304L396.378 231.469L401.941 221.05L399.759 219.885Z" fill="#263238"/>
<path d="M462.35 102.678L456.787 113.097L458.969 114.262L464.532 103.843L462.35 102.678Z" fill="#263238"/>
<path d="M370.829 140.139L369.839 142.406L379.473 146.613L380.463 144.346L370.829 140.139Z" fill="#263238"/>
<path d="M397.305 113.681L395.203 114.992L400.75 123.888L402.852 122.577L397.305 113.681Z" fill="#263238"/>
<path d="M379.273 201.563L369.626 208.484L371.068 210.494L380.715 203.573L379.273 201.563Z" fill="#263238"/>
<path d="M487.681 123.709L478.034 130.631L479.476 132.641L489.123 125.719L487.681 123.709Z" fill="#263238"/>
<path d="M375.72 172.123L360.885 174.208L361.574 179.107L376.408 177.022L375.72 172.123Z" fill="#263238"/>
<path d="M431.851 98.9365H426.904V113.777H431.851V98.9365Z" fill="#263238"/>
<path d="M431.851 220.387H426.904V235.228H431.851V220.387Z" fill="#263238"/>
<path d="M410.222 151.005C409.646 151.584 409.323 152.368 409.323 153.184C409.323 154.001 409.646 154.785 410.222 155.364L426.826 169.618L431.17 164.655L414.582 150.386C414.256 150.138 413.884 149.957 413.488 149.853C413.091 149.75 412.678 149.726 412.273 149.784C411.867 149.841 411.477 149.979 411.125 150.188C410.773 150.398 410.466 150.675 410.222 151.005Z" fill="#EB5454"/>
<path opacity="0.4" d="M410.222 151.005C409.646 151.584 409.323 152.368 409.323 153.184C409.323 154.001 409.646 154.785 410.222 155.364L426.826 169.618L431.17 164.655L414.582 150.386C414.256 150.138 413.884 149.957 413.488 149.853C413.091 149.75 412.678 149.726 412.273 149.784C411.867 149.841 411.477 149.979 411.125 150.188C410.773 150.398 410.466 150.675 410.222 151.005Z" fill="white"/>
<path d="M521.345 152.922L508.962 169.51L496.595 156.4L521.345 152.922Z" fill="#EB5454"/>
<path d="M457.621 134.398C457.295 134.15 456.923 133.968 456.527 133.865C456.13 133.761 455.717 133.738 455.311 133.795C454.906 133.853 454.516 133.99 454.164 134.2C453.812 134.41 453.505 134.687 453.261 135.016L430.783 160.648C429.579 160.496 428.356 160.647 427.225 161.087C426.094 161.527 425.091 162.242 424.306 163.168C421.77 166.074 421.77 170.202 424.306 172.443C426.841 174.685 430.984 173.989 433.581 171.145C434.382 170.253 434.944 169.172 435.214 168.005C435.485 166.837 435.455 165.619 435.127 164.466L457.605 138.819C457.901 138.532 458.136 138.189 458.297 137.81C458.458 137.431 458.542 137.024 458.543 136.612C458.545 136.2 458.464 135.792 458.305 135.412C458.147 135.032 457.914 134.687 457.621 134.398Z" fill="#EB5454"/>
<path d="M285.729 138.316C269.203 138.316 255.815 148.071 255.815 160.099C255.815 168.833 262.911 176.362 273.129 179.825C272.034 184.841 270.15 189.652 267.549 194.078C271.257 193.526 274.791 192.139 277.885 190.02C280.978 187.902 283.549 185.108 285.404 181.85H285.729C302.255 181.85 315.642 172.11 315.642 160.083C315.642 148.056 302.255 138.316 285.729 138.316Z" fill="#EB5454"/>
<path opacity="0.7" d="M285.729 138.316C269.203 138.316 255.815 148.071 255.815 160.099C255.815 168.833 262.911 176.362 273.129 179.825C272.034 184.841 270.15 189.652 267.549 194.078C271.257 193.526 274.791 192.139 277.885 190.02C280.978 187.902 283.549 185.108 285.404 181.85H285.729C302.255 181.85 315.642 172.11 315.642 160.083C315.642 148.056 302.255 138.316 285.729 138.316Z" fill="white"/>
<path d="M272.543 164.287C274.225 164.287 275.588 162.924 275.588 161.242C275.588 159.56 274.225 158.196 272.543 158.196C270.861 158.196 269.497 159.56 269.497 161.242C269.497 162.924 270.861 164.287 272.543 164.287Z" fill="#263238"/>
<path d="M288.574 161.24C288.574 161.852 288.393 162.45 288.053 162.958C287.713 163.467 287.23 163.863 286.665 164.097C286.1 164.331 285.479 164.392 284.879 164.273C284.279 164.153 283.728 163.859 283.296 163.427C282.863 162.994 282.569 162.443 282.45 161.843C282.33 161.244 282.391 160.622 282.625 160.057C282.859 159.492 283.256 159.009 283.764 158.669C284.273 158.33 284.87 158.148 285.482 158.148C286.302 158.148 287.088 158.474 287.668 159.054C288.248 159.634 288.574 160.42 288.574 161.24Z" fill="#263238"/>
<path d="M298.514 164.287C300.196 164.287 301.56 162.924 301.56 161.242C301.56 159.56 300.196 158.196 298.514 158.196C296.832 158.196 295.469 159.56 295.469 161.242C295.469 162.924 296.832 164.287 298.514 164.287Z" fill="#263238"/>
<path d="M557.084 471.584C557.084 471.584 557.285 450.946 549.771 453.667C542.258 456.388 557.084 471.584 557.084 471.584Z" fill="#EB5454"/>
<path d="M565.156 452.479C565.156 452.479 575.112 435.968 566.114 433.603C557.117 431.238 565.156 452.479 565.156 452.479Z" fill="#EB5454"/>
<path d="M604.499 440.818C604.499 440.818 625.168 439.752 620.499 432.006C615.83 424.261 604.499 440.818 604.499 440.818Z" fill="#EB5454"/>
<path d="M571.801 446.31C571.801 446.31 593.444 441.425 589.394 453.576C585.344 465.727 571.801 446.31 571.801 446.31Z" fill="#EB5454"/>
<path d="M556.081 490.244C556.081 490.244 547.81 471.507 543.173 478.17C538.535 484.833 556.081 490.244 556.081 490.244Z" fill="#EB5454"/>
<path d="M579.671 442.412C579.671 442.412 601.716 436.631 594.852 428.499C587.988 420.367 579.671 442.412 579.671 442.412Z" fill="#EB5454"/>
<path d="M596.337 440.138C596.337 440.138 613.775 448.702 605.736 454.298C597.697 459.895 596.337 440.138 596.337 440.138Z" fill="#EB5454"/>
<path d="M559.265 463.285C559.265 463.285 571.339 448.753 575.065 459.312C578.79 469.87 559.265 463.285 559.265 463.285Z" fill="#EB5454"/>
<g opacity="0.4">
<path d="M556.079 490.245C556.079 490.245 547.808 471.508 543.171 478.171C538.533 484.834 556.079 490.245 556.079 490.245Z" fill="white"/>
<path d="M579.669 442.413C579.669 442.413 601.714 436.632 594.85 428.5C587.987 420.368 579.669 442.413 579.669 442.413Z" fill="white"/>
<path d="M596.335 440.138C596.335 440.138 613.774 448.702 605.735 454.298C597.696 459.895 596.335 440.138 596.335 440.138Z" fill="white"/>
<path d="M559.264 463.286C559.264 463.286 571.338 448.754 575.064 459.312C578.789 469.871 559.264 463.286 559.264 463.286Z" fill="white"/>
</g>
<path d="M555.957 482.14C555.957 482.14 564.614 463.589 571.586 472.942C578.558 482.295 555.957 482.14 555.957 482.14Z" fill="#EB5454"/>
<path d="M556.096 501.653C553.472 489.564 553.849 477.017 557.194 465.107C564.274 441.918 585.994 436.461 607.946 439.97C609.693 440.249 608.92 442.877 607.189 442.598C595.533 440.743 582.454 440.558 572.297 447.607C565.031 452.693 560.919 460.779 558.94 469.25C556.62 479.696 556.562 490.518 558.77 500.988C559.126 502.72 556.467 503.4 556.096 501.668V501.653Z" fill="#EB5454"/>
<g opacity="0.3">
<path d="M556.095 501.652C553.472 489.563 553.849 477.016 557.193 465.106C564.273 441.917 585.994 436.46 607.946 439.969C609.693 440.248 608.92 442.876 607.188 442.597C595.532 440.742 582.454 440.557 572.297 447.606C565.031 452.692 560.919 460.778 558.94 469.249C556.619 479.695 556.561 490.517 558.77 500.987C559.125 502.719 556.466 503.399 556.095 501.668V501.652Z" fill="black"/>
</g>
<path d="M538.89 465.322C538.89 465.322 528.068 440.092 521.05 446.678C514.031 453.263 538.89 465.322 538.89 465.322Z" fill="#EB5454"/>
<path d="M537.961 438.486C537.961 438.486 540.527 414.045 529.025 415.096C517.524 416.148 537.961 438.486 537.961 438.486Z" fill="#EB5454"/>
<path d="M576.595 407.134C576.595 407.134 599.552 396.823 590.122 389.433C580.691 382.044 576.595 407.134 576.595 407.134Z" fill="#EB5454"/>
<path d="M542.26 428.079C542.26 428.079 564.352 412.62 566.16 429.254C567.969 445.889 542.26 428.079 542.26 428.079Z" fill="#EB5454"/>
<path d="M547.702 488.423C547.702 488.423 528.239 469.284 526.492 479.394C524.745 489.505 547.702 488.423 547.702 488.423Z" fill="#EB5454"/>
<path d="M549.139 419.903C549.139 419.903 571.184 403.238 559.033 396.328C546.882 389.418 549.139 419.903 549.139 419.903Z" fill="#EB5454"/>
<path d="M566.932 409.872C566.932 409.872 591.342 412.701 585.143 423.012C578.944 433.324 566.932 409.872 566.932 409.872Z" fill="#EB5454"/>
<path d="M536.987 454.209C536.987 454.209 543.016 431.251 552.879 442.49C562.742 453.729 536.987 454.209 536.987 454.209Z" fill="#EB5454"/>
<g opacity="0.4">
<path d="M547.702 488.423C547.702 488.423 528.239 469.284 526.492 479.394C524.745 489.505 547.702 488.423 547.702 488.423Z" fill="white"/>
<path d="M549.139 419.903C549.139 419.903 571.184 403.238 559.033 396.328C546.882 389.418 549.139 419.903 549.139 419.903Z" fill="white"/>
<path d="M566.932 409.872C566.932 409.872 591.342 412.701 585.143 423.012C578.944 433.324 566.932 409.872 566.932 409.872Z" fill="white"/>
<path d="M536.989 454.208C536.989 454.208 543.018 431.251 552.881 442.489C562.744 453.728 536.989 454.208 536.989 454.208Z" fill="white"/>
</g>
<path d="M543.265 478.616C543.265 478.616 543.265 452.226 556.158 460.59C569.051 468.953 543.265 478.616 543.265 478.616Z" fill="#EB5454"/>
<path d="M553.761 502.302C544.702 489.053 537.714 472.929 535.612 457.346C531.376 426.056 553.174 409.901 580.057 404.583C582.191 404.166 582.701 407.675 580.598 408.139C566.329 410.952 551.226 416.471 543.496 429.457C537.915 438.81 537.513 450.451 539.755 461.613C542.737 475.459 548.399 488.588 556.42 500.261C556.55 500.438 556.644 500.638 556.696 500.851C556.749 501.064 556.759 501.285 556.726 501.502C556.693 501.718 556.617 501.927 556.504 502.114C556.39 502.302 556.241 502.465 556.064 502.595C555.888 502.725 555.687 502.819 555.474 502.871C555.262 502.924 555.04 502.934 554.824 502.901C554.607 502.868 554.399 502.793 554.211 502.679C554.023 502.566 553.86 502.416 553.73 502.24L553.761 502.302Z" fill="#EB5454"/>
<g opacity="0.3">
<path d="M553.761 502.302C544.702 489.053 537.714 472.929 535.612 457.346C531.376 426.056 553.174 409.901 580.057 404.583C582.191 404.166 582.701 407.675 580.598 408.139C566.329 410.952 551.226 416.471 543.496 429.457C537.915 438.81 537.513 450.451 539.755 461.613C542.737 475.459 548.399 488.588 556.42 500.261C556.55 500.438 556.644 500.638 556.696 500.851C556.749 501.064 556.759 501.285 556.726 501.502C556.693 501.718 556.617 501.927 556.504 502.114C556.39 502.302 556.241 502.465 556.064 502.595C555.888 502.725 555.687 502.819 555.474 502.871C555.262 502.924 555.04 502.934 554.824 502.901C554.607 502.868 554.399 502.793 554.211 502.679C554.023 502.566 553.86 502.416 553.73 502.24L553.761 502.302Z" fill="black"/>
</g>
<path d="M536.324 471.957C536.324 471.957 541.456 454.843 546.96 459.017C552.463 463.191 536.324 471.957 536.324 471.957Z" fill="#EB5454"/>
<path d="M534.531 454.084C534.531 454.084 530.558 437.867 538.596 438.238C546.635 438.609 534.531 454.084 534.531 454.084Z" fill="#EB5454"/>
<path d="M505.018 434.401C505.018 434.401 488.214 428.218 494.073 423.008C499.932 417.798 505.018 434.401 505.018 434.401Z" fill="#EB5454"/>
<path d="M530.634 447.264C530.634 447.264 513.969 437.664 514.232 448.81C514.495 459.956 530.634 447.264 530.634 447.264Z" fill="#EB5454"/>
<path d="M532.351 487.612C532.351 487.612 544.069 474.302 546.187 480.98C548.305 487.659 532.351 487.612 532.351 487.612Z" fill="#EB5454"/>
<path d="M525.129 442.023C525.129 442.023 508.402 431.573 516.163 426.564C523.923 421.555 525.129 442.023 525.129 442.023Z" fill="#EB5454"/>
<path d="M511.927 435.949C511.927 435.949 495.324 438.546 500.534 445.225C505.744 451.903 511.927 435.949 511.927 435.949Z" fill="#EB5454"/>
<path d="M536.632 464.516C536.632 464.516 530.449 449.396 524.59 457.172C518.731 464.948 536.632 464.516 536.632 464.516Z" fill="#EB5454"/>
<g opacity="0.4">
<path d="M532.349 487.613C532.349 487.613 544.067 474.303 546.185 480.981C548.303 487.66 532.349 487.613 532.349 487.613Z" fill="white"/>
<path d="M525.13 442.024C525.13 442.024 508.403 431.574 516.164 426.565C523.924 421.556 525.13 442.024 525.13 442.024Z" fill="white"/>
<path d="M511.927 435.95C511.927 435.95 495.324 438.547 500.533 445.226C505.743 451.904 511.927 435.95 511.927 435.95Z" fill="white"/>
<path d="M536.631 464.517C536.631 464.517 530.447 449.397 524.588 457.173C518.729 464.949 536.631 464.517 536.631 464.517Z" fill="white"/>
</g>
<path d="M534.5 480.955C534.5 480.955 532.134 463.378 523.956 469.33C515.778 475.282 534.5 480.955 534.5 480.955Z" fill="#EB5454"/>
<path d="M529.382 497.03C534.66 487.72 537.569 477.257 537.854 466.56C537.962 445.597 521.436 435.486 502.39 432.735C500.844 432.518 500.844 434.899 502.39 435.115C512.501 436.568 523.4 439.753 529.923 448.225C534.561 454.285 535.953 462.03 535.412 469.528C534.643 478.76 531.907 487.721 527.388 495.809C526.646 497.138 528.671 498.39 529.429 497.045L529.382 497.03Z" fill="#EB5454"/>
<g opacity="0.3">
<path d="M529.382 497.029C534.66 487.719 537.569 477.256 537.854 466.559C537.962 445.596 521.436 435.485 502.39 432.734C500.844 432.517 500.844 434.898 502.39 435.114C512.501 436.567 523.4 439.752 529.923 448.224C534.561 454.284 535.953 462.029 535.412 469.527C534.643 478.759 531.907 487.72 527.388 495.808C526.646 497.137 528.671 498.389 529.429 497.044L529.382 497.029Z" fill="black"/>
</g>
<path d="M577.491 492.684L571.509 537.809C571.134 540.615 569.754 543.19 567.624 545.055C565.495 546.92 562.76 547.949 559.93 547.951H522.719C519.888 547.949 517.154 546.92 515.024 545.055C512.895 543.19 511.514 540.615 511.14 537.809L505.157 492.684H577.491Z" fill="#EB5454"/>
<path opacity="0.3" d="M577.491 492.684L571.509 537.809C571.134 540.615 569.754 543.19 567.624 545.055C565.495 546.92 562.76 547.949 559.93 547.951H522.719C519.888 547.949 517.154 546.92 515.024 545.055C512.895 543.19 511.514 540.615 511.14 537.809L505.157 492.684H577.491Z" fill="white"/>
<path d="M241.516 406.004H231.359V472.757H241.516V406.004Z" fill="#263238"/>
<path opacity="0.5" d="M241.516 406.004H231.359V472.757H241.516V406.004Z" fill="white"/>
<path d="M267.303 522.753L243.511 518.455V470.686C243.513 470.334 243.445 469.986 243.312 469.66C243.178 469.335 242.981 469.039 242.732 468.791C242.484 468.542 242.188 468.345 241.862 468.211C241.537 468.078 241.188 468.01 240.837 468.012H232.04C231.688 468.01 231.338 468.077 231.012 468.211C230.686 468.344 230.389 468.541 230.139 468.79C229.889 469.038 229.691 469.334 229.555 469.659C229.42 469.985 229.35 470.334 229.35 470.686V518.455L205.574 522.753C203.905 523.051 202.394 523.927 201.305 525.227C200.217 526.527 199.621 528.169 199.622 529.864L236.431 526.541L273.255 529.864C273.253 528.17 272.656 526.529 271.568 525.23C270.48 523.93 268.971 523.054 267.303 522.753Z" fill="#263238"/>
<path d="M207.351 537.083C207.351 538.612 206.898 540.106 206.048 541.378C205.199 542.649 203.992 543.639 202.579 544.224C201.167 544.809 199.613 544.963 198.113 544.664C196.614 544.366 195.237 543.63 194.156 542.549C193.075 541.468 192.338 540.091 192.04 538.591C191.742 537.092 191.895 535.538 192.48 534.125C193.065 532.713 194.056 531.506 195.327 530.656C196.598 529.807 198.092 529.354 199.621 529.354C201.671 529.354 203.637 530.168 205.087 531.617C206.537 533.067 207.351 535.033 207.351 537.083Z" fill="#EB5454"/>
<path d="M280.985 537.083C280.985 538.612 280.531 540.106 279.682 541.378C278.833 542.649 277.625 543.639 276.213 544.224C274.801 544.809 273.246 544.963 271.747 544.664C270.248 544.366 268.87 543.63 267.789 542.549C266.708 541.468 265.972 540.091 265.674 538.591C265.376 537.092 265.529 535.538 266.114 534.125C266.699 532.713 267.69 531.506 268.961 530.656C270.232 529.807 271.726 529.354 273.255 529.354C274.27 529.354 275.275 529.553 276.213 529.942C277.151 530.33 278.003 530.9 278.721 531.617C279.438 532.335 280.008 533.187 280.396 534.125C280.785 535.063 280.985 536.068 280.985 537.083Z" fill="#EB5454"/>
<path d="M242.476 537.083C242.476 541.35 240.713 544.813 236.431 544.813C232.149 544.813 230.402 541.35 230.402 537.083C230.402 532.816 232.164 529.354 236.431 529.354C240.698 529.354 242.476 532.816 242.476 537.083Z" fill="#EB5454"/>
<g opacity="0.5">
<path d="M243.743 518.487V527.206L246.618 527.469V519.013L243.743 518.487Z" fill="black"/>
<path d="M226.32 518.997V527.454L229.196 527.206V518.487L226.32 518.997Z" fill="black"/>
</g>
<path d="M170.125 345.204C169.484 345.205 168.852 345.347 168.271 345.619C167.691 345.891 167.178 346.288 166.768 346.78C166.358 347.273 166.062 347.849 165.899 348.469C165.736 349.089 165.712 349.737 165.827 350.368L175.258 401.182C175.684 403.491 176.905 405.578 178.71 407.081C180.514 408.583 182.788 409.406 185.136 409.407H333.746C334.623 409.407 335.49 409.234 336.3 408.898C337.109 408.562 337.844 408.07 338.463 407.45C339.082 406.829 339.573 406.093 339.907 405.283C340.241 404.473 340.411 403.604 340.409 402.728C340.409 400.215 339.411 397.804 337.634 396.027C335.857 394.25 333.446 393.252 330.933 393.252H246.139C243.891 393.252 241.708 392.501 239.937 391.117C238.167 389.733 236.91 387.796 236.368 385.615L228.778 354.974C228.087 352.187 226.484 349.711 224.223 347.94C221.962 346.169 219.174 345.206 216.302 345.204H170.125Z" fill="#263238"/>
<path d="M190.191 385.615L182.601 354.974C181.91 352.187 180.307 349.711 178.046 347.94C175.785 346.169 172.997 345.206 170.125 345.204C169.484 345.205 168.852 345.347 168.271 345.619C167.691 345.891 167.178 346.288 166.768 346.78C166.358 347.273 166.062 347.849 165.899 348.469C165.736 349.089 165.712 349.737 165.827 350.368L175.258 401.182C175.684 403.491 176.905 405.578 178.71 407.081C180.514 408.583 182.788 409.406 185.136 409.407H287.554C288.432 409.409 289.301 409.237 290.112 408.902C290.923 408.567 291.66 408.076 292.281 407.455C292.901 406.835 293.393 406.098 293.728 405.286C294.063 404.475 294.234 403.606 294.232 402.728C294.228 400.216 293.229 397.808 291.452 396.032C289.676 394.255 287.268 393.256 284.756 393.252H199.977C197.726 393.259 195.538 392.51 193.764 391.125C191.99 389.74 190.732 387.8 190.191 385.615Z" fill="#263238"/>
<path opacity="0.2" d="M190.191 385.615L182.601 354.974C181.91 352.187 180.307 349.711 178.046 347.94C175.785 346.169 172.997 345.206 170.125 345.204C169.484 345.205 168.852 345.347 168.271 345.619C167.691 345.891 167.178 346.288 166.768 346.78C166.358 347.273 166.062 347.849 165.899 348.469C165.736 349.089 165.712 349.737 165.827 350.368L175.258 401.182C175.684 403.491 176.905 405.578 178.71 407.081C180.514 408.583 182.788 409.406 185.136 409.407H287.554C288.432 409.409 289.301 409.237 290.112 408.902C290.923 408.567 291.66 408.076 292.281 407.455C292.901 406.835 293.393 406.098 293.728 405.286C294.063 404.475 294.234 403.606 294.232 402.728C294.228 400.216 293.229 397.808 291.452 396.032C289.676 394.255 287.268 393.256 284.756 393.252H199.977C197.726 393.259 195.538 392.51 193.764 391.125C191.99 389.74 190.732 387.8 190.191 385.615Z" fill="white"/>
<path d="M252.973 199.81C252.973 199.81 269.885 204.849 261.985 217.356L254.642 206.658L252.973 199.81Z" fill="#263238"/>
<path d="M313.898 264.277L321.272 253.455L328.569 255.774L329.898 258.711L320.808 271.713L313.898 264.277Z" fill="#DBB178"/>
<path d="M324.826 267.104C317.436 278.699 305.78 295.611 301.328 294.606C288.249 291.685 270.27 279.302 261.041 265.697C259.648 263.645 259.076 261.144 259.44 258.69C259.804 256.237 261.076 254.009 263.004 252.449V252.356C264.01 251.535 265.169 250.92 266.413 250.546C267.658 250.173 268.963 250.049 270.256 250.181C271.548 250.313 272.802 250.699 273.945 251.316C275.088 251.933 276.098 252.77 276.918 253.778C277.088 253.979 277.242 254.196 277.397 254.412C285.575 266.146 295.948 277.276 297.648 278.219C299.643 279.363 304.822 274.463 315.782 260.611L324.826 267.104Z" fill="#EB5454"/>
<path opacity="0.6" d="M324.826 267.104C317.436 278.699 305.78 295.611 301.328 294.606C288.249 291.685 270.27 279.302 261.041 265.697C259.648 263.645 259.076 261.144 259.44 258.69C259.804 256.237 261.076 254.009 263.004 252.449V252.356C264.01 251.535 265.169 250.92 266.413 250.546C267.658 250.173 268.963 250.049 270.256 250.181C271.548 250.313 272.802 250.699 273.945 251.316C275.088 251.933 276.098 252.77 276.918 253.778C277.088 253.979 277.242 254.196 277.397 254.412C285.575 266.146 295.948 277.276 297.648 278.219C299.643 279.363 304.822 274.463 315.782 260.611L324.826 267.104Z" fill="white"/>
<path d="M324.997 257.749L339.606 260.609L332.804 248.365C332.804 248.365 323.961 248.365 321.271 253.451L324.997 257.749Z" fill="#DBB178"/>
<path opacity="0.2" d="M282.683 286.15C272.093 278.915 270.687 261.94 270.687 261.94L264.688 259.204L261.813 266.841C267.559 274.474 274.627 281.014 282.683 286.15Z" fill="black"/>
<path d="M349.933 255.369L343.687 245.413L332.819 248.366L339.606 260.61L349.933 255.369Z" fill="#DBB178"/>
<path d="M268.801 323.316L216.982 326.717C216.982 326.717 216.611 312.803 214.802 299.988C214.241 295.528 213.352 291.115 212.143 286.785C210.798 282.364 209.051 277.402 207.041 271.635C206.779 270.924 206.516 270.213 206.222 269.471C205.542 267.678 204.846 265.807 204.058 263.859V263.766C203.358 261.863 203.434 259.761 204.269 257.913C205.105 256.065 206.634 254.619 208.526 253.888C208.882 253.749 209.249 253.641 209.623 253.563C212.916 252.868 216.24 252.234 219.61 251.708L222.516 251.275C230.276 250.119 238.096 249.417 245.937 249.173C250.003 249.173 254.347 249.297 258.057 249.467L261.149 249.621C265.076 249.853 267.797 250.1 267.797 250.1C267.797 250.1 269.497 250.441 270.502 259.546C270.525 260.064 270.576 260.58 270.656 261.092C270.78 262.978 270.888 265.359 270.935 268.219C271.089 279.906 270.394 299.524 268.801 323.316Z" fill="#EB5454"/>
<path opacity="0.6" d="M268.801 323.316L216.982 326.717C216.982 326.717 216.611 312.803 214.802 299.988C214.241 295.528 213.352 291.115 212.143 286.785C210.798 282.364 209.051 277.402 207.041 271.635C206.779 270.924 206.516 270.213 206.222 269.471C205.542 267.678 204.846 265.807 204.058 263.859V263.766C203.358 261.863 203.434 259.761 204.269 257.913C205.105 256.065 206.634 254.619 208.526 253.888C208.882 253.749 209.249 253.641 209.623 253.563C212.916 252.868 216.24 252.234 219.61 251.708L222.516 251.275C230.276 250.119 238.096 249.417 245.937 249.173C250.003 249.173 254.347 249.297 258.057 249.467L261.149 249.621C265.076 249.853 267.797 250.1 267.797 250.1C267.797 250.1 269.497 250.441 270.502 259.546C270.525 260.064 270.576 260.58 270.656 261.092C270.78 262.978 270.888 265.359 270.935 268.219C271.089 279.906 270.394 299.524 268.801 323.316Z" fill="white"/>
<path d="M224.324 251.025L237.248 268.247L246.524 260.3L258.582 266.113L252.058 249.247C250.049 249.247 247.977 249.247 245.983 249.247C238.736 249.443 231.506 250.037 224.324 251.025Z" fill="#EB5454"/>
<path opacity="0.9" d="M224.324 251.025L237.248 268.247L246.524 260.3L258.582 266.113L252.058 249.247C250.049 249.247 247.977 249.247 245.983 249.247C238.736 249.443 231.506 250.037 224.324 251.025Z" fill="white"/>
<path d="M338.709 531.136H327.686L332.71 447.934H353.333L338.709 531.136Z" fill="#DBB178"/>
<path d="M326.464 530.085C326.341 529.033 339.496 528.044 339.496 528.044C339.496 528.044 348.648 535.093 356.687 535.774C364.726 536.454 361.031 541.787 352.328 542.993L330.793 546.085C324.609 546.997 327.732 541.076 326.464 530.085Z" fill="#263238"/>
<path d="M346.099 530.529C344.421 530.43 342.763 530.113 341.167 529.586C341.103 529.571 341.045 529.539 340.997 529.493C340.966 529.387 340.966 529.274 340.997 529.168C340.997 529.029 341.724 525.767 343.409 524.809C343.661 524.655 343.944 524.558 344.237 524.523C344.531 524.488 344.828 524.517 345.109 524.608C345.929 524.855 346.145 525.319 346.161 525.644C346.161 526.308 345.527 527.051 344.615 527.731C345.494 527.483 346.425 527.483 347.305 527.731C347.496 527.803 347.671 527.913 347.82 528.054C347.968 528.194 348.087 528.363 348.17 528.55C348.299 528.794 348.355 529.069 348.33 529.344C348.305 529.618 348.202 529.879 348.031 530.096C347.469 530.488 346.775 530.644 346.099 530.529ZM342.559 529.138C344.537 529.648 346.856 529.988 347.366 529.431C347.49 529.323 347.459 529.091 347.366 528.813C347.329 528.722 347.272 528.641 347.2 528.574C347.128 528.507 347.042 528.457 346.949 528.426C345.448 528.248 343.927 528.495 342.559 529.138ZM344.352 525.273C344.122 525.272 343.897 525.337 343.703 525.458C342.822 526.225 342.201 527.246 341.925 528.38C343.625 527.406 345.326 526.185 345.326 525.659C345.326 525.566 345.14 525.443 344.847 525.335C344.685 525.29 344.519 525.269 344.352 525.273Z" fill="#EB5454"/>
<path opacity="0.2" d="M331.83 462.481L350.674 463.053L353.333 447.934H332.711L331.83 462.481Z" fill="black"/>
<path d="M285.807 532.539L275.248 531.132L291.96 439.01L312.799 444.962L285.807 532.539Z" fill="#DBB178"/>
<path d="M273.871 529.664C273.871 528.581 287.042 529.664 287.042 529.664C287.042 529.664 295.035 537.996 302.873 539.867C310.711 541.737 306.274 546.483 297.493 546.36L275.726 546.097C269.434 546.035 273.454 540.763 273.871 529.664Z" fill="#263238"/>
<path d="M293.969 533.098C292.043 532.861 290.175 532.285 288.45 531.398L288.342 531.305C288.334 531.288 288.331 531.269 288.331 531.251C288.331 531.232 288.334 531.214 288.342 531.197C288.318 531.148 288.306 531.096 288.306 531.042C288.306 530.989 288.318 530.936 288.342 530.887C288.342 530.764 289.547 527.672 291.433 526.945C291.7 526.823 291.99 526.76 292.284 526.76C292.577 526.76 292.867 526.823 293.134 526.945C293.907 527.332 294.046 527.796 294.015 528.12C294.015 528.785 293.18 529.419 292.206 529.944C293.114 529.833 294.035 529.978 294.865 530.362C295.043 530.456 295.199 530.588 295.322 530.748C295.444 530.908 295.531 531.093 295.576 531.289C295.676 531.541 295.695 531.817 295.631 532.08C295.567 532.343 295.424 532.58 295.221 532.758C294.858 533.018 294.413 533.139 293.969 533.098ZM289.841 531.119C291.727 531.923 293.969 532.665 294.479 532.14C294.603 532.047 294.633 531.83 294.479 531.521C294.455 531.429 294.413 531.343 294.355 531.269C294.296 531.194 294.222 531.133 294.139 531.088C292.728 530.723 291.246 530.733 289.841 531.119ZM292.005 527.564C291.835 527.57 291.668 527.607 291.511 527.672C290.537 528.289 289.776 529.19 289.331 530.254C291.217 529.558 292.995 528.553 293.026 528.058C293.026 527.966 292.871 527.811 292.608 527.687C292.444 527.605 292.266 527.553 292.083 527.533L292.005 527.564Z" fill="#EB5454"/>
<path opacity="0.2" d="M312.798 444.962L291.959 439.01L288.667 457.174L307.96 460.653L312.798 444.962Z" fill="black"/>
<path d="M327.255 455.077L353.767 456.468C360.554 425.21 367.325 390.751 365.98 383.191C363.429 368.706 343.75 353.958 267.35 341.451L231.793 394.879C231.793 394.879 283.799 392.451 331.197 392.451C331.181 392.482 328.538 422.226 327.255 455.077Z" fill="#EB5454"/>
<path opacity="0.1" d="M327.255 455.077L353.767 456.468C360.554 425.21 367.325 390.751 365.98 383.191C363.429 368.706 343.75 353.958 267.35 341.451L231.793 394.879C231.793 394.879 283.799 392.451 331.197 392.451C331.181 392.482 328.538 422.226 327.255 455.077Z" fill="black"/>
<path d="M325.477 450.915L326.265 457.856L355.313 458.846L356.735 452.461L325.477 450.915Z" fill="#EB5454"/>
<path d="M250.421 249.221H245.938C239.507 249.422 233.091 249.947 226.707 250.767C229.489 254.09 238.162 259.269 243.975 259.269C252.091 259.207 250.282 253.178 250.421 249.221Z" fill="#DBB178"/>
<path d="M286.04 449.695L313.141 454.101C324.148 423.29 335.155 390.501 334.969 383.112C334.598 368.394 331.367 360.758 278.141 348.885C278.141 348.885 275.312 344.757 268.865 323.377L216.984 326.778C216.984 326.778 193.315 370.373 211.635 388.986C215.685 393.129 223.647 394.984 231.732 394.907C231.732 394.907 250.438 395 296.661 392.836C296.676 392.836 291.188 419.209 286.04 449.695Z" fill="#EB5454"/>
<path d="M284.957 444.962L316.355 450.264L313.371 456.866L284.818 452.181L284.957 444.962Z" fill="#EB5454"/>
<path opacity="0.1" d="M325.477 450.915L326.265 457.856L355.313 458.846L356.735 452.461L325.477 450.915Z" fill="black"/>
<path d="M246.494 244.754C245.897 248.571 246.055 252.468 246.958 256.225L232.751 254.138C232.444 254.093 232.153 253.977 231.899 253.801C231.645 253.625 231.434 253.392 231.285 253.121C231.135 252.851 231.05 252.549 231.036 252.24C231.022 251.931 231.08 251.623 231.205 251.34C233.152 246.918 233.925 238.014 234.405 233.917C234.668 231.444 234.776 229.186 234.791 227.61C234.807 226.033 234.791 225.445 234.791 225.445L241.145 228.352L251.518 233.098C249.127 236.633 247.422 240.588 246.494 244.754Z" fill="#DBB178"/>
<path opacity="0.2" d="M251.548 233.097C249.133 236.629 247.403 240.583 246.446 244.753C241.262 242.697 236.981 238.86 234.373 233.931C234.651 231.458 234.759 229.201 234.774 227.624C237.032 227.856 239.134 228.088 241.144 228.366L251.548 233.097Z" fill="black"/>
<path d="M252.306 222.95C251.889 227.696 254.316 231.53 257.717 231.53C261.118 231.53 264.226 227.696 264.643 222.95C265.06 218.204 262.633 214.354 259.232 214.354C255.831 214.354 252.724 218.204 252.306 222.95Z" fill="#EB5454"/>
<path opacity="0.5" d="M251.702 222.95C251.285 227.696 253.712 231.53 257.113 231.53C260.514 231.53 263.606 227.696 264.024 222.95C264.441 218.204 262.014 214.354 258.613 214.354C255.212 214.354 252.104 218.204 251.702 222.95Z" fill="black"/>
<path d="M227.912 214.607C230.447 226.232 231.328 233.158 238.192 238.46C240.405 240.218 243.057 241.335 245.861 241.691C248.664 242.047 251.511 241.627 254.093 240.478C256.674 239.329 258.892 237.495 260.504 235.174C262.116 232.853 263.061 230.135 263.236 227.314C264.148 216.493 259.851 199.286 247.607 195.994C244.975 195.208 242.183 195.129 239.511 195.764C236.839 196.4 234.382 197.728 232.386 199.614C230.39 201.501 228.925 203.879 228.14 206.511C227.355 209.143 227.276 211.935 227.912 214.607Z" fill="#DBB178"/>
<path d="M225.223 226.738C227.106 229.01 229.716 230.561 232.613 231.128C236.276 231.746 237.111 228.361 235.241 225.068C233.571 222.115 229.629 218.235 226.352 219.101C223.074 219.966 222.858 223.878 225.223 226.738Z" fill="#DBB178"/>
<path d="M246.263 215.75C246.418 216.708 247.036 217.419 247.67 217.296C248.304 217.172 248.675 216.384 248.536 215.441C248.396 214.498 247.763 213.771 247.129 213.895C246.495 214.018 246.124 214.791 246.263 215.75Z" fill="#263238"/>
<path d="M257.178 214.469C257.317 215.427 257.951 216.138 258.569 216.015C259.187 215.891 259.589 215.102 259.45 214.144C259.311 213.185 258.662 212.49 258.043 212.598C257.425 212.706 256.946 213.51 257.178 214.469Z" fill="#263238"/>
<path d="M253.729 215.346C255.329 218.131 257.289 220.694 259.558 222.967C258.966 223.511 258.262 223.918 257.495 224.159C256.728 224.4 255.917 224.468 255.121 224.358L253.729 215.346Z" fill="#C0854B"/>
<path d="M242.383 212.674C242.292 212.695 242.197 212.695 242.105 212.674C242.039 212.639 241.981 212.59 241.934 212.532C241.887 212.473 241.852 212.406 241.832 212.334C241.812 212.261 241.806 212.186 241.816 212.112C241.826 212.037 241.851 211.966 241.889 211.901C242.304 211.112 242.909 210.438 243.648 209.939C244.387 209.44 245.237 209.132 246.124 209.041C246.198 209.035 246.272 209.043 246.342 209.067C246.412 209.09 246.477 209.128 246.532 209.177C246.587 209.226 246.631 209.286 246.662 209.353C246.693 209.42 246.71 209.493 246.712 209.567C246.718 209.641 246.709 209.716 246.686 209.787C246.663 209.858 246.626 209.923 246.577 209.98C246.528 210.036 246.468 210.082 246.401 210.114C246.334 210.147 246.261 210.166 246.186 210.17C245.489 210.248 244.822 210.498 244.244 210.898C243.667 211.297 243.198 211.833 242.878 212.458C242.82 212.532 242.744 212.59 242.658 212.628C242.571 212.666 242.477 212.681 242.383 212.674Z" fill="#263238"/>
<path d="M261.181 210.245C261.089 210.248 260.997 210.227 260.916 210.184C260.835 210.14 260.766 210.076 260.717 209.998C260.325 209.387 259.797 208.874 259.176 208.499C258.554 208.123 257.854 207.896 257.131 207.834C256.997 207.811 256.876 207.743 256.788 207.639C256.7 207.536 256.652 207.405 256.652 207.269C256.652 207.134 256.7 207.003 256.788 206.899C256.876 206.796 256.997 206.727 257.131 206.705C258.038 206.765 258.919 207.037 259.703 207.499C260.487 207.96 261.152 208.599 261.645 209.364C261.729 209.488 261.762 209.639 261.736 209.787C261.71 209.934 261.627 210.065 261.506 210.152C261.407 210.212 261.295 210.243 261.181 210.245Z" fill="#263238"/>
<path d="M230.185 229.894C230.185 229.894 237.574 222.334 233.957 203.783C233.957 203.783 239.908 208.838 253.729 205.097C253.729 205.097 245.551 205.901 241.81 202.005C241.81 202.005 249.431 205.546 261.752 202.005C261.752 202.005 259.557 189.53 246.293 188.896C246.293 188.896 250.575 185.294 254.703 185.99C254.703 185.99 250.483 182.357 239.769 189.422L235.533 191.153C235.533 191.153 223.599 186.855 216.982 196.966C211.711 204.958 214.354 230.126 230.185 229.894Z" fill="#263238"/>
<path d="M257.283 226.478C257.283 226.478 253.542 225.535 242.999 225.303C244.174 228.503 246.416 231.146 251.826 231.208C252.5 231.283 253.183 231.218 253.831 231.016C254.478 230.815 255.077 230.481 255.59 230.037C256.102 229.593 256.518 229.047 256.809 228.434C257.1 227.822 257.262 227.156 257.283 226.478Z" fill="#263238"/>
<path d="M249.447 228.657C251.525 228.581 253.575 229.159 255.306 230.311C254.295 230.958 253.104 231.267 251.905 231.192C249.836 231.279 247.793 230.699 246.077 229.538C247.08 228.897 248.259 228.589 249.447 228.657Z" fill="#A02724"/>
<path d="M256.805 226.387C256.695 226.776 256.479 227.126 256.182 227.399C255.884 227.672 255.517 227.857 255.12 227.933C252.006 227.861 248.904 227.53 245.844 226.944C245.355 226.901 244.885 226.737 244.475 226.467C244.065 226.197 243.728 225.83 243.495 225.398C247.95 225.383 252.4 225.714 256.805 226.387Z" fill="white"/>
<path d="M224.45 218.608V206.132C224.449 202.44 225.64 198.846 227.846 195.885C230.052 192.924 233.155 190.755 236.693 189.699L240.867 188.957C237.239 190.039 234.058 192.264 231.796 195.3C229.534 198.336 228.313 202.022 228.315 205.808V218.608H224.45Z" fill="#EB5454"/>
<path d="M234.143 224.654C234.56 229.4 232.133 233.234 228.732 233.234C225.331 233.234 222.224 229.4 221.822 224.654C221.42 219.908 223.831 216.059 227.232 216.059C230.633 216.059 233.725 219.908 234.143 224.654Z" fill="#EB5454"/>
<path opacity="0.5" d="M234.143 224.654C234.56 229.4 232.133 233.234 228.732 233.234C225.331 233.234 222.224 229.4 221.822 224.654C221.42 219.908 223.831 216.059 227.232 216.059C230.633 216.059 233.725 219.908 234.143 224.654Z" fill="black"/>
<path d="M232.085 224.654C232.487 229.4 230.075 233.234 226.659 233.234C223.242 233.234 220.166 229.4 219.748 224.654C219.331 219.908 221.758 216.059 225.159 216.059C228.56 216.059 231.668 219.908 232.085 224.654Z" fill="#EB5454"/>
<path opacity="0.3" d="M227.802 225.908L227.524 223.403H228.003C227.385 220.945 225.654 219.105 223.752 219.105C221.851 219.105 220.459 220.945 220.258 223.403H220.583L220.861 225.908H220.49C221.109 228.366 222.84 230.19 224.726 230.19C226.612 230.19 228.034 228.366 228.22 225.908H227.802Z" fill="white"/>
<path d="M205.588 225.701L212.344 212.406L217.801 225.299C217.801 225.299 212.328 232.256 206.685 231.251L205.588 225.701Z" fill="#DBB178"/>
<path d="M222.842 207.506L226.815 218.559L217.786 225.3L212.345 212.406L222.842 207.506Z" fill="#DBB178"/>
<path d="M207.368 240.021L213.861 229.092L213.18 224.639L207.461 222.614L199.313 235.291L207.368 240.021Z" fill="#DBB178"/>
<path d="M212.052 233.217L200.195 259.313C200.195 259.313 205.961 254.134 209.146 253.392C214.217 252.202 229.521 256.824 214.016 273.659C214.016 273.659 183.313 292.844 177.052 285.408C172.183 279.626 192.867 244.487 202.344 229.09L212.052 233.217Z" fill="#EB5454"/>
<path opacity="0.6" d="M212.052 233.217L200.195 259.313C200.195 259.313 205.961 254.134 209.146 253.392C214.217 252.202 229.521 256.824 214.016 273.659C214.016 273.659 183.313 292.844 177.052 285.408C172.183 279.626 192.867 244.487 202.344 229.09L212.052 233.217Z" fill="white"/>
<path opacity="0.2" d="M200.192 259.314L196.883 269.502L206.592 254.568C204.327 255.966 202.186 257.554 200.192 259.314Z" fill="black"/>
<path d="M244.608 236.171C243.31 236.204 242.012 236.121 240.728 235.923C237.42 234.734 234.218 233.265 231.159 231.533L231.777 230.42C234.748 232.087 237.85 233.509 241.053 234.671C244.345 234.944 247.654 234.944 250.947 234.671L251.039 235.954C250.792 235.954 247.546 236.171 244.608 236.171Z" fill="#EB5454"/>
<path d="M245.999 236.436L252.183 235.972C252.183 235.972 252.013 234.055 249.091 234.132C246.169 234.209 245.999 236.436 245.999 236.436Z" fill="#EB5454"/>
<g opacity="0.5">
<path d="M244.608 236.171C243.31 236.204 242.012 236.121 240.728 235.923C237.42 234.734 234.218 233.265 231.159 231.533L231.777 230.42C234.748 232.087 237.85 233.509 241.053 234.671C244.345 234.944 247.654 234.944 250.947 234.671L251.039 235.954C250.792 235.954 247.546 236.171 244.608 236.171Z" fill="black"/>
<path d="M245.999 236.437L252.183 235.973C252.183 235.973 252.013 234.056 249.091 234.133C246.169 234.21 245.999 236.437 245.999 236.437Z" fill="black"/>
</g>
<path d="M492.25 546.548C491.925 546.56 491.601 546.508 491.296 546.395C490.991 546.282 490.712 546.11 490.474 545.889C490.235 545.668 490.043 545.402 489.907 545.107C489.772 544.811 489.696 544.492 489.684 544.167L474.225 365.179C474.198 363.635 473.594 362.157 472.533 361.036C471.472 359.915 470.029 359.231 468.489 359.119H395.46C393.92 359.231 392.477 359.915 391.416 361.036C390.354 362.157 389.751 363.635 389.724 365.179L374.265 544.167C374.263 544.498 374.195 544.826 374.064 545.131C373.933 545.435 373.742 545.71 373.502 545.939C373.263 546.169 372.98 546.348 372.67 546.465C372.36 546.583 372.03 546.637 371.699 546.625C371.031 546.49 370.44 546.103 370.049 545.545C369.657 544.987 369.495 544.3 369.596 543.626L385.055 364.623C385.596 358.362 390.064 353.646 395.46 353.646H468.489C473.885 353.646 478.352 358.362 478.893 364.623L494.353 543.626C494.453 544.3 494.291 544.987 493.9 545.545C493.509 546.103 492.918 546.49 492.25 546.625V546.548Z" fill="#EB5454"/>
<g opacity="0.4">
<path d="M492.249 546.553C491.924 546.565 491.6 546.513 491.295 546.4C490.99 546.287 490.711 546.115 490.473 545.894C490.234 545.673 490.042 545.407 489.906 545.112C489.771 544.816 489.695 544.497 489.683 544.172L474.224 365.184C474.197 363.64 473.593 362.162 472.532 361.041C471.471 359.919 470.028 359.236 468.488 359.124H395.459C393.919 359.236 392.476 359.919 391.415 361.041C390.353 362.162 389.75 363.64 389.723 365.184L374.264 544.172C374.262 544.503 374.194 544.831 374.063 545.136C373.932 545.44 373.741 545.715 373.501 545.944C373.262 546.174 372.979 546.352 372.669 546.47C372.359 546.588 372.029 546.642 371.698 546.63C371.03 546.495 370.439 546.108 370.048 545.55C369.656 544.992 369.494 544.305 369.595 543.631L385.054 364.627C385.595 358.366 390.063 353.651 395.459 353.651H468.488C473.884 353.651 478.351 358.366 478.892 364.627L494.352 543.631C494.452 544.305 494.29 544.992 493.899 545.55C493.508 546.108 492.917 546.495 492.249 546.63V546.553Z" fill="black"/>
</g>
<path d="M491.23 345.902H292.717C290.984 345.902 289.579 347.307 289.579 349.041V359.213C289.579 360.946 290.984 362.351 292.717 362.351H491.23C492.963 362.351 494.368 360.946 494.368 359.213V349.041C494.368 347.307 492.963 345.902 491.23 345.902Z" fill="#263238"/>
<path opacity="0.2" d="M404.502 345.902H491.229C492.049 345.902 492.836 346.228 493.415 346.808C493.995 347.388 494.321 348.174 494.321 348.994V359.166C494.321 359.986 493.995 360.773 493.415 361.353C492.836 361.933 492.049 362.258 491.229 362.258H404.502V345.902Z" fill="white"/>
<path d="M412.263 546.55C411.931 546.564 411.599 546.512 411.287 546.395C410.976 546.278 410.691 546.1 410.45 545.87C410.209 545.641 410.016 545.365 409.884 545.059C409.752 544.754 409.683 544.425 409.682 544.092L394.222 365.104C394.196 363.56 393.592 362.082 392.531 360.961C391.469 359.839 390.027 359.156 388.487 359.044H315.457C313.92 359.159 312.481 359.845 311.423 360.966C310.365 362.087 309.764 363.563 309.737 365.104L294.278 544.169C294.276 544.501 294.208 544.828 294.077 545.133C293.946 545.437 293.755 545.712 293.516 545.942C293.276 546.171 292.993 546.35 292.683 546.467C292.373 546.585 292.043 546.64 291.712 546.627C291.034 546.485 290.438 546.084 290.051 545.51C289.664 544.935 289.517 544.232 289.64 543.551L305.1 364.547C305.641 358.286 310.124 353.571 315.504 353.571H388.533C393.929 353.571 398.396 358.286 398.938 364.547L414.397 543.551C414.498 544.223 414.338 544.908 413.95 545.465C413.562 546.023 412.975 546.411 412.31 546.55H412.263Z" fill="#EB5454"/>
<g opacity="0.4">
<path d="M412.262 546.548C411.93 546.562 411.598 546.51 411.286 546.393C410.975 546.276 410.69 546.098 410.449 545.868C410.208 545.639 410.015 545.363 409.883 545.057C409.751 544.752 409.682 544.423 409.681 544.09L394.221 365.102C394.195 363.558 393.591 362.08 392.53 360.959C391.469 359.837 390.026 359.154 388.486 359.042H315.456C313.919 359.157 312.48 359.843 311.422 360.964C310.364 362.085 309.763 363.561 309.736 365.102L294.277 544.167C294.275 544.499 294.207 544.826 294.076 545.131C293.945 545.435 293.754 545.71 293.515 545.94C293.275 546.169 292.992 546.348 292.682 546.466C292.372 546.583 292.042 546.638 291.711 546.625C291.033 546.483 290.437 546.082 290.05 545.508C289.663 544.933 289.516 544.23 289.639 543.549L305.099 364.545C305.64 358.284 310.123 353.569 315.503 353.569H388.532C393.928 353.569 398.395 358.284 398.937 364.545L414.396 543.549C414.497 544.221 414.337 544.906 413.949 545.464C413.561 546.021 412.974 546.409 412.309 546.548H412.262Z" fill="black"/>
</g>
<path d="M355.08 337.803H412.372V343.198C412.372 343.916 412.087 344.604 411.579 345.111C411.072 345.618 410.384 345.903 409.666 345.903H357.785C357.067 345.903 356.379 345.618 355.872 345.111C355.365 344.604 355.08 343.916 355.08 343.198V337.834V337.803Z" fill="#263238"/>
<path opacity="0.2" d="M355.08 337.803H412.372V343.198C412.372 343.916 412.087 344.604 411.579 345.111C411.072 345.618 410.384 345.903 409.666 345.903H357.785C357.067 345.903 356.379 345.618 355.872 345.111C355.365 344.604 355.08 343.916 355.08 343.198V337.834V337.803Z" fill="white"/>
<path d="M314.561 337.803H371.853V343.198C371.853 343.916 371.568 344.604 371.06 345.111C370.553 345.618 369.865 345.903 369.147 345.903H317.266C316.548 345.903 315.86 345.618 315.353 345.111C314.846 344.604 314.561 343.916 314.561 343.198V337.834V337.803Z" fill="#263238"/>
<path opacity="0.6" d="M314.561 337.803H371.853V343.198C371.853 343.916 371.568 344.604 371.06 345.111C370.553 345.618 369.865 345.903 369.147 345.903H317.266C316.548 345.903 315.86 345.618 315.353 345.111C314.846 344.604 314.561 343.916 314.561 343.198V337.834V337.803Z" fill="white"/>
<path d="M365.221 340.88H359.903V342.797H365.221V340.88Z" fill="#263238"/>
<path d="M356.703 340.88H351.385V342.797H356.703V340.88Z" fill="#263238"/>
<path d="M416.407 345.903H419.144C419.892 345.887 420.612 345.61 421.177 345.118C421.742 344.627 422.116 343.952 422.236 343.213L431.511 286.184C431.584 285.731 431.559 285.268 431.439 284.826C431.318 284.383 431.104 283.972 430.811 283.619C430.518 283.266 430.153 282.98 429.741 282.78C429.328 282.58 428.878 282.47 428.419 282.458L383.943 282.381L371.916 345.764H374.652L416.407 345.903Z" fill="#263238"/>
<path opacity="0.6" d="M416.407 345.903H419.144C419.892 345.887 420.612 345.61 421.177 345.118C421.742 344.627 422.116 343.952 422.236 343.213L431.511 286.184C431.584 285.731 431.559 285.268 431.439 284.826C431.318 284.383 431.104 283.972 430.811 283.619C430.518 283.266 430.153 282.98 429.741 282.78C429.328 282.58 428.878 282.47 428.419 282.458L383.943 282.381L371.916 345.764H374.652L416.407 345.903Z" fill="white"/>
<path opacity="0.2" d="M372.61 341.775L371.837 345.826H374.573L416.313 345.903H419.05C419.798 345.887 420.518 345.609 421.083 345.118C421.648 344.626 422.022 343.952 422.141 343.213L422.358 341.868L372.61 341.775Z" fill="black"/>
<path d="M371.899 345.874H374.666C375.415 345.858 376.134 345.58 376.699 345.088C377.264 344.597 377.639 343.923 377.758 343.184L387.034 286.123C387.107 285.671 387.082 285.209 386.961 284.768C386.84 284.326 386.626 283.916 386.333 283.564C386.04 283.212 385.675 282.927 385.262 282.729C384.85 282.53 384.399 282.423 383.942 282.413L371.899 345.874Z" fill="#263238"/>
<path opacity="0.3" d="M371.899 345.874H374.666C375.415 345.858 376.134 345.58 376.699 345.088C377.264 344.597 377.639 343.923 377.758 343.184L387.034 286.123C387.107 285.671 387.082 285.209 386.961 284.768C386.84 284.326 386.626 283.916 386.333 283.564C386.04 283.212 385.675 282.927 385.262 282.729C384.85 282.53 384.399 282.423 383.942 282.413L371.899 345.874Z" fill="white"/>
</svg>
