<svg width="16" height="17" viewBox="0 0 16 17" fill="none" xmlns="http://www.w3.org/2000/svg">
<path d="M15.7623 3.31222C15.2057 3.55888 14.6077 3.72555 13.979 3.80088C14.6277 3.41275 15.113 2.80186 15.3443 2.08222C14.7349 2.44421 14.0679 2.69901 13.3723 2.83555C12.9046 2.33613 12.285 2.0051 11.6099 1.89387C10.9347 1.78263 10.2417 1.89741 9.63849 2.22039C9.03525 2.54336 8.55552 3.05646 8.27377 3.68002C7.99202 4.30358 7.92402 5.00272 8.08033 5.66888C6.84546 5.60688 5.63742 5.28592 4.53462 4.72682C3.43181 4.16772 2.45889 3.38299 1.679 2.42355C1.41233 2.88355 1.259 3.41688 1.259 3.98488C1.2587 4.49621 1.38462 4.99971 1.62559 5.45071C1.86655 5.9017 2.21511 6.28624 2.64033 6.57022C2.14718 6.55453 1.66492 6.42127 1.23367 6.18155V6.22155C1.23362 6.93871 1.48169 7.6338 1.93579 8.18888C2.38989 8.74396 3.02205 9.12484 3.725 9.26688C3.26752 9.39069 2.78789 9.40893 2.32233 9.32022C2.52067 9.93729 2.907 10.4769 3.42725 10.8635C3.94749 11.2501 4.57561 11.4643 5.22367 11.4762C4.12356 12.3398 2.76493 12.8083 1.36633 12.8062C1.11859 12.8063 0.871051 12.7918 0.625 12.7629C2.04465 13.6757 3.69723 14.1601 5.385 14.1582C11.0983 14.1582 14.2217 9.42622 14.2217 5.32222C14.2217 5.18888 14.2183 5.05422 14.2123 4.92088C14.8199 4.48153 15.3443 3.93748 15.761 3.31422L15.7623 3.31222Z" fill="white"/>
</svg>
