<svg width="43" height="48" viewBox="0 0 43 48" fill="none" xmlns="http://www.w3.org/2000/svg">
<path opacity="0.02" d="M39.9567 21.9671L38.1653 20.835L40.4343 17.2192C43.5655 12.2293 42.0942 5.64371 37.1501 2.51926C32.206 -0.605186 25.6521 0.908803 22.5209 5.8987L20.2519 9.51457L18.4605 8.38253C16.4901 7.13727 13.8568 7.74557 12.6089 9.7343L1.26389 27.8136C0.0159461 29.8024 0.60711 32.4484 2.57759 33.6936L24.0737 47.2782C26.0442 48.5234 28.6775 47.9151 29.9254 45.9264L41.2704 27.847C42.5183 25.8583 41.9272 23.2123 39.9567 21.9671ZM18.9981 31.4462C17.0277 30.201 16.4365 27.555 17.6844 25.5663C18.9324 23.5775 21.5656 22.9692 23.5361 24.2145C25.5066 25.4597 26.0978 28.1057 24.8498 30.0944C23.6019 32.0832 20.9686 32.6915 18.9981 31.4462ZM34.7618 18.6841L23.6554 11.6655L25.9244 8.04959C27.8644 4.95802 31.9313 4.01854 34.9945 5.95434C38.0577 7.89014 38.9708 11.9767 37.0308 15.0683L34.7618 18.6841Z" fill="white"/>
</svg>
