<svg width="63" height="54" viewBox="0 0 63 54" fill="none" xmlns="http://www.w3.org/2000/svg">
<path d="M51.3785 16.1172L48.6745 6.85919C47.9253 4.29401 45.2024 2.80499 42.6237 3.55027L5.11444 14.3906C2.53568 15.1358 1.06222 17.8376 1.81144 20.4028L9.96126 48.3933C10.7105 50.9585 13.4334 52.4475 16.0121 51.7023L44.1441 43.572L40.7181 31.8422C38.8382 25.4059 42.5639 18.6646 49.0342 16.7947L51.3785 16.1172ZM44.5806 13.7322L32.0345 27.701C30.7899 29.0975 28.8676 29.653 27.0645 29.1373L8.94687 24.0305C8.67346 23.9672 8.41581 23.8493 8.18951 23.6841C7.96321 23.5188 7.77298 23.3096 7.63031 23.0691C7.48765 22.8286 7.39553 22.5618 7.35952 22.2849C7.32352 22.0079 7.34437 21.7266 7.42083 21.4579C7.49729 21.1892 7.62776 20.9388 7.80435 20.7217C7.98094 20.5046 8.19997 20.3254 8.44819 20.195C8.6964 20.0646 8.96865 19.9856 9.24844 19.9628C9.52823 19.9401 9.80975 19.974 10.076 20.0627L28.6368 25.2943L41.49 10.9839C41.7368 10.7096 42.0528 10.506 42.4054 10.3941C42.7579 10.2823 43.1342 10.2662 43.4951 10.3476C43.8559 10.429 44.1884 10.605 44.4579 10.8572C44.7274 11.1095 44.9243 11.4288 45.028 11.7822C45.2255 12.4584 45.0577 13.1897 44.5806 13.7322Z" fill="#EB5454"/>
<path d="M57.1487 27.1694L56.4676 24.8374C55.7184 22.2722 52.9955 20.7832 50.4168 21.5285C47.838 22.2737 46.3411 24.9823 47.0903 27.5475L47.7714 29.8795C46.4821 30.2521 45.7336 31.6064 46.1082 32.889L48.1515 39.8849C48.5261 41.1675 49.8876 41.912 51.177 41.5394L60.5543 38.8293C61.8437 38.4567 62.5921 37.1024 62.2175 35.8198L60.1742 28.8238C59.7996 27.5413 58.4381 26.7967 57.1487 27.1694ZM54.8044 27.8469L50.1158 29.2019L49.4347 26.87C49.06 25.5874 49.8085 24.2331 51.0979 23.8605C52.3873 23.4878 53.7487 24.2323 54.1233 25.5149L54.8044 27.8469Z" fill="#EB5454"/>
</svg>
