<svg width="46" height="32" viewBox="0 0 46 32" fill="none" xmlns="http://www.w3.org/2000/svg">
<path d="M23.0007 9.75C21.343 9.75 19.7533 10.4085 18.5812 11.5806C17.4091 12.7527 16.7507 14.3424 16.7507 16C16.7507 17.6576 17.4091 19.2473 18.5812 20.4194C19.7533 21.5915 21.343 22.25 23.0007 22.25C24.6583 22.25 26.248 21.5915 27.4201 20.4194C28.5922 19.2473 29.2507 17.6576 29.2507 16C29.2507 14.3424 28.5922 12.7527 27.4201 11.5806C26.248 10.4085 24.6583 9.75 23.0007 9.75ZM23.0007 26.4167C20.238 26.4167 17.5885 25.3192 15.635 23.3657C13.6815 21.4122 12.584 18.7627 12.584 16C12.584 13.2373 13.6815 10.5878 15.635 8.6343C17.5885 6.6808 20.238 5.58333 23.0007 5.58333C25.7633 5.58333 28.4128 6.6808 30.3663 8.6343C32.3199 10.5878 33.4173 13.2373 33.4173 16C33.4173 18.7627 32.3199 21.4122 30.3663 23.3657C28.4128 25.3192 25.7633 26.4167 23.0007 26.4167ZM23.0007 0.375C12.584 0.375 3.68815 6.85417 0.0839844 16C3.68815 25.1458 12.584 31.625 23.0007 31.625C33.4173 31.625 42.3131 25.1458 45.9173 16C42.3131 6.85417 33.4173 0.375 23.0007 0.375Z" fill="#eb5454"/>
</svg>
