<svg width="30" height="30" viewBox="0 0 30 30" fill="none" xmlns="http://www.w3.org/2000/svg">
<path d="M15 4.5C12.9233 4.5 10.8932 5.11581 9.16652 6.26957C7.4398 7.42332 6.09399 9.0632 5.29927 10.9818C4.50455 12.9004 4.29661 15.0116 4.70176 17.0484C5.1069 19.0852 6.10693 20.9562 7.57538 22.4246C9.04383 23.8931 10.9148 24.8931 12.9516 25.2982C14.9884 25.7034 17.0996 25.4955 19.0182 24.7007C20.9368 23.906 22.5767 22.5602 23.7304 20.8335C24.8842 19.1068 25.5 17.0767 25.5 15C25.4969 12.2162 24.3897 9.54727 22.4212 7.57881C20.4527 5.61035 17.7838 4.5031 15 4.5ZM19.1186 17.8814C19.2022 17.9621 19.2689 18.0586 19.3147 18.1654C19.3606 18.2721 19.3847 18.387 19.3857 18.5031C19.3867 18.6193 19.3646 18.7345 19.3206 18.8421C19.2766 18.9496 19.2116 19.0473 19.1295 19.1295C19.0473 19.2116 18.9496 19.2766 18.8421 19.3206C18.7346 19.3646 18.6193 19.3867 18.5032 19.3857C18.387 19.3847 18.2722 19.3606 18.1654 19.3147C18.0586 19.2689 17.9621 19.2022 17.8814 19.1186L15 16.2373L12.1186 19.1186C11.9536 19.278 11.7326 19.3662 11.5032 19.3642C11.2737 19.3622 11.0543 19.2702 10.892 19.108C10.7298 18.9457 10.6378 18.7263 10.6358 18.4968C10.6338 18.2674 10.722 18.0464 10.8814 17.8814L13.7627 15L10.8814 12.1186C10.722 11.9536 10.6338 11.7326 10.6358 11.5031C10.6378 11.2737 10.7298 11.0543 10.892 10.892C11.0543 10.7298 11.2737 10.6378 11.5032 10.6358C11.7326 10.6338 11.9536 10.722 12.1186 10.8814L15 13.7627L17.8814 10.8814C18.0464 10.722 18.2674 10.6338 18.4969 10.6358C18.7263 10.6378 18.9457 10.7298 19.108 10.892C19.2702 11.0543 19.3622 11.2737 19.3642 11.5031C19.3662 11.7326 19.278 11.9536 19.1186 12.1186L16.2373 15L19.1186 17.8814Z" fill="#8F6005"/>
</svg>
