<svg width="44" height="44" viewBox="0 0 44 44" fill="none" xmlns="http://www.w3.org/2000/svg">
<path d="M8.19457 38.5H35.8046C38.6279 38.5 40.3879 35.4383 38.9762 33L25.1712 9.14833C23.7596 6.71 20.2396 6.71 18.8279 9.14833L5.0229 33C3.61124 35.4383 5.37124 38.5 8.19457 38.5ZM21.9996 25.6667C20.9912 25.6667 20.1662 24.8417 20.1662 23.8333V20.1667C20.1662 19.1583 20.9912 18.3333 21.9996 18.3333C23.0079 18.3333 23.8329 19.1583 23.8329 20.1667V23.8333C23.8329 24.8417 23.0079 25.6667 21.9996 25.6667ZM23.8329 33H20.1662V29.3333H23.8329V33Z" fill="#FFA800"/>
</svg>
